<?xml version="1.0" encoding="UTF-8"?>
<!-- Generator: visioncortex VTracer 0.6.12 -->
<svg version="1.1" xmlns="http://www.w3.org/2000/svg" width="2048" height="2048">
<path d="M0,0 L1034,0 L1052,5 L1072,11 L1091,19 L1105,27 L1117,35 L1129,44 L1142,56 L1155,69 L1166,83 L1175,97 L1183,111 L1191,128 L1199,152 L1203,173 L1204,182 L1204,277 L1205,465 L1206,505 L1215,516 L1231,539 L1244,558 L1254,571 L1269,593 L1282,611 L1294,628 L1308,648 L1321,666 L1335,686 L1347,703 L1360,721 L1376,745 L1387,760 L1397,775 L1423,814 L1439,839 L1452,862 L1464,885 L1474,907 L1483,932 L1490,959 L1495,984 L1499,1017 L1501,1047 L1502,1077 L1502,1190 L1501,1206 L1500,1252 L1500,1375 L1501,1456 L1500,1482 L1498,1503 L1494,1525 L1487,1539 L1485,1542 L1483,1542 L1481,1546 L1474,1553 L1472,1553 L1472,1555 L1462,1561 L1452,1565 L1435,1568 L1302,1569 L1208,1569 L1193,1565 L1182,1559 L1175,1554 L1175,1552 L1171,1550 L1167,1545 L1167,1543 L1165,1543 L1165,1540 L1163,1540 L1162,1535 L1160,1535 L1155,1524 L1152,1517 L1149,1502 L1149,1462 L1148,1437 L1147,1425 L1132,1425 L1106,1426 L1097,1427 L927,1428 L546,1430 L469,1430 L101,1428 L-66,1427 L-72,1426 L-108,1425 L-113,1425 L-114,1437 L-115,1463 L-115,1502 L-119,1520 L-125,1532 L-126,1535 L-128,1535 L-129,1540 L-131,1540 L-131,1543 L-133,1543 L-135,1548 L-139,1552 L-141,1552 L-141,1554 L-151,1561 L-159,1565 L-174,1569 L-282,1569 L-402,1568 L-418,1565 L-430,1560 L-438,1555 L-438,1553 L-442,1551 L-449,1544 L-449,1542 L-451,1542 L-457,1532 L-461,1521 L-465,1495 L-466,1482 L-467,1448 L-466,1375 L-466,1252 L-467,1206 L-468,1180 L-468,1077 L-466,1030 L-462,990 L-457,963 L-451,939 L-442,912 L-431,887 L-420,865 L-406,841 L-395,823 L-377,796 L-363,775 L-350,756 L-336,736 L-323,717 L-310,699 L-297,680 L-284,662 L-271,644 L-255,621 L-242,603 L-229,584 L-216,566 L-203,548 L-190,529 L-180,515 L-172,505 L-171,454 L-170,267 L-170,182 L-167,161 L-162,142 L-155,123 L-145,103 L-134,86 L-124,73 L-113,61 L-100,48 L-86,37 L-71,27 L-57,19 L-32,9 L-10,3 Z M22,127 L6,131 L-8,138 L-19,147 L-27,155 L-36,170 L-41,182 L-43,198 L-43,387 L-41,383 L-38,353 L-32,322 L-23,295 L-16,280 L-7,263 L5,246 L12,238 L19,230 L32,218 L47,207 L67,195 L83,187 L102,179 L125,172 L152,166 L175,163 L199,161 L245,161 L282,164 L321,169 L355,175 L381,181 L412,190 L440,200 L467,211 L482,218 L497,226 L508,232 L516,237 L521,235 L534,227 L550,219 L566,212 L577,207 L605,196 L635,186 L665,178 L700,171 L743,165 L775,162 L793,161 L835,161 L868,164 L892,168 L920,175 L940,182 L958,190 L974,199 L990,209 L1004,220 L1017,232 L1024,240 L1032,250 L1044,268 L1052,284 L1060,303 L1067,326 L1072,353 L1075,383 L1077,387 L1077,194 L1074,179 L1066,163 L1059,153 L1050,144 L1037,135 L1026,130 L1010,127 Z M193,288 L174,290 L155,295 L136,302 L118,312 L106,323 L100,331 L93,346 L88,367 L86,383 L85,397 L85,414 L94,413 L129,407 L189,398 L246,391 L297,386 L341,383 L389,381 L452,379 L451,346 L442,340 L420,329 L388,316 L361,307 L334,300 L301,294 L270,290 L247,288 Z M787,288 L747,292 L721,296 L691,302 L660,311 L633,321 L608,332 L588,342 L583,346 L582,379 L674,382 L725,385 L779,390 L838,397 L892,405 L935,412 L945,414 L949,414 L949,397 L947,374 L944,357 L939,341 L931,326 L920,315 L909,308 L893,300 L869,292 L853,289 L841,288 Z M-43,388 Z M1076,388 Z M-43,390 L-43,403 L-42,403 L-42,390 Z M1076,390 L1076,403 L1077,403 L1077,390 Z M-43,404 Z M1076,404 Z M-43,429 L-43,444 L-42,444 L-42,429 Z M1076,429 L1076,444 L1077,444 L1077,429 Z M495,504 L488,505 L458,506 L406,507 L354,509 L297,513 L241,519 L195,525 L149,532 L109,539 L73,546 L63,549 L27,557 L5,562 L-42,577 L-71,589 L-79,593 L-90,609 L-103,627 L-116,646 L-127,661 L-141,681 L-153,698 L-163,712 L-175,729 L-187,746 L-200,764 L-214,784 L-230,807 L-242,824 L-259,849 L-277,876 L-292,899 L-305,921 L-317,944 L-326,967 L-331,984 L-336,1010 L-339,1034 L-341,1068 L-341,1119 L-58,1119 L474,1118 L595,1118 L1122,1119 L1375,1119 L1375,1068 L1373,1034 L1369,1004 L1364,980 L1356,956 L1347,936 L1334,912 L1321,891 L1311,876 L1293,849 L1276,824 L1263,806 L1248,784 L1236,767 L1226,753 L1214,736 L1202,719 L1189,701 L1175,681 L1163,664 L1151,647 L1138,629 L1127,613 L1117,599 L1113,593 L1096,585 L1070,575 L1029,562 L1007,557 L980,551 L963,547 L951,544 L908,536 L872,530 L817,522 L758,515 L712,511 L678,509 L626,507 L574,506 L542,505 L537,504 L525,506 L506,506 Z M276,1245 L-325,1246 L-339,1246 L-339,1339 L-340,1419 L-340,1440 L-329,1441 L-242,1441 L-240,1416 L-237,1398 L-230,1377 L-224,1363 L-214,1348 L-202,1334 L-192,1325 L-177,1315 L-165,1309 L-152,1304 L-131,1299 L-123,1298 L-81,1298 L-57,1299 L18,1300 L45,1300 L224,1301 L423,1302 L639,1302 L826,1301 L1016,1300 L1094,1299 L1117,1298 L1157,1298 L1175,1301 L1192,1306 L1207,1313 L1222,1322 L1236,1334 L1246,1345 L1256,1360 L1262,1372 L1270,1395 L1273,1409 L1275,1425 L1276,1441 L1369,1441 L1374,1440 L1374,1419 L1373,1332 L1373,1246 L1310,1246 L709,1245 Z " fill="#101010" transform="translate(507,241)"/>
</svg>
