<?xml version="1.0" encoding="UTF-8"?>
<!-- Generator: visioncortex VTracer 0.6.12 -->
<svg version="1.1" xmlns="http://www.w3.org/2000/svg" width="2048" height="2048">
<path d="M0,0 L63,0 L96,2 L137,6 L185,13 L227,21 L266,30 L297,38 L348,53 L384,65 L422,79 L455,92 L486,105 L510,116 L535,128 L560,141 L583,154 L610,170 L629,182 L654,198 L663,204 L668,202 L685,191 L707,177 L728,164 L754,149 L778,136 L801,124 L828,111 L863,96 L893,84 L933,69 L974,55 L1017,42 L1054,32 L1092,23 L1137,14 L1183,7 L1219,3 L1244,1 L1265,0 L1328,0 L1364,4 L1390,10 L1396,12 L1414,15 L1426,20 L1437,27 L1443,34 L1446,36 L1446,39 L1448,39 L1456,55 L1458,60 L1460,80 L1460,152 L1468,153 L1497,161 L1519,169 L1549,182 L1565,190 L1576,196 L1592,207 L1597,211 L1607,216 L1617,223 L1617,225 L1620,226 L1621,230 L1623,230 L1629,238 L1633,246 L1637,261 L1637,388 L1635,721 L1633,1051 L1631,1390 L1630,1434 L1626,1448 L1621,1458 L1612,1469 L1609,1473 L1606,1473 L1605,1476 L1595,1482 L1581,1487 L1566,1489 L1550,1487 L1517,1477 L1483,1468 L1445,1460 L1398,1452 L1346,1445 L1286,1439 L1232,1435 L1171,1432 L1117,1431 L1098,1431 L1057,1432 L1018,1434 L971,1438 L929,1443 L899,1448 L861,1455 L823,1464 L779,1476 L733,1490 L713,1496 L709,1501 L696,1511 L690,1514 L682,1517 L676,1519 L661,1520 L648,1518 L639,1515 L631,1511 L618,1501 L614,1496 L589,1488 L558,1479 L534,1472 L505,1464 L476,1457 L436,1449 L405,1444 L372,1440 L354,1438 L320,1435 L290,1433 L261,1432 L220,1431 L197,1431 L156,1432 L94,1435 L52,1438 L-18,1445 L-70,1452 L-117,1460 L-155,1468 L-196,1479 L-222,1487 L-241,1489 L-257,1486 L-269,1481 L-278,1475 L-278,1473 L-282,1472 L-293,1458 L-296,1453 L-301,1439 L-302,1432 L-303,1381 L-305,1043 L-307,712 L-309,376 L-309,261 L-305,246 L-299,235 L-295,230 L-293,230 L-291,225 L-289,225 L-289,223 L-274,213 L-266,209 L-256,201 L-241,192 L-226,184 L-196,171 L-172,162 L-144,154 L-136,152 L-132,152 L-132,76 L-130,60 L-123,44 L-120,39 L-118,39 L-117,35 L-112,30 L-105,24 L-89,16 L-76,13 L-66,11 L-41,5 L-12,1 Z M18,127 L-1,128 L-5,130 L-5,202 L-6,375 L-7,583 L-7,612 L-8,785 L-8,818 L-9,998 L-9,1109 L27,1104 L49,1102 L68,1101 L137,1101 L166,1103 L201,1107 L237,1113 L279,1122 L315,1132 L344,1141 L378,1153 L405,1164 L434,1177 L463,1191 L491,1206 L515,1220 L533,1231 L548,1241 L560,1249 L583,1265 L594,1273 L599,1277 L600,1277 L601,1212 L601,1142 L602,848 L602,787 L603,493 L603,316 L583,303 L558,287 L530,270 L505,256 L476,241 L451,229 L421,216 L389,203 L349,188 L313,176 L274,164 L232,153 L192,144 L152,137 L115,132 L83,129 L41,127 Z M1287,127 L1245,129 L1204,133 L1163,139 L1117,148 L1080,157 L1044,167 L1011,177 L968,192 L926,208 L884,226 L854,240 L830,252 L807,265 L791,274 L765,290 L745,303 L731,312 L730,321 L730,360 L729,637 L729,731 L728,1008 L728,1277 L733,1274 L742,1267 L765,1251 L783,1239 L803,1226 L832,1209 L858,1195 L877,1185 L911,1169 L940,1157 L967,1147 L1003,1135 L1034,1126 L1062,1119 L1107,1110 L1151,1104 L1173,1102 L1191,1101 L1260,1101 L1291,1103 L1323,1107 L1337,1109 L1337,972 L1336,792 L1336,759 L1335,586 L1335,555 L1334,375 L1333,174 L1333,129 L1327,128 L1300,127 Z M1460,284 L1460,312 L1461,477 L1461,518 L1462,683 L1462,731 L1463,886 L1463,935 L1464,1098 L1464,1198 L1460,1214 L1454,1225 L1451,1230 L1446,1235 L1439,1241 L1428,1248 L1415,1252 L1408,1253 L1399,1253 L1382,1251 L1352,1242 L1318,1234 L1287,1229 L1260,1227 L1205,1227 L1175,1229 L1141,1233 L1112,1238 L1084,1244 L1053,1252 L1007,1267 L979,1278 L956,1288 L932,1299 L913,1309 L897,1318 L899,1319 L945,1313 L986,1309 L1047,1305 L1088,1304 L1160,1304 L1212,1306 L1276,1310 L1341,1316 L1391,1322 L1444,1330 L1486,1338 L1500,1341 L1503,1341 L1504,1277 L1507,779 L1509,444 L1509,305 L1492,296 L1465,285 Z M-134,284 L-159,294 L-180,304 L-181,305 L-181,462 L-179,781 L-177,1124 L-176,1292 L-175,1341 L-162,1339 L-127,1332 L-77,1324 L-39,1319 L18,1313 L68,1309 L116,1306 L175,1304 L251,1304 L299,1306 L342,1309 L383,1313 L431,1319 L428,1316 L405,1304 L389,1296 L366,1285 L339,1274 L312,1264 L275,1252 L227,1240 L194,1234 L164,1230 L141,1228 L123,1227 L68,1227 L41,1229 L5,1235 L-31,1244 L-54,1251 L-71,1253 L-80,1253 L-92,1251 L-104,1246 L-116,1237 L-121,1231 L-124,1228 L-130,1218 L-134,1207 L-136,1198 L-136,1073 L-135,910 L-135,862 L-134,707 L-134,658 L-133,493 L-133,452 L-132,287 L-132,284 Z " fill="#101010" transform="translate(360,154)"/>
</svg>
