<?xml version="1.0" encoding="UTF-8"?>
<!-- Generator: visioncortex VTracer 0.6.12 -->
<svg version="1.1" xmlns="http://www.w3.org/2000/svg" width="2048" height="2048">
<path d="M0,0 L35,0 L56,3 L82,9 L118,21 L149,32 L185,45 L210,53 L239,61 L283,70 L325,76 L369,80 L435,85 L470,90 L500,97 L520,103 L540,111 L561,122 L576,132 L589,142 L601,153 L614,169 L625,188 L631,203 L634,214 L636,233 L635,249 L631,266 L626,279 L618,294 L609,306 L597,320 L588,330 L584,338 L583,342 L583,354 L587,368 L595,385 L606,403 L616,417 L632,438 L646,458 L659,480 L671,506 L679,530 L684,552 L686,569 L686,587 L684,604 L679,623 L674,636 L664,655 L655,667 L646,678 L644,678 L643,681 L632,690 L618,700 L601,709 L585,715 L575,718 L572,718 L572,1046 L570,1059 L565,1071 L558,1082 L552,1089 L548,1090 L547,1093 L535,1100 L523,1104 L505,1106 L480,1106 L403,1107 L257,1109 L175,1110 L94,1111 L33,1111 L17,1106 L7,1100 L3,1098 L-4,1090 L-12,1080 L-17,1070 L-20,1058 L-21,1042 L-47,1028 L-72,1012 L-86,1002 L-98,991 L-107,982 L-116,970 L-124,957 L-132,939 L-136,927 L-140,906 L-141,888 L-140,869 L-137,850 L-131,828 L-124,808 L-114,785 L-106,769 L-90,738 L-80,719 L-67,693 L-54,663 L-44,636 L-34,601 L-28,574 L-23,544 L-20,514 L-19,476 L-20,449 L-22,427 L-26,402 L-31,383 L-38,362 L-48,338 L-61,311 L-74,288 L-89,261 L-103,234 L-112,215 L-120,192 L-124,177 L-127,160 L-128,151 L-128,130 L-126,113 L-122,96 L-115,78 L-108,66 L-100,54 L-92,44 L-86,38 L-84,38 L-84,36 L-71,26 L-58,18 L-41,10 L-25,5 Z M13,127 L3,130 L0,134 L0,147 L4,160 L9,173 L17,189 L29,211 L41,232 L55,258 L66,280 L78,308 L86,330 L93,353 L99,377 L104,407 L107,436 L108,452 L108,511 L105,547 L99,589 L93,618 L85,650 L74,685 L63,714 L51,741 L36,773 L26,792 L9,824 L-3,849 L-9,865 L-13,881 L-13,892 L-9,900 L2,909 L17,918 L40,930 L60,941 L76,953 L81,957 L90,968 L97,979 L99,983 L163,983 L228,982 L313,981 L381,980 L401,980 L444,979 L444,697 L414,677 L400,665 L392,657 L383,646 L375,636 L365,621 L355,602 L348,582 L343,561 L343,545 L346,531 L351,521 L358,510 L362,507 L362,505 L366,503 L368,502 L368,500 L373,498 L382,494 L391,491 L405,489 L418,490 L427,493 L434,496 L442,501 L449,506 L456,514 L463,525 L471,551 L478,562 L487,572 L495,580 L506,587 L521,593 L530,595 L542,595 L551,591 L556,587 L558,583 L558,571 L554,558 L547,542 L538,526 L526,510 L518,499 L504,480 L491,460 L481,442 L470,419 L464,403 L459,385 L456,366 L455,344 L457,322 L463,297 L471,278 L480,263 L492,246 L501,236 L497,232 L482,225 L463,219 L437,214 L410,211 L342,206 L296,201 L257,195 L209,185 L179,177 L150,168 L105,152 L75,141 L48,132 L30,128 L22,127 Z " fill="#101010" transform="translate(760,765)"/>
<path d="M0,0 L14,1 L29,5 L39,10 L47,16 L56,27 L56,29 L58,29 L64,42 L66,48 L68,59 L68,74 L73,92 L79,110 L92,142 L96,150 L104,168 L108,176 L118,197 L126,213 L139,240 L148,260 L160,289 L163,298 L167,310 L171,321 L179,351 L185,379 L189,406 L191,426 L192,446 L192,467 L190,496 L186,525 L180,552 L172,578 L161,606 L150,629 L136,653 L126,668 L113,685 L101,699 L81,719 L67,729 L53,736 L40,739 L-15,739 L-34,734 L-50,726 L-61,719 L-77,707 L-89,696 L-97,689 L-98,686 L-102,684 L-103,681 L-107,679 L-116,668 L-124,659 L-132,648 L-144,630 L-156,609 L-166,588 L-175,564 L-182,540 L-187,516 L-189,500 L-190,484 L-190,440 L-187,417 L-180,383 L-172,356 L-163,330 L-151,301 L-138,271 L-127,246 L-107,199 L-91,158 L-78,122 L-70,97 L-64,73 L-57,43 L-49,27 L-41,18 L-39,18 L-38,15 L-24,6 L-17,3 Z M6,260 L-5,285 L-18,315 L-36,356 L-48,387 L-55,410 L-60,431 L-63,451 L-63,479 L-60,501 L-55,520 L-48,539 L-40,555 L-31,570 L-17,588 L-10,596 L-2,603 L7,611 L14,605 L27,587 L36,572 L45,555 L56,522 L61,499 L64,473 L64,440 L61,412 L54,376 L47,352 L38,327 L25,297 L18,283 L7,260 Z " fill="#101010" transform="translate(1026,87)"/>
</svg>
