<?xml version="1.0" encoding="UTF-8"?>
<!-- Generator: visioncortex VTracer 0.6.12 -->
<svg version="1.1" xmlns="http://www.w3.org/2000/svg" width="2048" height="2048">
<path d="M0,0 L71,0 L116,3 L159,8 L196,14 L243,24 L274,32 L303,41 L339,53 L372,66 L408,82 L448,102 L471,115 L497,130 L521,145 L546,162 L564,175 L582,189 L598,202 L612,214 L620,221 L630,230 L638,237 L646,245 L654,252 L670,268 L677,276 L687,286 L694,294 L706,308 L715,318 L722,327 L733,341 L743,354 L757,373 L779,406 L791,425 L806,451 L819,475 L827,490 L840,518 L850,541 L868,587 L880,624 L887,649 L892,667 L899,697 L907,738 L912,773 L916,812 L918,845 L918,923 L916,956 L911,1001 L904,1045 L895,1087 L886,1122 L874,1161 L865,1187 L852,1220 L840,1247 L824,1281 L811,1306 L797,1330 L787,1347 L771,1372 L755,1395 L745,1409 L732,1426 L721,1440 L710,1453 L701,1464 L686,1480 L679,1488 L671,1496 L666,1502 L664,1502 L662,1506 L649,1519 L641,1526 L634,1533 L626,1540 L616,1549 L608,1556 L597,1565 L581,1578 L564,1591 L546,1604 L527,1617 L507,1630 L486,1643 L458,1659 L423,1677 L400,1688 L372,1700 L338,1713 L300,1726 L266,1736 L225,1746 L190,1753 L151,1759 L116,1763 L71,1766 L2,1766 L-32,1764 L-72,1760 L-114,1754 L-159,1745 L-199,1735 L-233,1725 L-271,1712 L-306,1698 L-338,1684 L-371,1668 L-393,1656 L-421,1640 L-440,1628 L-467,1610 L-481,1600 L-497,1588 L-510,1578 L-524,1567 L-538,1555 L-549,1546 L-565,1531 L-573,1524 L-609,1488 L-609,1486 L-612,1485 L-619,1477 L-630,1465 L-639,1454 L-650,1441 L-661,1427 L-675,1409 L-689,1389 L-713,1353 L-730,1325 L-737,1313 L-744,1299 L-753,1283 L-764,1260 L-778,1229 L-795,1186 L-807,1150 L-817,1116 L-828,1072 L-835,1036 L-841,997 L-845,961 L-847,933 L-848,910 L-848,855 L-846,818 L-843,785 L-839,755 L-833,719 L-826,685 L-817,649 L-804,606 L-792,572 L-779,540 L-766,511 L-746,471 L-733,448 L-718,422 L-703,398 L-693,383 L-679,363 L-665,344 L-652,328 L-644,318 L-632,304 L-622,293 L-615,285 L-603,272 L-567,236 L-559,229 L-547,218 L-536,209 L-522,197 L-509,187 L-495,176 L-477,163 L-460,151 L-443,140 L-419,125 L-398,113 L-376,101 L-357,91 L-334,80 L-315,72 L-304,67 L-271,54 L-241,44 L-223,38 L-209,34 L-187,28 L-159,21 L-120,13 L-82,7 L-45,3 Z M23,127 L-20,129 L-61,133 L-106,140 L-147,149 L-176,157 L-214,169 L-248,182 L-263,188 L-278,195 L-307,209 L-322,217 L-334,223 L-351,233 L-377,249 L-393,260 L-410,272 L-431,288 L-445,299 L-455,308 L-466,317 L-481,331 L-496,345 L-514,363 L-521,371 L-532,383 L-539,391 L-548,402 L-561,418 L-576,438 L-589,456 L-599,471 L-612,492 L-626,516 L-638,539 L-647,556 L-662,590 L-676,627 L-688,663 L-697,695 L-706,734 L-712,768 L-716,798 L-719,831 L-720,847 L-720,919 L-717,959 L-713,992 L-708,1023 L-702,1051 L-697,1072 L-686,1111 L-676,1140 L-663,1173 L-652,1198 L-638,1227 L-622,1257 L-610,1277 L-598,1296 L-590,1308 L-578,1325 L-564,1344 L-551,1360 L-542,1371 L-529,1386 L-517,1399 L-503,1414 L-489,1428 L-481,1435 L-472,1444 L-464,1451 L-451,1462 L-434,1476 L-418,1488 L-399,1502 L-363,1526 L-338,1541 L-312,1555 L-281,1570 L-248,1584 L-219,1595 L-186,1606 L-150,1616 L-110,1625 L-69,1632 L-32,1636 L-5,1638 L27,1639 L46,1639 L91,1637 L131,1633 L164,1628 L200,1621 L217,1617 L236,1612 L263,1604 L293,1594 L321,1583 L353,1569 L370,1561 L389,1551 L413,1538 L436,1524 L453,1513 L469,1502 L483,1492 L504,1476 L521,1462 L535,1450 L548,1438 L558,1429 L589,1398 L596,1390 L606,1379 L615,1368 L626,1355 L639,1338 L653,1319 L667,1299 L681,1277 L693,1257 L707,1231 L722,1200 L736,1167 L749,1132 L761,1095 L771,1057 L778,1024 L783,994 L787,963 L790,927 L791,903 L791,865 L790,838 L786,794 L780,752 L773,716 L764,681 L755,651 L744,619 L730,585 L721,565 L709,540 L697,518 L691,507 L677,483 L655,450 L642,432 L632,419 L619,403 L610,392 L601,382 L594,374 L580,359 L549,328 L541,321 L531,312 L520,303 L507,292 L490,279 L472,266 L452,252 L431,239 L409,226 L387,214 L368,204 L340,191 L311,179 L281,168 L243,156 L213,148 L170,139 L131,133 L92,129 L47,127 Z " fill="#101010" transform="translate(992,140)"/>
<path d="M0,0 L14,0 L29,2 L34,4 L34,6 L40,7 L44,9 L44,11 L48,12 L53,17 L58,22 L65,29 L72,37 L86,52 L86,54 L89,55 L96,63 L105,73 L118,87 L118,89 L121,90 L128,98 L133,103 L142,113 L149,121 L162,135 L169,143 L176,151 L181,156 L195,171 L195,173 L198,174 L205,182 L207,186 L211,188 L218,196 L227,206 L227,208 L231,210 L240,221 L246,230 L251,241 L253,248 L254,263 L252,278 L248,289 L246,289 L245,294 L238,303 L232,309 L228,316 L214,330 L206,337 L138,405 L136,405 L135,408 L127,415 L63,479 L61,479 L61,481 L59,481 L59,483 L51,490 L-13,554 L-15,554 L-16,557 L-24,564 L-90,630 L-92,630 L-92,632 L-100,639 L-168,707 L-176,714 L-240,778 L-248,785 L-319,856 L-327,863 L-395,931 L-403,938 L-470,1005 L-478,1012 L-532,1066 L-543,1075 L-547,1078 L-558,1083 L-569,1086 L-584,1088 L-592,1088 L-608,1084 L-620,1078 L-629,1071 L-629,1069 L-633,1067 L-644,1055 L-653,1046 L-660,1038 L-671,1027 L-678,1019 L-689,1008 L-696,1000 L-708,988 L-715,980 L-726,969 L-726,967 L-729,966 L-736,958 L-744,950 L-744,948 L-746,948 L-746,946 L-748,946 L-755,938 L-766,927 L-773,919 L-784,908 L-791,900 L-803,888 L-810,880 L-821,869 L-828,861 L-839,850 L-846,842 L-857,831 L-864,823 L-876,811 L-883,803 L-894,792 L-901,784 L-912,773 L-912,771 L-914,771 L-914,769 L-916,769 L-923,761 L-931,753 L-938,745 L-949,734 L-956,726 L-967,715 L-974,707 L-985,696 L-985,694 L-987,694 L-987,692 L-989,692 L-996,684 L-1005,675 L-1005,673 L-1007,673 L-1014,665 L-1026,653 L-1032,645 L-1036,638 L-1040,628 L-1043,619 L-1044,606 L-1042,591 L-1035,575 L-1032,570 L-1030,570 L-1028,566 L-1022,558 L-1017,553 L-1015,553 L-1013,549 L-1011,549 L-1009,545 L-1003,540 L-996,532 L-989,526 L-983,519 L-976,513 L-970,506 L-962,499 L-957,493 L-949,486 L-829,366 L-827,366 L-825,362 L-819,357 L-814,352 L-804,345 L-790,338 L-774,334 L-755,334 L-744,337 L-736,341 L-727,347 L-711,362 L-699,374 L-692,382 L-661,413 L-654,421 L-620,455 L-613,463 L-583,493 L-576,501 L-557,520 L-554,519 L-548,512 L-540,505 L-520,485 L-518,485 L-516,481 L-508,474 L-484,450 L-482,450 L-480,446 L-472,439 L-467,434 L-449,416 L-442,410 L-435,402 L-427,395 L-413,381 L-411,381 L-409,377 L-401,370 L-396,365 L-377,346 L-375,346 L-373,342 L-365,335 L-359,328 L-351,321 L-336,306 L-334,306 L-332,302 L-324,295 L-319,290 L-300,271 L-298,271 L-296,267 L-288,260 L-283,255 L-264,236 L-262,236 L-260,232 L-253,226 L-248,221 L-224,197 L-217,191 L-212,186 L-188,162 L-181,156 L-175,149 L-167,142 L-152,127 L-145,121 L-139,114 L-131,107 L-116,92 L-114,92 L-112,88 L-109,87 L-107,83 L-99,76 L-94,71 L-80,57 L-78,57 L-76,53 L-73,52 L-71,48 L-63,41 L-58,36 L-40,18 L-35,14 L-33,14 L-33,12 L-23,6 L-10,2 Z M4,153 L3,156 L-1,158 L-24,181 L-32,188 L-37,193 L-60,216 L-68,223 L-73,228 L-96,251 L-104,258 L-109,263 L-109,265 L-113,267 L-137,291 L-145,298 L-145,300 L-149,302 L-177,330 L-181,333 L-181,335 L-185,337 L-186,340 L-190,342 L-213,365 L-221,372 L-222,375 L-226,377 L-249,400 L-257,407 L-258,410 L-262,412 L-285,435 L-293,442 L-298,447 L-321,470 L-329,477 L-334,482 L-334,484 L-338,486 L-361,509 L-369,516 L-370,519 L-374,521 L-397,544 L-405,551 L-406,554 L-410,556 L-433,579 L-441,586 L-442,589 L-446,591 L-469,614 L-477,621 L-482,626 L-504,648 L-507,650 L-507,652 L-512,654 L-519,658 L-527,664 L-538,669 L-554,672 L-568,672 L-580,669 L-589,665 L-595,661 L-604,654 L-618,640 L-625,632 L-656,601 L-663,593 L-694,562 L-695,560 L-697,560 L-699,556 L-734,521 L-741,513 L-767,487 L-770,487 L-776,494 L-783,500 L-788,505 L-788,507 L-792,509 L-792,511 L-794,511 L-794,513 L-797,514 L-801,518 L-801,520 L-805,522 L-806,525 L-810,527 L-810,529 L-814,531 L-891,608 L-885,616 L-869,632 L-862,640 L-851,651 L-844,659 L-833,670 L-830,674 L-828,674 L-826,678 L-815,689 L-812,693 L-810,693 L-808,697 L-796,709 L-794,712 L-792,712 L-790,716 L-778,728 L-776,731 L-774,731 L-772,735 L-760,747 L-753,755 L-742,766 L-735,774 L-724,785 L-717,793 L-701,809 L-694,817 L-683,828 L-676,836 L-665,847 L-658,855 L-647,866 L-640,874 L-628,886 L-621,894 L-610,905 L-603,913 L-592,924 L-589,928 L-587,928 L-585,932 L-581,935 L-540,894 L-532,887 L-462,817 L-454,810 L-388,744 L-380,737 L-314,671 L-311,669 L-311,667 L-309,667 L-309,665 L-305,663 L-235,593 L-227,586 L-161,520 L-153,513 L-86,446 L-78,439 L-8,369 L0,362 L69,293 L77,286 L103,260 L97,253 L82,237 L75,229 L61,214 L50,202 L48,199 L46,199 L44,195 L36,186 L34,186 L32,182 L17,166 L6,154 Z " fill="#101010" transform="translate(1411,514)"/>
</svg>
