<?xml version="1.0" encoding="UTF-8"?>
<svg version="1.1" xmlns="http://www.w3.org/2000/svg" width="256" height="256">
<path d="M0 0 C1.22421661 -0.00671722 2.44843323 -0.01343445 3.70974731 -0.02035522 C7.04077845 -0.03600611 10.37156006 -0.04270492 13.70261049 -0.0439868 C15.79298604 -0.04541718 17.88333612 -0.04970349 19.97370529 -0.05498123 C27.29303371 -0.0734398 34.61228971 -0.08165748 41.93164062 -0.08007812 C48.71062072 -0.07887926 55.48928115 -0.09994196 62.26818049 -0.13156545 C68.12337576 -0.15788793 73.97846768 -0.16843873 79.83372152 -0.16716731 C83.31511107 -0.16666214 86.79621633 -0.17209332 90.27754593 -0.19352341 C115.22584445 -0.33626356 136.05195094 1.83120107 155.36865234 19.29052734 C156.06474609 19.90541016 156.76083984 20.52029297 157.47802734 21.15380859 C170.05497477 32.92641636 178.42452104 49.9310589 179.55976486 67.19719315 C179.64097027 70.44016089 179.66176839 73.67788877 179.65917969 76.921875 C179.66589691 78.14609161 179.67261414 79.37030823 179.67953491 80.63162231 C179.6951858 83.96265345 179.70188461 87.29343506 179.70316648 90.62448549 C179.70459687 92.71486104 179.70888318 94.80521112 179.71416092 96.89558029 C179.73261949 104.21490871 179.74083717 111.53416471 179.73925781 118.85351562 C179.73805895 125.63249572 179.75912165 132.41115615 179.79074514 139.19005549 C179.81706761 145.04525076 179.82761842 150.90034268 179.82634699 156.75559652 C179.82584183 160.23698607 179.83127301 163.71809133 179.85270309 167.19942093 C179.99574322 192.20014954 177.79579002 212.90371154 160.36865234 232.29052734 C159.85044922 232.90154297 159.33224609 233.51255859 158.79833984 234.14208984 C147.33206274 246.76075661 128.94603909 255.10166755 112.17268753 256.57037163 C108.87471789 256.68278239 105.58890234 256.70765709 102.2890625 256.69458008 C100.43504066 256.70487495 100.43504066 256.70487495 98.54356384 256.71537781 C95.19406916 256.73040723 91.8451375 256.73217772 88.49565172 256.72643542 C85.68051779 256.72331505 82.86543265 256.72946736 80.05030572 256.73547417 C73.39921738 256.749455 66.74825765 256.74801252 60.09716797 256.73657227 C53.27775968 256.72510036 46.45874512 256.73916564 39.63938868 256.76596874 C33.7450702 256.78825276 27.85087416 256.79473469 21.95651662 256.78889233 C18.45342461 256.78555131 14.95058467 256.78774409 11.44752884 256.80514336 C-16.46571765 256.93072244 -16.46571765 256.93072244 -28.63134766 252.29052734 C-29.46553726 251.97646439 -30.29972687 251.66240143 -31.15919495 251.33882141 C-33.11091984 250.56185865 -34.95390323 249.6933295 -36.81884766 248.72802734 C-37.47755859 248.392146 -38.13626953 248.05626465 -38.81494141 247.71020508 C-45.78737536 243.96133948 -51.16837268 238.94977687 -56.63134766 233.29052734 C-57.36869141 232.58412109 -58.10603516 231.87771484 -58.86572266 231.14990234 C-63.14700972 226.80223874 -66.09814507 222.0471206 -68.88134766 216.66552734 C-69.1987793 216.06329346 -69.51621094 215.46105957 -69.84326172 214.84057617 C-77.50704588 199.14835356 -77.23412859 183.31766895 -77.16864967 166.21473885 C-77.15838582 162.68640094 -77.16795188 159.15810068 -77.17419434 155.62976074 C-77.18143241 149.70915136 -77.17198496 143.78874281 -77.15283203 137.86816406 C-77.13107054 131.06346776 -77.13812467 124.25925119 -77.16013765 117.45456648 C-77.17840222 111.56868679 -77.18079651 105.68294988 -77.17038298 99.79705095 C-77.1642082 96.300712 -77.16314318 92.80459707 -77.17652893 89.30827332 C-77.23361985 72.05686294 -77.11214183 56.46961722 -68.81884766 40.91552734 C-68.47337891 40.24908203 -68.12791016 39.58263672 -67.77197266 38.89599609 C-64.9285184 33.55280183 -61.70102973 28.78621178 -57.63134766 24.29052734 C-57.06287109 23.63052734 -56.49439453 22.97052734 -55.90869141 22.29052734 C-41.28510176 6.39397129 -21.07361656 -0.01681674 0 0 Z M-38.63134766 41.29052734 C-52.93221954 57.9837384 -51.93873935 77.98631115 -51.89697266 98.72802734 C-51.89832254 101.09969116 -51.90026575 103.4713547 -51.902771 105.84301758 C-51.90570704 110.7952744 -51.90147369 115.74745869 -51.89208984 120.69970703 C-51.88069633 127.01720453 -51.88726397 133.33453203 -51.89923477 139.65202332 C-51.90649451 144.54391743 -51.90414661 149.43577187 -51.89897919 154.32766724 C-51.89765405 156.65585348 -51.89925013 158.98404344 -51.90393829 161.31222534 C-51.93723848 182.49267579 -51.81137217 200.84918884 -36.63134766 217.29052734 C-23.54378836 229.07961563 -8.84020539 231.44381132 8.09814453 231.43579102 C9.13196259 231.43914963 10.16578064 231.44250824 11.23092651 231.44596863 C14.62580591 231.45541503 18.02063565 231.45741858 21.41552734 231.45849609 C23.79290792 231.46171315 26.17028829 231.46507756 28.54766846 231.46858215 C33.52380838 231.47455772 38.49993097 231.47642368 43.47607422 231.47583008 C49.82506223 231.47572857 56.17393814 231.48937638 62.52289963 231.50660229 C67.4319509 231.51776858 72.34097548 231.51974786 77.25003815 231.51922035 C79.58939246 231.52039366 81.92874761 231.52477862 84.26808929 231.53255272 C106.10209704 231.5983181 123.48511177 231.24849855 140.18115234 215.66552734 C143.88126605 211.64826104 146.95127883 207.63567896 149.49365234 202.79052734 C149.99123047 201.87271484 150.48880859 200.95490234 151.00146484 200.00927734 C155.81658698 186.91214513 154.66164999 172.35963819 154.63427734 158.63427734 C154.63562718 156.24019329 154.63757037 153.8461095 154.64007568 151.45202637 C154.64301192 146.45269135 154.63877777 141.45342818 154.62939453 136.45410156 C154.61800101 130.07607046 154.62456854 123.69820774 154.63653946 117.3201828 C154.64379868 112.38196567 154.64145153 107.44378784 154.63628387 102.50556946 C154.6349586 100.15505452 154.63655533 97.80453591 154.64124298 95.45402527 C155.21099287 73.63813305 155.21099287 73.63813305 148.86865234 53.10302734 C148.51609375 52.43013672 148.16353516 51.75724609 147.80029297 51.06396484 C142.6687828 41.73231808 135.91698705 35.69510262 126.55615234 30.79052734 C125.94126953 30.46375 125.32638672 30.13697266 124.69287109 29.80029297 C111.31748374 23.37298081 95.08966696 24.99619721 80.67724609 25.02490234 C78.28076641 25.02355259 75.88428699 25.02160947 73.48780823 25.019104 C68.48427707 25.01616794 63.48081769 25.02040173 58.47729492 25.02978516 C52.09019736 25.04118487 45.70326784 25.03460712 39.31617641 25.02264023 C34.37371065 25.01538583 29.43128421 25.01772587 24.48881721 25.02289581 C22.13468467 25.02422209 19.78054847 25.02262075 17.42642021 25.01793671 C14.12769085 25.01281164 10.82922733 25.02066483 7.53051758 25.03173828 C6.09702217 25.02566559 6.09702217 25.02566559 4.63456726 25.01947021 C-12.21060353 25.1233131 -26.4508759 29.22532819 -38.63134766 41.29052734 Z " fill="#140C0C" transform="translate(76.63134765625,-0.29052734375)"/>
<path d="M0 0 C3.0625 2.4375 3.0625 2.4375 5 5 C5.495 5.495 5.495 5.495 6 6 C6.71184058 9.69671758 6.96971685 13.45758766 4.91210938 16.7303772 C4.39455078 17.28679901 3.87699219 17.84322083 3.34375 18.41650391 C2.70373047 19.10778381 2.06371094 19.79906372 1.40429688 20.5112915 C0.61087891 21.33256531 -0.18253906 22.15383911 -1 23 C-1.47171631 23.48922691 -1.94343262 23.97845383 -2.42944336 24.4825058 C-6.58487906 28.78061925 -10.78843676 33.03040724 -15 37.2734375 C-15.6688623 37.94762348 -16.33772461 38.62180946 -17.02685547 39.31642532 C-20.55897814 42.87511076 -24.09465413 46.43022619 -27.6328125 49.98291016 C-30.55132287 52.91481718 -33.46236819 55.85384523 -36.3671875 58.79931641 C-39.89141772 62.37283962 -43.42774244 65.93395409 -46.97314453 69.48646927 C-48.31697632 70.83700595 -49.65655616 72.19178776 -50.99169922 73.55091476 C-52.8578832 75.4487324 -54.73924455 77.3301518 -56.625 79.20849609 C-57.16858154 79.76848297 -57.71216309 80.32846985 -58.2722168 80.90542603 C-61.88593213 84.46146381 -64.86508962 86.10186182 -70 87 C-76.36934701 85.29955965 -80.13141189 81.41406831 -84.6484375 76.77734375 C-85.34643463 76.0760585 -86.04443176 75.37477325 -86.76358032 74.65223694 C-88.2287493 73.17668944 -89.68915902 71.69640247 -91.14501953 70.21166992 C-93.37981068 67.93259399 -95.62788357 65.6673322 -97.87890625 63.40429688 C-99.30286607 61.96692084 -100.72607031 60.52879581 -102.1484375 59.08984375 C-103.15769791 58.06950294 -103.15769791 58.06950294 -104.18734741 57.02854919 C-104.8053421 56.39771927 -105.42333679 55.76688934 -106.06005859 55.11694336 C-106.60520111 54.56195663 -107.15034363 54.00696991 -107.71200562 53.43516541 C-110.51944028 50.30694283 -110.33050054 47.28697642 -110.28515625 43.2578125 C-109.85933373 39.88623144 -108.46522826 38.25979257 -106 36 C-102.73065722 33.71146006 -99.9301848 33.52837782 -96 34 C-91.82783016 36.4952527 -88.44619152 39.31424755 -85.0390625 42.765625 C-84.15605469 43.65507812 -83.27304688 44.54453125 -82.36328125 45.4609375 C-81.45964844 46.38132813 -80.55601563 47.30171875 -79.625 48.25 C-78.69816406 49.18585938 -77.77132812 50.12171875 -76.81640625 51.0859375 C-74.53966393 53.38615139 -72.26773829 55.69091445 -70 58 C-64.00610907 53.07561964 -58.55021929 47.66881261 -53.09178925 42.16695404 C-51.45458693 40.51685223 -49.81416184 38.87001406 -48.1729126 37.22393799 C-44.69577016 33.73544498 -41.22260618 30.24300786 -37.75 26.75 C-33.70954889 22.68591564 -29.6674662 18.62348171 -25.62116241 14.56522369 C-24.00659012 12.94417917 -22.39506163 11.32014997 -20.78363037 9.69598389 C-19.79568006 8.70440184 -18.80758952 7.71295948 -17.81933594 6.72167969 C-16.95886658 5.85597351 -16.09839722 4.99026733 -15.21185303 4.09832764 C-10.41879839 -0.44871907 -6.40042898 -1.04121811 0 0 Z " fill="#130B0B" transform="translate(180,85)"/>
</svg>
