<?xml version="1.0" encoding="UTF-8"?>
<!-- Generator: visioncortex VTracer 0.6.12 -->
<svg version="1.1" xmlns="http://www.w3.org/2000/svg" width="2048" height="2048">
<path d="M0,0 L47,0 L81,2 L117,6 L152,12 L180,18 L221,29 L254,40 L288,53 L316,66 L332,74 L353,85 L378,100 L394,111 L408,121 L421,131 L432,140 L442,149 L450,156 L476,182 L485,193 L496,206 L508,222 L516,234 L528,253 L544,284 L555,311 L562,334 L563,343 L590,345 L625,350 L655,356 L683,364 L706,372 L729,382 L745,390 L767,402 L789,417 L801,426 L814,437 L826,448 L839,461 L848,472 L858,484 L870,501 L881,519 L894,543 L904,566 L914,594 L922,624 L926,645 L929,665 L932,701 L932,747 L930,772 L925,807 L919,835 L910,866 L901,891 L888,921 L873,949 L861,968 L847,987 L834,1002 L820,1017 L811,1027 L798,1039 L784,1051 L765,1065 L749,1076 L734,1086 L712,1099 L693,1109 L677,1116 L662,1120 L644,1128 L635,1131 L612,1137 L587,1142 L566,1145 L530,1148 L504,1148 L490,1144 L472,1133 L471,1130 L467,1128 L467,1126 L464,1125 L456,1113 L451,1099 L449,1085 L451,1067 L458,1050 L461,1046 L463,1046 L465,1041 L470,1036 L472,1036 L473,1033 L475,1033 L475,1031 L485,1025 L496,1021 L512,1018 L551,1015 L573,1012 L593,1007 L605,1002 L620,995 L638,990 L657,980 L687,960 L704,947 L717,936 L727,927 L739,914 L752,896 L765,874 L777,849 L786,824 L794,794 L799,764 L801,743 L802,717 L801,695 L797,666 L790,636 L783,616 L775,598 L766,581 L755,565 L747,555 L738,545 L730,536 L717,526 L699,514 L681,504 L661,495 L645,489 L619,482 L589,477 L561,474 L523,471 L502,468 L486,463 L478,459 L469,453 L455,440 L447,427 L442,414 L439,397 L437,376 L433,359 L425,339 L417,323 L409,309 L397,292 L389,282 L378,269 L366,256 L356,246 L342,235 L325,222 L310,212 L285,197 L258,183 L233,172 L209,163 L182,154 L144,144 L114,138 L75,133 L45,131 L-3,131 L-28,133 L-57,137 L-91,144 L-118,152 L-147,163 L-164,171 L-184,182 L-203,194 L-222,208 L-233,217 L-247,229 L-260,241 L-273,254 L-281,264 L-291,277 L-305,297 L-320,322 L-334,349 L-344,373 L-355,406 L-361,433 L-365,466 L-365,500 L-363,523 L-359,550 L-355,568 L-350,577 L-346,587 L-344,599 L-344,614 L-348,630 L-352,640 L-356,646 L-365,656 L-369,661 L-378,667 L-390,672 L-398,674 L-411,675 L-436,685 L-462,698 L-482,710 L-499,722 L-514,735 L-527,748 L-536,759 L-545,772 L-555,789 L-564,810 L-570,828 L-576,857 L-578,876 L-578,909 L-575,937 L-569,968 L-562,993 L-552,1018 L-542,1035 L-532,1049 L-524,1059 L-517,1066 L-506,1075 L-495,1084 L-474,1096 L-457,1104 L-451,1106 L-442,1110 L-442,1112 L-439,1112 L-439,1114 L-434,1116 L-432,1120 L-428,1122 L-421,1131 L-416,1141 L-413,1150 L-411,1170 L-415,1188 L-421,1200 L-426,1207 L-428,1207 L-430,1211 L-435,1216 L-451,1226 L-464,1230 L-480,1231 L-495,1229 L-512,1223 L-536,1211 L-546,1203 L-566,1189 L-584,1176 L-595,1169 L-605,1161 L-630,1136 L-643,1119 L-653,1104 L-662,1089 L-673,1068 L-681,1049 L-692,1016 L-699,987 L-705,952 L-708,924 L-709,899 L-709,874 L-706,843 L-703,823 L-696,793 L-685,760 L-674,735 L-663,714 L-649,692 L-639,679 L-628,666 L-617,654 L-594,631 L-583,622 L-566,609 L-543,594 L-526,584 L-501,571 L-493,567 L-490,564 L-491,553 L-494,527 L-496,491 L-496,466 L-494,439 L-491,417 L-486,390 L-478,360 L-468,331 L-454,297 L-446,280 L-434,258 L-425,242 L-405,212 L-392,195 L-379,179 L-370,168 L-362,160 L-355,152 L-343,140 L-335,133 L-327,125 L-316,116 L-303,105 L-284,91 L-266,79 L-246,67 L-228,57 L-206,46 L-174,33 L-141,22 L-101,12 L-73,7 L-29,2 Z " fill="#101010" transform="translate(954,249)"/>
<path d="M0,0 L9,0 L21,2 L34,7 L45,14 L54,23 L54,25 L56,25 L58,30 L60,30 L63,35 L63,39 L65,39 L69,53 L70,60 L70,76 L66,91 L59,104 L56,105 L54,110 L49,115 L43,122 L41,122 L39,126 L36,127 L34,131 L32,131 L30,135 L23,143 L17,148 L10,156 L6,160 L4,160 L2,164 L-1,165 L-3,169 L-10,176 L-15,181 L-25,191 L-30,196 L-36,203 L-39,206 L-41,206 L-43,210 L-50,216 L-57,224 L-64,232 L-69,236 L-71,236 L-72,240 L-80,247 L-85,253 L-90,258 L-98,266 L-100,266 L-101,270 L-106,274 L-108,274 L-110,279 L-114,283 L-116,283 L-116,285 L-118,285 L-118,287 L-120,287 L-122,291 L-128,296 L-135,304 L-140,309 L-143,312 L-145,312 L-147,316 L-153,323 L-158,328 L-162,330 L-163,333 L-166,336 L-168,336 L-170,340 L-189,359 L-194,364 L-200,371 L-206,376 L-213,384 L-215,384 L-217,388 L-223,394 L-225,394 L-227,398 L-232,403 L-237,409 L-244,415 L-250,422 L-252,422 L-254,426 L-256,426 L-258,430 L-265,438 L-273,445 L-278,451 L-282,455 L-284,455 L-286,459 L-289,460 L-291,464 L-296,469 L-300,471 L-300,473 L-302,473 L-304,477 L-314,487 L-319,492 L-324,498 L-326,498 L-328,502 L-333,507 L-337,511 L-339,511 L-341,515 L-349,523 L-357,530 L-363,535 L-370,539 L-382,543 L-400,545 L-411,544 L-420,542 L-434,535 L-442,529 L-444,525 L-446,525 L-450,520 L-453,517 L-459,506 L-463,496 L-465,480 L-464,467 L-461,455 L-456,446 L-450,436 L-445,431 L-438,423 L-432,418 L-427,413 L-417,402 L-415,402 L-413,398 L-403,388 L-398,383 L-392,376 L-387,372 L-384,368 L-382,368 L-380,364 L-375,359 L-371,355 L-369,355 L-367,351 L-361,344 L-356,339 L-349,333 L-342,325 L-330,313 L-328,313 L-326,309 L-323,305 L-320,305 L-318,300 L-312,295 L-305,287 L-302,286 L-301,283 L-299,283 L-297,279 L-287,269 L-286,267 L-283,267 L-281,263 L-273,254 L-268,249 L-264,245 L-262,245 L-260,241 L-258,241 L-256,237 L-252,235 L-252,233 L-250,233 L-249,229 L-241,222 L-236,216 L-231,212 L-227,207 L-225,207 L-224,204 L-219,199 L-213,194 L-206,186 L-199,178 L-193,173 L-190,169 L-188,169 L-186,165 L-182,161 L-180,161 L-178,157 L-176,157 L-174,153 L-172,153 L-170,149 L-165,144 L-163,144 L-161,140 L-151,130 L-146,125 L-141,119 L-134,113 L-128,106 L-126,106 L-124,102 L-114,92 L-109,87 L-104,81 L-97,75 L-96,73 L-94,73 L-92,69 L-87,64 L-83,60 L-81,60 L-79,56 L-76,55 L-74,51 L-69,46 L-63,39 L-57,34 L-54,30 L-52,30 L-50,26 L-41,17 L-30,9 L-19,4 L-8,1 Z " fill="#101010" transform="translate(1018,1050)"/>
<path d="M0,0 L10,0 L26,4 L37,9 L37,11 L42,12 L42,14 L46,15 L50,19 L50,21 L52,21 L52,23 L54,23 L62,35 L67,47 L69,59 L69,77 L65,90 L60,100 L53,111 L50,114 L48,114 L46,118 L43,119 L41,123 L38,124 L36,128 L32,132 L30,132 L28,136 L21,143 L18,146 L14,150 L12,150 L10,154 L4,161 L-2,166 L-7,171 L-13,178 L-18,182 L-20,182 L-21,186 L-29,193 L-34,199 L-40,204 L-46,211 L-51,216 L-58,222 L-63,228 L-69,233 L-76,241 L-81,246 L-83,246 L-84,249 L-86,249 L-88,253 L-97,262 L-99,262 L-101,266 L-108,272 L-114,279 L-116,279 L-118,283 L-121,284 L-123,288 L-128,292 L-130,296 L-138,303 L-148,313 L-155,321 L-161,326 L-168,334 L-172,336 L-172,338 L-174,338 L-175,341 L-180,346 L-182,346 L-184,350 L-187,351 L-189,355 L-191,355 L-193,359 L-198,364 L-204,369 L-210,376 L-212,376 L-214,380 L-219,385 L-222,388 L-224,388 L-226,392 L-235,401 L-237,401 L-239,405 L-253,419 L-255,419 L-257,423 L-260,426 L-262,426 L-264,430 L-271,438 L-275,440 L-280,447 L-286,452 L-291,457 L-297,464 L-299,464 L-301,468 L-306,472 L-310,477 L-314,481 L-316,481 L-318,485 L-321,486 L-322,489 L-327,494 L-331,498 L-333,498 L-335,502 L-337,502 L-339,506 L-343,508 L-343,510 L-345,510 L-347,514 L-351,516 L-355,520 L-369,527 L-385,531 L-402,531 L-413,528 L-425,523 L-437,514 L-440,511 L-440,509 L-444,507 L-450,498 L-454,490 L-458,474 L-459,467 L-457,451 L-455,442 L-445,424 L-441,419 L-436,414 L-432,410 L-430,410 L-428,406 L-422,400 L-420,400 L-419,397 L-417,397 L-415,393 L-408,387 L-403,381 L-398,376 L-390,368 L-388,368 L-386,364 L-376,354 L-371,349 L-366,343 L-363,343 L-361,339 L-357,334 L-353,330 L-350,330 L-348,326 L-338,316 L-336,313 L-334,313 L-334,311 L-329,306 L-324,301 L-321,298 L-319,298 L-317,294 L-310,288 L-303,280 L-298,275 L-291,269 L-284,261 L-281,258 L-279,258 L-277,254 L-274,253 L-272,249 L-269,246 L-267,246 L-265,242 L-261,240 L-259,236 L-256,233 L-254,233 L-252,229 L-230,207 L-225,202 L-219,195 L-211,188 L-207,183 L-201,178 L-198,174 L-196,174 L-195,171 L-191,170 L-190,166 L-184,161 L-181,157 L-179,157 L-177,153 L-172,149 L-168,144 L-166,144 L-165,141 L-160,136 L-154,131 L-147,123 L-144,120 L-142,120 L-140,116 L-135,111 L-133,111 L-132,107 L-124,100 L-114,90 L-112,90 L-112,87 L-104,80 L-99,74 L-93,69 L-92,67 L-90,67 L-90,65 L-84,60 L-79,55 L-73,48 L-65,41 L-61,36 L-56,31 L-54,31 L-52,27 L-50,27 L-48,23 L-43,18 L-34,11 L-23,5 L-8,1 Z " fill="#101010" transform="translate(1302,1298)"/>
<path d="M0,0 L18,0 L32,4 L46,11 L47,13 L52,16 L59,23 L65,31 L68,38 L71,45 L74,59 L74,71 L73,81 L68,95 L61,105 L52,116 L46,122 L44,122 L42,126 L38,128 L36,132 L31,136 L29,139 L27,139 L25,143 L23,143 L21,147 L16,152 L12,156 L10,156 L8,160 L3,165 L-2,169 L-5,173 L-7,173 L-9,177 L-11,177 L-11,179 L-16,184 L-23,190 L-26,194 L-28,194 L-30,198 L-35,203 L-40,207 L-47,215 L-53,220 L-59,227 L-66,233 L-71,238 L-76,244 L-82,249 L-87,254 L-93,261 L-101,268 L-106,274 L-112,279 L-117,284 L-125,292 L-130,297 L-140,307 L-142,307 L-143,311 L-151,318 L-160,327 L-165,332 L-169,336 L-171,336 L-173,340 L-179,346 L-181,346 L-183,350 L-186,353 L-188,353 L-190,357 L-192,357 L-194,361 L-201,367 L-207,374 L-209,374 L-211,378 L-218,385 L-223,390 L-226,391 L-228,395 L-230,395 L-230,397 L-232,397 L-234,401 L-240,406 L-245,412 L-247,412 L-249,416 L-254,421 L-260,426 L-262,429 L-264,429 L-266,433 L-268,433 L-268,435 L-273,440 L-278,445 L-281,446 L-283,450 L-285,450 L-287,454 L-292,459 L-298,464 L-304,471 L-306,471 L-307,474 L-311,475 L-312,479 L-322,488 L-327,493 L-334,500 L-336,500 L-337,503 L-351,511 L-360,515 L-369,517 L-388,517 L-401,514 L-413,509 L-413,507 L-418,505 L-428,497 L-431,492 L-435,488 L-441,477 L-445,461 L-446,452 L-444,437 L-441,427 L-435,415 L-427,405 L-424,404 L-422,400 L-417,395 L-410,387 L-405,383 L-403,383 L-402,379 L-394,372 L-388,366 L-386,366 L-384,362 L-375,353 L-373,353 L-371,349 L-367,345 L-365,345 L-363,341 L-356,334 L-351,329 L-347,327 L-345,323 L-317,295 L-312,290 L-309,289 L-308,286 L-306,286 L-304,282 L-302,282 L-300,278 L-295,274 L-291,269 L-289,269 L-287,265 L-282,260 L-276,255 L-273,251 L-271,251 L-269,247 L-264,242 L-256,235 L-253,231 L-251,231 L-250,228 L-248,228 L-247,225 L-242,220 L-235,214 L-229,207 L-224,202 L-222,202 L-221,199 L-214,193 L-212,190 L-210,190 L-209,187 L-205,186 L-203,181 L-195,174 L-191,169 L-185,164 L-180,159 L-172,151 L-167,146 L-154,133 L-149,128 L-131,110 L-129,110 L-127,106 L-119,98 L-114,93 L-110,89 L-108,89 L-106,85 L-89,68 L-87,68 L-85,64 L-80,59 L-78,59 L-76,55 L-68,47 L-63,42 L-58,38 L-51,30 L-49,30 L-48,27 L-43,22 L-39,20 L-39,18 L-28,10 L-17,4 L-6,1 Z " fill="#101010" transform="translate(1239,1090)"/>
<path d="M0,0 L10,0 L22,2 L30,5 L36,8 L42,11 L46,14 L46,16 L50,17 L57,25 L63,33 L68,44 L71,53 L72,72 L70,84 L66,96 L57,110 L52,115 L47,119 L37,126 L25,131 L16,133 L-5,133 L-19,129 L-32,122 L-42,114 L-42,112 L-45,111 L-49,105 L-54,97 L-59,86 L-61,74 L-61,55 L-57,42 L-53,32 L-51,32 L-49,27 L-42,19 L-35,13 L-22,5 L-9,1 Z " fill="#101010" transform="translate(634,1704)"/>
<path d="M0,0 L18,0 L31,3 L43,9 L52,15 L59,23 L64,29 L72,44 L73,51 L74,54 L75,73 L72,85 L67,98 L60,108 L58,108 L56,112 L48,120 L32,129 L21,132 L12,133 L-1,133 L-11,131 L-23,126 L-34,119 L-44,109 L-51,99 L-57,83 L-59,66 L-58,55 L-55,45 L-51,35 L-41,21 L-29,11 L-18,5 L-11,2 Z " fill="#101010" transform="translate(751,1585)"/>
<path d="M0,0 L15,1 L21,3 L30,6 L40,12 L44,16 L49,19 L49,21 L51,21 L61,35 L66,47 L68,58 L69,66 L67,82 L64,91 L60,101 L58,101 L58,103 L56,103 L56,106 L54,106 L52,110 L48,115 L37,123 L27,128 L19,131 L3,133 L-10,132 L-25,127 L-33,123 L-33,121 L-38,119 L-47,111 L-53,103 L-59,92 L-62,84 L-64,68 L-63,54 L-59,41 L-51,27 L-48,23 L-46,23 L-44,19 L-35,11 L-20,4 L-15,2 Z " fill="#101010" transform="translate(492,1584)"/>
<path d="M0,0 L0,3 L-5,7 L-3,2 Z M-7,7 L-5,8 L-29,32 L-34,35 L-32,31 L-25,25 L-24,23 L-22,23 L-21,20 L-14,14 L-12,11 L-10,11 L-9,8 Z " fill="#080808" transform="translate(1039,1269)"/>
<path d="M0,0 L2,1 L-19,22 L-21,21 L-14,13 L-9,9 L-5,4 L-3,4 L-2,1 Z " fill="#080808" transform="translate(796,1253)"/>
<path d="M0,0 L0,3 L-13,16 L-15,15 L-10,9 L-2,2 Z " fill="#070707" transform="translate(1093,1484)"/>
<path d="M0,0 L2,0 L0,4 L-10,14 L-12,13 L-7,8 Z " fill="#060606" transform="translate(828,1219)"/>
<path d="M0,0 L2,0 L0,4 L-10,14 L-12,13 L-7,7 L-2,2 Z " fill="#070707" transform="translate(664,1387)"/>
<path d="M0,0 L2,1 L-5,9 L-9,11 L-8,8 L-2,3 Z " fill="#070707" transform="translate(914,1131)"/>
<path d="M0,0 L0,3 L-8,11 L-10,10 L-5,4 Z " fill="#070707" transform="translate(1053,1255)"/>
<path d="M0,0 L1,2 L-6,10 L-9,10 L-4,5 Z " fill="#060606" transform="translate(624,1428)"/>
<path d="M0,0 L3,1 L-3,6 L-6,10 L-8,9 L-4,4 Z " fill="#070707" transform="translate(959,1085)"/>
</svg>
