<?xml version="1.0" encoding="UTF-8"?>
<!-- Generator: visioncortex VTracer 0.6.12 -->
<svg version="1.1" xmlns="http://www.w3.org/2000/svg" width="2048" height="2048">
<path d="M0,0 L47,0 L81,2 L117,6 L152,12 L180,18 L221,29 L254,40 L288,53 L316,66 L332,74 L353,85 L378,100 L394,111 L408,121 L421,131 L432,140 L442,149 L450,156 L476,182 L485,193 L496,206 L508,222 L516,234 L528,253 L544,284 L555,311 L562,334 L563,343 L590,345 L625,350 L655,356 L683,364 L706,372 L729,382 L745,390 L767,402 L789,417 L801,426 L814,437 L826,448 L839,461 L848,472 L858,484 L870,501 L881,519 L894,543 L904,566 L914,594 L922,624 L926,645 L929,665 L932,701 L932,747 L930,772 L925,807 L919,835 L910,866 L901,891 L888,921 L881,934 L883,945 L887,962 L890,982 L892,1005 L892,1044 L889,1078 L886,1097 L881,1114 L877,1128 L872,1142 L866,1155 L865,1158 L863,1158 L862,1164 L857,1173 L847,1190 L844,1195 L842,1195 L840,1200 L833,1210 L830,1215 L828,1215 L826,1219 L822,1225 L817,1230 L809,1239 L801,1246 L791,1255 L778,1266 L767,1274 L754,1282 L743,1288 L735,1292 L725,1297 L718,1300 L707,1304 L693,1309 L678,1312 L666,1313 L656,1315 L613,1316 L574,1316 L536,1317 L504,1317 L454,1318 L427,1318 L377,1319 L349,1319 L300,1320 L272,1320 L223,1321 L202,1321 L145,1322 L117,1322 L68,1323 L40,1323 L2,1324 L-44,1324 L-60,1322 L-74,1318 L-86,1313 L-102,1305 L-119,1295 L-127,1290 L-127,1288 L-132,1286 L-142,1279 L-142,1277 L-147,1275 L-164,1259 L-169,1255 L-172,1250 L-178,1245 L-182,1240 L-185,1237 L-193,1227 L-201,1216 L-207,1207 L-211,1200 L-217,1190 L-222,1178 L-227,1168 L-235,1144 L-240,1122 L-243,1103 L-247,1105 L-244,1094 L-244,1071 L-242,1048 L-239,1025 L-236,1011 L-233,1002 L-228,987 L-222,972 L-215,958 L-210,949 L-206,942 L-204,942 L-202,936 L-190,920 L-185,913 L-183,913 L-181,909 L-163,891 L-161,891 L-161,889 L-150,880 L-135,869 L-125,862 L-118,858 L-101,848 L-85,840 L-80,838 L-80,795 L-79,785 L-78,772 L-76,759 L-73,746 L-66,720 L-62,710 L-54,689 L-46,673 L-39,659 L-31,646 L-30,644 L-28,644 L-26,638 L-14,622 L-9,615 L-5,611 L2,603 L5,600 L7,600 L9,595 L14,591 L19,586 L22,585 L24,581 L34,572 L38,571 L38,569 L47,563 L50,560 L66,549 L74,543 L81,539 L97,530 L112,522 L130,514 L147,508 L161,503 L175,499 L207,492 L226,489 L252,486 L280,484 L319,484 L342,485 L380,490 L396,494 L403,495 L411,498 L423,501 L440,507 L452,512 L470,520 L486,528 L486,530 L492,532 L501,537 L501,539 L507,541 L516,547 L516,549 L522,551 L536,562 L541,566 L553,575 L558,580 L564,585 L564,587 L567,588 L572,593 L579,601 L584,606 L592,615 L592,617 L596,619 L602,627 L611,639 L618,649 L626,662 L635,677 L644,696 L647,701 L650,708 L656,724 L660,734 L663,745 L667,760 L668,766 L679,767 L680,768 L695,771 L718,778 L732,782 L741,786 L750,789 L763,794 L782,804 L789,808 L791,809 L793,799 L799,766 L801,743 L802,717 L801,695 L797,666 L790,636 L783,616 L775,598 L766,581 L755,565 L747,555 L738,545 L730,536 L717,526 L699,514 L681,504 L661,495 L645,489 L619,482 L589,477 L561,474 L523,471 L502,468 L486,463 L478,459 L469,453 L455,440 L447,427 L442,414 L439,397 L437,376 L433,359 L425,339 L417,323 L409,309 L397,292 L389,282 L378,269 L366,256 L356,246 L342,235 L325,222 L310,212 L285,197 L258,183 L233,172 L209,163 L182,154 L144,144 L114,138 L75,133 L45,131 L-3,131 L-28,133 L-57,137 L-91,144 L-118,152 L-147,163 L-164,171 L-184,182 L-203,194 L-222,208 L-233,217 L-247,229 L-260,241 L-273,254 L-281,264 L-291,277 L-305,297 L-320,322 L-334,349 L-344,373 L-355,406 L-361,433 L-365,466 L-365,500 L-363,523 L-359,550 L-355,568 L-350,577 L-346,587 L-344,599 L-344,614 L-348,630 L-352,640 L-356,646 L-365,656 L-369,661 L-378,667 L-390,672 L-398,674 L-411,675 L-436,685 L-462,698 L-482,710 L-499,722 L-514,735 L-527,748 L-536,759 L-545,772 L-555,789 L-564,810 L-570,828 L-576,857 L-578,876 L-578,909 L-575,937 L-569,968 L-562,993 L-552,1018 L-542,1035 L-532,1049 L-524,1059 L-514,1069 L-506,1076 L-495,1086 L-477,1097 L-455,1108 L-426,1120 L-402,1128 L-377,1133 L-348,1136 L-334,1136 L-316,1135 L-306,1136 L-291,1140 L-279,1147 L-279,1149 L-275,1150 L-275,1152 L-272,1153 L-272,1155 L-270,1155 L-270,1157 L-268,1157 L-261,1167 L-256,1178 L-255,1181 L-255,1219 L-263,1237 L-265,1238 L-267,1242 L-269,1242 L-271,1246 L-274,1247 L-274,1249 L-276,1249 L-276,1251 L-286,1257 L-296,1262 L-310,1265 L-338,1267 L-366,1266 L-399,1262 L-425,1257 L-451,1250 L-478,1240 L-514,1224 L-543,1210 L-561,1199 L-580,1186 L-589,1179 L-589,1177 L-591,1177 L-591,1175 L-593,1175 L-601,1165 L-630,1136 L-643,1119 L-653,1104 L-662,1089 L-673,1068 L-681,1049 L-692,1016 L-699,987 L-705,952 L-708,924 L-709,899 L-709,874 L-706,843 L-703,823 L-696,793 L-685,760 L-674,735 L-663,714 L-649,692 L-639,679 L-628,666 L-617,654 L-594,631 L-583,622 L-566,609 L-543,594 L-526,584 L-501,571 L-493,567 L-490,564 L-491,553 L-494,527 L-496,491 L-496,466 L-494,439 L-491,417 L-486,390 L-478,360 L-468,331 L-454,297 L-446,280 L-434,258 L-425,242 L-405,212 L-392,195 L-379,179 L-370,168 L-362,160 L-355,152 L-343,140 L-335,133 L-327,125 L-316,116 L-303,105 L-284,91 L-266,79 L-246,67 L-228,57 L-206,46 L-174,33 L-141,22 L-101,12 L-73,7 L-29,2 Z M302,614 L278,615 L263,616 L243,619 L229,621 L207,626 L194,630 L181,635 L174,638 L158,646 L152,649 L140,657 L128,665 L123,669 L112,678 L104,685 L97,693 L91,700 L85,708 L81,714 L71,731 L64,747 L59,759 L53,781 L50,804 L50,822 L53,837 L57,849 L58,853 L62,864 L63,873 L63,882 L61,897 L57,907 L53,915 L44,926 L40,929 L40,931 L35,933 L26,938 L13,943 L-7,949 L-24,956 L-43,966 L-50,970 L-64,979 L-71,984 L-71,986 L-75,988 L-80,993 L-90,1004 L-93,1009 L-93,1011 L-95,1011 L-97,1018 L-99,1018 L-104,1029 L-104,1033 L-106,1033 L-112,1056 L-113,1064 L-113,1083 L-112,1096 L-107,1114 L-101,1129 L-94,1140 L-91,1145 L-87,1150 L-83,1155 L-78,1160 L-69,1169 L-58,1178 L-48,1185 L-44,1186 L-44,1188 L-34,1193 L27,1193 L77,1192 L104,1192 L154,1191 L189,1191 L227,1190 L259,1190 L308,1189 L336,1189 L386,1188 L421,1188 L459,1187 L491,1187 L529,1186 L576,1186 L606,1185 L620,1186 L640,1186 L654,1183 L665,1180 L679,1174 L688,1169 L699,1161 L710,1152 L715,1147 L722,1140 L725,1135 L729,1131 L737,1119 L743,1109 L747,1100 L747,1097 L749,1097 L754,1082 L757,1074 L760,1059 L761,1043 L761,1003 L759,988 L754,970 L750,958 L743,944 L737,935 L730,927 L721,920 L712,915 L705,912 L689,906 L679,903 L671,900 L658,897 L647,894 L617,889 L601,890 L581,886 L565,877 L561,873 L559,873 L557,869 L552,863 L549,857 L547,857 L544,847 L541,835 L541,813 L542,805 L540,792 L536,777 L531,763 L527,755 L523,746 L513,728 L510,723 L503,713 L495,703 L486,692 L484,692 L482,688 L478,686 L476,682 L464,672 L462,672 L461,669 L451,662 L443,656 L427,646 L425,646 L425,644 L417,640 L407,635 L393,629 L380,625 L372,622 L350,618 L326,615 Z " fill="#101010" transform="translate(954,249)"/>
</svg>
