<?xml version="1.0" encoding="UTF-8"?>
<!-- Generator: visioncortex VTracer 0.6.12 -->
<svg version="1.1" xmlns="http://www.w3.org/2000/svg" width="2048" height="2048">
<path d="M0,0 L42,0 L65,2 L95,7 L132,16 L154,24 L183,36 L206,48 L225,59 L238,68 L248,75 L258,83 L268,91 L280,101 L285,106 L285,108 L289,110 L303,124 L303,126 L307,128 L316,139 L322,146 L335,163 L344,177 L351,187 L361,205 L372,226 L378,241 L387,264 L394,286 L402,323 L405,343 L407,366 L407,415 L405,438 L401,462 L395,490 L389,509 L379,535 L374,548 L364,567 L355,584 L342,603 L331,619 L323,628 L316,637 L305,648 L304,651 L309,656 L320,667 L326,675 L336,669 L350,664 L357,663 L371,663 L388,667 L400,674 L400,676 L403,676 L403,678 L408,680 L424,697 L436,709 L436,711 L439,712 L444,717 L451,724 L458,732 L466,739 L473,747 L475,751 L479,753 L486,760 L494,774 L498,786 L499,792 L499,805 L497,817 L493,826 L491,831 L489,831 L488,836 L481,844 L468,854 L457,859 L450,861 L432,862 L415,858 L403,852 L400,850 L402,861 L403,886 L403,921 L400,952 L395,986 L390,1008 L387,1016 L384,1028 L374,1058 L369,1069 L364,1080 L361,1087 L359,1087 L358,1094 L352,1105 L344,1119 L340,1126 L333,1137 L325,1148 L318,1158 L310,1168 L303,1176 L302,1178 L300,1178 L298,1182 L293,1187 L289,1192 L281,1199 L274,1206 L264,1214 L253,1223 L239,1233 L229,1240 L216,1248 L205,1254 L183,1266 L174,1270 L155,1279 L137,1286 L125,1290 L113,1294 L97,1296 L71,1304 L58,1306 L48,1306 L22,1308 L-1,1308 L-22,1307 L-184,1307 L-299,1308 L-388,1308 L-481,1309 L-564,1309 L-676,1310 L-767,1310 L-821,1311 L-839,1313 L-866,1311 L-883,1308 L-897,1305 L-918,1300 L-933,1295 L-947,1290 L-957,1286 L-968,1281 L-983,1274 L-983,1272 L-988,1271 L-989,1268 L-996,1267 L-1007,1260 L-1018,1253 L-1031,1245 L-1044,1236 L-1055,1228 L-1066,1219 L-1066,1217 L-1070,1215 L-1080,1207 L-1085,1202 L-1089,1197 L-1089,1195 L-1091,1195 L-1102,1178 L-1111,1168 L-1117,1160 L-1120,1155 L-1127,1145 L-1133,1134 L-1145,1109 L-1150,1096 L-1154,1085 L-1161,1058 L-1166,1032 L-1169,1007 L-1170,992 L-1170,937 L-1167,908 L-1162,883 L-1158,866 L-1155,857 L-1152,845 L-1146,829 L-1140,815 L-1135,804 L-1129,793 L-1119,775 L-1113,765 L-1111,765 L-1109,760 L-1102,751 L-1092,738 L-1085,730 L-1080,725 L-1074,718 L-1068,714 L-1063,709 L-1050,697 L-1044,694 L-1039,689 L-1025,679 L-1015,673 L-1005,667 L-988,658 L-960,645 L-925,633 L-921,630 L-919,630 L-920,620 L-920,603 L-919,581 L-915,546 L-912,527 L-906,501 L-901,486 L-897,473 L-892,459 L-883,438 L-876,423 L-867,407 L-861,396 L-853,382 L-848,374 L-846,374 L-844,369 L-843,367 L-841,367 L-839,361 L-829,348 L-817,332 L-812,326 L-808,322 L-805,318 L-803,318 L-801,313 L-795,308 L-793,305 L-791,305 L-789,301 L-779,291 L-771,284 L-768,283 L-766,279 L-752,267 L-740,257 L-730,250 L-720,242 L-713,237 L-706,233 L-689,222 L-663,208 L-646,199 L-635,195 L-614,186 L-593,179 L-568,172 L-548,167 L-520,162 L-487,159 L-470,158 L-414,158 L-365,162 L-329,168 L-320,170 L-299,175 L-296,176 L-294,171 L-284,156 L-275,144 L-268,135 L-259,124 L-254,119 L-251,118 L-249,113 L-247,113 L-245,109 L-232,97 L-224,89 L-212,80 L-204,73 L-196,68 L-194,68 L-194,66 L-171,51 L-161,46 L-145,37 L-134,32 L-101,19 L-86,14 L-51,6 L-26,2 Z M-2,124 L-24,127 L-49,133 L-70,140 L-83,145 L-104,156 L-119,165 L-136,178 L-144,185 L-156,196 L-163,203 L-172,214 L-176,219 L-160,227 L-135,240 L-123,247 L-121,247 L-121,249 L-103,259 L-100,260 L-100,262 L-88,269 L-83,273 L-66,285 L-63,288 L-52,296 L-41,306 L-30,315 L-16,329 L-11,333 L-7,338 L-2,343 L6,351 L13,360 L23,372 L35,389 L44,403 L51,414 L61,431 L72,454 L79,470 L85,488 L92,511 L96,530 L99,550 L100,553 L120,557 L138,562 L149,565 L155,567 L171,572 L185,577 L193,581 L197,580 L207,571 L213,566 L221,556 L226,551 L231,545 L241,531 L248,521 L253,511 L263,492 L270,473 L277,449 L282,424 L284,406 L285,386 L283,363 L278,334 L271,309 L264,289 L255,270 L245,252 L232,233 L225,224 L218,215 L213,210 L206,202 L191,188 L177,177 L157,163 L135,151 L116,142 L85,132 L63,127 L41,124 Z M-454,282 L-475,283 L-513,288 L-530,291 L-555,298 L-569,303 L-594,313 L-617,325 L-627,331 L-634,335 L-640,339 L-650,346 L-657,350 L-657,352 L-661,354 L-673,363 L-678,367 L-681,370 L-686,375 L-696,384 L-703,392 L-711,400 L-721,413 L-725,418 L-728,421 L-736,433 L-742,441 L-749,452 L-758,468 L-760,474 L-762,474 L-769,489 L-774,502 L-778,510 L-783,525 L-787,541 L-791,560 L-794,582 L-795,607 L-795,628 L-793,650 L-788,665 L-787,672 L-787,684 L-790,700 L-795,712 L-799,719 L-801,720 L-804,725 L-812,732 L-817,736 L-830,742 L-845,745 L-862,745 L-885,751 L-907,759 L-919,764 L-937,772 L-947,778 L-958,785 L-968,792 L-978,801 L-989,810 L-998,821 L-1006,830 L-1013,842 L-1019,851 L-1026,865 L-1031,879 L-1037,896 L-1042,916 L-1044,930 L-1045,944 L-1045,989 L-1044,1004 L-1040,1028 L-1036,1043 L-1025,1071 L-1015,1088 L-1008,1098 L-1004,1103 L-1001,1106 L-992,1117 L-985,1124 L-972,1134 L-964,1140 L-955,1145 L-953,1145 L-953,1147 L-939,1155 L-934,1158 L-915,1168 L-899,1175 L-875,1182 L-858,1186 L-801,1186 L-674,1185 L-582,1185 L-489,1184 L-407,1184 L-288,1183 L-225,1183 L-105,1182 L-49,1182 L-37,1181 L45,1181 L68,1174 L81,1172 L93,1169 L105,1164 L120,1158 L137,1149 L153,1140 L166,1132 L177,1124 L189,1115 L196,1108 L196,1106 L200,1104 L212,1091 L216,1085 L220,1080 L220,1078 L222,1078 L226,1072 L233,1061 L242,1045 L242,1043 L244,1043 L259,1008 L265,991 L268,979 L273,957 L278,921 L279,898 L278,876 L275,854 L270,831 L265,814 L258,799 L250,783 L243,771 L239,766 L233,758 L226,750 L209,733 L203,729 L190,719 L183,714 L177,711 L166,705 L159,701 L151,697 L135,691 L127,688 L114,684 L105,681 L99,679 L72,674 L57,671 L41,667 L22,661 L6,653 L-4,645 L-10,637 L-12,637 L-14,632 L-21,618 L-23,613 L-25,600 L-25,558 L-28,541 L-37,514 L-47,493 L-53,482 L-59,472 L-70,455 L-76,448 L-82,440 L-91,429 L-96,424 L-106,414 L-114,407 L-121,400 L-130,393 L-137,388 L-142,383 L-151,377 L-168,365 L-178,359 L-191,351 L-201,345 L-222,335 L-238,327 L-256,320 L-268,315 L-286,308 L-311,301 L-328,296 L-356,290 L-400,284 L-439,282 Z " fill="#101010" transform="translate(1274,474)"/>
<path d="M0,0 L15,1 L28,5 L43,14 L50,20 L57,31 L61,37 L65,50 L66,55 L66,71 L61,88 L59,92 L49,105 L37,119 L28,129 L19,140 L9,151 L2,159 L-9,172 L-19,183 L-20,185 L-22,185 L-24,189 L-29,195 L-40,202 L-50,207 L-62,210 L-78,210 L-91,207 L-101,202 L-112,195 L-122,183 L-129,171 L-132,159 L-132,137 L-129,126 L-124,116 L-111,100 L-102,90 L-98,85 L-96,85 L-94,80 L-80,65 L-73,56 L-66,48 L-61,43 L-54,34 L-45,25 L-38,16 L-33,12 L-30,12 L-30,10 L-15,3 Z " fill="#101010" transform="translate(1711,365)"/>
<path d="M0,0 L16,0 L28,3 L37,7 L43,11 L53,20 L59,25 L68,36 L79,47 L88,58 L97,67 L106,78 L111,82 L120,93 L125,98 L131,105 L136,115 L140,123 L142,135 L142,151 L138,165 L133,175 L126,185 L118,191 L116,191 L115,194 L101,201 L88,204 L72,204 L60,201 L46,194 L31,181 L24,173 L24,171 L20,169 L13,161 L1,148 L-6,140 L-18,127 L-25,119 L-36,107 L-46,94 L-50,86 L-54,71 L-54,53 L-52,44 L-49,36 L-43,25 L-38,20 L-29,11 L-17,5 L-10,2 Z " fill="#101010" transform="translate(871,371)"/>
<path d="M0,0 L8,0 L20,2 L29,5 L41,12 L48,17 L48,19 L50,19 L58,30 L63,39 L67,55 L70,142 L70,177 L66,193 L60,204 L53,212 L51,212 L49,216 L42,221 L29,227 L17,230 L0,230 L-13,227 L-24,221 L-33,215 L-33,213 L-37,211 L-38,208 L-40,208 L-45,199 L-46,195 L-48,195 L-53,177 L-54,169 L-57,85 L-57,53 L-53,39 L-46,27 L-39,18 L-35,15 L-33,15 L-33,13 L-30,13 L-30,11 L-19,5 L-8,1 Z " fill="#101010" transform="translate(1289,214)"/>
<path d="M0,0 L96,0 L115,3 L133,13 L138,17 L138,19 L142,21 L142,23 L144,23 L151,34 L156,46 L157,51 L157,74 L154,85 L146,100 L144,100 L143,104 L140,107 L138,107 L138,109 L129,115 L127,115 L127,117 L116,122 L102,125 L2,124 L-9,122 L-25,114 L-35,107 L-39,103 L-39,101 L-41,101 L-50,84 L-54,68 L-54,57 L-52,45 L-46,31 L-40,22 L-35,17 L-33,17 L-33,15 L-19,5 L-7,1 Z " fill="#101010" transform="translate(1771,801)"/>
</svg>
