<?xml version="1.0" encoding="UTF-8"?>
<!-- Generator: visioncortex VTracer 0.6.12 -->
<svg version="1.1" xmlns="http://www.w3.org/2000/svg" width="2048" height="2048">
<path d="M0,0 L47,0 L81,2 L117,6 L152,12 L180,18 L221,29 L254,40 L288,53 L316,66 L332,74 L353,85 L378,100 L394,111 L408,121 L421,131 L432,140 L442,149 L450,156 L476,182 L485,193 L496,206 L508,222 L516,234 L528,253 L544,284 L555,311 L562,334 L563,343 L590,345 L625,350 L655,356 L683,364 L706,372 L729,382 L745,390 L767,402 L789,417 L801,426 L814,437 L826,448 L839,461 L848,472 L858,484 L870,501 L881,519 L894,543 L904,566 L914,594 L922,624 L926,645 L929,665 L932,701 L932,747 L930,772 L925,807 L919,835 L910,866 L901,891 L888,921 L873,949 L861,968 L847,987 L834,1002 L820,1017 L811,1027 L798,1039 L784,1051 L765,1065 L749,1076 L734,1086 L712,1099 L693,1109 L677,1116 L662,1120 L644,1128 L635,1131 L612,1137 L587,1142 L566,1145 L530,1148 L504,1148 L490,1144 L472,1133 L471,1130 L467,1128 L467,1126 L464,1125 L456,1113 L451,1099 L449,1085 L451,1067 L458,1050 L461,1046 L463,1046 L465,1041 L470,1036 L472,1036 L473,1033 L475,1033 L475,1031 L485,1025 L496,1021 L512,1018 L551,1015 L573,1012 L593,1007 L605,1002 L620,995 L638,990 L657,980 L687,960 L704,947 L717,936 L727,927 L739,914 L752,896 L765,874 L777,849 L786,824 L794,794 L799,764 L801,743 L802,717 L801,695 L797,666 L790,636 L783,616 L775,598 L766,581 L755,565 L747,555 L738,545 L730,536 L717,526 L699,514 L681,504 L661,495 L645,489 L619,482 L589,477 L561,474 L523,471 L502,468 L486,463 L478,459 L469,453 L455,440 L447,427 L442,414 L439,397 L437,376 L433,359 L425,339 L417,323 L409,309 L397,292 L389,282 L378,269 L366,256 L356,246 L342,235 L325,222 L310,212 L285,197 L258,183 L233,172 L209,163 L182,154 L144,144 L114,138 L75,133 L45,131 L-3,131 L-28,133 L-57,137 L-91,144 L-118,152 L-147,163 L-164,171 L-184,182 L-203,194 L-222,208 L-233,217 L-247,229 L-260,241 L-273,254 L-281,264 L-291,277 L-305,297 L-320,322 L-334,349 L-344,373 L-355,406 L-361,433 L-365,466 L-365,500 L-363,523 L-359,550 L-355,568 L-350,577 L-346,587 L-344,599 L-344,614 L-348,630 L-352,640 L-356,646 L-365,656 L-369,661 L-378,667 L-390,672 L-398,674 L-411,675 L-436,685 L-462,698 L-482,710 L-499,722 L-514,735 L-527,748 L-536,759 L-545,772 L-555,789 L-564,810 L-570,828 L-576,857 L-578,876 L-578,909 L-575,937 L-569,968 L-562,993 L-552,1018 L-542,1035 L-532,1049 L-524,1059 L-514,1069 L-506,1076 L-495,1086 L-477,1097 L-455,1108 L-426,1120 L-402,1128 L-377,1133 L-348,1136 L-334,1136 L-316,1135 L-306,1136 L-291,1140 L-279,1147 L-279,1149 L-275,1150 L-275,1152 L-272,1153 L-272,1155 L-270,1155 L-270,1157 L-268,1157 L-261,1167 L-256,1178 L-255,1181 L-255,1219 L-263,1237 L-265,1238 L-267,1242 L-269,1242 L-271,1246 L-274,1247 L-274,1249 L-276,1249 L-276,1251 L-286,1257 L-296,1262 L-310,1265 L-338,1267 L-366,1266 L-399,1262 L-425,1257 L-451,1250 L-478,1240 L-514,1224 L-543,1210 L-561,1199 L-580,1186 L-589,1179 L-589,1177 L-591,1177 L-591,1175 L-593,1175 L-601,1165 L-630,1136 L-643,1119 L-653,1104 L-662,1089 L-673,1068 L-681,1049 L-692,1016 L-699,987 L-705,952 L-708,924 L-709,899 L-709,874 L-706,843 L-703,823 L-696,793 L-685,760 L-674,735 L-663,714 L-649,692 L-639,679 L-628,666 L-617,654 L-594,631 L-583,622 L-566,609 L-543,594 L-526,584 L-501,571 L-493,567 L-490,564 L-491,553 L-494,527 L-496,491 L-496,466 L-494,439 L-491,417 L-486,390 L-478,360 L-468,331 L-454,297 L-446,280 L-434,258 L-425,242 L-405,212 L-392,195 L-379,179 L-370,168 L-362,160 L-355,152 L-343,140 L-335,133 L-327,125 L-316,116 L-303,105 L-284,91 L-266,79 L-246,67 L-228,57 L-206,46 L-174,33 L-141,22 L-101,12 L-73,7 L-29,2 Z " fill="#101010" transform="translate(954,249)"/>
<path d="M0,0 L18,0 L34,4 L44,8 L44,10 L49,12 L59,19 L62,21 L62,23 L64,23 L64,25 L68,27 L68,29 L72,31 L77,41 L80,47 L83,58 L84,70 L82,83 L74,111 L59,159 L35,235 L31,249 L23,276 L4,336 L-1,355 L-4,363 L7,365 L44,376 L56,379 L65,382 L81,386 L107,393 L124,398 L134,403 L141,407 L141,409 L145,411 L152,417 L152,419 L156,421 L161,426 L170,440 L175,457 L175,475 L169,494 L161,505 L158,509 L156,509 L155,512 L153,512 L152,515 L150,515 L148,519 L123,544 L122,546 L120,546 L119,549 L117,549 L116,552 L114,552 L113,555 L111,555 L110,558 L107,561 L105,561 L105,563 L102,566 L100,566 L98,570 L89,578 L85,581 L83,581 L83,583 L80,583 L79,586 L70,593 L63,600 L60,603 L58,603 L56,607 L43,620 L41,620 L40,623 L37,626 L35,626 L33,630 L26,637 L24,637 L23,640 L21,640 L20,643 L13,649 L6,657 L4,657 L3,660 L-2,664 L-7,669 L-14,677 L-22,684 L-27,689 L-29,689 L-31,693 L-47,709 L-49,709 L-50,712 L-52,712 L-53,715 L-55,715 L-57,719 L-60,720 L-62,724 L-67,729 L-69,729 L-70,732 L-77,738 L-81,743 L-83,743 L-84,746 L-86,746 L-87,749 L-89,749 L-90,752 L-98,759 L-104,766 L-112,773 L-122,783 L-124,783 L-126,787 L-140,801 L-142,801 L-142,803 L-145,806 L-147,806 L-149,810 L-154,815 L-156,815 L-158,819 L-162,821 L-162,823 L-169,829 L-171,832 L-173,832 L-175,836 L-179,838 L-180,841 L-188,848 L-191,849 L-193,853 L-197,858 L-199,858 L-199,860 L-207,867 L-212,872 L-214,872 L-216,876 L-226,886 L-228,886 L-229,889 L-232,892 L-234,892 L-235,895 L-237,895 L-239,899 L-246,906 L-257,913 L-267,919 L-270,920 L-270,922 L-274,923 L-274,925 L-286,931 L-300,935 L-317,935 L-326,933 L-334,930 L-345,924 L-352,918 L-352,916 L-354,916 L-354,914 L-357,913 L-357,910 L-360,909 L-365,901 L-365,899 L-367,899 L-374,889 L-380,874 L-382,861 L-379,840 L-372,818 L-367,799 L-356,764 L-352,748 L-341,713 L-336,694 L-325,659 L-321,644 L-309,605 L-305,590 L-304,587 L-320,582 L-332,579 L-367,570 L-390,564 L-421,556 L-434,551 L-443,546 L-443,544 L-447,542 L-454,535 L-464,521 L-471,513 L-479,499 L-482,488 L-483,473 L-480,457 L-473,443 L-468,436 L-466,436 L-464,431 L-461,430 L-460,427 L-452,420 L-449,419 L-447,415 L-443,413 L-441,409 L-428,396 L-423,392 L-422,390 L-420,390 L-418,386 L-408,376 L-400,369 L-396,364 L-391,360 L-386,355 L-381,350 L-379,350 L-378,347 L-376,347 L-374,343 L-361,330 L-359,330 L-358,327 L-355,324 L-353,324 L-351,320 L-345,315 L-341,310 L-333,303 L-327,296 L-319,289 L-311,281 L-306,276 L-299,269 L-297,269 L-297,267 L-295,267 L-294,264 L-292,264 L-291,261 L-289,261 L-288,258 L-283,253 L-281,253 L-280,250 L-278,250 L-277,247 L-269,240 L-258,229 L-253,224 L-247,218 L-245,218 L-244,215 L-242,215 L-242,213 L-237,208 L-233,204 L-231,204 L-229,200 L-225,198 L-225,196 L-217,189 L-216,187 L-214,187 L-213,184 L-208,180 L-203,175 L-199,173 L-198,170 L-196,170 L-194,166 L-178,150 L-173,146 L-172,144 L-170,144 L-168,140 L-164,138 L-163,135 L-161,135 L-160,132 L-158,132 L-158,130 L-150,123 L-146,118 L-138,111 L-131,104 L-129,104 L-128,101 L-126,101 L-124,97 L-114,87 L-112,87 L-111,84 L-109,84 L-108,81 L-103,76 L-96,69 L-94,69 L-94,67 L-89,63 L-84,58 L-77,50 L-69,43 L-61,35 L-59,35 L-57,31 L-53,27 L-51,27 L-50,24 L-35,13 L-27,8 L-24,8 L-24,6 L-12,2 Z M-97,244 Z M-98,245 L-105,252 L-111,257 L-111,259 L-113,259 L-119,266 L-124,270 L-128,274 L-128,276 L-132,278 L-139,285 L-139,287 L-143,289 L-145,293 L-148,294 L-148,296 L-152,298 L-157,303 L-169,315 L-174,319 L-178,323 L-178,325 L-182,327 L-183,330 L-185,330 L-189,334 L-189,336 L-191,336 L-195,341 L-203,347 L-206,351 L-206,353 L-209,354 L-209,356 L-213,358 L-224,369 L-229,374 L-236,381 L-241,385 L-244,388 L-244,390 L-248,392 L-250,396 L-252,396 L-256,401 L-264,408 L-271,415 L-276,420 L-276,422 L-280,424 L-287,430 L-291,434 L-291,436 L-293,436 L-300,444 L-307,450 L-311,454 L-310,457 L-288,463 L-269,468 L-250,473 L-224,480 L-212,485 L-209,487 L-206,487 L-206,489 L-194,495 L-189,498 L-184,503 L-182,503 L-180,507 L-175,513 L-174,516 L-172,516 L-169,525 L-166,539 L-169,551 L-176,577 L-179,587 L-183,605 L-190,631 L-192,644 L-199,667 L-205,688 L-204,691 L-204,689 L-202,689 L-195,681 L-190,677 L-186,673 L-186,671 L-182,669 L-178,664 L-173,660 L-170,657 L-170,655 L-166,653 L-155,642 L-155,640 L-152,639 L-152,637 L-148,635 L-140,627 L-135,623 L-128,615 L-120,607 L-117,605 L-117,603 L-114,602 L-114,600 L-112,600 L-108,595 L-103,590 L-97,585 L-97,583 L-93,581 L-88,575 L-82,570 L-82,568 L-80,568 L-80,566 L-77,565 L-77,563 L-73,561 L-65,553 L-65,551 L-62,550 L-62,548 L-58,546 L-49,537 L-47,536 L-47,534 L-45,534 L-38,526 L-31,520 L-27,515 L-25,514 L-25,512 L-22,511 L-15,503 L-7,496 L-7,494 L-3,492 L-4,490 L-17,486 L-33,482 L-44,479 L-68,472 L-84,468 L-99,464 L-109,459 L-112,459 L-112,457 L-120,451 L-125,447 L-128,444 L-129,441 L-131,441 L-133,436 L-138,425 L-141,408 L-140,395 L-133,365 L-113,302 L-108,284 L-106,277 L-97,248 Z " fill="#101010" transform="translate(1201,884)"/>
<path d="M0,0 L2,1 L1,11 L-2,22 L-8,34 L-11,34 L-2,5 Z " fill="#0D0D0D" transform="translate(718,1319)"/>
<path d="M0,0 Z " fill="#000000" transform="translate(728,1425)"/>
</svg>
