<?xml version="1.0" encoding="UTF-8"?>
<!-- Generator: visioncortex VTracer 0.6.12 -->
<svg version="1.1" xmlns="http://www.w3.org/2000/svg" width="2048" height="2048">
<path d="M0,0 L47,0 L81,2 L117,6 L152,12 L180,18 L221,29 L254,40 L288,53 L316,66 L332,74 L353,85 L378,100 L394,111 L408,121 L421,131 L432,140 L442,149 L450,156 L476,182 L485,193 L496,206 L508,222 L516,234 L528,253 L544,284 L555,311 L562,334 L563,343 L590,345 L625,350 L655,356 L683,364 L706,372 L729,382 L745,390 L767,402 L789,417 L801,426 L814,437 L826,448 L839,461 L848,472 L858,484 L870,501 L881,519 L894,543 L904,566 L914,594 L922,624 L926,645 L929,665 L932,701 L932,747 L930,772 L925,807 L919,835 L910,866 L901,891 L888,921 L873,949 L861,968 L847,987 L834,1002 L820,1017 L811,1027 L798,1039 L784,1051 L765,1065 L749,1076 L734,1086 L712,1099 L693,1109 L677,1116 L660,1119 L646,1118 L637,1116 L621,1108 L613,1101 L606,1095 L603,1090 L599,1083 L595,1075 L592,1061 L592,1044 L597,1028 L603,1017 L617,1002 L630,994 L650,984 L668,973 L687,960 L704,947 L717,936 L727,927 L739,914 L752,896 L765,874 L777,849 L786,824 L794,794 L799,764 L801,743 L802,717 L801,695 L797,666 L790,636 L783,616 L775,598 L766,581 L755,565 L747,555 L738,545 L730,536 L717,526 L699,514 L681,504 L661,495 L645,489 L619,482 L589,477 L561,474 L523,471 L502,468 L486,463 L478,459 L469,453 L455,440 L447,427 L442,414 L439,397 L437,376 L433,359 L425,339 L417,323 L409,309 L397,292 L389,282 L378,269 L366,256 L356,246 L342,235 L325,222 L310,212 L285,197 L258,183 L233,172 L209,163 L182,154 L144,144 L114,138 L75,133 L45,131 L-3,131 L-28,133 L-57,137 L-91,144 L-118,152 L-147,163 L-164,171 L-184,182 L-203,194 L-222,208 L-233,217 L-247,229 L-260,241 L-273,254 L-281,264 L-291,277 L-305,297 L-320,322 L-334,349 L-344,373 L-355,406 L-361,433 L-365,466 L-365,500 L-363,523 L-359,550 L-355,568 L-350,577 L-346,587 L-344,599 L-344,614 L-348,630 L-352,640 L-356,646 L-365,656 L-369,661 L-378,667 L-390,672 L-398,674 L-411,675 L-436,685 L-462,698 L-482,710 L-499,722 L-514,735 L-527,748 L-536,759 L-545,772 L-555,789 L-564,810 L-570,828 L-576,857 L-578,876 L-578,909 L-575,937 L-569,968 L-562,993 L-552,1018 L-542,1035 L-532,1049 L-524,1059 L-514,1069 L-506,1076 L-493,1088 L-486,1096 L-479,1108 L-475,1121 L-474,1127 L-474,1144 L-477,1156 L-480,1162 L-485,1171 L-488,1174 L-491,1179 L-495,1183 L-500,1186 L-506,1191 L-521,1197 L-530,1199 L-548,1199 L-563,1195 L-572,1190 L-577,1187 L-592,1173 L-605,1161 L-630,1136 L-643,1119 L-653,1104 L-662,1089 L-673,1068 L-681,1049 L-692,1016 L-699,987 L-705,952 L-708,924 L-709,899 L-709,874 L-706,843 L-703,823 L-696,793 L-685,760 L-674,735 L-663,714 L-649,692 L-639,679 L-628,666 L-617,654 L-594,631 L-583,622 L-566,609 L-543,594 L-526,584 L-501,571 L-493,567 L-490,564 L-491,553 L-494,527 L-496,491 L-496,466 L-494,439 L-491,417 L-486,390 L-478,360 L-468,331 L-454,297 L-446,280 L-434,258 L-425,242 L-405,212 L-392,195 L-379,179 L-370,168 L-362,160 L-355,152 L-343,140 L-335,133 L-327,125 L-316,116 L-303,105 L-284,91 L-266,79 L-246,67 L-228,57 L-206,46 L-174,33 L-141,22 L-101,12 L-73,7 L-29,2 Z " fill="#101010" transform="translate(954,249)"/>
<path d="M0,0 L17,0 L34,3 L42,6 L49,9 L49,11 L53,12 L59,16 L59,18 L63,20 L71,26 L80,36 L85,46 L89,56 L91,68 L91,82 L90,89 L88,95 L81,116 L76,131 L72,141 L66,159 L63,166 L52,200 L49,208 L43,225 L38,239 L33,253 L23,282 L17,300 L12,314 L9,322 L2,342 L-4,358 L-7,368 L-13,385 L-14,387 L-9,387 L-1,390 L15,395 L35,402 L47,405 L55,408 L77,415 L100,422 L120,429 L131,434 L131,436 L136,438 L144,445 L144,447 L146,447 L150,451 L150,453 L154,455 L160,462 L160,464 L162,464 L167,474 L171,485 L173,503 L172,514 L167,528 L161,539 L152,549 L148,554 L139,561 L138,563 L136,563 L135,566 L133,566 L132,569 L123,576 L116,584 L112,587 L110,587 L108,591 L100,599 L92,606 L79,618 L75,621 L73,621 L73,623 L60,631 L56,635 L54,635 L53,638 L48,642 L46,642 L44,646 L32,657 L30,657 L29,660 L21,667 L9,678 L6,681 L4,681 L4,683 L-4,690 L-6,690 L-7,693 L-14,699 L-16,699 L-17,702 L-25,709 L-32,715 L-37,720 L-43,725 L-48,730 L-52,732 L-54,736 L-62,743 L-67,748 L-69,748 L-69,750 L-74,754 L-76,754 L-76,756 L-82,761 L-87,766 L-89,766 L-90,769 L-98,776 L-110,787 L-112,787 L-113,790 L-115,790 L-115,792 L-120,796 L-122,796 L-123,799 L-125,799 L-126,802 L-134,809 L-136,809 L-136,811 L-144,818 L-147,821 L-149,821 L-149,823 L-157,830 L-160,833 L-162,833 L-163,836 L-171,843 L-175,845 L-175,847 L-183,854 L-185,854 L-186,857 L-188,857 L-189,860 L-193,863 L-195,863 L-196,866 L-199,869 L-201,869 L-202,872 L-212,880 L-217,885 L-226,893 L-228,893 L-230,897 L-239,905 L-241,905 L-243,909 L-253,918 L-255,918 L-256,921 L-258,921 L-259,924 L-261,924 L-262,927 L-268,931 L-273,936 L-278,941 L-284,946 L-289,951 L-296,957 L-305,963 L-314,967 L-325,975 L-337,981 L-348,984 L-365,985 L-380,982 L-393,976 L-397,974 L-397,972 L-401,970 L-406,966 L-406,964 L-410,962 L-417,952 L-424,941 L-425,937 L-427,937 L-432,928 L-436,915 L-437,898 L-433,880 L-429,867 L-422,846 L-415,825 L-412,817 L-403,790 L-396,769 L-393,761 L-388,747 L-382,728 L-377,713 L-374,706 L-366,682 L-358,657 L-356,657 L-355,650 L-348,629 L-343,614 L-342,612 L-350,611 L-363,607 L-392,598 L-410,593 L-417,590 L-426,588 L-445,582 L-458,578 L-468,575 L-480,570 L-483,568 L-483,566 L-487,565 L-493,561 L-493,559 L-496,558 L-500,552 L-503,549 L-511,536 L-516,531 L-521,523 L-526,512 L-529,500 L-529,482 L-526,469 L-519,455 L-516,451 L-514,451 L-514,448 L-512,448 L-510,444 L-503,438 L-498,433 L-481,417 L-474,411 L-472,411 L-471,408 L-469,408 L-468,405 L-466,405 L-465,402 L-460,398 L-458,398 L-458,396 L-453,392 L-448,387 L-446,387 L-446,385 L-438,378 L-436,378 L-435,375 L-428,369 L-426,369 L-425,366 L-417,359 L-405,348 L-403,348 L-402,345 L-394,338 L-391,335 L-389,335 L-389,333 L-381,326 L-379,326 L-378,323 L-370,316 L-358,305 L-345,293 L-343,293 L-342,290 L-338,287 L-336,287 L-334,283 L-325,275 L-321,271 L-319,271 L-318,268 L-312,263 L-310,263 L-310,261 L-302,254 L-300,254 L-299,251 L-291,244 L-288,241 L-286,241 L-286,239 L-278,232 L-276,232 L-275,229 L-267,222 L-255,211 L-248,205 L-246,205 L-244,201 L-235,193 L-227,186 L-220,179 L-218,179 L-218,177 L-212,172 L-210,172 L-208,168 L-196,158 L-195,156 L-193,156 L-193,154 L-188,150 L-186,150 L-185,147 L-177,140 L-165,129 L-163,129 L-162,126 L-155,120 L-153,120 L-152,117 L-144,110 L-141,107 L-139,107 L-139,105 L-131,98 L-122,90 L-120,90 L-118,86 L-107,77 L-105,74 L-103,74 L-102,71 L-98,68 L-96,68 L-96,66 L-88,59 L-75,47 L-72,44 L-70,44 L-70,42 L-62,35 L-60,35 L-59,32 L-50,25 L-49,23 L-46,23 L-45,20 L-34,13 L-24,7 L-11,2 Z M-110,257 L-114,261 L-114,263 L-118,265 L-124,270 L-124,272 L-128,274 L-138,283 L-143,288 L-154,297 L-158,302 L-163,305 L-168,310 L-168,312 L-170,312 L-170,314 L-174,316 L-177,318 L-177,320 L-181,322 L-188,329 L-197,336 L-201,341 L-211,349 L-211,351 L-214,352 L-214,354 L-218,356 L-223,360 L-223,362 L-227,364 L-234,371 L-237,373 L-237,375 L-241,377 L-247,382 L-247,384 L-251,386 L-257,391 L-261,395 L-261,397 L-266,399 L-271,404 L-280,412 L-285,417 L-294,425 L-294,427 L-298,429 L-303,433 L-308,438 L-321,450 L-326,454 L-331,459 L-337,464 L-337,466 L-340,467 L-340,469 L-344,471 L-346,474 L-337,478 L-327,480 L-316,484 L-309,486 L-284,493 L-281,493 L-281,495 L-271,497 L-259,501 L-250,504 L-240,509 L-227,517 L-223,520 L-220,520 L-220,522 L-217,523 L-212,528 L-202,541 L-198,550 L-195,559 L-194,568 L-196,576 L-201,591 L-205,605 L-211,624 L-218,647 L-221,659 L-223,663 L-224,673 L-228,684 L-233,698 L-239,717 L-242,726 L-241,729 L-237,724 L-228,717 L-224,712 L-221,710 L-221,708 L-217,706 L-214,704 L-214,702 L-211,701 L-211,699 L-207,697 L-202,693 L-202,691 L-198,689 L-188,679 L-180,672 L-175,668 L-175,666 L-171,664 L-165,659 L-161,655 L-161,653 L-157,651 L-151,646 L-151,644 L-148,643 L-148,641 L-144,639 L-136,632 L-129,626 L-124,621 L-119,616 L-109,608 L-104,602 L-95,595 L-91,590 L-83,584 L-78,579 L-71,572 L-69,571 L-69,569 L-65,567 L-58,560 L-55,558 L-55,556 L-51,554 L-46,550 L-41,545 L-35,540 L-35,538 L-32,537 L-27,532 L-23,529 L-23,527 L-21,527 L-21,525 L-18,524 L-22,522 L-32,518 L-53,512 L-62,509 L-81,503 L-89,500 L-106,495 L-110,493 L-119,491 L-134,483 L-144,474 L-146,474 L-148,470 L-157,454 L-161,440 L-161,421 L-156,396 L-151,381 L-146,366 L-143,358 L-138,344 L-131,324 L-128,316 L-123,302 L-112,268 L-109,260 Z " fill="#101010" transform="translate(1399,922)"/>
<path d="M0,0 L13,0 L28,3 L31,4 L31,6 L36,7 L38,8 L38,10 L42,11 L51,18 L51,20 L55,22 L61,32 L64,40 L65,45 L65,62 L50,115 L46,132 L34,176 L28,199 L17,240 L6,279 L19,283 L40,288 L54,291 L94,301 L111,306 L118,310 L118,312 L121,312 L126,317 L131,321 L131,323 L134,324 L141,335 L145,346 L146,361 L140,381 L137,382 L135,388 L132,389 L130,393 L128,393 L126,398 L122,402 L120,402 L118,406 L110,415 L108,415 L106,419 L98,428 L96,428 L95,431 L93,431 L91,435 L86,440 L79,447 L69,455 L62,463 L57,468 L55,468 L53,472 L46,480 L44,480 L43,483 L38,487 L31,496 L26,500 L19,508 L16,509 L14,513 L9,519 L6,522 L4,522 L2,526 L-3,532 L-6,532 L-6,535 L-10,539 L-12,539 L-13,542 L-15,542 L-16,545 L-18,545 L-20,549 L-25,555 L-28,558 L-30,558 L-31,561 L-35,565 L-37,565 L-38,568 L-40,568 L-42,572 L-47,578 L-49,578 L-50,581 L-55,586 L-62,594 L-67,598 L-69,601 L-71,601 L-73,605 L-77,610 L-81,614 L-83,614 L-85,618 L-87,618 L-89,622 L-96,630 L-101,634 L-103,637 L-105,637 L-107,641 L-111,643 L-111,646 L-117,651 L-121,656 L-123,656 L-124,659 L-126,659 L-128,663 L-133,669 L-137,673 L-139,673 L-140,676 L-142,676 L-144,680 L-148,682 L-149,686 L-152,689 L-154,689 L-155,692 L-157,692 L-158,695 L-163,700 L-171,708 L-176,711 L-179,711 L-179,713 L-184,716 L-190,721 L-197,725 L-210,729 L-224,729 L-238,725 L-248,718 L-248,716 L-251,716 L-251,714 L-253,714 L-254,710 L-256,710 L-262,702 L-268,693 L-272,684 L-274,672 L-272,654 L-257,601 L-253,583 L-246,558 L-243,544 L-225,480 L-222,465 L-220,460 L-231,458 L-256,452 L-284,446 L-302,441 L-313,439 L-320,437 L-320,435 L-326,434 L-333,429 L-338,423 L-340,422 L-343,417 L-343,415 L-346,414 L-346,412 L-349,411 L-356,401 L-360,391 L-361,386 L-361,369 L-356,355 L-354,355 L-353,351 L-345,341 L-343,341 L-341,337 L-331,327 L-327,322 L-325,322 L-324,319 L-322,319 L-320,315 L-315,309 L-309,304 L-302,296 L-300,296 L-298,292 L-293,286 L-288,282 L-283,276 L-281,276 L-280,273 L-278,273 L-276,269 L-272,264 L-268,260 L-266,260 L-265,257 L-260,252 L-251,243 L-246,237 L-244,237 L-242,233 L-235,226 L-231,221 L-226,216 L-222,214 L-221,211 L-219,211 L-217,207 L-212,201 L-207,196 L-204,195 L-202,191 L-200,191 L-198,187 L-191,179 L-187,175 L-185,175 L-184,172 L-179,167 L-172,159 L-168,155 L-166,155 L-164,151 L-162,151 L-160,147 L-153,139 L-148,135 L-141,127 L-138,126 L-136,122 L-131,116 L-128,113 L-126,113 L-125,110 L-123,110 L-121,106 L-119,106 L-117,102 L-112,97 L-106,90 L-104,90 L-103,87 L-101,87 L-99,83 L-91,74 L-86,70 L-79,62 L-73,55 L-67,50 L-60,42 L-56,38 L-54,38 L-52,34 L-50,31 L-48,31 L-47,28 L-45,28 L-44,25 L-42,25 L-41,22 L-39,22 L-37,18 L-35,18 L-35,16 L-31,15 L-31,13 L-18,5 L-7,1 Z M-71,193 L-77,198 L-84,206 L-89,211 L-93,215 L-93,217 L-95,217 L-102,225 L-105,228 L-105,230 L-108,231 L-108,233 L-112,235 L-112,237 L-114,237 L-118,242 L-123,247 L-127,251 L-127,253 L-130,254 L-130,256 L-132,256 L-137,262 L-142,266 L-148,273 L-148,275 L-151,276 L-155,280 L-155,282 L-157,282 L-164,290 L-171,298 L-177,303 L-184,311 L-186,315 L-189,316 L-189,318 L-191,318 L-191,320 L-195,322 L-199,327 L-204,332 L-208,336 L-208,338 L-212,340 L-218,347 L-223,352 L-229,358 L-228,361 L-200,367 L-175,373 L-157,377 L-153,379 L-150,379 L-150,381 L-140,386 L-134,389 L-133,391 L-130,392 L-127,395 L-126,398 L-121,403 L-116,416 L-116,424 L-119,435 L-122,450 L-128,475 L-133,500 L-137,516 L-142,535 L-141,538 L-141,536 L-139,536 L-139,534 L-136,533 L-131,527 L-126,522 L-122,518 L-122,516 L-120,516 L-116,511 L-111,506 L-110,503 L-106,501 L-105,498 L-102,497 L-95,489 L-86,480 L-82,475 L-77,470 L-70,462 L-64,457 L-57,449 L-55,445 L-52,444 L-48,440 L-48,438 L-45,437 L-38,429 L-36,425 L-33,424 L-33,422 L-29,420 L-23,413 L-18,408 L-17,405 L-14,404 L-14,402 L-12,402 L-5,394 L-2,391 L-2,389 L2,387 L8,379 L-16,372 L-41,366 L-55,363 L-72,358 L-76,357 L-76,355 L-81,352 L-83,350 L-86,350 L-88,346 L-94,337 L-98,326 L-99,319 L-99,309 L-96,292 L-86,255 L-78,227 L-76,217 L-70,195 Z " fill="#101010" transform="translate(745,1211)"/>
</svg>
