<?xml version="1.0" encoding="UTF-8"?>
<!-- Generator: visioncortex VTracer 0.6.12 -->
<svg version="1.1" xmlns="http://www.w3.org/2000/svg" width="2048" height="2048">
<path d="M0,0 L47,0 L81,2 L117,6 L152,12 L180,18 L221,29 L254,40 L288,53 L316,66 L332,74 L353,85 L378,100 L394,111 L408,121 L421,131 L432,140 L442,149 L450,156 L476,182 L485,193 L496,206 L508,222 L516,234 L528,253 L544,284 L555,311 L562,334 L563,343 L590,345 L625,350 L655,356 L683,364 L706,372 L729,382 L745,390 L767,402 L789,417 L801,426 L814,437 L826,448 L839,461 L848,472 L858,484 L870,501 L881,519 L894,543 L904,566 L914,594 L922,624 L926,645 L929,665 L932,701 L932,747 L930,772 L925,807 L919,835 L910,866 L901,891 L888,921 L873,949 L861,968 L847,987 L834,1002 L820,1017 L811,1027 L798,1039 L784,1051 L765,1065 L749,1076 L734,1086 L712,1099 L693,1109 L677,1116 L662,1120 L644,1128 L635,1131 L612,1137 L587,1142 L566,1145 L530,1148 L504,1148 L490,1144 L472,1133 L471,1130 L467,1128 L467,1126 L464,1125 L456,1113 L451,1099 L449,1085 L451,1067 L458,1050 L461,1046 L463,1046 L465,1041 L470,1036 L472,1036 L473,1033 L475,1033 L475,1031 L485,1025 L496,1021 L512,1018 L551,1015 L573,1012 L593,1007 L605,1002 L620,995 L638,990 L657,980 L687,960 L704,947 L717,936 L727,927 L739,914 L752,896 L765,874 L777,849 L786,824 L794,794 L799,764 L801,743 L802,717 L801,695 L797,666 L790,636 L783,616 L775,598 L766,581 L755,565 L747,555 L738,545 L730,536 L717,526 L699,514 L681,504 L661,495 L645,489 L619,482 L589,477 L561,474 L523,471 L502,468 L486,463 L478,459 L469,453 L455,440 L447,427 L442,414 L439,397 L437,376 L433,359 L425,339 L417,323 L409,309 L397,292 L389,282 L378,269 L366,256 L356,246 L342,235 L325,222 L310,212 L285,197 L258,183 L233,172 L209,163 L182,154 L144,144 L114,138 L75,133 L45,131 L-3,131 L-28,133 L-57,137 L-91,144 L-118,152 L-147,163 L-164,171 L-184,182 L-203,194 L-222,208 L-233,217 L-247,229 L-260,241 L-273,254 L-281,264 L-291,277 L-305,297 L-320,322 L-334,349 L-344,373 L-355,406 L-361,433 L-365,466 L-365,500 L-363,523 L-359,550 L-355,568 L-350,577 L-346,587 L-344,599 L-344,614 L-348,630 L-352,640 L-356,646 L-365,656 L-369,661 L-378,667 L-390,672 L-398,674 L-411,675 L-436,685 L-462,698 L-482,710 L-499,722 L-514,735 L-527,748 L-536,759 L-545,772 L-555,789 L-564,810 L-570,828 L-576,857 L-578,876 L-578,909 L-575,937 L-569,968 L-562,993 L-552,1018 L-542,1035 L-532,1049 L-524,1059 L-514,1069 L-506,1076 L-495,1086 L-477,1097 L-455,1108 L-426,1120 L-402,1128 L-377,1133 L-348,1136 L-334,1136 L-316,1135 L-306,1136 L-291,1140 L-279,1147 L-279,1149 L-275,1150 L-275,1152 L-272,1153 L-272,1155 L-270,1155 L-270,1157 L-268,1157 L-261,1167 L-256,1178 L-255,1181 L-255,1219 L-263,1237 L-265,1238 L-267,1242 L-269,1242 L-271,1246 L-274,1247 L-274,1249 L-276,1249 L-276,1251 L-286,1257 L-296,1262 L-310,1265 L-338,1267 L-366,1266 L-399,1262 L-425,1257 L-451,1250 L-478,1240 L-514,1224 L-543,1210 L-561,1199 L-580,1186 L-589,1179 L-589,1177 L-591,1177 L-591,1175 L-593,1175 L-601,1165 L-630,1136 L-643,1119 L-653,1104 L-662,1089 L-673,1068 L-681,1049 L-692,1016 L-699,987 L-705,952 L-708,924 L-709,899 L-709,874 L-706,843 L-703,823 L-696,793 L-685,760 L-674,735 L-663,714 L-649,692 L-639,679 L-628,666 L-617,654 L-594,631 L-583,622 L-566,609 L-543,594 L-526,584 L-501,571 L-493,567 L-490,564 L-491,553 L-494,527 L-496,491 L-496,466 L-494,439 L-491,417 L-486,390 L-478,360 L-468,331 L-454,297 L-446,280 L-434,258 L-425,242 L-405,212 L-392,195 L-379,179 L-370,168 L-362,160 L-355,152 L-343,140 L-335,133 L-327,125 L-316,116 L-303,105 L-284,91 L-266,79 L-246,67 L-228,57 L-206,46 L-174,33 L-141,22 L-101,12 L-73,7 L-29,2 Z " fill="#101010" transform="translate(905,204)"/>
<path d="M0,0 L414,0 L430,4 L440,9 L449,16 L454,20 L457,25 L459,26 L460,31 L462,31 L469,48 L470,54 L470,75 L467,86 L462,97 L460,97 L459,101 L457,104 L455,104 L453,108 L448,113 L446,113 L446,115 L441,116 L440,119 L427,124 L417,127 L410,128 L-290,129 L-1033,129 L-1042,127 L-1052,123 L-1063,116 L-1068,111 L-1072,107 L-1072,105 L-1074,105 L-1075,101 L-1077,101 L-1079,97 L-1079,94 L-1081,94 L-1084,87 L-1087,73 L-1087,58 L-1085,47 L-1077,31 L-1075,27 L-1073,27 L-1073,25 L-1071,25 L-1070,21 L-1068,21 L-1068,19 L-1064,16 L-1062,16 L-1062,14 L-1048,7 L-1037,3 L-1032,2 L-846,1 L-711,1 Z " fill="#101010" transform="translate(1360,1541)"/>
<path d="M0,0 L165,0 L309,1 L336,1 L487,2 L519,2 L663,3 L695,3 L831,4 L871,4 L932,5 L944,8 L954,12 L954,14 L958,15 L967,22 L972,27 L976,33 L979,37 L983,45 L987,61 L987,77 L983,93 L977,104 L965,118 L954,125 L943,130 L924,133 L754,132 L585,131 L557,131 L406,130 L381,130 L230,129 L203,129 L54,128 L27,128 L1,127 L-8,125 L-21,120 L-21,118 L-25,117 L-34,110 L-46,95 L-51,84 L-54,69 L-54,58 L-51,44 L-46,32 L-37,20 L-24,9 L-11,3 Z " fill="#101010" transform="translate(741,1364)"/>
<path d="M0,0 L145,1 L649,5 L764,6 L780,9 L792,14 L802,21 L805,23 L805,25 L807,25 L810,29 L810,31 L812,31 L813,35 L815,35 L820,45 L824,58 L825,74 L823,88 L818,99 L816,104 L814,104 L812,109 L808,114 L806,114 L806,116 L804,116 L804,118 L794,125 L782,131 L766,134 L700,134 L449,132 L57,129 L-6,128 L-17,126 L-33,119 L-33,117 L-37,116 L-37,114 L-41,113 L-41,111 L-43,111 L-43,109 L-45,109 L-48,105 L-48,103 L-50,103 L-51,99 L-53,99 L-61,80 L-63,67 L-63,58 L-59,41 L-52,28 L-50,28 L-48,23 L-43,18 L-32,9 L-15,2 Z " fill="#101010" transform="translate(496,1168)"/>
<path d="M0,0 L359,0 L367,2 L382,8 L388,12 L388,14 L392,16 L394,17 L394,19 L396,19 L396,21 L398,21 L407,35 L412,49 L413,54 L413,72 L411,80 L408,89 L403,98 L400,103 L398,103 L396,107 L389,114 L382,119 L367,125 L357,127 L219,128 L-150,129 L-260,129 L-276,125 L-282,122 L-292,116 L-296,113 L-296,111 L-298,111 L-298,109 L-302,107 L-306,101 L-306,99 L-308,99 L-313,88 L-316,78 L-317,66 L-317,57 L-315,49 L-307,30 L-305,30 L-304,26 L-302,26 L-302,23 L-300,23 L-299,20 L-297,20 L-297,18 L-295,18 L-295,16 L-289,12 L-278,6 L-265,2 L-258,1 Z " fill="#101010" transform="translate(1028,1715)"/>
<path d="M0,0 Z " fill="#000000" transform="translate(679,1380)"/>
</svg>
