<?xml version="1.0" encoding="UTF-8"?>
<!-- Generator: visioncortex VTracer 0.6.12 -->
<svg version="1.1" xmlns="http://www.w3.org/2000/svg" width="2048" height="2048">
<path d="M0,0 L47,0 L81,2 L117,6 L152,12 L180,18 L221,29 L254,40 L288,53 L316,66 L332,74 L353,85 L378,100 L394,111 L408,121 L421,131 L432,140 L442,149 L450,156 L476,182 L485,193 L496,206 L508,222 L516,234 L528,253 L544,284 L555,311 L562,334 L563,343 L590,345 L625,350 L655,356 L683,364 L706,372 L729,382 L745,390 L767,402 L789,417 L801,426 L814,437 L826,448 L839,461 L848,472 L858,484 L870,501 L881,519 L894,543 L904,566 L914,594 L922,624 L926,645 L929,665 L932,701 L932,747 L930,772 L925,807 L919,835 L910,866 L901,891 L888,921 L873,949 L861,968 L847,987 L834,1002 L820,1017 L811,1027 L798,1039 L784,1051 L765,1065 L749,1076 L734,1086 L712,1099 L693,1109 L677,1116 L662,1120 L644,1128 L635,1131 L612,1137 L587,1142 L566,1145 L530,1148 L504,1148 L490,1144 L472,1133 L471,1130 L467,1128 L467,1126 L464,1125 L456,1113 L451,1099 L449,1085 L451,1067 L458,1050 L461,1046 L463,1046 L465,1041 L470,1036 L472,1036 L473,1033 L475,1033 L475,1031 L485,1025 L496,1021 L512,1018 L551,1015 L573,1012 L593,1007 L605,1002 L620,995 L638,990 L657,980 L687,960 L704,947 L717,936 L727,927 L739,914 L752,896 L765,874 L777,849 L786,824 L794,794 L799,764 L801,743 L802,717 L801,695 L797,666 L790,636 L783,616 L775,598 L766,581 L755,565 L747,555 L738,545 L730,536 L717,526 L699,514 L681,504 L661,495 L645,489 L619,482 L589,477 L561,474 L523,471 L502,468 L486,463 L478,459 L469,453 L455,440 L447,427 L442,414 L439,397 L437,376 L433,359 L425,339 L417,323 L409,309 L397,292 L389,282 L378,269 L366,256 L356,246 L342,235 L325,222 L310,212 L285,197 L258,183 L233,172 L209,163 L182,154 L144,144 L114,138 L75,133 L45,131 L-3,131 L-28,133 L-57,137 L-91,144 L-118,152 L-147,163 L-164,171 L-184,182 L-203,194 L-222,208 L-233,217 L-247,229 L-260,241 L-273,254 L-281,264 L-291,277 L-305,297 L-320,322 L-334,349 L-344,373 L-355,406 L-361,433 L-365,466 L-365,500 L-363,523 L-359,550 L-355,568 L-350,577 L-346,587 L-344,599 L-344,614 L-348,630 L-352,640 L-356,646 L-365,656 L-369,661 L-378,667 L-390,672 L-398,674 L-411,675 L-436,685 L-462,698 L-482,710 L-499,722 L-514,735 L-527,748 L-536,759 L-545,772 L-555,789 L-564,810 L-570,828 L-576,857 L-578,876 L-578,909 L-575,937 L-569,968 L-562,993 L-552,1018 L-542,1035 L-532,1049 L-524,1059 L-514,1069 L-506,1076 L-495,1086 L-477,1097 L-455,1108 L-426,1120 L-402,1128 L-377,1133 L-348,1136 L-334,1136 L-316,1135 L-306,1136 L-291,1140 L-279,1147 L-279,1149 L-275,1150 L-275,1152 L-272,1153 L-272,1155 L-270,1155 L-270,1157 L-268,1157 L-261,1167 L-256,1178 L-255,1181 L-255,1219 L-263,1237 L-265,1238 L-267,1242 L-269,1242 L-271,1246 L-274,1247 L-274,1249 L-276,1249 L-276,1251 L-286,1257 L-296,1262 L-310,1265 L-338,1267 L-366,1266 L-399,1262 L-425,1257 L-451,1250 L-478,1240 L-514,1224 L-543,1210 L-561,1199 L-580,1186 L-589,1179 L-589,1177 L-591,1177 L-591,1175 L-593,1175 L-601,1165 L-630,1136 L-643,1119 L-653,1104 L-662,1089 L-673,1068 L-681,1049 L-692,1016 L-699,987 L-705,952 L-708,924 L-709,899 L-709,874 L-706,843 L-703,823 L-696,793 L-685,760 L-674,735 L-663,714 L-649,692 L-639,679 L-628,666 L-617,654 L-594,631 L-583,622 L-566,609 L-543,594 L-526,584 L-501,571 L-493,567 L-490,564 L-491,553 L-494,527 L-496,491 L-496,466 L-494,439 L-491,417 L-486,390 L-478,360 L-468,331 L-454,297 L-446,280 L-434,258 L-425,242 L-405,212 L-392,195 L-379,179 L-370,168 L-362,160 L-355,152 L-343,140 L-335,133 L-327,125 L-316,116 L-303,105 L-284,91 L-266,79 L-246,67 L-228,57 L-206,46 L-174,33 L-141,22 L-101,12 L-73,7 L-29,2 Z " fill="#101010" transform="translate(954,249)"/>
<path d="M0,0 L14,0 L26,2 L41,8 L52,17 L59,24 L65,33 L70,44 L73,58 L73,72 L69,87 L62,101 L57,108 L52,113 L47,118 L45,118 L43,122 L34,130 L29,135 L10,154 L3,160 L-2,165 L-21,184 L-29,191 L-35,196 L-39,199 L-42,199 L-42,201 L-49,204 L-55,206 L-72,208 L-79,208 L-91,206 L-104,201 L-112,195 L-119,190 L-123,185 L-123,183 L-125,183 L-129,177 L-129,174 L-131,174 L-134,167 L-136,161 L-138,145 L-137,129 L-133,117 L-127,106 L-125,106 L-123,102 L-116,94 L-101,79 L-99,79 L-97,75 L-89,68 L-65,44 L-57,37 L-38,18 L-36,18 L-36,16 L-26,9 L-20,6 L-17,6 L-17,4 L-11,2 L-2,1 Z " fill="#101010" transform="translate(861,1188)"/>
<path d="M0,0 L12,0 L28,4 L40,10 L47,15 L47,17 L51,19 L52,22 L54,22 L54,24 L56,24 L60,30 L60,33 L62,33 L66,43 L70,59 L70,71 L67,85 L62,97 L52,110 L36,126 L28,133 L15,146 L13,146 L13,148 L5,155 L-9,169 L-11,169 L-11,171 L-19,178 L-30,189 L-41,197 L-51,202 L-67,206 L-84,206 L-99,202 L-114,194 L-115,191 L-119,189 L-124,184 L-124,182 L-126,182 L-132,173 L-136,163 L-138,158 L-140,144 L-140,135 L-138,126 L-136,119 L-132,109 L-123,97 L-112,86 L-110,86 L-110,84 L-108,84 L-108,82 L-100,75 L-86,61 L-78,54 L-65,41 L-63,41 L-63,39 L-55,32 L-44,21 L-42,21 L-42,19 L-30,10 L-27,8 L-24,8 L-24,6 L-9,1 Z " fill="#101010" transform="translate(1105,1512)"/>
<path d="M0,0 L14,1 L27,5 L38,11 L38,13 L41,13 L41,15 L45,16 L45,18 L47,18 L47,20 L49,20 L51,25 L53,25 L59,34 L63,44 L66,57 L66,76 L62,89 L55,103 L44,115 L35,124 L27,131 L16,142 L8,149 L-3,160 L-5,160 L-5,162 L-13,169 L-22,178 L-24,178 L-24,180 L-26,180 L-26,182 L-37,191 L-52,199 L-65,202 L-83,202 L-98,198 L-108,193 L-113,190 L-116,188 L-116,186 L-118,186 L-118,184 L-120,184 L-120,182 L-122,182 L-122,180 L-124,180 L-133,166 L-139,148 L-139,127 L-135,113 L-130,103 L-123,94 L-102,73 L-94,66 L-84,56 L-76,49 L-63,36 L-55,29 L-45,19 L-36,12 L-28,7 L-10,1 Z " fill="#101010" transform="translate(909,1428)"/>
<path d="M0,0 L20,0 L36,4 L41,6 L41,8 L45,9 L48,10 L48,12 L51,12 L51,14 L55,16 L59,20 L59,22 L62,23 L70,36 L74,46 L76,56 L77,66 L75,79 L72,90 L70,90 L69,95 L64,104 L62,104 L60,108 L54,115 L52,115 L52,117 L50,117 L48,121 L-8,177 L-14,184 L-24,192 L-40,200 L-55,203 L-64,203 L-79,201 L-91,196 L-98,192 L-98,190 L-103,188 L-111,180 L-120,166 L-124,156 L-126,139 L-125,129 L-121,113 L-115,101 L-106,91 L-101,86 L-97,81 L-92,76 L-89,75 L-87,71 L-83,69 L-81,65 L-31,15 L-29,15 L-28,12 L-13,4 Z " fill="#101010" transform="translate(1063,990)"/>
<path d="M0,0 L12,0 L29,4 L41,10 L44,13 L49,16 L56,24 L60,28 L66,40 L69,49 L71,59 L71,72 L67,88 L61,100 L55,108 L13,150 L5,157 L-23,185 L-32,192 L-42,197 L-54,201 L-65,202 L-80,201 L-94,196 L-102,192 L-115,181 L-118,178 L-121,173 L-125,167 L-130,154 L-132,141 L-132,131 L-129,117 L-124,105 L-120,100 L-117,95 L-106,84 L-98,77 L-45,24 L-37,17 L-29,10 L-17,4 L-5,1 Z " fill="#101010" transform="translate(1100,1243)"/>
<path d="M0,0 L17,0 L35,5 L42,9 L53,17 L53,19 L57,21 L57,23 L60,24 L68,38 L72,48 L74,62 L74,70 L73,79 L68,92 L63,102 L49,117 L42,124 L34,131 L22,143 L14,150 L2,162 L-6,169 L-16,179 L-28,187 L-40,192 L-57,195 L-71,194 L-84,190 L-102,179 L-104,175 L-107,174 L-114,165 L-122,149 L-124,138 L-124,120 L-119,103 L-108,86 L-98,76 L-90,69 L-78,57 L-70,50 L-58,38 L-50,31 L-38,19 L-25,9 L-9,2 Z " fill="#101010" transform="translate(1298,1334)"/>
<path d="M0,0 L13,1 L22,3 L31,7 L40,12 L45,16 L50,21 L58,32 L63,42 L67,58 L67,74 L63,90 L61,94 L48,112 L31,128 L23,135 L7,150 L-5,161 L-17,172 L-28,181 L-36,186 L-49,191 L-69,193 L-83,190 L-92,187 L-101,182 L-112,173 L-119,165 L-127,149 L-130,135 L-130,117 L-126,103 L-120,93 L-116,87 L-104,74 L-92,63 L-79,51 L-67,40 L-64,39 L-64,37 L-56,30 L-43,18 L-32,10 L-20,4 L-8,1 Z " fill="#101010" transform="translate(1301,1063)"/>
</svg>
