<?xml version="1.0" encoding="UTF-8"?>
<!-- Generator: visioncortex VTracer 0.6.12 -->
<svg version="1.1" xmlns="http://www.w3.org/2000/svg" width="2048" height="2048">
<path d="M0,0 L62,0 L137,1 L156,1 L245,2 L340,3 L432,4 L526,5 L632,6 L706,7 L721,10 L733,15 L743,23 L749,28 L753,34 L756,37 L761,48 L764,59 L765,66 L765,79 L762,91 L758,101 L752,110 L742,121 L730,128 L720,132 L711,134 L711,210 L718,202 L725,195 L726,193 L728,193 L729,190 L731,190 L733,186 L741,179 L745,175 L747,175 L749,171 L760,162 L778,148 L800,134 L822,122 L842,113 L875,102 L887,99 L894,98 L913,98 L928,102 L937,106 L937,108 L942,110 L950,117 L958,127 L963,137 L966,147 L967,155 L967,169 L963,185 L960,192 L958,192 L957,196 L952,203 L950,203 L948,207 L938,215 L934,216 L934,218 L917,224 L896,230 L877,238 L855,251 L842,261 L829,272 L822,278 L815,286 L812,287 L810,291 L799,303 L794,310 L792,310 L790,314 L784,322 L770,341 L758,358 L744,382 L727,415 L714,443 L708,453 L707,510 L705,681 L705,740 L702,762 L697,782 L690,803 L676,832 L665,849 L653,865 L640,880 L628,892 L614,903 L599,914 L583,923 L564,932 L546,938 L534,941 L529,944 L517,947 L516,948 L508,949 L54,952 L6,952 L-446,949 L-454,948 L-463,945 L-471,942 L-480,939 L-499,933 L-517,925 L-532,917 L-544,909 L-561,896 L-574,884 L-582,876 L-591,865 L-603,849 L-615,830 L-628,803 L-636,779 L-641,756 L-643,740 L-643,679 L-645,510 L-646,453 L-654,439 L-667,411 L-677,391 L-687,373 L-700,352 L-714,333 L-723,321 L-730,312 L-730,310 L-733,309 L-740,300 L-750,289 L-750,287 L-754,285 L-760,278 L-768,271 L-782,259 L-798,248 L-815,238 L-834,230 L-862,222 L-872,218 L-872,216 L-878,214 L-888,205 L-888,203 L-892,201 L-896,195 L-896,192 L-898,192 L-903,179 L-905,169 L-905,155 L-903,142 L-895,126 L-888,117 L-879,109 L-875,108 L-875,106 L-864,101 L-851,98 L-832,98 L-817,101 L-791,109 L-771,117 L-750,127 L-733,137 L-715,149 L-702,159 L-692,167 L-685,173 L-685,175 L-681,177 L-674,183 L-669,188 L-669,190 L-666,191 L-666,193 L-664,193 L-657,201 L-650,208 L-649,210 L-649,134 L-661,131 L-668,128 L-681,120 L-691,109 L-697,99 L-701,89 L-703,79 L-703,64 L-701,54 L-696,41 L-692,35 L-688,30 L-683,25 L-674,17 L-662,11 L-651,8 L-640,7 L-555,6 L-460,5 L-368,4 L-262,3 L-169,2 L-75,1 Z M-55,128 L-240,130 L-348,131 L-521,133 L-521,215 L-516,637 L-516,724 L-514,740 L-509,756 L-501,772 L-491,786 L-477,800 L-467,807 L-453,814 L-438,818 L-429,820 L-427,821 L-358,822 L-52,824 L121,824 L426,822 L489,821 L494,819 L512,815 L524,810 L535,803 L547,792 L554,785 L563,772 L571,756 L576,740 L578,723 L578,637 L583,215 L583,133 L398,131 L197,129 L102,128 Z " fill="#101010" transform="translate(993,875)"/>
<path d="M0,0 L17,2 L32,6 L45,13 L50,18 L55,23 L61,30 L61,33 L63,33 L69,47 L71,58 L71,72 L70,77 L102,68 L148,57 L198,47 L241,40 L289,34 L320,31 L354,29 L382,28 L444,28 L484,30 L519,33 L557,38 L587,43 L596,43 L614,36 L626,34 L637,34 L652,37 L668,45 L673,49 L673,51 L677,53 L685,62 L693,79 L695,88 L695,107 L693,116 L690,125 L685,134 L683,134 L681,139 L677,141 L676,144 L674,144 L673,147 L663,153 L651,159 L606,176 L564,192 L514,211 L456,233 L401,254 L348,274 L301,292 L256,309 L201,330 L156,347 L114,363 L85,374 L35,393 L-20,414 L-65,431 L-115,450 L-165,469 L-207,485 L-257,504 L-307,523 L-357,542 L-407,561 L-457,580 L-515,602 L-527,606 L-543,607 L-559,604 L-570,599 L-577,595 L-577,593 L-582,591 L-582,589 L-584,589 L-588,584 L-588,582 L-591,581 L-593,575 L-595,575 L-599,566 L-603,550 L-603,535 L-599,519 L-596,513 L-592,506 L-590,506 L-589,502 L-587,502 L-585,498 L-582,497 L-581,494 L-572,488 L-552,479 L-536,473 L-526,459 L-513,442 L-502,429 L-493,418 L-483,407 L-476,399 L-464,386 L-432,354 L-424,347 L-417,340 L-409,333 L-399,324 L-388,315 L-374,303 L-357,290 L-339,276 L-325,266 L-308,254 L-285,238 L-269,228 L-250,216 L-223,200 L-196,185 L-171,172 L-156,164 L-133,153 L-109,142 L-104,140 L-109,134 L-113,130 L-113,128 L-115,128 L-116,124 L-118,124 L-119,119 L-121,119 L-122,112 L-124,112 L-126,106 L-128,81 L-124,65 L-117,51 L-111,43 L-103,36 L-92,28 L-76,20 L-57,12 L-32,4 L-23,2 Z M276,164 Z M269,165 L224,172 L174,182 L137,191 L96,202 L55,215 L26,225 L-11,239 L-49,255 L-88,273 L-126,292 L-149,305 L-169,316 L-197,333 L-220,348 L-233,357 L-231,358 L-191,343 L-136,322 L-78,300 L-28,281 L22,262 L72,243 L122,224 L172,205 L222,186 L272,167 L275,165 Z M-235,358 Z " fill="#101010" transform="translate(846,239)"/>
<path d="M0,0 L16,2 L30,7 L45,17 L52,25 L52,27 L54,27 L62,43 L65,57 L66,104 L67,218 L69,416 L70,532 L68,548 L63,561 L57,570 L52,577 L45,583 L40,585 L40,587 L27,593 L15,596 L-3,596 L-19,592 L-23,589 L-30,586 L-38,579 L-43,574 L-43,572 L-46,571 L-53,559 L-57,546 L-58,538 L-59,488 L-62,163 L-62,54 L-57,38 L-45,20 L-38,14 L-36,14 L-36,12 L-33,12 L-33,10 L-25,6 L-18,3 L-9,1 Z " fill="#101010" transform="translate(604,1037)"/>
<path d="M0,0 L15,0 L32,4 L46,11 L60,24 L67,35 L71,44 L74,55 L75,66 L74,80 L70,96 L64,109 L54,127 L38,151 L30,161 L19,174 L13,181 L11,181 L9,185 L-1,195 L-3,195 L-4,198 L-12,205 L-23,215 L-33,223 L-44,231 L-53,236 L-60,239 L-70,241 L-95,241 L-106,238 L-122,230 L-137,219 L-153,207 L-167,195 L-177,186 L-187,177 L-197,167 L-204,159 L-214,148 L-226,132 L-235,116 L-243,95 L-245,82 L-245,73 L-242,57 L-238,47 L-235,41 L-228,31 L-226,31 L-225,28 L-215,20 L-208,16 L-190,9 L-181,8 L-166,8 L-152,11 L-142,15 L-131,20 L-116,29 L-102,40 L-89,52 L-81,60 L-79,60 L-68,46 L-63,40 L-58,35 L-52,29 L-50,29 L-48,25 L-37,16 L-25,8 L-9,2 Z " fill="#101010" transform="translate(1691,558)"/>
<path d="M0,0 L12,0 L26,2 L35,6 L40,8 L40,10 L43,10 L43,12 L46,12 L46,14 L50,16 L52,17 L52,19 L54,19 L61,28 L68,41 L71,53 L72,68 L67,89 L54,117 L43,143 L38,152 L31,162 L20,171 L3,180 L-2,184 L-13,189 L-22,192 L-36,193 L-44,193 L-62,188 L-72,182 L-82,174 L-90,166 L-98,159 L-112,145 L-114,144 L-114,142 L-118,140 L-145,113 L-152,103 L-156,96 L-160,83 L-161,74 L-161,62 L-155,42 L-150,33 L-148,33 L-146,28 L-141,23 L-139,23 L-139,21 L-127,13 L-117,9 L-101,6 L-92,6 L-77,9 L-61,17 L-50,27 L-48,28 L-48,30 L-43,25 L-41,22 L-39,22 L-37,18 L-34,17 L-33,14 L-24,8 L-15,4 L-5,1 Z " fill="#101010" transform="translate(1256,649)"/>
</svg>
