<?xml version="1.0" encoding="UTF-8"?>
<!-- Generator: visioncortex VTracer 0.6.12 -->
<svg version="1.1" xmlns="http://www.w3.org/2000/svg" width="2048" height="2048">
<path d="M0,0 L64,0 L106,2 L123,3 L152,1 L180,0 L242,0 L343,3 L474,6 L516,8 L556,12 L583,16 L610,22 L641,31 L665,41 L681,49 L696,58 L712,70 L722,79 L737,94 L743,102 L743,104 L745,104 L754,117 L759,126 L765,135 L773,151 L781,170 L786,181 L800,220 L808,249 L811,261 L811,266 L833,265 L865,267 L889,271 L912,277 L933,284 L956,294 L972,302 L991,313 L1007,324 L1021,335 L1032,345 L1040,352 L1047,360 L1057,371 L1069,387 L1081,406 L1090,422 L1099,442 L1108,467 L1115,492 L1119,514 L1121,531 L1122,553 L1122,565 L1120,592 L1116,617 L1109,644 L1102,665 L1093,686 L1081,711 L1069,731 L1057,748 L1044,764 L1035,774 L1028,782 L1026,782 L1024,786 L1016,793 L1005,803 L989,815 L973,825 L969,827 L969,1243 L970,1250 L968,1264 L962,1280 L961,1282 L959,1282 L957,1287 L955,1290 L953,1290 L951,1294 L945,1299 L943,1299 L941,1303 L923,1311 L907,1313 L787,1313 L788,1339 L787,1428 L782,1452 L777,1466 L772,1475 L760,1483 L749,1487 L739,1489 L702,1489 L661,1488 L590,1486 L546,1485 L529,1481 L518,1475 L512,1471 L500,1458 L496,1452 L490,1437 L489,1432 L488,1419 L491,1313 L-249,1313 L-246,1421 L-247,1434 L-252,1448 L-256,1455 L-262,1462 L-272,1473 L-286,1480 L-294,1483 L-306,1485 L-389,1487 L-430,1488 L-469,1489 L-499,1489 L-511,1486 L-523,1480 L-530,1475 L-538,1459 L-544,1434 L-545,1428 L-546,1339 L-545,1313 L-668,1313 L-681,1311 L-699,1303 L-701,1299 L-706,1297 L-711,1292 L-711,1290 L-714,1289 L-717,1284 L-717,1282 L-719,1282 L-724,1270 L-727,1258 L-728,1249 L-727,1238 L-727,827 L-743,818 L-756,808 L-766,800 L-779,788 L-784,784 L-784,782 L-788,780 L-797,770 L-808,757 L-818,744 L-830,726 L-842,705 L-854,680 L-865,651 L-872,625 L-876,607 L-879,583 L-880,561 L-880,548 L-878,521 L-874,497 L-869,477 L-859,447 L-851,429 L-843,413 L-833,396 L-821,379 L-812,368 L-803,358 L-796,350 L-788,343 L-777,333 L-761,321 L-744,310 L-726,300 L-710,292 L-685,282 L-667,276 L-642,270 L-623,267 L-591,265 L-569,266 L-568,257 L-560,227 L-550,197 L-540,171 L-533,156 L-525,140 L-520,130 L-513,120 L-508,111 L-503,104 L-501,104 L-499,100 L-492,91 L-473,72 L-457,60 L-444,52 L-432,45 L-407,34 L-383,26 L-347,17 L-323,13 L-287,9 L-255,7 L-230,6 L-98,3 Z M-12,128 L-114,131 L-206,133 L-261,135 L-299,138 L-325,142 L-350,149 L-372,158 L-383,164 L-394,173 L-402,182 L-410,195 L-418,211 L-429,238 L-440,271 L-447,300 L-447,303 L-432,311 L-414,323 L-401,333 L-386,346 L-368,364 L-359,375 L-349,388 L-338,405 L-329,421 L-321,436 L-313,454 L-303,480 L-296,502 L-289,528 L-282,562 L-277,597 L-275,610 L517,610 L520,589 L525,557 L531,528 L541,492 L548,472 L560,442 L568,426 L578,408 L592,387 L602,374 L614,360 L632,342 L643,333 L660,320 L681,307 L689,303 L687,291 L679,261 L670,235 L659,209 L651,193 L643,181 L633,170 L620,161 L605,154 L585,147 L562,141 L541,138 L503,135 L448,133 L316,130 L252,128 Z M-599,393 L-616,395 L-634,399 L-650,405 L-671,415 L-687,425 L-697,433 L-707,442 L-718,454 L-730,472 L-738,488 L-744,504 L-749,523 L-752,543 L-752,571 L-749,591 L-743,614 L-739,624 L-731,642 L-719,663 L-710,675 L-699,688 L-686,701 L-669,714 L-664,717 L-650,719 L-637,723 L-626,729 L-618,736 L-616,736 L-614,741 L-611,745 L-609,745 L-608,750 L-604,757 L-601,765 L-599,778 L-598,1185 L840,1185 L841,778 L843,765 L847,754 L851,748 L851,745 L854,744 L858,738 L858,736 L862,734 L871,727 L884,721 L899,718 L906,717 L919,708 L932,697 L945,684 L956,670 L965,656 L974,640 L981,624 L985,614 L991,591 L994,571 L994,543 L991,523 L984,498 L976,479 L967,464 L958,452 L947,440 L936,430 L918,418 L895,406 L879,400 L863,396 L852,394 L841,393 L820,393 L803,395 L781,400 L762,407 L743,417 L726,429 L712,441 L706,447 L706,449 L704,449 L694,462 L683,480 L675,496 L670,507 L663,525 L655,554 L649,583 L644,618 L641,648 L640,659 L639,682 L639,722 L643,797 L645,848 L645,863 L643,912 L641,925 L638,935 L634,942 L634,945 L632,945 L628,951 L627,954 L625,954 L625,956 L622,957 L622,959 L618,960 L618,962 L613,964 L609,966 L609,968 L605,969 L597,972 L597,974 L587,975 L581,976 L-339,976 L-350,974 L-355,974 L-355,972 L-363,969 L-367,968 L-367,966 L-374,962 L-376,962 L-376,960 L-380,959 L-381,956 L-383,956 L-383,954 L-385,954 L-387,950 L-390,945 L-392,945 L-393,941 L-398,929 L-400,921 L-402,893 L-403,854 L-402,816 L-398,745 L-397,720 L-397,682 L-398,659 L-401,627 L-406,589 L-411,562 L-419,532 L-426,512 L-435,491 L-446,471 L-458,454 L-462,449 L-464,449 L-466,445 L-473,438 L-484,429 L-498,419 L-514,410 L-530,403 L-551,397 L-566,394 L-578,393 Z M-271,737 L-276,833 L-276,849 L518,849 L518,831 L513,737 Z M-418,1313 L-419,1339 L-419,1360 L-399,1360 L-376,1359 L-376,1330 L-377,1313 Z M619,1313 L618,1330 L618,1359 L647,1360 L661,1360 L661,1339 L660,1313 Z " fill="#101010" transform="translate(903,351)"/>
</svg>
