<?xml version="1.0" encoding="UTF-8"?>
<!-- Generator: visioncortex VTracer 0.6.12 -->
<svg version="1.1" xmlns="http://www.w3.org/2000/svg" width="2048" height="2048">
<path d="M0,0 L9,0 L26,4 L44,12 L57,24 L64,33 L71,48 L74,61 L74,297 L162,297 L162,211 L163,191 L165,180 L171,165 L179,153 L181,153 L182,150 L190,143 L200,136 L212,131 L225,128 L251,128 L272,134 L285,142 L285,144 L289,146 L298,155 L304,165 L304,168 L306,168 L309,178 L311,182 L313,201 L313,298 L401,298 L401,62 L404,48 L412,31 L414,31 L416,26 L424,18 L426,18 L426,16 L431,14 L431,12 L452,3 L467,0 L475,0 L488,2 L504,8 L514,14 L526,25 L531,32 L538,46 L541,57 L542,63 L542,299 L564,299 L648,300 L647,289 L646,236 L646,196 L650,179 L658,163 L662,159 L664,159 L666,154 L675,146 L678,146 L678,144 L686,139 L701,134 L706,133 L727,133 L743,137 L751,141 L763,150 L768,154 L774,161 L782,175 L786,187 L787,193 L788,215 L789,271 L789,301 L806,300 L816,296 L828,294 L844,294 L860,298 L874,305 L882,311 L883,314 L886,315 L886,317 L888,317 L896,327 L901,337 L907,350 L909,358 L910,376 L907,393 L906,430 L1031,430 L1047,434 L1057,439 L1067,446 L1067,448 L1069,448 L1069,450 L1071,450 L1071,452 L1073,452 L1080,462 L1085,472 L1090,487 L1091,504 L1087,523 L1079,539 L1075,544 L1074,546 L1072,546 L1072,548 L1070,548 L1070,550 L1068,550 L1068,552 L1054,562 L1043,567 L1027,570 L1019,571 L906,571 L906,680 L1003,680 L1141,681 L1177,682 L1193,686 L1209,693 L1215,698 L1215,700 L1219,702 L1226,710 L1230,716 L1236,728 L1239,740 L1240,756 L1239,766 L1235,779 L1228,792 L1225,796 L1223,796 L1222,800 L1219,803 L1217,803 L1217,805 L1215,805 L1215,807 L1205,814 L1192,820 L1177,823 L1093,823 L946,822 L907,821 L907,916 L1039,916 L1054,917 L1068,920 L1081,927 L1094,937 L1105,952 L1110,962 L1113,974 L1114,983 L1114,994 L1111,1008 L1107,1018 L1105,1022 L1103,1022 L1102,1026 L1096,1034 L1087,1042 L1077,1049 L1063,1055 L1056,1057 L1047,1058 L908,1058 L907,1158 L972,1158 L1098,1159 L1178,1160 L1197,1163 L1214,1171 L1214,1173 L1219,1175 L1226,1181 L1236,1195 L1242,1209 L1245,1225 L1245,1237 L1243,1247 L1240,1258 L1234,1270 L1225,1280 L1220,1285 L1208,1293 L1195,1299 L1184,1301 L1068,1301 L932,1300 L907,1299 L907,1403 L1042,1403 L1056,1405 L1059,1406 L1059,1408 L1065,1409 L1078,1415 L1083,1418 L1083,1420 L1085,1420 L1085,1422 L1087,1422 L1087,1424 L1089,1424 L1089,1426 L1093,1428 L1100,1438 L1107,1453 L1109,1464 L1110,1477 L1108,1492 L1104,1501 L1097,1515 L1093,1520 L1087,1525 L1082,1530 L1067,1539 L1051,1544 L1041,1545 L907,1545 L907,1609 L904,1619 L901,1628 L897,1640 L891,1650 L885,1658 L883,1658 L881,1662 L871,1670 L860,1675 L845,1680 L787,1680 L787,1795 L786,1806 L783,1815 L777,1827 L769,1837 L760,1845 L749,1852 L735,1857 L726,1859 L708,1859 L691,1855 L680,1849 L668,1840 L658,1829 L651,1814 L647,1801 L646,1795 L646,1679 L558,1679 L552,1678 L553,1776 L554,1911 L554,1951 L551,1969 L545,1984 L542,1989 L540,1989 L538,1994 L532,2000 L530,2000 L530,2002 L519,2010 L505,2016 L493,2019 L475,2019 L467,2017 L459,2015 L447,2010 L438,2003 L429,1995 L422,1985 L415,1971 L413,1961 L412,1951 L410,1693 L410,1678 L345,1678 L335,1677 L313,1676 L312,1755 L311,1784 L307,1800 L302,1812 L291,1826 L287,1828 L287,1830 L280,1835 L277,1835 L277,1837 L268,1841 L257,1844 L249,1846 L226,1846 L214,1843 L202,1839 L198,1837 L198,1835 L195,1835 L194,1833 L191,1832 L191,1830 L186,1828 L186,1826 L184,1826 L174,1813 L169,1802 L165,1789 L164,1783 L163,1750 L162,1676 L120,1676 L65,1675 L64,1839 L63,1951 L61,1966 L58,1976 L52,1987 L44,1998 L39,2002 L37,2002 L37,2004 L32,2008 L29,2008 L29,2010 L14,2016 L2,2018 L1,2019 L-18,2019 L-32,2015 L-44,2010 L-53,2003 L-60,1996 L-65,1991 L-72,1979 L-77,1964 L-79,1951 L-78,1793 L-77,1675 L-101,1675 L-171,1674 L-171,1796 L-173,1806 L-177,1816 L-181,1826 L-188,1835 L-198,1845 L-211,1853 L-224,1857 L-233,1859 L-251,1859 L-267,1855 L-279,1849 L-288,1842 L-295,1836 L-296,1832 L-298,1832 L-305,1821 L-309,1813 L-311,1806 L-312,1795 L-312,1674 L-372,1674 L-379,1672 L-395,1667 L-409,1657 L-421,1644 L-425,1636 L-425,1633 L-427,1633 L-431,1618 L-432,1617 L-433,1583 L-433,1545 L-566,1545 L-580,1543 L-592,1539 L-607,1530 L-607,1528 L-611,1526 L-614,1523 L-614,1521 L-618,1519 L-618,1517 L-620,1517 L-621,1513 L-623,1513 L-632,1494 L-634,1484 L-634,1464 L-631,1452 L-623,1436 L-619,1430 L-614,1424 L-612,1424 L-612,1422 L-606,1417 L-590,1409 L-584,1408 L-584,1406 L-576,1404 L-566,1403 L-433,1403 L-434,1299 L-457,1300 L-592,1301 L-709,1301 L-725,1297 L-739,1289 L-748,1283 L-757,1272 L-761,1267 L-766,1256 L-769,1244 L-770,1235 L-770,1225 L-767,1209 L-760,1193 L-751,1182 L-747,1177 L-743,1176 L-743,1174 L-739,1173 L-739,1171 L-726,1165 L-718,1162 L-703,1160 L-623,1159 L-497,1158 L-434,1158 L-434,1058 L-572,1058 L-588,1055 L-598,1051 L-608,1045 L-619,1036 L-623,1032 L-623,1029 L-626,1028 L-634,1014 L-638,1000 L-639,988 L-638,974 L-633,958 L-626,947 L-617,936 L-613,934 L-612,931 L-603,925 L-592,920 L-579,917 L-557,916 L-435,916 L-435,821 L-479,822 L-626,823 L-702,823 L-717,820 L-733,812 L-740,807 L-740,805 L-742,805 L-742,803 L-746,801 L-748,799 L-748,796 L-751,795 L-756,787 L-762,774 L-764,766 L-765,751 L-763,735 L-759,723 L-751,710 L-744,702 L-740,700 L-739,697 L-730,691 L-712,684 L-702,682 L-667,681 L-523,680 L-436,680 L-436,571 L-543,571 L-563,568 L-572,565 L-582,560 L-593,552 L-593,550 L-595,550 L-595,548 L-597,548 L-597,546 L-599,546 L-603,540 L-606,536 L-611,524 L-614,513 L-615,498 L-614,487 L-607,465 L-599,454 L-596,450 L-594,450 L-594,448 L-579,437 L-562,431 L-555,430 L-437,430 L-438,383 L-440,370 L-439,352 L-434,335 L-429,328 L-425,321 L-410,307 L-399,301 L-390,297 L-380,295 L-363,294 L-346,294 L-314,295 L-313,217 L-312,193 L-309,181 L-302,167 L-294,156 L-289,151 L-276,141 L-268,137 L-252,133 L-231,133 L-219,136 L-209,140 L-195,150 L-190,155 L-185,160 L-181,166 L-177,174 L-172,189 L-171,195 L-171,241 L-172,295 L-131,295 L-67,296 L-67,63 L-64,50 L-58,36 L-53,28 L-51,28 L-50,24 L-42,17 L-40,17 L-38,13 L-22,5 L-6,1 Z M-296,436 L-297,442 L-296,702 L-295,781 L-292,1535 L-186,1536 L689,1540 L767,1540 L767,1279 L766,441 L645,440 L428,439 L16,437 L-213,436 Z " fill="#101010" transform="translate(791,0)"/>
<path d="M0,0 L61,0 L73,1 L235,4 L264,5 L373,7 L402,8 L419,12 L431,18 L442,26 L448,33 L450,37 L454,41 L458,50 L462,61 L463,67 L464,84 L466,95 L467,870 L464,889 L460,899 L452,912 L447,917 L444,920 L442,920 L442,922 L428,931 L413,936 L398,938 L104,940 L83,941 L-31,941 L-50,940 L-338,938 L-351,936 L-364,932 L-375,926 L-381,922 L-386,917 L-395,906 L-401,894 L-404,885 L-406,866 L-405,95 L-403,84 L-402,67 L-398,52 L-391,39 L-384,30 L-373,20 L-363,14 L-351,10 L-339,8 L-251,6 L-203,5 L-174,4 L-11,1 Z M25,141 L-264,146 L-264,797 L-262,798 L9,800 L59,800 L324,798 L325,797 L325,146 L100,142 Z " fill="#101010" transform="translate(998,493)"/>
<path d="M0,0 L0,3 L-6,9 L-8,9 L-7,6 Z " fill="#090909" transform="translate(980,144)"/>
</svg>
