<?xml version="1.0" encoding="UTF-8"?>
<!-- Generator: visioncortex VTracer 0.6.12 -->
<svg version="1.1" xmlns="http://www.w3.org/2000/svg" width="2048" height="2048">
<path d="M0,0 L17,0 L29,3 L45,10 L54,17 L59,22 L59,24 L61,24 L67,34 L71,42 L74,54 L75,275 L116,275 L157,276 L157,185 L159,168 L163,156 L172,142 L180,134 L188,128 L200,122 L212,119 L221,118 L235,118 L253,122 L267,129 L277,138 L285,147 L292,161 L294,167 L296,184 L296,276 L379,277 L379,56 L383,40 L389,28 L391,28 L392,24 L394,24 L396,20 L400,16 L402,16 L402,14 L421,4 L431,1 L436,0 L453,0 L465,3 L481,11 L492,20 L492,22 L494,22 L500,31 L504,38 L509,55 L509,278 L608,277 L607,226 L607,179 L610,166 L614,158 L618,150 L621,147 L623,147 L625,142 L631,137 L633,137 L633,135 L636,135 L636,133 L652,125 L662,123 L681,123 L694,126 L704,131 L715,139 L723,146 L730,157 L736,173 L737,178 L738,199 L739,251 L739,279 L755,278 L768,274 L772,273 L790,273 L807,277 L814,280 L814,282 L818,283 L826,289 L826,291 L829,292 L829,294 L831,294 L839,305 L845,317 L849,327 L851,340 L851,350 L848,365 L847,399 L964,399 L977,402 L988,407 L988,409 L993,411 L1003,420 L1003,422 L1005,422 L1006,426 L1008,426 L1014,438 L1019,452 L1019,473 L1016,485 L1008,500 L1004,506 L1002,506 L1000,510 L998,510 L998,512 L996,512 L996,514 L992,517 L989,517 L989,519 L975,526 L960,529 L848,530 L848,632 L960,632 L1095,633 L1109,635 L1130,644 L1135,648 L1135,650 L1139,652 L1142,655 L1142,657 L1144,657 L1152,671 L1156,681 L1158,697 L1157,711 L1154,721 L1147,735 L1141,743 L1139,743 L1139,745 L1137,745 L1137,747 L1135,747 L1135,749 L1125,756 L1114,761 L1100,764 L1022,764 L885,763 L848,762 L848,851 L972,851 L992,853 L1009,860 L1022,870 L1032,883 L1037,893 L1040,905 L1041,913 L1041,923 L1038,937 L1033,949 L1031,949 L1031,952 L1029,952 L1029,955 L1027,955 L1025,959 L1021,964 L1010,971 L1007,974 L993,980 L981,982 L848,982 L848,1076 L910,1076 L1039,1077 L1101,1078 L1120,1081 L1134,1088 L1138,1091 L1138,1093 L1142,1094 L1142,1096 L1145,1097 L1155,1111 L1161,1126 L1163,1141 L1163,1149 L1160,1163 L1156,1173 L1154,1177 L1152,1177 L1151,1181 L1142,1191 L1140,1191 L1139,1194 L1126,1202 L1114,1207 L1107,1208 L981,1208 L857,1207 L848,1206 L848,1304 L976,1304 L988,1306 L1004,1313 L1008,1315 L1008,1317 L1013,1319 L1016,1321 L1016,1323 L1018,1323 L1018,1325 L1020,1325 L1020,1327 L1022,1327 L1029,1338 L1033,1346 L1036,1359 L1037,1371 L1035,1387 L1027,1405 L1025,1405 L1024,1409 L1022,1409 L1020,1413 L1011,1421 L1007,1422 L1007,1424 L997,1430 L983,1434 L974,1435 L848,1435 L848,1495 L844,1512 L839,1524 L834,1533 L832,1533 L830,1538 L823,1545 L818,1549 L808,1555 L792,1560 L737,1560 L737,1668 L735,1681 L731,1692 L722,1705 L712,1714 L702,1720 L686,1726 L680,1727 L664,1727 L648,1723 L637,1717 L632,1714 L632,1712 L628,1710 L623,1705 L616,1696 L610,1682 L607,1669 L607,1559 L521,1559 L518,1558 L519,1631 L520,1767 L520,1813 L518,1826 L516,1835 L509,1848 L500,1858 L490,1866 L472,1874 L460,1876 L452,1876 L434,1873 L421,1867 L421,1865 L417,1864 L409,1857 L402,1850 L396,1840 L392,1831 L390,1822 L389,1813 L387,1573 L387,1558 L317,1558 L296,1557 L295,1637 L294,1660 L291,1672 L287,1681 L280,1692 L272,1700 L270,1700 L270,1702 L267,1702 L267,1704 L255,1710 L245,1713 L234,1715 L216,1715 L204,1712 L194,1708 L190,1706 L190,1704 L186,1703 L179,1698 L179,1696 L175,1694 L169,1686 L162,1672 L159,1660 L158,1637 L157,1557 L117,1557 L66,1556 L65,1713 L64,1813 L62,1827 L59,1836 L53,1847 L46,1856 L42,1860 L40,1860 L40,1862 L35,1865 L32,1865 L32,1867 L19,1873 L-2,1876 L-19,1874 L-37,1866 L-51,1854 L-54,1850 L-54,1848 L-56,1848 L-63,1834 L-66,1822 L-67,1813 L-67,1768 L-66,1633 L-65,1556 L-88,1556 L-154,1555 L-154,1669 L-158,1685 L-165,1699 L-171,1707 L-179,1714 L-189,1720 L-199,1724 L-211,1727 L-227,1727 L-239,1724 L-251,1719 L-260,1713 L-268,1706 L-269,1702 L-271,1702 L-278,1691 L-282,1681 L-284,1668 L-284,1555 L-340,1555 L-347,1553 L-362,1548 L-376,1538 L-376,1536 L-380,1534 L-387,1524 L-389,1520 L-389,1517 L-391,1517 L-395,1503 L-396,1483 L-396,1435 L-521,1435 L-534,1433 L-545,1429 L-554,1424 L-554,1422 L-559,1420 L-565,1415 L-565,1413 L-567,1413 L-571,1407 L-571,1405 L-573,1405 L-581,1389 L-583,1381 L-584,1368 L-582,1354 L-577,1340 L-569,1328 L-565,1323 L-563,1323 L-563,1321 L-557,1317 L-555,1317 L-555,1315 L-540,1308 L-530,1305 L-523,1304 L-396,1304 L-397,1231 L-397,1206 L-404,1207 L-528,1208 L-653,1208 L-664,1206 L-678,1199 L-686,1193 L-696,1184 L-699,1180 L-699,1177 L-701,1177 L-706,1166 L-709,1156 L-710,1147 L-710,1138 L-707,1123 L-702,1111 L-691,1096 L-689,1096 L-689,1094 L-685,1093 L-685,1091 L-675,1085 L-672,1083 L-662,1080 L-648,1078 L-581,1077 L-457,1076 L-397,1076 L-397,982 L-528,982 L-540,980 L-550,976 L-556,972 L-569,962 L-576,954 L-583,942 L-587,929 L-588,915 L-587,903 L-583,891 L-576,879 L-568,870 L-567,868 L-564,868 L-563,865 L-552,858 L-539,853 L-519,851 L-398,851 L-398,762 L-439,763 L-576,764 L-647,764 L-663,760 L-675,754 L-682,749 L-682,747 L-684,747 L-684,745 L-686,745 L-686,743 L-689,742 L-689,739 L-692,738 L-697,730 L-703,716 L-705,699 L-704,687 L-702,679 L-697,667 L-691,657 L-689,657 L-687,653 L-684,650 L-682,650 L-681,647 L-677,646 L-677,644 L-656,635 L-638,633 L-495,632 L-399,632 L-399,529 L-507,529 L-525,525 L-536,519 L-536,517 L-540,516 L-543,514 L-543,512 L-545,512 L-545,510 L-549,508 L-549,506 L-551,506 L-558,495 L-564,480 L-566,464 L-565,452 L-558,431 L-555,426 L-553,426 L-552,422 L-550,422 L-550,420 L-548,420 L-546,416 L-544,416 L-544,414 L-534,407 L-524,402 L-510,399 L-400,399 L-401,355 L-403,343 L-402,327 L-400,319 L-396,309 L-389,298 L-383,292 L-381,292 L-379,288 L-371,282 L-361,277 L-347,274 L-335,273 L-288,273 L-286,274 L-285,201 L-284,178 L-279,161 L-273,151 L-271,151 L-269,146 L-264,141 L-254,133 L-246,128 L-234,124 L-228,123 L-209,123 L-197,126 L-183,133 L-172,142 L-163,153 L-160,160 L-156,170 L-154,179 L-154,232 L-155,274 L-91,274 L-56,275 L-56,57 L-52,41 L-48,33 L-43,25 L-41,25 L-39,21 L-34,16 L-25,9 L-11,3 Z M-270,404 L-270,592 L-269,725 L-266,1426 L-167,1427 L647,1431 L719,1431 L719,1188 L718,409 L605,408 L404,407 L18,405 L-193,404 Z " fill="#101010" transform="translate(785,80)"/>
<path d="M0,0 L57,0 L71,1 L346,6 L374,7 L390,11 L405,19 L405,21 L409,23 L414,27 L417,32 L417,34 L421,36 L427,49 L430,62 L431,78 L433,87 L434,808 L432,822 L429,832 L426,836 L423,843 L418,848 L414,853 L405,860 L395,866 L379,870 L367,871 L97,873 L78,874 L-29,874 L-47,873 L-314,871 L-331,868 L-343,863 L-354,856 L-361,848 L-367,841 L-374,826 L-376,817 L-377,801 L-376,87 L-374,78 L-373,62 L-370,49 L-363,35 L-360,34 L-358,29 L-354,24 L-350,21 L-348,21 L-348,19 L-333,11 L-316,7 L-233,5 L-14,1 Z M24,130 L-246,135 L-246,741 L-243,742 L-217,742 L-85,743 L160,743 L294,742 L301,742 L303,741 L303,135 L87,131 Z " fill="#101010" transform="translate(983,538)"/>
</svg>
