<?xml version="1.0" encoding="UTF-8"?>
<!-- Generator: visioncortex VTracer 0.6.12 -->
<svg version="1.1" xmlns="http://www.w3.org/2000/svg" width="2048" height="2048">
<path d="M0,0 L31,0 L75,2 L115,6 L155,12 L194,20 L226,28 L260,38 L290,48 L323,61 L351,73 L386,90 L408,102 L431,115 L450,127 L477,145 L495,158 L515,173 L528,184 L542,195 L557,209 L565,216 L574,224 L574,226 L578,228 L593,243 L593,245 L597,247 L604,255 L613,264 L622,275 L626,279 L626,281 L628,281 L637,292 L647,304 L654,313 L666,329 L678,346 L686,357 L699,377 L708,392 L714,401 L720,412 L734,438 L748,466 L763,500 L773,526 L786,563 L795,593 L803,625 L809,653 L815,686 L820,725 L823,761 L824,784 L824,832 L822,867 L817,913 L811,954 L804,990 L794,1030 L785,1060 L773,1094 L762,1122 L750,1149 L733,1184 L721,1206 L707,1230 L692,1254 L681,1270 L669,1287 L653,1308 L640,1324 L629,1337 L617,1351 L602,1367 L596,1374 L594,1374 L592,1378 L590,1378 L588,1382 L586,1382 L584,1386 L582,1386 L580,1390 L572,1397 L564,1405 L562,1405 L561,1408 L551,1416 L546,1421 L535,1430 L525,1439 L517,1445 L504,1455 L489,1466 L484,1468 L484,1470 L445,1496 L420,1511 L401,1522 L385,1530 L369,1538 L344,1550 L308,1565 L278,1576 L246,1586 L222,1593 L193,1600 L153,1608 L113,1614 L83,1617 L54,1619 L-22,1619 L-61,1616 L-109,1610 L-150,1603 L-189,1594 L-231,1582 L-263,1571 L-301,1556 L-328,1544 L-347,1535 L-366,1525 L-390,1512 L-405,1503 L-429,1488 L-448,1475 L-462,1465 L-474,1456 L-487,1446 L-504,1432 L-515,1423 L-526,1413 L-528,1412 L-528,1410 L-532,1408 L-541,1399 L-545,1396 L-545,1394 L-549,1392 L-568,1373 L-568,1371 L-572,1369 L-579,1361 L-584,1355 L-589,1350 L-590,1347 L-594,1345 L-603,1334 L-603,1332 L-606,1331 L-613,1322 L-622,1311 L-634,1295 L-645,1280 L-649,1274 L-649,1272 L-651,1272 L-669,1245 L-684,1220 L-696,1199 L-708,1176 L-716,1160 L-729,1132 L-742,1100 L-752,1072 L-761,1045 L-771,1009 L-780,969 L-787,928 L-791,897 L-794,863 L-795,844 L-795,782 L-792,735 L-788,700 L-782,663 L-773,620 L-763,582 L-754,553 L-741,517 L-728,486 L-717,462 L-707,441 L-697,423 L-691,412 L-681,394 L-667,372 L-653,351 L-641,334 L-632,322 L-620,306 L-609,293 L-598,280 L-590,270 L-588,270 L-586,266 L-579,258 L-574,253 L-546,225 L-544,225 L-542,221 L-534,214 L-519,200 L-508,191 L-495,180 L-485,172 L-469,160 L-454,149 L-421,127 L-405,117 L-390,108 L-380,102 L-368,96 L-349,86 L-318,71 L-282,56 L-252,45 L-225,36 L-198,28 L-161,19 L-126,12 L-94,7 L-58,3 L-30,1 Z M-13,128 L-45,130 L-80,134 L-116,140 L-152,148 L-178,155 L-215,167 L-251,181 L-284,196 L-301,205 L-313,211 L-337,225 L-357,237 L-377,251 L-393,262 L-403,270 L-409,274 L-414,279 L-420,283 L-420,285 L-424,287 L-435,296 L-442,302 L-447,307 L-456,316 L-464,323 L-475,334 L-475,336 L-478,337 L-485,345 L-500,361 L-509,372 L-523,389 L-535,405 L-547,422 L-559,440 L-571,459 L-584,482 L-595,502 L-608,530 L-619,556 L-627,576 L-641,619 L-650,653 L-658,691 L-663,721 L-666,751 L-667,767 L-668,793 L-668,822 L-666,864 L-662,901 L-657,933 L-650,966 L-643,993 L-632,1029 L-621,1059 L-610,1085 L-597,1113 L-582,1142 L-574,1156 L-562,1175 L-553,1190 L-546,1199 L-535,1215 L-521,1233 L-510,1247 L-500,1258 L-491,1269 L-488,1270 L-486,1274 L-477,1283 L-470,1291 L-462,1298 L-448,1312 L-440,1319 L-430,1328 L-419,1337 L-403,1350 L-384,1364 L-364,1378 L-345,1390 L-323,1403 L-301,1415 L-285,1423 L-262,1434 L-225,1449 L-187,1462 L-151,1472 L-115,1480 L-78,1486 L-41,1490 L-7,1492 L36,1492 L71,1490 L107,1486 L143,1480 L167,1475 L199,1467 L234,1456 L259,1447 L288,1435 L316,1422 L347,1406 L364,1396 L387,1382 L406,1369 L422,1357 L438,1345 L451,1334 L462,1325 L474,1314 L478,1311 L478,1309 L482,1307 L512,1277 L512,1275 L515,1274 L522,1266 L531,1256 L540,1245 L554,1228 L562,1217 L575,1199 L585,1184 L597,1165 L607,1148 L617,1130 L627,1111 L642,1078 L654,1048 L667,1010 L679,966 L686,933 L693,884 L696,849 L696,777 L693,738 L687,694 L679,655 L671,624 L660,589 L651,564 L638,533 L631,517 L623,501 L608,473 L598,456 L585,436 L577,424 L566,408 L558,397 L549,385 L547,385 L545,381 L541,375 L536,370 L533,366 L531,366 L529,362 L527,359 L525,359 L523,355 L514,345 L505,336 L499,329 L491,322 L476,307 L468,300 L454,288 L441,277 L425,265 L406,251 L385,237 L361,222 L336,208 L320,200 L304,192 L275,179 L246,168 L210,156 L177,147 L141,139 L106,133 L78,130 L45,128 Z " fill="#101010" transform="translate(1001,235)"/>
<path d="M0,0 L23,0 L47,3 L70,9 L91,18 L107,27 L121,37 L131,46 L142,57 L151,68 L161,81 L170,97 L178,115 L183,131 L187,152 L188,164 L188,189 L186,205 L181,226 L175,243 L167,260 L157,276 L146,290 L131,305 L120,314 L107,324 L89,334 L69,342 L50,347 L33,350 L19,351 L5,351 L-14,349 L-40,343 L-61,335 L-78,326 L-95,314 L-105,305 L-122,288 L-136,269 L-146,251 L-154,230 L-159,212 L-162,193 L-162,157 L-159,139 L-153,117 L-144,96 L-134,79 L-126,68 L-114,54 L-103,43 L-89,32 L-71,21 L-52,12 L-34,6 L-15,2 Z M5,128 L-8,132 L-19,139 L-27,148 L-32,158 L-35,170 L-35,182 L-31,195 L-24,207 L-13,216 L-2,221 L5,223 L20,223 L33,219 L43,213 L51,205 L57,195 L60,185 L61,171 L57,156 L51,146 L47,141 L36,133 L22,128 Z " fill="#101010" transform="translate(683,857)"/>
<path d="M0,0 L29,0 L45,2 L70,9 L87,15 L103,23 L114,30 L127,40 L140,52 L150,63 L160,77 L170,93 L176,106 L184,130 L188,151 L189,162 L189,186 L186,207 L178,234 L173,247 L164,264 L153,280 L144,290 L137,298 L128,306 L126,306 L126,308 L109,320 L93,329 L75,337 L58,342 L38,346 L25,347 L5,347 L-12,345 L-37,339 L-56,332 L-64,327 L-78,320 L-92,310 L-102,301 L-110,294 L-119,284 L-129,270 L-140,251 L-148,233 L-154,212 L-157,196 L-158,186 L-158,161 L-155,139 L-150,120 L-144,104 L-132,81 L-122,67 L-115,58 L-113,58 L-111,54 L-102,45 L-96,40 L-94,40 L-94,38 L-89,36 L-89,34 L-70,22 L-47,11 L-31,6 L-15,2 Z M13,127 L2,129 L-12,136 L-22,146 L-29,160 L-30,165 L-30,182 L-25,196 L-18,205 L-10,212 L-1,217 L7,219 L23,219 L36,215 L46,208 L54,199 L59,189 L61,182 L61,165 L58,155 L52,145 L43,136 L29,129 Z " fill="#101010" transform="translate(1326,861)"/>
<path d="M0,0 L27,0 L47,4 L62,10 L82,22 L91,29 L103,41 L114,57 L122,74 L127,91 L129,105 L129,126 L126,143 L120,161 L111,177 L102,190 L87,205 L77,212 L63,220 L47,226 L35,229 L28,230 L-1,230 L-20,226 L-35,220 L-51,211 L-56,207 L-65,200 L-73,192 L-83,179 L-91,165 L-97,149 L-101,131 L-102,114 L-100,92 L-94,72 L-86,56 L-79,46 L-70,35 L-63,28 L-51,19 L-37,11 L-25,6 L-6,1 Z " fill="#101010" transform="translate(1024,563)"/>
</svg>
