<?xml version="1.0" encoding="UTF-8"?>
<!-- Generator: visioncortex VTracer 0.6.12 -->
<svg version="1.1" xmlns="http://www.w3.org/2000/svg" width="2048" height="2048">
<path d="M0,0 L9,0 L16,1 L341,1 L352,3 L364,8 L364,10 L369,11 L372,13 L372,15 L377,17 L377,19 L380,20 L380,22 L382,22 L389,32 L395,46 L398,63 L398,109 L397,466 L397,518 L396,567 L540,565 L779,562 L798,562 L1112,566 L1172,567 L1171,506 L1171,429 L1170,72 L1170,63 L1172,49 L1177,36 L1183,26 L1186,22 L1188,22 L1189,19 L1191,19 L1191,17 L1196,15 L1196,13 L1201,10 L1204,10 L1204,8 L1219,2 L1227,1 L1553,1 L1566,0 L1579,2 L1592,7 L1606,14 L1620,22 L1638,35 L1638,37 L1642,39 L1654,50 L1654,52 L1658,54 L1658,56 L1660,56 L1671,70 L1682,87 L1690,103 L1697,122 L1703,153 L1704,160 L1704,195 L1703,358 L1698,1488 L1697,1693 L1694,1709 L1692,1736 L1688,1756 L1683,1772 L1676,1789 L1670,1800 L1658,1817 L1647,1829 L1637,1838 L1621,1849 L1602,1858 L1583,1863 L1561,1867 L1543,1867 L1529,1866 L32,1866 L25,1867 L7,1867 L-24,1861 L-39,1856 L-58,1846 L-71,1836 L-83,1825 L-91,1816 L-104,1797 L-113,1778 L-119,1760 L-123,1742 L-125,1727 L-126,1709 L-129,1693 L-132,1027 L-135,352 L-136,195 L-136,160 L-130,126 L-124,108 L-118,95 L-111,82 L-100,66 L-92,56 L-90,56 L-88,52 L-86,52 L-84,48 L-72,37 L-70,37 L-70,35 L-56,25 L-42,16 L-31,10 L-14,3 Z M20,128 L9,135 L2,143 L-4,152 L-8,162 L-9,175 L-8,195 L-8,240 L-3,1365 L-2,1586 L-1,1673 L2,1687 L2,1715 L5,1729 L8,1735 L11,1738 L1557,1738 L1561,1734 L1565,1722 L1566,1715 L1566,1687 L1569,1673 L1570,1586 L1575,452 L1576,233 L1576,192 L1577,168 L1575,160 L1570,148 L1562,138 L1553,131 L1548,128 L1298,128 L1298,277 L1299,636 L1298,646 L1295,656 L1293,660 L1283,674 L1278,679 L1267,687 L1261,690 L1251,693 L1238,695 L1212,695 L981,692 L824,690 L742,690 L587,692 L430,694 L347,695 L328,695 L312,692 L303,688 L292,681 L287,677 L275,660 L273,656 L269,640 L269,599 L270,240 L270,128 Z " fill="#101010" transform="translate(240,95)"/>
<path d="M0,0 L23,1 L973,1 L988,0 L1000,2 L1007,5 L1015,8 L1023,14 L1031,21 L1038,30 L1038,33 L1040,33 L1043,40 L1047,53 L1048,68 L1051,159 L1052,200 L1053,231 L1055,292 L1058,385 L1060,449 L1063,540 L1065,607 L1067,666 L1069,730 L1067,744 L1064,753 L1059,763 L1048,776 L1043,781 L1034,786 L1022,791 L1008,793 L993,795 L-7,795 L-23,793 L-34,791 L-44,787 L-55,781 L-60,776 L-69,766 L-75,756 L-78,747 L-80,740 L-81,725 L-78,632 L-75,538 L-73,473 L-71,414 L-68,319 L-65,228 L-64,189 L-63,158 L-60,62 L-58,49 L-55,39 L-52,33 L-50,33 L-49,29 L-42,20 L-35,14 L-27,8 L-14,3 L-5,1 Z M66,128 L65,148 L62,239 L58,365 L54,490 L52,556 L50,620 L49,653 L49,667 L52,668 L938,668 L939,667 L939,649 L937,581 L935,517 L932,423 L928,301 L924,173 L923,142 L922,128 L898,128 L814,129 L806,130 L182,130 L174,129 L90,128 Z " fill="#101010" transform="translate(530,1015)"/>
<path d="M0,0 L68,0 L81,2 L90,5 L104,12 L105,15 L110,17 L116,24 L123,34 L128,42 L132,54 L134,65 L134,447 L131,461 L127,474 L121,485 L114,493 L106,501 L98,505 L93,508 L84,511 L71,513 L41,513 L-51,512 L-68,509 L-75,507 L-75,505 L-80,504 L-90,497 L-95,493 L-107,477 L-113,459 L-113,335 L-112,94 L-111,61 L-106,43 L-98,29 L-93,22 L-91,22 L-90,19 L-83,13 L-69,5 L-60,2 L-53,1 Z " fill="#101010" transform="translate(1243,121)"/>
</svg>
