<?xml version="1.0" encoding="UTF-8"?>
<!-- Generator: visioncortex VTracer 0.6.12 -->
<svg version="1.1" xmlns="http://www.w3.org/2000/svg" width="2048" height="2048">
<path d="M0,0 L16,2 L27,6 L40,13 L40,15 L44,17 L52,26 L52,28 L55,29 L62,45 L64,52 L65,69 L62,83 L58,94 L55,99 L53,99 L51,104 L49,107 L47,107 L46,110 L38,116 L26,123 L16,137 L8,152 L3,166 L1,184 L3,199 L7,212 L13,223 L21,228 L33,230 L45,230 L63,227 L83,221 L111,210 L134,200 L163,187 L195,174 L224,165 L252,159 L274,156 L289,155 L325,155 L351,158 L376,163 L402,171 L427,182 L446,193 L463,205 L467,208 L467,210 L471,212 L484,224 L493,235 L502,247 L511,263 L519,284 L523,301 L525,318 L525,333 L523,350 L519,367 L513,384 L505,401 L495,417 L486,428 L474,442 L461,454 L446,465 L422,479 L407,487 L381,497 L351,506 L299,519 L279,527 L274,531 L273,533 L273,551 L276,568 L281,587 L282,590 L410,590 L421,579 L429,572 L442,560 L453,551 L466,540 L480,529 L498,515 L512,505 L539,487 L565,472 L587,461 L611,451 L635,443 L665,436 L692,431 L712,429 L754,429 L785,432 L813,437 L838,444 L860,452 L887,465 L901,473 L911,480 L918,484 L918,486 L921,486 L921,488 L926,490 L937,498 L937,500 L941,502 L953,513 L971,531 L982,545 L994,562 L1005,580 L1017,603 L1027,627 L1036,656 L1044,690 L1052,730 L1059,774 L1068,847 L1079,953 L1087,1031 L1097,1117 L1110,1223 L1120,1295 L1135,1399 L1141,1448 L1144,1484 L1145,1508 L1145,1543 L1143,1580 L1140,1609 L1134,1644 L1127,1672 L1118,1699 L1110,1718 L1101,1734 L1095,1745 L1083,1763 L1071,1779 L1069,1779 L1067,1783 L1053,1798 L1050,1799 L1050,1801 L1048,1801 L1048,1803 L1037,1812 L1023,1823 L1005,1835 L991,1843 L969,1853 L942,1862 L920,1867 L891,1870 L867,1870 L840,1867 L816,1862 L789,1854 L760,1842 L731,1827 L712,1815 L702,1808 L688,1798 L677,1789 L675,1788 L675,1786 L671,1784 L661,1775 L648,1763 L646,1759 L643,1758 L636,1750 L627,1740 L614,1723 L604,1709 L593,1692 L578,1665 L567,1641 L558,1617 L549,1588 L543,1564 L538,1533 L536,1515 L534,1477 L519,1482 L498,1486 L487,1487 L462,1487 L441,1484 L418,1478 L399,1470 L379,1459 L365,1449 L355,1441 L342,1429 L335,1421 L325,1408 L315,1393 L307,1377 L301,1363 L295,1343 L295,1339 L145,1339 L144,1347 L136,1371 L128,1388 L117,1405 L108,1417 L99,1427 L92,1435 L82,1444 L64,1457 L47,1467 L30,1475 L12,1481 L-13,1486 L-22,1487 L-47,1487 L-65,1485 L-86,1480 L-94,1477 L-96,1515 L-100,1547 L-105,1573 L-115,1608 L-123,1631 L-133,1654 L-141,1670 L-150,1687 L-160,1703 L-171,1719 L-181,1732 L-190,1743 L-202,1756 L-204,1759 L-206,1759 L-208,1763 L-216,1771 L-224,1778 L-233,1786 L-235,1786 L-235,1788 L-248,1798 L-263,1809 L-280,1820 L-295,1829 L-322,1843 L-349,1854 L-376,1862 L-400,1867 L-427,1870 L-451,1870 L-480,1867 L-506,1861 L-534,1851 L-551,1843 L-570,1832 L-587,1820 L-603,1807 L-608,1803 L-608,1801 L-610,1801 L-610,1799 L-614,1797 L-622,1789 L-629,1781 L-629,1779 L-631,1779 L-640,1767 L-650,1753 L-660,1737 L-665,1727 L-673,1711 L-681,1691 L-688,1668 L-694,1644 L-700,1608 L-703,1580 L-705,1540 L-705,1506 L-703,1470 L-699,1431 L-692,1378 L-673,1246 L-659,1134 L-647,1031 L-639,953 L-628,847 L-619,774 L-611,725 L-603,685 L-594,649 L-584,619 L-573,595 L-563,576 L-550,556 L-538,540 L-527,527 L-505,505 L-499,500 L-497,500 L-497,498 L-483,488 L-481,488 L-481,486 L-478,486 L-477,483 L-465,476 L-453,468 L-437,460 L-420,452 L-395,443 L-373,437 L-345,432 L-314,429 L-272,429 L-246,432 L-211,439 L-185,446 L-161,455 L-137,466 L-114,478 L-94,490 L-72,505 L-53,519 L-39,530 L-23,543 L-12,552 L2,564 L15,576 L27,587 L30,590 L150,591 L147,578 L145,563 L144,549 L144,530 L147,508 L152,490 L157,477 L165,463 L174,451 L183,441 L191,433 L205,423 L221,413 L242,403 L269,394 L296,387 L328,379 L352,371 L368,363 L379,355 L387,347 L394,336 L396,330 L396,321 L391,313 L380,303 L363,294 L346,288 L332,285 L324,284 L288,284 L267,287 L244,293 L216,304 L189,316 L155,331 L121,344 L94,352 L73,356 L58,358 L20,358 L0,355 L-19,350 L-34,344 L-48,337 L-60,329 L-63,327 L-63,325 L-67,323 L-75,316 L-85,306 L-95,292 L-107,271 L-114,256 L-121,234 L-125,214 L-127,198 L-127,166 L-124,145 L-119,126 L-113,108 L-104,88 L-92,67 L-82,53 L-69,37 L-57,25 L-47,18 L-36,11 L-21,4 L-11,1 Z M-295,556 L-325,558 L-347,562 L-363,567 L-376,572 L-393,581 L-407,590 L-417,598 L-430,610 L-439,620 L-450,636 L-460,654 L-468,673 L-475,695 L-482,725 L-489,764 L-495,806 L-503,875 L-520,1041 L-530,1126 L-543,1231 L-553,1304 L-569,1415 L-574,1458 L-577,1500 L-577,1552 L-574,1587 L-570,1613 L-563,1641 L-555,1662 L-546,1679 L-536,1693 L-527,1703 L-517,1713 L-502,1724 L-485,1733 L-465,1740 L-452,1742 L-427,1742 L-410,1739 L-390,1733 L-373,1726 L-354,1716 L-339,1707 L-330,1700 L-316,1689 L-301,1675 L-291,1665 L-282,1654 L-272,1641 L-261,1624 L-247,1597 L-238,1574 L-230,1549 L-226,1531 L-223,1502 L-223,1458 L-227,1405 L-230,1366 L-231,1330 L-230,1304 L-226,1279 L-220,1253 L-213,1234 L-204,1217 L-195,1203 L-187,1193 L-174,1179 L-166,1172 L-154,1163 L-136,1151 L-120,1143 L-103,1136 L-83,1130 L-60,1126 L-47,1125 L-20,1125 L1,1128 L28,1134 L45,1140 L61,1148 L75,1156 L88,1166 L98,1175 L101,1176 L103,1180 L110,1187 L116,1196 L118,1196 L119,1200 L126,1210 L208,1211 L238,1211 L314,1210 L322,1199 L322,1196 L324,1196 L332,1185 L339,1178 L339,1176 L343,1174 L354,1164 L370,1153 L386,1144 L403,1137 L416,1133 L444,1127 L460,1125 L489,1125 L513,1128 L534,1133 L551,1139 L567,1146 L581,1154 L601,1168 L611,1177 L621,1186 L630,1196 L639,1209 L648,1224 L656,1241 L662,1261 L668,1289 L670,1304 L671,1331 L670,1366 L666,1416 L663,1460 L663,1502 L666,1531 L670,1549 L682,1585 L691,1605 L702,1626 L715,1645 L728,1661 L739,1673 L750,1684 L761,1693 L772,1702 L787,1712 L801,1720 L822,1730 L846,1738 L859,1741 L867,1742 L892,1742 L905,1740 L925,1733 L942,1724 L954,1715 L964,1706 L974,1696 L984,1682 L992,1668 L1000,1650 L1007,1626 L1012,1601 L1015,1578 L1017,1552 L1017,1500 L1014,1458 L1008,1408 L989,1276 L978,1192 L964,1076 L955,993 L942,866 L933,790 L925,740 L917,703 L911,682 L904,663 L896,646 L888,633 L878,619 L864,604 L854,595 L838,584 L828,578 L811,570 L791,563 L772,559 L755,557 L734,556 L713,557 L688,561 L666,567 L645,575 L628,583 L610,593 L586,609 L567,623 L551,636 L537,647 L527,655 L527,657 L523,659 L517,664 L517,666 L513,668 L512,698 L509,725 L503,754 L494,780 L484,801 L472,821 L462,834 L450,848 L438,859 L429,867 L412,879 L399,887 L384,895 L359,905 L334,912 L313,916 L303,917 L158,917 L127,916 L98,910 L76,903 L54,894 L32,882 L14,869 L3,860 L-6,851 L-13,845 L-22,834 L-32,821 L-42,805 L-53,782 L-60,763 L-65,746 L-70,719 L-72,698 L-73,668 L-77,666 L-77,664 L-85,657 L-87,657 L-87,655 L-98,646 L-114,633 L-127,623 L-143,611 L-164,597 L-179,588 L-196,579 L-220,569 L-240,563 L-265,558 L-273,557 Z M59,718 L63,731 L71,747 L79,757 L88,767 L102,776 L117,783 L133,788 L155,792 L178,793 L269,793 L292,791 L315,786 L330,780 L345,772 L355,764 L364,754 L371,743 L377,731 L381,718 Z M-47,1252 L-53,1254 L-66,1270 L-73,1282 L-75,1288 L-76,1306 L-74,1323 L-69,1339 L-67,1344 L-65,1344 L-63,1348 L-55,1355 L-45,1359 L-26,1359 L-14,1355 L-4,1349 L6,1340 L14,1330 L20,1317 L22,1311 L23,1297 L20,1282 L14,1270 L7,1263 L-9,1255 L-23,1252 Z M463,1252 L446,1256 L433,1263 L426,1270 L420,1282 L417,1298 L418,1311 L423,1324 L429,1334 L438,1344 L447,1351 L459,1357 L466,1359 L485,1359 L495,1355 L505,1346 L505,1344 L507,1344 L512,1331 L515,1318 L516,1298 L514,1285 L508,1273 L497,1259 L492,1253 L487,1252 Z " fill="#101010" transform="translate(804,65)"/>
<path d="M0,0 L11,0 L18,1 L24,3 L34,7 L45,14 L52,22 L59,31 L62,38 L62,41 L64,41 L67,53 L67,120 L122,120 L134,122 L146,127 L161,137 L165,142 L165,144 L168,145 L177,161 L180,174 L181,189 L178,204 L173,214 L169,221 L167,221 L165,226 L160,231 L156,233 L156,235 L142,243 L130,247 L120,248 L69,249 L69,298 L67,314 L62,326 L53,338 L48,343 L46,343 L45,346 L31,354 L15,358 L-7,358 L-22,353 L-29,349 L-29,347 L-33,346 L-36,344 L-36,342 L-40,340 L-46,333 L-51,326 L-56,311 L-58,305 L-58,248 L-81,249 L-117,249 L-134,246 L-143,242 L-151,238 L-161,229 L-161,227 L-164,226 L-168,220 L-168,218 L-170,218 L-176,204 L-179,187 L-178,174 L-176,167 L-173,158 L-161,140 L-154,134 L-143,127 L-133,123 L-123,121 L-59,121 L-60,105 L-60,60 L-59,50 L-55,38 L-50,28 L-48,27 L-45,22 L-43,22 L-41,18 L-38,15 L-36,15 L-36,13 L-20,4 L-8,1 Z " fill="#101010" transform="translate(556,819)"/>
<path d="M0,0 L15,0 L27,3 L42,9 L42,11 L46,12 L49,14 L49,16 L53,18 L60,26 L65,34 L70,47 L72,56 L72,73 L70,82 L64,98 L62,98 L60,103 L54,111 L52,111 L52,113 L48,116 L46,116 L46,118 L35,124 L23,128 L14,129 L1,129 L-8,127 L-22,122 L-33,115 L-33,113 L-35,113 L-35,111 L-37,111 L-37,109 L-39,109 L-39,107 L-41,107 L-48,96 L-53,84 L-55,75 L-56,63 L-54,50 L-52,41 L-46,29 L-44,29 L-43,25 L-41,25 L-39,21 L-31,13 L-27,12 L-27,10 L-17,5 L-9,2 Z " fill="#101010" transform="translate(1644,936)"/>
<path d="M0,0 L16,0 L25,2 L36,7 L53,19 L57,25 L59,26 L66,40 L69,49 L70,54 L70,74 L68,83 L63,94 L53,108 L44,116 L34,122 L22,126 L15,127 L-5,127 L-16,124 L-30,116 L-40,108 L-44,102 L-48,98 L-54,85 L-57,71 L-57,55 L-54,42 L-50,34 L-44,24 L-39,19 L-35,17 L-33,13 L-19,5 L-10,2 Z " fill="#101010" transform="translate(1514,1070)"/>
<path d="M0,0 L19,0 L35,4 L40,6 L40,8 L44,9 L54,16 L58,20 L58,22 L61,23 L67,32 L72,45 L74,55 L75,65 L73,78 L70,88 L64,99 L57,108 L44,118 L34,123 L29,125 L18,127 L1,127 L-8,125 L-8,123 L-16,122 L-16,120 L-20,120 L-20,118 L-24,117 L-26,116 L-26,114 L-30,113 L-32,109 L-35,109 L-43,98 L-49,87 L-52,76 L-53,68 L-53,58 L-49,39 L-41,25 L-37,20 L-29,13 L-19,6 L-4,1 Z " fill="#101010" transform="translate(1515,811)"/>
<path d="M0,0 L10,0 L24,1 L38,6 L45,10 L45,12 L50,14 L56,19 L64,30 L70,42 L73,54 L73,69 L70,85 L62,101 L59,104 L53,111 L47,115 L45,115 L44,118 L33,123 L20,127 L5,127 L-9,125 L-19,121 L-30,114 L-36,109 L-46,96 L-51,84 L-53,75 L-54,72 L-54,56 L-53,48 L-50,39 L-45,29 L-43,29 L-41,24 L-31,14 L-21,7 L-6,1 Z " fill="#101010" transform="translate(1392,943)"/>
</svg>
