<?xml version="1.0" encoding="UTF-8"?>
<svg version="1.1" xmlns="http://www.w3.org/2000/svg" width="2048" height="2048" viewBox="0 0 2048 2048">
<path d="M0 0 C1.08891541 -0.00067474 2.17783081 -0.00134949 3.29974365 -0.00204468 C21.6396267 0.01594648 39.55999361 0.79698082 57.75 3.25 C59.64443848 3.49943359 59.64443848 3.49943359 61.57714844 3.75390625 C130.6390673 13.13118465 192.78383317 41.2689548 246.75 85.25 C247.43723145 85.80719727 248.12446289 86.36439453 248.83251953 86.93847656 C256.49542983 93.15917652 264.11546982 99.40308848 271.37890625 106.08984375 C273.36109551 107.89569327 275.37362674 109.64647016 277.40625 111.39453125 C282.36780697 115.72788224 287.03280366 120.34133771 291.6875 125 C293.01527466 126.32789551 293.01527466 126.32789551 294.36987305 127.68261719 C300.24933056 133.61376822 305.63275393 139.65083652 310.75 146.25 C311.88591808 147.55039491 313.03155425 148.84237526 314.1875 150.125 C319.01221869 155.59449676 323.37902833 161.41759404 327.75 167.25 C328.92369141 168.80460937 328.92369141 168.80460937 330.12109375 170.390625 C338.11655113 181.1701264 344.95023195 192.69315204 351.75 204.25 C352.25208984 205.09868652 352.75417969 205.94737305 353.27148438 206.82177734 C364.96939728 226.75849998 373.72771452 248.25409267 380.75 270.25 C381.04358398 271.16394531 381.33716797 272.07789063 381.63964844 273.01953125 C390.7642039 301.8052153 396.03212963 332.03266579 396.75 362.25 C396.79084717 363.80605957 396.79084717 363.80605957 396.83251953 365.39355469 C398.58601918 443.1430675 379.67397416 528.13360066 341.95019531 596.08496094 C340.75056803 598.24897533 339.57276681 600.42373316 338.3984375 602.6015625 C321.28638518 634.13356771 301.12546551 664.32930135 279.03857422 692.59814453 C277.71947684 694.2891284 276.40828932 695.98604379 275.09765625 697.68359375 C269.49853233 704.90641312 263.69743124 711.91578686 257.7109375 718.8203125 C255.79826567 721.02666719 253.90691227 723.24776612 252.0390625 725.4921875 C246.45438653 732.19789 240.65978903 738.64911955 234.67382812 745 C231.67755606 748.17917436 228.72201802 751.37247901 225.875 754.6875 C223.05682057 757.96593486 220.0469993 760.99772482 216.9375 764 C215.06836073 765.92254325 213.32775863 767.88520326 211.58203125 769.91796875 C207.42909624 774.70043862 202.95079879 779.12276762 198.4375 783.5625 C196.83492403 785.13957754 195.23455913 786.71890596 193.63671875 788.30078125 C192.58810669 789.33199097 192.58810669 789.33199097 191.51831055 790.3840332 C189.57431474 792.32967993 189.57431474 792.32967993 187.75 795.25 C187.09 795.25 186.43 795.25 185.75 795.25 C185.34361534 796.14394392 185.34361534 796.14394392 184.92902088 797.0559473 C183.76375996 799.22439395 182.62029975 800.62650611 180.88566589 802.35484314 C180.30115158 802.94210678 179.71663727 803.52937042 179.1144104 804.13442993 C178.47490448 804.7667453 177.83539856 805.39906067 177.17651367 806.05053711 C176.50150314 806.72583969 175.82649261 807.40114227 175.13102722 808.09690857 C172.89804894 810.32849353 170.65806637 812.55290725 168.41796875 814.77734375 C166.86295169 816.32862866 165.3083771 817.88035723 163.75422668 819.43251038 C159.65880826 823.52029147 155.55742456 827.60203631 151.45477295 831.68255615 C147.29113908 835.82579737 143.13309398 839.97463859 138.97460938 844.12304688 C132.25090296 850.82917126 125.52377156 857.53183673 118.79217529 864.2300415 C117.63260307 865.38396165 116.47344076 866.53829394 115.31477928 867.69312859 C113.8668295 869.13376091 112.41336544 870.56884522 110.95942688 872.00343323 C108.64796342 874.27922123 108.64796342 874.27922123 106.4375 877.125 C104.42683381 879.59723422 102.24020227 881.62441461 99.8125 883.6875 C97.21017225 885.90069463 94.91734672 888.11020713 92.75 890.75 C90.02534739 894.0669684 86.95392478 896.72848806 83.6875 899.5 C81.85650686 901.15380025 80.31392014 902.84609722 78.75 904.75 C76.81227578 907.10577849 74.84038679 909.09305886 72.4921875 911.03515625 C68.36548411 914.59809719 64.52952141 918.40659678 60.6953125 922.27734375 C60.0634906 922.91471466 59.4316687 923.55208557 58.78070068 924.20877075 C56.13368367 926.88341018 53.49052638 929.56179902 50.8515625 932.24438477 C48.90794923 934.2180125 46.9583145 936.18552729 45.0078125 938.15234375 C44.40889191 938.76472397 43.80997131 939.37710419 43.19290161 940.00804138 C41.74944092 941.46029552 40.25422372 942.86078013 38.75 944.25 C38.09 944.25 37.43 944.25 36.75 944.25 C36.42 945.24 36.09 946.23 35.75 947.25 C34.30883789 948.66772461 34.30883789 948.66772461 32.41015625 950.21484375 C28.84009737 953.24386407 25.47900647 956.43131087 22.18359375 959.75390625 C21.69670074 960.24410248 21.20980774 960.73429871 20.7081604 961.23934937 C19.19928169 962.76177802 17.69295753 964.28668862 16.1875 965.8125 C4.72892828 977.42544542 4.72892828 977.42544542 -0.79589844 982.01879883 C-3.08881483 983.96023224 -5.15314381 986.09986047 -7.25 988.25 C-10.18280047 991.21300514 -13.12306732 994.16857638 -16.0625 997.125 C-16.83142578 997.90230469 -17.60035156 998.67960937 -18.39257812 999.48046875 C-22.6337233 1003.73950905 -26.95724235 1007.81394986 -31.51538086 1011.73144531 C-34.37815687 1014.23763346 -36.96414068 1016.99372936 -39.5859375 1019.74609375 C-41.25 1021.25 -41.25 1021.25 -43.25 1021.25 C-43.25 1021.91 -43.25 1022.57 -43.25 1023.25 C-44.578125 1024.58984375 -44.578125 1024.58984375 -46.5 1026.1875 C-49.58025901 1028.80055923 -52.58972371 1031.46681366 -55.5480957 1034.2175293 C-71.98700077 1049.49566692 -71.98700077 1049.49566692 -77.25 1051.25 C-77.58 1052.24 -77.91 1053.23 -78.25 1054.25 C-79.98226275 1055.85812665 -81.7845009 1057.39197316 -83.625 1058.875 C-84.60210938 1059.67164063 -85.57921875 1060.46828125 -86.5859375 1061.2890625 C-89.25 1063.25 -89.25 1063.25 -92.25 1064.25 C-92.25 1064.91 -92.25 1065.57 -92.25 1066.25 C-93.83203125 1067.66015625 -93.83203125 1067.66015625 -96.0625 1069.3125 C-99.60001825 1071.97941407 -103.03991431 1074.71941642 -106.4375 1077.5625 C-116.92508724 1086.16844781 -128.21573426 1093.70214684 -139.55273438 1101.13330078 C-141.06759705 1102.12998977 -142.57350515 1103.1402583 -144.078125 1104.15234375 C-151.78140005 1109.2378891 -159.90334506 1113.34766782 -168.25 1117.25 C-169.00474609 1117.60320312 -169.75949219 1117.95640625 -170.53710938 1118.3203125 C-201.12515707 1132.4339677 -233.45359827 1140.75841988 -266.56542969 1146.4777832 C-272.44217671 1147.53160788 -277.82175087 1149.03778188 -283.39428711 1151.17700195 C-286.45886022 1152.32847659 -289.54779562 1153.33756807 -292.66796875 1154.328125 C-305.45150546 1158.41410583 -317.53783117 1162.67911917 -329.25 1169.25 C-330.44336222 1169.89313129 -331.63737562 1170.53505574 -332.83203125 1171.17578125 C-342.06965485 1176.20999482 -350.4664904 1182.21610155 -358.89892578 1188.47363281 C-360.43081771 1189.60985202 -361.96534448 1190.74251627 -363.5 1191.875 C-364.37140625 1192.52726562 -365.2428125 1193.17953125 -366.140625 1193.8515625 C-368.25 1195.25 -368.25 1195.25 -370.25 1195.25 C-370.58 1196.24 -370.91 1197.23 -371.25 1198.25 C-372.96484375 1199.7578125 -372.96484375 1199.7578125 -375.1875 1201.375 C-379.62525763 1204.71388431 -383.72974611 1208.30711738 -387.83203125 1212.046875 C-392.27589245 1216.09588585 -396.78702648 1220.06468836 -401.4375 1223.875 C-404.25512738 1226.18684569 -404.25512738 1226.18684569 -406.6875 1228.6875 C-408.65972892 1230.65972892 -410.62504188 1232.45548893 -412.75 1234.25 C-416.73190479 1237.61996704 -420.33467674 1241.29210357 -423.9375 1245.0625 C-426.25 1247.25 -426.25 1247.25 -428.25 1247.25 C-428.4975 1247.83265625 -428.745 1248.4153125 -429 1249.015625 C-430.43525446 1251.58114236 -432.02663013 1253.08724798 -434.25 1255 C-434.95125 1255.61359375 -435.6525 1256.2271875 -436.375 1256.859375 C-438.25 1258.25 -438.25 1258.25 -440.25 1258.25 C-440.62705078 1259.13365234 -440.62705078 1259.13365234 -441.01171875 1260.03515625 C-442.40455401 1262.52644202 -443.8708572 1263.87300414 -446.0625 1265.6875 C-448.53434448 1267.76905325 -450.89711528 1269.84655844 -453.125 1272.1875 C-455.25 1274.25 -455.25 1274.25 -457.25 1274.25 C-457.58 1275.24 -457.91 1276.23 -458.25 1277.25 C-459.921875 1278.8984375 -459.921875 1278.8984375 -462 1280.625 C-464.49116346 1282.72775626 -466.87768528 1284.825801 -469.125 1287.1875 C-471.25 1289.25 -471.25 1289.25 -473.25 1289.25 C-473.62705078 1290.13365234 -473.62705078 1290.13365234 -474.01171875 1291.03515625 C-475.40455401 1293.52644202 -476.8708572 1294.87300414 -479.0625 1296.6875 C-481.53434448 1298.76905325 -483.89711528 1300.84655844 -486.125 1303.1875 C-488.25 1305.25 -488.25 1305.25 -490.25 1305.25 C-490.58 1306.24 -490.91 1307.23 -491.25 1308.25 C-492.921875 1309.8984375 -492.921875 1309.8984375 -495 1311.625 C-497.49116346 1313.72775626 -499.87768528 1315.825801 -502.125 1318.1875 C-504.25 1320.25 -504.25 1320.25 -506.25 1320.25 C-506.518125 1320.889375 -506.78625 1321.52875 -507.0625 1322.1875 C-508.25 1324.25 -508.25 1324.25 -511.25 1325.25 C-511.58 1325.91 -511.91 1326.57 -512.25 1327.25 C-512.58 1327.91 -512.91 1328.57 -513.25 1329.25 C-514.24 1329.58 -515.23 1329.91 -516.25 1330.25 C-517.31675858 1332.12794875 -517.31675858 1332.12794875 -518.25 1334.25 C-522.20101143 1339.64803791 -527.09711068 1344.0303111 -532.25 1348.25 C-532.78109375 1348.70375 -533.3121875 1349.1575 -533.859375 1349.625 C-539.30829352 1353.94097506 -545.71741855 1356.07495578 -552.25 1358.25 C-553.71373047 1358.75273437 -553.71373047 1358.75273437 -555.20703125 1359.265625 C-570.98842435 1363.81596115 -588.24124411 1361.25350236 -603.25 1355.25 C-604.44109375 1354.7859375 -604.44109375 1354.7859375 -605.65625 1354.3125 C-617.76942719 1348.92886569 -627.26481934 1337.53125307 -636.4453125 1328.3203125 C-637.88804467 1326.87892975 -639.33107343 1325.43784382 -640.77438354 1323.99703979 C-643.77797593 1320.99637808 -646.77796524 1317.99217326 -649.77539062 1314.98535156 C-653.62444839 1311.12481783 -657.48252763 1307.27344359 -661.34327888 1303.42460823 C-664.31502092 1300.46007042 -667.28201153 1297.49081432 -670.24755478 1294.52007675 C-671.66951451 1293.09678078 -673.09296712 1291.67497471 -674.51791763 1290.254673 C-676.4974432 1288.28019785 -678.47049336 1286.29947685 -680.44189453 1284.31689453 C-681.03398209 1283.72885544 -681.62606964 1283.14081635 -682.23609924 1282.53495789 C-686.25 1278.47854383 -686.25 1278.47854383 -686.25 1276.25 C-686.91 1276.25 -687.57 1276.25 -688.25 1276.25 C-688.25 1275.59 -688.25 1274.93 -688.25 1274.25 C-688.91 1274.25 -689.57 1274.25 -690.25 1274.25 C-691.47668457 1273.0020752 -691.47668457 1273.0020752 -692.98632812 1271.14257812 C-698.1365732 1265.09301033 -703.81187299 1259.57736448 -709.4434967 1253.9813385 C-711.50671313 1251.93102427 -713.56666812 1249.87748134 -715.62585449 1247.82312012 C-719.99775359 1243.46258257 -724.37357646 1239.10599599 -728.75 1234.75 C-733.82617701 1229.69751674 -738.90068129 1224.64337658 -743.97096252 1219.5849762 C-745.98895718 1217.57340813 -748.00996659 1215.56490405 -750.03112793 1213.55651855 C-760.1805609 1203.44715205 -760.1805609 1203.44715205 -763.73461914 1199.26318359 C-768.68386657 1193.44334518 -774.23617648 1188.1722792 -779.65745354 1182.79794693 C-781.74850582 1180.72443276 -783.83586731 1178.64726687 -785.92225647 1176.56906128 C-791.84892831 1170.66673149 -797.78138366 1164.77023887 -803.71801758 1158.87792969 C-807.3612482 1155.26139625 -810.99966195 1151.64007534 -814.63510323 1148.01571274 C-816.02037651 1146.63666083 -817.40754596 1145.25951099 -818.79661369 1143.88428116 C-820.72822396 1141.97177002 -822.65370366 1140.05328584 -824.57788086 1138.13330078 C-825.15598007 1137.56396317 -825.73407928 1136.99462555 -826.32969666 1136.40803528 C-830.25 1132.47789929 -830.25 1132.47789929 -830.25 1130.25 C-830.91 1130.25 -831.57 1130.25 -832.25 1130.25 C-832.25 1129.59 -832.25 1128.93 -832.25 1128.25 C-832.91 1128.25 -833.57 1128.25 -834.25 1128.25 C-835.49879456 1126.97872925 -835.49879456 1126.97872925 -837.02563477 1125.10107422 C-841.99928336 1119.25831499 -847.46997226 1113.93497548 -852.91666985 1108.53873062 C-854.87331147 1106.59964507 -856.82624566 1104.65689394 -858.7782135 1102.71310425 C-864.32255519 1097.19309009 -869.87269889 1091.67893553 -875.42700195 1086.16894531 C-878.83681422 1082.78583133 -882.24180749 1079.39792975 -885.64383125 1076.00698471 C-886.93978957 1074.71724661 -888.23764372 1073.42941066 -889.53739738 1072.14349747 C-891.34447795 1070.35551807 -893.14542055 1068.56156914 -894.94506836 1066.76611328 C-895.48576462 1066.23417862 -896.02646088 1065.70224396 -896.58354187 1065.15419006 C-900.25 1061.47789954 -900.25 1061.47789954 -900.25 1059.25 C-900.91 1059.25 -901.57 1059.25 -902.25 1059.25 C-902.25 1058.59 -902.25 1057.93 -902.25 1057.25 C-902.91 1057.25 -903.57 1057.25 -904.25 1057.25 C-905.49879456 1055.97872925 -905.49879456 1055.97872925 -907.02563477 1054.10107422 C-911.99928336 1048.25831499 -917.46997226 1042.93497548 -922.91666985 1037.53873062 C-924.87331147 1035.59964507 -926.82624566 1033.65689394 -928.7782135 1031.71310425 C-934.32255519 1026.19309009 -939.87269889 1020.67893553 -945.42700195 1015.16894531 C-948.83681422 1011.78583133 -952.24180749 1008.39792975 -955.64383125 1005.00698471 C-956.93978957 1003.71724661 -958.23764372 1002.42941066 -959.53739738 1001.14349747 C-961.34447795 999.35551807 -963.14542055 997.56156914 -964.94506836 995.76611328 C-965.48576462 995.23417862 -966.02646088 994.70224396 -966.58354187 994.15419006 C-970.25 990.47789954 -970.25 990.47789954 -970.25 988.25 C-970.85130234 987.98639679 -971.45260468 987.72279358 -972.0721283 987.45120239 C-974.37669987 986.18011885 -975.45944141 985.06801428 -977.09594727 983.03076172 C-982.25898993 976.93923107 -987.99100376 971.41532887 -993.65745354 965.79794693 C-995.74850582 963.72443276 -997.83586731 961.64726687 -999.92225647 959.56906128 C-1005.84892831 953.66673149 -1011.78138366 947.77023887 -1017.71801758 941.87792969 C-1021.3612482 938.26139625 -1024.99966195 934.64007534 -1028.63510323 931.01571274 C-1030.02037651 929.63666083 -1031.40754596 928.25951099 -1032.79661369 926.88428116 C-1034.72822396 924.97177002 -1036.65370366 923.05328584 -1038.57788086 921.13330078 C-1039.15598007 920.56396317 -1039.73407928 919.99462555 -1040.32969666 919.40803528 C-1044.25 915.47789929 -1044.25 915.47789929 -1044.25 913.25 C-1044.91 913.25 -1045.57 913.25 -1046.25 913.25 C-1046.25 912.59 -1046.25 911.93 -1046.25 911.25 C-1046.91 911.25 -1047.57 911.25 -1048.25 911.25 C-1049.484375 909.9921875 -1049.484375 909.9921875 -1051 908.125 C-1055.1927512 903.14722304 -1059.83291808 898.66309601 -1064.53808594 894.17529297 C-1065.13137695 893.59666504 -1065.72466797 893.01803711 -1066.3359375 892.421875 C-1067.1410376 891.6498877 -1067.1410376 891.6498877 -1067.96240234 890.86230469 C-1069.43496583 889.01838939 -1069.84360596 887.55352384 -1070.25 885.25 C-1070.91 885.25 -1071.57 885.25 -1072.25 885.25 C-1072.58 883.6 -1072.91 881.95 -1073.25 880.25 C-1073.91 880.25 -1074.57 880.25 -1075.25 880.25 C-1076.23750659 877.56531083 -1077.21512355 874.87766735 -1078.1875 872.1875 C-1078.46529297 871.43533203 -1078.74308594 870.68316406 -1079.02929688 869.90820312 C-1084.7316971 854.03766757 -1083.55720353 836.67146102 -1076.9765625 821.26953125 C-1075.80982073 818.87594283 -1074.57360801 816.55965156 -1073.25 814.25 C-1072.693125 813.21875 -1072.13625 812.1875 -1071.5625 811.125 C-1070.9128125 810.196875 -1070.9128125 810.196875 -1070.25 809.25 C-1069.59 809.25 -1068.93 809.25 -1068.25 809.25 C-1068.04375 808.71375 -1067.8375 808.1775 -1067.625 807.625 C-1065.71749574 804.33021991 -1063.20180616 801.65636372 -1060.25 799.25 C-1059.59 799.25 -1058.93 799.25 -1058.25 799.25 C-1058.25 798.59 -1058.25 797.93 -1058.25 797.25 C-1057.26 797.25 -1056.27 797.25 -1055.25 797.25 C-1055.25 796.59 -1055.25 795.93 -1055.25 795.25 C-1053.81640625 793.83984375 -1053.81640625 793.83984375 -1051.8125 792.1875 C-1047.02948698 788.12025478 -1042.64946343 783.7245396 -1038.25 779.25 C-1029.82529389 770.68152757 -1029.82529389 770.68152757 -1025.53515625 767.02734375 C-1019.90788653 762.18864414 -1014.73076856 756.87964687 -1009.49536133 751.62573242 C-1007.69137915 749.81639067 -1005.88211335 748.01245681 -1004.07226562 746.20898438 C-1002.90072095 745.03677878 -1001.72948658 743.86426296 -1000.55859375 742.69140625 C-1000.02922714 742.16406387 -999.49986053 741.6367215 -998.95445251 741.09339905 C-996.12762258 738.24924035 -993.4288343 735.33724352 -990.80688477 732.30249023 C-987.3795234 728.34698032 -983.75564148 724.64329256 -980.03125 720.96875 C-979.36967896 720.31096558 -978.70810791 719.65318115 -978.02648926 718.97546387 C-975.23421856 716.19933442 -972.43594584 713.42928463 -969.63818359 710.65869141 C-967.57959102 708.6183292 -965.52412097 706.57485669 -963.46875 704.53125 C-962.53875183 703.61369934 -962.53875183 703.61369934 -961.58996582 702.6776123 C-957.82433377 698.93279747 -954.26289027 695.06416682 -950.79830933 691.03889465 C-948.55307339 688.44478087 -946.21342232 685.94796841 -943.875 683.4375 C-935.05539946 673.87573832 -927.0591262 663.64492958 -919.25 653.25 C-918.81937256 652.70239014 -918.38874512 652.15478027 -917.94506836 651.59057617 C-914.68749729 647.30935337 -912.91115196 643.17340373 -911.3125 638.0625 C-909.61136779 632.87218015 -907.79910797 628.19269504 -905.0625 623.4375 C-901.2859421 616.12897992 -900.6441916 608.57289854 -899.65820312 600.51123047 C-893.43488939 550.79171797 -881.5678105 502.33986215 -859.25 457.25 C-858.87166016 456.48091309 -858.49332031 455.71182617 -858.10351562 454.91943359 C-847.02418828 432.62651417 -833.12144606 411.41856928 -817.25 392.25 C-816.54488281 391.37214844 -815.83976562 390.49429687 -815.11328125 389.58984375 C-810.45637468 383.81137853 -805.60844954 378.26372896 -800.5859375 372.80078125 C-798.60881142 370.64181248 -796.66832115 368.46102273 -794.75 366.25 C-792.01216181 363.09441655 -789.20251254 360.01296364 -786.375 356.9375 C-782.23319534 352.40093938 -778.32817354 347.7217037 -774.47265625 342.94140625 C-772.26081953 340.26310133 -769.96744979 337.68940781 -767.625 335.125 C-764.35297471 331.5274559 -761.32340279 327.84334913 -758.37890625 323.9765625 C-755.49131527 320.27832672 -752.49347662 316.67522012 -749.5 313.0625 C-745.11304685 307.76372373 -740.78471652 302.43097767 -736.5625 297 C-732.57260967 291.87285223 -728.45646514 286.87566255 -724.23583984 281.93701172 C-721.33349006 278.54037982 -718.49380137 275.10205179 -715.6875 271.625 C-711.81771187 266.86910654 -707.74950972 262.33034881 -703.6015625 257.81640625 C-699.8258148 253.69569822 -696.11901706 249.5118128 -692.55859375 245.203125 C-692.02363281 244.55859375 -691.48867188 243.9140625 -690.9375 243.25 C-690.23173828 242.38375 -690.23173828 242.38375 -689.51171875 241.5 C-688.25 240.25 -688.25 240.25 -686.25 240.25 C-686.25 239.59 -686.25 238.93 -686.25 238.25 C-685.59 238.25 -684.93 238.25 -684.25 238.25 C-683.9921875 237.66734375 -683.734375 237.0846875 -683.46875 236.484375 C-682.15165983 234.0697097 -680.69911616 232.43259823 -678.75 230.5 C-678.1415625 229.88640625 -677.533125 229.2728125 -676.90625 228.640625 C-675.25 227.25 -675.25 227.25 -673.25 227.25 C-673.25 226.59 -673.25 225.93 -673.25 225.25 C-671.95703125 223.9453125 -671.95703125 223.9453125 -670.0625 222.375 C-666.87214079 219.67244615 -663.78767966 216.89617791 -660.74804688 214.02783203 C-654.07398769 207.74530159 -647.08331159 202.03733924 -639.81347656 196.46240234 C-637.65364532 194.78755507 -635.54873273 193.04800487 -633.4375 191.3125 C-594.10075443 159.84310354 -546.95507342 138.17578893 -496.125 137.875 C-494.98996536 137.86294525 -494.98996536 137.86294525 -493.83200073 137.85064697 C-479.64695494 137.73647311 -465.99188951 139.56980531 -452.3125 143.4375 C-451.58144043 143.6439917 -450.85038086 143.8504834 -450.09716797 144.06323242 C-432.25108154 149.35766024 -417.53116556 158.42499235 -403.25 170.25 C-402.60546875 170.75917969 -401.9609375 171.26835938 -401.296875 171.79296875 C-399.90929048 172.89849754 -398.57216494 174.06701032 -397.25 175.25 C-397.25 175.91 -397.25 176.57 -397.25 177.25 C-396.59 177.25 -395.93 177.25 -395.25 177.25 C-395.25 177.91 -395.25 178.57 -395.25 179.25 C-394.59 179.25 -393.93 179.25 -393.25 179.25 C-387.24604063 185.68194018 -382.16237942 192.96830575 -377.25 200.25 C-372.45416778 196.21481826 -372.45416778 196.21481826 -367.9375 191.875 C-366.25 190.25 -366.25 190.25 -364.25 190.25 C-363.92 189.26 -363.59 188.27 -363.25 187.25 C-361.75390625 185.77734375 -361.75390625 185.77734375 -359.8125 184.1875 C-355.37641687 180.44931783 -351.37277175 176.36823505 -347.3515625 172.19140625 C-345.25 170.25 -345.25 170.25 -343.25 170.25 C-343.25 169.59 -343.25 168.93 -343.25 168.25 C-341.640625 166.59375 -341.640625 166.59375 -339.5 164.75 C-338.80390625 164.1415625 -338.1078125 163.533125 -337.390625 162.90625 C-335.40539208 161.37023037 -333.53127955 160.2776034 -331.25 159.25 C-331.25 158.59 -331.25 157.93 -331.25 157.25 C-329.9921875 155.9453125 -329.9921875 155.9453125 -328.125 154.375 C-327.39152344 153.75109375 -326.65804687 153.1271875 -325.90234375 152.484375 C-324.58943359 151.37835937 -324.58943359 151.37835937 -323.25 150.25 C-321.6451121 148.8789746 -320.04317583 147.50454965 -318.44140625 146.12988281 C-317.25595075 145.11274087 -316.06973222 144.09648763 -314.8828125 143.08105469 C-311.08347067 139.82992656 -307.30014818 136.56117286 -303.52734375 133.27929688 C-292.57064836 123.75124657 -281.43413861 114.49414016 -269.96728516 105.58496094 C-268.34401387 104.32308329 -266.72461903 103.05622359 -265.10546875 101.7890625 C-257.35396158 95.76336259 -249.43179443 89.99421615 -241.453125 84.2734375 C-238.23478837 81.9654953 -235.05048616 79.61663591 -231.875 77.25 C-211.92075474 62.77635928 -190.42780463 49.71191878 -168.14648438 39.15332031 C-166.16703212 38.21048131 -164.20067986 37.2433679 -162.234375 36.2734375 C-122.96439381 17.08385312 -78.50836309 6.3511537 -35.25 1.25 C-34.38858398 1.146875 -33.52716797 1.04375 -32.63964844 0.9375 C-21.80527145 -0.15885907 -10.87774663 0.00605837 0 0 Z M-101.25 151.25 C-102.35142334 151.72107178 -102.35142334 151.72107178 -103.47509766 152.20166016 C-136.6729265 166.62997605 -166.02320997 189.02631384 -194.27001953 211.33544922 C-198.3914198 214.58980129 -202.55928905 217.77636222 -206.7734375 220.91015625 C-207.26070312 221.35230469 -207.74796875 221.79445313 -208.25 222.25 C-208.25 222.91 -208.25 223.57 -208.25 224.25 C-208.7759375 224.46785156 -209.301875 224.68570313 -209.84375 224.91015625 C-213.16330862 226.75854685 -215.90122744 229.20087941 -218.75 231.6875 C-219.36584961 232.22028564 -219.98169922 232.75307129 -220.61621094 233.30200195 C-225.64208743 237.6708969 -230.56580408 242.14523936 -235.453125 246.66796875 C-238.03361327 249.05023515 -240.63504297 251.40569935 -243.25 253.75 C-247.47382754 257.53991909 -251.6611783 261.36764763 -255.83300781 265.21459961 C-259.71943431 268.79023858 -263.68511364 272.26469798 -267.703125 275.69140625 C-269.48481115 277.12060441 -269.48481115 277.12060441 -269.25 279.25 C-269.83287277 279.507883 -270.41574554 279.76576599 -271.01628113 280.03146362 C-273.43924323 281.3532358 -275.04255414 282.79521143 -276.98950195 284.74658203 C-277.70737381 285.46137726 -278.42524567 286.17617249 -279.16487122 286.91262817 C-279.93159653 287.686539 -280.69832184 288.46044983 -281.48828125 289.2578125 C-282.28727341 290.05726288 -283.08626556 290.85671326 -283.9094696 291.6803894 C-285.60046528 293.37440595 -287.28903004 295.07085203 -288.9753418 296.76953125 C-291.53714326 299.3494638 -294.10672977 301.92142961 -296.67773438 304.4921875 C-298.32338683 306.14276054 -299.96858364 307.79378802 -301.61328125 309.4453125 C-302.37393387 310.20707794 -303.13458649 310.96884338 -303.91828918 311.75369263 C-307.99689733 315.8680768 -311.91957331 320.06026455 -315.68058777 324.46774292 C-317.30139687 326.30836736 -318.99914408 328.03330752 -320.75 329.75 C-323.1058755 332.06681705 -325.32357168 334.43897069 -327.4765625 336.9453125 C-331.24683113 341.28181926 -335.16836332 345.45891673 -339.125 349.625 C-343.38124224 354.12523065 -347.63147393 358.62262129 -351.75 363.25 C-355.83034536 367.83254171 -360.03673833 372.29014597 -364.25 376.75 C-369.24047577 382.033629 -374.19234456 387.33935113 -379.01953125 392.7734375 C-380.78867361 394.7377742 -382.57721824 396.67481457 -384.38671875 398.6015625 C-384.93295898 399.18518555 -385.47919922 399.76880859 -386.04199219 400.37011719 C-387.11305421 401.51237147 -388.1877479 402.65123481 -389.26660156 403.78613281 C-391.7533204 406.4435571 -393.87889431 408.85097153 -395.25 412.25 C-395.91 412.25 -396.57 412.25 -397.25 412.25 C-398.92080281 413.90160781 -398.92080281 413.90160781 -400.625 416 C-402.58757727 418.31903702 -404.5088295 420.50219284 -406.6875 422.625 C-408.48103624 424.11455501 -408.48103624 424.11455501 -408.25 426.25 C-408.91 426.25 -409.57 426.25 -410.25 426.25 C-411.8207864 427.76411115 -411.8207864 427.76411115 -413.4375 429.75 C-414.05753906 430.47832031 -414.67757813 431.20664062 -415.31640625 431.95703125 C-415.95449219 432.71371094 -416.59257813 433.47039062 -417.25 434.25 C-418.45464136 435.64902085 -419.66284677 437.04498261 -420.875 438.4375 C-421.66777344 439.35595703 -421.66777344 439.35595703 -422.4765625 440.29296875 C-425.21975749 443.32015089 -428.1403716 446.16122589 -431.05566406 449.02172852 C-433.06132799 450.99024129 -435.06196996 452.96377132 -437.0625 454.9375 C-437.75537109 455.61361328 -438.44824219 456.28972656 -439.16210938 456.98632812 C-439.81630859 457.63408203 -440.47050781 458.28183594 -441.14453125 458.94921875 C-441.74112549 459.53533936 -442.33771973 460.12145996 -442.95239258 460.7253418 C-444.46604205 462.17016253 -444.46604205 462.17016253 -444.25 464.25 C-444.91 464.25 -445.57 464.25 -446.25 464.25 C-446.25 464.91 -446.25 465.57 -446.25 466.25 C-446.91 466.25 -447.57 466.25 -448.25 466.25 C-449.68019692 467.66437915 -449.68019692 467.66437915 -451.18359375 469.55859375 C-455.91338216 475.12096205 -461.11825029 480.19098191 -466.3125 485.3125 C-472.19135769 491.10934074 -477.96826615 496.8935916 -483.25 503.25 C-484.89646685 504.93662458 -486.56183067 506.60511706 -488.25 508.25 C-491.02907498 511.01930671 -493.79578752 513.80046962 -496.5546875 516.58984375 C-497.74475143 517.78910243 -498.93485629 518.98832049 -500.125 520.1875 C-500.71152344 520.78240234 -501.29804687 521.37730469 -501.90234375 521.99023438 C-505.3660956 525.47301783 -508.91348607 528.75230348 -512.70678711 531.87451172 C-514.29781973 533.29262242 -515.60146134 534.77930138 -516.9375 536.4375 C-518.93674338 538.86901222 -520.75722783 540.40350209 -523.25 542.25 C-523.25 542.91 -523.25 543.57 -523.25 544.25 C-523.8171875 544.50265625 -524.384375 544.7553125 -524.96875 545.015625 C-527.5478021 546.41113949 -529.52732114 548.08849618 -531.75 550 C-544.62993145 560.42120738 -560.21578836 565.18623967 -576.73046875 564 C-589.68453878 562.38972714 -600.66901027 559.00257702 -611.25 551.25 C-611.89582031 550.77691406 -612.54164063 550.30382812 -613.20703125 549.81640625 C-626.80836877 538.97832014 -633.761463 523.28839066 -636 506.375 C-637.39190486 488.30923479 -632.72889254 472.84063413 -621.3515625 458.80859375 C-620.05761159 457.29588652 -620.05761159 457.29588652 -620.25 455.25 C-618.93 454.59 -617.61 453.93 -616.25 453.25 C-616.25 452.59 -616.25 451.93 -616.25 451.25 C-615.39332733 450.88032104 -615.39332733 450.88032104 -614.51934814 450.50317383 C-611.87286871 449.04174149 -610.08083036 447.33499981 -607.94042969 445.19921875 C-607.09986023 444.36495361 -606.25929077 443.53068848 -605.39324951 442.67114258 C-604.49519592 441.76904053 -603.59714233 440.86693848 -602.671875 439.9375 C-601.7453009 439.01283936 -600.81872681 438.08817871 -599.86407471 437.13549805 C-597.9074163 435.18178301 -595.95440857 433.22450889 -594.00390625 431.26464844 C-591.49984146 428.74915795 -588.98686276 426.24279451 -586.4711113 423.73899841 C-584.07484056 421.3516736 -581.6861985 418.95677812 -579.296875 416.5625 C-577.93764923 415.20934692 -577.93764923 415.20934692 -576.55096436 413.82885742 C-575.72300354 412.99459229 -574.89504272 412.16032715 -574.04199219 411.30078125 C-572.94090118 410.19730347 -572.94090118 410.19730347 -571.81756592 409.0715332 C-570.03257008 407.39787246 -570.03257008 407.39787246 -570.25 405.25 C-569.2909375 404.8478125 -569.2909375 404.8478125 -568.3125 404.4375 C-565.91868314 403.36332248 -565.91868314 403.36332248 -565.25 400.25 C-564.59 400.25 -563.93 400.25 -563.25 400.25 C-563.25 399.59 -563.25 398.93 -563.25 398.25 C-562.59 398.25 -561.93 398.25 -561.25 398.25 C-559.74950064 396.76638306 -559.74950064 396.76638306 -558.1875 394.8125 C-553.41746501 389.20301786 -548.16867395 384.11970291 -542.921875 378.9609375 C-538.73282084 374.81462879 -534.7396867 370.59075008 -530.8984375 366.12109375 C-528.31779277 363.19187852 -525.54094908 360.47694421 -522.75 357.75 C-518.62785696 353.67935449 -514.67276184 349.55998672 -510.921875 345.140625 C-508.95245971 342.91352921 -506.86625658 340.83785046 -504.75 338.75 C-501.47598063 335.51436947 -498.4055511 332.19774155 -495.41796875 328.69921875 C-493.55967589 326.59985006 -491.66510559 324.55550693 -489.73828125 322.51953125 C-489.10494873 321.84937988 -488.47161621 321.17922852 -487.8190918 320.48876953 C-486.53674762 319.13572975 -485.2505261 317.7863528 -483.96020508 316.44091797 C-483.0711145 315.50143311 -483.0711145 315.50143311 -482.1640625 314.54296875 C-481.3589624 313.70028442 -481.3589624 313.70028442 -480.53759766 312.84057617 C-479.0262411 311.16392214 -479.0262411 311.16392214 -478.25 308.25 C-477.59 308.25 -476.93 308.25 -476.25 308.25 C-476.8237906 293.76673386 -478.0896953 279.53538103 -488.25 268.25 C-491.72744162 266.59017913 -494.48053492 266.76308796 -498.25 267.25 C-499.18972656 267.33378906 -500.12945313 267.41757812 -501.09765625 267.50390625 C-528.51982941 270.93619406 -553.57604821 292.00253634 -573.140625 310.3515625 C-575.25 312.25 -575.25 312.25 -577.25 313.25 C-577.25 313.91 -577.25 314.57 -577.25 315.25 C-577.83426758 315.50974609 -578.41853516 315.76949219 -579.02050781 316.03710938 C-581.40561164 317.334656 -583.00190637 318.74341122 -584.921875 320.65625 C-585.58574219 321.31753906 -586.24960937 321.97882813 -586.93359375 322.66015625 C-587.61550781 323.34980469 -588.29742188 324.03945313 -589 324.75 C-589.69738281 325.43964844 -590.39476562 326.12929688 -591.11328125 326.83984375 C-591.77199219 327.50113281 -592.43070313 328.16242188 -593.109375 328.84375 C-593.71233398 329.44896484 -594.31529297 330.05417969 -594.93652344 330.67773438 C-596.46370721 332.16436032 -596.46370721 332.16436032 -596.25 334.25 C-596.91 334.25 -597.57 334.25 -598.25 334.25 C-599.61902326 335.52518579 -599.61902326 335.52518579 -601.0625 337.3125 C-601.99835938 338.41464844 -601.99835938 338.41464844 -602.953125 339.5390625 C-603.71109375 340.43367187 -604.4690625 341.32828125 -605.25 342.25 C-606.20131379 343.3427253 -607.15457304 344.43375878 -608.109375 345.5234375 C-618.50978513 357.40684509 -628.56791998 369.56785242 -638.39453125 381.9296875 C-641.24369577 385.49264271 -644.14485529 389.01267351 -647.0390625 392.5390625 C-649.08849413 395.05196983 -651.11040475 397.58414314 -653.125 400.125 C-656.70180184 404.61200191 -660.39215077 408.99307926 -664.11279297 413.3605957 C-667.04305303 416.80519379 -669.91291389 420.29024998 -672.75 423.8125 C-676.8745599 428.88319551 -681.24616599 433.68192479 -685.6875 438.47265625 C-688.35186139 441.3604016 -690.94380703 444.29969384 -693.515625 447.26953125 C-695.52264538 449.56133155 -697.57402851 451.80996752 -699.625 454.0625 C-703.56098736 458.42544192 -707.31407741 462.90815051 -711.00390625 467.48046875 C-712.47177118 469.29041003 -713.95814553 471.08553679 -715.46484375 472.86328125 C-725.68225212 484.98410841 -733.76762762 498.31778132 -741.25 512.25 C-741.58741211 512.86359375 -741.92482422 513.4771875 -742.27246094 514.109375 C-759.30047309 545.20833964 -767.83360403 581.88240298 -770.04174805 617.09375 C-770.31038809 621.16523704 -770.74884573 625.20161313 -771.25 629.25 C-771.37375 630.29607422 -771.37375 630.29607422 -771.5 631.36328125 C-771.87399513 634.46627208 -772.30033643 637.46309942 -773.01953125 640.5078125 C-773.53345119 643.28259997 -773.53345119 643.28259997 -771.88671875 645.3671875 C-771.24347656 645.94726562 -770.60023438 646.52734375 -769.9375 647.125 C-769.30199219 647.72054687 -768.66648437 648.31609375 -768.01171875 648.9296875 C-766.35018948 650.44990536 -766.35018948 650.44990536 -764.25 650.25 C-763.86515442 651.14132629 -763.86515442 651.14132629 -763.47253418 652.05065918 C-762.13325303 654.46002798 -760.81333677 655.70002287 -758.68945312 657.43945312 C-753.94433674 661.45948027 -749.59107306 665.80030586 -745.21875 670.21875 C-744.38339722 671.0578894 -743.54804443 671.89702881 -742.68737793 672.76159668 C-739.14663871 676.3185452 -735.61192676 679.8814612 -732.07666016 683.44384766 C-729.4802794 686.05840164 -726.88083434 688.66988184 -724.28125 691.28125 C-723.49455933 692.07623901 -722.70786865 692.87122803 -721.89733887 693.69030762 C-718.43978464 697.16300146 -714.96465224 700.55222078 -711.25 703.75 C-706.67970553 707.68436363 -702.45865809 711.9341176 -698.21875 716.21875 C-697.38339722 717.0578894 -696.54804443 717.89702881 -695.68737793 718.76159668 C-692.14663871 722.3185452 -688.61192676 725.8814612 -685.07666016 729.44384766 C-682.4802794 732.05840164 -679.88083434 734.66988184 -677.28125 737.28125 C-676.10121399 738.47373352 -676.10121399 738.47373352 -674.89733887 739.69030762 C-671.44428824 743.15847813 -667.97426031 746.54361377 -664.26367188 749.73632812 C-659.61077035 753.74188442 -655.31714626 758.07604664 -651 762.4375 C-650.14245117 763.29883545 -649.28490234 764.1601709 -648.40136719 765.04760742 C-644.76505061 768.70013983 -641.13475629 772.35863635 -637.50390625 776.01660156 C-634.83802403 778.70065156 -632.1690819 781.38163241 -629.5 784.0625 C-628.28715332 785.28779419 -628.28715332 785.28779419 -627.04980469 786.5378418 C-623.55499501 790.04755859 -620.04865339 793.48053846 -616.29101562 796.70898438 C-611.39422282 800.92268701 -606.88792713 805.50643658 -602.34375 810.09375 C-600.93137068 811.5119165 -599.51898839 812.93008007 -598.10643768 814.34807587 C-595.15687976 817.31066445 -592.21193688 820.27784021 -589.26617432 823.24420166 C-586.83122894 825.69581031 -584.39525184 828.14637331 -581.95666504 830.59436035 C-580.13779387 832.42068429 -578.32117348 834.24925361 -576.50720215 836.08044434 C-572.21857976 840.38604316 -567.86363791 844.51021958 -563.25524902 848.46960449 C-559.33460237 851.95061937 -555.68699648 855.71266368 -552 859.4375 C-551.14245117 860.29883545 -550.28490234 861.1601709 -549.40136719 862.04760742 C-545.76505061 865.70013983 -542.13475629 869.35863635 -538.50390625 873.01660156 C-535.83802403 875.70065156 -533.1690819 878.38163241 -530.5 881.0625 C-529.28715332 882.28779419 -529.28715332 882.28779419 -528.04980469 883.5378418 C-524.54603633 887.05655549 -521.02973903 890.49706773 -517.26318359 893.73461914 C-512.52730586 897.80947384 -508.17420517 902.23784359 -503.7890625 906.68359375 C-502.0014316 908.48385258 -500.2136674 910.28397904 -498.42578125 912.08398438 C-495.63238196 914.90234679 -492.84043251 917.72212388 -490.05126953 920.54467773 C-487.3431722 923.2827915 -484.62904261 926.01480702 -481.9140625 928.74609375 C-481.07453033 929.59908554 -480.23499817 930.45207733 -479.37002563 931.33091736 C-478.59516815 932.10915359 -477.82031067 932.88738983 -477.02197266 933.68920898 C-476.33994781 934.37869125 -475.65792297 935.06817352 -474.95523071 935.77854919 C-473.37302221 937.46776744 -473.37302221 937.46776744 -471.25 937.25 C-470.92 938.24 -470.59 939.23 -470.25 940.25 C-468.70151935 941.82213372 -468.70151935 941.82213372 -466.765625 943.36328125 C-461.91957398 947.47811702 -457.47019637 951.92142577 -453 956.4375 C-452.14245117 957.29883545 -451.28490234 958.1601709 -450.40136719 959.04760742 C-446.76505061 962.70013983 -443.13475629 966.35863635 -439.50390625 970.01660156 C-436.83802403 972.70065156 -434.1690819 975.38163241 -431.5 978.0625 C-430.69143555 978.87936279 -429.88287109 979.69622559 -429.04980469 980.5378418 C-425.53069771 984.07195953 -422.0010574 987.51650987 -418.20507812 990.75317383 C-413.68423743 994.64172666 -409.74158417 998.99460996 -405.71875 1003.38671875 C-403.24898377 1006.00839471 -400.77011184 1008.62122894 -398.29003906 1011.2331543 C-396.5934861 1013.0394516 -394.9143615 1014.86227436 -393.25292969 1016.70092773 C-385.06059631 1026.67849922 -385.06059631 1026.67849922 -374.16067505 1032.67852783 C-369.87900086 1032.48041219 -366.23596194 1030.76595609 -362.36871338 1029.04507446 C-358.52294195 1027.60189924 -354.52874099 1027.3151411 -350.46484375 1026.90625 C-348.76230927 1026.71016018 -347.05983556 1026.51354203 -345.35742188 1026.31640625 C-342.7694225 1026.03089132 -340.18101866 1025.74929632 -337.5925293 1025.46826172 C-327.55881728 1024.36403253 -318.08187043 1022.87208338 -308.3762207 1020.07958984 C-304.55103288 1019.06451853 -301.32434895 1018.81682095 -297.375 1018.8125 C-259.49474719 1017.67967447 -219.94531524 1002.40721006 -190.81201172 978.52392578 C-188.56636682 976.69245109 -186.27964732 974.91386521 -184 973.125 C-179.78712034 969.75057273 -175.79865346 966.16861503 -171.8125 962.53125 C-169.20474475 960.20971179 -166.52958856 958.00469645 -163.8125 955.8125 C-158.98195141 951.90303059 -154.37886905 947.79472169 -149.8046875 943.58984375 C-147.62302185 941.59165152 -145.41988691 939.62851111 -143.1875 937.6875 C-129.75480645 925.98109638 -116.66948334 913.8494153 -104.17138672 901.14770508 C-101.55029501 898.49744898 -98.86978348 896.00314726 -96 893.625 C-95.0925 892.84125 -94.185 892.0575 -93.25 891.25 C-93.25 890.59 -93.25 889.93 -93.25 889.25 C-92.69586426 889.02256104 -92.14172852 888.79512207 -91.57080078 888.56079102 C-88.57600295 886.86932567 -86.52633764 884.73217638 -84.1171875 882.27734375 C-83.63927765 881.79423233 -83.1613678 881.31112091 -82.66897583 880.81336975 C-81.14946386 879.27610959 -79.6368361 877.73230674 -78.125 876.1875 C-76.60515441 874.64002523 -75.08386581 873.09404074 -73.55960083 871.55091858 C-72.18081258 870.15429199 -70.80683935 868.75291677 -69.43310547 867.35131836 C-67.25 865.25 -67.25 865.25 -65.25 864.25 C-65.25 863.59 -65.25 862.93 -65.25 862.25 C-64.6630838 861.98872818 -64.0761676 861.72745636 -63.47146606 861.45826721 C-61.117256 860.17779983 -59.58546555 858.82043285 -57.70654297 856.91772461 C-56.69562088 855.90173439 -56.69562088 855.90173439 -55.66427612 854.86521912 C-54.94748688 854.13497025 -54.23069763 853.40472137 -53.4921875 852.65234375 C-52.74792511 851.90287979 -52.00366272 851.15341583 -51.23684692 850.38124084 C-48.86143574 847.98802366 -46.49281991 845.58822632 -44.125 843.1875 C-41.74917784 840.78408548 -39.37192511 838.38213131 -36.99172974 835.98304749 C-35.51100567 834.4900398 -34.03296256 832.99436764 -32.55783081 831.49583435 C-31.89018707 830.8216597 -31.22254333 830.14748505 -30.53466797 829.45288086 C-29.65341751 828.55925087 -29.65341751 828.55925087 -28.75436401 827.64756775 C-27.25 826.25 -27.25 826.25 -25.25 825.25 C-25.25 824.59 -25.25 823.93 -25.25 823.25 C-24.59 823.25 -23.93 823.25 -23.25 823.25 C-20.58333333 820.91666667 -20.58333333 820.91666667 -18.25 818.25 C-18.25 817.59 -18.25 816.93 -18.25 816.25 C-17.59 816.25 -16.93 816.25 -16.25 816.25 C-16.25 815.59 -16.25 814.93 -16.25 814.25 C-15.651875 813.981875 -15.05375 813.71375 -14.4375 813.4375 C-12.25152146 812.25082594 -10.83667406 811.15400887 -9.25 809.25 C-9.25 808.59 -9.25 807.93 -9.25 807.25 C-8.6837793 807.00830078 -8.11755859 806.76660156 -7.53417969 806.51757812 C-4.7977726 804.99904183 -2.91930662 803.17848119 -0.703125 800.96875 C0.14121094 800.12699219 0.98554687 799.28523438 1.85546875 798.41796875 C2.72816406 797.53753906 3.60085938 796.65710937 4.5 795.75 C5.38816406 794.86957031 6.27632812 793.98914062 7.19140625 793.08203125 C8.03058594 792.24027344 8.86976563 791.39851563 9.734375 790.53125 C10.50491211 789.75845703 11.27544922 788.98566406 12.06933594 788.18945312 C13.96829569 786.42581471 13.96829569 786.42581471 13.75 784.25 C14.41 784.25 15.07 784.25 15.75 784.25 C17.41666667 782.91666667 17.41666667 782.91666667 18.75 781.25 C18.75 780.59 18.75 779.93 18.75 779.25 C19.41 779.25 20.07 779.25 20.75 779.25 C21.93688006 777.8706529 23.1210978 776.48715997 24.23828125 775.05078125 C26.26760093 772.63342629 28.51015897 770.47478727 30.75 768.25 C31.82079774 767.18194843 32.89132834 766.11362899 33.9616394 765.04508972 C35.18518706 763.82456081 36.40874955 762.60404676 37.63232422 761.38354492 C44.48326687 754.54897244 51.33163761 747.71182868 58.1785717 740.87324047 C62.31417456 736.74285783 66.45070789 732.61341598 70.58935547 728.48608398 C74.60438677 724.48195621 78.61693571 720.475356 82.62781143 716.46706581 C84.15065263 714.9460631 85.67436931 713.42593638 87.19900131 711.90672874 C89.33799222 709.77504937 91.47377962 707.64020716 93.60888672 705.50463867 C94.23041626 704.88670441 94.8519458 704.26877014 95.49230957 703.6321106 C99.2398367 699.87587244 102.7896409 695.99572436 106.25065041 691.97364521 C108.052316 689.90245895 109.94752049 687.9539661 111.90625 686.03125 C112.61910156 685.32613281 113.33195312 684.62101562 114.06640625 683.89453125 C115.52213542 682.46484375 116.97786458 681.03515625 118.43359375 679.60546875 C122.48096647 675.60200966 126.33995657 671.51648047 130.05273438 667.20117188 C132.86421511 663.96910139 135.8123708 660.86703571 138.75 657.75 C143.51606715 652.66411696 148.23475522 647.56145982 152.75 642.25 C153.554375 641.31285156 154.35875 640.37570312 155.1875 639.41015625 C166.40481359 626.29587165 177.0157659 612.8310168 186.984375 598.74121094 C188.18788323 597.04311941 189.39643308 595.34859252 190.609375 593.65722656 C212.99093213 562.43904855 232.53686556 529.43563842 245.75 493.25 C246.10787598 492.280625 246.46575195 491.31125 246.83447266 490.3125 C270.8517019 424.46701477 276.85088546 348.37540685 246.86816406 283.56958008 C243.84133705 277.17803979 240.73660403 270.98886443 236.87597656 265.05444336 C235.6981087 263.16684116 234.68715961 261.23688059 233.6875 259.25 C229.91167786 252.30735929 224.81168199 246.1595906 219.99926758 239.91650391 C218.86236326 238.39989088 217.80139709 236.82709564 216.75 235.25 C216.09 235.25 215.43 235.25 214.75 235.25 C214.51410156 234.69699219 214.27820312 234.14398437 214.03515625 233.57421875 C206.08607434 219.19821956 189.14088238 205.30107632 176.328125 195.26953125 C173.54423539 193.08881772 170.87313649 190.80040175 168.1875 188.5 C92.89578864 125.83786603 -11.26260264 112.62937353 -101.25 151.25 Z M-841.75390625 763.7421875 C-842.77899047 764.86474595 -843.7981524 765.99273057 -844.8125 767.125 C-845.6183252 768.01094849 -845.6183252 768.01094849 -846.44042969 768.91479492 C-849.64696122 772.44608077 -852.82110115 776.00634963 -856 779.5625 C-859.25625728 783.20080912 -862.61853793 786.68098992 -866.1328125 790.0703125 C-867.89921322 791.8888579 -869.52799886 793.73908991 -871.16967773 795.66748047 C-876.07107069 801.28164374 -881.3722587 806.49676649 -886.65234375 811.75 C-887.74115104 812.83693803 -888.82973466 813.92410015 -889.91810608 815.01147461 C-892.75824889 817.84783223 -895.6013836 820.68117164 -898.44519043 823.51385498 C-901.35657891 826.41494253 -904.26507467 829.31892713 -907.17382812 832.22265625 C-912.8630867 837.90124818 -918.55551499 843.57664916 -924.25 849.25 C-922.70154245 852.52203574 -921.06928489 854.61901745 -918.4375 857.125 C-915.91605115 859.56865461 -913.55817173 861.99985531 -911.375 864.75 C-910.323125 865.9875 -910.323125 865.9875 -909.25 867.25 C-908.59 867.25 -907.93 867.25 -907.25 867.25 C-907.25 867.91 -907.25 868.57 -907.25 869.25 C-906.59 869.25 -905.93 869.25 -905.25 869.25 C-905.00798859 869.81732849 -904.76597717 870.38465698 -904.51663208 870.96917725 C-903.00147793 873.69751337 -901.19782424 875.54187761 -898.98388672 877.74316406 C-898.10312469 878.62377502 -897.22236267 879.50438599 -896.31491089 880.41168213 C-895.35327649 881.36310431 -894.3915328 882.31441603 -893.4296875 883.265625 C-892.44561893 884.24596129 -891.46199258 885.22674168 -890.47879028 886.20794678 C-887.89557286 888.78354467 -885.30640488 891.35307857 -882.71594238 893.92138672 C-880.0713238 896.54551067 -877.4323899 899.17533771 -874.79296875 901.8046875 C-869.61751928 906.9587167 -864.43576878 912.10635157 -859.25 917.25 C-854.62074294 913.37589699 -850.21335377 909.36222503 -845.94750977 905.09277344 C-845.36127335 904.50989563 -844.77503693 903.92701782 -844.17103577 903.32647705 C-842.25853997 901.42338451 -840.34974621 899.51663419 -838.44140625 897.609375 C-837.10626879 896.27745398 -835.77105745 894.945607 -834.43577576 893.61383057 C-831.65112814 890.83514495 -828.86852898 888.05442636 -826.0871582 885.27246094 C-822.51539859 881.70059905 -818.9367707 878.13570338 -815.35640049 874.57247543 C-812.60361051 871.83076691 -809.8553399 869.08456315 -807.10835075 866.33704376 C-805.78979557 865.01967144 -804.46961213 863.70392681 -803.14779854 862.38982391 C-801.30935363 860.561115 -799.4772798 858.72625408 -797.64672852 856.88964844 C-797.09668152 856.34522095 -796.54663452 855.80079346 -795.97991943 855.23986816 C-793.12877865 852.71940628 -793.12877865 852.71940628 -792.25 849.25 C-791.26 848.92 -790.27 848.59 -789.25 848.25 C-787.77374797 846.79373428 -787.77374797 846.79373428 -786.3125 844.9375 C-781.31648731 839.02626947 -775.75863847 833.67723002 -770.25 828.25 C-771.63574637 825.03247219 -773.16873532 823.22022191 -775.86523438 821.00585938 C-780.27777723 817.26788966 -784.34313029 813.26759248 -788.40625 809.15625 C-789.1528186 808.40589478 -789.89938721 807.65553955 -790.6685791 806.88244629 C-793.82701112 803.70783496 -796.97939279 800.52724084 -800.13232422 797.34716797 C-802.45069745 795.01059639 -804.7721552 792.67712001 -807.09375 790.34375 C-807.79294556 789.6362561 -808.49214111 788.92876221 -809.21252441 788.1998291 C-813.18032103 784.21259529 -817.25864316 780.43110491 -821.51898193 776.75839233 C-823.44040233 775.08408526 -825.25167623 773.33551344 -827.0234375 771.50390625 C-827.91869141 770.5902832 -827.91869141 770.5902832 -828.83203125 769.65820312 C-830.05239003 768.40195144 -831.2710772 767.14407422 -832.48828125 765.88476562 C-833.07738281 765.28470703 -833.66648437 764.68464844 -834.2734375 764.06640625 C-834.79856934 763.52443604 -835.32370117 762.98246582 -835.86474609 762.42407227 C-838.59644903 760.10881681 -839.3175178 761.3172018 -841.75390625 763.7421875 Z M-682.74420166 923.49195862 C-683.65199371 924.41052895 -683.65199371 924.41052895 -684.578125 925.34765625 C-685.20475037 925.97473984 -685.83137573 926.60182343 -686.47698975 927.24790955 C-687.80750409 928.58145201 -689.13558013 929.91743092 -690.46142578 931.25561523 C-692.47256798 933.28482159 -694.4914029 935.30610331 -696.51171875 937.32617188 C-697.8051567 938.62453275 -699.09813951 939.92334723 -700.390625 941.22265625 C-700.98772278 941.82086685 -701.58482056 942.41907745 -702.20001221 943.03541565 C-705.52367051 946.39603525 -708.67728615 949.83491608 -711.69036865 953.4775238 C-713.77300111 955.84437573 -716.00794911 958.03396712 -718.25 960.25 C-719.06229568 961.06229568 -719.87459137 961.87459137 -720.71150208 962.71150208 C-736.22433472 978.22433472 -751.73716736 993.73716736 -767.25 1009.25 C-765.48514688 1013.05082952 -763.29483983 1015.34301127 -760.25 1018.25 C-759.26255862 1019.23211522 -758.27788512 1020.21701931 -757.2956543 1021.2043457 C-756.7754924 1021.7245076 -756.25533051 1022.24466949 -755.71940613 1022.78059387 C-748.56293742 1029.93706258 -741.40646871 1037.09353129 -734.25 1044.25 C-730.25914912 1042.6516536 -727.61472923 1039.85393055 -724.671875 1036.83203125 C-724.14160706 1036.29656174 -723.61133911 1035.76109222 -723.06500244 1035.20939636 C-721.37182944 1033.49846248 -719.68547792 1031.78101232 -718 1030.0625 C-715.78990778 1027.81558358 -713.57658293 1025.57192654 -711.359375 1023.33203125 C-710.82354294 1022.79056458 -710.28771088 1022.2490979 -709.73564148 1021.69122314 C-706.30679297 1018.24906819 -702.7716944 1014.99832107 -699.06982422 1011.84936523 C-695.68238318 1008.872289 -692.58555726 1005.60072954 -689.4375 1002.375 C-684.11078574 996.97411473 -678.73524053 992.01482914 -672.76953125 987.328125 C-669.121035 984.31882266 -665.87636017 980.95802485 -662.57421875 977.578125 C-660.57117633 975.57171612 -658.53396955 973.70901125 -656.375 971.875 C-650.67798262 967.01026294 -645.50371426 961.58251998 -640.25 956.25 C-641.88939933 952.06217744 -644.96846069 949.2606969 -648.10546875 946.1640625 C-648.68533035 945.58465912 -649.26519196 945.00525574 -649.86262512 944.40829468 C-651.09005273 943.18388387 -652.31990561 941.96190016 -653.55200195 940.7421875 C-655.41864501 938.89367189 -657.27728991 937.03740986 -659.13476562 935.1796875 C-660.33286523 933.98650895 -661.5314189 932.79378613 -662.73046875 931.6015625 C-663.27865768 931.05448639 -663.82684662 930.50741028 -664.39164734 929.9437561 C-672.89373479 919.76585501 -672.89373479 919.76585501 -682.74420166 923.49195862 Z M-548.52172852 1047.42407227 C-549.31728149 1048.23702759 -549.31728149 1048.23702759 -550.12890625 1049.06640625 C-550.71639648 1049.66227539 -551.30388672 1050.25814453 -551.90917969 1050.87207031 C-552.53727539 1051.51241211 -553.16537109 1052.15275391 -553.8125 1052.8125 C-558.18673918 1057.23521941 -562.57710947 1061.52678493 -567.328125 1065.546875 C-569.73973932 1067.68399663 -571.98539257 1069.95794279 -574.25 1072.25 C-577.72218462 1075.7590667 -581.26219104 1079.0813616 -585.0078125 1082.29296875 C-589.03307015 1085.80630339 -592.92748541 1089.46391659 -596.84375 1093.09765625 C-598.99921713 1095.09732856 -601.16450475 1097.08487194 -603.34375 1099.05859375 C-610.72604876 1105.76658168 -617.81153892 1112.73351879 -624.80737305 1119.84423828 C-628.89286164 1123.9777484 -633.04799909 1127.90983409 -637.51245117 1131.63354492 C-639.36510668 1133.35708463 -640.79178559 1135.18734439 -642.25 1137.25 C-641.65050537 1137.84425781 -641.05101074 1138.43851563 -640.43334961 1139.05078125 C-638.17425473 1141.29266107 -635.91755127 1143.53691531 -633.66235352 1145.78271484 C-632.69257727 1146.74751459 -631.7218993 1147.71140895 -630.75024414 1148.67431641 C-629.34014073 1150.07205687 -627.9337273 1151.47351674 -626.52734375 1152.875 C-625.26265259 1154.13183594 -625.26265259 1154.13183594 -623.97241211 1155.4140625 C-621.90710508 1157.56549345 -619.95177012 1159.73225075 -618.00976562 1161.99023438 C-613.82873014 1166.80693217 -609.33862289 1171.28685863 -604.81640625 1175.78125 C-603.93846909 1176.65777222 -603.06053192 1177.53429443 -602.1559906 1178.43737793 C-599.37718504 1181.21062796 -596.59490603 1183.98036282 -593.8125 1186.75 C-591.91680135 1188.64010805 -590.02190217 1190.53101518 -588.12695312 1192.421875 C-583.50394811 1197.03391004 -578.87809343 1201.64307141 -574.25 1206.25 C-570.58565049 1204.53974534 -568.3154411 1202.49002076 -565.5 1199.5625 C-561.84032107 1195.8222114 -558.10463897 1192.30760058 -554.12890625 1188.91015625 C-551.56137457 1186.64154718 -549.18707706 1184.20279965 -546.79296875 1181.75390625 C-545.25 1180.25 -545.25 1180.25 -542.8125 1178.4375 C-542.0390625 1177.8496875 -542.0390625 1177.8496875 -541.25 1177.25 C-541.25 1176.59 -541.25 1175.93 -541.25 1175.25 C-540.66089844 1174.97800781 -540.07179688 1174.70601562 -539.46484375 1174.42578125 C-533.97766176 1171.51283278 -529.55077417 1166.65317356 -525.25 1162.25 C-523.71158011 1160.68430316 -522.16962629 1159.12207429 -520.625 1157.5625 C-519.86960937 1156.79550781 -519.11421875 1156.02851562 -518.3359375 1155.23828125 C-516.25 1153.25 -516.25 1153.25 -513.25 1151.25 C-513.25 1150.59 -513.25 1149.93 -513.25 1149.25 C-512.67121094 1148.98832031 -512.09242188 1148.72664063 -511.49609375 1148.45703125 C-505.65205351 1145.31649484 -500.84367952 1139.95852151 -496.25 1135.25 C-491.66093179 1130.56138584 -486.99000889 1126.07211394 -482.015625 1121.79296875 C-480.00058361 1120.03203656 -478.10305602 1118.18026669 -476.25 1116.25 C-481.0525478 1110.47182871 -486.20606304 1105.14832225 -491.5234375 1099.84375 C-492.84729965 1098.51845276 -492.84729965 1098.51845276 -494.19790649 1097.16638184 C-496.53063292 1094.83280517 -498.86576341 1092.5016665 -501.20172119 1090.17132568 C-502.62235878 1088.7526376 -504.04103541 1087.33201953 -505.45898438 1085.91064453 C-508.206942 1083.15647197 -510.95838274 1080.4058274 -513.7109375 1077.65625 C-514.54764984 1076.81751343 -515.38436218 1075.97877686 -516.24642944 1075.11462402 C-520.556073 1070.82194266 -524.94102848 1066.69299448 -529.55194092 1062.72567749 C-531.54700198 1060.99189406 -533.42720083 1059.17229689 -535.27734375 1057.28515625 C-535.92380859 1056.63095703 -536.57027344 1055.97675781 -537.23632812 1055.30273438 C-537.88021484 1054.64595703 -538.52410156 1053.98917969 -539.1875 1053.3125 C-540.50683793 1051.96781456 -541.82832844 1050.62523646 -543.15234375 1049.28515625 C-544.01073853 1048.40935913 -544.01073853 1048.40935913 -544.88647461 1047.51586914 C-546.70561119 1045.82655428 -546.70561119 1045.82655428 -548.52172852 1047.42407227 Z " fill="#101010" transform="translate(1338.25,361.75)"/>
</svg>
