<?xml version="1.0" encoding="UTF-8"?>
<!-- Generator: visioncortex VTracer 0.6.12 -->
<svg version="1.1" xmlns="http://www.w3.org/2000/svg" width="2048" height="2048">
<path d="M0,0 L49,0 L81,3 L112,8 L144,16 L173,26 L199,38 L217,48 L236,60 L256,74 L270,85 L287,99 L297,108 L305,115 L325,135 L334,146 L341,154 L351,167 L361,181 L375,204 L386,224 L397,250 L404,270 L411,294 L416,320 L419,344 L420,362 L420,392 L417,426 L411,461 L403,498 L396,523 L386,551 L374,579 L364,598 L354,616 L340,639 L321,667 L311,681 L301,694 L290,708 L278,722 L267,735 L253,750 L246,758 L238,766 L231,774 L213,792 L211,795 L209,795 L207,799 L137,869 L132,874 L127,880 L119,887 L113,894 L105,901 L99,908 L91,915 L62,944 L60,944 L59,947 L51,954 L28,977 L21,983 L16,988 L-2,1006 L-10,1013 L-18,1021 L-20,1021 L-20,1023 L-28,1030 L-40,1041 L-51,1050 L-54,1051 L-55,1054 L-66,1063 L-69,1064 L-69,1066 L-78,1073 L-89,1082 L-103,1092 L-118,1102 L-129,1109 L-145,1117 L-166,1126 L-196,1136 L-226,1143 L-252,1148 L-263,1152 L-290,1161 L-306,1169 L-320,1177 L-334,1187 L-345,1195 L-347,1195 L-348,1198 L-357,1205 L-367,1214 L-375,1221 L-381,1226 L-386,1231 L-393,1237 L-398,1242 L-403,1247 L-405,1247 L-407,1251 L-415,1258 L-417,1258 L-419,1262 L-427,1269 L-432,1274 L-434,1274 L-435,1277 L-443,1284 L-448,1289 L-450,1289 L-452,1293 L-460,1300 L-465,1305 L-467,1305 L-468,1308 L-476,1315 L-481,1320 L-483,1320 L-485,1324 L-488,1325 L-490,1329 L-493,1330 L-495,1334 L-501,1341 L-509,1348 L-516,1353 L-529,1358 L-542,1361 L-564,1360 L-580,1355 L-588,1351 L-598,1343 L-663,1278 L-663,1276 L-665,1276 L-665,1274 L-667,1274 L-674,1266 L-737,1203 L-744,1195 L-807,1132 L-807,1130 L-809,1130 L-809,1128 L-811,1128 L-818,1120 L-877,1061 L-877,1059 L-879,1059 L-879,1057 L-881,1057 L-888,1049 L-947,990 L-947,988 L-951,986 L-958,978 L-1021,915 L-1021,913 L-1023,913 L-1023,911 L-1025,911 L-1032,903 L-1046,889 L-1047,885 L-1049,885 L-1050,880 L-1052,880 L-1058,863 L-1059,856 L-1059,839 L-1055,824 L-1050,814 L-1047,809 L-1045,809 L-1043,805 L-1037,799 L-1035,799 L-1035,797 L-1032,797 L-1032,795 L-1024,788 L-1006,770 L-998,763 L-971,736 L-964,728 L-933,697 L-926,689 L-915,677 L-906,666 L-896,653 L-891,646 L-885,629 L-879,617 L-876,597 L-871,563 L-865,536 L-858,512 L-847,481 L-836,457 L-827,440 L-814,419 L-802,402 L-794,392 L-785,381 L-775,370 L-768,362 L-758,351 L-749,340 L-740,330 L-733,321 L-719,304 L-708,290 L-697,277 L-688,266 L-678,255 L-671,247 L-665,240 L-663,240 L-663,238 L-661,238 L-659,234 L-652,227 L-650,227 L-650,225 L-642,218 L-629,206 L-615,195 L-605,187 L-588,175 L-573,166 L-556,157 L-545,152 L-531,147 L-510,141 L-491,138 L-455,138 L-438,141 L-420,146 L-402,154 L-390,162 L-380,170 L-374,175 L-374,177 L-372,177 L-372,179 L-370,179 L-361,190 L-354,200 L-347,194 L-343,190 L-341,190 L-340,187 L-332,180 L-322,170 L-320,170 L-320,168 L-312,161 L-308,159 L-308,157 L-300,150 L-286,138 L-271,125 L-259,115 L-245,104 L-232,94 L-214,81 L-203,73 L-183,60 L-159,46 L-143,38 L-126,30 L-105,22 L-71,12 L-39,5 L-12,1 Z M20,129 L-4,131 L-27,135 L-57,143 L-78,151 L-95,159 L-114,170 L-135,184 L-149,194 L-162,204 L-176,215 L-185,222 L-185,224 L-189,226 L-203,238 L-215,249 L-225,258 L-237,269 L-246,277 L-246,279 L-250,281 L-287,318 L-294,326 L-301,333 L-308,341 L-324,358 L-333,368 L-349,385 L-358,395 L-370,408 L-372,412 L-374,412 L-381,420 L-385,424 L-385,426 L-387,426 L-394,434 L-401,442 L-406,447 L-421,462 L-421,464 L-423,464 L-423,466 L-425,466 L-432,474 L-454,496 L-460,503 L-465,508 L-470,513 L-484,527 L-491,533 L-496,539 L-500,542 L-500,544 L-504,546 L-514,554 L-526,560 L-537,563 L-550,564 L-564,562 L-577,558 L-588,551 L-595,545 L-603,535 L-609,523 L-612,511 L-613,501 L-612,487 L-609,476 L-603,465 L-597,457 L-597,455 L-593,453 L-593,451 L-589,449 L-547,407 L-547,405 L-543,403 L-542,400 L-540,400 L-540,398 L-538,398 L-531,390 L-513,372 L-506,364 L-493,351 L-486,343 L-477,334 L-470,326 L-456,311 L-455,308 L-453,308 L-454,293 L-457,281 L-465,268 L-475,267 L-487,269 L-500,274 L-511,280 L-527,291 L-541,302 L-552,312 L-554,313 L-554,315 L-558,317 L-573,332 L-573,334 L-575,334 L-582,342 L-595,357 L-609,374 L-617,384 L-626,395 L-634,405 L-645,418 L-654,429 L-665,441 L-672,449 L-681,459 L-690,470 L-699,481 L-709,496 L-718,512 L-726,528 L-735,553 L-741,575 L-746,606 L-747,620 L-749,637 L-750,643 L-743,650 L-741,650 L-739,654 L-731,661 L-692,700 L-684,707 L-645,746 L-637,753 L-597,793 L-589,800 L-546,843 L-538,850 L-498,890 L-490,897 L-450,937 L-448,937 L-447,940 L-439,947 L-399,987 L-391,994 L-353,1032 L-337,1028 L-297,1023 L-282,1019 L-265,1018 L-240,1013 L-219,1007 L-195,997 L-180,988 L-166,977 L-156,969 L-146,960 L-135,951 L-124,941 L-116,934 L-106,925 L-89,909 L-77,897 L-70,891 L-70,889 L-66,887 L-44,865 L-42,864 L-42,862 L-38,860 L-4,826 L-2,825 L-2,823 L0,823 L5,818 L5,816 L7,816 L7,814 L11,812 L14,809 L14,807 L18,805 L37,786 L37,784 L39,784 L42,781 L42,779 L44,779 L49,773 L54,768 L124,698 L131,690 L148,673 L155,665 L169,650 L176,642 L187,629 L199,614 L212,596 L228,573 L245,545 L259,518 L269,493 L277,469 L284,439 L288,415 L290,391 L290,362 L288,341 L282,315 L274,292 L264,271 L259,263 L254,254 L242,238 L240,235 L238,235 L236,231 L225,219 L208,202 L197,193 L185,183 L167,170 L149,159 L130,149 L111,142 L90,136 L74,133 L47,130 Z M-816,761 L-828,774 L-837,784 L-845,792 L-852,800 L-901,849 L-899,853 L-891,861 L-886,867 L-884,867 L-884,869 L-882,869 L-880,873 L-836,917 L-829,911 L-769,851 L-769,849 L-766,848 L-759,840 L-747,828 L-749,824 L-757,817 L-792,782 L-800,775 L-814,761 Z M-655,919 L-684,948 L-690,955 L-695,960 L-744,1009 L-742,1013 L-737,1018 L-711,1044 L-707,1042 L-682,1017 L-674,1010 L-658,994 L-647,985 L-637,975 L-629,968 L-617,956 L-619,952 L-646,925 L-653,919 Z M-524,1046 L-538,1060 L-546,1067 L-556,1077 L-564,1084 L-577,1096 L-590,1108 L-608,1126 L-616,1133 L-619,1137 L-598,1158 L-591,1166 L-551,1206 L-547,1204 L-537,1194 L-529,1187 L-522,1180 L-518,1177 L-518,1175 L-514,1173 L-507,1167 L-502,1162 L-493,1153 L-490,1151 L-490,1149 L-486,1147 L-478,1140 L-473,1135 L-465,1127 L-457,1120 L-453,1116 L-459,1109 L-500,1068 L-508,1061 L-523,1046 Z " fill="#101010" transform="translate(1315,362)"/>
</svg>
