<?xml version="1.0" encoding="UTF-8"?>
<!-- Generator: visioncortex VTracer 0.6.12 -->
<svg version="1.1" xmlns="http://www.w3.org/2000/svg" width="2048" height="2048">
<path d="M0,0 L1249,0 L1272,3 L1293,8 L1312,15 L1323,20 L1338,28 L1355,40 L1365,49 L1373,56 L1383,67 L1397,86 L1407,104 L1416,123 L1424,148 L1431,176 L1433,188 L1433,209 L1432,214 L1431,257 L1428,647 L1425,1035 L1422,1411 L1420,1677 L1419,1706 L1415,1731 L1409,1751 L1396,1779 L1389,1791 L1377,1807 L1366,1819 L1358,1827 L1347,1836 L1330,1848 L1307,1860 L1295,1865 L1278,1871 L1257,1876 L1236,1879 L1217,1880 L1096,1880 L61,1884 L30,1884 L11,1881 L-9,1876 L-27,1869 L-40,1863 L-57,1854 L-75,1842 L-85,1835 L-85,1833 L-89,1831 L-91,1830 L-91,1828 L-95,1826 L-107,1815 L-119,1803 L-128,1792 L-141,1775 L-153,1755 L-161,1740 L-171,1714 L-177,1689 L-180,1671 L-181,1662 L-183,1255 L-187,390 L-187,199 L-184,171 L-179,148 L-173,129 L-165,109 L-155,90 L-147,78 L-136,64 L-130,57 L-122,50 L-118,48 L-116,44 L-100,32 L-87,24 L-67,15 L-46,8 L-26,4 Z M18,128 L-6,130 L-21,134 L-33,141 L-41,149 L-49,162 L-55,178 L-59,198 L-60,208 L-60,296 L-58,716 L-56,1149 L-54,1574 L-53,1658 L-50,1673 L-45,1686 L-37,1701 L-27,1714 L-23,1719 L-21,1719 L-21,1721 L-19,1721 L-17,1725 L-15,1725 L-15,1727 L-4,1736 L11,1746 L26,1753 L36,1756 L189,1756 L438,1755 L705,1754 L954,1753 L1213,1752 L1225,1752 L1241,1749 L1256,1743 L1266,1737 L1278,1727 L1285,1717 L1289,1708 L1292,1692 L1294,1463 L1296,1197 L1300,682 L1302,423 L1303,291 L1304,192 L1300,177 L1293,161 L1286,150 L1276,140 L1264,133 L1251,129 L1246,128 Z " fill="#101010" transform="translate(398,85)"/>
<path d="M0,0 L22,0 L60,2 L97,6 L137,13 L161,18 L184,24 L220,36 L246,45 L276,58 L289,65 L299,69 L310,75 L328,85 L335,90 L347,96 L359,104 L370,112 L384,121 L399,133 L412,143 L420,149 L420,151 L424,153 L427,155 L427,157 L431,159 L436,164 L444,170 L444,172 L448,174 L461,187 L466,192 L477,203 L484,211 L493,221 L502,232 L513,246 L523,259 L536,277 L546,293 L553,303 L567,328 L581,354 L587,367 L600,396 L610,422 L622,460 L629,487 L635,514 L637,525 L639,542 L644,577 L646,601 L647,625 L647,650 L645,688 L641,724 L635,763 L626,801 L616,834 L607,861 L597,885 L587,907 L576,930 L560,959 L549,977 L539,992 L533,1002 L527,1014 L516,1028 L506,1041 L492,1059 L486,1067 L474,1076 L460,1083 L454,1084 L444,1086 L437,1086 L415,1081 L410,1079 L410,1077 L406,1076 L398,1070 L392,1065 L383,1052 L380,1046 L379,1042 L376,1028 L376,1016 L380,998 L386,987 L394,976 L405,962 L415,949 L426,935 L429,934 L431,930 L442,913 L452,897 L461,881 L466,871 L474,855 L483,836 L494,805 L504,775 L511,747 L518,705 L521,677 L522,661 L522,611 L519,575 L513,537 L508,513 L499,483 L487,450 L483,439 L471,413 L463,398 L455,382 L445,366 L436,352 L427,339 L411,318 L402,307 L390,293 L386,289 L386,287 L384,287 L377,279 L364,266 L356,259 L343,247 L331,238 L331,236 L327,234 L319,228 L310,221 L305,217 L297,213 L281,202 L265,192 L249,184 L230,174 L212,166 L176,152 L144,142 L102,133 L78,129 L49,126 L33,125 L-12,125 L-51,128 L-79,132 L-118,141 L-134,145 L-167,156 L-191,166 L-204,171 L-241,190 L-263,203 L-280,215 L-291,222 L-307,235 L-319,244 L-332,256 L-340,263 L-350,272 L-355,278 L-361,283 L-363,286 L-365,286 L-367,290 L-378,302 L-387,313 L-393,320 L-403,334 L-410,343 L-419,357 L-432,378 L-443,396 L-448,408 L-456,424 L-467,449 L-473,467 L-483,497 L-492,533 L-498,572 L-501,602 L-502,622 L-502,653 L-500,686 L-496,720 L-492,744 L-484,774 L-472,810 L-465,830 L-454,854 L-438,887 L-424,909 L-417,921 L-404,939 L-394,952 L-384,965 L-373,977 L-364,988 L-353,999 L-346,1005 L-339,1013 L-335,1016 L-335,1018 L-331,1020 L-320,1029 L-309,1039 L-299,1046 L-284,1057 L-268,1068 L-254,1076 L-239,1085 L-228,1091 L-214,1098 L-183,1112 L-163,1120 L-143,1126 L-127,1130 L-54,1145 L-43,1149 L-32,1155 L-20,1166 L-18,1171 L-16,1171 L-16,1174 L-14,1174 L-12,1178 L-12,1182 L-10,1182 L-5,1204 L-5,1212 L-8,1227 L-13,1239 L-20,1249 L-22,1249 L-23,1252 L-25,1252 L-27,1256 L-37,1263 L-40,1263 L-40,1265 L-52,1269 L-62,1271 L-78,1271 L-104,1266 L-161,1254 L-172,1250 L-181,1245 L-208,1236 L-252,1218 L-269,1210 L-288,1200 L-309,1189 L-320,1182 L-344,1167 L-359,1156 L-368,1150 L-368,1148 L-373,1146 L-383,1139 L-383,1137 L-388,1135 L-395,1128 L-405,1120 L-412,1115 L-412,1113 L-416,1111 L-418,1107 L-422,1105 L-430,1097 L-438,1090 L-443,1085 L-443,1083 L-447,1081 L-454,1073 L-467,1060 L-473,1052 L-484,1040 L-495,1025 L-506,1011 L-519,992 L-535,967 L-543,954 L-551,938 L-556,930 L-564,914 L-570,900 L-581,875 L-591,849 L-604,806 L-612,774 L-619,736 L-624,693 L-626,667 L-626,607 L-623,568 L-618,529 L-612,499 L-605,471 L-595,439 L-590,422 L-579,395 L-566,365 L-558,349 L-549,332 L-539,314 L-525,292 L-511,270 L-505,263 L-495,249 L-490,242 L-488,242 L-486,237 L-477,227 L-470,218 L-468,218 L-466,214 L-462,209 L-460,209 L-458,205 L-454,200 L-448,195 L-441,187 L-429,175 L-421,168 L-411,159 L-396,146 L-382,135 L-365,122 L-355,115 L-343,107 L-328,97 L-299,80 L-275,67 L-266,63 L-238,50 L-215,41 L-186,31 L-153,21 L-133,16 L-84,7 L-52,3 L-25,1 Z " fill="#101010" transform="translate(1007,304)"/>
<path d="M0,0 L30,0 L54,2 L89,9 L95,11 L110,15 L118,18 L138,26 L148,31 L164,39 L176,46 L176,48 L182,50 L192,57 L195,59 L195,61 L200,63 L211,72 L221,81 L226,86 L231,90 L236,95 L241,101 L244,104 L250,111 L252,116 L256,118 L258,123 L260,123 L266,132 L271,139 L271,142 L274,143 L282,157 L285,163 L293,179 L297,189 L302,201 L302,205 L304,205 L309,224 L312,233 L315,248 L317,256 L320,282 L320,320 L317,360 L314,373 L310,392 L308,392 L307,400 L304,411 L300,421 L291,442 L285,454 L283,454 L280,463 L275,471 L267,483 L260,493 L258,493 L256,498 L245,511 L240,516 L236,522 L231,527 L227,528 L225,532 L218,538 L214,542 L209,544 L207,548 L202,550 L201,553 L196,556 L194,556 L193,559 L186,563 L177,569 L175,569 L175,571 L167,575 L165,575 L165,577 L142,588 L133,592 L125,596 L112,600 L108,600 L108,602 L87,607 L82,609 L57,613 L47,615 L35,616 L12,616 L-18,615 L-37,612 L-51,609 L-61,608 L-67,606 L-82,602 L-90,599 L-103,594 L-116,589 L-135,579 L-146,573 L-160,564 L-175,553 L-177,552 L-177,550 L-181,548 L-192,539 L-196,536 L-196,534 L-199,533 L-204,528 L-209,523 L-211,521 L-211,518 L-216,516 L-219,511 L-224,506 L-228,501 L-236,491 L-237,487 L-239,487 L-250,469 L-250,467 L-252,467 L-258,456 L-266,441 L-270,432 L-276,416 L-279,409 L-282,398 L-285,389 L-288,375 L-290,369 L-294,338 L-295,334 L-295,293 L-291,255 L-289,242 L-287,236 L-283,219 L-280,211 L-277,201 L-273,192 L-268,180 L-260,163 L-258,160 L-256,160 L-255,155 L-252,149 L-250,149 L-248,143 L-242,134 L-231,119 L-227,113 L-223,109 L-216,101 L-209,94 L-204,89 L-200,85 L-198,85 L-196,81 L-191,76 L-187,75 L-187,73 L-185,73 L-184,70 L-176,64 L-166,56 L-160,54 L-160,52 L-153,48 L-150,48 L-149,45 L-138,39 L-123,31 L-110,25 L-101,23 L-101,21 L-85,16 L-77,13 L-65,10 L-60,8 L-37,4 L-28,2 Z M15,153 L-4,154 L-24,157 L-46,164 L-56,169 L-61,171 L-61,173 L-67,175 L-71,177 L-71,179 L-76,181 L-87,189 L-90,192 L-95,197 L-100,202 L-111,214 L-113,218 L-116,221 L-125,237 L-125,239 L-127,239 L-132,253 L-136,263 L-141,284 L-142,290 L-142,322 L-140,338 L-135,356 L-132,364 L-127,377 L-125,377 L-122,386 L-117,393 L-114,398 L-111,403 L-109,403 L-109,405 L-105,409 L-102,413 L-100,413 L-98,417 L-94,419 L-93,422 L-91,422 L-91,424 L-80,432 L-77,435 L-64,443 L-60,444 L-60,446 L-49,450 L-47,450 L-47,452 L-12,463 L-4,465 L4,465 L6,464 L33,462 L51,459 L72,452 L82,447 L93,441 L105,433 L113,427 L114,425 L117,424 L121,419 L126,414 L126,412 L130,410 L134,404 L137,401 L144,391 L146,385 L148,385 L157,366 L162,352 L166,333 L167,331 L168,321 L168,298 L167,287 L164,274 L161,261 L157,251 L153,242 L148,232 L141,221 L136,213 L134,213 L132,209 L123,199 L118,194 L111,188 L107,185 L105,185 L105,183 L94,176 L80,168 L65,162 L55,159 L49,157 L32,154 Z " fill="#101010" transform="translate(1009,650)"/>
<path d="M0,0 L21,1 L48,6 L79,15 L114,28 L154,45 L181,57 L221,75 L262,94 L291,107 L336,127 L377,145 L412,161 L446,177 L473,191 L492,203 L508,216 L521,229 L531,242 L537,252 L544,266 L547,278 L549,287 L553,300 L554,312 L552,328 L546,352 L535,384 L527,400 L519,412 L509,425 L497,438 L486,448 L475,456 L464,463 L445,472 L426,478 L411,481 L401,482 L378,482 L358,479 L322,467 L306,459 L288,448 L272,436 L258,425 L247,415 L239,408 L229,399 L216,387 L204,375 L196,368 L182,354 L174,347 L164,337 L156,330 L147,321 L139,314 L124,300 L112,289 L101,279 L93,272 L81,261 L73,254 L61,243 L53,236 L43,227 L33,218 L25,211 L15,202 L4,192 L-4,185 L-19,171 L-26,165 L-26,163 L-30,161 L-38,153 L-38,151 L-40,151 L-47,143 L-57,131 L-65,119 L-73,102 L-77,87 L-78,75 L-77,62 L-73,49 L-68,38 L-62,29 L-60,26 L-58,26 L-58,24 L-56,24 L-56,22 L-44,13 L-30,6 L-21,3 Z M222,216 Z M223,217 L229,224 L237,231 L242,236 L244,236 L244,238 L252,245 L259,252 L267,259 L281,273 L289,280 L304,295 L312,302 L319,309 L327,316 L342,329 L355,339 L369,348 L380,353 L384,354 L396,354 L404,350 L413,341 L419,331 L421,327 L419,308 L406,300 L383,288 L355,275 L320,259 L290,246 L261,233 L234,221 L225,217 Z " fill="#101010" transform="translate(1048,1282)"/>
<path d="M0,0 L15,0 L31,4 L40,9 L48,15 L55,21 L65,35 L69,43 L72,52 L73,62 L73,77 L69,92 L66,99 L64,99 L62,104 L55,113 L53,113 L52,116 L42,123 L31,128 L25,130 L18,131 L-1,131 L-15,127 L-29,119 L-34,114 L-42,106 L-49,96 L-50,91 L-52,91 L-56,79 L-57,68 L-57,54 L-53,39 L-50,32 L-48,32 L-46,26 L-42,21 L-34,14 L-26,8 L-18,4 L-8,1 Z " fill="#101010" transform="translate(457,273)"/>
<path d="M0,0 L16,0 L31,4 L40,9 L49,15 L54,19 L54,21 L56,21 L66,35 L71,47 L73,56 L74,67 L73,78 L71,87 L67,96 L63,102 L58,109 L56,109 L55,112 L53,112 L52,115 L50,115 L50,117 L43,121 L41,121 L41,123 L31,127 L20,130 L1,130 L-12,127 L-31,116 L-40,107 L-47,97 L-53,84 L-56,71 L-56,55 L-51,39 L-43,24 L-38,19 L-35,16 L-33,16 L-33,14 L-28,11 L-26,11 L-26,9 L-13,3 Z " fill="#101010" transform="translate(456,1659)"/>
<path d="M0,0 L10,0 L20,2 L33,6 L42,11 L42,13 L47,15 L47,17 L50,18 L50,20 L53,21 L53,23 L56,24 L66,42 L69,54 L69,74 L67,82 L62,94 L57,102 L48,112 L43,116 L28,124 L18,127 L11,128 L-2,128 L-12,126 L-22,123 L-30,119 L-30,117 L-35,115 L-37,114 L-37,112 L-40,111 L-40,109 L-43,108 L-47,103 L-53,93 L-57,85 L-60,70 L-60,55 L-57,44 L-53,35 L-48,26 L-46,26 L-44,21 L-42,21 L-41,18 L-36,14 L-31,12 L-31,10 L-24,6 L-12,2 Z " fill="#101010" transform="translate(1013,901)"/>
<path d="M0,0 L14,0 L28,3 L42,10 L44,11 L44,13 L49,15 L50,18 L53,19 L57,24 L60,29 L60,31 L62,31 L67,41 L70,53 L71,64 L69,80 L62,96 L58,103 L56,103 L55,106 L53,106 L51,110 L46,114 L38,120 L29,124 L21,127 L14,128 L-4,128 L-19,124 L-32,117 L-32,115 L-37,113 L-38,110 L-41,109 L-45,104 L-55,87 L-58,74 L-58,53 L-54,40 L-47,27 L-42,22 L-37,17 L-35,17 L-34,14 L-17,4 L-7,1 Z " fill="#101010" transform="translate(1561,271)"/>
</svg>
