<?xml version="1.0" encoding="UTF-8"?>
<!-- Generator: visioncortex VTracer 0.6.12 -->
<svg version="1.1" xmlns="http://www.w3.org/2000/svg" width="2048" height="2048">
<path d="M0,0 L21,0 L38,3 L58,10 L82,23 L93,32 L98,36 L98,38 L102,40 L111,50 L120,63 L129,78 L138,99 L143,114 L146,131 L147,152 L145,170 L142,182 L131,207 L123,222 L113,235 L101,248 L90,258 L78,266 L61,274 L43,281 L40,281 L41,290 L43,337 L42,379 L39,418 L33,464 L28,492 L20,524 L6,567 L-5,595 L-18,623 L-30,645 L-46,671 L-62,694 L-72,707 L-83,721 L-95,735 L-106,747 L-114,756 L-116,756 L-118,760 L-121,763 L-123,763 L-123,765 L-125,765 L-125,767 L-133,774 L-141,782 L-149,789 L-163,801 L-174,810 L-185,819 L-199,830 L-212,840 L-224,849 L-238,860 L-251,871 L-260,879 L-262,879 L-262,881 L-267,886 L-269,886 L-271,890 L-281,901 L-291,917 L-298,932 L-301,944 L-301,961 L-296,971 L-287,981 L-277,989 L-264,997 L-238,1012 L-217,1025 L-197,1039 L-178,1053 L-162,1066 L-147,1079 L-134,1091 L-104,1121 L-97,1129 L-88,1139 L-79,1150 L-66,1166 L-64,1171 L-62,1171 L-51,1187 L-41,1202 L-29,1221 L-23,1232 L-13,1250 L-5,1268 L0,1278 L9,1299 L21,1335 L27,1359 L33,1390 L38,1429 L41,1468 L43,1525 L43,1569 L42,1596 L41,1602 L50,1605 L68,1612 L81,1619 L92,1627 L102,1636 L109,1643 L117,1653 L124,1663 L133,1680 L143,1704 L146,1719 L147,1731 L146,1752 L142,1772 L135,1792 L127,1808 L119,1822 L109,1835 L100,1845 L98,1845 L96,1849 L79,1862 L58,1873 L34,1881 L21,1883 L0,1883 L-6,1882 L-994,1876 L-1014,1874 L-1036,1868 L-1045,1865 L-1060,1858 L-1076,1849 L-1092,1836 L-1105,1823 L-1114,1810 L-1120,1800 L-1128,1780 L-1133,1761 L-1134,1754 L-1134,1724 L-1130,1702 L-1123,1681 L-1112,1658 L-1104,1646 L-1093,1633 L-1091,1633 L-1090,1630 L-1076,1619 L-1062,1611 L-1045,1603 L-1037,1601 L-1038,1594 L-1039,1567 L-1039,1521 L-1037,1468 L-1034,1429 L-1029,1390 L-1022,1354 L-1014,1325 L-1005,1299 L-998,1282 L-991,1268 L-986,1257 L-978,1241 L-969,1225 L-961,1211 L-945,1187 L-934,1171 L-932,1171 L-930,1166 L-920,1154 L-911,1143 L-902,1133 L-895,1125 L-884,1113 L-854,1083 L-846,1076 L-832,1064 L-818,1053 L-802,1041 L-782,1027 L-761,1014 L-742,1003 L-725,993 L-711,983 L-702,974 L-696,964 L-695,961 L-695,944 L-699,929 L-709,910 L-717,899 L-727,888 L-727,886 L-729,886 L-734,881 L-734,879 L-738,877 L-749,867 L-763,856 L-777,845 L-793,833 L-808,821 L-822,810 L-836,798 L-847,789 L-864,773 L-871,767 L-871,765 L-873,765 L-873,763 L-877,761 L-880,758 L-880,756 L-884,754 L-893,744 L-905,731 L-914,720 L-922,710 L-931,698 L-944,680 L-958,658 L-972,634 L-983,613 L-996,583 L-1008,549 L-1018,517 L-1025,487 L-1030,457 L-1035,417 L-1038,379 L-1039,336 L-1037,288 L-1036,282 L-1042,281 L-1060,273 L-1073,266 L-1085,257 L-1091,252 L-1091,250 L-1094,249 L-1103,238 L-1110,228 L-1121,207 L-1128,188 L-1132,172 L-1134,159 L-1134,129 L-1131,114 L-1126,97 L-1118,79 L-1110,67 L-1102,57 L-1089,44 L-1073,32 L-1054,22 L-1047,19 L-1036,15 L-1027,12 L-1008,8 L-995,7 L-6,1 Z M-123,129 L-782,133 L-975,134 L-996,136 L-1006,141 L-1009,146 L-1009,153 L-1003,158 L-148,157 L-94,157 L10,156 L15,154 L19,148 L19,139 L16,132 L14,130 L10,129 Z M-679,284 L-909,285 L-911,323 L-911,364 L-909,394 L-905,430 L-899,467 L-893,492 L-886,514 L-877,538 L-865,563 L-855,582 L-843,601 L-832,617 L-818,636 L-809,646 L-802,654 L-793,664 L-774,683 L-766,690 L-756,699 L-745,708 L-733,718 L-716,731 L-698,745 L-685,755 L-671,766 L-656,779 L-652,781 L-652,783 L-644,790 L-629,805 L-620,816 L-609,830 L-598,847 L-589,863 L-578,890 L-572,911 L-568,930 L-567,941 L-567,966 L-570,987 L-575,1005 L-583,1024 L-596,1045 L-604,1055 L-613,1065 L-617,1070 L-625,1077 L-634,1085 L-651,1097 L-669,1108 L-695,1123 L-715,1136 L-732,1148 L-745,1158 L-756,1167 L-769,1179 L-779,1188 L-794,1203 L-801,1211 L-812,1223 L-823,1237 L-832,1248 L-846,1268 L-857,1286 L-867,1304 L-875,1320 L-883,1338 L-891,1359 L-899,1389 L-904,1417 L-907,1442 L-910,1482 L-911,1510 L-911,1571 L-906,1569 L-899,1565 L-891,1563 L-876,1555 L-863,1545 L-847,1532 L-833,1521 L-824,1513 L-813,1504 L-797,1489 L-787,1480 L-745,1438 L-738,1430 L-731,1424 L-726,1419 L-721,1414 L-706,1399 L-695,1390 L-683,1379 L-666,1366 L-653,1356 L-638,1346 L-614,1332 L-593,1322 L-568,1313 L-548,1308 L-528,1305 L-515,1304 L-501,1304 L-476,1306 L-450,1311 L-428,1318 L-407,1326 L-387,1335 L-368,1345 L-352,1354 L-336,1364 L-320,1375 L-303,1387 L-282,1403 L-268,1414 L-252,1427 L-237,1439 L-220,1452 L-203,1465 L-178,1481 L-163,1490 L-149,1497 L-135,1505 L-109,1517 L-95,1524 L-85,1528 L-85,1508 L-87,1465 L-90,1432 L-95,1399 L-102,1369 L-109,1348 L-119,1324 L-127,1308 L-137,1289 L-148,1271 L-162,1251 L-172,1238 L-183,1225 L-192,1214 L-201,1205 L-208,1197 L-224,1181 L-232,1174 L-243,1164 L-252,1157 L-268,1145 L-290,1130 L-308,1119 L-334,1104 L-351,1093 L-364,1083 L-374,1074 L-380,1069 L-387,1061 L-398,1048 L-410,1029 L-416,1017 L-422,1002 L-427,982 L-429,966 L-429,941 L-427,924 L-420,896 L-414,880 L-404,857 L-390,834 L-376,816 L-363,801 L-346,784 L-344,783 L-344,781 L-340,779 L-329,769 L-315,758 L-297,744 L-280,731 L-266,720 L-256,712 L-242,700 L-231,691 L-224,684 L-216,677 L-196,657 L-189,649 L-178,636 L-164,617 L-153,601 L-140,580 L-126,553 L-118,536 L-108,509 L-100,481 L-94,450 L-89,414 L-86,380 L-85,362 L-85,321 L-87,285 L-88,284 Z M-1003,1725 L-1009,1730 L-1009,1737 L-1005,1743 L-995,1747 L-974,1749 L-941,1749 L-112,1754 L10,1754 L15,1752 L18,1747 L19,1744 L19,1735 L15,1729 L11,1727 L-95,1726 L-176,1726 Z " fill="#101010" transform="translate(1522,91)"/>
<path d="M0,0 L7,0 L25,4 L35,9 L41,13 L57,26 L76,38 L97,50 L113,58 L131,66 L159,76 L183,83 L218,90 L259,96 L294,99 L357,99 L375,103 L390,111 L402,122 L409,131 L415,143 L419,159 L419,169 L414,182 L405,193 L395,203 L387,210 L374,222 L366,229 L352,241 L339,253 L328,262 L317,272 L303,283 L288,295 L270,308 L241,327 L239,328 L222,328 L207,322 L193,311 L179,300 L160,286 L141,272 L123,258 L107,245 L93,234 L76,220 L65,211 L51,199 L40,190 L25,177 L14,167 L6,160 L-7,147 L-9,146 L-9,144 L-13,142 L-23,132 L-30,124 L-38,116 L-44,108 L-52,98 L-58,86 L-61,74 L-61,57 L-57,40 L-52,30 L-50,30 L-49,26 L-47,23 L-45,23 L-45,21 L-43,21 L-41,17 L-37,15 L-37,13 L-25,6 L-14,2 Z " fill="#101010" transform="translate(801,595)"/>
<path d="M0,0 L16,0 L32,4 L40,8 L50,15 L58,23 L64,31 L70,43 L73,57 L73,74 L69,89 L63,101 L61,101 L59,106 L56,107 L55,110 L53,110 L51,114 L33,125 L15,129 L6,129 L-7,127 L-20,122 L-27,118 L-27,116 L-32,114 L-37,109 L-37,107 L-41,105 L-51,88 L-54,79 L-55,73 L-55,53 L-51,39 L-43,25 L-41,25 L-39,20 L-32,14 L-26,10 L-10,2 Z " fill="#101010" transform="translate(1017,1203)"/>
</svg>
