<?xml version="1.0" encoding="UTF-8"?>
<!-- Generator: visioncortex VTracer 0.6.12 -->
<svg version="1.1" xmlns="http://www.w3.org/2000/svg" width="2048" height="2048">
<path d="M0,0 L19,0 L33,1 L43,5 L53,11 L56,13 L56,15 L61,17 L72,26 L85,36 L95,44 L106,53 L117,61 L117,63 L122,65 L129,71 L139,79 L148,86 L159,95 L162,98 L167,101 L178,110 L191,120 L202,129 L576,130 L587,132 L598,137 L611,146 L611,148 L615,150 L624,164 L628,173 L630,183 L631,196 L631,231 L630,340 L630,468 L642,478 L652,486 L665,496 L674,503 L675,505 L680,508 L688,514 L692,518 L703,526 L714,535 L728,546 L742,557 L749,563 L757,569 L769,574 L780,580 L780,582 L784,584 L793,594 L793,597 L795,597 L800,608 L803,621 L804,686 L806,1055 L809,1571 L809,1580 L808,1582 L893,1582 L914,1589 L923,1595 L923,1597 L927,1599 L927,1601 L931,1603 L938,1613 L942,1623 L944,1629 L945,1636 L945,1646 L943,1659 L940,1669 L934,1679 L928,1686 L922,1691 L920,1691 L919,1694 L914,1695 L914,1697 L903,1701 L887,1704 L280,1702 L-268,1702 L-868,1704 L-884,1701 L-895,1697 L-901,1693 L-901,1691 L-906,1689 L-913,1682 L-919,1672 L-919,1670 L-921,1670 L-925,1659 L-927,1644 L-926,1631 L-923,1620 L-915,1607 L-906,1597 L-904,1597 L-902,1593 L-890,1587 L-874,1582 L-790,1581 L-789,1387 L-788,1211 L-787,929 L-786,711 L-785,621 L-783,613 L-776,597 L-774,597 L-773,593 L-766,585 L-759,579 L-743,571 L-737,568 L-727,560 L-714,549 L-708,545 L-696,535 L-690,531 L-681,523 L-670,515 L-659,506 L-646,496 L-635,487 L-621,476 L-610,467 L-601,460 L-585,447 L-577,441 L-564,431 L-553,422 L-542,413 L-528,402 L-515,392 L-504,383 L-491,373 L-484,367 L-476,361 L-465,352 L-451,341 L-442,334 L-431,325 L-422,319 L-417,314 L-408,308 L-403,303 L-394,296 L-383,287 L-371,278 L-369,278 L-368,275 L-359,268 L-351,262 L-347,260 L-347,258 L-337,251 L-325,241 L-309,229 L-306,226 L-295,218 L-290,213 L-279,205 L-271,198 L-265,194 L-258,188 L-256,188 L-256,186 L-240,174 L-230,166 L-219,157 L-211,151 L-199,141 L-190,134 L-188,134 L-188,132 L-172,120 L-162,112 L-151,103 L-146,99 L-143,99 L-142,96 L-128,85 L-123,81 L-121,81 L-121,79 L-112,72 L-104,66 L-100,63 L-98,63 L-96,59 L-85,51 L-78,45 L-70,39 L-59,30 L-51,24 L-36,12 L-25,5 L-14,1 Z M8,133 L-3,142 L-17,153 L-23,157 L-23,159 L-27,161 L-36,168 L-46,176 L-55,183 L-66,192 L-76,200 L-85,207 L-98,217 L-106,224 L-113,228 L-118,233 L-124,238 L-137,248 L-153,261 L-155,262 L-155,264 L-159,266 L-167,272 L-177,280 L-183,284 L-183,286 L-187,288 L-189,289 L-189,291 L-193,293 L-197,295 L-197,297 L-201,299 L-215,310 L-226,319 L-234,324 L-239,329 L-246,335 L-257,343 L-257,345 L-262,347 L-273,356 L-283,364 L-296,374 L-296,376 L-301,378 L-310,385 L-310,387 L-314,389 L-324,396 L-333,404 L-341,410 L-347,414 L-352,419 L-363,427 L-372,435 L-377,438 L-387,447 L-398,455 L-409,464 L-423,475 L-432,482 L-443,491 L-452,498 L-465,508 L-472,514 L-480,520 L-491,529 L-505,539 L-510,544 L-520,551 L-525,556 L-531,561 L-535,563 L-539,567 L-553,578 L-564,587 L-577,597 L-584,603 L-589,606 L-599,615 L-610,623 L-618,629 L-621,632 L-633,641 L-637,645 L-648,653 L-648,655 L-652,657 L-662,664 L-663,665 L-665,1000 L-667,1378 L-668,1552 L-668,1582 L-596,1582 L-291,1581 L-263,1580 L-262,1413 L-261,1256 L-256,1235 L-252,1222 L-245,1209 L-239,1204 L-234,1198 L-221,1191 L-208,1187 L-195,1186 L-154,1186 L-12,1185 L53,1185 L216,1186 L230,1188 L242,1192 L252,1198 L255,1199 L255,1201 L260,1205 L265,1211 L273,1227 L279,1251 L280,1288 L281,1580 L321,1581 L620,1582 L687,1582 L687,1552 L685,1197 L682,667 L681,664 L667,654 L656,645 L645,636 L640,632 L631,625 L621,617 L616,613 L614,613 L614,611 L606,605 L593,595 L587,590 L577,582 L564,572 L562,572 L560,568 L549,560 L547,560 L546,557 L538,551 L525,541 L515,533 L506,526 L499,520 L493,516 L481,506 L471,498 L466,494 L464,494 L464,492 L458,488 L456,488 L456,486 L452,483 L450,483 L448,479 L440,474 L436,472 L436,470 L428,464 L424,461 L422,461 L422,459 L413,452 L411,452 L411,450 L403,444 L394,437 L381,427 L374,421 L366,415 L356,407 L345,398 L343,398 L343,396 L332,388 L317,376 L306,367 L298,361 L295,360 L295,358 L283,349 L276,344 L272,340 L260,331 L254,326 L251,323 L246,320 L236,311 L226,304 L219,298 L206,288 L196,280 L187,273 L185,273 L183,269 L170,260 L165,255 L156,249 L151,244 L143,238 L134,231 L132,231 L131,228 L118,219 L113,214 L110,213 L110,211 L101,205 L92,197 L87,194 L74,183 L65,176 L56,169 L47,162 L39,155 L33,151 L21,141 L13,135 L11,133 Z M357,252 L360,255 L371,264 L376,268 L387,276 L392,281 L403,289 L411,296 L419,302 L429,310 L440,319 L456,331 L462,336 L463,338 L470,342 L480,351 L486,355 L498,365 L507,371 L508,252 Z M-140,1307 L-141,1392 L-141,1580 L159,1580 L159,1361 L158,1307 Z " fill="#101010" transform="translate(1025,166)"/>
<path d="M0,0 L17,2 L28,6 L37,11 L45,17 L51,25 L51,27 L53,27 L61,43 L63,51 L63,122 L57,377 L56,408 L51,419 L35,424 L21,425 L-245,425 L-284,426 L-298,427 L-310,425 L-323,420 L-334,412 L-338,409 L-338,407 L-341,406 L-343,400 L-346,399 L-349,394 L-354,381 L-356,367 L-358,262 L-362,109 L-362,75 L-357,58 L-350,43 L-346,36 L-340,27 L-332,21 L-330,21 L-330,19 L-314,11 L-303,8 L-143,5 L-35,3 L-13,2 Z M-92,126 L-209,128 L-239,129 L-239,150 L-235,303 L-57,303 L-57,276 L-58,154 L-59,126 Z " fill="#101010" transform="translate(876,805)"/>
<path d="M0,0 L13,1 L18,2 L46,3 L263,7 L308,8 L319,11 L335,19 L335,21 L340,23 L344,27 L344,29 L346,29 L347,33 L349,33 L355,44 L359,53 L365,67 L367,77 L367,107 L361,338 L360,371 L357,384 L352,397 L346,404 L344,407 L342,407 L340,411 L335,415 L323,422 L310,426 L296,427 L288,426 L257,425 L-9,425 L-31,424 L-44,420 L-47,418 L-51,410 L-54,294 L-58,125 L-59,59 L-56,43 L-48,27 L-42,19 L-40,19 L-40,17 L-31,10 L-19,4 L-8,1 Z M63,126 L62,164 L62,303 L239,303 L240,302 L244,150 L244,129 L213,128 L97,126 Z " fill="#101010" transform="translate(1188,805)"/>
</svg>
