<?xml version="1.0" encoding="UTF-8"?>
<!-- Generator: visioncortex VTracer 0.6.12 -->
<svg version="1.1" xmlns="http://www.w3.org/2000/svg" width="2048" height="2048">
<path d="M0,0 L36,0 L52,5 L62,10 L72,18 L82,29 L91,40 L104,55 L113,66 L120,75 L132,88 L141,99 L152,112 L161,123 L175,140 L183,150 L194,164 L207,180 L221,199 L235,217 L251,238 L265,257 L275,270 L291,291 L301,305 L313,322 L325,339 L338,357 L350,374 L363,392 L379,416 L389,430 L404,453 L418,475 L436,502 L450,524 L462,543 L477,567 L489,586 L502,608 L509,620 L515,631 L531,659 L541,676 L551,694 L564,718 L576,741 L586,760 L603,794 L608,806 L612,816 L627,850 L640,881 L651,911 L663,947 L672,977 L683,1021 L691,1063 L696,1100 L699,1138 L699,1200 L697,1230 L692,1272 L686,1306 L678,1343 L670,1373 L660,1403 L648,1433 L634,1463 L622,1485 L609,1507 L599,1523 L589,1537 L575,1555 L566,1566 L554,1580 L549,1586 L547,1586 L545,1590 L520,1615 L512,1622 L501,1632 L484,1645 L465,1659 L450,1669 L430,1681 L403,1696 L372,1711 L338,1726 L303,1740 L255,1757 L217,1769 L187,1777 L145,1786 L106,1792 L80,1795 L66,1797 L32,1799 L4,1799 L-30,1797 L-77,1791 L-114,1785 L-155,1776 L-191,1766 L-231,1753 L-267,1740 L-297,1728 L-329,1714 L-363,1698 L-382,1688 L-406,1674 L-426,1661 L-444,1648 L-461,1635 L-471,1626 L-479,1619 L-492,1607 L-511,1588 L-511,1586 L-513,1586 L-520,1578 L-533,1563 L-546,1546 L-559,1529 L-570,1512 L-587,1483 L-595,1469 L-606,1446 L-615,1426 L-627,1395 L-636,1366 L-646,1326 L-653,1290 L-658,1257 L-662,1218 L-663,1200 L-663,1138 L-660,1100 L-655,1063 L-647,1021 L-635,973 L-621,928 L-609,894 L-597,864 L-580,825 L-573,810 L-569,799 L-557,774 L-541,742 L-531,723 L-517,697 L-504,674 L-490,650 L-475,624 L-462,601 L-450,581 L-436,559 L-421,535 L-407,513 L-393,491 L-375,464 L-361,442 L-346,420 L-333,401 L-319,381 L-306,363 L-294,346 L-281,328 L-270,312 L-257,294 L-241,273 L-226,253 L-210,232 L-198,216 L-185,199 L-169,178 L-156,162 L-146,149 L-132,132 L-121,118 L-113,109 L-104,98 L-92,84 L-83,74 L-75,64 L-64,51 L-55,40 L-42,25 L-33,15 L-19,6 L-4,1 Z M17,152 L6,165 L-6,179 L-15,190 L-24,201 L-38,218 L-51,234 L-62,248 L-75,264 L-84,276 L-96,292 L-105,304 L-121,325 L-135,344 L-151,365 L-163,381 L-175,398 L-182,408 L-193,424 L-206,442 L-219,461 L-228,473 L-244,497 L-257,516 L-265,528 L-280,551 L-291,568 L-305,590 L-317,609 L-332,633 L-347,657 L-361,680 L-376,705 L-383,719 L-397,743 L-407,761 L-419,783 L-431,806 L-441,825 L-453,849 L-469,885 L-477,905 L-491,942 L-505,983 L-516,1022 L-525,1060 L-531,1095 L-535,1132 L-536,1150 L-536,1191 L-533,1230 L-528,1265 L-519,1310 L-512,1336 L-504,1360 L-498,1376 L-492,1389 L-482,1410 L-472,1429 L-461,1447 L-449,1463 L-439,1476 L-430,1487 L-421,1497 L-410,1509 L-398,1521 L-390,1528 L-380,1537 L-366,1548 L-340,1565 L-319,1577 L-292,1591 L-264,1604 L-222,1621 L-176,1638 L-154,1645 L-104,1657 L-72,1663 L-41,1667 L-21,1669 L-6,1671 L42,1671 L67,1668 L101,1664 L130,1659 L161,1652 L193,1644 L229,1632 L271,1616 L304,1602 L338,1586 L361,1574 L381,1562 L406,1545 L420,1533 L432,1522 L440,1515 L454,1501 L461,1493 L473,1479 L483,1466 L497,1447 L509,1427 L520,1406 L529,1387 L538,1366 L549,1333 L557,1301 L565,1259 L570,1220 L572,1191 L572,1150 L570,1120 L565,1082 L559,1051 L548,1007 L537,971 L525,936 L510,897 L497,867 L484,839 L468,807 L458,788 L444,762 L434,745 L421,722 L413,708 L407,697 L393,673 L378,649 L363,625 L348,601 L334,579 L320,557 L303,531 L293,516 L270,482 L259,466 L246,448 L234,431 L222,414 L214,402 L201,384 L187,365 L173,347 L159,328 L143,307 L131,291 L119,275 L113,267 L100,251 L87,234 L76,221 L65,207 L53,193 L44,182 L33,169 L22,156 L19,152 Z " fill="#101010" transform="translate(1006,105)"/>
</svg>
