<?xml version="1.0" encoding="UTF-8"?>
<!-- Generator: visioncortex VTracer 0.6.12 -->
<svg version="1.1" xmlns="http://www.w3.org/2000/svg" width="2048" height="2048">
<path d="M0,0 L44,0 L79,2 L124,7 L168,14 L208,22 L244,31 L279,43 L308,55 L330,66 L349,78 L363,89 L374,98 L379,103 L389,113 L400,127 L408,139 L413,149 L421,168 L425,184 L427,196 L427,219 L424,234 L419,249 L414,261 L430,269 L456,282 L479,293 L498,302 L514,310 L576,341 L599,352 L631,367 L660,380 L691,394 L712,403 L726,412 L731,416 L739,426 L747,441 L750,450 L765,482 L776,507 L783,522 L798,555 L810,583 L817,598 L833,635 L848,670 L860,698 L875,734 L885,762 L892,787 L898,815 L903,848 L908,895 L911,935 L913,981 L917,1100 L920,1160 L926,1253 L927,1274 L927,1305 L925,1327 L920,1351 L912,1371 L904,1385 L893,1399 L880,1412 L866,1422 L854,1429 L833,1438 L813,1444 L788,1449 L771,1451 L756,1452 L729,1452 L698,1450 L648,1444 L603,1441 L596,1440 L596,1510 L597,1626 L597,1714 L595,1724 L590,1737 L584,1747 L582,1747 L582,1749 L580,1749 L578,1753 L570,1760 L559,1766 L551,1769 L542,1771 L528,1772 L409,1772 L18,1771 L-406,1772 L-489,1772 L-503,1770 L-513,1767 L-523,1762 L-533,1754 L-536,1751 L-536,1749 L-538,1749 L-538,1747 L-540,1747 L-547,1735 L-552,1721 L-553,1714 L-553,1615 L-552,1504 L-552,1440 L-575,1442 L-604,1444 L-654,1450 L-685,1452 L-712,1452 L-736,1450 L-760,1446 L-783,1440 L-799,1434 L-815,1426 L-831,1416 L-844,1404 L-851,1397 L-862,1382 L-870,1367 L-876,1351 L-881,1327 L-883,1305 L-883,1274 L-880,1222 L-875,1143 L-872,1073 L-868,955 L-865,906 L-860,856 L-855,821 L-850,795 L-843,769 L-835,745 L-824,717 L-803,668 L-788,633 L-775,603 L-767,584 L-760,569 L-748,542 L-734,511 L-719,478 L-704,446 L-701,437 L-695,426 L-687,416 L-675,407 L-661,400 L-636,389 L-603,374 L-570,359 L-539,344 L-516,333 L-470,310 L-447,299 L-423,287 L-400,276 L-377,265 L-370,261 L-378,241 L-382,226 L-383,219 L-383,196 L-380,179 L-376,165 L-370,151 L-363,137 L-352,122 L-341,109 L-333,101 L-325,94 L-312,83 L-294,71 L-278,62 L-255,51 L-229,41 L-193,29 L-155,20 L-113,12 L-64,5 L-33,2 Z M-1,130 L-39,133 L-78,138 L-123,146 L-154,153 L-184,161 L-219,172 L-239,180 L-248,186 L-251,191 L-252,200 L-249,207 L-243,210 L-211,215 L-191,217 L-128,218 L-117,219 L-47,222 L-21,223 L11,223 L25,222 L35,223 L65,223 L138,220 L163,219 L172,218 L235,217 L262,214 L287,210 L293,207 L296,200 L295,191 L290,184 L274,176 L238,164 L210,156 L172,147 L128,139 L92,134 L61,131 L43,130 Z M-237,342 L-273,359 L-298,371 L-327,385 L-348,395 L-364,403 L-387,414 L-403,422 L-429,435 L-450,445 L-466,453 L-492,466 L-512,475 L-528,483 L-549,492 L-564,499 L-588,510 L-591,511 L-608,547 L-621,576 L-634,605 L-650,641 L-663,671 L-681,713 L-697,750 L-712,787 L-720,811 L-727,841 L-731,865 L-735,900 L-738,942 L-741,1023 L-744,1108 L-747,1167 L-753,1260 L-753,1301 L-751,1313 L-741,1317 L-723,1321 L-715,1322 L-684,1322 L-643,1318 L-609,1314 L-598,1313 L-575,1312 L-550,1309 L-549,1276 L-546,936 L-545,838 L-543,825 L-537,810 L-533,804 L-533,802 L-531,802 L-528,798 L-528,796 L-526,796 L-526,794 L-524,794 L-524,792 L-521,792 L-521,790 L-517,788 L-514,787 L-514,785 L-504,782 L-495,779 L-485,777 L-477,777 L-464,779 L-451,784 L-442,790 L-440,790 L-440,792 L-433,798 L-432,800 L-430,800 L-428,804 L-427,807 L-425,807 L-423,814 L-419,822 L-417,832 L-417,936 L-420,1269 L-421,1391 L-422,1500 L-423,1616 L-423,1641 L-420,1642 L-352,1642 L-44,1641 L-44,1493 L-45,1172 L-46,833 L-46,792 L-47,480 L-47,452 L-48,351 L-99,349 L-108,350 L-113,349 L-126,349 L-131,348 L-155,347 L-195,346 L-226,343 Z M278,342 L252,345 L239,346 L193,347 L175,348 L167,349 L157,349 L149,350 L137,349 L90,351 L82,352 L82,542 L84,1213 L85,1576 L86,1641 L429,1642 L466,1642 L467,1641 L467,1597 L466,1492 L464,1260 L462,1038 L461,921 L461,832 L464,819 L469,809 L469,807 L471,807 L474,802 L474,800 L476,800 L482,793 L484,792 L484,790 L488,788 L502,781 L514,778 L526,777 L536,778 L547,781 L556,785 L558,785 L558,787 L563,790 L565,790 L565,792 L568,792 L568,794 L570,794 L570,796 L572,796 L574,800 L575,802 L577,802 L579,806 L585,819 L588,829 L589,840 L592,1160 L593,1287 L594,1309 L619,1312 L642,1313 L680,1317 L715,1321 L728,1322 L759,1322 L777,1319 L793,1314 L795,1313 L797,1301 L797,1260 L790,1150 L787,1083 L783,963 L780,912 L776,872 L772,846 L766,819 L758,792 L746,762 L728,720 L712,683 L700,655 L681,612 L663,572 L648,539 L635,511 L619,504 L594,493 L579,486 L557,476 L543,469 L520,458 L504,450 L487,442 L471,434 L435,416 L412,405 L393,396 L377,388 L354,377 L338,369 L305,353 L281,342 Z " fill="#101010" transform="translate(1002,87)"/>
<path d="M0,0 L18,0 L30,3 L39,7 L48,12 L53,16 L53,18 L57,20 L58,23 L60,23 L64,28 L69,37 L74,53 L81,83 L88,111 L98,153 L103,173 L109,197 L116,224 L124,252 L128,268 L128,280 L126,290 L123,299 L116,313 L114,313 L113,317 L108,322 L105,323 L105,325 L94,332 L89,335 L80,338 L64,340 L50,339 L39,335 L24,327 L20,324 L20,322 L17,321 L17,319 L13,317 L11,312 L9,312 L3,301 L-5,277 L-15,239 L-23,208 L-29,184 L-36,154 L-41,134 L-50,97 L-55,74 L-55,53 L-51,39 L-46,31 L-42,24 L-40,24 L-38,20 L-34,18 L-34,16 L-32,16 L-31,13 L-19,6 L-6,1 Z " fill="#101010" transform="translate(1243,557)"/>
<path d="M0,0 L18,0 L30,3 L44,10 L50,14 L50,16 L52,16 L52,18 L56,20 L58,24 L60,24 L65,32 L69,39 L72,50 L73,56 L73,74 L68,97 L59,134 L50,171 L45,192 L39,216 L30,251 L21,284 L14,304 L9,312 L7,312 L5,317 L1,319 L0,322 L-2,322 L-3,325 L-13,331 L-25,337 L-35,339 L-46,340 L-62,338 L-73,334 L-84,327 L-87,325 L-87,323 L-91,321 L-96,315 L-96,313 L-99,312 L-107,295 L-109,285 L-110,278 L-110,268 L-106,252 L-98,224 L-92,201 L-85,173 L-74,128 L-68,104 L-63,83 L-55,49 L-51,37 L-45,27 L-42,23 L-40,23 L-38,19 L-35,18 L-34,15 L-25,9 L-20,6 L-10,2 Z " fill="#101010" transform="translate(787,557)"/>
</svg>
