<?xml version="1.0" encoding="UTF-8"?>
<svg version="1.1" xmlns="http://www.w3.org/2000/svg" width="2048" height="2048" viewBox="0 0 2048 2048">
<path d="M0 0 C1.55498576 1.28071903 3.12299329 2.54350473 4.69580078 3.80224609 C9.22646214 7.4521131 13.48264538 11.14195931 17.56689453 15.29052734 C18.69998047 16.37140625 18.69998047 16.37140625 19.85595703 17.47412109 C32.77107843 29.93570144 44.20571721 44.88256978 51.56689453 61.29052734 C51.87127441 61.95971191 52.1756543 62.62889648 52.48925781 63.31835938 C57.36889702 74.12744995 61.17315191 84.67457629 63.56689453 96.29052734 C63.79119141 97.23154297 64.01548828 98.17255859 64.24658203 99.14208984 C69.6744189 124.94290345 62.87733351 149.73007743 52.56689453 173.29052734 C53.42025391 173.71720703 54.27361328 174.14388672 55.15283203 174.58349609 C55.74008057 174.87716064 56.3273291 175.1708252 56.93237305 175.47338867 C58.31033625 176.16228657 59.68843573 176.85091194 61.06665039 177.53930664 C65.58424653 179.79642709 70.09848605 182.06006265 74.60986328 184.32958984 C90.52936597 192.3286292 106.54577388 200.09595015 122.66064453 207.69287109 C123.47927979 208.07926758 124.29791504 208.46566406 125.14135742 208.86376953 C126.61877206 209.56042419 128.09699499 210.25537022 129.57641602 210.94775391 C136.38675856 214.1543135 143.10626267 217.54186143 149.83322144 220.91854858 C158.86584422 225.45185091 167.90229048 229.97754102 176.93908024 234.5025301 C180.36707345 236.21911502 183.79468311 237.93645691 187.22143555 239.65551758 C203.92583964 248.034612 220.66817094 256.30797464 237.56689453 264.29052734 C239.00293339 264.97141889 240.43889264 265.65247839 241.87475586 266.33374023 C245.64318845 268.11944783 249.41619591 269.89524024 253.19189453 271.66552734 C253.85567108 271.97690643 254.51944763 272.28828552 255.20333862 272.60910034 C267.16369097 278.21419877 279.19171292 283.65580547 291.25830078 289.02880859 C296.35785056 291.29965325 301.44820276 293.58954377 306.53173828 295.89599609 C307.19702545 296.19766693 307.86231262 296.49933777 308.54776001 296.81015015 C311.21456458 298.01951172 313.88133723 299.22893728 316.54711914 300.44055176 C323.81603292 303.74258605 331.10657235 306.96174925 338.48681641 310.00952148 C357.16341932 317.73794947 372.09298135 327.68021761 381.87939453 345.85302734 C382.3672644 346.75371948 382.3672644 346.75371948 382.86499023 347.67260742 C384.50534707 350.82936788 385.81188664 353.91771606 386.85986328 357.31787109 C388.84654832 363.53525172 391.76445749 369.34259265 394.57568359 375.21780396 C396.27257205 378.76617117 397.95176528 382.32286606 399.62939453 385.88037109 C399.96583984 386.59353989 400.30228516 387.30670868 400.64892578 388.04148865 C404.17245631 395.53589969 407.51333873 403.10580419 410.80126953 410.70654297 C413.38350082 416.66328106 416.07242976 422.56320413 418.82868958 428.44100952 C422.18493542 435.59831778 425.47857611 442.78359889 428.75439453 449.97802734 C429.07504883 450.68175476 429.39570312 451.38548218 429.72607422 452.11053467 C434.790707 463.23879031 439.70124424 474.42337352 444.4465332 485.69165039 C446.83878381 491.35323748 449.32073667 496.95785395 451.94189453 502.51708984 C455.83500779 510.77956464 459.46015504 519.14991956 463.06689453 527.54052734 C463.7636824 529.15704805 464.46062579 530.77350173 465.15771484 532.38989258 C467.29788239 537.355151 469.43317755 542.32249399 471.56689453 547.29052734 C472.06854126 548.45844818 472.06854126 548.45844818 472.58032227 549.64996338 C476.37987491 558.49759325 480.1717016 567.34851267 483.95898438 576.20140076 C485.84841242 580.61648292 487.74447107 585.0286544 489.64501953 589.43896484 C492.35938343 595.74052043 495.05976565 602.04789922 497.74597168 608.36151123 C498.31494481 609.69849234 498.88439481 611.03527057 499.45422363 612.37188721 C534.62829117 694.90136701 546.73702259 778.73770659 550.52783203 867.87255859 C550.56947039 868.83748104 550.61110874 869.80240349 550.65400887 870.79656601 C551.64986442 893.98296937 552.3900685 917.17762352 553.13272762 940.37324429 C555.19837979 1004.81909107 558.23860409 1069.10046017 562.49804688 1133.43945312 C562.62787986 1135.40659004 562.75770181 1137.37372768 562.88751221 1139.34086609 C563.12785348 1142.98182166 563.37077644 1146.622591 563.61541748 1150.26325989 C564.19856647 1159.0238529 564.71631668 1167.78471968 565.13793945 1176.5546875 C565.19987205 1177.83847243 565.19987205 1177.83847243 565.2630558 1179.14819241 C567.49939288 1227.46104547 563.64961658 1275.44476511 530.03076172 1313.00683594 C522.3723561 1321.33170917 514.04477165 1328.1440112 504.56689453 1334.29052734 C503.63876953 1334.90283203 502.71064453 1335.51513672 501.75439453 1336.14599609 C474.50073915 1353.06339297 441.17391872 1360.49402109 409.56689453 1363.29052734 C407.87306641 1363.45681641 407.87306641 1363.45681641 406.14501953 1363.62646484 C373.7328559 1366.33970026 341.36790105 1363.00689383 309.24005127 1358.94857788 C291.40006106 1356.70640908 273.59057515 1355.18724075 255.64257812 1354.14038086 C254.74438858 1354.08792206 253.84619904 1354.03546326 252.92079163 1353.98141479 C251.26218147 1353.88648262 249.60336522 1353.79504956 247.94432068 1353.70803833 C243.43204548 1353.4592286 239.03152132 1352.99542955 234.56689453 1352.29052734 C234.4241953 1392.09228802 234.61678877 1431.88632819 234.99597168 1471.6864624 C235.34952776 1508.84818148 235.68763017 1546.00984297 235.74414062 1583.17340088 C235.74995925 1586.96912327 235.76032276 1590.76478718 235.77490234 1594.56048584 C235.7913574 1598.94830968 235.79781567 1603.33603116 235.79609108 1607.72388458 C235.79692267 1609.30457342 235.80101522 1610.88526479 235.80878258 1612.46593475 C235.88542117 1629.21340203 233.10449006 1645.60092377 222.56689453 1659.29052734 C221.90689453 1659.29052734 221.24689453 1659.29052734 220.56689453 1659.29052734 C220.56689453 1659.95052734 220.56689453 1660.61052734 220.56689453 1661.29052734 C219.90689453 1661.29052734 219.24689453 1661.29052734 218.56689453 1661.29052734 C218.30779297 1661.88091797 218.04869141 1662.47130859 217.78173828 1663.07958984 C212.17619823 1673.28131225 198.21303962 1678.75747702 187.56689453 1681.87646484 C173.96985136 1685.32571477 159.28957131 1684.43267986 145.37133789 1684.40795898 C143.21500461 1684.40772776 141.05867126 1684.40788513 138.90233803 1684.40839195 C132.94511425 1684.4082689 126.98791531 1684.40132288 121.03069806 1684.39297748 C117.16471595 1684.38811502 113.29873707 1684.3852016 109.43275261 1684.38292122 C62.31443385 1684.35489429 15.19645941 1684.20397934 -31.9215706 1684.04587302 C-36.56087154 1684.03030803 -41.20017263 1684.01478949 -45.83947372 1683.99926949 C-46.77014132 1683.99615608 -47.70080892 1683.99304267 -48.65967857 1683.98983492 C-210.53456336 1683.41957224 -210.53456336 1683.41957224 -629.20043945 1683.8840332 C-630.29576414 1683.88723018 -631.39108883 1683.89042716 -632.51960517 1683.89372101 C-657.06814425 1683.96541458 -681.61666826 1684.04023573 -706.16517641 1684.12184037 C-721.27306555 1684.17185514 -736.38096346 1684.21382505 -751.48889381 1684.24924171 C-761.64572801 1684.27342948 -771.80249595 1684.30571269 -781.95928402 1684.34473542 C-789.69382328 1684.37386265 -797.42836247 1684.39522274 -805.16293983 1684.41122099 C-809.7414008 1684.42094656 -814.31978924 1684.4340074 -818.8982091 1684.45599639 C-823.13579002 1684.47626633 -827.37328899 1684.48687414 -831.61091596 1684.49031584 C-833.15121901 1684.49321902 -834.69152051 1684.49952323 -836.23179263 1684.509708 C-859.73280338 1684.65917333 -878.5307549 1680.69659548 -896.21826172 1664.67333984 C-897.43310547 1663.29052734 -897.43310547 1663.29052734 -897.43310547 1661.29052734 C-898.09310547 1661.29052734 -898.75310547 1661.29052734 -899.43310547 1661.29052734 C-899.43310547 1660.63052734 -899.43310547 1659.97052734 -899.43310547 1659.29052734 C-900.09310547 1659.29052734 -900.75310547 1659.29052734 -901.43310547 1659.29052734 C-910.26579691 1647.14279554 -914.6041477 1633.09703683 -914.5625 1618.16943359 C-914.56422966 1617.37869037 -914.56595932 1616.58794714 -914.56774139 1615.773242 C-914.57210225 1613.13314932 -914.56914019 1610.4931209 -914.56591797 1607.85302734 C-914.56693683 1605.9483895 -914.56827813 1604.0437518 -914.56991577 1602.13911438 C-914.57264173 1596.94597396 -914.56808961 1591.75286302 -914.56167603 1586.55972672 C-914.55809308 1583.27918662 -914.55648235 1579.99865095 -914.55541992 1576.71810913 C-914.53973677 1537.47302614 -914.22166235 1498.23269457 -913.82643604 1458.98985195 C-913.46900021 1423.42183202 -913.29086669 1387.86022043 -913.43310547 1352.29052734 C-914.06274704 1352.34718567 -914.69238861 1352.40384399 -915.34111023 1352.46221924 C-936.17437364 1354.32854852 -936.17437364 1354.32854852 -946.22363281 1354.87255859 C-961.00468424 1355.69412616 -975.62318504 1357.46235632 -990.30810547 1359.29052734 C-1057.55472468 1367.62250622 -1134.85681413 1370.472643 -1192.43310547 1328.29052734 C-1197.02601055 1324.55924641 -1201.23146161 1320.45045275 -1205.43310547 1316.29052734 C-1206.40957031 1315.40494141 -1206.40957031 1315.40494141 -1207.40576172 1314.50146484 C-1233.86675677 1290.10480274 -1242.95562124 1251.81552811 -1244.43310547 1217.29052734 C-1245.67522704 1185.07049482 -1242.6449408 1152.7656757 -1240.54083252 1120.63813782 C-1237.33016544 1071.70417101 -1237.33016544 1071.70417101 -1234.87060547 1022.72802734 C-1234.84223602 1022.05923931 -1234.81386658 1021.39045128 -1234.78463745 1020.70139694 C-1233.93627266 1000.55992845 -1233.26083528 980.41238975 -1232.59584236 960.26417351 C-1232.4675188 956.37740032 -1232.33858826 952.4906476 -1232.20957947 948.60389709 C-1231.82411385 936.96651417 -1231.44238028 925.3290822 -1231.08121586 913.69091702 C-1229.81956314 873.22207786 -1228.33288344 832.69857024 -1224.05810547 792.41552734 C-1223.95361084 791.40184082 -1223.84911621 790.3881543 -1223.74145508 789.34375 C-1216.24148702 716.65866631 -1195.82304928 653.01882051 -1166.97021484 586.17431641 C-1164.70411372 580.92259191 -1162.44807822 575.66663421 -1160.19873047 570.40771484 C-1159.87737625 569.656418 -1159.55602203 568.90512115 -1159.22492981 568.13105774 C-1158.59861279 566.66658221 -1157.97233515 565.20208983 -1157.34609985 563.73757935 C-1152.15829847 551.60866376 -1146.93175406 539.49699465 -1141.67327881 527.39855957 C-1138.41632106 519.90433009 -1135.20158587 512.39551796 -1132.05810547 504.85302734 C-1129.61765224 499.00736273 -1127.05745723 493.24217228 -1124.34204102 487.51733398 C-1121.41523713 481.32067234 -1118.64442097 475.05687977 -1115.87060547 468.79052734 C-1109.73323292 454.93668843 -1103.51179093 441.12207339 -1097.25830078 427.3203125 C-1096.03492713 424.62008296 -1094.81297919 421.91921539 -1093.59228516 419.21777344 C-1091.72925486 415.09504371 -1089.86345104 410.97357762 -1087.99560547 406.85302734 C-1087.68871796 406.17576599 -1087.38183044 405.49850464 -1087.06564331 404.80072021 C-1083.51771893 396.97811939 -1079.92563318 389.1785612 -1076.25732422 381.41162109 C-1075.91435806 380.68463516 -1075.57139191 379.95764923 -1075.21803284 379.20863342 C-1073.57535573 375.72909739 -1071.92659982 372.25266176 -1070.26733398 368.78100586 C-1067.51167396 362.98301885 -1064.92936291 357.26390624 -1063.02929688 351.12402344 C-1057.80606847 335.06077802 -1044.82708683 323.44780176 -1030.24560547 315.91552734 C-1022.88073818 312.40157106 -1015.39332272 309.15502128 -1007.91479492 305.89160156 C-995.49175831 300.46757375 -983.1660757 294.83387245 -970.83470154 289.20556641 C-965.92298286 286.96525504 -961.00404991 284.74139407 -956.08154297 282.52490234 C-939.42525143 275.01701308 -922.91209727 267.26831363 -906.50082397 259.23815918 C-901.80277885 256.94461935 -897.08537539 254.69324572 -892.36428833 252.4475708 C-879.63758644 246.39012144 -867.02147637 240.12961018 -854.43310547 233.79052734 C-841.78175351 227.41972935 -829.09996096 221.13556308 -816.30883789 215.04943848 C-809.64112588 211.87586679 -803.01944622 208.6301237 -796.43310547 205.29052734 C-783.81296151 198.93951116 -771.06982949 192.85996196 -758.3046875 186.80712891 C-755.17980342 185.3245722 -752.05644124 183.83884243 -748.93310547 182.35302734 C-747.50889282 181.68001587 -747.50889282 181.68001587 -746.0559082 180.9934082 C-741.05234147 178.61236337 -736.20186238 176.11378865 -731.43310547 173.29052734 C-731.65450195 172.76322021 -731.87589844 172.23591309 -732.10400391 171.69262695 C-745.71590892 139.06159035 -749.05547886 107.4613978 -736.08935547 73.80224609 C-734.60845216 70.2614693 -733.04436167 66.7737986 -731.43310547 63.29052734 C-730.92005859 62.14712891 -730.40701172 61.00373047 -729.87841797 59.82568359 C-720.61484013 40.12395943 -705.18838178 22.32562334 -688.72607422 8.25146484 C-687.02475027 6.79649956 -685.3427262 5.31890226 -683.67138672 3.82958984 C-656.95585785 -19.73661727 -623.66287073 -34.79963162 -590.43310547 -46.70947266 C-589.77590515 -46.94621704 -589.11870483 -47.18296143 -588.44158936 -47.42687988 C-564.80163809 -55.9268108 -541.01280925 -62.54177213 -516.43310547 -67.70947266 C-515.20554535 -67.96827209 -515.20554535 -67.96827209 -513.95318604 -68.2322998 C-474.57054787 -76.49142642 -434.56662718 -82.647662 -394.43310547 -85.70947266 C-393.18480957 -85.81098633 -391.93651367 -85.9125 -390.65039062 -86.01708984 C-305.80394753 -92.77750771 -219.86332514 -81.91466757 0 0 Z M-400.43310547 45.29052734 C-401.20855713 45.37302734 -401.98400879 45.45552734 -402.78295898 45.54052734 C-440.67270093 49.61848777 -478.43994183 56.11908506 -515.43310547 65.29052734 C-516.63789551 65.58894531 -517.84268555 65.88736328 -519.08398438 66.19482422 C-569.08070796 76.09407195 -569.08070796 76.09407195 -611.43310547 100.60302734 C-613.34998759 105.75464804 -614.26337999 110.87919849 -612.37060547 116.16552734 C-610.0440295 119.91806923 -608.46015014 120.60263884 -604.43310547 122.29052734 C-601.10203539 123.10962447 -601.10203539 123.10962447 -597.55029297 123.60693359 C-596.89594269 123.70892563 -596.24159241 123.81091766 -595.56741333 123.91600037 C-594.18141632 124.12986953 -592.79465804 124.33885627 -591.40722656 124.54321289 C-589.36052121 124.84529118 -587.31679452 125.16309381 -585.27294922 125.48388672 C-581.00023527 126.14313075 -576.71977943 126.72989381 -572.43310547 127.29052734 C-571.71402008 127.38669342 -570.99493469 127.4828595 -570.25405884 127.5819397 C-554.39017248 129.63625434 -538.46546483 129.68661792 -522.49658203 129.83312988 C-516.85942095 129.88588926 -511.2224181 129.9510779 -505.58545113 130.02134514 C-503.64758179 130.04371632 -501.70964506 130.05999168 -499.77171326 130.07606506 C-493.58202577 130.14588386 -487.49699596 130.40860702 -481.33964539 131.03184509 C-475.22736514 131.57583845 -469.09045159 131.7572814 -462.96044922 132.00927734 C-461.4690307 132.07249612 -459.97762158 132.13593695 -458.48622131 132.19958496 C-454.57223078 132.36596688 -450.65811121 132.52909763 -446.74395752 132.69158936 C-442.85053401 132.8538946 -438.95726019 133.01971285 -435.06396484 133.18505859 C-427.5659327 133.50280804 -420.06763126 133.81364191 -412.56915283 134.1206665 C-409.91231445 134.2294934 -407.25555479 134.33984423 -404.59881592 134.45111084 C-391.62204026 134.99404378 -378.6724401 135.45586689 -365.68310547 135.41552734 C-364.39146484 135.41939453 -363.09982422 135.42326172 -361.76904297 135.42724609 C-354.44089787 135.41987371 -347.23028956 135.12766063 -339.93603516 134.40722656 C-337.10578527 134.3129375 -334.6425455 134.43833793 -331.84887695 134.75415039 C-325.5997013 135.44504494 -319.39106067 135.45822567 -313.10888672 135.44287109 C-311.81356522 135.44093246 -310.51824371 135.43899384 -309.18367004 135.43699646 C-293.43905249 135.37213905 -277.71689525 134.66060631 -261.99035645 133.95812988 C-258.03201104 133.78257044 -254.07337238 133.61391101 -250.11474609 133.44482422 C-245.49183322 133.24707578 -240.86896589 133.04849741 -236.24630737 132.84487915 C-229.47271881 132.54687175 -222.69931158 132.25730434 -215.92382812 132.00488281 C-214.78319412 131.96201645 -213.64256012 131.91915009 -212.46736145 131.87498474 C-210.40178246 131.79857424 -208.33610341 131.72479337 -206.27030945 131.6544342 C-202.18897227 131.50305977 -198.16735003 131.29077757 -194.11499023 130.7746582 C-188.00140469 130.04386156 -181.87165817 130.11559883 -175.72216797 130.07958984 C-174.38722969 130.06656737 -173.05229901 130.05274525 -171.71737671 130.03817749 C-166.10901891 129.97752092 -160.50067699 129.92331359 -154.89208984 129.88916016 C-136.23478972 129.76930228 -117.95245962 128.80320562 -99.43310547 126.29052734 C-98.67054443 126.19040344 -97.9079834 126.09027954 -97.12231445 125.98712158 C-93.27785583 125.48058663 -89.44826713 124.91051921 -85.62060547 124.29052734 C-84.6003125 124.13841797 -83.58001953 123.98630859 -82.52880859 123.82958984 C-77.37143104 123.00764332 -72.89432381 122.18312375 -68.43310547 119.29052734 C-65.52542843 114.60072567 -65.13438851 111.12620002 -65.62060547 105.69677734 C-67.62328338 99.76576967 -71.20304476 95.86974891 -76.68341064 93.13574219 C-77.33815369 92.83619629 -77.99289673 92.53665039 -78.66748047 92.22802734 C-79.36556824 91.89496582 -80.06365601 91.5619043 -80.78289795 91.21875 C-88.53386407 87.61756577 -96.5554293 84.89789638 -104.68310547 82.29052734 C-106.27320523 81.77217724 -107.8632101 81.25353598 -109.453125 80.73461914 C-182.9781186 56.87369363 -261.71287547 42.0910155 -339.18310547 42.04052734 C-340.13164398 42.0398526 -341.0801825 42.03917786 -342.0574646 42.03848267 C-361.63037424 42.06028808 -380.9762538 43.21014558 -400.43310547 45.29052734 Z M-615.55810547 261.97802734 C-617.170909 262.77061501 -618.78493877 263.56071203 -620.40014648 264.34838867 C-623.61334861 265.91935868 -626.81973706 267.50297895 -630.02050781 269.09912109 C-635.77039822 271.96304291 -641.57003543 274.7183796 -647.37060547 277.47802734 C-653.80915671 280.57059756 -660.23977838 283.67964448 -666.67138672 286.78662109 C-667.2888678 287.08490311 -667.90634888 287.38318512 -668.5425415 287.69050598 C-672.29392569 289.50270581 -672.29392569 289.50270581 -676.04498291 291.31558228 C-683.9315431 295.12793697 -691.8301494 298.91351007 -699.74560547 302.66552734 C-706.27094213 305.75995951 -712.7518976 308.92667445 -719.19799805 312.18261719 C-725.06961733 315.13647409 -730.99858371 317.96559673 -736.93310547 320.79052734 C-745.3670723 324.80861898 -753.75364097 328.90297093 -762.09423828 333.11083984 C-776.0581434 340.15401203 -790.03413626 347.15410053 -804.17333984 353.83959961 C-809.18199484 356.21042081 -814.16807299 358.61704518 -819.12060547 361.10302734 C-819.73919434 361.41353027 -820.3577832 361.7240332 -820.99511719 362.04394531 C-824.10839893 363.61025476 -827.2188721 365.18205567 -830.328125 366.75634766 C-842.29101669 372.80870518 -854.25136202 378.7787251 -866.52026367 384.1887207 C-871.55103361 386.41441174 -876.47661991 388.7795225 -881.37060547 391.29052734 C-888.35509109 394.86427512 -895.5077207 397.95618542 -902.73242188 401.00976562 C-908.9738456 403.65093548 -915.12182157 406.4252995 -921.24951172 409.32177734 C-926.87411426 411.97938422 -932.52981044 414.56968198 -938.18310547 417.16552734 C-939.77505737 417.89908447 -939.77505737 417.89908447 -941.39916992 418.64746094 C-942.3952124 419.10459473 -943.39125488 419.56172852 -944.41748047 420.03271484 C-945.31176758 420.44376465 -946.20605469 420.85481445 -947.12744141 421.27832031 C-949.43310547 422.29052734 -949.43310547 422.29052734 -952.43310547 423.29052734 C-953.75382592 425.59560498 -954.88809618 427.8347902 -955.98779297 430.24365234 C-956.32551727 430.96231979 -956.66324158 431.68098724 -957.01119995 432.4214325 C-958.1205771 434.78976164 -959.21455974 437.16485165 -960.30810547 439.54052734 C-961.0760126 441.18999889 -961.84457328 442.83916632 -962.61376953 444.48803711 C-968.83939612 457.86769469 -974.90231865 471.31952434 -980.88574219 484.80908203 C-982.96023905 489.47653633 -985.05352761 494.13545424 -987.14697266 498.79443359 C-1003.62532114 535.47561983 -1019.74952771 572.29753893 -1035.56274414 609.27026367 C-1039.22256927 617.8238342 -1042.89418974 626.3716982 -1046.61279297 634.89990234 C-1083.64402 719.85687554 -1097.59056304 799.9466975 -1102.43310547 935.29052734 C-1106.21497031 1046.69950126 -1106.21497031 1046.69950126 -1109.75074959 1099.08795929 C-1109.95765822 1102.15864097 -1110.16305267 1105.22942055 -1110.36802673 1108.30023193 C-1110.50645169 1110.37121907 -1110.64492537 1112.44220294 -1110.78344727 1114.51318359 C-1110.85239669 1115.54432407 -1110.92134611 1116.57546455 -1110.99238491 1117.63785172 C-1111.33251494 1122.70325862 -1111.67901385 1127.76807881 -1112.04019165 1132.83203125 C-1113.51547439 1153.51754658 -1114.69813587 1174.13201812 -1114.73388672 1194.87646484 C-1114.73773062 1195.72976002 -1114.74157452 1196.58305519 -1114.7455349 1197.46220779 C-1115.16392162 1211.60881813 -1115.16392162 1211.60881813 -1112.43310547 1225.29052734 C-1109.32384104 1227.75703802 -1106.28152569 1228.4438749 -1102.43310547 1229.29052734 C-1100.97182402 1229.64719404 -1099.51091228 1230.00537745 -1098.05029297 1230.36474609 C-1067.09948363 1237.7315503 -1035.66984748 1233.84883835 -1004.43310547 1230.29052734 C-1003.60832703 1230.19668762 -1002.78354858 1230.1028479 -1001.93377686 1230.00616455 C-995.08820124 1229.22457308 -988.24385822 1228.43289773 -981.40454102 1227.59814453 C-971.453758 1226.3850445 -961.57762197 1225.3028325 -951.55444336 1224.99926758 C-939.85080868 1224.64240504 -928.34065284 1223.49150437 -916.73347473 1221.98051453 C-915.24336742 1221.78661652 -915.24336742 1221.78661652 -913.72315693 1221.58880138 C-912.96743995 1221.49037095 -912.21172297 1221.39194052 -911.43310547 1221.29052734 C-910.69844575 1199.91008799 -910.24376784 1178.54449443 -910.07806993 1157.15233195 C-910.0466424 1153.20210219 -910.01093542 1149.25191038 -909.97581482 1145.30171204 C-909.91569347 1138.4778986 -909.85811377 1131.65406777 -909.80235291 1124.83021736 C-909.72084463 1114.85811559 -909.63506739 1104.88605371 -909.54836446 1094.91399591 C-909.40646887 1078.58290474 -909.26762059 1062.25178922 -909.13085938 1045.9206543 C-908.95206509 1024.57165937 -908.77051523 1003.22268889 -908.58758926 981.87372899 C-908.54681904 977.11541578 -908.50611737 972.35710199 -908.46543443 967.59878803 C-908.29845204 948.07142869 -908.13018844 928.54408123 -907.95947266 909.01675415 C-907.94370809 907.21214618 -907.92794512 905.40753819 -907.91218376 903.60293019 C-907.89656482 901.81486837 -907.88094554 900.02680655 -907.86532593 898.23874474 C-907.85765068 897.36008729 -907.84997543 896.48142984 -907.8420676 895.5761464 C-907.8038881 891.20654292 -907.76565446 886.83693992 -907.727314 882.46733785 C-907.56629802 864.10901872 -907.41025468 845.75069525 -907.27302313 827.39218169 C-907.20147176 817.82795771 -907.12464237 808.26378952 -907.04262018 798.69964951 C-906.99027397 792.55274943 -906.94544792 786.40586651 -906.90726089 780.25886297 C-906.88276632 776.62854934 -906.85051401 772.99833747 -906.8158474 769.36810803 C-906.80194666 767.75177145 -906.79118897 766.13540364 -906.78412819 764.5190227 C-906.72927412 752.44142471 -906.2778862 740.61447309 -901.55810547 729.35302734 C-901.06568359 728.14775391 -900.57326172 726.94248047 -900.06591797 725.70068359 C-898.44987127 722.32554299 -896.51726127 719.38969408 -894.43310547 716.29052734 C-894.43310547 715.63052734 -894.43310547 714.97052734 -894.43310547 714.29052734 C-893.77310547 714.29052734 -893.11310547 714.29052734 -892.43310547 714.29052734 C-890.03490242 711.65367987 -890.03490242 711.65367987 -889.43310547 708.29052734 C-888.77310547 708.29052734 -888.11310547 708.29052734 -887.43310547 708.29052734 C-887.43310547 707.63052734 -887.43310547 706.97052734 -887.43310547 706.29052734 C-886.77310547 706.29052734 -886.11310547 706.29052734 -885.43310547 706.29052734 C-885.43310547 705.63052734 -885.43310547 704.97052734 -885.43310547 704.29052734 C-884.44310547 704.29052734 -883.45310547 704.29052734 -882.43310547 704.29052734 C-882.43310547 703.63052734 -882.43310547 702.97052734 -882.43310547 702.29052734 C-880.10096399 701.08424727 -877.93668408 700.12505355 -875.43310547 699.29052734 C-875.43310547 698.63052734 -875.43310547 697.97052734 -875.43310547 697.29052734 C-874.50691406 697.01789063 -874.50691406 697.01789063 -873.56201172 696.73974609 C-869.32057295 695.48087157 -865.10854531 694.19204561 -860.93310547 692.72802734 C-844.40317901 687.18889855 -828.16797092 688.79870108 -812.43310547 696.29052734 C-809.91046139 697.81559666 -807.51280872 699.40621901 -805.14013672 701.15380859 C-803.49747011 702.47528087 -803.49747011 702.47528087 -801.43310547 702.29052734 C-801.43310547 702.95052734 -801.43310547 703.61052734 -801.43310547 704.29052734 C-799.90689671 705.79898886 -799.90689671 705.79898886 -797.99560547 707.29052734 C-794.53480038 710.08713751 -794.53480038 710.08713751 -793.43310547 712.29052734 C-792.77310547 712.29052734 -792.11310547 712.29052734 -791.43310547 712.29052734 C-790.22682539 714.62266882 -789.26763167 716.78694873 -788.43310547 719.29052734 C-787.77310547 719.29052734 -787.11310547 719.29052734 -786.43310547 719.29052734 C-786.18560547 720.28052734 -785.93810547 721.27052734 -785.68310547 722.29052734 C-784.88931436 725.11982567 -783.8393708 727.52662332 -782.43310547 730.10302734 C-777.34507082 740.08796098 -778.14851285 751.29202995 -778.18725586 762.203125 C-778.18677981 764.0608867 -778.18557156 765.91864833 -778.18370628 767.77640915 C-778.18179237 772.94025443 -778.19400072 778.10398314 -778.20934558 783.26780272 C-778.21837276 786.62083396 -778.22371303 789.97385233 -778.22795296 793.32689285 C-778.31823224 861.28480495 -779.05888537 929.24118762 -779.71270812 997.19545007 C-779.8966231 1016.31845543 -780.07535324 1035.44150846 -780.2535511 1054.56456783 C-780.32065128 1061.76496241 -780.38781616 1068.96535639 -780.45497106 1076.16575046 C-780.47165138 1077.95447452 -780.48832786 1079.74319861 -780.50500049 1081.53192274 C-780.61217984 1093.03064939 -780.7199567 1104.52937023 -780.82834017 1116.02808559 C-781.29203746 1165.22617035 -781.72290305 1214.42441467 -782.11314392 1263.62313843 C-782.1488939 1268.12782813 -782.184665 1272.63251767 -782.22045898 1277.13720703 C-782.22902617 1278.21687414 -782.23759335 1279.29654124 -782.24642015 1280.40892553 C-782.44400829 1305.24373538 -782.67150571 1330.07826263 -782.90282798 1354.9127779 C-782.95646902 1360.67550317 -783.00984679 1366.43823089 -783.06326294 1372.20095825 C-783.08384786 1374.42081643 -783.10443322 1376.6406746 -783.12501907 1378.86053276 C-783.39994594 1408.51244637 -783.6680759 1438.16441615 -783.92773438 1467.81646729 C-783.97230285 1472.90188054 -784.01739667 1477.98728869 -784.06298828 1483.07269287 C-784.11643734 1489.03680216 -784.16879914 1495.00092007 -784.22036552 1500.96504593 C-784.23931316 1503.13706412 -784.25861745 1505.30907923 -784.27833748 1507.48109055 C-784.41660906 1522.75123465 -784.45634671 1538.01977388 -784.43310547 1553.29052734 C-781.34792636 1554.31892038 -779.25684929 1554.4126815 -776.02490616 1554.40752411 C-774.8995579 1554.40814441 -773.77420964 1554.40876471 -772.61475992 1554.4094038 C-771.37808116 1554.40493897 -770.14140241 1554.40047415 -768.86724854 1554.39587402 C-767.56527322 1554.39506993 -766.26329791 1554.39426584 -764.9218688 1554.39343739 C-761.32861396 1554.39101885 -757.73539872 1554.38225804 -754.14215773 1554.3723532 C-750.30379294 1554.36279526 -746.46542167 1554.35887183 -742.62704849 1554.35411835 C-733.69476299 1554.34177513 -724.76251164 1554.3199783 -715.83024907 1554.29665899 C-711.99305068 1554.28684383 -708.15584994 1554.27807755 -704.31864929 1554.26919556 C-685.13945179 1554.22409709 -665.96031925 1554.1630801 -646.78118394 1554.09698495 C-638.38334621 1554.06808492 -629.98550415 1554.04053832 -621.58766177 1554.01302415 C-606.62891347 1553.96398139 -591.6701686 1553.91396679 -576.71142578 1553.86328125 C-562.23746921 1553.81424055 -547.76351111 1553.7656948 -533.28955078 1553.71777344 C-532.38742134 1553.71478644 -531.4852919 1553.71179945 -530.5558252 1553.70872194 C-526.02713442 1553.69373013 -521.49844361 1553.67874762 -516.96975279 1553.66376972 C-479.79086548 1553.54079478 -442.61198369 1553.41621782 -405.43310547 1553.29052734 C-405.38568579 1479.70564726 -405.38361164 1406.12120942 -405.61669922 1332.53662109 C-405.6190767 1331.78428115 -405.62145419 1331.03194121 -405.62390372 1330.2568031 C-405.68339872 1311.45735397 -405.74683327 1292.65791885 -405.8118327 1273.85848804 C-405.87590407 1255.32081863 -405.93646218 1236.78313821 -405.99660884 1218.24545571 C-406.0194909 1211.19436607 -406.04242363 1204.1432766 -406.06534617 1197.09218709 C-406.07113539 1195.31108501 -406.07692283 1193.52998292 -406.08270849 1191.74888082 C-406.12362228 1179.15389804 -406.16489286 1166.55891648 -406.20643256 1153.96393575 C-406.45116138 1079.74327414 -406.67596116 1005.52255544 -406.89503956 931.30181408 C-406.89782749 930.3573243 -406.90061542 929.41283453 -406.90348783 928.43972385 C-406.9062708 927.49687914 -406.90905378 926.55403442 -406.91192108 925.58261865 C-406.91469911 924.6414572 -406.91747714 923.70029574 -406.92033935 922.73061424 C-406.92593474 920.83495184 -406.93152968 918.93928943 -406.93712419 917.04362703 C-406.98127671 902.08709132 -407.02600722 887.13055739 -407.07102016 872.17402425 C-407.11627628 857.13491813 -407.16109666 842.09581078 -407.20544505 827.05670196 C-407.2294588 818.91654453 -407.25364461 810.77638772 -407.27835464 802.63623238 C-407.30530627 793.74756181 -407.33171447 784.85888981 -407.35717773 775.97021484 C-407.36017991 774.92244385 -407.36017991 774.92244385 -407.36324275 773.85350576 C-407.40955945 757.59069519 -407.44304076 741.32806552 -407.4309082 725.06518555 C-407.41036233 696.89310438 -407.53186451 668.72109809 -407.62664899 640.5492184 C-407.6552331 632.04228234 -407.6829479 623.5353435 -407.71060866 615.02840439 C-407.76003906 599.83053947 -407.80999023 584.63267632 -407.86035156 569.43481445 C-407.86334218 568.5322729 -407.86633279 567.62973134 -407.86941403 566.69984005 C-407.88153157 563.0431027 -407.89365017 559.38636535 -407.90577021 555.72962801 C-407.93921705 545.63689095 -407.97256202 535.54415356 -408.00585938 525.45141602 C-408.00884637 524.54607635 -408.01183337 523.64073668 -408.01491088 522.70796248 C-408.06495066 507.53724385 -408.11462223 492.36652403 -408.16407251 477.19580346 C-408.19439912 467.89817357 -408.22506605 458.60054492 -408.25620091 449.3029177 C-408.27752417 442.92979609 -408.29852052 436.55667345 -408.31927526 430.18354996 C-408.33119145 426.52823942 -408.34324887 422.87292951 -408.35573006 419.21762085 C-408.40739003 404.06255679 -408.44491885 388.9077552 -408.42972994 373.7525894 C-408.42133788 362.32167608 -408.53059687 350.89255582 -408.65185547 339.46240234 C-408.67439898 337.23797732 -408.69681646 335.01355102 -408.71911621 332.78912354 C-408.77705649 327.04212134 -408.83666338 321.29513771 -408.89666748 315.54815674 C-408.95803562 309.64067632 -409.01775846 303.73317927 -409.07763672 297.82568359 C-409.19455343 286.31394838 -409.31323805 274.80223218 -409.43310547 263.29052734 C-416.53110079 262.97772102 -423.62949907 262.67574415 -430.72827148 262.38110352 C-433.14048564 262.27972552 -435.55259898 262.17591718 -437.96459961 262.06958008 C-441.44214258 261.91669738 -444.91996068 261.7727114 -448.39794922 261.63037109 C-449.46706039 261.58146225 -450.53617157 261.53255341 -451.63768005 261.48216248 C-457.71395336 261.24326872 -463.40325828 261.52960283 -469.43310547 262.29052734 C-472.08935547 261.85302734 -472.08935547 261.85302734 -474.43310547 261.29052734 C-476.59934747 261.24763146 -478.76681719 261.25003597 -480.93310547 261.29052734 C-486.88857857 261.4018446 -486.88857857 261.4018446 -489.72607422 260.82177734 C-493.87362109 260.00782875 -498.02815369 259.94883848 -502.24560547 259.79052734 C-503.78172485 259.72744385 -503.78172485 259.72744385 -505.34887695 259.66308594 C-512.17346119 259.39993856 -518.99542031 259.23187667 -525.82373047 259.11083984 C-544.32047965 258.77000067 -562.58835443 258.02975134 -580.98388672 256.00927734 C-582.08829102 255.89672607 -583.19269531 255.7841748 -584.33056641 255.66821289 C-587.43310547 255.29052734 -587.43310547 255.29052734 -590.12158203 254.70385742 C-599.69311251 252.90672068 -607.26211709 257.77979017 -615.55810547 261.97802734 Z M-88.95654297 254.91162109 C-90.06126953 255.04246094 -91.16599609 255.17330078 -92.30419922 255.30810547 C-94.60116593 255.58338297 -96.89804436 255.85939829 -99.19482422 256.13623047 C-114.52100051 257.94814866 -129.70344538 258.52575949 -145.12060547 258.79052734 C-161.76195609 259.07047177 -161.76195609 259.07047177 -178.39013672 259.75927734 C-179.44269905 259.81529114 -179.44269905 259.81529114 -180.51652527 259.87243652 C-185.19201807 260.14883636 -189.7910584 260.69438622 -194.43310547 261.29052734 C-196.09932162 261.32927656 -197.76704719 261.33555595 -199.43310547 261.29052734 C-202.53720214 261.24807009 -205.20826598 261.40305064 -208.30810547 261.85302734 C-211.42142293 262.29816582 -214.08889747 262.15045593 -217.20654297 261.76318359 C-226.46123798 260.93277828 -235.71457475 261.57726113 -244.97949219 262.01464844 C-248.18897177 262.16580363 -251.39880057 262.30526099 -254.60888672 262.44287109 C-256.67011506 262.53463825 -258.73131423 262.62706332 -260.79248047 262.72021484 C-261.74161316 262.76193817 -262.69074585 262.8036615 -263.66864014 262.84664917 C-264.57027893 262.88984283 -265.47191772 262.9330365 -266.40087891 262.97753906 C-267.18186951 263.01386444 -267.96286011 263.05018982 -268.76751709 263.08761597 C-272.34173698 263.35969469 -275.8770473 263.83846626 -279.43310547 264.29052734 C-279.54543704 352.67000846 -279.49535001 441.04910761 -279.03850966 604.2908375 C-279.03075313 606.86760032 -279.02300788 609.44436317 -279.01526454 612.02112603 C-278.88403084 655.67228085 -278.74769171 699.32341928 -278.60935753 742.97455211 C-278.52379817 769.97475093 -278.43938289 796.9749531 -278.35598755 823.97515869 C-278.35310817 824.90732067 -278.35022878 825.83948264 -278.34726215 826.79989195 C-278.30652345 839.99012286 -278.26586705 853.18035402 -278.22524594 866.37058529 C-278.21655879 869.19139162 -278.20787049 872.01219796 -278.1991819 874.8330043 C-278.15018843 890.73935207 -278.10119867 906.64569985 -278.05227799 922.55204785 C-277.99251175 941.98461482 -277.93260797 961.41718135 -277.87232018 980.8497467 C-277.60692905 1066.40223753 -277.35154383 1151.95472041 -277.13813856 1237.50735917 C-277.11866602 1245.31106338 -277.09899045 1253.11476705 -277.07916832 1260.91847038 C-277.04716948 1273.51620317 -277.01530542 1286.11393629 -276.98364258 1298.71166992 C-276.98115013 1299.70332117 -276.97865768 1300.69497243 -276.9760897 1301.71667372 C-276.91955728 1324.23134421 -276.86517967 1346.74601714 -276.81595233 1369.26070485 C-276.78454248 1383.6160579 -276.75037738 1397.97140212 -276.71338153 1412.32674187 C-276.6943401 1419.75518037 -276.67653358 1427.18361521 -276.66315842 1434.61206627 C-276.59119114 1474.17962658 -276.13399606 1513.72984375 -275.43310547 1553.29052734 C-232.36674018 1553.4185638 -189.30037321 1553.54601781 -146.23400395 1553.67270961 C-141.12939129 1553.68772675 -136.02477865 1553.70274863 -130.92016602 1553.71777344 C-129.90409063 1553.72076405 -128.88801525 1553.72375467 -127.84114971 1553.72683591 C-111.47026689 1553.77503157 -95.09938523 1553.82360936 -78.72850398 1553.87233275 C-61.88323164 1553.92245937 -45.03795809 1553.97216516 -28.1926834 1554.02149439 C-17.8298807 1554.05185337 -7.46707904 1554.08252597 2.89572147 1554.11362278 C10.03834055 1554.13502473 17.18096077 1554.15601154 24.32358196 1554.17669713 C28.42123073 1554.18857573 32.51887884 1554.20061291 36.61652565 1554.21315193 C44.68654795 1554.23773674 52.75656145 1554.25935814 60.82660695 1554.27474034 C65.65875288 1554.28454814 70.4908381 1554.30147461 75.32295316 1554.32121053 C78.7882104 1554.33438702 82.25347079 1554.34338955 85.71874318 1554.35151666 C87.38707881 1554.35632259 89.05541038 1554.36287971 90.72373196 1554.37124592 C93.02586881 1554.38254855 95.32794142 1554.38771777 97.6301012 1554.39141083 C98.94782483 1554.39606338 100.26554845 1554.40071593 101.6232031 1554.40550947 C104.45523528 1554.62850962 104.45523528 1554.62850962 105.56689453 1553.29052734 C105.66241944 1550.60887718 105.69260957 1547.95338684 105.68006897 1545.2714386 C105.67979487 1544.00821315 105.67979487 1544.00821315 105.67951524 1542.719468 C105.67723373 1539.89847492 105.66730053 1537.07756618 105.65698242 1534.2565918 C105.6529615 1532.25836126 105.64914832 1530.2601303 105.64553165 1528.26189899 C105.59583587 1506.87706962 105.38379483 1485.4935849 105.15950704 1464.11001229 C105.10052766 1458.42941373 105.04434708 1452.74878761 104.98814392 1447.06816101 C104.97664143 1445.90557394 104.96513895 1444.74298687 104.9532879 1443.54516989 C104.92986225 1441.1757315 104.90645235 1438.80629295 104.88305795 1436.43685424 C104.84756898 1432.84957665 104.81182799 1429.26230163 104.77605152 1425.67502689 C104.53991878 1401.92768625 104.33229381 1378.18012421 104.13046813 1354.43247056 C104.09230503 1349.94545469 104.05393998 1345.45844055 104.01558512 1340.97142631 C103.92706665 1330.61406097 103.83891002 1320.25669258 103.75094604 1309.89932251 C103.53757228 1284.77971024 103.32196987 1259.66011704 103.10595703 1234.54052734 C103.09491558 1233.25605469 103.08387413 1231.97158204 103.07249808 1230.64818597 C102.61759801 1177.73811465 102.14490157 1124.82821095 101.66563207 1071.91835535 C101.5373688 1057.75782268 101.4097134 1043.59728463 101.28238928 1029.4367435 C101.19111207 1019.28644151 101.0997122 1009.13614062 101.00830078 998.98583984 C100.99854682 997.90250319 100.98879285 996.81916654 100.97874331 995.7030015 C100.78376491 974.05082706 100.58850072 952.39865778 100.3828125 930.74658203 C100.37572694 930.00069388 100.36864139 929.25480572 100.36134112 928.48631489 C100.33372323 925.58006809 100.30608998 922.67382143 100.27844888 919.76757485 C100.01416957 891.96901786 99.76738212 864.17045102 99.58699036 836.37120819 C99.56620927 833.18547767 99.54476263 829.99975198 99.52331543 826.81402588 C99.43821099 813.9526847 99.37379074 801.09145982 99.33673096 788.22988892 C99.32518315 784.34504185 99.30719546 780.46031876 99.28289795 776.57553101 C99.25576093 772.16532444 99.24335756 767.75532532 99.24269485 763.34503746 C99.24013377 761.75989794 99.23257203 760.1747563 99.21931076 758.58967018 C99.11825318 745.86567189 100.32004847 734.49649474 106.57861328 723.21630859 C107.71908556 721.35472589 107.71908556 721.35472589 107.56689453 719.29052734 C108.22689453 719.29052734 108.88689453 719.29052734 109.56689453 719.29052734 C111.88281475 716.06938577 111.88281475 716.06938577 112.56689453 712.29052734 C113.22689453 712.29052734 113.88689453 712.29052734 114.56689453 712.29052734 C116.07535605 710.76431858 116.07535605 710.76431858 117.56689453 708.85302734 C120.3635047 705.39222226 120.3635047 705.39222226 122.56689453 704.29052734 C122.56689453 703.63052734 122.56689453 702.97052734 122.56689453 702.29052734 C123.09283203 702.03142578 123.61876953 701.77232422 124.16064453 701.50537109 C125.98546793 700.58407227 127.79552901 699.63346122 129.59814453 698.66943359 C146.72530398 689.70081969 164.10737203 687.0057993 182.87939453 692.39208984 C186.30327907 693.53670241 189.54062651 694.9523473 192.78955078 696.52099609 C194.54999007 697.42296882 194.54999007 697.42296882 196.56689453 697.29052734 C196.56689453 697.95052734 196.56689453 698.61052734 196.56689453 699.29052734 C199.7880361 701.60644757 199.7880361 701.60644757 203.56689453 702.29052734 C203.56689453 702.95052734 203.56689453 703.61052734 203.56689453 704.29052734 C204.55689453 704.29052734 205.54689453 704.29052734 206.56689453 704.29052734 C206.56689453 704.95052734 206.56689453 705.61052734 206.56689453 706.29052734 C207.22689453 706.29052734 207.88689453 706.29052734 208.56689453 706.29052734 C208.56689453 706.95052734 208.56689453 707.61052734 208.56689453 708.29052734 C209.22689453 708.29052734 209.88689453 708.29052734 210.56689453 708.29052734 C211.56689453 710.29052734 212.56689453 712.29052734 213.56689453 714.29052734 C214.22689453 714.29052734 214.88689453 714.29052734 215.56689453 714.29052734 C224.33285921 731.65468705 227.65541735 745.53885259 227.79431152 764.90716553 C227.80671104 766.1336941 227.81911056 767.36022267 227.83188581 768.62391877 C227.86514069 772.00236846 227.89440588 775.38080863 227.92193007 778.75930691 C227.95275236 782.42077607 227.98880222 786.08219441 228.02418518 789.74362183 C228.09290757 796.9389037 228.15686932 804.13422046 228.21929371 811.32955942 C228.29331302 819.8366921 228.37237413 828.34377591 228.45163554 836.8508611 C228.59438745 852.18814019 228.73300312 867.52545385 228.86914062 882.86279297 C228.99854054 897.44028986 229.13009392 912.01776458 229.26464844 926.59521484 C229.27279103 927.47748766 229.28093363 928.35976049 229.28932297 929.26876885 C229.32214867 932.82492031 229.35498247 936.38107171 229.38782841 939.93722299 C229.5427542 956.71643581 229.69582137 973.49566571 229.84814453 990.27490234 C229.8560424 991.14487767 229.86394027 992.01485301 229.87207747 992.91119123 C230.21323336 1030.51318933 230.54518385 1068.11518987 230.81514072 1105.71777487 C230.84765434 1110.24507672 230.8807542 1114.77237416 230.9139328 1119.29967117 C230.93528877 1122.22112251 230.95660572 1125.14257413 230.97790527 1128.06402588 C230.98309156 1128.77457734 230.98827784 1129.48512879 230.99362129 1130.21721211 C231.05830225 1139.09787125 231.11871359 1147.97854446 231.17487049 1156.85926151 C231.20707938 1161.83099954 231.24265295 1166.80270972 231.27902985 1171.77441883 C231.29475394 1174.02734025 231.30902559 1176.28027243 231.32160187 1178.53321362 C231.40180983 1192.80925608 231.81405362 1207.03372417 232.56689453 1221.29052734 C244.44816167 1222.87852143 256.26320287 1224.39706734 268.25439453 1224.72802734 C288.35345423 1225.3442679 308.37400804 1228.11637185 328.33642578 1230.40771484 C329.12369049 1230.49802475 329.9109552 1230.58833466 330.72207642 1230.68138123 C334.45191473 1231.11002561 338.18123767 1231.54242454 341.90966797 1231.9831543 C371.18511308 1235.42370914 406.11509086 1239.01642918 433.56689453 1225.29052734 C436.41057354 1215.70904687 435.93433091 1205.27922935 435.89892578 1195.37646484 C435.8980427 1194.50288708 435.89715961 1193.62930931 435.89624977 1192.72925949 C435.84003508 1170.4444361 434.29383505 1148.252436 432.74673462 1126.03082275 C431.98059874 1115.0168774 431.26582909 1103.99952193 430.5477581 1092.98235703 C430.38896609 1090.54696073 430.22979432 1088.11158917 430.07023811 1085.67624283 C428.84229024 1066.92893081 427.69727061 1048.18585382 426.87939453 1029.41552734 C426.82649261 1028.2029425 426.7735907 1026.99035767 426.71908569 1025.74102783 C425.87639707 1005.94761384 425.25745052 986.14574204 424.60986328 966.34521484 C424.5670907 965.04210484 424.52431812 963.73899483 424.4802494 962.39639664 C424.34890847 958.39480837 424.21786078 954.39321073 424.0871582 950.39160156 C424.0653515 949.72410928 424.04354479 949.056617 424.02107728 948.36889768 C423.74295184 939.8433221 423.47428767 931.31750017 423.21444511 922.79134464 C422.44569051 897.66017885 421.54346108 872.55124052 420.06298828 847.45068359 C420.00287064 846.42197647 419.94275299 845.39326935 419.8808136 844.33338928 C416.39112382 785.35819874 407.71474553 729.04473565 384.56689453 674.29052734 C384.23693481 673.50983887 383.9069751 672.72915039 383.5670166 671.92480469 C377.96415698 658.68585842 372.27327454 645.48510559 366.56689453 632.29052734 C365.84124364 630.61135619 365.11565647 628.93215751 364.39013672 627.25292969 C361.65514491 620.92343105 358.9194974 614.59422026 356.1784668 608.26733398 C352.81611017 600.50492817 349.47108202 592.73577648 346.15576172 584.953125 C331.76548615 551.19363879 316.69209206 517.72573079 301.56689453 484.29052734 C301.22873718 483.54266968 300.89057983 482.79481201 300.54217529 482.02429199 C299.54947166 479.82902047 298.55629114 477.63396529 297.56298828 475.43896484 C297.24361801 474.7326593 296.92424774 474.02635376 296.59519958 473.29864502 C295.04065926 469.86453966 293.47772412 466.43474685 291.89575195 463.01318359 C289.18394485 457.13709678 286.52356943 451.26407011 284.10966492 445.25819397 C278.94171656 430.18153851 278.94171656 430.18153851 268.23242188 419.44921875 C265.54566886 418.43766275 262.83108396 417.70572592 260.04589844 417.01660156 C254.83035684 415.48902418 249.94425751 413.03121424 245.00439453 410.79052734 C242.830667 409.83179012 240.6562044 408.87471751 238.48095703 407.91943359 C232.7615932 405.3871893 227.08888534 402.77265055 221.43408203 400.09912109 C217.44646745 398.22102105 213.42754103 396.41380069 209.40966797 394.6015625 C201.31389297 390.94825899 193.29139207 387.22600088 185.37548828 383.19677734 C180.35715078 380.6606134 175.26909017 378.26843604 170.19189453 375.85302734 C162.84849497 372.35724402 155.54157207 368.8052232 148.28222656 365.13842773 C142.96984631 362.4658118 137.60210471 359.92113031 132.20214844 357.43041992 C124.57374697 353.88831503 117.08099622 350.06700126 109.56689453 346.29052734 C89.979465 336.45421547 70.39767437 326.63038431 50.56689453 317.29052734 C47.25392963 315.72901061 43.94128657 314.16681841 40.62939453 312.60302734 C39.84910889 312.2347583 39.06882324 311.86648926 38.26489258 311.48706055 C32.77144874 308.88502552 27.33061726 306.19011212 21.9050293 303.44995117 C15.09989721 300.0268144 8.221911 296.75802799 1.33740234 293.49804688 C-4.88315769 290.54300365 -11.05072937 287.49290373 -17.20568848 284.40449524 C-34.7712566 275.59882722 -52.47468709 267.04014072 -70.30810547 258.79052734 C-71.29939453 258.32799561 -72.29068359 257.86546387 -73.31201172 257.38891602 C-74.21564453 256.97488525 -75.11927734 256.56085449 -76.05029297 256.13427734 C-77.21987549 255.59577148 -77.21987549 255.59577148 -78.41308594 255.04638672 C-81.9127638 253.73686259 -85.32279205 254.47402269 -88.95654297 254.91162109 Z " fill="#101010" transform="translate(1363.43310546875,174.70947265625)"/>
<path d="M0 0 C0.639375 0.598125 1.27875 1.19625 1.9375 1.8125 C1.9375 2.4725 1.9375 3.1325 1.9375 3.8125 C2.576875 4.080625 3.21625 4.34875 3.875 4.625 C5.9375 5.8125 5.9375 5.8125 6.9375 8.8125 C7.5975 8.8125 8.2575 8.8125 8.9375 8.8125 C21.30912749 22.03734317 23.79411229 42.04392194 27.67234802 59.00462341 C29.43666807 66.71554112 31.30526424 74.39500966 33.25 82.0625 C36.73977333 95.85656369 40.02821437 109.69638072 43.2980957 123.54394531 C45.91544171 134.6134545 48.62417158 145.65686478 51.40289307 156.68695068 C52.10505543 159.47868541 52.79926533 162.27236526 53.4921875 165.06640625 C58.4329513 184.95343634 63.44716025 204.80871227 69.125 224.5 C70.39893434 228.93661746 71.67008013 233.37401715 72.9375 237.8125 C73.30415771 239.09181396 73.30415771 239.09181396 73.67822266 240.39697266 C77.13790823 252.62085052 78.19606061 263.4175954 74.9375 275.8125 C74.75445313 276.51503906 74.57140625 277.21757813 74.3828125 277.94140625 C72.18857076 285.29617948 68.4607341 292.0266546 64.9375 298.8125 C64.2775 298.8125 63.6175 298.8125 62.9375 298.8125 C62.875625 299.369375 62.81375 299.92625 62.75 300.5 C61.58584483 303.81336472 59.54291556 305.51725296 56.9375 307.8125 C55.9475 308.1425 54.9575 308.4725 53.9375 308.8125 C53.9375 309.4725 53.9375 310.1325 53.9375 310.8125 C51.70703125 312.43359375 51.70703125 312.43359375 48.75 314.25 C47.78707031 314.84683594 46.82414062 315.44367188 45.83203125 316.05859375 C44.39923828 316.92677734 44.39923828 316.92677734 42.9375 317.8125 C42.07125 318.34875 41.205 318.885 40.3125 319.4375 C27.92903295 326.60687566 9.76783262 327.46699329 -3.8515625 324.12890625 C-12.87764642 321.13352442 -23.90104236 316.14832593 -31.0625 309.8125 C-31.0625 309.1525 -31.0625 308.4925 -31.0625 307.8125 C-32.0525 307.4825 -33.0425 307.1525 -34.0625 306.8125 C-34.0625 306.1525 -34.0625 305.4925 -34.0625 304.8125 C-34.990625 304.4721875 -34.990625 304.4721875 -35.9375 304.125 C-38.67660209 302.43320165 -39.11274472 300.82005839 -40.0625 297.8125 C-40.7225 297.8125 -41.3825 297.8125 -42.0625 297.8125 C-46.06362153 290.8866546 -49.3547493 284.11077152 -51.8125 276.5 C-52.14121094 275.49783447 -52.46992187 274.49566895 -52.80859375 273.46313477 C-57.6786886 258.20901102 -61.50172864 242.63971321 -65.4675293 227.13238525 C-66.3920494 223.52753455 -67.32861721 219.92583994 -68.265625 216.32421875 C-70.2149684 208.82466545 -72.14475448 201.32020157 -74.0625 193.8125 C-74.3301416 192.76529785 -74.5977832 191.7180957 -74.87353516 190.63916016 C-78.09556438 177.99386878 -81.13439784 165.31150253 -84.07992554 152.59912109 C-85.80976704 145.13463255 -87.55826809 137.67836893 -89.4375 130.25 C-92.87125547 116.66337749 -96.20410815 103.05221467 -99.46998596 89.42430115 C-100.54061764 84.96016973 -101.63806559 80.50388172 -102.75390625 76.05078125 C-107.04612129 58.44005406 -109.52245374 39.16761603 -100.82421875 22.4296875 C-99.63829674 20.4984337 -98.36911012 18.66318752 -97.0625 16.8125 C-95.69066724 14.49947454 -94.38103596 12.15656394 -93.0625 9.8125 C-92.4025 9.8125 -91.7425 9.8125 -91.0625 9.8125 C-90.815 9.19375 -90.5675 8.575 -90.3125 7.9375 C-88.85621361 5.46181313 -87.68437494 4.86124998 -85.0625 3.8125 C-85.0625 3.1525 -85.0625 2.4925 -85.0625 1.8125 C-84.4025 1.8125 -83.7425 1.8125 -83.0625 1.8125 C-82.7325 0.8225 -82.4025 -0.1675 -82.0625 -1.1875 C-56.54995394 -19.75007662 -25.11814005 -17.94152861 0 0 Z " fill="#101010" transform="translate(1294.0625,571.1875)"/>
<path d="M0 0 C0 0.66 0 1.32 0 2 C0.66 2 1.32 2 2 2 C2 2.66 2 3.32 2 4 C2.61875 4.2475 3.2375 4.495 3.875 4.75 C6.35068687 6.20628639 6.95125002 7.37812506 8 10 C8.66 10 9.32 10 10 10 C11.91117829 12.50273347 13.40372401 15.28825404 15 18 C15.70125 19.093125 16.4025 20.18625 17.125 21.3125 C27.83946675 40.22548584 22.86242118 63.28784737 18 83 C17.50130095 85.06248455 17.00562677 87.1256821 16.51017761 89.18894958 C14.63216582 97.00854384 12.72595377 104.82104726 10.80815125 112.63096619 C8.80448806 120.79113183 6.81500447 128.95472068 4.82913208 137.11923218 C4.25350993 139.48557094 3.67741876 141.85179521 3.10131836 144.21801758 C1.14836948 152.24408248 -0.78718222 160.27377949 -2.6875 168.3125 C-5.35381222 179.56801835 -8.15703921 190.78790858 -11 202 C-11.16155579 202.63762268 -11.32311157 203.27524536 -11.48956299 203.93218994 C-26.69975036 263.935298 -26.69975036 263.935298 -32.75 281.5625 C-33.0073291 282.32296631 -33.2646582 283.08343262 -33.52978516 283.86694336 C-35.33942608 288.9082505 -37.61227684 293.80899502 -41 298 C-41.66 298 -42.32 298 -43 298 C-43.37125 299.175625 -43.37125 299.175625 -43.75 300.375 C-45.19494285 303.40937999 -46.05565819 303.67029725 -49 305 C-49.33 305.99 -49.66 306.98 -50 308 C-50.66 308 -51.32 308 -52 308 C-52.33 308.99 -52.66 309.98 -53 311 C-56.12038336 313.33538126 -59.58817188 315.12462428 -63 317 C-64.47533203 317.81791016 -64.47533203 317.81791016 -65.98046875 318.65234375 C-72.27856279 321.98471175 -77.93451488 324.1182096 -85 325 C-85.82628906 325.13277344 -86.65257812 325.26554687 -87.50390625 325.40234375 C-104.74512768 327.68918236 -119.90485041 322.66660597 -134 313 C-134.99 312.34 -135.98 311.68 -137 311 C-137 310.34 -137 309.68 -137 309 C-137.8353125 308.690625 -137.8353125 308.690625 -138.6875 308.375 C-141.97012371 306.42316968 -143.70673246 304.05769006 -146 301 C-146 300.34 -146 299.68 -146 299 C-146.99 298.67 -147.98 298.34 -149 298 C-150.49938732 295.36642266 -151.80879636 292.81014487 -153.0625 290.0625 C-153.42029541 289.28922363 -153.77809082 288.51594727 -154.14672852 287.71923828 C-156.62103042 282.21528476 -158.32483453 277.01927182 -159 271 C-159.20625 269.845 -159.4125 268.69 -159.625 267.5 C-161.3660759 251.24995828 -155.51632927 236.21444828 -151.06665039 220.76220703 C-147.84756446 209.55612266 -144.86215985 198.30195841 -142 187 C-141.74959961 186.01354492 -141.49919922 185.02708984 -141.24121094 184.01074219 C-136.71562732 166.14063414 -132.35933962 148.2288392 -127.9909668 130.31982422 C-125.56379337 120.37264172 -123.12377023 110.42947875 -120.625 100.5 C-118.92012181 93.71715129 -117.24438337 86.92880236 -115.625 80.125 C-115.43059326 79.30845947 -115.23618652 78.49191895 -115.03588867 77.65063477 C-113.86308797 72.70133241 -112.70941002 67.74783901 -111.56756592 62.7913208 C-110.86901878 59.76274318 -110.16603187 56.73520232 -109.46282959 53.70770264 C-109.11792337 52.21719643 -108.77512185 50.72620131 -108.43463135 49.23468018 C-105.1282284 34.75375746 -101.77186187 20.65208462 -92 9 C-91.34 9 -90.68 9 -90 9 C-89.731875 8.360625 -89.46375 7.72125 -89.1875 7.0625 C-88 5 -88 5 -85 4 C-84.505 2.515 -84.505 2.515 -84 1 C-82.109375 -0.5 -82.109375 -0.5 -79.75 -2 C-78.92886719 -2.52335938 -78.10773438 -3.04671875 -77.26171875 -3.5859375 C-76.51535156 -4.05257812 -75.76898437 -4.51921875 -75 -5 C-74.195625 -5.53625 -73.39125 -6.0725 -72.5625 -6.625 C-48.79160884 -19.38011233 -21.43521397 -15.76880544 0 0 Z " fill="#101010" transform="translate(837,571)"/>
</svg>
