<?xml version="1.0" encoding="UTF-8"?>
<!-- Generator: visioncortex VTracer 0.6.12 -->
<svg version="1.1" xmlns="http://www.w3.org/2000/svg" width="2048" height="2048">
<path d="M0,0 L34,0 L65,2 L91,5 L121,10 L154,17 L172,22 L198,31 L216,37 L244,49 L268,60 L290,72 L308,83 L321,91 L340,104 L357,117 L366,124 L366,126 L371,128 L385,140 L390,145 L402,156 L404,160 L408,162 L423,177 L428,183 L428,185 L432,187 L442,199 L451,210 L461,223 L474,241 L481,252 L493,271 L499,281 L505,293 L514,309 L531,347 L537,363 L550,403 L556,426 L559,441 L565,473 L569,506 L571,541 L571,567 L569,603 L565,636 L559,669 L556,683 L549,710 L541,734 L533,757 L520,786 L513,802 L500,825 L494,837 L487,848 L484,853 L482,853 L480,859 L469,875 L456,893 L445,906 L438,915 L429,925 L420,935 L413,943 L403,954 L394,967 L383,988 L379,1001 L377,1027 L376,1068 L374,1092 L369,1121 L362,1145 L352,1168 L344,1183 L334,1198 L326,1208 L318,1218 L316,1218 L314,1222 L311,1231 L308,1250 L306,1281 L307,1308 L309,1344 L309,1371 L307,1396 L304,1413 L298,1432 L290,1449 L282,1461 L273,1471 L259,1485 L246,1493 L234,1499 L216,1505 L209,1506 L208,1515 L203,1533 L194,1552 L184,1565 L173,1576 L159,1585 L151,1589 L134,1594 L118,1596 L-80,1596 L-96,1594 L-113,1589 L-128,1581 L-138,1573 L-148,1563 L-156,1552 L-165,1533 L-171,1511 L-171,1506 L-181,1504 L-196,1499 L-212,1491 L-223,1483 L-242,1464 L-253,1447 L-260,1432 L-266,1413 L-270,1387 L-271,1361 L-271,1338 L-268,1289 L-268,1278 L-270,1250 L-273,1231 L-276,1222 L-278,1218 L-280,1218 L-289,1207 L-299,1194 L-311,1174 L-320,1155 L-326,1139 L-332,1116 L-337,1084 L-338,1068 L-339,1027 L-341,1001 L-346,986 L-357,965 L-372,951 L-379,943 L-387,936 L-396,925 L-405,916 L-413,905 L-422,895 L-435,877 L-443,866 L-451,853 L-461,838 L-473,815 L-480,803 L-487,787 L-499,759 L-505,744 L-508,734 L-519,701 L-524,681 L-532,638 L-536,607 L-538,579 L-538,530 L-535,493 L-530,459 L-525,436 L-521,416 L-515,395 L-501,354 L-492,333 L-483,312 L-471,290 L-460,270 L-450,255 L-443,243 L-434,231 L-423,216 L-415,206 L-410,200 L-401,189 L-392,180 L-384,170 L-372,159 L-365,151 L-355,143 L-347,135 L-334,125 L-325,117 L-307,104 L-296,96 L-285,89 L-274,82 L-259,73 L-236,61 L-220,53 L-204,46 L-172,33 L-132,20 L-108,14 L-71,7 L-42,3 L-20,1 Z M-10,123 L-50,127 L-68,130 L-104,139 L-142,151 L-164,161 L-169,164 L-179,168 L-205,183 L-220,192 L-232,201 L-240,206 L-256,219 L-267,228 L-271,231 L-271,233 L-275,235 L-283,242 L-283,244 L-287,246 L-297,256 L-304,264 L-314,275 L-325,289 L-333,299 L-340,310 L-351,326 L-363,346 L-368,356 L-374,368 L-384,391 L-389,403 L-398,430 L-406,459 L-411,486 L-415,523 L-416,543 L-416,565 L-414,597 L-410,630 L-404,658 L-395,688 L-388,709 L-376,736 L-369,752 L-357,773 L-350,785 L-337,804 L-333,810 L-320,826 L-312,836 L-303,846 L-294,856 L-277,869 L-261,882 L-253,891 L-242,909 L-231,930 L-222,955 L-215,981 L-213,995 L-212,1010 L-211,1051 L-209,1079 L-205,1099 L-198,1115 L-191,1125 L-182,1135 L-175,1142 L-163,1149 L-152,1152 L-131,1154 L-101,1155 L-57,1156 L13,1159 L27,1159 L95,1156 L143,1155 L171,1154 L195,1151 L207,1146 L216,1139 L227,1128 L234,1118 L242,1102 L246,1086 L248,1070 L249,1049 L250,1008 L252,987 L256,969 L265,940 L273,922 L284,902 L294,887 L303,878 L311,871 L319,864 L319,862 L321,862 L328,854 L338,844 L347,833 L358,820 L365,811 L371,802 L378,792 L386,779 L397,760 L405,745 L409,736 L419,713 L424,700 L430,680 L437,657 L443,628 L447,593 L448,580 L448,528 L445,498 L442,476 L436,449 L427,419 L422,403 L415,386 L401,356 L387,332 L380,320 L372,309 L364,297 L354,285 L346,274 L344,274 L342,270 L330,257 L307,234 L299,227 L283,214 L274,207 L264,200 L249,190 L240,184 L229,178 L205,165 L195,161 L175,152 L159,146 L142,141 L118,134 L90,128 L55,124 L42,123 Z M-140,1281 L-141,1298 L-143,1334 L-143,1375 L-142,1382 L-132,1384 L-104,1386 L-74,1387 L112,1387 L144,1386 L170,1384 L180,1382 L181,1373 L181,1332 L179,1292 L178,1281 L162,1281 L86,1283 L39,1285 L-3,1285 L-48,1283 L-128,1281 Z " fill="#101010" transform="translate(1005,191)"/>
<path d="M0,0 L11,0 L25,2 L41,8 L65,24 L75,32 L84,39 L95,48 L108,60 L111,62 L111,64 L115,66 L123,74 L130,82 L142,95 L155,112 L166,127 L179,148 L191,170 L203,197 L216,231 L218,241 L218,257 L216,269 L211,282 L204,293 L195,302 L186,308 L177,312 L168,315 L162,316 L145,316 L129,312 L114,303 L113,300 L109,298 L101,289 L93,273 L87,253 L77,230 L66,209 L56,194 L46,181 L35,168 L35,166 L31,164 L24,156 L21,154 L21,152 L17,150 L9,143 L6,141 L6,139 L2,137 L-18,123 L-33,113 L-38,108 L-43,102 L-43,100 L-45,100 L-51,88 L-51,84 L-53,84 L-55,69 L-55,54 L-52,41 L-49,35 L-43,25 L-38,19 L-36,19 L-35,16 L-29,11 L-17,5 L-8,2 Z " fill="#101010" transform="translate(1175,415)"/>
</svg>
