<?xml version="1.0" encoding="UTF-8"?>
<!-- Generator: visioncortex VTracer 0.6.12 -->
<svg version="1.1" xmlns="http://www.w3.org/2000/svg" width="2048" height="2048">
<path d="M0,0 L46,0 L71,1 L89,3 L90,4 L115,7 L133,11 L142,14 L156,17 L166,20 L176,24 L190,29 L209,37 L223,44 L226,45 L226,47 L232,49 L242,54 L242,56 L248,58 L260,66 L269,72 L269,74 L273,75 L277,77 L277,79 L282,81 L292,88 L292,90 L294,90 L295,92 L302,96 L306,100 L317,109 L325,117 L333,124 L338,130 L344,135 L349,142 L354,147 L359,152 L363,159 L368,163 L372,170 L376,174 L379,179 L388,192 L391,197 L404,219 L412,235 L421,254 L424,263 L429,274 L433,288 L436,296 L441,317 L441,319 L451,320 L455,322 L471,325 L488,330 L512,337 L519,340 L531,344 L535,346 L535,348 L545,351 L566,361 L569,363 L569,365 L573,366 L582,372 L593,380 L593,382 L598,384 L605,391 L611,396 L612,400 L616,402 L626,414 L637,429 L637,431 L640,432 L646,442 L646,444 L648,444 L658,462 L666,478 L673,496 L677,506 L682,522 L687,542 L690,558 L692,566 L695,594 L695,636 L693,661 L691,678 L689,678 L689,687 L686,704 L681,720 L679,727 L674,740 L670,750 L664,764 L662,764 L661,770 L655,781 L646,797 L639,807 L632,818 L624,829 L618,836 L613,841 L607,849 L602,854 L593,862 L589,866 L584,870 L579,875 L568,884 L555,894 L539,904 L529,910 L520,914 L508,920 L501,923 L494,926 L482,930 L480,932 L459,937 L444,939 L441,940 L439,940 L423,942 L366,943 L334,943 L282,944 L255,944 L191,945 L168,945 L116,946 L80,946 L29,947 L1,947 L-40,948 L-85,949 L-104,949 L-168,950 L-247,951 L-279,951 L-330,952 L-365,952 L-382,950 L-404,943 L-412,939 L-425,934 L-439,926 L-444,922 L-455,916 L-459,913 L-459,911 L-463,910 L-467,908 L-467,906 L-471,904 L-483,895 L-497,882 L-505,875 L-509,870 L-510,868 L-515,865 L-519,859 L-524,855 L-527,850 L-531,846 L-543,830 L-546,825 L-550,819 L-554,812 L-561,800 L-569,783 L-572,776 L-579,756 L-584,739 L-588,715 L-591,702 L-592,704 L-594,704 L-593,694 L-592,691 L-592,674 L-590,639 L-589,631 L-588,630 L-585,609 L-581,591 L-578,583 L-572,565 L-565,549 L-559,537 L-554,528 L-544,512 L-538,503 L-535,500 L-531,494 L-529,494 L-527,490 L-519,480 L-513,473 L-506,467 L-501,462 L-491,453 L-485,449 L-482,446 L-473,439 L-462,432 L-457,428 L-451,425 L-449,425 L-449,423 L-434,415 L-415,405 L-406,401 L-406,353 L-404,327 L-401,310 L-393,276 L-391,273 L-387,259 L-383,249 L-379,239 L-375,229 L-368,215 L-360,199 L-352,186 L-349,181 L-347,181 L-345,175 L-344,173 L-342,173 L-341,169 L-339,169 L-337,164 L-327,151 L-321,144 L-320,142 L-318,142 L-316,138 L-309,131 L-305,126 L-300,121 L-292,114 L-287,109 L-280,103 L-278,103 L-278,101 L-273,99 L-272,96 L-261,88 L-250,80 L-238,72 L-231,67 L-224,63 L-214,57 L-209,56 L-208,53 L-199,49 L-185,42 L-167,34 L-152,28 L-133,22 L-127,20 L-111,16 L-92,12 L-85,10 L-60,6 L-40,4 L-38,3 L-15,1 Z M0,149 L-2,150 L-18,151 L-43,154 L-62,157 L-75,161 L-92,165 L-105,170 L-118,175 L-135,184 L-146,190 L-155,196 L-170,206 L-181,215 L-186,218 L-191,224 L-198,230 L-203,235 L-208,242 L-213,247 L-220,257 L-227,268 L-230,273 L-235,283 L-235,285 L-237,285 L-242,298 L-247,311 L-250,319 L-254,334 L-256,345 L-258,363 L-258,383 L-255,400 L-253,403 L-250,417 L-247,424 L-244,435 L-243,441 L-243,451 L-245,467 L-247,470 L-251,483 L-261,497 L-270,506 L-283,514 L-290,517 L-296,519 L-308,523 L-322,527 L-336,533 L-343,536 L-359,544 L-370,550 L-381,557 L-387,561 L-387,563 L-392,565 L-395,567 L-395,569 L-399,571 L-404,576 L-412,584 L-414,589 L-417,590 L-426,605 L-431,615 L-434,622 L-437,631 L-441,648 L-443,658 L-443,679 L-442,685 L-439,703 L-434,719 L-426,735 L-419,747 L-416,751 L-414,751 L-412,756 L-407,761 L-400,769 L-392,776 L-382,785 L-367,795 L-356,801 L-353,803 L-293,803 L-228,802 L-221,802 L-217,801 L-214,802 L-208,801 L-206,802 L-199,801 L-124,800 L-101,800 L-49,799 L-13,799 L38,798 L66,798 L117,797 L145,797 L218,796 L241,796 L293,795 L329,795 L371,794 L386,795 L409,795 L416,794 L420,792 L433,790 L448,785 L456,781 L468,775 L478,768 L483,764 L491,757 L499,749 L504,744 L510,736 L517,726 L525,712 L531,700 L538,682 L544,656 L545,655 L548,629 L548,605 L545,582 L538,558 L535,550 L528,533 L521,521 L518,516 L511,506 L506,501 L499,495 L494,491 L480,484 L460,473 L441,467 L436,465 L401,459 L392,457 L363,452 L343,446 L334,443 L326,434 L318,417 L313,401 L311,401 L310,394 L305,375 L302,367 L296,346 L293,340 L287,320 L283,312 L279,302 L277,301 L275,295 L270,285 L265,277 L262,272 L256,263 L249,254 L240,243 L235,238 L227,229 L225,229 L223,225 L213,216 L205,210 L192,200 L182,193 L163,181 L148,173 L133,167 L130,165 L115,161 L107,158 L96,155 L77,152 L55,150 L54,149 Z " fill="#101010" transform="translate(1247,955)"/>
<path d="M0,0 L41,0 L64,1 L102,6 L118,10 L125,11 L133,14 L145,17 L162,23 L174,28 L192,36 L208,44 L208,46 L214,48 L223,53 L223,55 L229,57 L238,63 L238,65 L244,67 L258,78 L263,82 L275,91 L280,96 L286,101 L286,103 L289,104 L294,109 L301,117 L306,122 L314,131 L314,133 L318,135 L324,143 L333,155 L340,165 L348,178 L357,193 L366,212 L369,217 L372,224 L378,240 L382,250 L385,261 L389,276 L390,282 L401,283 L402,284 L417,287 L440,294 L454,298 L463,302 L472,305 L477,308 L500,319 L518,331 L529,340 L541,351 L548,359 L560,374 L568,386 L577,400 L585,415 L596,441 L604,466 L610,493 L613,514 L614,524 L614,563 L611,594 L608,613 L603,630 L599,644 L594,658 L588,671 L587,674 L585,674 L584,680 L579,689 L569,706 L566,711 L564,711 L562,716 L555,726 L552,731 L550,731 L548,735 L544,741 L539,746 L531,755 L523,762 L513,771 L500,782 L489,790 L476,798 L465,804 L457,808 L447,813 L440,816 L429,820 L415,825 L400,828 L388,829 L378,831 L335,832 L296,832 L258,833 L226,833 L176,834 L149,834 L99,835 L71,835 L22,836 L-6,836 L-55,837 L-76,837 L-133,838 L-161,838 L-210,839 L-238,839 L-276,840 L-322,840 L-338,838 L-352,834 L-364,829 L-380,821 L-397,811 L-405,806 L-405,804 L-410,802 L-420,795 L-420,793 L-425,791 L-442,775 L-447,771 L-450,766 L-456,761 L-460,756 L-463,753 L-471,743 L-479,732 L-485,723 L-489,716 L-495,706 L-500,694 L-505,684 L-513,660 L-518,638 L-521,619 L-525,621 L-522,610 L-522,587 L-520,564 L-517,541 L-514,527 L-511,518 L-506,503 L-500,488 L-493,474 L-488,465 L-484,458 L-482,458 L-480,452 L-468,436 L-463,429 L-461,429 L-459,425 L-441,407 L-439,407 L-439,405 L-428,396 L-413,385 L-403,378 L-396,374 L-379,364 L-363,356 L-358,354 L-358,311 L-357,301 L-356,288 L-354,275 L-351,262 L-344,236 L-340,226 L-332,205 L-324,189 L-317,175 L-309,162 L-308,160 L-306,160 L-304,154 L-292,138 L-287,131 L-283,127 L-276,119 L-273,116 L-271,116 L-269,111 L-264,107 L-259,102 L-256,101 L-254,97 L-244,88 L-240,87 L-240,85 L-231,79 L-228,76 L-212,65 L-204,59 L-197,55 L-181,46 L-166,38 L-148,30 L-131,24 L-117,19 L-103,15 L-71,8 L-52,5 L-26,2 Z M24,130 L0,131 L-15,132 L-35,135 L-49,137 L-71,142 L-84,146 L-97,151 L-104,154 L-120,162 L-126,165 L-138,173 L-150,181 L-155,185 L-166,194 L-174,201 L-181,209 L-187,216 L-193,224 L-197,230 L-207,247 L-214,263 L-219,275 L-225,297 L-228,320 L-228,338 L-225,353 L-221,365 L-220,369 L-216,380 L-215,389 L-215,398 L-217,413 L-221,423 L-225,431 L-234,442 L-238,445 L-238,447 L-243,449 L-252,454 L-265,459 L-285,465 L-302,472 L-321,482 L-328,486 L-342,495 L-349,500 L-349,502 L-353,504 L-358,509 L-368,520 L-371,525 L-371,527 L-373,527 L-375,534 L-377,534 L-382,545 L-382,549 L-384,549 L-390,572 L-391,580 L-391,599 L-390,612 L-385,630 L-379,645 L-372,656 L-369,661 L-365,666 L-361,671 L-356,676 L-347,685 L-336,694 L-326,701 L-322,702 L-322,704 L-312,709 L-251,709 L-201,708 L-174,708 L-124,707 L-89,707 L-51,706 L-19,706 L30,705 L58,705 L108,704 L143,704 L181,703 L213,703 L251,702 L298,702 L328,701 L342,702 L362,702 L376,699 L391,695 L410,687 L422,679 L433,670 L446,657 L457,642 L465,628 L472,613 L478,595 L483,572 L485,555 L485,534 L482,513 L476,492 L470,476 L460,457 L452,446 L443,437 L434,431 L420,424 L404,416 L389,411 L360,405 L330,400 L310,395 L295,390 L289,382 L282,368 L273,341 L265,315 L253,279 L249,271 L245,262 L235,244 L232,239 L225,229 L217,219 L208,208 L206,208 L204,204 L200,202 L198,198 L186,188 L184,188 L183,185 L173,178 L165,172 L149,162 L147,162 L147,160 L139,156 L129,151 L115,145 L102,141 L94,138 L72,134 L48,131 Z " fill="#101010" transform="translate(636,119)"/>
<path d="M0,0 Z " fill="#000000" transform="translate(540,1107)"/>
<path d="M0,0 Z " fill="#000000" transform="translate(12,253)"/>
<path d="M0,0 Z " fill="#000000" transform="translate(13,248)"/>
</svg>
