<?xml version="1.0" encoding="UTF-8"?>
<!-- Generator: visioncortex VTracer 0.6.12 -->
<svg version="1.1" xmlns="http://www.w3.org/2000/svg" width="2048" height="2048">
<path d="M0,0 L57,0 L367,1 L679,0 L726,0 L739,2 L749,6 L766,14 L796,27 L826,41 L864,59 L890,71 L925,88 L957,104 L979,116 L1000,128 L1018,139 L1035,151 L1047,160 L1060,171 L1068,179 L1082,199 L1108,238 L1117,253 L1125,270 L1131,290 L1145,349 L1165,434 L1180,498 L1204,600 L1220,669 L1231,715 L1247,783 L1257,825 L1259,845 L1260,865 L1260,884 L1259,914 L1250,959 L1236,1019 L1224,1069 L1208,1133 L1195,1189 L1184,1238 L1176,1273 L1164,1328 L1157,1352 L1149,1372 L1141,1387 L1129,1403 L1120,1413 L1107,1423 L1095,1430 L1079,1436 L1062,1440 L1040,1443 L1014,1445 L994,1446 L926,1446 L926,1479 L924,1497 L921,1507 L915,1518 L911,1524 L901,1534 L890,1543 L874,1556 L860,1566 L841,1580 L822,1594 L803,1608 L785,1620 L770,1628 L768,1628 L768,1630 L766,1630 L766,1632 L763,1632 L763,1634 L752,1640 L741,1644 L731,1646 L669,1647 L431,1649 L280,1649 L53,1647 L-7,1646 L-22,1642 L-34,1636 L-37,1634 L-37,1632 L-40,1632 L-40,1630 L-42,1630 L-42,1628 L-48,1626 L-64,1617 L-81,1605 L-100,1591 L-119,1577 L-138,1563 L-150,1554 L-164,1543 L-178,1531 L-187,1522 L-193,1511 L-197,1501 L-199,1491 L-200,1477 L-200,1446 L-272,1446 L-306,1444 L-324,1442 L-342,1439 L-359,1434 L-371,1429 L-382,1422 L-391,1415 L-396,1411 L-403,1403 L-412,1391 L-419,1380 L-427,1363 L-436,1336 L-448,1283 L-457,1241 L-467,1198 L-479,1146 L-497,1072 L-508,1027 L-522,968 L-532,920 L-533,914 L-534,884 L-534,865 L-532,832 L-529,817 L-511,740 L-499,690 L-480,609 L-465,545 L-441,443 L-422,362 L-405,290 L-399,270 L-389,249 L-375,227 L-358,202 L-344,182 L-335,172 L-325,163 L-312,153 L-295,141 L-277,130 L-260,120 L-238,108 L-209,93 L-175,76 L-147,63 L-111,46 L-77,30 L-43,15 L-31,10 L-19,4 L-13,2 Z M148,130 L156,145 L162,156 L175,175 L187,189 L194,195 L199,200 L203,203 L205,203 L205,205 L222,215 L241,224 L262,231 L287,236 L314,239 L342,240 L384,240 L413,239 L439,236 L468,230 L490,222 L515,209 L521,205 L521,203 L525,201 L531,197 L536,192 L543,185 L554,171 L567,151 L578,131 L578,130 Z M4,136 L-31,152 L-71,171 L-97,183 L-122,195 L-151,209 L-178,223 L-201,236 L-218,246 L-234,257 L-246,266 L-246,268 L-250,270 L-261,281 L-268,291 L-275,309 L-278,317 L-291,373 L-302,419 L-322,505 L-333,551 L-346,607 L-357,653 L-377,739 L-388,785 L-408,870 L-407,883 L-394,945 L-368,1053 L-351,1122 L-326,1232 L-312,1296 L-307,1313 L-291,1315 L-273,1316 L-202,1316 L-202,1278 L-209,782 L-209,756 L-207,744 L-201,730 L-201,728 L-199,728 L-196,723 L-196,721 L-194,721 L-187,713 L-185,712 L-185,710 L-180,708 L-171,703 L-159,699 L-151,698 L-135,698 L-124,701 L-106,710 L-103,713 L-101,713 L-100,716 L-98,716 L-96,720 L-90,728 L-83,744 L-81,756 L-80,796 L-71,1431 L-70,1452 L-52,1465 L-32,1480 L-14,1493 L2,1505 L21,1515 L24,1516 L48,1517 L283,1519 L457,1519 L684,1517 L702,1516 L721,1507 L740,1493 L759,1479 L778,1465 L796,1452 L797,1431 L806,796 L807,754 L810,741 L818,725 L824,718 L824,716 L827,715 L827,713 L831,712 L834,709 L853,700 L864,698 L879,698 L892,701 L901,705 L909,710 L911,710 L911,712 L919,719 L920,721 L922,721 L924,726 L925,728 L927,728 L929,734 L933,744 L935,758 L935,782 L930,1138 L928,1278 L928,1316 L1001,1316 L1028,1314 L1033,1313 L1039,1292 L1056,1214 L1081,1105 L1097,1041 L1122,936 L1133,883 L1134,870 L1116,793 L1105,747 L1092,691 L1081,645 L1061,559 L1050,513 L1026,411 L1006,325 L1002,310 L997,299 L993,289 L984,278 L974,268 L972,268 L972,266 L956,254 L939,243 L920,232 L894,218 L859,200 L830,186 L789,167 L749,148 L722,136 L719,137 L711,153 L687,201 L671,228 L659,246 L646,263 L635,275 L626,285 L616,293 L611,298 L591,313 L573,324 L561,331 L535,343 L510,352 L483,359 L448,365 L414,368 L361,370 L312,368 L278,365 L243,359 L213,351 L191,343 L171,334 L149,322 L131,310 L118,300 L111,295 L106,290 L93,278 L86,270 L75,257 L62,239 L49,218 L37,197 L11,145 L6,136 Z " fill="#101010" transform="translate(661,207)"/>
</svg>
