<?xml version="1.0" encoding="UTF-8"?>
<svg version="1.1" xmlns="http://www.w3.org/2000/svg" width="2048" height="2048" viewBox="0 0 2048 2048">
<path d="M0 0 C2.53871306 0.00958363 5.07742977 0.01824217 7.61614895 0.02603817 C12.9389017 0.04419946 18.26157389 0.06820563 23.58427048 0.09797287 C31.23072196 0.14064596 38.87718524 0.16911178 46.52371216 0.19436646 C56.79640795 0.22969736 67.06905812 0.27149255 77.34170532 0.31884766 C95.23233615 0.401232 113.12299632 0.47539501 131.01367188 0.54736328 C131.81087391 0.55057285 132.60807594 0.55378241 133.42943561 0.55708924 C221.25928172 0.91034073 309.08943168 1.25495887 610.65669438 0.30955611 C621.4527515 0.26059559 632.24882302 0.21887983 643.04492879 0.18215477 C650.03785374 0.15740484 657.03059795 0.12112987 664.02341717 0.07555991 C668.38143822 0.04894402 672.73946775 0.03057966 677.09753811 0.01420772 C679.08968265 0.00492605 681.08181479 -0.00785703 683.07391059 -0.02459991 C701.89894695 -0.18014971 715.89971151 2.43829183 732.97119141 10.59790039 C739.53133713 13.70625077 746.18372475 16.58162296 752.85510254 19.4420166 C768.92820206 26.33690942 784.78414429 33.65215436 800.58813477 41.14086914 C801.7056311 41.67028107 801.7056311 41.67028107 802.84570312 42.21038818 C810.15402793 45.67313845 817.46163478 49.13740045 824.76708984 52.60620117 C833.74337712 56.86550321 842.74004092 61.07112356 851.77563477 65.20336914 C867.84626473 72.57175169 883.72416593 80.33978713 899.58813477 88.14086914 C900.66559967 88.67058319 900.66559967 88.67058319 901.76483154 89.21099854 C919.24760853 97.81286383 936.60264515 106.5834929 953.58813477 116.14086914 C954.47001465 116.63538574 955.35189453 117.12990234 956.26049805 117.6394043 C974.64900663 127.97319543 992.53785587 138.70341763 1009.58813477 151.14086914 C1010.14726563 151.54547363 1010.70639648 151.95007813 1011.2824707 152.36694336 C1025.03949693 162.34227623 1038.83815333 173.03511096 1048.46313477 187.20336914 C1049.3046106 188.42382935 1049.3046106 188.42382935 1050.16308594 189.66894531 C1052.3200574 192.81602023 1054.45600371 195.97695005 1056.58813477 199.14086914 C1057.07030457 199.8554126 1057.55247437 200.56995605 1058.04925537 201.30615234 C1062.01175954 207.18051367 1065.95911558 213.06491204 1069.90063477 218.95336914 C1070.45998718 219.78740265 1071.0193396 220.62143616 1071.59564209 221.48074341 C1096.35316559 258.43560834 1096.35316559 258.43560834 1102.44360352 279.10180664 C1102.69814301 279.96020645 1102.9526825 280.81860626 1103.2149353 281.70301819 C1106.46658055 292.89088127 1109.07018493 304.23489925 1111.71313477 315.57836914 C1112.30835036 318.11211288 1112.90415533 320.64571822 1113.50048828 323.17919922 C1114.81369165 328.76129691 1116.12266549 334.34437339 1117.42944336 339.92797852 C1119.74968716 349.83984035 1122.08474359 359.74819975 1124.42016602 369.65649414 C1132.20556674 402.69335696 1139.96882136 435.73539994 1147.70556641 468.78369141 C1151.88605496 486.64029999 1156.08204696 504.49321363 1160.28735352 522.34399414 C1162.36690165 531.17209063 1164.44631983 540.00021772 1166.52563477 548.82836914 C1166.78550549 549.93163921 1167.04537621 551.03490929 1167.3131218 552.17161179 C1174.05993602 580.81634586 1180.77408782 609.46806807 1187.40063477 638.14086914 C1191.97924647 657.95159427 1196.61011427 677.74793539 1201.36645508 697.5168457 C1204.09594804 708.86774685 1206.7935446 720.22588251 1209.46704102 731.59008789 C1209.63711418 732.31293032 1209.80718735 733.03577274 1209.98241425 733.78051949 C1211.72830291 741.20217915 1213.47157593 748.62444737 1215.210289 756.04779148 C1216.0581886 759.66752453 1216.90689079 763.28706894 1217.75610352 766.90649414 C1217.9214283 767.6111978 1218.08675308 768.31590145 1218.25708771 769.04195976 C1220.37936803 778.08134984 1222.5436957 787.10933129 1224.76391602 796.12524414 C1225.23208309 798.03894455 1225.7001066 799.95268009 1226.16796875 801.86645508 C1226.98749762 805.21734007 1227.8232208 808.56348858 1228.67041016 811.9074707 C1231.39994422 822.91725965 1232.74121172 833.83731327 1233.58813477 845.14086914 C1233.66821777 846.18001465 1233.74830078 847.21916016 1233.83081055 848.28979492 C1233.98808569 850.59425669 1234.11361982 852.89576864 1234.21313477 855.20336914 C1234.25035645 856.02530762 1234.28757812 856.84724609 1234.32592773 857.6940918 C1234.65385262 865.59300142 1234.74229861 873.47114124 1234.61206055 881.37524414 C1234.58595749 884.39254395 1234.63400995 887.4050594 1234.67797852 890.42211914 C1234.74960649 913.94940934 1229.75184698 936.28752944 1224.58813477 959.14086914 C1224.32802612 960.29226379 1224.06791748 961.44365845 1223.79992676 962.62994385 C1219.79373815 980.30827952 1215.63756916 997.95037904 1211.43511963 1015.58294678 C1210.6355674 1018.94161925 1209.83930537 1022.3010481 1209.04467773 1025.66088867 C1204.39756517 1045.30687469 1199.66349512 1064.9292372 1194.74047852 1084.50805664 C1194.49123658 1085.49931706 1194.49123658 1085.49931706 1194.23695946 1086.51060295 C1193.55749112 1089.21238269 1192.87777692 1091.9141005 1192.19795132 1094.61579037 C1181.37232603 1137.63792878 1171.39247141 1180.83702113 1161.724823 1224.13389587 C1160.01914339 1231.77231412 1158.3073516 1239.40889691 1156.54907227 1247.03540039 C1156.39011475 1247.72514954 1156.23115723 1248.41489868 1156.06738281 1249.12554932 C1155.4409242 1251.84226367 1154.81414277 1254.55890212 1154.18591309 1257.27520752 C1151.92719185 1267.0570085 1149.7779691 1276.85975685 1147.67407227 1286.67602539 C1147.14929135 1289.11532437 1146.62447004 1291.55461466 1146.09960938 1293.99389648 C1145.0775214 1298.74609289 1144.06697886 1303.5005438 1143.06298828 1308.2565918 C1135.68230164 1342.8416306 1126.03120918 1375.31114774 1103.58813477 1403.14086914 C1102.82500977 1404.0909082 1102.06188477 1405.04094727 1101.27563477 1406.01977539 C1076.93758059 1434.60804124 1040.22129108 1441.1007826 1004.75585938 1444.00952148 C999.36853194 1444.42893973 993.98158907 1444.808722 988.58813477 1445.14086914 C987.94561768 1445.18496918 987.30310059 1445.22906921 986.64111328 1445.27450562 C969.67395979 1446.42610539 952.688444 1446.25886778 935.69262695 1446.20953369 C931.72290591 1446.19914014 927.75317811 1446.1947024 923.78344727 1446.18969727 C916.05165851 1446.17910432 908.31990235 1446.16213145 900.58813477 1446.14086914 C900.59238968 1447.08587784 900.59664459 1448.03088654 900.60102844 1449.00453186 C900.61499348 1452.55857253 900.62512015 1456.11258344 900.63276672 1459.66664124 C900.63681677 1461.1958818 900.64233377 1462.72511929 900.64942932 1464.25434875 C900.73824763 1483.90891539 899.81706436 1500.89154819 889.58813477 1518.14086914 C889.01063477 1519.15149414 888.43313477 1520.16211914 887.83813477 1521.20336914 C881.29236085 1529.74924064 872.95479161 1536.46859186 864.58813477 1543.14086914 C863.33253962 1544.17267153 862.07873734 1545.2066582 860.82641602 1546.24243164 C853.50911212 1552.28021187 846.09596793 1558.04910307 838.33032227 1563.49633789 C833.9697468 1566.55909502 829.68599285 1569.72411077 825.40063477 1572.89086914 C824.59779053 1573.48375732 823.79494629 1574.07664551 822.96777344 1574.6875 C821.32620189 1575.9001822 819.68484589 1577.11315623 818.04370117 1578.32641602 C813.27235467 1581.85203216 808.49536823 1585.37001364 803.71655273 1588.88549805 C799.7360036 1591.8150447 795.76278471 1594.75364334 791.80297852 1597.71118164 C750.98002333 1628.14086914 750.98002333 1628.14086914 742.58813477 1628.14086914 C742.58813477 1628.80086914 742.58813477 1629.46086914 742.58813477 1630.14086914 C741.92813477 1630.14086914 741.26813477 1630.14086914 740.58813477 1630.14086914 C740.58813477 1630.80086914 740.58813477 1631.46086914 740.58813477 1632.14086914 C739.59813477 1632.14086914 738.60813477 1632.14086914 737.58813477 1632.14086914 C737.58813477 1632.80086914 737.58813477 1633.46086914 737.58813477 1634.14086914 C723.87703012 1642.09702271 710.9168998 1646.38002305 695.03710938 1646.51757812 C693.98810266 1646.534042 692.93909595 1646.55050587 691.85830116 1646.56746864 C688.25659203 1646.62099317 684.65487131 1646.66034651 681.05297852 1646.69946289 C679.05795598 1646.72595056 677.06293359 1646.75245659 675.06792182 1646.7797429 C665.50758927 1646.90994622 655.94700676 1647.01254804 646.38630962 1647.11171246 C643.49605283 1647.14182862 640.60580263 1647.1725235 637.71555328 1647.20334625 C601.86100571 1647.58487277 566.0059559 1647.90436939 530.15063477 1648.20336914 C528.83209739 1648.21438093 527.51356002 1648.22539272 526.15506697 1648.2367382 C363.59224032 1649.59304868 363.59224032 1649.59304868 135.40063477 1648.20336914 C134.15674248 1648.19246813 132.9128502 1648.18156712 131.63126421 1648.17033577 C102.78102512 1647.91696638 73.93107317 1647.64539799 45.08148098 1647.32624626 C35.03893089 1647.21577093 24.99651346 1647.11555151 14.95360762 1647.04378921 C8.49297183 1646.99720631 2.03264254 1646.93358631 -4.42775917 1646.86169243 C-6.89210715 1646.8374522 -9.35652923 1646.81962144 -11.82097435 1646.80919075 C-30.59955501 1646.72589859 -46.33405197 1644.85941132 -62.41186523 1634.14086914 C-62.41186523 1633.48086914 -62.41186523 1632.82086914 -62.41186523 1632.14086914 C-63.40186523 1632.14086914 -64.39186523 1632.14086914 -65.41186523 1632.14086914 C-65.41186523 1631.48086914 -65.41186523 1630.82086914 -65.41186523 1630.14086914 C-66.07186523 1630.14086914 -66.73186523 1630.14086914 -67.41186523 1630.14086914 C-67.41186523 1629.48086914 -67.41186523 1628.82086914 -67.41186523 1628.14086914 C-68.25104492 1627.89079102 -69.09022461 1627.64071289 -69.95483398 1627.38305664 C-73.76493523 1626.01400331 -77.21291186 1624.25387181 -80.72436523 1622.26586914 C-81.76596802 1621.6764856 -81.76596802 1621.6764856 -82.82861328 1621.07519531 C-91.07446066 1616.30819484 -98.74045889 1610.77037956 -106.41186523 1605.14086914 C-107.16870605 1604.58737793 -107.92554688 1604.03388672 -108.70532227 1603.46362305 C-113.4836227 1599.96606297 -118.24690083 1596.44855827 -123.00463867 1592.9230957 C-126.96839589 1589.98846815 -130.94053654 1587.06523723 -134.91186523 1584.14086914 C-136.48611256 1582.98075166 -138.06033125 1581.82059534 -139.63452148 1580.66040039 C-142.89130371 1578.26056025 -146.14926173 1575.86232693 -149.40795898 1573.46508789 C-186.6510295 1546.06229433 -186.6510295 1546.06229433 -203.41186523 1531.14086914 C-204.29229492 1530.3584082 -205.17272461 1529.57594727 -206.07983398 1528.76977539 C-220.67427152 1515.05540444 -224.45071364 1496.33079872 -225.41186523 1477.14086914 C-225.55006308 1471.68317213 -225.50841843 1466.22466121 -225.47436523 1460.76586914 C-225.46933113 1459.33618324 -225.46477166 1457.90649559 -225.46069336 1456.47680664 C-225.44985989 1453.03145669 -225.43270507 1449.58617487 -225.41186523 1446.14086914 C-226.23838593 1446.14531036 -227.06490662 1446.14975159 -227.91647339 1446.15432739 C-235.88201864 1446.19516935 -243.84752654 1446.2252287 -251.81315422 1446.24449348 C-255.9038849 1446.25473188 -259.99452599 1446.26850198 -264.08520508 1446.29174805 C-292.54284668 1446.44904109 -321.18023484 1446.11400246 -349.41186523 1442.14086914 C-350.49878662 1441.99246582 -350.49878662 1441.99246582 -351.60766602 1441.84106445 C-376.08537667 1438.42898812 -396.99729633 1430.76722948 -416.41186523 1415.14086914 C-417.27811523 1414.50149414 -418.14436523 1413.86211914 -419.03686523 1413.20336914 C-461.49189082 1376.33453113 -467.67451205 1310.36580121 -478.58139038 1258.94888306 C-482.29367199 1241.45104194 -486.33412728 1224.03696921 -490.42822266 1206.62510681 C-492.00366235 1199.91330257 -493.54823863 1193.19483322 -495.07983398 1186.47290039 C-504.76253419 1144.03138849 -515.13947774 1101.76037948 -525.51733398 1059.48461914 C-528.16295712 1048.70678384 -530.7965134 1037.92609241 -533.41186523 1027.14086914 C-533.67743225 1026.04633423 -533.94299927 1024.95179932 -534.21661377 1023.82409668 C-558.14948411 925.09907328 -558.14948411 925.09907328 -558.72827148 907.66040039 C-558.77040771 906.42443115 -558.81254395 905.18846191 -558.85595703 903.91503906 C-558.89503174 902.60768799 -558.93410645 901.30033691 -558.97436523 899.95336914 C-558.99487946 899.27770905 -559.01539368 898.60204895 -559.03652954 897.90591431 C-559.17453816 893.3178569 -559.29618442 888.72954129 -559.41186523 884.14086914 C-559.43667969 883.24078125 -559.46149414 882.34069336 -559.48706055 881.41333008 C-559.74362981 871.12011927 -559.28292179 860.85891468 -558.71914673 850.58242798 C-558.64089808 849.1507668 -558.565555 847.71894304 -558.49349976 846.28695679 C-558.38808571 844.24262636 -558.26715038 842.19972289 -558.14233398 840.15649414 C-558.07425537 838.97345703 -558.00617676 837.79041992 -557.93603516 836.5715332 C-556.76841523 824.46359573 -553.38122819 812.41416375 -550.60327148 800.59008789 C-550.23700663 799.02348372 -549.87092246 797.4568373 -549.50500488 795.89015198 C-548.53270233 791.73044292 -547.55718915 787.57149343 -546.58082962 783.41273499 C-545.96817306 780.80198203 -545.35647642 778.19100595 -544.74508667 775.57995605 C-539.82230036 754.55745448 -534.85844505 733.54574692 -529.79022217 712.55776978 C-524.80374985 691.89812025 -519.94780048 671.20824935 -515.09936523 650.51586914 C-514.89334183 649.63664165 -514.68731842 648.75741417 -514.47505188 647.85154343 C-511.82109825 636.52484961 -509.16948424 625.19760869 -506.51867676 613.87017822 C-503.75580336 602.06413094 -500.99030739 590.2586978 -498.22436523 578.45336914 C-497.9355246 577.22035065 -497.64668396 575.98733215 -497.34909058 574.71694946 C-490.61949603 545.99228288 -483.85742805 517.27525686 -477.09753418 488.55770874 C-470.79698706 461.79131141 -464.50358008 435.0232725 -458.22900486 408.25077438 C-456.87766377 402.48521767 -455.52514012 396.71993938 -454.171875 390.95483398 C-453.98374583 390.15333294 -453.79561666 389.35183189 -453.60178661 388.52604294 C-452.09123067 382.09053406 -452.09123067 382.09053406 -451.34407616 378.90788269 C-449.03993731 369.09231651 -446.74153515 359.27543473 -444.45016956 349.45687866 C-442.89406589 342.79001476 -441.33357233 336.12418747 -439.77004528 329.45906067 C-438.85685938 325.56536079 -437.94573188 321.67120994 -437.04031372 317.7756958 C-426.74089104 273.4799568 -426.74089104 273.4799568 -419.91186523 259.76586914 C-419.49300049 258.90832031 -419.07413574 258.05077148 -418.64257812 257.16723633 C-413.3653584 246.66426335 -406.95102721 236.89004649 -400.41186523 227.14086914 C-399.73140137 226.12412109 -399.0509375 225.10737305 -398.34985352 224.05981445 C-394.09932672 217.72657845 -389.80475148 211.42487347 -385.47827148 205.14331055 C-383.49067589 202.25537924 -381.51349711 199.36052889 -379.53686523 196.46508789 C-359.61063083 167.4346257 -332.39441868 147.94550436 -302.41186523 130.14086914 C-301.03145187 129.31178334 -299.65123921 128.48236325 -298.27124023 127.65258789 C-260.21980107 104.89339973 -219.99092754 84.99784208 -179.70874023 66.50415039 C-172.14159993 63.02839965 -164.61116786 59.47678672 -157.08410645 55.91522217 C-154.78393322 54.82698197 -152.48322621 53.73987795 -150.18237305 52.65307617 C-143.41536027 49.45606508 -136.65014818 46.25538039 -129.89080811 43.04217529 C-114.68968081 35.81900006 -99.43949102 28.73801543 -84.03686523 21.95336914 C-82.97940094 21.48746368 -82.97940094 21.48746368 -81.90057373 21.012146 C-75.23791925 18.08147163 -68.56320475 15.18926327 -61.83374023 12.41430664 C-57.80855475 10.7489582 -53.90055371 8.97179463 -50.03686523 6.95336914 C-34.26539507 -1.27994655 -17.29090746 -0.11656919 0 0 Z M122.58813477 130.14086914 C125.22813477 135.09086914 127.86813477 140.04086914 130.58813477 145.14086914 C131.91844727 147.73961914 131.91844727 147.73961914 133.27563477 150.39086914 C139.62931898 161.94458759 147.41092894 172.92829865 155.96313477 182.95336914 C156.42606934 183.49711182 156.88900391 184.04085449 157.3659668 184.60107422 C160.33417234 187.9779764 163.52932665 190.91763139 166.9921875 193.78344727 C169.32420099 195.76692516 171.4243687 197.97710308 173.58813477 200.14086914 C176.25685851 202.54663916 176.25685851 202.54663916 179.58813477 203.14086914 C179.58813477 203.80086914 179.58813477 204.46086914 179.58813477 205.14086914 C181.99533308 206.77135302 184.38590104 208.254019 186.90063477 209.70336914 C188.04773926 210.36719604 188.04773926 210.36719604 189.21801758 211.04443359 C259.32135864 250.9703214 365.95505706 249.81151089 442.58813477 230.14086914 C460.79472184 225.0291104 480.47456781 216.63132073 495.58813477 205.14086914 C495.58813477 204.48086914 495.58813477 203.82086914 495.58813477 203.14086914 C496.12438477 202.89336914 496.66063477 202.64586914 497.21313477 202.39086914 C502.43376258 199.64317029 506.52770928 196.39936416 510.58813477 192.14086914 C511.07668945 191.68454102 511.56524414 191.22821289 512.06860352 190.75805664 C529.22318182 174.54066433 542.24924658 152.14222663 552.58813477 131.14086914 C552.58813477 130.81086914 552.58813477 130.48086914 552.58813477 130.14086914 C410.68813477 130.14086914 268.78813477 130.14086914 122.58813477 130.14086914 Z M-27.85717773 138.97290039 C-28.85478371 139.42795204 -28.85478371 139.42795204 -29.87254333 139.89219666 C-32.09594993 140.90835367 -34.31649121 141.93060433 -36.53686523 142.95336914 C-37.30473358 143.30556519 -38.07260193 143.65776123 -38.86373901 144.02062988 C-53.33888216 150.65995116 -67.72679994 157.47930241 -82.10009766 164.33569336 C-91.48868341 168.8128469 -100.8939853 173.243562 -110.34936523 177.57836914 C-121.67149108 182.77257702 -132.90785878 188.13263309 -144.12231445 193.55493164 C-147.57022175 195.21721499 -151.0237383 196.86740336 -154.47827148 198.51586914 C-178.03435168 209.77202895 -201.23700698 221.60787981 -223.85473633 234.6652832 C-226.25082483 236.04794111 -228.65302671 237.41935994 -231.05639648 238.78930664 C-240.86085213 244.41927317 -250.22228314 250.55728794 -259.41186523 257.14086914 C-260.02594238 257.57915039 -260.64001953 258.01743164 -261.27270508 258.46899414 C-266.45818098 262.15662882 -266.45818098 262.15662882 -271.41186523 266.14086914 C-271.41186523 266.80086914 -271.41186523 267.46086914 -271.41186523 268.14086914 C-272.23750977 268.48118164 -272.23750977 268.48118164 -273.07983398 268.82836914 C-287.12160158 276.73127352 -294.36284136 292.32875221 -299.53979492 306.73901367 C-300.266648 308.74091193 -301.04624461 310.723561 -301.83862305 312.70043945 C-303.77538816 317.86850963 -304.9497657 323.17909576 -306.16186523 328.55493164 C-306.4157753 329.65945679 -306.66968536 330.76398193 -306.93128967 331.90197754 C-307.47720064 334.278784 -308.02070804 336.65614356 -308.56204224 339.03399658 C-310.02009656 345.43682744 -311.49644987 351.83544606 -312.97045898 358.23461914 C-313.26998393 359.53703583 -313.56949874 360.83945484 -313.8690033 362.14187622 C-316.14056841 372.00613507 -318.47681488 381.85331891 -320.85302734 391.69281006 C-326.515563 415.1422713 -331.95990149 438.64178003 -337.41186523 462.14086914 C-342.8667994 485.65276136 -348.32320669 509.1625752 -353.97875977 532.62719727 C-357.70990834 548.11190143 -361.32325031 563.62254841 -364.91186523 579.14086914 C-368.70225356 595.53172272 -372.53239316 611.91081357 -376.47436523 628.26586914 C-381.68816806 649.90154169 -386.71320966 671.58049725 -391.74329758 693.25944138 C-403.11597525 742.27400083 -403.11597525 742.27400083 -407.31994629 759.74221802 C-407.91028357 762.1967927 -408.49789694 764.65200409 -409.0847168 767.10742188 C-411.31532829 776.43363946 -413.56005903 785.75627485 -415.82397461 795.07446289 C-417.91386714 803.67800275 -419.98724746 812.28540255 -422.04772949 820.89603329 C-423.21172498 825.75742109 -424.3826716 830.61689165 -425.57080078 835.47244263 C-426.69643337 840.0731462 -427.8032619 844.67799773 -428.89696503 849.28639221 C-429.30726023 851.00071162 -429.72420767 852.71345508 -430.14838409 854.4243927 C-432.60172468 864.33948652 -434.09861983 872.89839659 -432.41186523 883.14086914 C-432.26973602 884.05031784 -432.12760681 884.95976654 -431.98117065 885.89677429 C-431.50447351 888.67048892 -430.95713907 891.42056087 -430.38452148 894.17602539 C-430.16865891 895.23817261 -429.95279633 896.30031982 -429.73039246 897.39465332 C-428.99056392 901.00020447 -428.2342815 904.6020002 -427.47436523 908.20336914 C-427.07078796 910.12993851 -427.07078796 910.12993851 -426.65905762 912.09542847 C-415.42836583 965.54288959 -402.06798871 1018.58723684 -388.82983398 1071.56665039 C-388.48766461 1072.93681306 -388.14551656 1074.30698106 -387.8033905 1075.67715454 C-387.55382898 1076.6765742 -387.55382898 1076.6765742 -387.29922581 1077.69618416 C-386.48204571 1080.969273 -385.66537317 1084.24248787 -384.84936523 1087.51586914 C-384.68931377 1088.15774673 -384.52926231 1088.79962433 -384.36436081 1089.46095276 C-370.86150205 1143.66402144 -358.75977287 1198.25005974 -346.87670898 1252.82836914 C-346.71040293 1253.59174276 -346.54409687 1254.35511639 -346.37275124 1255.14162254 C-344.75188779 1262.58572614 -343.14324942 1270.03218689 -341.55761719 1277.48388672 C-338.97775233 1289.53760056 -336.15568966 1301.39169834 -332.41186523 1313.14086914 C-331.35725098 1313.28468018 -330.30263672 1313.42849121 -329.21606445 1313.57666016 C-326.70060221 1313.91967773 -324.18513997 1314.26269531 -321.66967773 1314.60571289 C-308.21249672 1316.13466851 -294.6498728 1316.28734721 -281.12280273 1316.23852539 C-279.55669196 1316.23665238 -277.99058058 1316.23523267 -276.42446899 1316.23423767 C-272.37062869 1316.23048187 -268.3168262 1316.22071402 -264.26300049 1316.20953369 C-259.36256695 1316.19733364 -254.46212052 1316.19288419 -249.56167603 1316.18708038 C-244.55656104 1316.18058314 -239.55146067 1316.16997918 -234.5463562 1316.1579361 C-233.85848998 1316.15629621 -233.17062376 1316.15465632 -232.46191311 1316.15296674 C-230.77856378 1316.14895118 -229.0952145 1316.14491251 -227.41186523 1316.14086914 C-227.30629268 1288.14778506 -227.59118329 1260.16796544 -228.00366616 1232.17818785 C-228.09156463 1226.17151421 -228.17624394 1220.16479497 -228.26133728 1214.15808105 C-228.40859094 1203.79224427 -228.55775226 1193.42643642 -228.70823669 1183.06064606 C-228.9262046 1168.04592185 -229.14071154 1153.03114954 -229.35438758 1138.01636371 C-229.45447969 1130.98345539 -229.5547465 1123.95054956 -229.65506744 1116.9176445 C-229.67011958 1115.86242351 -229.67011958 1115.86242351 -229.68547579 1114.78588492 C-229.92324915 1098.12001514 -230.16279737 1081.45417094 -230.40258789 1064.78833008 C-230.41828374 1063.69739124 -230.41828374 1063.69739124 -230.43429668 1062.58441323 C-230.51907577 1056.69186032 -230.60386006 1050.79930749 -230.68865265 1044.90675477 C-230.93317063 1027.91415996 -231.17727414 1010.92155922 -231.42114258 993.92895508 C-231.43160097 993.20026099 -231.44205936 992.4715669 -231.45283467 991.72079116 C-231.69202274 975.05472775 -231.93082323 958.38865886 -232.16866302 941.72257614 C-232.17868174 941.02055728 -232.18870045 940.31853843 -232.19902277 939.59524627 C-232.29908311 932.58351731 -232.39909241 925.57178763 -232.49901794 918.56005675 C-232.7127226 903.5657275 -232.92751648 888.57141497 -233.14456664 873.57713376 C-233.30266251 862.65483615 -233.45947516 851.73252077 -233.61505377 840.81018701 C-233.69915949 834.9091111 -233.78386452 829.00804545 -233.87023735 823.10700226 C-234.05816241 810.24602472 -234.23417292 797.38502426 -234.38330722 784.52353489 C-234.41022413 782.27779026 -234.43993635 780.03210239 -234.47062111 777.78640652 C-234.51724847 774.15705352 -234.55031289 770.52792205 -234.57702637 766.89837646 C-234.59137081 765.94111955 -234.60571525 764.98386263 -234.62049437 763.99759793 C-234.65374998 754.38513658 -233.37046314 745.25516321 -229.28686523 736.51586914 C-227.19614488 732.48133097 -227.19614488 732.48133097 -226.41186523 728.14086914 C-225.75186523 728.14086914 -225.09186523 728.14086914 -224.41186523 728.14086914 C-222.09594501 724.91972757 -222.09594501 724.91972757 -221.41186523 721.14086914 C-220.75186523 721.14086914 -220.09186523 721.14086914 -219.41186523 721.14086914 C-217.67493366 719.38564966 -217.67493366 719.38564966 -215.91186523 717.20336914 C-212.61428215 713.2420776 -212.61428215 713.2420776 -210.41186523 712.14086914 C-210.41186523 711.48086914 -210.41186523 710.82086914 -210.41186523 710.14086914 C-209.77249023 709.91399414 -209.13311523 709.68711914 -208.47436523 709.45336914 C-205.92299089 708.35992299 -203.72790525 707.17137006 -201.34936523 705.76586914 C-193.74337722 701.48116256 -185.18025004 698.48642125 -176.41186523 698.14086914 C-175.20401367 698.08930664 -173.99616211 698.03774414 -172.75170898 697.98461914 C-157.31054825 697.53177208 -144.53295182 702.0652702 -131.41186523 710.14086914 C-130.87883789 710.6803418 -130.34581055 711.21981445 -129.79663086 711.77563477 C-128.49859372 713.37489148 -128.49859372 713.37489148 -126.41186523 713.14086914 C-126.08186523 714.13086914 -125.75186523 715.12086914 -125.41186523 716.14086914 C-124.75186523 716.14086914 -124.09186523 716.14086914 -123.41186523 716.14086914 C-123.13729492 716.73383789 -122.86272461 717.32680664 -122.57983398 717.93774414 C-121.4623464 720.04564715 -120.26569961 721.58349623 -118.72436523 723.39086914 C-115.7481581 727.31039499 -113.67115457 731.42436985 -111.66186523 735.89086914 C-111.36836182 736.52154297 -111.0748584 737.1522168 -110.77246094 737.80200195 C-105.95227069 748.91587604 -106.05006562 761.08069352 -105.84460449 772.98469543 C-105.80837904 774.72333065 -105.771623 776.46195487 -105.73439837 778.20056897 C-105.6110572 784.18041743 -105.51010785 790.16056272 -105.41186523 796.14086914 C-105.3936732 797.23103914 -105.37548116 798.32120913 -105.35673785 799.44441459 C-105.06622009 816.94602745 -104.81899949 834.44820823 -104.5797992 851.95057982 C-104.47502098 859.6107217 -104.36755805 867.27082543 -104.26002975 874.93092911 C-104.0617065 889.06313432 -103.86529969 903.1953655 -103.66993713 917.32761192 C-103.40307154 936.62956045 -103.13301447 955.93146347 -102.86210507 975.23335562 C-102.7353907 984.26164462 -102.60881442 993.28993555 -102.48226166 1002.31822681 C-102.46327044 1003.67302157 -102.46327044 1003.67302157 -102.44389555 1005.05518591 C-102.14370352 1026.47216159 -101.84476471 1047.88915472 -101.54614258 1069.30615234 C-101.53310264 1070.24131606 -101.5200627 1071.17647978 -101.50662761 1072.13998179 C-101.20205753 1093.98284116 -100.89790631 1115.82570633 -100.59429932 1137.6685791 C-100.56786945 1139.56998343 -100.54143945 1141.47138776 -100.51500931 1143.37279208 C-100.50193442 1144.31341353 -100.48885953 1145.25403497 -100.47538843 1146.2231601 C-100.42262777 1150.01878956 -100.3698661 1153.814419 -100.31710286 1157.61004843 C-100.29076704 1159.50456788 -100.26443184 1161.39908734 -100.23809724 1163.2936068 C-99.94029805 1184.71661334 -99.64193891 1206.1396118 -99.34146881 1227.56258106 C-99.3288286 1228.46380713 -99.31618839 1229.36503321 -99.30316514 1230.29356916 C-99.17693591 1239.29230087 -99.05058457 1248.29103085 -98.92406331 1257.28975846 C-98.86182562 1261.71664307 -98.7996218 1266.14352816 -98.73744202 1270.57041359 C-98.71909037 1271.87695058 -98.71909037 1271.87695058 -98.70036798 1273.20988225 C-98.50416382 1287.18447842 -98.31059826 1301.15910994 -98.11811997 1315.13375788 C-97.92469426 1329.174436 -97.72877943 1343.21507757 -97.53032529 1357.25568553 C-97.41273592 1365.58091704 -97.29710567 1373.90617029 -97.18434229 1382.23146859 C-97.0997003 1388.46449901 -97.01133516 1394.69747164 -96.92158705 1400.93043051 C-96.88604581 1403.43832307 -96.85168054 1405.94623265 -96.81866306 1408.4541597 C-96.73195878 1415.01441456 -96.61414621 1421.57263986 -96.46202052 1428.13169299 C-96.41165051 1431.1537521 -96.42000267 1434.17171871 -96.43546963 1437.19408381 C-96.41544166 1439.08236394 -96.39424564 1440.97063216 -96.37169647 1442.85888386 C-96.39126452 1443.70195021 -96.41083257 1444.54501656 -96.43099359 1445.41363038 C-96.34838827 1449.10620508 -96.12240665 1451.29337012 -93.70159012 1454.18080159 C-90.2833547 1457.23529995 -86.6616379 1459.82616975 -82.64233398 1462.03930664 C-77.22820471 1465.1709791 -72.35740888 1468.82421536 -67.41186523 1472.64086914 C-60.31687198 1478.00343582 -53.15495898 1483.26264952 -45.91748047 1488.43115234 C-42.35850634 1490.98012079 -38.84212375 1493.56042924 -35.40014648 1496.26586914 C-22.64184518 1506.25378742 -8.74735158 1516.01377424 7.79858398 1516.66992188 C9.35079808 1516.73211363 9.35079808 1516.73211363 10.93437004 1516.79556179 C29.53345645 1517.45839889 48.15385233 1517.48701771 66.76232195 1517.64607072 C71.45940765 1517.68675152 76.15646701 1517.73014221 80.85352933 1517.7734248 C96.14384752 1517.91403585 111.43424864 1518.04385306 126.72468948 1518.17033577 C130.05451173 1518.19791425 133.38433263 1518.22564755 136.71415274 1518.25348329 C219.8427452 1518.94826101 302.97165608 1519.56037568 550.96914291 1518.2367382 C554.82904647 1518.20344752 558.6889523 1518.17043261 562.54885864 1518.13746643 C577.19879054 1518.01196592 591.84865146 1517.88045976 606.49845123 1517.74036217 C610.97890152 1517.69756267 615.45936208 1517.65647013 619.93984222 1517.61692238 C625.15214042 1517.57072147 630.36438219 1517.52034331 635.57660961 1517.46676397 C637.45821139 1517.44803801 639.33982717 1517.43065569 641.22145557 1517.41482973 C650.32791862 1517.33728273 659.42134137 1517.17395604 668.51776123 1516.72068787 C669.25509027 1516.68739319 669.9924193 1516.65409851 670.75209165 1516.61979491 C676.46208118 1516.30099351 681.01522777 1515.15096185 686.02563477 1512.45336914 C686.80165039 1512.06109131 687.57766602 1511.66881348 688.37719727 1511.26464844 C696.95145514 1506.74020862 704.57851787 1500.90301804 712.21313477 1494.97143555 C716.12101609 1491.95937817 720.10740298 1489.05551618 724.08813477 1486.14086914 C725.67057514 1484.97606016 727.25260629 1483.81069504 728.83422852 1482.64477539 C729.61781738 1482.06743652 730.40140625 1481.49009766 731.20874023 1480.89526367 C733.59802996 1479.13357314 735.9858355 1477.36988816 738.37329102 1475.60571289 C739.16364746 1475.02362061 739.95400391 1474.44152832 740.76831055 1473.84179688 C742.34969342 1472.67123646 743.92498653 1471.49240155 745.49389648 1470.30517578 C750.18388753 1466.78205608 754.91821358 1463.66551941 760.06103516 1460.83813477 C766.96041734 1456.55647565 766.96041734 1456.55647565 771.31403154 1450.03109535 C771.58050056 1447.60895786 771.60996224 1445.29027455 771.55187225 1442.85413647 C771.56247892 1441.94258913 771.57308559 1441.03104179 771.58401367 1440.09187181 C771.60430513 1438.12475275 771.60823417 1436.15740959 771.59738195 1434.19021581 C771.58817501 1431.15413903 771.63820056 1428.12501699 771.70865726 1425.08981097 C771.86353331 1418.32401154 771.95419562 1411.55803027 772.04333496 1404.79109192 C772.08030735 1402.18364833 772.11759092 1399.57620914 772.15515566 1396.96877402 C772.2358205 1391.33568439 772.31392006 1385.70256396 772.3902607 1380.06941414 C772.50381866 1371.69110858 772.6214884 1363.31286415 772.73997025 1354.93462696 C772.9394009 1340.82474477 773.13563029 1326.71481981 773.33006287 1312.60486794 C773.52280415 1298.61931653 773.71720483 1284.63378965 773.91371155 1270.64829063 C773.9259748 1269.7754992 773.93823806 1268.90270777 773.95087293 1268.00346811 C774.01318593 1263.56938009 774.07553254 1259.13529254 774.13789493 1254.70120522 C774.26468632 1245.68543521 774.39124923 1236.669662 774.51773834 1227.65388775 C774.53039916 1226.75146229 774.54305997 1225.84903682 774.55610445 1224.91926513 C774.85701491 1203.46703319 775.15557841 1182.01476867 775.45385742 1160.5625 C775.48020863 1158.6674012 775.50655987 1156.7723024 775.53291112 1154.87720361 C775.58570088 1151.08066325 775.63848992 1147.28412288 775.69127885 1143.48758252 C775.7043592 1142.54686352 775.71743955 1141.60614452 775.73091628 1140.63691889 C775.75735642 1138.73537773 775.78379606 1136.83383657 775.81023521 1134.9322954 C776.11370197 1113.10719909 776.41789857 1091.28211298 776.72241211 1069.45703125 C776.74195998 1068.05591906 776.74195998 1068.05591906 776.76190276 1066.62650157 C777.06013328 1045.25116079 777.35882536 1023.87582655 777.65853119 1002.5005064 C777.6711714 1001.59896519 777.68381161 1000.69742397 777.69683486 999.76856332 C777.82313707 990.7606889 777.94949143 981.7528152 778.07593669 972.74494279 C778.34629007 953.48355728 778.6153845 934.2221553 778.88188003 914.96071601 C779.07642027 900.90056856 779.27234752 886.84044104 779.46967471 872.78033242 C779.57620567 865.18632368 779.68206842 857.59230709 779.78600883 849.99826241 C780.0009932 834.31438865 780.22830218 818.6308059 780.4811306 802.94748521 C780.55239709 798.50069677 780.61762227 794.05389264 780.67682838 789.60692763 C780.74314162 784.64496505 780.82243255 779.68339388 780.91272789 774.7218112 C780.94243333 772.97199876 780.96755795 771.22210056 780.98737711 769.47214822 C781.13757685 756.56746468 782.24450974 744.35334285 788.40063477 732.76586914 C788.74739258 732.08959473 789.09415039 731.41332031 789.45141602 730.71655273 C791.97158147 725.94144145 794.8557573 722.05986548 798.58813477 718.14086914 C798.58813477 717.48086914 798.58813477 716.82086914 798.58813477 716.14086914 C799.57813477 715.81086914 800.56813477 715.48086914 801.58813477 715.14086914 C801.58813477 714.48086914 801.58813477 713.82086914 801.58813477 713.14086914 C802.48532227 712.98618164 802.48532227 712.98618164 803.40063477 712.82836914 C805.63371529 712.31479278 805.63371529 712.31479278 806.97094727 710.73486328 C814.21635572 703.59336694 828.63000606 698.6544689 838.58813477 698.14086914 C839.75602539 698.07383789 840.92391602 698.00680664 842.12719727 697.93774414 C856.94245993 697.51531303 869.69251473 700.96037247 881.95922852 709.18774414 C883.56129083 710.30921207 883.56129083 710.30921207 885.58813477 710.14086914 C885.58813477 710.80086914 885.58813477 711.46086914 885.58813477 712.14086914 C887.34335424 713.87780072 887.34335424 713.87780072 889.52563477 715.64086914 C893.48692631 718.93845222 893.48692631 718.93845222 894.58813477 721.14086914 C895.24813477 721.14086914 895.90813477 721.14086914 896.58813477 721.14086914 C897.05219727 722.31649414 897.05219727 722.31649414 897.52563477 723.51586914 C898.51688515 726.06417042 898.51688515 726.06417042 899.58813477 728.14086914 C900.24813477 728.14086914 900.90813477 728.14086914 901.58813477 728.14086914 C901.83563477 728.92461914 902.08313477 729.70836914 902.33813477 730.51586914 C903.45431568 733.92548276 903.45431568 733.92548276 904.54125977 736.27368164 C909.17976326 746.76223805 909.71725027 757.26358265 909.66171265 768.55914307 C909.65899805 769.59588645 909.65628346 770.63262984 909.65348661 771.70078969 C909.60008486 785.45862246 909.3940112 799.21515687 909.19473791 812.9714818 C909.13619674 817.03919795 909.07965294 821.10694199 909.02284241 825.17468262 C908.92409518 832.22613849 908.82412093 839.27757607 908.72328568 846.32900238 C908.57532454 856.67609062 908.42928154 867.02320531 908.28364007 877.37032643 C908.04434846 894.36710184 907.80353495 911.36385534 907.56176758 928.3605957 C907.26189565 949.44248851 906.96374804 970.52440533 906.66624416 991.60633168 C906.4448364 1007.2951695 906.22297335 1022.9840009 906.00112231 1038.67283246 C905.91848992 1044.51659081 905.8358982 1050.36034973 905.75333418 1056.20410904 C905.57650984 1068.7188408 905.39939742 1081.23356845 905.22192383 1093.74829102 C905.20862606 1094.68613304 905.1953283 1095.62397506 905.18162757 1096.59023654 C904.82467085 1121.75861067 904.46097874 1146.92687598 904.08878959 1172.09502946 C904.00334509 1177.8747496 903.91835876 1183.65447632 903.83369255 1189.43420792 C903.82200327 1190.23199915 903.81031399 1191.02979039 903.79827049 1191.85175712 C903.75182925 1195.02188235 903.70539916 1198.19200774 903.65902863 1201.36213401 C903.53863284 1209.59188062 903.41733746 1217.82161095 903.29256058 1226.05129242 C902.83751442 1256.08222123 902.43024485 1286.10582542 902.58813477 1316.14086914 C910.79840825 1316.18103318 919.00864075 1316.21942358 927.21899414 1316.23852539 C932.26680889 1316.25032651 937.31454891 1316.26403644 942.36230469 1316.29174805 C975.15842595 1317.02569687 975.15842595 1317.02569687 1007.58813477 1313.14086914 C1012.64205945 1296.78312819 1016.32305345 1280.18628188 1019.87600708 1263.45465088 C1021.69754477 1254.88369032 1023.55585967 1246.32065189 1025.41625977 1237.75805664 C1025.61622118 1236.83736767 1025.81618259 1235.9166787 1026.02220345 1234.96809006 C1031.55386238 1209.52732373 1037.3331697 1184.14258648 1043.15063477 1158.76586914 C1043.55728048 1156.99187996 1043.55728048 1156.99187996 1043.97214127 1155.18205261 C1050.550973 1126.50001428 1057.23877476 1097.85976814 1064.49108887 1069.33999634 C1078.44771907 1014.45417746 1092.07946834 959.34776491 1103.58813477 903.89086914 C1103.80410309 902.85902496 1104.02007141 901.82718079 1104.24258423 900.7640686 C1104.82748151 897.94911871 1105.39904335 895.13192907 1105.96313477 892.31274414 C1106.11912643 891.55420639 1106.2751181 890.79566864 1106.43583679 890.0141449 C1106.87849654 887.72827797 1107.24911585 885.44440996 1107.58813477 883.14086914 C1107.7342218 882.19098618 1107.88030884 881.24110321 1108.03082275 880.26243591 C1109.14369481 870.86570065 1107.37328461 862.68209639 1105.13500977 853.64477539 C1104.75848853 852.06347866 1104.38368723 850.48177154 1104.01048279 848.89968872 C1103.01427423 844.69734896 1101.99481786 840.50098265 1100.97063828 836.30538559 C1099.90614321 831.92622623 1098.86409089 827.54173316 1097.81982422 823.15771484 C1095.97468461 815.4245167 1094.11254679 807.69555902 1092.240592 799.96881199 C1090.61325739 793.25054353 1089.00083217 786.52878623 1087.39672852 779.80493164 C1086.94656578 777.91877478 1086.49637167 776.0326254 1086.04614258 774.14648438 C1085.83493774 773.26161346 1085.62373291 772.37674255 1085.40612793 771.46505737 C1084.77334326 768.81878618 1084.1376997 766.17321691 1083.5012207 763.52783203 C1079.65787943 747.54057312 1075.95139891 731.52221232 1072.2467041 715.50234985 C1068.73561921 700.32463209 1065.17590872 685.16068305 1061.52563477 670.01586914 C1057.8952862 654.95104307 1054.34943558 639.86752673 1050.84204102 624.77368164 C1050.62870558 623.85566647 1050.41537014 622.93765129 1050.19556999 621.99181747 C1048.03355976 612.6864275 1045.87466388 603.38031992 1043.72036743 594.0731411 C1039.04941322 573.89706368 1034.31561409 553.73768995 1029.48594475 533.59898376 C1024.23195893 511.69096176 1019.05813126 489.76439886 1013.90141296 467.83330154 C1013.13647799 464.58067218 1012.37109084 461.3281495 1011.60559082 458.07565308 C1005.94740835 434.03302636 1000.30909939 409.98594141 994.72485352 385.92602539 C994.49351274 384.92955868 994.26217197 383.93309196 994.02382088 382.90642929 C991.82645776 373.44099991 989.63116939 363.97510053 987.44436359 354.50722599 C986.65270878 351.08153171 985.85915531 347.65627893 985.06524086 344.23110771 C984.70407796 342.67073179 984.34379946 341.11015081 983.98454857 339.54933357 C982.24605268 331.99652509 980.45910485 324.4597711 978.49926758 316.9609375 C978.19241028 315.78679794 977.88555298 314.61265839 977.56939697 313.40293884 C976.3345555 309.29788014 974.67563533 305.52637481 972.79125977 301.68383789 C971.61849797 299.20504591 970.7325298 296.73054931 969.83813477 294.14086914 C965.85292072 284.06624804 956.67302241 275.18648956 948.58813477 268.14086914 C947.92813477 268.14086914 947.26813477 268.14086914 946.58813477 268.14086914 C946.58813477 267.48086914 946.58813477 266.82086914 946.58813477 266.14086914 C944.31545271 264.23524206 942.03679577 262.45792361 939.65063477 260.70336914 C938.9291626 260.1691333 938.20769043 259.63489746 937.46435547 259.08447266 C889.66157646 224.07318622 833.1214611 199.25446153 779.53442383 174.53540039 C768.0696791 169.24281654 756.65083745 163.8610197 745.25683594 158.41793823 C732.80930696 152.4744791 720.34925765 146.56366381 707.77563477 140.89086914 C706.66655762 140.38305908 705.55748047 139.87524902 704.41479492 139.35205078 C703.41367676 138.90595459 702.41255859 138.4598584 701.38110352 138.00024414 C700.08982544 137.41968262 700.08982544 137.41968262 698.77246094 136.82739258 C696.44736615 135.86216599 696.44736615 135.86216599 693.58813477 137.14086914 C692.29765349 139.3286502 691.19529959 141.45443323 690.11938477 143.74633789 C689.40592163 145.21821841 688.692375 146.69005845 687.97875977 148.16186523 C687.59461914 148.96348083 687.21047852 149.76509644 686.81469727 150.59100342 C684.61608217 155.1616415 682.36467815 159.7063106 680.11938477 164.25415039 C679.63673157 165.2329718 679.15407837 166.21179321 678.65679932 167.22027588 C668.38959774 188.02028606 658.08274663 208.57281668 645.58813477 228.14086914 C645.05333496 228.98584961 644.51853516 229.83083008 643.9675293 230.70141602 C634.5443573 245.50294954 624.20322953 259.67115602 612.13891602 272.43383789 C609.69351431 275.02903449 607.36034586 277.69634268 605.02563477 280.39086914 C601.33624936 284.51741691 597.36433924 287.9270942 592.94750977 291.25415039 C590.52424736 293.11175879 590.52424736 293.11175879 588.36547852 295.42602539 C584.63643163 299.07115561 580.57053578 302.1432327 576.40063477 305.26586914 C575.52149414 305.92458008 574.64235352 306.58329102 573.73657227 307.26196289 C566.06946151 312.92704473 558.13665933 318.01234819 549.89599609 322.79663086 C548.19630182 323.7866358 546.50455249 324.79031197 544.81738281 325.80151367 C497.62464193 353.88739952 442.81845657 364.95278739 388.58813477 368.14086914 C387.64585022 368.1967218 386.70356567 368.25257446 385.73272705 368.31011963 C352.55929675 370.23659626 319.74778982 370.25884043 286.58813477 368.14086914 C285.76782776 368.09017273 284.94752075 368.03947632 284.10235596 367.98724365 C215.90509993 363.74780793 149.66782377 345.07225004 95.29516602 302.25805664 C93.09790521 300.53956406 90.88321792 298.91084618 88.58813477 297.32836914 C85.5838199 295.13772288 83.20758422 292.77541629 80.58813477 290.14086914 C79.03152774 288.69447554 77.45765776 287.26850795 75.88256836 285.84228516 C70.40485462 280.87485273 65.30762306 275.84358416 60.58813477 270.14086914 C59.79407227 269.2346582 59.00000977 268.32844727 58.18188477 267.39477539 C44.9054021 252.19695288 33.81267487 235.50784346 23.58813477 218.14086914 C23.17983429 217.4508783 22.77153381 216.76088745 22.3508606 216.04998779 C13.57944681 201.17055212 5.7889993 185.87620669 -1.84936523 170.39086914 C-3.56991089 166.91445232 -5.29229121 163.43896089 -7.01686096 159.96453857 C-8.07692513 157.82771352 -9.13450683 155.6896543 -10.18907166 153.55010986 C-13.10787308 147.65334275 -16.15335959 141.85729522 -19.41186523 136.14086914 C-22.52183341 136.14086914 -25.07755722 137.69138168 -27.85717773 138.97290039 Z " fill="#101010" transform="translate(686.411865234375,206.859130859375)"/>
</svg>
