<?xml version="1.0" encoding="UTF-8"?>
<!-- Generator: visioncortex VTracer 0.6.12 -->
<svg version="1.1" xmlns="http://www.w3.org/2000/svg" width="2048" height="2048">
<path d="M0,0 L1322,0 L1350,5 L1378,11 L1402,19 L1419,26 L1434,34 L1453,46 L1467,57 L1477,66 L1488,77 L1500,93 L1508,106 L1518,127 L1526,151 L1532,178 L1536,211 L1537,225 L1537,277 L1527,1113 L1527,1188 L1524,1212 L1519,1231 L1513,1247 L1505,1263 L1495,1279 L1483,1293 L1474,1303 L1463,1313 L1447,1325 L1432,1334 L1411,1345 L1391,1353 L1365,1361 L1336,1367 L1312,1370 L1299,1369 L1296,1368 L726,1367 L726,1649 L765,1649 L1049,1650 L1061,1652 L1073,1657 L1077,1659 L1077,1661 L1080,1661 L1080,1663 L1085,1665 L1085,1667 L1087,1667 L1087,1669 L1090,1670 L1090,1672 L1092,1672 L1100,1685 L1104,1694 L1107,1711 L1107,1720 L1101,1742 L1099,1742 L1098,1747 L1094,1753 L1092,1753 L1090,1758 L1087,1759 L1087,1761 L1082,1763 L1082,1765 L1073,1771 L1059,1776 L1043,1778 L275,1778 L263,1776 L249,1771 L240,1765 L240,1763 L235,1761 L235,1759 L232,1758 L230,1753 L228,1753 L223,1745 L223,1742 L221,1742 L215,1720 L215,1709 L217,1697 L221,1687 L228,1675 L230,1672 L232,1672 L233,1669 L235,1669 L235,1667 L237,1667 L237,1665 L242,1663 L242,1661 L245,1661 L245,1659 L257,1654 L265,1651 L273,1650 L592,1649 L596,1649 L596,1367 L26,1368 L13,1370 L-8,1368 L-39,1362 L-63,1355 L-85,1347 L-101,1339 L-119,1329 L-130,1321 L-143,1311 L-156,1299 L-165,1289 L-175,1276 L-184,1261 L-191,1247 L-198,1228 L-202,1212 L-205,1188 L-205,1113 L-215,275 L-215,225 L-212,192 L-208,168 L-202,144 L-193,120 L-182,99 L-172,85 L-163,74 L-148,59 L-135,49 L-120,39 L-103,29 L-85,21 L-63,13 L-34,6 L-10,2 Z M10,128 L-15,132 L-32,137 L-51,146 L-62,154 L-70,161 L-75,168 L-81,185 L-85,205 L-87,223 L-88,252 L-81,835 L-80,899 L-24,899 L485,900 L882,900 L1391,899 L1402,899 L1404,751 L1410,245 L1409,223 L1406,199 L1402,181 L1397,168 L1389,158 L1379,150 L1365,142 L1351,136 L1335,132 L1310,128 Z M-78,1026 L-78,1086 L-77,1186 L-74,1196 L-68,1206 L-58,1216 L-44,1225 L-31,1231 L-13,1237 L6,1241 L1316,1241 L1338,1236 L1356,1230 L1371,1222 L1382,1214 L1391,1205 L1398,1191 L1399,1181 L1400,1086 L1400,1026 L1137,1026 L649,1027 L140,1026 Z " fill="#101010" transform="translate(363,135)"/>
</svg>
