<?xml version="1.0" encoding="UTF-8"?>
<!-- Generator: visioncortex VTracer 0.6.12 -->
<svg version="1.1" xmlns="http://www.w3.org/2000/svg" width="2048" height="2048">
<path d="M0,0 L10,0 L28,5 L28,7 L37,10 L46,15 L52,20 L52,22 L54,22 L54,24 L57,25 L65,39 L68,51 L68,66 L65,78 L57,95 L49,109 L41,127 L35,140 L30,151 L24,167 L20,177 L12,198 L3,226 L-3,248 L-7,262 L-9,271 L-16,304 L-21,339 L-25,374 L-26,398 L-26,450 L-25,476 L-24,482 L-5,473 L4,468 L17,464 L25,461 L48,454 L63,450 L70,449 L71,448 L82,447 L86,428 L90,416 L93,406 L97,397 L101,387 L108,372 L120,349 L127,338 L136,324 L148,308 L156,298 L158,298 L160,294 L169,283 L174,278 L182,271 L184,268 L186,268 L186,266 L196,258 L201,253 L209,247 L220,238 L230,231 L234,230 L234,228 L247,220 L249,220 L249,218 L262,211 L264,211 L264,209 L280,201 L291,196 L305,190 L322,184 L333,180 L346,177 L347,176 L362,173 L377,170 L408,166 L439,165 L472,165 L498,167 L518,169 L549,174 L571,179 L592,185 L603,189 L620,195 L638,203 L655,212 L665,218 L672,222 L681,228 L693,236 L702,242 L705,245 L712,250 L712,252 L717,254 L728,264 L728,266 L732,268 L737,273 L742,278 L743,281 L747,283 L754,290 L757,295 L761,299 L771,312 L778,323 L778,325 L780,325 L788,339 L794,349 L802,366 L808,380 L815,400 L818,408 L824,431 L828,453 L830,478 L830,519 L845,526 L867,538 L872,542 L879,546 L892,555 L901,562 L911,570 L911,572 L915,574 L933,592 L933,594 L935,594 L941,602 L949,613 L954,621 L954,623 L956,623 L962,634 L969,646 L974,659 L978,668 L984,686 L988,702 L991,721 L993,737 L994,762 L994,775 L997,786 L993,784 L989,809 L983,832 L976,851 L971,861 L967,871 L959,884 L953,894 L945,905 L938,914 L934,920 L929,924 L924,930 L920,934 L915,939 L905,949 L894,958 L892,958 L892,960 L882,967 L877,969 L876,972 L862,980 L847,989 L836,994 L824,999 L810,1003 L790,1005 L739,1005 L702,1004 L669,1004 L619,1003 L591,1003 L534,1002 L514,1002 L464,1001 L436,1001 L387,1000 L384,999 L384,1001 L389,1002 L403,1007 L416,1011 L432,1016 L448,1020 L463,1024 L479,1027 L490,1030 L513,1034 L534,1037 L547,1039 L603,1044 L686,1044 L744,1039 L760,1036 L794,1033 L822,1030 L837,1027 L850,1027 L864,1032 L874,1039 L882,1047 L890,1062 L893,1081 L891,1097 L888,1104 L885,1115 L880,1124 L875,1132 L873,1132 L872,1136 L862,1151 L854,1162 L840,1181 L830,1193 L820,1206 L813,1215 L808,1220 L798,1231 L797,1233 L795,1233 L793,1237 L786,1244 L783,1248 L781,1248 L779,1252 L774,1257 L765,1266 L763,1266 L761,1270 L758,1271 L756,1275 L749,1281 L744,1286 L741,1289 L739,1289 L737,1293 L726,1302 L715,1312 L701,1323 L687,1335 L684,1335 L683,1338 L673,1345 L658,1356 L656,1356 L656,1358 L651,1361 L640,1368 L638,1368 L638,1370 L624,1379 L614,1385 L598,1395 L587,1401 L564,1414 L557,1418 L550,1421 L536,1428 L528,1432 L512,1439 L503,1443 L485,1451 L462,1460 L448,1465 L422,1474 L401,1480 L384,1485 L383,1486 L385,1503 L386,1504 L388,1529 L389,1549 L389,1564 L391,1571 L391,1577 L389,1577 L388,1575 L385,1588 L381,1612 L378,1623 L375,1631 L369,1649 L365,1658 L357,1674 L350,1687 L347,1692 L343,1698 L336,1708 L328,1719 L322,1726 L318,1731 L314,1735 L310,1740 L307,1741 L303,1747 L298,1751 L293,1756 L286,1763 L275,1772 L266,1779 L264,1779 L264,1781 L259,1784 L256,1784 L254,1788 L244,1794 L239,1797 L222,1807 L209,1812 L201,1816 L179,1823 L162,1825 L116,1825 L66,1824 L29,1824 L-35,1823 L-115,1822 L-130,1822 L-172,1821 L-214,1820 L-243,1820 L-293,1819 L-330,1819 L-380,1818 L-409,1818 L-474,1817 L-497,1817 L-547,1816 L-584,1816 L-629,1815 L-642,1813 L-647,1812 L-666,1809 L-683,1805 L-685,1803 L-703,1797 L-708,1794 L-722,1788 L-724,1786 L-732,1783 L-749,1773 L-766,1761 L-777,1752 L-786,1745 L-790,1740 L-795,1737 L-800,1732 L-806,1725 L-813,1719 L-816,1714 L-821,1709 L-827,1702 L-837,1688 L-843,1679 L-850,1668 L-855,1660 L-858,1654 L-865,1640 L-865,1637 L-867,1637 L-875,1618 L-878,1611 L-882,1600 L-884,1593 L-887,1585 L-890,1569 L-892,1560 L-892,1551 L-894,1551 L-897,1526 L-898,1509 L-898,1467 L-895,1439 L-887,1402 L-877,1370 L-873,1361 L-868,1349 L-863,1339 L-857,1328 L-851,1317 L-849,1317 L-847,1312 L-842,1304 L-840,1304 L-838,1299 L-828,1286 L-819,1275 L-815,1273 L-813,1268 L-801,1257 L-796,1255 L-794,1251 L-784,1244 L-775,1238 L-772,1238 L-772,1236 L-751,1225 L-740,1221 L-738,1221 L-738,1219 L-732,1216 L-718,1212 L-709,1208 L-691,1203 L-674,1198 L-658,1195 L-649,1192 L-644,1192 L-640,1172 L-637,1162 L-634,1154 L-628,1137 L-625,1131 L-620,1118 L-612,1102 L-602,1083 L-594,1070 L-588,1061 L-581,1051 L-577,1044 L-572,1039 L-569,1034 L-565,1030 L-561,1023 L-571,993 L-579,966 L-584,947 L-589,922 L-593,904 L-598,869 L-602,833 L-603,809 L-603,742 L-602,717 L-597,672 L-592,640 L-589,627 L-586,611 L-581,590 L-577,575 L-572,557 L-566,539 L-563,529 L-556,509 L-548,489 L-543,478 L-537,462 L-533,454 L-522,431 L-508,404 L-502,394 L-496,382 L-492,377 L-486,366 L-479,355 L-474,348 L-471,343 L-466,335 L-464,335 L-463,331 L-455,320 L-443,303 L-441,303 L-439,298 L-427,283 L-423,279 L-421,275 L-419,275 L-417,271 L-405,257 L-401,252 L-399,252 L-398,248 L-391,242 L-385,234 L-377,227 L-370,219 L-356,205 L-349,199 L-344,194 L-340,192 L-338,188 L-332,183 L-330,183 L-328,179 L-322,174 L-320,174 L-320,172 L-310,164 L-307,163 L-306,160 L-302,159 L-301,156 L-289,147 L-281,141 L-279,141 L-279,139 L-270,132 L-265,129 L-261,128 L-261,126 L-244,114 L-237,109 L-232,106 L-213,94 L-200,86 L-186,78 L-176,72 L-164,66 L-150,58 L-131,49 L-123,45 L-116,42 L-103,36 L-76,25 L-56,17 L-20,5 L-10,2 Z M-83,143 L-99,151 L-111,157 L-121,163 L-126,165 L-134,170 L-145,176 L-160,185 L-160,187 L-164,188 L-174,194 L-174,196 L-179,198 L-188,204 L-192,206 L-192,208 L-197,210 L-209,219 L-225,231 L-238,242 L-248,250 L-252,253 L-252,255 L-256,257 L-269,269 L-277,276 L-289,288 L-295,293 L-302,301 L-313,312 L-320,320 L-324,325 L-327,328 L-327,330 L-330,331 L-339,342 L-348,353 L-350,358 L-353,359 L-365,376 L-376,391 L-384,403 L-390,412 L-402,432 L-409,443 L-415,455 L-419,462 L-427,477 L-436,496 L-441,506 L-447,522 L-455,540 L-462,560 L-469,581 L-474,598 L-478,611 L-482,628 L-486,648 L-492,682 L-496,716 L-498,756 L-498,795 L-496,833 L-492,868 L-488,888 L-485,904 L-480,926 L-475,945 L-474,947 L-472,947 L-467,942 L-460,938 L-451,932 L-445,929 L-445,927 L-438,925 L-429,920 L-429,918 L-424,917 L-403,907 L-383,899 L-370,895 L-362,892 L-352,889 L-345,888 L-336,885 L-318,881 L-293,878 L-292,877 L-273,875 L-240,874 L-203,874 L-174,876 L-165,877 L-160,878 L-137,881 L-112,885 L-105,887 L-78,893 L-75,895 L-57,900 L-31,910 L-18,916 L-4,923 L5,927 L8,930 L20,936 L25,940 L31,943 L41,950 L51,957 L59,963 L69,970 L73,974 L75,974 L75,976 L79,977 L81,981 L87,985 L92,991 L98,996 L103,1001 L112,1011 L115,1015 L117,1015 L119,1020 L124,1025 L135,1040 L136,1042 L138,1042 L139,1046 L141,1046 L143,1052 L147,1057 L155,1071 L163,1085 L170,1101 L174,1109 L178,1121 L181,1126 L186,1141 L188,1148 L191,1157 L199,1192 L201,1209 L202,1234 L202,1274 L218,1282 L231,1289 L244,1296 L246,1296 L246,1298 L257,1304 L265,1310 L271,1314 L279,1320 L281,1320 L282,1323 L291,1330 L293,1330 L295,1334 L300,1338 L302,1338 L304,1342 L308,1346 L310,1346 L312,1350 L322,1361 L326,1367 L330,1371 L333,1376 L335,1376 L337,1380 L340,1385 L341,1386 L349,1385 L373,1378 L394,1372 L416,1364 L433,1358 L448,1352 L458,1348 L467,1344 L492,1332 L500,1328 L514,1321 L528,1313 L539,1307 L552,1299 L561,1294 L566,1290 L575,1285 L586,1277 L597,1270 L597,1268 L602,1266 L613,1258 L624,1249 L629,1246 L629,1244 L633,1243 L636,1240 L644,1233 L658,1221 L666,1214 L671,1209 L681,1200 L689,1193 L696,1185 L703,1179 L710,1171 L714,1166 L719,1161 L724,1156 L730,1149 L730,1147 L709,1148 L677,1150 L611,1150 L578,1148 L536,1144 L514,1141 L478,1135 L465,1132 L454,1130 L429,1124 L402,1117 L383,1111 L361,1104 L344,1098 L329,1092 L316,1087 L305,1082 L288,1075 L267,1065 L248,1055 L226,1043 L215,1036 L209,1033 L204,1030 L199,1026 L188,1020 L185,1017 L178,1013 L161,1001 L145,989 L131,978 L118,968 L113,963 L104,956 L99,951 L96,948 L94,948 L93,945 L85,938 L54,907 L47,899 L38,888 L35,885 L28,877 L20,867 L17,864 L15,860 L13,860 L11,855 L3,845 L-5,834 L-9,828 L-19,813 L-25,804 L-28,799 L-34,790 L-40,778 L-44,771 L-49,762 L-57,747 L-65,731 L-69,722 L-78,701 L-85,684 L-91,667 L-99,644 L-105,623 L-112,598 L-115,584 L-121,555 L-126,523 L-130,486 L-131,473 L-132,434 L-132,410 L-131,376 L-128,345 L-125,318 L-123,308 L-121,292 L-118,279 L-115,263 L-110,241 L-102,209 L-95,188 L-93,179 L-90,172 L-87,162 L-81,146 L-81,143 Z M439,295 L416,297 L387,301 L378,303 L370,306 L355,311 L340,317 L329,323 L325,325 L325,327 L319,329 L304,339 L299,343 L288,351 L288,353 L283,355 L272,365 L272,367 L268,369 L266,373 L264,373 L255,384 L246,395 L240,404 L237,409 L230,421 L226,429 L222,437 L219,444 L207,480 L196,515 L190,533 L182,549 L177,555 L155,562 L131,567 L96,573 L76,578 L61,584 L41,595 L32,600 L22,609 L16,616 L8,629 L9,635 L15,652 L24,673 L28,681 L31,688 L40,707 L47,719 L53,731 L60,742 L68,755 L74,764 L82,775 L89,785 L93,790 L94,792 L96,792 L98,797 L107,807 L115,817 L124,828 L126,828 L128,832 L137,842 L142,847 L144,847 L146,851 L149,852 L151,856 L156,861 L158,861 L160,865 L162,866 L182,867 L230,867 L268,868 L300,868 L337,869 L378,869 L428,870 L455,870 L505,871 L532,871 L569,872 L610,872 L660,873 L687,873 L737,874 L784,874 L794,869 L794,867 L800,865 L810,857 L816,853 L821,848 L830,839 L835,834 L841,826 L847,817 L852,808 L857,795 L862,777 L863,759 L863,745 L860,729 L856,714 L854,714 L853,707 L849,699 L847,699 L845,692 L843,692 L841,687 L833,677 L828,671 L823,667 L821,667 L820,664 L804,653 L797,649 L780,640 L765,633 L741,625 L726,620 L720,617 L712,612 L710,612 L708,608 L703,604 L694,591 L691,584 L689,578 L687,563 L687,554 L689,542 L692,534 L694,527 L699,510 L700,499 L700,485 L697,462 L691,440 L686,428 L681,416 L670,396 L666,391 L662,385 L658,379 L653,374 L645,365 L637,358 L627,350 L616,342 L601,332 L594,328 L578,320 L572,317 L559,312 L535,305 L521,302 L495,298 L470,296 Z M-257,1022 L-258,1023 L-280,1025 L-299,1028 L-310,1031 L-318,1034 L-335,1039 L-343,1043 L-355,1048 L-371,1057 L-385,1066 L-396,1074 L-408,1083 L-419,1092 L-428,1100 L-428,1102 L-432,1104 L-439,1112 L-444,1117 L-452,1127 L-459,1136 L-465,1145 L-468,1150 L-476,1163 L-480,1172 L-480,1174 L-482,1175 L-489,1192 L-492,1199 L-498,1218 L-501,1227 L-507,1247 L-510,1256 L-514,1270 L-514,1274 L-516,1274 L-523,1295 L-531,1310 L-539,1317 L-557,1322 L-566,1325 L-602,1331 L-610,1333 L-639,1338 L-665,1347 L-683,1357 L-699,1365 L-703,1369 L-709,1374 L-714,1379 L-722,1390 L-732,1408 L-738,1423 L-741,1431 L-748,1455 L-751,1478 L-751,1502 L-748,1528 L-746,1534 L-740,1558 L-731,1580 L-722,1596 L-714,1608 L-709,1614 L-705,1619 L-700,1624 L-688,1636 L-682,1640 L-677,1644 L-664,1652 L-652,1657 L-645,1660 L-636,1663 L-620,1666 L-619,1667 L-612,1668 L-589,1668 L-572,1667 L-522,1668 L-485,1668 L-434,1669 L-405,1669 L-333,1670 L-309,1670 L-259,1671 L-229,1671 L-180,1672 L-143,1672 L-92,1673 L-63,1673 L0,1674 L4,1675 L9,1674 L12,1675 L16,1674 L21,1675 L41,1675 L105,1676 L150,1676 L157,1672 L170,1664 L181,1656 L194,1644 L202,1637 L209,1629 L211,1624 L214,1623 L220,1613 L227,1601 L234,1584 L238,1565 L239,1554 L240,1547 L240,1531 L238,1521 L232,1496 L229,1491 L224,1479 L218,1470 L213,1462 L211,1462 L209,1457 L201,1449 L196,1444 L192,1442 L191,1439 L186,1436 L184,1436 L183,1433 L173,1427 L164,1421 L156,1417 L144,1411 L137,1407 L121,1401 L110,1397 L95,1393 L92,1391 L83,1388 L75,1384 L65,1377 L57,1369 L48,1356 L43,1341 L42,1340 L40,1324 L40,1314 L43,1300 L46,1291 L48,1284 L51,1275 L54,1264 L55,1256 L55,1236 L52,1210 L48,1197 L45,1185 L40,1174 L37,1166 L34,1158 L32,1158 L30,1151 L25,1142 L18,1132 L12,1123 L7,1116 L2,1111 L-3,1106 L-10,1098 L-16,1093 L-19,1090 L-33,1079 L-48,1069 L-53,1065 L-67,1058 L-71,1055 L-87,1047 L-104,1041 L-114,1037 L-136,1032 L-141,1030 L-167,1026 L-187,1024 L-201,1023 L-208,1022 Z M730,1146 Z " fill="#101010" transform="translate(976,87)"/>
<path d="M0,0 L2,1 L2,21 L1,21 L0,12 Z " fill="#0D0D0D" transform="translate(724,1358)"/>
<path d="M0,0 L3,1 L2,3 L0,2 Z " fill="#111111" transform="translate(1074,1080)"/>
<path d="M0,0 Z " fill="#000000" transform="translate(1543,1240)"/>
</svg>
