<?xml version="1.0" encoding="UTF-8"?>
<!-- Generator: visioncortex VTracer 0.6.12 -->
<svg version="1.1" xmlns="http://www.w3.org/2000/svg" width="2048" height="2048">
<path d="M0,0 L15,0 L36,6 L55,16 L60,19 L60,21 L64,23 L69,28 L73,33 L81,46 L85,62 L85,80 L82,92 L70,117 L62,132 L51,155 L43,173 L28,210 L17,240 L9,264 L-4,308 L-8,326 L-13,348 L-20,386 L-24,414 L-28,454 L-30,492 L-30,545 L-27,590 L-23,623 L-18,655 L-12,684 L-3,720 L5,746 L15,776 L28,808 L41,837 L52,860 L64,882 L76,903 L96,933 L106,947 L115,959 L125,972 L139,989 L151,1003 L163,1016 L174,1028 L196,1050 L204,1057 L218,1070 L229,1079 L243,1091 L259,1103 L275,1115 L308,1137 L327,1149 L348,1161 L370,1173 L400,1188 L429,1201 L457,1212 L478,1220 L492,1225 L509,1230 L525,1235 L539,1239 L558,1244 L576,1248 L592,1252 L620,1257 L659,1263 L694,1267 L738,1270 L765,1271 L811,1271 L855,1269 L899,1265 L923,1262 L937,1260 L996,1254 L1026,1249 L1034,1249 L1047,1253 L1057,1258 L1067,1265 L1067,1267 L1070,1268 L1070,1270 L1072,1270 L1075,1274 L1075,1276 L1077,1276 L1085,1292 L1089,1315 L1087,1331 L1082,1345 L1078,1358 L1071,1370 L1052,1398 L1040,1415 L1024,1436 L1014,1449 L1005,1460 L997,1470 L984,1485 L975,1495 L968,1503 L965,1507 L963,1507 L961,1511 L946,1526 L945,1528 L943,1528 L942,1531 L940,1531 L940,1533 L938,1533 L936,1537 L933,1538 L933,1540 L931,1540 L931,1542 L929,1542 L929,1544 L921,1551 L909,1563 L901,1570 L897,1572 L896,1575 L885,1584 L873,1595 L863,1603 L847,1616 L834,1626 L818,1638 L803,1649 L770,1671 L755,1681 L743,1688 L734,1694 L723,1700 L709,1708 L697,1715 L683,1722 L664,1732 L643,1742 L635,1746 L612,1756 L601,1761 L571,1773 L547,1782 L510,1794 L484,1802 L442,1813 L401,1822 L356,1830 L308,1836 L273,1839 L235,1841 L167,1841 L129,1839 L86,1835 L44,1829 L6,1822 L-31,1814 L-66,1805 L-102,1794 L-140,1781 L-181,1765 L-210,1752 L-243,1736 L-275,1719 L-292,1709 L-315,1695 L-351,1671 L-368,1659 L-381,1649 L-394,1639 L-405,1630 L-416,1621 L-430,1609 L-434,1606 L-434,1604 L-438,1602 L-453,1588 L-469,1573 L-484,1558 L-484,1556 L-487,1555 L-494,1547 L-500,1541 L-500,1539 L-502,1539 L-511,1528 L-522,1516 L-531,1505 L-544,1489 L-551,1480 L-564,1462 L-575,1447 L-594,1418 L-606,1399 L-614,1385 L-627,1362 L-635,1346 L-643,1330 L-656,1303 L-674,1259 L-686,1226 L-696,1194 L-706,1157 L-715,1116 L-723,1069 L-728,1026 L-731,983 L-731,902 L-728,859 L-724,824 L-718,784 L-711,748 L-702,710 L-690,668 L-678,632 L-666,600 L-650,562 L-636,532 L-622,504 L-609,481 L-598,461 L-583,437 L-572,420 L-557,398 L-545,381 L-535,368 L-523,352 L-512,339 L-504,329 L-492,315 L-483,305 L-474,295 L-465,285 L-458,278 L-457,276 L-455,276 L-453,272 L-429,248 L-427,248 L-427,246 L-419,239 L-413,233 L-411,233 L-410,230 L-399,221 L-385,208 L-374,199 L-361,188 L-348,178 L-335,168 L-317,155 L-302,144 L-264,119 L-236,102 L-215,90 L-189,76 L-166,64 L-145,54 L-116,41 L-71,23 L-43,13 L-13,3 Z M-96,172 L-117,182 L-133,190 L-147,198 L-158,204 L-169,210 L-183,219 L-192,224 L-219,242 L-238,255 L-251,265 L-262,273 L-276,284 L-292,297 L-306,309 L-317,319 L-325,326 L-337,337 L-375,375 L-382,383 L-394,396 L-403,407 L-414,420 L-425,434 L-439,452 L-451,469 L-465,489 L-480,513 L-489,528 L-504,554 L-521,587 L-534,615 L-547,646 L-560,681 L-572,717 L-580,746 L-589,787 L-597,836 L-601,871 L-603,897 L-604,922 L-604,965 L-602,1004 L-597,1049 L-590,1090 L-582,1127 L-572,1163 L-560,1199 L-549,1228 L-538,1254 L-527,1278 L-517,1297 L-512,1307 L-507,1316 L-499,1329 L-494,1338 L-466,1380 L-458,1391 L-445,1408 L-434,1422 L-423,1435 L-414,1445 L-407,1453 L-396,1465 L-362,1499 L-354,1506 L-343,1516 L-332,1525 L-320,1535 L-306,1546 L-287,1560 L-270,1572 L-250,1585 L-229,1598 L-208,1610 L-188,1621 L-165,1632 L-142,1643 L-98,1661 L-58,1675 L-28,1684 L4,1692 L44,1700 L83,1706 L118,1710 L159,1713 L206,1714 L246,1713 L286,1710 L329,1705 L375,1697 L416,1688 L446,1680 L476,1671 L520,1656 L555,1642 L582,1630 L607,1618 L627,1608 L649,1596 L676,1580 L697,1567 L720,1551 L736,1540 L745,1533 L761,1521 L775,1510 L788,1499 L799,1490 L813,1477 L821,1470 L833,1459 L865,1427 L872,1419 L885,1405 L893,1395 L891,1394 L852,1397 L830,1398 L782,1399 L740,1398 L692,1395 L646,1390 L601,1383 L578,1379 L550,1373 L498,1360 L459,1348 L435,1340 L408,1330 L369,1314 L343,1302 L318,1290 L299,1280 L276,1267 L259,1257 L240,1245 L223,1234 L200,1218 L181,1204 L167,1193 L165,1193 L165,1191 L152,1181 L138,1169 L128,1160 L120,1153 L107,1141 L98,1132 L91,1126 L84,1118 L67,1101 L60,1093 L51,1083 L42,1072 L31,1059 L18,1042 L4,1024 L-7,1008 L-23,984 L-36,963 L-47,944 L-59,922 L-71,899 L-87,864 L-102,827 L-114,793 L-126,754 L-137,710 L-144,675 L-150,637 L-155,591 L-157,560 L-158,528 L-158,498 L-156,455 L-153,419 L-148,380 L-141,339 L-133,301 L-124,265 L-114,230 L-105,203 L-96,177 L-95,172 Z " fill="#101010" transform="translate(903,38)"/>
</svg>
