<?xml version="1.0" encoding="UTF-8"?>
<!-- Generator: visioncortex VTracer 0.6.12 -->
<svg version="1.1" xmlns="http://www.w3.org/2000/svg" width="2048" height="2048">
<path d="M0,0 L39,0 L65,4 L91,11 L112,19 L128,27 L142,35 L158,47 L170,58 L183,71 L192,82 L205,100 L218,121 L229,141 L240,164 L249,184 L262,219 L274,256 L284,289 L293,318 L298,336 L299,340 L299,361 L297,370 L293,379 L288,387 L277,399 L267,407 L257,411 L245,414 L229,416 L71,461 L-66,500 L-199,538 L-291,564 L-375,588 L-543,636 L-607,654 L-649,666 L287,667 L297,669 L308,673 L319,680 L324,684 L324,686 L327,687 L327,689 L329,689 L332,693 L332,696 L334,696 L340,708 L343,718 L345,735 L345,875 L344,975 L343,1036 L343,1186 L342,1316 L342,1345 L341,1468 L337,1492 L330,1526 L322,1550 L314,1566 L305,1582 L294,1595 L282,1609 L270,1621 L253,1634 L238,1644 L215,1656 L189,1666 L164,1673 L150,1676 L-112,1677 L-607,1679 L-875,1680 L-967,1680 L-997,1676 L-1019,1670 L-1042,1660 L-1064,1648 L-1081,1636 L-1094,1625 L-1108,1613 L-1118,1603 L-1127,1592 L-1138,1577 L-1149,1559 L-1159,1537 L-1166,1515 L-1172,1490 L-1175,1472 L-1177,1445 L-1178,1102 L-1179,760 L-1184,734 L-1184,726 L-1183,716 L-1196,676 L-1219,600 L-1225,574 L-1228,556 L-1229,546 L-1229,520 L-1226,497 L-1221,475 L-1211,442 L-1202,422 L-1192,402 L-1180,384 L-1172,374 L-1165,365 L-1163,365 L-1161,361 L-1153,353 L-1139,342 L-1124,331 L-1102,317 L-1079,305 L-1060,298 L-1043,293 L-1013,285 L-954,268 L-902,253 L-850,238 L-791,221 L-711,198 L-659,183 L-600,166 L-548,151 L-461,126 L-409,111 L-343,92 L-291,77 L-225,58 L-159,39 L-93,20 L-77,15 L-51,8 L-32,3 L-20,2 L-8,1 Z M58,136 L43,163 L28,189 L15,212 L0,238 L-14,263 L-28,287 L-42,312 L-54,333 L-70,361 L-74,369 L-58,365 L-5,350 L90,323 L153,305 L155,303 L144,268 L132,235 L121,211 L111,191 L101,174 L91,160 L79,147 L65,138 L61,136 Z M-101,155 L-170,175 L-236,194 L-309,215 L-330,221 L-333,230 L-336,242 L-344,258 L-356,279 L-370,304 L-378,318 L-390,339 L-404,364 L-418,388 L-433,415 L-445,436 L-458,459 L-470,480 L-470,482 L-458,479 L-321,440 L-251,420 L-248,417 L-235,394 L-223,373 L-207,345 L-191,317 L-175,289 L-162,266 L-150,245 L-134,217 L-120,193 L-109,173 L-99,156 Z M-500,270 L-580,293 L-632,308 L-719,333 L-735,338 L-738,351 L-746,367 L-759,391 L-769,409 L-785,438 L-800,465 L-813,489 L-826,512 L-840,538 L-850,556 L-865,583 L-871,594 L-871,596 L-855,592 L-795,575 L-648,533 L-643,528 L-630,505 L-617,482 L-604,459 L-595,443 L-583,422 L-571,401 L-558,378 L-545,355 L-532,332 L-519,309 L-507,288 L-498,272 L-498,270 Z M-903,386 L-972,406 L-988,411 L-1028,422 L-1046,432 L-1063,444 L-1073,454 L-1080,464 L-1090,483 L-1098,508 L-1101,521 L-1101,543 L-1096,566 L-1074,638 L-1070,651 L-1065,652 L-1044,646 L-1028,617 L-1015,593 L-1002,570 L-988,544 L-975,521 L-961,495 L-948,472 L-934,446 L-921,423 L-907,397 L-901,386 Z M-1051,795 L-1051,923 L-1030,924 L-882,927 L-888,920 L-903,905 L-910,897 L-924,883 L-931,875 L-944,862 L-951,854 L-965,840 L-972,832 L-984,820 L-991,812 L-1006,797 L-1007,795 Z M-831,795 L-825,803 L-805,823 L-798,831 L-786,843 L-779,851 L-765,865 L-758,873 L-743,888 L-736,896 L-724,908 L-717,916 L-703,930 L-699,931 L-507,935 L-504,934 L-509,929 L-511,929 L-511,927 L-519,920 L-531,909 L-543,898 L-553,889 L-566,877 L-576,868 L-588,857 L-600,846 L-610,837 L-622,826 L-634,815 L-636,815 L-636,813 L-644,806 L-656,795 Z M-467,795 L-464,799 L-462,799 L-462,801 L-454,808 L-441,820 L-431,829 L-419,840 L-407,851 L-397,860 L-393,862 L-393,864 L-385,871 L-375,880 L-361,893 L-359,893 L-359,895 L-351,902 L-338,914 L-328,923 L-316,934 L-312,936 L-312,938 L-310,939 L-85,944 L-62,944 L-68,937 L-79,928 L-86,921 L-97,912 L-104,906 L-109,901 L-120,891 L-128,884 L-139,874 L-147,867 L-158,857 L-166,850 L-176,841 L-187,832 L-195,824 L-206,815 L-214,807 L-222,800 L-224,800 L-225,797 L-228,795 Z M-36,795 L-35,798 L-30,802 L-28,802 L-27,805 L-17,813 L-12,818 L-10,818 L-8,822 L2,830 L7,835 L9,835 L10,838 L21,847 L27,852 L32,857 L44,868 L52,875 L63,885 L72,892 L77,897 L84,903 L89,908 L91,908 L92,911 L103,920 L109,925 L114,930 L126,941 L131,946 L133,948 L155,949 L216,950 L217,943 L218,809 L218,795 Z M-1050,1051 L-1050,1274 L-1049,1451 L-1045,1473 L-1040,1491 L-1032,1506 L-1024,1516 L-1010,1530 L-997,1539 L-978,1549 L-968,1551 L-960,1552 L-759,1552 L-2,1549 L137,1548 L154,1543 L170,1536 L183,1527 L195,1516 L201,1507 L206,1496 L212,1467 L214,1451 L214,1394 L215,1281 L215,1235 L216,1120 L216,1077 L-212,1068 L-591,1060 L-1016,1051 Z " fill="#101010" transform="translate(1453,173)"/>
</svg>
