<?xml version="1.0" encoding="UTF-8"?>
<!-- Generator: visioncortex VTracer 0.6.12 -->
<svg version="1.1" xmlns="http://www.w3.org/2000/svg" width="2048" height="2048">
<path d="M0,0 L367,0 L741,1 L755,3 L768,8 L780,16 L780,18 L783,19 L788,25 L794,33 L799,44 L802,57 L802,74 L798,89 L789,105 L787,105 L786,108 L784,108 L782,112 L780,112 L779,115 L762,125 L752,128 L745,129 L478,129 L66,128 L65,320 L65,407 L64,1059 L64,1115 L63,1355 L268,1355 L491,1356 L732,1357 L762,1357 L939,1358 L938,1126 L937,825 L937,704 L940,691 L944,681 L946,681 L947,676 L949,676 L951,671 L959,663 L961,663 L961,661 L972,654 L982,650 L991,648 L1010,648 L1020,650 L1033,656 L1037,658 L1037,660 L1042,662 L1042,664 L1046,666 L1048,670 L1050,670 L1054,675 L1055,680 L1057,680 L1063,695 L1065,709 L1066,972 L1067,1264 L1067,1430 L1060,1452 L1058,1452 L1057,1457 L1055,1457 L1055,1460 L1053,1460 L1051,1464 L1049,1467 L1047,1467 L1047,1469 L1037,1476 L1025,1482 L1016,1485 L1010,1486 L826,1486 L604,1485 L367,1484 L334,1484 L120,1483 L88,1483 L-9,1482 L-21,1479 L-34,1474 L-44,1467 L-49,1462 L-57,1452 L-63,1440 L-66,1425 L-65,1323 L-64,618 L-63,63 L-60,46 L-57,38 L-56,35 L-54,35 L-53,31 L-49,25 L-47,25 L-45,21 L-40,16 L-38,16 L-38,14 L-24,6 L-10,2 Z " fill="#101010" transform="translate(241,384)"/>
<path d="M0,0 L22,0 L34,3 L51,11 L60,18 L60,20 L62,20 L66,25 L66,27 L68,27 L76,43 L79,55 L79,75 L77,83 L77,277 L79,350 L82,416 L86,496 L87,533 L87,547 L84,577 L79,599 L73,616 L67,629 L61,640 L51,653 L38,668 L27,679 L7,693 L-15,704 L-32,710 L-51,715 L-65,717 L-79,718 L-100,718 L-120,715 L-136,711 L-156,703 L-172,694 L-182,686 L-196,674 L-203,667 L-215,650 L-223,634 L-229,616 L-232,599 L-233,580 L-231,559 L-227,542 L-220,523 L-211,506 L-203,495 L-194,483 L-187,476 L-184,472 L-182,472 L-180,468 L-167,456 L-151,444 L-131,431 L-109,419 L-87,409 L-66,402 L-51,398 L-47,398 L-49,360 L-51,295 L-51,157 L-76,168 L-105,181 L-132,193 L-152,202 L-170,210 L-201,224 L-232,238 L-266,253 L-281,260 L-298,268 L-300,268 L-297,313 L-294,386 L-290,457 L-285,541 L-284,564 L-284,626 L-286,651 L-290,678 L-296,703 L-303,723 L-311,740 L-317,749 L-322,758 L-327,765 L-329,765 L-331,769 L-338,778 L-343,783 L-345,783 L-345,785 L-356,794 L-369,804 L-390,816 L-406,823 L-422,828 L-450,834 L-458,835 L-486,835 L-508,832 L-528,827 L-553,817 L-564,811 L-579,801 L-586,796 L-586,794 L-590,792 L-596,787 L-596,785 L-599,784 L-606,776 L-615,764 L-625,747 L-631,732 L-636,714 L-639,690 L-639,680 L-637,662 L-632,641 L-624,622 L-614,606 L-603,592 L-589,578 L-571,565 L-552,555 L-525,546 L-500,541 L-480,539 L-438,539 L-417,542 L-413,543 L-414,539 L-422,402 L-426,311 L-430,237 L-431,225 L-429,212 L-419,191 L-417,191 L-416,187 L-414,187 L-413,184 L-411,184 L-409,180 L-404,178 L-404,176 L-385,166 L-373,161 L-360,155 L-344,148 L-336,144 L-313,134 L-305,130 L-284,121 L-274,116 L-243,102 L-214,89 L-191,79 L-178,73 L-157,64 L-147,59 L-126,50 L-113,44 L-104,40 L-85,32 L-74,27 L-54,19 L-43,14 L-32,10 L-21,6 L-10,2 Z M-43,529 L-59,537 L-74,546 L-86,555 L-98,566 L-104,577 L-105,585 L-99,589 L-85,591 L-69,588 L-55,581 L-48,574 L-44,565 L-41,548 L-41,529 Z M-468,666 L-488,668 L-503,673 L-509,678 L-511,683 L-511,689 L-507,695 L-498,702 L-483,707 L-463,707 L-450,703 L-440,698 L-429,688 L-423,679 L-421,672 L-443,667 L-453,666 Z " fill="#101010" transform="translate(1540,148)"/>
<path d="M0,0 L38,0 L78,4 L103,9 L124,15 L145,23 L163,31 L184,42 L195,49 L207,57 L219,66 L227,72 L227,74 L231,76 L242,85 L245,88 L245,90 L248,91 L248,93 L251,94 L251,96 L253,96 L260,104 L273,119 L286,137 L295,151 L304,167 L315,189 L325,215 L332,239 L337,263 L340,286 L341,299 L341,326 L338,360 L334,384 L328,407 L321,428 L311,451 L297,478 L283,499 L271,515 L261,526 L254,534 L240,548 L238,548 L236,552 L225,561 L220,565 L218,565 L218,567 L204,577 L183,590 L163,601 L140,611 L113,620 L90,626 L65,630 L44,632 L10,632 L-14,630 L-49,624 L-73,617 L-90,611 L-111,602 L-136,589 L-157,575 L-162,572 L-162,570 L-167,568 L-171,565 L-171,563 L-175,562 L-175,560 L-179,558 L-189,550 L-194,545 L-206,533 L-213,525 L-225,511 L-237,494 L-246,480 L-255,464 L-266,442 L-276,415 L-282,395 L-286,378 L-290,352 L-291,341 L-292,307 L-290,280 L-286,255 L-280,229 L-271,202 L-259,175 L-249,157 L-245,152 L-240,142 L-228,125 L-223,118 L-221,118 L-219,114 L-212,105 L-207,100 L-195,88 L-193,88 L-191,84 L-183,77 L-170,66 L-152,53 L-139,45 L-122,35 L-96,23 L-71,14 L-54,9 L-25,3 Z M15,127 L-4,129 L-24,133 L-45,140 L-74,154 L-89,165 L-99,173 L-106,179 L-106,181 L-110,183 L-110,185 L-114,187 L-123,198 L-137,217 L-146,234 L-154,254 L-160,275 L-164,298 L-164,328 L-161,352 L-155,375 L-145,400 L-136,416 L-128,427 L-118,440 L-109,449 L-104,454 L-97,461 L-82,472 L-69,480 L-54,488 L-33,496 L-5,503 L9,505 L31,505 L52,503 L72,499 L96,491 L117,481 L136,469 L147,460 L157,451 L165,443 L174,432 L184,418 L193,402 L202,382 L209,359 L213,333 L213,298 L209,274 L203,253 L195,233 L189,222 L182,211 L172,197 L169,193 L167,193 L165,189 L151,175 L149,175 L149,173 L144,169 L142,169 L142,167 L124,155 L106,145 L89,138 L69,132 L56,129 L37,127 Z " fill="#101010" transform="translate(706,997)"/>
<path d="M0,0 L8,0 L23,3 L33,7 L46,16 L46,18 L49,19 L49,21 L51,21 L60,34 L64,45 L70,73 L76,89 L85,103 L93,111 L104,118 L120,126 L149,138 L163,145 L176,153 L189,162 L189,164 L193,166 L196,168 L196,170 L200,172 L210,183 L217,193 L229,212 L238,231 L244,249 L252,285 L254,300 L255,313 L255,336 L252,353 L245,377 L240,389 L229,403 L218,412 L206,418 L189,422 L174,422 L158,418 L147,412 L138,405 L138,403 L135,402 L133,397 L131,397 L125,387 L122,379 L120,373 L119,365 L119,349 L123,334 L126,325 L126,311 L124,296 L119,280 L113,268 L107,261 L91,253 L72,245 L73,272 L73,373 L72,441 L71,489 L69,526 L66,553 L62,578 L56,601 L49,620 L42,634 L34,648 L20,667 L8,680 L7,682 L5,682 L4,685 L-4,692 L-14,700 L-31,711 L-47,719 L-62,725 L-84,730 L-100,733 L-109,734 L-136,734 L-157,731 L-174,727 L-194,719 L-205,713 L-222,701 L-229,694 L-237,687 L-246,676 L-256,662 L-267,641 L-272,628 L-277,605 L-280,584 L-280,570 L-278,551 L-273,528 L-266,509 L-258,493 L-248,478 L-241,469 L-229,456 L-219,447 L-205,437 L-191,429 L-174,421 L-149,414 L-128,411 L-97,411 L-72,415 L-57,419 L-56,398 L-56,247 L-58,160 L-61,61 L-59,49 L-56,40 L-50,28 L-45,21 L-42,18 L-40,18 L-40,16 L-27,7 L-23,7 L-23,5 L-10,1 Z M-119,538 L-127,540 L-137,545 L-146,554 L-151,566 L-152,571 L-152,582 L-149,592 L-143,600 L-138,604 L-132,606 L-109,606 L-96,601 L-87,595 L-79,587 L-70,573 L-65,560 L-64,556 L-75,550 L-89,543 L-103,539 L-110,538 Z " fill="#101010" transform="translate(1727,469)"/>
<path d="M0,0 L10,0 L25,2 L37,6 L49,13 L49,15 L54,17 L54,19 L56,19 L61,24 L66,32 L73,43 L77,59 L78,70 L77,85 L75,94 L70,106 L68,106 L67,111 L65,114 L63,114 L62,118 L60,118 L59,121 L51,128 L41,134 L38,135 L35,138 L20,142 L11,143 L-1,143 L-19,139 L-33,132 L-33,130 L-38,128 L-46,121 L-50,115 L-54,111 L-58,102 L-61,97 L-64,85 L-65,69 L-64,58 L-60,44 L-54,32 L-52,32 L-50,27 L-46,22 L-41,17 L-28,9 L-22,5 L-7,1 Z " fill="#101010" transform="translate(727,1236)"/>
<path d="M0,0 L16,0 L34,5 L43,10 L43,12 L48,14 L57,23 L61,28 L66,37 L70,51 L71,59 L71,71 L68,82 L65,92 L63,92 L62,97 L58,103 L56,103 L54,107 L46,115 L33,124 L18,130 L6,132 L-3,132 L-19,129 L-28,125 L-28,123 L-33,122 L-44,113 L-44,111 L-46,111 L-55,98 L-60,86 L-62,76 L-62,59 L-56,39 L-54,39 L-53,34 L-46,25 L-39,18 L-25,8 L-11,2 Z " fill="#101010" transform="translate(512,655)"/>
</svg>
