<?xml version="1.0" encoding="UTF-8"?>
<!-- Generator: visioncortex VTracer 0.6.12 -->
<svg version="1.1" xmlns="http://www.w3.org/2000/svg" width="2048" height="2048">
<path d="M0,0 L25,0 L60,2 L94,7 L130,15 L158,24 L177,31 L200,41 L216,49 L233,58 L249,68 L264,78 L276,87 L289,97 L303,109 L315,120 L320,125 L325,129 L332,137 L339,144 L348,155 L360,169 L374,189 L384,204 L395,223 L407,246 L415,263 L426,292 L434,317 L441,347 L445,372 L449,412 L449,466 L445,501 L440,528 L431,562 L421,591 L411,614 L400,637 L387,660 L373,681 L363,695 L351,710 L348,714 L346,714 L344,718 L337,726 L333,731 L331,731 L329,735 L308,756 L297,765 L288,773 L268,788 L244,804 L223,816 L202,827 L174,839 L152,847 L128,854 L102,860 L89,862 L89,930 L88,1111 L86,1489 L85,1695 L84,1750 L81,1763 L77,1772 L72,1781 L70,1781 L68,1785 L61,1792 L59,1792 L59,1794 L48,1800 L39,1804 L27,1806 L12,1806 L-1,1803 L-15,1796 L-15,1794 L-20,1792 L-25,1788 L-25,1786 L-27,1786 L-36,1773 L-42,1757 L-43,1751 L-43,1558 L-42,1371 L-41,1174 L-40,982 L-39,865 L-55,863 L-86,857 L-121,847 L-148,837 L-177,824 L-205,809 L-232,791 L-250,778 L-258,772 L-258,770 L-262,768 L-270,762 L-270,760 L-274,758 L-284,749 L-306,727 L-313,719 L-322,708 L-334,693 L-354,663 L-366,642 L-377,621 L-389,593 L-399,565 L-406,540 L-413,504 L-417,475 L-418,461 L-418,403 L-415,376 L-410,346 L-401,310 L-390,278 L-378,250 L-366,226 L-356,209 L-346,193 L-333,175 L-321,159 L-319,159 L-317,155 L-308,145 L-301,137 L-293,129 L-288,124 L-283,119 L-275,111 L-273,111 L-273,109 L-262,100 L-247,88 L-230,76 L-215,66 L-191,52 L-175,44 L-149,32 L-125,23 L-98,15 L-69,8 L-38,3 L-18,1 Z M-9,128 L-33,131 L-61,137 L-90,146 L-116,157 L-139,169 L-158,181 L-179,197 L-189,206 L-197,213 L-210,226 L-217,234 L-218,237 L-221,238 L-234,256 L-245,272 L-258,295 L-266,312 L-274,332 L-281,355 L-286,377 L-290,404 L-291,418 L-291,459 L-289,476 L-284,502 L-277,527 L-270,547 L-260,570 L-248,592 L-234,613 L-224,626 L-212,640 L-208,645 L-203,650 L-196,657 L-194,657 L-192,661 L-181,670 L-169,680 L-153,691 L-129,705 L-102,718 L-77,727 L-59,732 L-35,737 L-12,740 L2,741 L27,741 L52,739 L82,734 L105,728 L133,718 L157,707 L171,699 L187,689 L206,675 L221,662 L236,648 L249,634 L257,624 L270,606 L281,588 L292,568 L303,542 L312,514 L318,486 L321,464 L322,451 L322,414 L319,387 L314,363 L307,338 L297,312 L286,289 L274,269 L263,253 L252,239 L243,229 L236,221 L224,209 L222,209 L220,205 L212,198 L193,184 L175,172 L157,162 L136,152 L112,143 L88,136 L63,131 L35,128 Z " fill="#101010" transform="translate(1004,139)"/>
<path d="M0,0 L15,1 L24,3 L38,10 L48,18 L59,32 L64,43 L66,50 L67,57 L67,74 L64,86 L56,102 L50,112 L41,129 L31,154 L22,180 L16,189 L15,192 L10,197 L1,205 L-4,209 L-19,215 L-32,217 L-46,217 L-55,215 L-67,210 L-79,201 L-83,197 L-83,195 L-87,193 L-90,188 L-95,180 L-100,164 L-100,144 L-98,135 L-88,105 L-78,81 L-66,56 L-54,35 L-45,22 L-40,17 L-34,12 L-29,9 L-23,6 L-16,3 Z " fill="#101010" transform="translate(847,380)"/>
</svg>
