<?xml version="1.0" encoding="UTF-8"?>
<!-- Generator: visioncortex VTracer 0.6.12 -->
<svg version="1.1" xmlns="http://www.w3.org/2000/svg" width="2048" height="2048">
<path d="M0,0 L76,0 L107,2 L150,7 L179,12 L201,17 L217,21 L241,28 L263,36 L287,46 L303,54 L328,68 L347,80 L365,93 L379,104 L393,116 L406,128 L422,144 L431,155 L441,167 L457,191 L472,216 L480,232 L487,247 L498,277 L506,306 L511,332 L514,359 L515,388 L515,400 L513,431 L509,465 L504,493 L500,510 L493,536 L483,566 L470,600 L478,615 L487,632 L502,665 L515,699 L525,729 L539,711 L550,697 L561,684 L566,677 L565,666 L567,647 L575,607 L583,576 L595,539 L608,507 L624,474 L636,452 L650,429 L664,409 L676,393 L685,382 L696,369 L707,357 L730,334 L732,334 L732,332 L743,323 L755,313 L767,304 L786,291 L805,279 L816,273 L832,265 L853,256 L869,250 L892,243 L919,237 L951,232 L987,229 L1045,229 L1082,232 L1119,237 L1157,244 L1204,254 L1270,269 L1299,274 L1317,276 L1341,278 L1359,282 L1370,288 L1379,295 L1379,297 L1382,298 L1382,300 L1385,301 L1392,312 L1396,322 L1399,338 L1399,372 L1395,403 L1387,440 L1375,481 L1364,511 L1354,535 L1343,560 L1326,595 L1312,621 L1295,649 L1282,668 L1270,684 L1260,697 L1249,710 L1237,724 L1226,735 L1219,743 L1202,759 L1190,770 L1179,779 L1163,792 L1146,804 L1131,814 L1116,823 L1094,835 L1067,848 L1041,858 L1014,867 L986,874 L959,879 L926,883 L883,885 L845,884 L811,881 L766,874 L726,866 L682,855 L646,843 L618,832 L612,830 L601,849 L589,871 L579,894 L570,918 L562,946 L559,959 L757,958 L1076,957 L1094,959 L1106,964 L1115,969 L1119,972 L1119,974 L1123,976 L1129,983 L1134,991 L1140,1004 L1145,1016 L1148,1032 L1148,1076 L1147,1249 L1144,1263 L1138,1277 L1131,1286 L1127,1293 L1123,1298 L1115,1304 L1112,1307 L1098,1314 L1087,1317 L1021,1317 L1020,1326 L1005,1400 L979,1527 L964,1601 L947,1685 L926,1788 L921,1804 L917,1813 L915,1813 L913,1818 L908,1824 L906,1824 L906,1826 L895,1834 L879,1841 L869,1843 L823,1843 L546,1839 L444,1839 L167,1843 L121,1843 L108,1840 L92,1832 L84,1826 L84,1824 L82,1824 L75,1815 L75,1813 L73,1813 L67,1799 L62,1778 L45,1695 L27,1606 L12,1533 L-1,1468 L-16,1395 L-31,1321 L-31,1317 L-97,1317 L-113,1312 L-124,1306 L-129,1301 L-134,1296 L-140,1289 L-143,1284 L-149,1275 L-155,1260 L-157,1247 L-158,1049 L-158,1032 L-155,1016 L-151,1006 L-147,998 L-141,986 L-134,977 L-131,974 L-129,974 L-129,972 L-124,968 L-115,963 L-104,959 L-86,957 L251,958 L424,959 L425,917 L426,903 L422,872 L416,838 L409,806 L405,787 L402,767 L393,740 L393,738 L341,745 L310,748 L276,750 L219,751 L173,750 L129,747 L95,743 L53,736 L18,728 L-13,719 L-31,713 L-41,709 L-65,699 L-94,685 L-114,673 L-123,668 L-142,655 L-155,645 L-166,636 L-179,625 L-194,611 L-211,594 L-218,586 L-230,572 L-238,562 L-252,544 L-272,514 L-285,492 L-300,464 L-315,431 L-329,396 L-345,352 L-359,310 L-371,267 L-381,225 L-397,154 L-406,113 L-406,92 L-403,77 L-399,66 L-395,57 L-393,57 L-391,52 L-388,51 L-386,47 L-384,47 L-382,43 L-366,33 L-352,29 L-318,26 L-263,22 L-190,16 L-115,10 L-44,3 Z M22,127 L-18,129 L-63,133 L-126,139 L-263,150 L-267,152 L-247,239 L-237,275 L-225,311 L-214,342 L-202,372 L-191,396 L-183,412 L-173,431 L-159,454 L-147,471 L-137,484 L-126,497 L-115,509 L-107,517 L-102,522 L-93,531 L-82,540 L-68,551 L-53,561 L-39,570 L-23,578 L-15,582 L18,595 L49,604 L79,611 L115,617 L153,621 L192,623 L255,623 L297,621 L328,618 L327,614 L313,595 L302,581 L291,568 L282,557 L275,550 L268,542 L261,535 L260,533 L258,533 L256,529 L239,512 L231,505 L223,497 L215,490 L204,480 L193,471 L178,458 L169,451 L152,438 L134,425 L117,413 L96,399 L77,387 L48,370 L30,360 L2,345 L-33,327 L-81,303 L-104,292 L-121,283 L-125,280 L-127,280 L-127,278 L-135,271 L-142,261 L-147,249 L-150,236 L-150,226 L-148,215 L-144,202 L-140,196 L-140,193 L-138,193 L-132,185 L-130,184 L-130,182 L-128,182 L-128,180 L-125,180 L-125,178 L-120,176 L-111,171 L-94,167 L-79,167 L-65,171 L-48,178 L-32,186 L56,230 L78,242 L106,257 L130,271 L155,286 L188,308 L208,322 L227,336 L236,343 L248,352 L264,365 L278,377 L292,389 L302,398 L304,398 L304,400 L312,407 L328,422 L359,453 L360,455 L362,455 L364,459 L371,466 L377,473 L378,473 L383,445 L386,418 L387,405 L387,371 L384,346 L378,321 L370,298 L358,273 L347,255 L335,239 L326,229 L324,226 L322,226 L320,222 L308,211 L294,199 L276,186 L263,178 L247,169 L231,161 L204,150 L177,142 L143,135 L106,130 L77,128 L53,127 Z M1005,356 L973,358 L951,361 L927,366 L904,373 L887,380 L868,390 L856,397 L842,407 L828,418 L815,430 L807,437 L797,447 L790,455 L779,468 L765,487 L755,502 L741,526 L733,541 L734,543 L758,529 L770,522 L786,514 L802,506 L829,493 L865,478 L903,463 L933,450 L971,435 L1013,420 L1022,418 L1041,418 L1050,420 L1064,426 L1072,432 L1082,442 L1089,454 L1093,467 L1094,472 L1094,490 L1091,502 L1085,514 L1079,522 L1069,532 L1053,540 L1009,556 L982,567 L942,584 L901,600 L865,616 L835,631 L812,644 L792,656 L762,676 L744,689 L731,699 L717,710 L703,722 L699,726 L713,731 L734,737 L755,742 L789,749 L823,754 L846,756 L863,757 L898,757 L923,755 L951,751 L976,745 L1006,735 L1024,727 L1043,718 L1067,704 L1081,694 L1097,681 L1108,672 L1124,657 L1142,639 L1149,631 L1161,617 L1176,597 L1187,581 L1202,556 L1217,528 L1233,494 L1248,457 L1259,425 L1265,402 L1265,397 L1221,388 L1160,374 L1121,366 L1082,360 L1049,357 L1022,356 Z M732,543 Z M-30,1085 L-30,1174 L-29,1191 L1019,1191 L1020,1164 L1020,1085 L905,1085 L612,1086 L374,1086 L74,1085 Z M99,1317 L101,1330 L109,1370 L114,1394 L129,1467 L144,1541 L168,1659 L179,1713 L180,1715 L223,1715 L433,1712 L557,1712 L767,1715 L810,1715 L814,1699 L820,1669 L838,1581 L848,1531 L861,1467 L878,1384 L891,1320 L891,1317 Z " fill="#101010" transform="translate(529,108)"/>
</svg>
