<?xml version="1.0" encoding="UTF-8"?>
<!-- Generator: visioncortex VTracer 0.6.12 -->
<svg version="1.1" xmlns="http://www.w3.org/2000/svg" width="2048" height="2048">
<path d="M0,0 L34,0 L64,1 L106,4 L147,9 L188,16 L225,24 L267,35 L302,46 L338,59 L372,73 L405,88 L421,96 L451,112 L475,126 L488,134 L499,141 L511,149 L530,162 L548,175 L561,185 L577,198 L587,206 L601,218 L611,227 L619,234 L624,238 L629,243 L666,280 L666,282 L668,282 L675,290 L684,300 L684,302 L686,302 L695,313 L707,327 L718,341 L728,354 L738,368 L748,382 L749,241 L749,146 L751,134 L758,117 L764,109 L766,109 L768,105 L776,98 L783,94 L790,90 L808,86 L817,86 L833,89 L843,93 L857,103 L862,108 L867,115 L871,122 L875,133 L877,143 L877,539 L874,556 L868,570 L865,574 L863,574 L863,577 L858,582 L842,594 L835,597 L821,602 L814,603 L762,603 L551,600 L474,599 L463,598 L451,595 L439,589 L439,587 L435,586 L435,584 L431,582 L426,577 L422,573 L422,570 L420,570 L415,560 L411,548 L410,537 L410,527 L412,518 L419,501 L421,501 L422,497 L424,494 L426,494 L428,490 L438,481 L448,476 L460,472 L466,471 L522,471 L654,473 L647,462 L634,443 L622,427 L612,414 L598,397 L591,389 L586,383 L586,381 L583,380 L576,372 L572,368 L572,366 L569,365 L569,363 L567,363 L560,355 L544,339 L536,332 L529,325 L527,324 L527,322 L523,320 L511,309 L501,301 L485,288 L466,274 L455,266 L436,253 L422,244 L405,234 L384,222 L354,206 L321,191 L289,178 L261,168 L233,159 L191,148 L157,141 L120,135 L81,131 L49,129 L-16,129 L-49,131 L-82,135 L-118,141 L-151,148 L-183,156 L-222,168 L-250,178 L-284,192 L-308,203 L-340,219 L-364,233 L-384,245 L-414,265 L-428,275 L-445,288 L-459,299 L-473,311 L-487,323 L-490,326 L-492,326 L-492,328 L-500,335 L-505,340 L-507,340 L-509,344 L-516,350 L-522,357 L-527,362 L-529,362 L-531,366 L-536,372 L-541,377 L-547,384 L-549,384 L-551,388 L-560,398 L-571,412 L-583,427 L-586,432 L-588,432 L-590,437 L-599,449 L-611,467 L-625,489 L-634,504 L-645,523 L-653,539 L-661,554 L-675,585 L-686,612 L-696,639 L-707,674 L-718,716 L-725,751 L-731,790 L-735,831 L-736,849 L-735,854 L-736,878 L-740,897 L-747,911 L-756,922 L-766,930 L-782,938 L-790,940 L-801,941 L-809,941 L-822,938 L-832,934 L-832,932 L-836,931 L-847,923 L-850,919 L-850,917 L-852,917 L-860,904 L-865,890 L-867,879 L-868,868 L-868,853 L-865,828 L-862,805 L-857,763 L-852,731 L-844,691 L-834,651 L-827,626 L-813,585 L-800,551 L-787,520 L-780,505 L-766,477 L-754,455 L-745,439 L-737,426 L-728,411 L-720,399 L-713,389 L-703,374 L-689,355 L-679,342 L-668,328 L-657,315 L-648,304 L-643,298 L-641,298 L-639,294 L-625,279 L-619,272 L-614,267 L-612,267 L-610,263 L-608,263 L-606,259 L-604,259 L-602,255 L-596,250 L-590,243 L-582,236 L-576,231 L-571,226 L-560,216 L-553,210 L-551,210 L-551,208 L-541,200 L-525,187 L-513,178 L-494,164 L-470,148 L-455,138 L-434,125 L-406,109 L-386,98 L-367,89 L-351,81 L-321,68 L-293,57 L-266,47 L-224,34 L-190,25 L-144,15 L-101,8 L-55,3 L-27,1 Z " fill="#101010" transform="translate(1008,131)"/>
<path d="M0,0 L10,1 L23,4 L23,6 L29,7 L36,11 L36,13 L40,14 L50,24 L58,36 L63,51 L64,57 L64,93 L61,118 L59,131 L52,180 L46,212 L40,239 L32,271 L19,314 L4,356 L-10,389 L-21,414 L-29,430 L-43,457 L-56,480 L-68,500 L-79,517 L-104,554 L-112,564 L-118,573 L-120,573 L-122,577 L-128,585 L-137,596 L-145,606 L-154,616 L-163,627 L-165,627 L-167,631 L-174,639 L-176,639 L-178,643 L-186,651 L-193,659 L-200,665 L-205,670 L-222,687 L-229,693 L-231,693 L-232,696 L-243,705 L-253,714 L-267,725 L-278,734 L-299,750 L-322,766 L-337,776 L-359,790 L-383,804 L-401,814 L-424,826 L-446,837 L-480,852 L-510,864 L-539,874 L-570,884 L-611,895 L-642,902 L-649,904 L-714,914 L-778,919 L-804,920 L-847,920 L-886,918 L-927,914 L-969,908 L-1010,900 L-1044,892 L-1089,879 L-1127,866 L-1155,855 L-1183,843 L-1217,827 L-1233,819 L-1260,804 L-1287,788 L-1296,782 L-1307,775 L-1322,765 L-1342,751 L-1363,735 L-1377,724 L-1390,713 L-1401,704 L-1405,701 L-1405,699 L-1409,697 L-1414,693 L-1414,691 L-1418,689 L-1426,682 L-1430,678 L-1430,676 L-1434,674 L-1460,648 L-1460,646 L-1463,645 L-1470,637 L-1472,635 L-1473,848 L-1478,865 L-1487,879 L-1489,879 L-1491,883 L-1494,884 L-1494,886 L-1496,886 L-1496,888 L-1499,888 L-1499,890 L-1505,894 L-1509,894 L-1509,896 L-1520,900 L-1535,902 L-1551,900 L-1565,895 L-1574,889 L-1580,885 L-1580,883 L-1582,883 L-1585,879 L-1585,877 L-1587,877 L-1593,868 L-1593,864 L-1595,864 L-1600,844 L-1601,703 L-1601,428 L-1597,413 L-1589,400 L-1581,389 L-1572,380 L-1563,374 L-1553,370 L-1547,368 L-1538,367 L-1324,367 L-1184,368 L-1168,372 L-1154,379 L-1145,387 L-1145,389 L-1143,389 L-1135,400 L-1134,406 L-1132,406 L-1129,415 L-1128,425 L-1128,440 L-1130,452 L-1132,452 L-1133,458 L-1139,469 L-1150,481 L-1155,483 L-1155,485 L-1165,490 L-1173,493 L-1182,495 L-1422,495 L-1412,508 L-1398,525 L-1392,532 L-1392,534 L-1389,535 L-1384,541 L-1384,543 L-1381,544 L-1374,552 L-1373,555 L-1370,556 L-1366,561 L-1361,566 L-1349,578 L-1344,582 L-1344,584 L-1340,586 L-1331,595 L-1323,602 L-1308,615 L-1294,626 L-1283,635 L-1264,649 L-1247,661 L-1233,670 L-1224,676 L-1207,686 L-1192,695 L-1169,707 L-1153,715 L-1137,723 L-1107,736 L-1072,749 L-1045,758 L-1017,766 L-980,775 L-954,780 L-914,786 L-873,790 L-856,791 L-789,791 L-765,790 L-751,790 L-741,788 L-703,783 L-678,778 L-641,770 L-611,762 L-573,750 L-536,736 L-504,722 L-479,710 L-456,698 L-432,684 L-414,673 L-396,661 L-376,647 L-355,631 L-339,618 L-328,609 L-318,600 L-310,593 L-295,579 L-268,552 L-261,544 L-250,532 L-241,521 L-230,508 L-220,495 L-206,476 L-195,460 L-185,445 L-174,427 L-163,408 L-151,386 L-143,371 L-130,343 L-118,315 L-105,279 L-97,254 L-87,218 L-79,182 L-72,141 L-67,105 L-65,92 L-63,57 L-62,48 L-58,38 L-53,28 L-41,15 L-31,8 L-18,3 L-9,1 Z " fill="#101010" transform="translate(1849,981)"/>
</svg>
