<?xml version="1.0" encoding="UTF-8"?>
<svg version="1.1" xmlns="http://www.w3.org/2000/svg" width="256" height="256">
<path d="M0 0 C1.5960759 -0.00856522 1.5960759 -0.00856522 3.22439575 -0.01730347 C4.39172745 -0.01842133 5.55905914 -0.01953918 6.76176453 -0.02069092 C7.99126831 -0.02565582 9.22077209 -0.03062073 10.48753357 -0.03573608 C13.861634 -0.04784606 17.23567244 -0.05530327 20.60978723 -0.05974674 C22.71863271 -0.06267914 24.82747278 -0.06678428 26.93631554 -0.07125092 C33.53683392 -0.08492377 40.1373399 -0.0945913 46.73787147 -0.09845281 C54.35263778 -0.10293235 61.96722448 -0.12047615 69.58193618 -0.1494534 C75.47079278 -0.17108371 81.3595989 -0.18115781 87.2484948 -0.18249393 C90.7642779 -0.18354105 94.27989211 -0.18942886 97.79563332 -0.20731354 C101.71929824 -0.22688511 105.64273947 -0.22249984 109.56645203 -0.21600342 C110.72771103 -0.2252182 111.88897003 -0.23443298 113.0854187 -0.243927 C120.01854448 -0.20792581 124.61654069 0.41870151 130.08061218 5.00640869 C131.09780334 6.03761841 131.09780334 6.03761841 132.13554382 7.08966064 C132.89673523 7.8560083 133.65792664 8.62235596 134.44218445 9.41192627 C135.2188446 10.20921143 135.99550476 11.00649658 136.79570007 11.82794189 C137.56849304 12.60589111 138.34128601 13.38384033 139.13749695 14.18536377 C143.35153234 18.45639372 147.38812359 22.83076872 151.30570984 27.37408447 C153.3854788 29.74035723 155.60168426 31.94330808 157.85820007 34.14044189 C162.07475502 38.31213987 166.02768401 42.61532559 169.85820007 47.14044189 C171.00288757 48.37794189 171.00288757 48.37794189 172.17070007 49.64044189 C176.99902889 56.79352163 176.14870167 65.75003422 176.13285828 74.01690674 C176.13721195 75.41071341 176.14239728 76.8045177 176.14834595 78.19831848 C176.16167717 81.96495221 176.16232117 85.73148524 176.15978265 89.49813795 C176.15870887 92.65148645 176.1636067 95.80481491 176.16838807 98.95815909 C176.17946307 106.40239897 176.17993207 113.84658839 176.1738739 121.29083252 C176.16783608 128.95028622 176.18014482 136.60955613 176.20144397 144.26897848 C176.21910286 150.86373317 176.22505456 157.45842959 176.22180623 164.05320704 C176.21999995 167.98373774 176.2225636 171.91413733 176.23652077 175.84464645 C176.24916447 179.54329584 176.24709382 183.24166032 176.23410988 186.94030571 C176.23064499 188.93025848 176.24187384 190.92022021 176.25367737 192.91014099 C176.19668364 202.70451142 175.39190924 211.38808696 168.40507507 218.73809814 C163.04857705 223.59411529 158.25850075 224.2623751 151.24290466 224.28761292 C150.24781635 224.29312795 150.24781635 224.29312795 149.23262525 224.29875439 C147.01112928 224.30976174 144.78968013 224.31363003 142.56816101 224.31744385 C140.97465874 224.3237107 139.38115792 224.3303577 137.78765869 224.33735657 C132.55597445 224.35837194 127.32429001 224.36875617 122.09257507 224.37872314 C120.28989395 224.38277156 118.48721298 224.3868885 116.68453217 224.39107323 C108.21523977 224.41011886 99.74595606 224.42435156 91.27664638 224.4326852 C81.5071767 224.44245751 71.73793361 224.46877947 61.96854377 224.50918609 C54.41256004 224.5393634 46.8566412 224.55415558 39.30059838 224.55746621 C34.78986823 224.55981472 30.2793803 224.56874936 25.7687149 224.59392738 C21.52346647 224.61724166 17.2786192 224.62142796 13.03332329 224.611166 C11.47893627 224.61067135 9.92452928 224.61697082 8.37020302 224.63072205 C-0.73815222 224.70676835 -7.99759522 224.66893098 -15.16523743 218.35919189 C-15.61125305 217.79200439 -16.05726868 217.22481689 -16.51679993 216.64044189 C-16.9782843 216.07325439 -17.43976868 215.50606689 -17.91523743 214.92169189 C-22.19588793 208.70520581 -22.29153056 202.2790301 -22.2870636 194.90362549 C-22.29042221 194.09962814 -22.29378082 193.2956308 -22.29724121 192.4672699 C-22.30669756 189.82445713 -22.30869123 187.181708 -22.30976868 184.53887939 C-22.3129835 182.69615656 -22.31634774 180.85343397 -22.31985474 179.01071167 C-22.32583163 175.15583707 -22.32769597 171.30098486 -22.32710266 167.44610596 C-22.32700079 162.50523268 -22.34068561 157.56450229 -22.35787487 152.62366295 C-22.36898467 148.82157734 -22.37102223 145.01952648 -22.37049294 141.2174263 C-22.37167333 139.39535655 -22.37609846 137.5732859 -22.3838253 135.75123215 C-22.39361038 133.20687508 -22.39075373 130.66283122 -22.38471985 128.11846924 C-22.39033936 127.36616531 -22.39595886 126.61386139 -22.40174866 125.83876038 C-22.37927924 122.11463657 -22.21568204 119.3021152 -20.14179993 116.14044189 C-17.76679993 116.01544189 -17.76679993 116.01544189 -15.14179993 116.14044189 C-12.59932423 118.68291759 -12.89581494 120.31255201 -12.86282349 123.78030396 C-12.86537643 124.56785065 -12.86792938 125.35539734 -12.87055969 126.16680908 C-12.86533295 126.99627045 -12.8601062 127.82573181 -12.85472107 128.68032837 C-12.8444639 130.48531954 -12.83869768 132.29034044 -12.83683968 134.0953598 C-12.83318519 136.95372899 -12.8164825 139.81174833 -12.79608154 142.67004395 C-12.74059045 150.79813118 -12.71001774 158.92627107 -12.6855011 167.05450439 C-12.66960793 172.02359507 -12.63936533 176.99243976 -12.60073662 181.96140289 C-12.58909673 183.85435622 -12.58315636 185.7473536 -12.5830555 187.64034271 C-12.58286301 190.2926542 -12.56456329 192.94429022 -12.54243469 195.59649658 C-12.54701187 196.37594635 -12.55158905 197.15539612 -12.55630493 197.95846558 C-12.49270046 202.76432129 -11.68663995 206.05798847 -9.14179993 210.14044189 C-4.20546036 214.82363584 -0.53433305 215.26418682 6.10058594 215.27415466 C8.0247081 215.28055214 8.0247081 215.28055214 9.98770142 215.28707886 C11.40718082 215.28672935 12.82666019 215.28626782 14.24613953 215.28570557 C15.74274276 215.28869813 17.23934521 215.29210089 18.73594666 215.29588318 C22.8001039 215.30471821 26.86424008 215.30706111 30.928406 215.30769897 C33.4686017 215.30840984 36.00879206 215.31054488 38.54898643 215.31319618 C47.41402399 215.32244849 56.27904652 215.32653128 65.14408875 215.32574463 C73.40218551 215.3251441 81.66021689 215.33569125 89.91829711 215.35148829 C97.01227447 215.36457397 104.10623048 215.36992808 111.20021981 215.36928922 C115.43529476 215.3690345 119.67031162 215.37187114 123.90537453 215.38246727 C127.89035246 215.39216535 131.87521699 215.39221573 135.86019897 215.38495064 C137.31985325 215.38390687 138.77951464 215.38625534 140.23915672 215.3923111 C142.23771114 215.40006324 144.23630438 215.39417237 146.23486328 215.38768005 C147.35149007 215.38822482 148.46811686 215.38876959 149.61858082 215.38933086 C153.87918983 215.06200271 158.20208646 214.47350195 161.60038757 211.73809814 C165.04725276 207.06700153 165.98242644 204.08437695 165.99864197 198.35325623 C166.00435211 197.14616501 166.01006226 195.93907379 166.01594543 194.69540405 C166.01719077 193.35571299 166.01831587 192.01602182 166.01933289 190.67633057 C166.02396169 189.26692068 166.02898644 187.85751204 166.03437805 186.44810486 C166.04749831 182.61742377 166.05394631 178.78676021 166.05838871 174.95606017 C166.06132013 172.56244849 166.06542508 170.16884159 166.06989288 167.77523232 C166.08356702 160.28517656 166.093234 152.79513175 166.09709477 145.30506438 C166.10157503 136.66077814 166.11912172 128.01665006 166.14809537 119.37241191 C166.16971697 112.68950711 166.17979931 106.0066468 166.18113589 99.3237074 C166.18218361 95.3328562 166.1880842 91.3421537 166.20595551 87.35133934 C166.22244447 83.59615246 166.22458781 79.84122591 166.2158165 76.0860157 C166.21504655 74.70978981 166.21938332 73.33354987 166.22927475 71.95735931 C166.24201151 70.07447507 166.23431946 68.19148605 166.22569275 66.30857849 C166.22715931 65.25610019 166.22862587 64.20362188 166.23013687 63.1192503 C165.6345875 58.34954888 163.49992908 54.46729226 160.22148132 50.99200439 C159.73059021 50.46566406 159.2396991 49.93932373 158.7339325 49.39703369 C158.2180658 48.8586084 157.7021991 48.32018311 157.17070007 47.76544189 C156.63614197 47.19672363 156.10158386 46.62800537 155.55082703 46.04205322 C151.98832754 42.26939575 148.33867441 38.59152321 144.63945007 34.95294189 C142.85657903 33.13879241 141.1982029 31.26105841 139.54570007 29.32794189 C134.94685837 23.97675512 129.87831329 19.09136519 124.85820007 14.14044189 C124.12987976 13.39278564 123.40155945 12.64512939 122.65116882 11.87481689 C120.9622024 10.06726495 120.9622024 10.06726495 118.85820007 9.14044189 C118.88176575 10.13841797 118.88176575 10.13841797 118.9058075 11.15655518 C118.96845605 14.19276309 119.00728516 17.22883462 119.04570007 20.26544189 C119.07083679 21.31216064 119.09597351 22.35887939 119.12187195 23.43731689 C119.17551999 29.08824371 119.14457668 33.29862006 115.85820007 38.14044189 C112.15690274 41.60294586 108.57067189 42.26060276 103.62117004 42.28088379 C102.78292694 42.28659393 101.94468384 42.29230408 101.08103943 42.29818726 C99.71413971 42.29986404 99.71413971 42.29986404 98.31962585 42.30157471 C96.87017075 42.30902206 96.87017075 42.30902206 95.39143372 42.31661987 C92.19545276 42.33122251 88.99952141 42.33803991 85.80351257 42.34356689 C83.58157856 42.34931935 81.35964456 42.35507707 79.13771057 42.36083984 C74.47894561 42.37134404 69.82019787 42.3771907 65.16142273 42.38067627 C59.19380954 42.38616364 53.22642421 42.41019946 47.25888252 42.43864822 C42.66921829 42.45727608 38.07960897 42.46248026 33.48991013 42.46401215 C31.28989794 42.46703821 29.08988672 42.47506516 26.88991165 42.48819733 C23.81161921 42.50526265 20.73388398 42.50337636 17.65556335 42.49688721 C16.29473633 42.51070938 16.29473633 42.51070938 14.90641785 42.52481079 C9.80743594 42.49116037 6.26586637 41.99664232 1.85820007 39.14044189 C-1.05579573 35.50685581 -1.50542474 32.7760546 -1.43476868 28.18341064 C-1.42510071 27.07159424 -1.41543274 25.95977783 -1.4054718 24.81427002 C-1.38033508 23.66378174 -1.35519836 22.51329346 -1.32929993 21.32794189 C-1.30899719 19.57320557 -1.30899719 19.57320557 -1.2882843 17.78302002 C-1.25300271 14.90168989 -1.20370272 12.02130285 -1.14179993 9.14044189 C-5.66015545 11.26672684 -8.31761137 12.95645884 -11.14179993 17.14044189 C-12.39573799 20.90225607 -12.30242107 24.42408816 -12.31538391 28.34381104 C-12.32207092 29.1798436 -12.32875793 30.01587616 -12.33564758 30.87724304 C-12.349696 32.69259752 -12.36159072 34.50796964 -12.37159538 36.32335091 C-12.38799442 39.19322786 -12.41122971 42.06297325 -12.43649292 44.93278503 C-12.50731457 53.09218817 -12.56751197 61.25164372 -12.61860657 69.41119385 C-12.6503304 74.40083838 -12.69158359 79.39032959 -12.73880196 84.37985039 C-12.75485579 86.28448173 -12.76716164 88.18914838 -12.77570915 90.0938282 C-12.78781185 92.75153383 -12.81193801 95.40887611 -12.83882141 98.06646729 C-12.83941055 98.85872711 -12.83999969 99.65098694 -12.84060669 100.46725464 C-12.91389861 105.91254058 -12.91389861 105.91254058 -15.14179993 108.14044189 C-17.64179993 108.45294189 -17.64179993 108.45294189 -20.14179993 108.14044189 C-22.61206091 104.43505042 -22.42369005 101.60991471 -22.40058899 97.32354736 C-22.40409363 96.52801956 -22.40759827 95.73249176 -22.41120911 94.91285706 C-22.42002433 92.27769283 -22.41417469 89.64279646 -22.40742493 87.00762939 C-22.40877244 85.17259673 -22.41071369 83.33756441 -22.41322327 81.50253296 C-22.41617491 77.65068168 -22.41187857 73.79892304 -22.40254211 69.94708252 C-22.39119568 65.02789794 -22.39767614 60.10893277 -22.40968704 55.18975639 C-22.41694576 51.39603044 -22.41459853 47.60235566 -22.40943146 43.80862808 C-22.40810353 41.99627786 -22.40971245 40.18392289 -22.41439056 38.37157822 C-22.41951648 35.82549675 -22.41165914 33.2797597 -22.40058899 30.73370361 C-22.40463745 29.99466293 -22.40868591 29.25562225 -22.41285706 28.4941864 C-22.33910322 19.25592554 -20.63554083 11.92586383 -14.14179993 5.14044189 C-9.71966799 1.45355599 -5.72721554 0.01839832 0 0 Z M7.85820007 8.14044189 C7.85820007 16.06044189 7.85820007 23.98044189 7.85820007 32.14044189 C11.2992367 33.86096021 15.26245846 33.28759983 19.04960632 33.28570557 C20.4790004 33.29074348 20.4790004 33.29074348 21.93727112 33.29588318 C25.09842723 33.30540999 28.25953049 33.30733705 31.42070007 33.30841064 C33.61023481 33.31162162 35.79976932 33.31498557 37.98930359 33.3184967 C42.58265175 33.32449203 47.17598108 33.32633615 51.76933289 33.32574463 C57.66784534 33.32564289 63.56623772 33.33930526 69.46472168 33.35651684 C73.98731547 33.36761001 78.50987996 33.36966468 83.03248596 33.3691349 C85.20788487 33.37031869 87.38328445 33.3747626 89.55867004 33.38246727 C92.59479809 33.39221473 95.63066194 33.38941014 98.66679382 33.38336182 C100.02585342 33.39179108 100.02585342 33.39179108 101.41236877 33.40039062 C106.11878473 33.60942716 106.11878473 33.60942716 109.85820007 31.14044189 C110.13607675 28.71446238 110.13607675 28.71446238 110.05351257 25.91387939 C110.04706726 24.88262939 110.04062195 23.85137939 110.03398132 22.78887939 C110.01722351 21.70864502 110.0004657 20.62841064 109.98320007 19.51544189 C109.97417664 18.42747314 109.9651532 17.33950439 109.95585632 16.21856689 C109.93223526 13.52576541 109.8963634 10.83307655 109.85820007 8.14044189 C105.56820007 8.14044189 101.27820007 8.14044189 96.85820007 8.14044189 C96.52820007 13.42044189 96.19820007 18.70044189 95.85820007 24.14044189 C93.87820007 24.14044189 91.89820007 24.14044189 89.85820007 24.14044189 C87.86203454 22.14427636 88.4483658 18.32342226 88.29570007 15.57794189 C88.25251648 14.86702393 88.20933289 14.15610596 88.1648407 13.42364502 C88.05848231 11.66282278 87.95781161 9.9016587 87.85820007 8.14044189 C83.23820007 8.14044189 78.61820007 8.14044189 73.85820007 8.14044189 C73.52820007 13.09044189 73.19820007 18.04044189 72.85820007 23.14044189 C67.85820007 24.14044189 67.85820007 24.14044189 65.85820007 24.14044189 C65.85820007 18.86044189 65.85820007 13.58044189 65.85820007 8.14044189 C61.23820007 8.14044189 56.61820007 8.14044189 51.85820007 8.14044189 C51.52820007 13.42044189 51.19820007 18.70044189 50.85820007 24.14044189 C48.87820007 24.14044189 46.89820007 24.14044189 44.85820007 24.14044189 C42.86203454 22.14427636 43.4483658 18.32342226 43.29570007 15.57794189 C43.25251648 14.86702393 43.20933289 14.15610596 43.1648407 13.42364502 C43.05848231 11.66282278 42.95781161 9.9016587 42.85820007 8.14044189 C38.56820007 8.14044189 34.27820007 8.14044189 29.85820007 8.14044189 C29.73445007 10.22356689 29.61070007 12.30669189 29.48320007 14.45294189 C29.10820007 20.76544189 29.10820007 20.76544189 26.85820007 24.14044189 C24.38320007 23.64544189 24.38320007 23.64544189 21.85820007 23.14044189 C21.52820007 18.19044189 21.19820007 13.24044189 20.85820007 8.14044189 C16.56820007 8.14044189 12.27820007 8.14044189 7.85820007 8.14044189 Z " fill="#140C0C" transform="translate(51.14179992675781,15.85955810546875)"/>
<path d="M0 0 C2.54443217 1.95725551 4.92328326 3.99817595 7.27734375 6.1796875 C8.21513672 7.03626953 8.21513672 7.03626953 9.171875 7.91015625 C19.9940504 18.97662455 25.00256679 35.03488615 25.65234375 50.1796875 C25.38784755 57.66115142 24.71566805 68.64571428 19.27734375 74.1796875 C16.71484375 74.6171875 16.71484375 74.6171875 14.27734375 74.1796875 C12.27734375 71.1796875 12.27734375 71.1796875 12.484375 69.09375 C12.68417969 68.33835937 12.88398438 67.58296875 13.08984375 66.8046875 C13.28191406 66.05445313 13.47398437 65.30421875 13.671875 64.53125 C13.87167969 63.75523437 14.07148438 62.97921875 14.27734375 62.1796875 C17.8760436 46.8789217 13.88781476 32.91262258 5.85546875 19.87109375 C-0.79090561 10.37862344 -11.05093238 3.69329146 -22.20703125 0.76953125 C-38.53039095 -1.96916577 -53.40276822 1.17198702 -66.9921875 10.78515625 C-76.87953903 18.68493115 -83.06365053 30.70461506 -84.72265625 43.1796875 C-85.87518008 56.73007483 -83.04699669 69.88668077 -74.71484375 80.8125 C-64.91176382 92.25511943 -52.79012354 98.47192261 -37.72265625 100.1796875 C-23.63820171 100.87236559 -11.24227232 96.5677114 -0.72265625 87.1796875 C0.60765625 85.725625 0.60765625 85.725625 1.96484375 84.2421875 C4.27734375 82.1796875 4.27734375 82.1796875 7.52734375 81.8046875 C10.27734375 82.1796875 10.27734375 82.1796875 11.27734375 83.1796875 C11.77734375 85.8046875 11.77734375 85.8046875 11.27734375 89.1796875 C4.36999296 99.20796755 -9.56668735 105.65778028 -20.94921875 108.79296875 C-33.3275767 110.51896514 -46.16649342 110.12071915 -57.72265625 105.1796875 C-58.58761719 104.8290625 -59.45257813 104.4784375 -60.34375 104.1171875 C-74.1202368 97.92743992 -84.94205074 86.61652774 -90.66015625 72.6796875 C-96.30895592 56.39556155 -96.34033594 39.6725694 -89.05712891 23.87695312 C-81.6821358 8.92259538 -70.54943866 -1.15751879 -54.72265625 -6.8203125 C-36.37572808 -12.08949948 -16.24708686 -10.86247127 0 0 Z " fill="#140C0C" transform="translate(162.72265625,97.8203125)"/>
<path d="M0 0 C4.38500697 4.53656252 5.91782738 8.98447679 6.1953125 15.25390625 C5.88786897 22.42428278 3.58860472 27.2811429 -1.6796875 32.12890625 C-6.65602762 36.00876465 -11.60997848 37.29802001 -17.8671875 37.12890625 C-24.10925601 36.16858802 -29.60741948 33.23222249 -33.3671875 28.12890625 C-36.84522324 22.07039239 -37.49821564 15.47536315 -35.7734375 8.65234375 C-33.01790485 1.85336645 -28.89313524 -2.32111255 -22.3046875 -5.24609375 C-14.36930038 -7.71488086 -6.215227 -5.22129393 0 0 Z M-25.7421875 7.87890625 C-27.93166795 11.90755028 -28.09508933 15.26442386 -27.3046875 19.75390625 C-25.69753976 22.91080359 -24.33030516 24.94806381 -21.5546875 27.12890625 C-16.30791031 28.58634436 -12.64845062 28.47555681 -7.9296875 25.94140625 C-5.19983429 23.66652858 -3.51876381 22.06315189 -2.93359375 18.484375 C-2.7736579 12.50967611 -2.7736579 12.50967611 -5.3046875 7.25390625 C-12.32961883 1.39979681 -18.71553014 1.7531024 -25.7421875 7.87890625 Z " fill="#140C0C" transform="translate(143.3046875,132.24609375)"/>
<path d="M0 0 C1.15757813 -0.00257813 2.31515625 -0.00515625 3.5078125 -0.0078125 C4.72210938 -0.00007812 5.93640625 0.00765625 7.1875 0.015625 C8.40179688 0.00789062 9.61609375 0.00015625 10.8671875 -0.0078125 C12.60355469 -0.00394531 12.60355469 -0.00394531 14.375 0 C15.44105469 0.00225586 16.50710937 0.00451172 17.60546875 0.00683594 C20.1875 0.265625 20.1875 0.265625 22.1875 2.265625 C22.4375 4.765625 22.4375 4.765625 22.1875 7.265625 C19.50262835 9.95049665 18.12273019 9.52331949 14.375 9.53125 C13.21742187 9.53382813 12.05984375 9.53640625 10.8671875 9.5390625 C9.65289062 9.53132812 8.43859375 9.52359375 7.1875 9.515625 C5.97320312 9.52335938 4.75890625 9.53109375 3.5078125 9.5390625 C1.77144531 9.53519531 1.77144531 9.53519531 0 9.53125 C-1.59908203 9.52786621 -1.59908203 9.52786621 -3.23046875 9.52441406 C-5.8125 9.265625 -5.8125 9.265625 -7.8125 7.265625 C-8.0625 4.765625 -8.0625 4.765625 -7.8125 2.265625 C-5.12762835 -0.41924665 -3.74773019 0.00793051 0 0 Z " fill="#130B0B" transform="translate(56.8125,196.734375)"/>
<path d="M0 0 C1.21880859 -0.01224609 2.43761719 -0.02449219 3.69335938 -0.03710938 C5.43649414 -0.04000977 5.43649414 -0.04000977 7.21484375 -0.04296875 C8.28726318 -0.04707764 9.35968262 -0.05118652 10.46459961 -0.05541992 C13.0625 0.1875 13.0625 0.1875 15.0625 2.1875 C14.875 4.6875 14.875 4.6875 14.0625 7.1875 C9.48984569 10.23593621 4.94035396 9.51637593 -0.4375 9.5 C-2.02498047 9.52416992 -2.02498047 9.52416992 -3.64453125 9.54882812 C-4.65902344 9.54947266 -5.67351563 9.55011719 -6.71875 9.55078125 C-8.1119043 9.55525269 -8.1119043 9.55525269 -9.53320312 9.55981445 C-11.9375 9.1875 -11.9375 9.1875 -13.77929688 7.82885742 C-14.9375 6.1875 -14.9375 6.1875 -14.6875 3.5625 C-12.85581463 -2.23783701 -5.14805486 0.00271379 0 0 Z " fill="#140C0C" transform="translate(63.9375,213.8125)"/>
</svg>
