<?xml version="1.0" encoding="UTF-8"?>
<!-- Generator: visioncortex VTracer 0.6.12 -->
<svg version="1.1" xmlns="http://www.w3.org/2000/svg" width="2048" height="2048">
<path d="M0,0 L16,1 L34,5 L48,10 L61,17 L77,29 L83,34 L90,42 L100,53 L112,70 L123,87 L136,108 L146,122 L155,133 L166,145 L174,153 L189,163 L204,171 L220,177 L226,178 L241,173 L258,165 L270,157 L279,150 L292,137 L303,123 L312,111 L324,92 L334,76 L345,60 L356,46 L363,38 L371,31 L379,24 L392,15 L409,7 L428,2 L447,0 L473,1 L502,6 L528,13 L562,25 L590,37 L619,51 L642,63 L667,78 L691,94 L702,102 L714,111 L728,122 L741,133 L751,142 L764,154 L783,173 L790,181 L791,184 L793,184 L800,193 L809,205 L818,219 L828,238 L834,255 L837,271 L838,290 L836,306 L832,322 L825,338 L817,353 L809,365 L799,379 L787,396 L777,414 L771,428 L768,438 L767,446 L767,459 L770,474 L778,490 L787,500 L792,505 L803,514 L818,523 L837,532 L858,539 L882,545 L905,549 L948,554 L971,558 L987,563 L1004,570 L1021,580 L1032,589 L1046,603 L1054,614 L1054,616 L1056,616 L1065,632 L1070,642 L1078,663 L1085,686 L1092,720 L1096,745 L1100,787 L1101,808 L1101,854 L1099,887 L1095,923 L1089,959 L1082,989 L1076,1009 L1070,1025 L1062,1041 L1054,1055 L1043,1069 L1027,1085 L1012,1096 L998,1104 L987,1109 L970,1115 L944,1121 L918,1126 L897,1132 L880,1139 L864,1149 L851,1161 L842,1171 L833,1184 L825,1200 L819,1214 L814,1233 L812,1248 L812,1281 L815,1300 L821,1321 L831,1348 L839,1367 L843,1381 L844,1388 L844,1410 L841,1425 L836,1441 L825,1464 L812,1484 L800,1501 L791,1512 L782,1523 L773,1533 L764,1543 L759,1549 L751,1556 L746,1561 L733,1574 L725,1581 L715,1590 L701,1601 L682,1615 L671,1623 L647,1637 L624,1649 L598,1660 L571,1669 L545,1675 L521,1678 L508,1678 L475,1675 L454,1670 L433,1662 L414,1652 L398,1641 L388,1633 L380,1627 L380,1625 L376,1623 L362,1611 L352,1603 L342,1595 L332,1587 L319,1577 L305,1566 L290,1555 L275,1546 L261,1539 L244,1532 L226,1528 L210,1531 L193,1537 L177,1545 L163,1553 L149,1563 L135,1574 L117,1588 L106,1597 L97,1604 L86,1613 L72,1625 L70,1625 L70,1627 L61,1634 L48,1644 L31,1655 L10,1665 L-11,1672 L-25,1675 L-58,1678 L-71,1678 L-95,1675 L-125,1668 L-156,1657 L-180,1646 L-201,1635 L-221,1623 L-232,1615 L-251,1601 L-268,1587 L-281,1575 L-289,1568 L-298,1559 L-304,1554 L-311,1546 L-321,1536 L-328,1528 L-339,1515 L-350,1501 L-360,1487 L-371,1470 L-379,1456 L-386,1441 L-391,1425 L-394,1410 L-394,1388 L-391,1373 L-383,1352 L-375,1332 L-368,1311 L-364,1295 L-362,1281 L-362,1248 L-365,1228 L-370,1212 L-377,1195 L-386,1179 L-399,1163 L-409,1153 L-423,1143 L-439,1135 L-456,1129 L-479,1124 L-513,1117 L-532,1111 L-548,1104 L-559,1098 L-570,1090 L-580,1082 L-595,1067 L-605,1053 L-615,1036 L-624,1015 L-630,997 L-636,973 L-643,937 L-647,907 L-650,873 L-651,854 L-651,808 L-649,774 L-645,738 L-638,699 L-631,672 L-623,649 L-617,636 L-608,619 L-606,616 L-604,616 L-602,611 L-593,600 L-579,586 L-566,577 L-550,568 L-532,561 L-511,556 L-482,552 L-448,548 L-419,542 L-399,536 L-380,529 L-359,518 L-348,510 L-338,502 L-329,491 L-321,477 L-318,466 L-317,459 L-317,446 L-319,434 L-325,418 L-333,403 L-343,387 L-352,375 L-361,362 L-372,344 L-380,327 L-384,315 L-387,301 L-388,286 L-386,264 L-382,249 L-376,234 L-366,215 L-358,204 L-350,193 L-343,184 L-341,184 L-339,180 L-324,164 L-306,146 L-298,139 L-287,129 L-277,121 L-263,110 L-251,101 L-231,87 L-212,75 L-188,61 L-161,47 L-136,35 L-104,22 L-68,10 L-47,5 L-23,1 Z M-11,130 L-32,135 L-62,145 L-88,156 L-115,169 L-138,182 L-157,194 L-177,208 L-191,219 L-201,227 L-216,240 L-222,245 L-227,250 L-232,255 L-241,265 L-251,277 L-255,283 L-254,288 L-243,304 L-233,318 L-220,339 L-209,359 L-199,383 L-193,402 L-190,417 L-187,449 L-187,463 L-190,489 L-195,509 L-201,527 L-209,543 L-217,557 L-229,574 L-236,582 L-236,584 L-239,585 L-246,593 L-257,604 L-267,612 L-285,625 L-304,636 L-320,644 L-330,649 L-354,658 L-380,666 L-406,672 L-431,676 L-480,682 L-495,686 L-499,690 L-505,704 L-511,727 L-516,755 L-519,779 L-521,807 L-521,858 L-519,886 L-514,921 L-508,950 L-503,968 L-495,984 L-487,989 L-472,993 L-437,1000 L-414,1006 L-391,1014 L-366,1026 L-348,1037 L-333,1048 L-331,1048 L-330,1051 L-323,1056 L-318,1061 L-310,1068 L-303,1075 L-294,1086 L-283,1100 L-273,1115 L-263,1133 L-252,1156 L-245,1175 L-238,1200 L-234,1227 L-232,1250 L-232,1285 L-235,1312 L-240,1336 L-247,1359 L-256,1385 L-261,1397 L-260,1403 L-246,1423 L-232,1440 L-221,1452 L-214,1460 L-201,1473 L-199,1473 L-197,1477 L-187,1485 L-182,1490 L-171,1499 L-169,1499 L-169,1501 L-145,1517 L-130,1526 L-106,1537 L-82,1545 L-65,1548 L-51,1548 L-37,1544 L-26,1537 L-10,1524 L0,1515 L10,1507 L26,1494 L43,1481 L59,1468 L75,1456 L102,1438 L126,1425 L156,1412 L178,1405 L192,1402 L209,1399 L241,1399 L268,1404 L288,1410 L304,1416 L334,1430 L353,1441 L375,1456 L388,1466 L402,1477 L416,1488 L432,1501 L442,1509 L453,1518 L463,1527 L480,1540 L490,1545 L501,1548 L515,1548 L536,1544 L558,1536 L576,1528 L597,1516 L616,1503 L619,1501 L619,1499 L623,1497 L629,1493 L634,1488 L642,1481 L649,1475 L649,1473 L653,1471 L667,1457 L674,1449 L685,1437 L696,1423 L708,1406 L711,1401 L710,1395 L700,1368 L694,1350 L687,1323 L683,1296 L682,1285 L682,1250 L685,1218 L689,1196 L696,1172 L706,1147 L717,1125 L730,1104 L740,1091 L751,1078 L760,1068 L765,1064 L770,1059 L778,1052 L781,1050 L781,1048 L786,1046 L801,1035 L822,1023 L841,1014 L874,1003 L911,995 L934,990 L944,985 L950,975 L955,961 L961,937 L967,902 L970,876 L971,858 L971,807 L969,779 L965,748 L959,718 L953,699 L947,687 L939,684 L924,681 L873,675 L842,669 L816,662 L790,653 L773,646 L754,636 L738,627 L721,615 L711,607 L699,596 L690,587 L688,584 L686,584 L684,580 L673,566 L661,547 L653,531 L647,516 L641,494 L638,474 L637,463 L637,449 L640,417 L644,398 L652,375 L660,357 L673,334 L683,318 L693,304 L705,287 L704,281 L696,271 L686,259 L679,253 L674,248 L669,243 L662,236 L651,227 L639,217 L623,205 L596,187 L572,173 L551,162 L522,149 L495,139 L470,132 L461,130 L455,130 L446,142 L431,166 L420,183 L408,200 L400,210 L389,223 L387,227 L383,229 L377,236 L369,243 L356,255 L341,266 L322,278 L306,286 L291,293 L272,300 L259,304 L252,307 L229,309 L219,309 L198,307 L182,301 L164,295 L146,287 L130,279 L115,270 L101,260 L91,252 L79,241 L72,235 L65,227 L63,227 L61,223 L52,213 L39,196 L30,183 L14,158 L4,142 L-3,133 L-5,130 Z " fill="#101010" transform="translate(799,195)"/>
<path d="M0,0 L18,0 L43,2 L63,5 L89,11 L108,17 L128,25 L147,34 L169,47 L186,59 L197,68 L211,80 L224,93 L231,101 L242,114 L254,131 L266,151 L279,177 L288,201 L295,226 L300,253 L302,270 L302,315 L299,340 L294,364 L287,388 L279,409 L267,434 L257,451 L245,468 L234,482 L223,494 L216,502 L208,509 L198,518 L180,531 L156,547 L138,557 L120,565 L95,574 L67,581 L41,585 L29,586 L-11,586 L-37,583 L-65,577 L-85,571 L-110,561 L-129,552 L-151,539 L-169,526 L-182,515 L-190,508 L-198,501 L-205,493 L-216,481 L-229,463 L-243,442 L-252,426 L-261,407 L-271,379 L-276,360 L-281,335 L-283,315 L-283,272 L-281,252 L-276,226 L-272,211 L-264,187 L-254,164 L-242,142 L-228,121 L-223,114 L-221,114 L-219,109 L-207,96 L-200,88 L-190,78 L-179,69 L-164,57 L-146,45 L-122,31 L-97,20 L-70,11 L-45,5 L-16,1 Z M3,130 L-23,133 L-44,139 L-59,145 L-82,157 L-93,166 L-103,175 L-114,186 L-127,203 L-137,221 L-145,240 L-150,257 L-153,274 L-153,311 L-149,333 L-143,352 L-135,370 L-123,389 L-114,400 L-103,412 L-101,412 L-101,414 L-90,423 L-75,433 L-65,439 L-41,449 L-21,454 L-6,456 L24,456 L44,453 L65,447 L81,440 L95,433 L112,421 L119,414 L127,407 L136,397 L146,383 L154,369 L160,357 L167,337 L171,319 L173,298 L172,276 L169,258 L163,237 L156,221 L147,204 L137,191 L125,178 L117,170 L103,159 L88,150 L69,141 L54,136 L37,132 L16,130 Z " fill="#101010" transform="translate(1010,735)"/>
</svg>
