<?xml version="1.0" encoding="UTF-8"?>
<svg version="1.1" xmlns="http://www.w3.org/2000/svg" width="2048" height="2048" viewBox="0 0 2048 2048">
<path d="M0 0 C3.03642025 0.00733277 6.07282098 0.01042154 9.10924911 0.01251221 C36.63797355 0.03591781 64.1273572 0.46173486 91.64134216 1.32786942 C124.67060454 2.36352311 157.6956249 2.45581319 190.73784637 2.44561768 C194.19270417 2.44457849 197.6475594 2.44518915 201.10241711 2.44625217 C208.33126811 2.44831674 215.56007771 2.44334908 222.78892136 2.43090248 C225.22448675 2.42707668 227.6600548 2.42465766 230.09562302 2.42372704 C233.46068105 2.42158576 236.82565965 2.41294397 240.19070053 2.40240479 C241.65579292 2.40309212 241.65579292 2.40309212 243.15048313 2.40379333 C248.17681203 2.38040283 253.07255959 2.13846854 258.05799389 1.48342037 C261.78085018 1.06722546 265.51203541 1.11471291 269.25393295 1.12432861 C270.52034622 1.12289352 270.52034622 1.12289352 271.8123436 1.12142944 C273.58714498 1.12075362 275.36194892 1.12256587 277.13674545 1.12677002 C279.81128305 1.13209971 282.48565067 1.12681841 285.16018295 1.12042236 C286.89976665 1.12108377 288.63935024 1.12236623 290.37893295 1.12432861 C291.15855392 1.12230438 291.9381749 1.12028015 292.74142075 1.11819458 C297.08255474 1.13594753 301.34431992 1.35513991 305.66726303 1.75494385 C316.22927554 2.61235115 326.83246997 2.42090931 337.4219017 2.42510986 C339.83467769 2.42901801 342.24745337 2.43311682 344.66022873 2.43739319 C351.77692959 2.44757476 358.8936058 2.4472152 366.01031208 2.44499207 C368.69782013 2.44452264 371.38532707 2.4454062 374.07283497 2.44626057 C406.62952511 2.45554446 439.16382993 2.27472928 471.70705795 1.25714111 C529.9340757 -0.55082439 588.94619658 -2.18479241 647.08205795 2.25714111 C647.75374008 2.30805908 648.42542221 2.35897705 649.11745834 2.41143799 C689.32596719 5.53519676 732.43522601 14.8703691 762.08205795 44.25714111 C762.83744858 44.97514893 763.5928392 45.69315674 764.37112045 46.43292236 C784.19025353 65.60503906 795.38806303 88.88403288 805.08205795 114.25714111 C805.37435287 115.01301514 805.6666478 115.76888916 805.96780014 116.54766846 C815.27664724 140.69016873 822.34175752 165.2622214 828.40818405 190.37911987 C829.64495749 195.49254931 830.92038169 200.59462591 832.2265892 205.69073486 C842.00345276 243.91029112 850.73828273 282.36613936 857.63869858 321.21162415 C858.77773125 327.6127749 859.96982768 334.00259307 861.18362045 340.38995361 C869.28956123 383.2167756 876.42318088 426.30983518 882.16994858 469.52008057 C884.05891224 483.60394969 886.2940692 497.63410941 888.50374985 511.67048645 C889.05244243 515.15785675 889.59950778 518.64548207 890.14651108 522.13311768 C890.25541231 522.82744337 890.36431355 523.52176907 890.47651482 524.23713493 C901.19892927 592.6100043 910.93317046 660.90304019 916.97893906 729.86213684 C917.79036969 739.09925994 918.6517831 748.33074239 919.54111481 757.56067657 C923.12860475 794.82452627 926.22933413 832.10762482 928.95705795 869.44464111 C929.03313656 870.48526325 929.10921516 871.52588539 929.18759918 872.59804153 C929.69600548 879.56090781 930.19949913 886.52411693 930.69924545 893.48760986 C930.76317427 894.37582554 930.82710308 895.26404121 930.89296913 896.17917252 C931.24800832 901.1248388 931.59358151 906.07101709 931.92778969 911.01813507 C932.07231285 913.11570346 932.22730252 915.21226006 932.38383102 917.30895996 C933.33011526 930.6406855 933.24610161 943.98412484 933.2500267 957.34307861 C933.25324708 959.93801898 933.25661172 962.53295917 933.26011276 965.12789917 C933.26606402 970.53540548 933.26799987 975.94289391 933.26736069 981.35040283 C933.26675794 987.57228646 933.27736558 993.79408397 933.29310435 1000.01594579 C933.30781444 1006.04996244 933.31134737 1012.08393257 933.31075096 1018.11796951 C933.31192594 1020.66551696 933.31632044 1023.21306515 933.32408333 1025.76060104 C933.33393199 1029.32250847 933.33098713 1032.88419461 933.32497787 1036.44610596 C933.33059738 1037.4832373 933.33621689 1038.52036865 933.34200668 1039.58892822 C933.25418141 1060.18010567 925.5146795 1076.96450601 911.53762436 1091.83282471 C907.85743045 1095.43400741 903.61486686 1097.88964524 899.08205795 1100.25714111 C898.27897202 1100.7147583 897.47588608 1101.17237549 896.6484642 1101.64385986 C888.47014561 1105.89250275 879.58743321 1107.15326742 870.61379623 1108.77764893 C868.32723344 1109.21070672 866.06420157 1109.69465139 863.7969017 1110.21807861 C835.96993233 1116.64092955 807.38215491 1119.06157351 779.01955795 1121.88214111 C778.28036999 1121.95572971 777.54118202 1122.02931831 776.77959442 1122.10513687 C747.87281288 1124.97877222 718.94546409 1127.78371522 689.95705795 1129.69464111 C686.26814072 1129.94164522 682.57937247 1130.19081499 678.8906517 1130.44073486 C677.93862366 1130.5049765 676.98659561 1130.56921814 676.00571823 1130.63540649 C668.83106261 1131.1245816 661.66164 1131.66968968 654.4922142 1132.22979736 C598.6202643 1136.55123566 542.58413892 1138.64104221 486.55111313 1139.2310791 C484.34638832 1139.25435098 482.14171965 1139.28040909 479.93703842 1139.30743408 C462.25524804 1139.50121368 444.57337301 1139.11972432 426.89455795 1138.81964111 C425.70251755 1138.80008362 424.51047714 1138.78052612 423.2823143 1138.76037598 C412.14111504 1138.57345019 401.00048514 1138.38545295 389.87112045 1137.81573486 C389.17779114 1137.78282852 388.48446182 1137.74992218 387.77012253 1137.71601868 C372.18768734 1136.81746676 353.49451943 1130.19484419 342.08205795 1119.25714111 C342.08205795 1118.59714111 342.08205795 1117.93714111 342.08205795 1117.25714111 C341.52389389 1117.0753833 340.96572983 1116.89362549 340.3906517 1116.70635986 C336.97709908 1114.56350365 335.21420059 1111.43310561 333.14455795 1108.06964111 C332.48206039 1106.99540894 332.48206039 1106.99540894 331.80617905 1105.8994751 C322.49935156 1090.26489882 319.50177993 1071.04755463 316.6746788 1053.28463745 C316.05300189 1049.378987 315.41117767 1045.4766053 314.7734642 1041.57354736 C314.6381781 1040.74181503 314.502892 1039.9100827 314.36350632 1039.05314636 C313.35249532 1032.85378339 312.30258672 1026.66173433 311.2344017 1020.47198486 C307.05940514 996.25893548 303.10806908 972.0184598 299.31081772 947.7432251 C297.07412137 933.45652775 294.75630887 919.18758102 292.33297348 904.93145752 C290.75616116 895.63156358 289.39110817 886.33330091 288.27077866 876.96734619 C286.51956675 862.97176329 283.6985715 849.11158671 281.08205795 835.25714111 C280.75205795 835.25714111 280.42205795 835.25714111 280.08205795 835.25714111 C278.72874377 842.58689248 277.40035601 849.92101331 276.08205795 857.25714111 C275.96090622 857.93124023 275.83975449 858.60533936 275.71493149 859.29986572 C269.2832889 895.13050222 262.94574242 931.03975221 258.514431 967.17950439 C255.65435293 990.16923278 251.63605253 1013.01978017 247.26223373 1035.76568604 C246.04699855 1042.09102888 244.8691671 1048.41621162 243.8047142 1054.76885986 C239.58875682 1079.87532994 234.73673734 1107.96255322 213.08205795 1124.25714111 C209.60315076 1126.26499454 206.01468567 1127.90921112 202.33205795 1129.50714111 C201.35196762 1129.93825195 200.37187729 1130.36936279 199.36208725 1130.8135376 C189.76950398 1134.94990602 181.32705627 1137.26020169 170.86330795 1137.78057861 C170.04485901 1137.82218613 169.22641006 1137.86379364 168.38315964 1137.90666199 C156.85238693 1138.4540935 145.31057978 1138.62540877 133.76955795 1138.81964111 C132.56920914 1138.84048767 131.36886032 1138.86133423 130.1321373 1138.8828125 C95.24466848 1139.48433558 95.24466848 1139.48433558 78.30495834 1139.28320312 C76.72798534 1139.26471418 75.15099756 1139.24746617 73.57400131 1139.2310791 C9.70398677 1138.56570631 -53.89511906 1135.32557856 -117.55842972 1130.28575134 C-127.02820921 1129.53914625 -136.49986807 1128.88171548 -145.98044205 1128.28448486 C-161.67813164 1127.27918187 -177.32786501 1125.83450897 -192.98459244 1124.33526611 C-196.92935076 1123.95757972 -200.87478955 1123.58761569 -204.82046318 1123.21963215 C-220.8268477 1121.72370624 -236.81267214 1120.10987268 -252.7734108 1118.18292236 C-254.07397919 1118.02663361 -255.37454758 1117.87034485 -256.71452713 1117.70932007 C-275.17244601 1115.42998672 -293.48141722 1112.20218826 -311.73044205 1108.63214111 C-312.73204361 1108.43821777 -313.73364517 1108.24429443 -314.7655983 1108.04449463 C-331.91044313 1104.58829768 -348.19856075 1097.6388807 -358.91794205 1083.25714111 C-367.28211326 1070.4955962 -371.92756303 1057.42847097 -372.12326431 1042.09454346 C-372.13316391 1041.41524277 -372.14306351 1040.73594208 -372.15326309 1040.03605652 C-372.18465579 1037.80509811 -372.20959453 1035.57411976 -372.2343483 1033.34307861 C-372.25498347 1031.76670876 -372.2759813 1030.19034362 -372.29732132 1028.61398315 C-372.34117267 1025.30723833 -372.38208368 1022.00047544 -372.42062759 1018.69366455 C-372.46930718 1014.51939017 -372.52299541 1010.34520128 -372.57858658 1006.17101383 C-373.22749922 957.36105109 -373.22749922 957.36105109 -372.29294205 938.06964111 C-372.2542601 937.24518494 -372.21557816 936.42072876 -372.17572403 935.57128906 C-370.77309558 906.35743668 -368.34610198 877.19147159 -366.15740395 848.0285759 C-365.42752187 838.29367259 -364.71339365 828.55918129 -364.10544205 818.81573486 C-364.02418579 817.51436584 -364.02418579 817.51436584 -363.94128799 816.18670654 C-363.86326447 814.93452332 -363.86326447 814.93452332 -363.7836647 813.65704346 C-358.71644588 732.35981326 -348.8226495 651.19745862 -336.60121536 570.68540955 C-335.51604762 563.48092501 -334.52286996 556.27423249 -333.63473892 549.04295349 C-331.18752496 529.20517522 -328.04968109 509.48705617 -324.87026596 489.75559235 C-324.25538912 485.93446162 -323.64418436 482.11274711 -323.03300667 478.29102325 C-318.46314903 449.71600128 -313.8451607 421.14851953 -309.18498993 392.58808422 C-308.71634625 389.71577782 -308.2482271 386.84338618 -307.78036118 383.97095299 C-307.55579558 382.59235065 -307.33109135 381.21377089 -307.10624313 379.83521461 C-305.80008921 371.82086957 -304.5358927 363.80150738 -303.32727432 355.77182007 C-301.49594124 343.61352426 -299.36996818 331.55498478 -296.91794205 319.50714111 C-296.7328508 318.5883316 -296.54775955 317.66952209 -296.35705948 316.72286987 C-292.96887331 299.92087943 -289.32238464 283.17662059 -285.60544205 266.44464111 C-285.3510939 265.2987854 -285.09674576 264.15292969 -284.83469009 262.97235107 C-282.26814584 251.43618717 -279.62646219 239.93318901 -276.71164322 228.4800415 C-275.72390316 224.46922743 -274.95512021 220.4465164 -274.23044205 216.38214111 C-268.4169902 185.99378182 -258.90754408 155.99406804 -248.58786392 126.88702393 C-246.87734238 122.06127982 -245.27691782 117.24059751 -243.85544205 112.31964111 C-233.16939095 77.08330883 -208.30703961 43.18027713 -175.84518814 25.26934814 C-141.43600138 7.1973329 -104.06342495 2.9440772 -65.76950455 1.19073486 C-64.34796381 1.12535145 -64.34796381 1.12535145 -62.89770508 1.05864716 C-41.93023068 0.11621967 -20.98560943 -0.05784071 0 0 Z M-94.48044205 134.63214111 C-95.60434341 134.78465332 -95.60434341 134.78465332 -96.75094986 134.94024658 C-103.21277447 135.98329701 -109.54111747 137.88031653 -114.24606705 142.58526611 C-126.29538893 161.84165904 -131.43543847 184.12298503 -137.35544205 205.81964111 C-137.57689896 206.62759125 -137.79835587 207.43554138 -138.02652359 208.26797485 C-138.66234221 210.5972645 -139.28969586 212.92865772 -139.9140358 215.26104736 C-140.10220367 215.94975922 -140.29037155 216.63847107 -140.48424149 217.34805298 C-141.70688162 221.9717262 -142.40867922 226.50059316 -142.91794205 231.25714111 C-137.71036622 232.08486086 -132.59085553 232.50175132 -127.32516861 232.72198486 C-126.49279175 232.75953888 -125.66041489 232.7970929 -124.80281448 232.83578491 C-122.05487182 232.95883113 -119.30674017 233.076863 -116.55856705 233.19464111 C-114.61216638 233.28027306 -112.66577577 233.36613361 -110.71939468 233.45220947 C-106.62404866 233.63255121 -102.52860685 233.81047597 -98.43307877 233.9866333 C-93.29541614 234.20774764 -88.15800591 234.43418048 -83.02065086 234.66231537 C-38.96917907 236.6148489 5.05660882 237.58141087 49.14599609 238.18889618 C52.36223873 238.23324392 55.578473 238.27813198 58.79470062 238.32355499 C128.73967632 239.30900613 198.67985745 239.4147864 268.63008283 239.38660243 C279.93048434 239.38213833 291.23087537 239.38295475 302.5312767 239.38751221 C371.80097024 239.41469136 441.0603115 239.28286832 510.32521605 238.34745711 C515.45421802 238.27827218 520.58325318 238.21272117 525.71233749 238.14994812 C526.73279714 238.13739174 526.73279714 238.13739174 527.77387214 238.12458169 C530.88308172 238.08633387 533.99229407 238.04834947 537.10151291 238.01086044 C573.69639183 237.5558144 610.25778158 235.98226954 646.81954575 234.43676758 C650.80164785 234.26859241 654.78387467 234.10353887 658.76613998 233.93927002 C664.19263345 233.71517508 669.61894785 233.48732524 675.04507065 233.25442505 C676.91491145 233.17418202 678.78478377 233.09466942 680.65468979 233.01596069 C683.15799021 232.90972343 685.66105222 232.7990808 688.1640892 232.68682861 C688.86240356 232.65776932 689.56071793 232.62871002 690.28019333 232.59877014 C694.9270032 232.38309723 699.47612458 231.87887956 704.08205795 231.25714111 C703.43294232 224.27704053 701.75733914 217.75494558 699.89455795 211.00714111 C699.42264023 209.28394653 699.42264023 209.28394653 698.94118881 207.52593994 C697.99729808 204.10038035 697.04217229 200.67818545 696.08205795 197.25714111 C695.69243881 195.86084473 695.69243881 195.86084473 695.29494858 194.43634033 C687.86316875 163.11757851 687.86316875 163.11757851 670.08205795 138.25714111 C657.73360732 133.1628958 642.50711618 132.94943666 629.33205795 132.19464111 C628.62675949 132.15422699 627.92146103 132.11381287 627.19478989 132.07217407 C579.65656788 129.41121484 532.03528369 130.19823263 484.47216225 131.70485306 C477.80064462 131.91579379 471.12892465 132.12006121 464.45705795 132.31964111 C463.70407299 132.34219215 462.95108803 132.36474319 462.17528534 132.3879776 C432.24272859 133.27502087 402.31806849 133.45078907 372.37344742 133.44517136 C368.95419313 133.4446502 365.53494234 133.44579974 362.11568832 133.44711304 C340.51458001 133.45032002 318.93546081 133.34448055 297.3437767 132.68292236 C283.77601295 132.26863195 270.28891831 132.33121733 256.72254181 132.75860977 C235.70478657 133.42054796 214.69248091 133.45424863 193.66558456 133.44581985 C190.33712287 133.44462042 187.00866428 133.44518083 183.68020248 133.4458313 C154.63509277 133.44461723 125.6149095 133.17418969 96.58205795 132.31964111 C95.81517277 132.29709007 95.04828758 132.27453903 94.25816345 132.25130463 C87.4908584 132.05135405 80.72371877 131.84606261 73.95667648 131.63742065 C-10.42499037 128.40959379 -10.42499037 128.40959379 -94.48044205 134.63214111 Z M-170.91794205 356.25714111 C-173.42291523 370.54912679 -175.91012904 384.84413212 -178.37973404 399.14227295 C-178.72640279 401.14861147 -179.07345908 403.15488308 -179.4209938 405.16107178 C-180.34996977 410.52449133 -181.27085816 415.88918271 -182.18011856 421.25598145 C-182.45264098 422.85857828 -182.72743651 424.46079123 -183.00513077 426.0625 C-184.76063776 436.20393201 -186.20848518 446.37000814 -187.50806046 456.57888794 C-190.53554696 480.35644131 -194.2803437 504.00028361 -198.10513687 527.66110229 C-200.01713627 539.49371896 -201.90406655 551.33034918 -203.7890358 563.16729736 C-203.9728405 564.32111845 -204.1566452 565.47493954 -204.34601974 566.6637249 C-207.28310564 585.11541879 -210.14550989 603.57397576 -212.79294205 622.06964111 C-212.94179855 623.09474792 -213.09065506 624.11985474 -213.24402237 625.17602539 C-215.08798432 637.92912282 -216.51147005 650.69531676 -217.75429153 663.52056885 C-218.64008944 672.62766403 -219.62702676 681.71866635 -220.6796608 690.80792236 C-227.87414014 753.14918474 -233.49966491 815.62576946 -238.21917343 878.20182037 C-238.41379298 880.76499706 -238.61236043 883.3278385 -238.81204605 885.890625 C-244.77105031 938.14268982 -244.77105031 938.14268982 -233.91794205 988.25714111 C-231.55237264 988.78383176 -231.55237264 988.78383176 -228.63107681 989.01861572 C-227.48300049 989.1343544 -226.33492416 989.25009308 -225.15205765 989.36933899 C-223.87983856 989.48571213 -222.60761948 989.60208527 -221.2968483 989.72198486 C-219.95053643 989.85027991 -218.60422813 989.9786123 -217.25792313 990.10697937 C-200.66331575 991.65416925 -184.02733306 992.65290244 -167.39328384 993.66436768 C-164.02821105 993.8702538 -160.66348128 994.08145219 -157.29874706 994.29278851 C-147.30269956 994.92045854 -137.30538544 995.52478745 -127.30708313 996.11538315 C-124.98970418 996.25288316 -122.67245465 996.39239263 -120.35522842 996.53244019 C-94.3611927 998.09650856 -68.35860529 998.99872812 -42.32876205 999.72585678 C-38.9369205 999.82086012 -35.54513675 999.91776154 -32.15335464 1000.01486206 C18.58443761 1001.45670518 69.32621462 1001.97152764 120.08205795 1002.25714111 C122.30190825 991.39751977 124.48190427 980.55206865 126.16018295 969.59307861 C126.41873314 967.9415403 126.41873314 967.9415403 126.68250656 966.25663757 C127.23612703 962.71571485 127.78405842 959.17393762 128.33205795 955.63214111 C128.92319849 951.84397874 129.5158838 948.05605991 130.10859299 944.2681427 C130.51046095 941.69907674 130.91183763 939.12993387 131.31272507 936.56071472 C133.42712385 923.01592587 135.59609237 909.4800225 137.77184677 895.94497681 C139.4291774 885.63356546 141.08103692 875.32183637 142.66799545 864.99932861 C159.81115785 753.69774482 159.81115785 753.69774482 184.08205795 723.25714111 C184.73303452 722.40378174 185.38401108 721.55042236 186.0547142 720.67120361 C189.24067477 716.87751647 193.09564673 714.16282072 197.08205795 711.25714111 C197.77299545 710.75053955 198.46393295 710.24393799 199.17580795 709.72198486 C222.49651971 693.40618839 249.85084837 688.06920976 277.73000717 688.07183838 C280.31237045 688.06965774 282.89430144 688.05146491 285.4765892 688.03253174 C317.84750966 687.91691367 349.25149083 697.20788763 373.33205795 719.32354736 C396.69105403 743.38896469 403.42169629 779.84632364 408.89455795 811.62823486 C409.2494383 813.68026821 409.60450801 815.73226882 409.9597435 817.78424072 C410.14394852 818.84867401 410.32815353 819.9131073 410.51794052 821.00979614 C411.26052084 825.28446368 412.01322299 829.5573227 412.76559067 833.83027649 C418.71835045 867.68911654 424.27894315 901.60363619 429.63985443 935.56106567 C430.14188506 938.7402148 430.64482436 941.91921919 431.14788437 945.09820557 C431.94927464 950.16550979 432.74734338 955.23332688 433.54274368 960.30157471 C433.83692612 962.17465889 434.13183473 964.0476292 434.42755508 965.92047119 C436.01558223 975.98753927 437.48934136 986.04517679 438.65552902 996.17059326 C438.98998341 999.28656221 438.98998341 999.28656221 440.08205795 1002.25714111 C528.0800299 1001.78211997 615.96911614 1000.41353484 703.83205795 995.25714111 C704.91134819 995.19399845 705.99063843 995.13085579 707.10263443 995.06579971 C751.16056191 992.50097258 751.16056191 992.50097258 795.08205795 988.25714111 C795.90450042 984.32165197 796.71313685 980.38344172 797.51955795 976.44464111 C797.74965561 975.34442627 797.97975327 974.24421143 798.21682358 973.11065674 C798.5503685 971.47193604 798.5503685 971.47193604 798.8906517 969.80010986 C799.19700546 968.31547241 799.19700546 968.31547241 799.50954819 966.80084229 C801.11421691 956.86831928 801.29725423 946.93844573 801.29299545 936.89385986 C801.29345242 936.16402075 801.29390938 935.43418163 801.29438019 934.68222618 C801.27722559 917.54315004 800.15049761 900.51042233 798.88082504 883.42590332 C798.59080579 879.49327483 798.31330974 875.55976622 798.03518295 871.62628174 C797.70477047 866.95972151 797.37308129 862.29327742 797.03362656 857.62736511 C796.43075471 849.32301048 795.87387061 841.01819322 795.37203598 832.70697021 C794.16011957 812.7875779 792.34327077 792.93460739 790.45705795 773.06964111 C790.32632133 771.68800907 790.32632133 771.68800907 790.19294357 770.27846527 C784.16717527 706.62671594 775.99356069 643.35719482 767.04189301 580.05471134 C766.37097908 575.30984128 765.70580153 570.56421674 765.04494858 565.81793213 C762.42674992 547.11023009 759.47486509 528.45856738 756.49834824 509.80529022 C755.93198774 506.25351736 755.36736475 502.70146915 754.80275345 499.14941788 C751.79278149 480.2134365 748.76773811 461.2798619 745.73830795 442.34698486 C745.60406418 441.50799337 745.4698204 440.66900188 745.33150864 439.80458641 C744.05091834 431.80189403 742.76968744 423.79930571 741.4852562 415.79722881 C738.30099949 395.95818764 735.1673724 376.11182355 732.08205795 356.25714111 C719.07220792 356.06183177 706.11452002 356.59960718 693.11980247 357.18312073 C689.30512561 357.35438005 685.49027904 357.52129738 681.67536545 357.68719482 C674.26698122 358.01009723 666.85880445 358.33755542 659.45066452 358.666008 C649.36651022 359.11296947 639.28223692 359.55704886 629.19774055 359.99623108 C625.45938802 360.16003692 621.721202 360.32731828 617.98301315 360.49481201 C615.67008773 360.59608489 613.35715573 360.69720758 611.04421616 360.79815674 C610.02205505 360.84491043 608.99989395 360.89166412 607.94675827 360.93983459 C601.66596017 361.20968438 595.40431495 361.29420264 589.11773682 361.25689793 C583.80899194 361.25732321 578.50779444 361.4668044 573.2031517 361.65948486 C570.67809922 361.74587332 568.15303345 361.83187433 565.62795639 361.9175415 C564.29393065 361.9632678 562.9599056 362.00901392 561.6258812 362.05477905 C542.04712094 362.72354126 522.47148501 363.30001882 502.8828392 363.57745361 C501.70874654 363.59409781 501.70874654 363.59409781 500.51093483 363.61107826 C492.86191617 363.71774885 485.21280565 363.81190286 477.56346035 363.89173126 C474.73864966 363.92181165 471.9138823 363.9551637 469.08911324 363.98890305 C467.14887717 364.01047809 465.20858225 364.02653877 463.26829147 364.04244995 C462.11145355 364.05601532 460.95461563 364.06958069 459.76272202 364.08355713 C458.25358231 364.09782494 458.25358231 364.09782494 456.71395493 364.11238098 C454.35299574 364.24223894 452.34080285 364.5854723 450.08205795 365.25714111 C449.88976193 381.5712395 449.7297432 397.85217188 450.95705795 414.13214111 C451.07476547 415.71249146 451.07476547 415.71249146 451.19485092 417.32476807 C451.70744194 423.46946521 452.59769581 429.47453855 453.65432358 435.54718018 C456.03697937 450.64277341 453.01364278 465.24438476 445.08205795 478.25714111 C444.10814219 479.28256204 443.11377936 480.28990229 442.08205795 481.25714111 C441.75205795 481.91714111 441.42205795 482.57714111 441.08205795 483.25714111 C439.98651784 485.44822134 438.87507693 486.59693835 437.08205795 488.25714111 C433.29029313 491.73755167 433.29029313 491.73755167 431.08205795 496.25714111 C428.7890892 497.29620361 428.7890892 497.29620361 426.08205795 498.25714111 C424.64014086 499.04073377 423.20279679 499.83278588 421.76955795 500.63214111 C404.10160268 509.45303138 385.59102292 508.88945994 367.08205795 503.25714111 C352.64132054 497.93802627 341.03893469 484.62860548 334.26955795 471.19464111 C321.47313851 439.97313663 324.29596183 399.12592306 323.08205795 366.25714111 C294.70205795 366.25714111 266.32205795 366.25714111 237.08205795 366.25714111 C236.50762697 381.67597784 236.50762697 381.67597784 235.94582748 397.09527588 C235.25505053 415.47272076 234.32890458 433.91907003 231.20705795 452.06964111 C231.05881577 453.02677002 230.91057358 453.98389893 230.7578392 454.97003174 C227.85969564 472.2764256 219.07588072 486.66557916 205.08205795 497.25714111 C188.03654649 507.11798155 169.68937047 509.98522268 150.60110092 504.97027588 C145.72601548 503.588214 141.50625166 501.68611021 137.08205795 499.25714111 C136.09205795 499.25714111 135.10205795 499.25714111 134.08205795 499.25714111 C134.08205795 498.59714111 134.08205795 497.93714111 134.08205795 497.25714111 C133.09205795 496.92714111 132.10205795 496.59714111 131.08205795 496.25714111 C130.42205795 495.26714111 129.76205795 494.27714111 129.08205795 493.25714111 C128.09205795 493.25714111 127.10205795 493.25714111 126.08205795 493.25714111 C125.85131577 492.71960205 125.62057358 492.18206299 125.3828392 491.62823486 C124.02905984 489.16053494 122.39443225 487.10721293 120.60354233 484.94390869 C115.07441845 478.21161345 111.56669981 471.68756348 109.08205795 463.25714111 C108.83842514 462.45147705 108.59479233 461.64581299 108.3437767 460.81573486 C107.02346615 455.50754752 106.88738613 450.19953 106.83205795 444.75714111 C106.82263168 444.069104 106.81320541 443.38106689 106.8034935 442.67218018 C106.83321643 437.914268 107.57957573 433.56262649 108.57424545 428.91876221 C111.56581841 413.2388928 111.21333976 396.72371245 111.13674545 380.81573486 C111.13234157 379.19818223 111.12835186 377.58062842 111.12478256 375.96307373 C111.11529346 372.06106612 111.10027699 368.15911732 111.08205795 364.25714111 C110.35198532 364.25127487 109.62191269 364.24540863 108.86971664 364.23936462 C25.68597871 363.54785796 -57.57386527 361.48217708 -140.64450455 356.94952393 C-150.75225938 356.40061097 -160.79351202 356.12987872 -170.91794205 356.25714111 Z " fill="#101010" transform="translate(743.9179420471191,459.74285888671875)"/>
</svg>
