<?xml version="1.0" encoding="UTF-8"?>
<!-- Generator: visioncortex VTracer 0.6.12 -->
<svg version="1.1" xmlns="http://www.w3.org/2000/svg" width="2048" height="2048">
<path d="M0,0 L94,0 L172,2 L293,2 L302,1 L342,1 L355,2 L473,2 L551,0 L643,0 L689,2 L716,5 L741,10 L762,17 L778,25 L794,35 L804,44 L813,53 L822,64 L831,78 L839,94 L847,114 L854,133 L863,161 L872,197 L881,233 L893,286 L901,329 L910,378 L921,447 L926,483 L936,547 L945,607 L954,678 L960,742 L967,818 L974,913 L975,930 L975,1048 L973,1059 L969,1070 L963,1080 L952,1093 L941,1100 L930,1105 L910,1109 L891,1113 L856,1118 L786,1125 L752,1128 L709,1131 L653,1135 L579,1138 L526,1139 L497,1139 L442,1138 L424,1137 L409,1133 L390,1124 L384,1119 L384,1117 L380,1115 L370,1099 L365,1084 L361,1067 L355,1031 L347,984 L338,927 L332,891 L329,868 L323,835 L322,835 L318,857 L311,897 L303,947 L299,978 L293,1015 L287,1047 L282,1075 L276,1095 L269,1109 L263,1117 L255,1124 L233,1134 L221,1137 L202,1138 L148,1139 L118,1139 L65,1138 L-8,1135 L-89,1129 L-119,1127 L-193,1120 L-226,1116 L-256,1111 L-281,1106 L-290,1103 L-305,1095 L-317,1083 L-326,1066 L-329,1056 L-330,1049 L-331,976 L-331,955 L-329,913 L-323,831 L-320,787 L-313,712 L-307,660 L-298,593 L-293,559 L-289,528 L-275,440 L-263,366 L-259,340 L-250,295 L-238,241 L-234,225 L-230,205 L-221,171 L-212,142 L-204,119 L-200,106 L-193,90 L-182,71 L-170,55 L-159,43 L-145,32 L-132,24 L-112,15 L-96,10 L-72,5 L-44,2 Z M41,130 L-7,131 L-41,133 L-61,136 L-70,140 L-74,145 L-82,161 L-90,186 L-100,223 L-101,231 L-94,232 L-3,236 L32,237 L96,238 L189,239 L464,239 L559,238 L616,237 L693,234 L738,232 L746,231 L745,223 L738,197 L732,177 L724,156 L717,142 L712,138 L701,135 L686,133 L652,131 L601,130 L541,131 L466,133 L360,133 L320,132 L281,133 L179,133 L103,131 Z M-129,356 L-137,402 L-144,444 L-149,482 L-166,589 L-174,645 L-177,675 L-185,747 L-193,836 L-199,918 L-199,950 L-197,969 L-193,986 L-192,988 L-162,991 L-83,996 L-46,998 L60,1001 L162,1002 L166,982 L175,925 L183,875 L189,837 L196,800 L202,774 L210,750 L218,734 L226,723 L230,718 L239,711 L248,705 L262,698 L284,691 L293,689 L303,688 L342,688 L356,690 L380,697 L399,706 L413,717 L421,726 L432,744 L438,758 L445,782 L449,801 L453,824 L464,888 L479,983 L481,999 L482,1002 L587,1001 L690,998 L793,992 L828,989 L837,988 L842,963 L843,952 L843,918 L838,844 L836,813 L828,728 L820,660 L808,573 L804,545 L791,463 L779,388 L774,356 L758,356 L641,361 L628,361 L564,363 L496,364 L492,365 L492,399 L494,426 L496,438 L496,453 L493,466 L487,478 L484,481 L482,485 L479,488 L474,493 L473,496 L468,498 L458,503 L442,507 L426,507 L409,503 L401,499 L393,493 L388,488 L379,476 L374,465 L370,446 L367,414 L365,366 L279,366 L277,416 L275,439 L271,463 L267,473 L262,482 L257,488 L252,493 L247,497 L235,503 L225,506 L218,507 L203,507 L187,503 L179,499 L176,499 L176,497 L173,496 L171,493 L168,493 L166,489 L156,476 L151,463 L149,453 L149,436 L151,426 L153,399 L153,364 L77,363 L-23,360 L-93,357 L-113,356 Z " fill="#101010" transform="translate(702,460)"/>
</svg>
