<?xml version="1.0" encoding="UTF-8"?>
<!-- Generator: visioncortex VTracer 0.6.12 -->
<svg version="1.1" xmlns="http://www.w3.org/2000/svg" width="2048" height="2048">
<path d="M0,0 L17,0 L47,2 L79,7 L108,13 L134,21 L156,30 L179,41 L196,51 L214,63 L226,72 L236,80 L249,91 L255,96 L255,98 L259,100 L282,123 L282,125 L284,125 L291,133 L304,148 L315,161 L328,178 L328,180 L331,181 L347,204 L367,234 L375,248 L387,269 L399,292 L409,311 L417,326 L426,345 L429,351 L429,353 L456,342 L507,322 L559,302 L603,286 L652,270 L689,260 L718,254 L738,251 L760,249 L798,249 L817,251 L841,256 L865,264 L888,275 L895,279 L908,288 L922,299 L934,310 L943,319 L951,329 L961,342 L971,357 L985,382 L1000,411 L1013,438 L1016,447 L1045,435 L1067,426 L1076,419 L1087,414 L1109,409 L1126,407 L1145,407 L1164,409 L1184,414 L1203,422 L1220,431 L1233,440 L1247,451 L1258,462 L1267,473 L1275,484 L1284,499 L1292,516 L1298,532 L1304,555 L1307,574 L1308,597 L1307,617 L1303,641 L1297,661 L1289,680 L1280,696 L1276,702 L1274,702 L1272,706 L1262,714 L1252,720 L1238,725 L1229,728 L1121,771 L1081,787 L973,830 L918,852 L833,886 L726,929 L688,944 L593,982 L515,1013 L407,1056 L380,1067 L315,1093 L235,1125 L167,1152 L59,1195 L45,1202 L41,1202 L41,1204 L32,1207 L13,1211 L-1,1211 L-9,1209 L-27,1202 L-35,1196 L-35,1194 L-40,1192 L-51,1186 L-64,1176 L-75,1166 L-80,1161 L-87,1154 L-100,1137 L-111,1121 L-121,1104 L-129,1087 L-135,1069 L-139,1051 L-140,1045 L-141,1028 L-141,1006 L-142,995 L-141,984 L-132,957 L-121,931 L-114,917 L-107,906 L-102,899 L-91,890 L-80,884 L-56,874 L-53,874 L-66,840 L-78,804 L-84,783 L-88,762 L-90,741 L-90,716 L-87,690 L-81,666 L-76,652 L-68,636 L-62,625 L-55,614 L-43,598 L-31,584 L-7,560 L4,551 L20,538 L39,525 L53,516 L74,504 L97,492 L125,479 L173,459 L209,444 L254,425 L299,406 L309,402 L311,402 L293,366 L283,347 L274,330 L261,307 L250,289 L234,266 L220,248 L211,237 L199,223 L188,211 L183,206 L183,204 L180,203 L175,198 L163,186 L152,177 L140,168 L126,159 L110,150 L91,142 L72,136 L47,131 L27,129 L-8,129 L-36,132 L-60,136 L-92,144 L-128,156 L-150,165 L-165,172 L-181,180 L-195,188 L-203,192 L-234,213 L-238,216 L-240,216 L-241,219 L-249,225 L-251,225 L-252,228 L-257,232 L-259,232 L-260,235 L-268,242 L-283,257 L-284,259 L-286,259 L-288,263 L-299,276 L-317,303 L-328,323 L-336,342 L-345,369 L-353,401 L-356,423 L-357,438 L-357,553 L-358,857 L-358,894 L-359,1214 L-360,1553 L-360,1575 L-361,1617 L-365,1631 L-369,1639 L-379,1652 L-387,1659 L-397,1665 L-408,1669 L-424,1671 L-437,1670 L-452,1665 L-459,1660 L-463,1658 L-463,1656 L-467,1654 L-472,1649 L-475,1647 L-475,1644 L-477,1644 L-484,1631 L-488,1616 L-488,1307 L-487,989 L-486,657 L-486,449 L-484,412 L-480,383 L-474,354 L-465,322 L-455,293 L-443,266 L-431,243 L-419,224 L-408,208 L-398,195 L-390,185 L-377,170 L-373,165 L-371,165 L-369,161 L-359,151 L-357,151 L-356,148 L-348,141 L-344,139 L-343,136 L-337,132 L-332,127 L-318,116 L-302,104 L-281,90 L-259,76 L-251,72 L-235,63 L-212,52 L-192,43 L-158,30 L-130,21 L-99,13 L-63,6 L-34,2 Z M773,376 L744,379 L718,384 L685,393 L642,407 L591,426 L542,445 L447,483 L398,503 L357,520 L314,538 L260,561 L219,578 L183,593 L154,606 L131,618 L113,629 L96,641 L87,648 L73,660 L63,670 L54,681 L45,695 L41,704 L38,717 L38,741 L42,763 L54,799 L64,824 L65,826 L75,823 L125,803 L155,791 L188,778 L296,735 L403,692 L449,674 L556,631 L659,590 L767,547 L874,504 L898,495 L896,489 L880,456 L868,434 L859,419 L850,407 L836,393 L824,385 L810,380 L797,377 L778,376 Z M1134,535 L1124,541 L1016,584 L976,600 L868,643 L803,669 L733,697 L690,714 L582,757 L475,800 L439,814 L332,857 L259,886 L151,929 L76,959 L1,989 L-2,991 L-10,1010 L-13,1019 L-13,1031 L-8,1045 L1,1059 L11,1072 L14,1075 L25,1072 L36,1067 L50,1062 L62,1057 L77,1051 L185,1008 L222,993 L329,950 L340,946 L350,942 L360,938 L370,934 L384,928 L398,923 L409,918 L425,912 L533,869 L600,842 L690,806 L717,795 L722,793 L738,787 L748,783 L758,779 L768,775 L778,771 L788,767 L801,762 L812,757 L826,752 L838,747 L946,704 L1053,661 L1083,649 L1148,623 L1158,619 L1168,615 L1178,611 L1180,607 L1180,587 L1177,573 L1172,560 L1166,551 L1158,543 L1146,536 L1143,535 Z " fill="#101010" transform="translate(663,96)"/>
<path d="M0,0 L14,0 L30,4 L42,10 L51,17 L51,19 L55,21 L55,23 L57,23 L66,38 L74,56 L81,70 L94,98 L102,115 L112,137 L120,153 L133,181 L145,207 L147,212 L149,222 L149,239 L145,254 L139,266 L129,278 L125,279 L124,282 L114,288 L101,293 L89,294 L78,294 L70,293 L61,290 L47,282 L42,278 L42,276 L38,274 L38,272 L35,271 L29,262 L16,234 L4,208 L-4,192 L-17,164 L-33,130 L-46,102 L-52,89 L-56,76 L-57,57 L-53,41 L-46,27 L-43,23 L-41,23 L-39,19 L-35,15 L-33,15 L-33,13 L-22,6 L-11,2 Z " fill="#101010" transform="translate(1818,1242)"/>
<path d="M0,0 L16,0 L29,3 L37,7 L44,11 L53,18 L61,28 L69,44 L108,142 L132,202 L136,211 L139,227 L139,242 L132,263 L126,272 L124,272 L124,275 L122,275 L122,277 L120,277 L120,279 L118,279 L118,281 L108,288 L98,293 L86,296 L64,296 L46,290 L36,283 L34,282 L34,280 L30,278 L24,271 L19,263 L14,253 L9,239 L4,228 L-15,180 L-52,87 L-56,72 L-56,55 L-53,43 L-49,34 L-48,32 L-46,32 L-45,27 L-43,27 L-41,22 L-39,22 L-37,18 L-35,18 L-35,16 L-33,16 L-33,14 L-20,6 L-9,2 Z " fill="#101010" transform="translate(1610,1375)"/>
<path d="M0,0 L16,0 L28,3 L45,11 L50,15 L50,17 L54,19 L55,22 L57,22 L61,27 L61,30 L63,30 L72,50 L78,62 L90,90 L95,100 L110,135 L116,147 L130,180 L133,187 L136,197 L137,204 L137,217 L134,229 L126,246 L124,246 L122,251 L117,256 L115,256 L115,258 L113,258 L113,260 L103,266 L87,272 L81,273 L66,273 L53,270 L44,266 L35,261 L35,259 L31,258 L31,256 L28,255 L28,253 L26,253 L26,251 L24,251 L23,247 L21,247 L15,236 L2,207 L-9,183 L-20,158 L-36,122 L-50,91 L-54,80 L-56,64 L-54,48 L-50,36 L-48,32 L-46,32 L-44,26 L-41,25 L-40,21 L-38,21 L-37,18 L-35,18 L-35,16 L-33,16 L-33,14 L-22,7 L-13,3 Z " fill="#101010" transform="translate(1392,1357)"/>
<path d="M0,0 L10,0 L27,3 L33,5 L33,7 L38,8 L47,14 L53,19 L53,21 L56,22 L63,32 L73,55 L93,104 L109,143 L127,187 L130,198 L131,211 L129,224 L126,236 L119,248 L117,248 L116,252 L113,255 L111,255 L110,258 L97,267 L87,271 L80,273 L63,274 L53,273 L44,270 L34,265 L26,259 L19,253 L12,243 L6,231 L-12,187 L-30,143 L-49,97 L-54,84 L-56,76 L-57,63 L-54,44 L-50,34 L-48,34 L-47,30 L-45,26 L-43,26 L-41,22 L-39,19 L-37,19 L-36,16 L-22,7 L-13,3 Z " fill="#101010" transform="translate(1684,925)"/>
<path d="M0,0 L10,1 L25,6 L37,14 L44,20 L46,25 L48,25 L56,39 L73,80 L91,123 L104,154 L116,183 L119,192 L120,199 L120,220 L116,233 L109,245 L100,255 L91,262 L86,265 L82,265 L82,267 L73,270 L63,271 L48,271 L33,267 L21,261 L18,259 L18,257 L13,255 L6,247 L1,240 L-10,215 L-22,186 L-37,150 L-50,118 L-56,105 L-63,88 L-65,82 L-67,73 L-67,55 L-64,43 L-61,35 L-59,35 L-57,29 L-50,20 L-48,20 L-46,16 L-37,9 L-32,8 L-32,6 L-20,2 L-15,1 Z " fill="#101010" transform="translate(1249,1590)"/>
<path d="M0,0 L14,0 L32,4 L47,12 L47,14 L51,16 L52,19 L55,20 L55,22 L58,23 L66,36 L78,65 L91,97 L96,110 L108,140 L124,180 L127,189 L129,205 L128,216 L125,229 L119,241 L117,244 L115,244 L113,249 L110,250 L109,253 L107,253 L107,255 L95,263 L87,266 L78,269 L65,270 L56,269 L40,265 L35,263 L35,261 L31,260 L25,256 L19,251 L19,249 L16,248 L8,235 L-2,212 L-13,184 L-45,104 L-52,86 L-55,74 L-56,63 L-54,47 L-49,35 L-42,24 L-38,19 L-27,10 L-15,4 Z " fill="#101010" transform="translate(973,1611)"/>
<path d="M0,0 L11,1 L19,3 L36,10 L36,12 L40,13 L40,15 L44,17 L46,18 L46,20 L48,20 L48,22 L50,22 L57,32 L64,48 L68,56 L73,67 L80,84 L83,91 L93,115 L98,126 L103,139 L109,155 L114,169 L119,190 L120,206 L117,220 L111,235 L109,235 L107,240 L105,243 L103,243 L101,247 L98,250 L96,250 L96,252 L87,258 L74,263 L63,265 L47,265 L32,261 L21,255 L17,253 L12,248 L8,244 L8,242 L6,242 L-2,229 L-6,219 L-10,203 L-24,167 L-41,127 L-52,102 L-59,85 L-62,74 L-63,62 L-61,50 L-57,37 L-54,33 L-49,24 L-47,24 L-45,20 L-35,11 L-23,5 L-11,1 Z " fill="#101010" transform="translate(1480,1058)"/>
<path d="M0,0 L18,0 L33,4 L44,10 L49,13 L49,15 L53,17 L53,19 L55,19 L55,21 L57,21 L64,31 L72,47 L90,86 L105,119 L123,158 L131,177 L132,182 L133,188 L133,206 L130,218 L124,230 L117,239 L107,248 L101,252 L83,259 L70,260 L62,260 L46,256 L33,249 L29,246 L29,244 L25,242 L17,233 L9,218 L-6,185 L-23,148 L-39,113 L-50,88 L-54,76 L-55,66 L-55,57 L-52,43 L-44,27 L-38,19 L-36,19 L-36,17 L-32,14 L-30,14 L-30,12 L-15,4 Z " fill="#101010" transform="translate(842,1310)"/>
<path d="M0,0 L14,0 L29,4 L43,11 L53,20 L57,24 L62,31 L74,58 L90,97 L108,141 L121,172 L125,187 L125,203 L122,215 L117,227 L109,238 L98,248 L82,256 L74,258 L54,259 L39,255 L23,247 L18,243 L18,241 L14,239 L7,231 L-3,213 L-7,206 L-10,197 L-13,185 L-35,131 L-50,95 L-56,79 L-57,68 L-57,58 L-55,45 L-50,33 L-39,18 L-34,14 L-32,14 L-32,12 L-26,10 L-26,8 L-20,7 L-20,5 L-12,2 Z " fill="#101010" transform="translate(1114,1289)"/>
<path d="M0,0 L16,1 L28,4 L41,11 L51,20 L59,30 L65,42 L82,83 L102,132 L113,159 L117,175 L117,193 L115,202 L111,212 L106,219 L105,222 L103,222 L101,226 L97,230 L95,230 L95,232 L83,240 L75,243 L69,245 L55,247 L43,246 L31,243 L19,237 L10,230 L5,225 L5,223 L3,223 L-5,210 L-20,173 L-35,137 L-46,110 L-57,83 L-59,69 L-59,56 L-56,43 L-49,29 L-44,22 L-42,22 L-41,19 L-39,19 L-39,17 L-37,17 L-37,15 L-25,7 L-17,4 Z " fill="#101010" transform="translate(1283,1074)"/>
<path d="M0,0 L19,0 L30,3 L42,8 L51,14 L54,17 L54,19 L57,20 L61,25 L76,53 L93,86 L103,105 L117,132 L127,151 L131,159 L133,170 L134,181 L132,193 L129,203 L124,212 L116,223 L111,227 L109,227 L108,230 L91,239 L82,241 L75,242 L63,242 L49,239 L33,231 L28,227 L28,225 L24,223 L22,219 L19,218 L14,209 L2,187 L-17,150 L-27,131 L-39,108 L-47,93 L-52,80 L-54,68 L-54,57 L-50,41 L-44,29 L-40,23 L-38,23 L-37,20 L-35,20 L-34,17 L-32,17 L-31,14 L-25,10 L-17,5 L-13,4 L-7,2 Z " fill="#101010" transform="translate(1537,1679)"/>
</svg>
