<?xml version="1.0" encoding="UTF-8"?>
<!-- Generator: visioncortex VTracer 0.6.12 -->
<svg version="1.1" xmlns="http://www.w3.org/2000/svg" width="2048" height="2048">
<path d="M0,0 L28,0 L34,4 L48,16 L59,25 L69,34 L80,43 L95,56 L109,68 L122,80 L130,87 L139,96 L147,103 L154,109 L154,111 L158,113 L171,126 L179,133 L195,148 L212,164 L224,175 L233,184 L241,197 L246,211 L247,222 L247,234 L240,256 L238,256 L237,261 L235,261 L235,264 L233,264 L231,269 L229,269 L229,271 L227,271 L227,273 L211,285 L198,297 L190,304 L179,314 L171,321 L160,331 L152,338 L139,350 L129,359 L121,366 L110,376 L102,383 L91,393 L83,400 L80,403 L80,468 L97,455 L113,442 L124,434 L139,422 L156,409 L170,398 L181,390 L190,385 L203,381 L221,380 L236,383 L252,391 L259,396 L259,398 L262,399 L262,401 L264,401 L266,406 L268,406 L274,416 L277,424 L281,444 L280,457 L276,470 L271,480 L264,489 L256,497 L240,509 L224,522 L208,534 L198,542 L181,555 L165,568 L149,580 L133,593 L121,602 L107,613 L93,624 L80,634 L79,670 L84,672 L98,681 L116,693 L130,702 L144,711 L158,720 L173,730 L187,739 L201,748 L215,757 L227,765 L231,766 L259,750 L276,740 L300,726 L301,690 L304,523 L307,510 L310,501 L314,493 L316,489 L318,489 L320,485 L325,480 L336,471 L350,465 L361,463 L371,462 L385,464 L397,468 L397,470 L402,471 L410,476 L410,478 L414,480 L417,483 L417,485 L420,486 L427,497 L432,510 L434,520 L434,575 L433,633 L432,649 L458,634 L478,622 L479,600 L481,548 L483,505 L485,452 L486,426 L488,412 L493,397 L499,387 L508,378 L515,372 L529,365 L538,361 L544,357 L557,353 L570,352 L578,352 L614,360 L716,384 L797,403 L813,407 L822,410 L833,416 L843,425 L851,434 L857,446 L860,458 L861,464 L861,478 L858,528 L856,564 L853,610 L850,664 L847,716 L846,732 L841,748 L835,759 L826,769 L823,772 L816,778 L803,784 L789,787 L748,787 L716,779 L654,762 L592,745 L547,733 L527,745 L503,759 L496,763 L500,766 L542,784 L588,804 L611,814 L626,822 L628,826 L632,828 L637,833 L642,839 L646,847 L650,858 L652,868 L652,883 L650,892 L646,903 L635,919 L631,921 L629,925 L624,927 L624,929 L621,929 L621,931 L609,936 L599,939 L583,940 L567,937 L543,927 L490,904 L453,888 L400,865 L365,850 L356,846 L352,847 L331,859 L321,865 L320,870 L319,907 L317,1041 L316,1073 L321,1075 L347,1090 L353,1094 L358,1093 L411,1070 L446,1055 L492,1035 L522,1022 L552,1009 L567,1003 L583,1000 L591,1000 L607,1003 L619,1008 L621,1009 L621,1011 L624,1011 L624,1013 L629,1015 L631,1019 L635,1021 L647,1039 L650,1048 L652,1059 L652,1072 L648,1088 L644,1097 L640,1104 L635,1109 L630,1114 L628,1114 L626,1118 L605,1129 L579,1140 L540,1157 L496,1176 L501,1180 L517,1189 L534,1199 L548,1207 L614,1189 L680,1171 L739,1155 L751,1153 L791,1153 L805,1157 L817,1163 L823,1168 L828,1173 L836,1182 L842,1194 L846,1210 L848,1244 L853,1328 L855,1365 L858,1411 L860,1446 L861,1466 L861,1476 L858,1491 L853,1502 L849,1508 L837,1521 L832,1525 L824,1529 L814,1533 L799,1536 L785,1540 L708,1558 L588,1586 L576,1588 L564,1588 L550,1585 L541,1581 L535,1577 L522,1572 L513,1566 L500,1554 L495,1547 L490,1535 L487,1524 L486,1510 L484,1458 L482,1411 L479,1337 L478,1318 L461,1308 L437,1294 L432,1291 L433,1313 L434,1369 L434,1423 L429,1439 L424,1448 L419,1455 L417,1455 L415,1459 L412,1462 L410,1462 L410,1464 L400,1470 L397,1470 L397,1472 L381,1477 L370,1478 L354,1476 L340,1471 L331,1465 L323,1459 L318,1453 L318,1451 L316,1451 L310,1439 L307,1430 L304,1417 L301,1250 L300,1214 L279,1202 L252,1186 L247,1188 L204,1217 L183,1231 L140,1260 L104,1284 L80,1300 L80,1306 L94,1317 L108,1328 L122,1339 L135,1349 L149,1360 L167,1374 L181,1385 L195,1396 L208,1406 L226,1420 L240,1431 L258,1445 L267,1454 L274,1465 L278,1475 L281,1491 L281,1498 L276,1520 L268,1534 L266,1534 L264,1539 L262,1539 L261,1542 L259,1542 L259,1544 L247,1552 L236,1557 L221,1560 L213,1560 L199,1558 L188,1554 L175,1546 L160,1534 L147,1524 L133,1513 L119,1502 L106,1492 L88,1478 L80,1472 L80,1537 L89,1546 L100,1555 L108,1563 L116,1570 L126,1579 L136,1588 L144,1595 L157,1607 L171,1619 L185,1632 L193,1639 L205,1650 L216,1659 L227,1667 L227,1669 L229,1669 L229,1671 L231,1671 L233,1676 L235,1676 L235,1679 L237,1679 L238,1684 L240,1684 L247,1706 L247,1724 L243,1738 L238,1748 L232,1757 L216,1773 L208,1780 L192,1795 L175,1811 L163,1822 L156,1829 L154,1829 L154,1831 L146,1838 L130,1853 L114,1868 L103,1877 L91,1888 L80,1897 L65,1910 L51,1922 L38,1933 L30,1939 L24,1940 L0,1940 L-6,1936 L-20,1924 L-31,1915 L-41,1906 L-52,1897 L-67,1884 L-81,1872 L-94,1860 L-102,1853 L-111,1844 L-119,1837 L-126,1831 L-126,1829 L-130,1827 L-143,1814 L-151,1807 L-167,1792 L-184,1776 L-196,1765 L-205,1756 L-213,1743 L-218,1729 L-219,1718 L-219,1706 L-212,1684 L-210,1684 L-209,1679 L-207,1679 L-207,1676 L-205,1676 L-203,1671 L-201,1671 L-201,1669 L-199,1669 L-199,1667 L-183,1655 L-170,1643 L-162,1636 L-151,1626 L-143,1619 L-132,1609 L-124,1602 L-111,1590 L-101,1581 L-93,1574 L-82,1564 L-74,1557 L-63,1547 L-55,1540 L-52,1537 L-52,1472 L-69,1485 L-85,1498 L-96,1506 L-111,1518 L-128,1531 L-142,1542 L-153,1550 L-162,1555 L-175,1559 L-193,1560 L-208,1557 L-224,1549 L-231,1544 L-231,1542 L-234,1541 L-234,1539 L-236,1539 L-238,1534 L-240,1534 L-246,1524 L-249,1516 L-253,1496 L-252,1483 L-248,1470 L-243,1460 L-236,1451 L-228,1443 L-212,1431 L-196,1418 L-180,1406 L-170,1398 L-153,1385 L-137,1372 L-121,1360 L-105,1347 L-93,1338 L-79,1327 L-65,1316 L-52,1306 L-52,1300 L-70,1288 L-103,1266 L-146,1237 L-170,1221 L-213,1192 L-222,1186 L-227,1188 L-255,1204 L-272,1214 L-273,1250 L-276,1417 L-279,1430 L-282,1439 L-286,1447 L-288,1451 L-290,1451 L-292,1455 L-297,1460 L-308,1469 L-322,1475 L-333,1477 L-343,1478 L-357,1476 L-369,1472 L-369,1470 L-374,1469 L-382,1464 L-382,1462 L-386,1460 L-389,1457 L-389,1455 L-392,1454 L-399,1443 L-404,1430 L-406,1420 L-406,1365 L-405,1307 L-404,1291 L-430,1306 L-450,1318 L-451,1340 L-453,1392 L-455,1435 L-457,1488 L-458,1514 L-460,1528 L-465,1543 L-471,1553 L-480,1562 L-487,1568 L-501,1575 L-510,1579 L-516,1583 L-529,1587 L-542,1588 L-550,1588 L-586,1580 L-688,1556 L-769,1537 L-785,1533 L-794,1530 L-805,1524 L-815,1515 L-823,1506 L-829,1494 L-832,1482 L-833,1476 L-833,1462 L-830,1412 L-828,1376 L-825,1330 L-822,1276 L-819,1224 L-818,1208 L-813,1192 L-807,1181 L-798,1171 L-795,1168 L-788,1162 L-775,1156 L-761,1153 L-720,1153 L-688,1161 L-626,1178 L-564,1195 L-519,1207 L-499,1195 L-475,1181 L-468,1177 L-472,1174 L-514,1156 L-560,1136 L-583,1126 L-598,1118 L-600,1114 L-604,1112 L-609,1107 L-614,1101 L-618,1093 L-622,1082 L-624,1072 L-624,1057 L-622,1048 L-618,1037 L-607,1021 L-603,1019 L-601,1015 L-596,1013 L-596,1011 L-593,1011 L-593,1009 L-581,1004 L-571,1001 L-555,1000 L-539,1003 L-515,1013 L-462,1036 L-425,1052 L-372,1075 L-337,1090 L-328,1094 L-324,1093 L-303,1081 L-290,1073 L-288,1073 L-289,1039 L-291,905 L-292,870 L-293,865 L-319,850 L-325,846 L-330,847 L-383,870 L-418,885 L-464,905 L-494,918 L-524,931 L-539,937 L-555,940 L-563,940 L-579,937 L-591,932 L-593,931 L-593,929 L-596,929 L-596,927 L-601,925 L-603,921 L-607,919 L-619,901 L-622,892 L-624,881 L-624,868 L-620,852 L-616,843 L-612,836 L-607,831 L-602,826 L-600,826 L-598,822 L-577,811 L-551,800 L-512,783 L-468,764 L-473,760 L-489,751 L-506,741 L-520,733 L-586,751 L-652,769 L-711,785 L-723,787 L-763,787 L-777,783 L-789,777 L-795,772 L-800,767 L-808,758 L-814,746 L-818,730 L-820,696 L-825,612 L-827,575 L-830,529 L-832,494 L-833,474 L-833,464 L-830,449 L-825,438 L-821,432 L-809,419 L-804,415 L-796,411 L-786,407 L-771,404 L-757,400 L-680,382 L-560,354 L-548,352 L-536,352 L-522,355 L-513,359 L-507,363 L-494,368 L-485,374 L-472,386 L-467,393 L-462,405 L-459,416 L-458,430 L-456,482 L-454,529 L-451,603 L-450,622 L-433,632 L-409,646 L-404,649 L-405,627 L-406,571 L-406,517 L-401,501 L-396,492 L-391,485 L-389,485 L-387,481 L-384,478 L-382,478 L-382,476 L-372,470 L-369,470 L-369,468 L-353,463 L-342,462 L-326,464 L-312,469 L-303,475 L-295,481 L-290,487 L-290,489 L-288,489 L-282,501 L-279,510 L-276,523 L-273,690 L-272,726 L-251,738 L-224,754 L-203,766 L-199,765 L-187,757 L-173,748 L-159,739 L-145,730 L-130,720 L-116,711 L-102,702 L-88,693 L-73,683 L-62,676 L-53,670 L-51,670 L-52,634 L-66,623 L-80,612 L-94,601 L-107,591 L-121,580 L-139,566 L-153,555 L-167,544 L-180,534 L-198,520 L-212,509 L-230,495 L-239,486 L-246,475 L-250,465 L-253,449 L-253,442 L-248,420 L-240,406 L-238,406 L-236,401 L-234,401 L-233,398 L-231,398 L-231,396 L-219,388 L-208,383 L-193,380 L-185,380 L-171,382 L-160,386 L-147,394 L-132,406 L-119,416 L-105,427 L-91,438 L-78,448 L-60,462 L-52,468 L-52,403 L-61,394 L-72,385 L-80,377 L-88,370 L-98,361 L-108,352 L-116,345 L-129,333 L-143,321 L-157,308 L-165,301 L-177,290 L-188,281 L-199,273 L-199,271 L-201,271 L-201,269 L-203,269 L-205,264 L-207,264 L-207,261 L-209,261 L-210,256 L-212,256 L-219,234 L-219,216 L-215,202 L-210,192 L-204,183 L-188,167 L-180,160 L-164,145 L-147,129 L-135,118 L-128,111 L-126,111 L-126,109 L-118,102 L-102,87 L-86,72 L-75,63 L-63,52 L-52,43 L-37,30 L-23,18 L-10,7 L-2,1 Z M13,157 L2,168 L-6,175 L-14,183 L-22,190 L-31,199 L-39,206 L-47,213 L-47,215 L-51,217 L-57,224 L-47,232 L-42,237 L-29,249 L-27,249 L-27,251 L-16,260 L-8,268 L0,275 L10,284 L15,286 L23,279 L34,269 L42,262 L53,252 L55,251 L55,249 L59,247 L72,235 L80,228 L85,223 L77,215 L75,215 L75,213 L67,206 L50,190 L33,174 L21,163 L15,157 Z M614,494 L613,497 L609,595 L609,615 L675,633 L719,645 L721,645 L725,581 L728,530 L728,521 L719,518 L651,502 L617,494 Z M-589,494 L-669,513 L-699,520 L-700,521 L-699,547 L-694,633 L-693,645 L-676,641 L-610,623 L-581,615 L-581,595 L-585,497 L-586,494 Z M13,782 L2,789 L-12,798 L-26,807 L-28,808 L-28,810 L-33,812 L-44,819 L-55,826 L-66,833 L-76,840 L-87,847 L-98,854 L-111,862 L-111,864 L-116,866 L-125,871 L-125,873 L-130,875 L-141,882 L-152,889 L-161,895 L-160,981 L-159,1044 L-158,1073 L-114,1102 L-104,1109 L-86,1121 L-71,1131 L-53,1143 L-14,1169 L13,1187 L18,1185 L62,1156 L78,1145 L90,1137 L108,1125 L123,1115 L135,1107 L178,1078 L186,1073 L187,1044 L189,909 L189,895 L174,885 L156,874 L153,873 L153,871 L141,864 L139,864 L139,862 L126,854 L112,845 L98,836 L89,830 L75,821 L61,812 L56,810 L56,808 L43,800 L26,789 L15,782 Z M-693,1295 L-697,1359 L-700,1410 L-700,1419 L-691,1422 L-623,1438 L-589,1446 L-586,1446 L-585,1443 L-581,1345 L-581,1325 L-647,1307 L-691,1295 Z M719,1295 L649,1314 L609,1325 L609,1345 L613,1443 L614,1446 L625,1444 L727,1420 L728,1419 L727,1393 L722,1307 L721,1295 Z M13,1654 L5,1661 L-6,1671 L-14,1678 L-25,1688 L-27,1689 L-27,1691 L-31,1693 L-44,1705 L-52,1712 L-57,1717 L-49,1725 L-47,1725 L-47,1727 L-39,1734 L-22,1750 L-5,1766 L7,1777 L13,1783 L17,1781 L26,1772 L34,1765 L42,1757 L50,1750 L59,1741 L67,1734 L75,1727 L75,1725 L79,1723 L85,1716 L75,1708 L70,1703 L57,1691 L55,1691 L55,1689 L44,1680 L36,1672 L28,1665 L18,1656 Z " fill="#101010" transform="translate(1010,54)"/>
</svg>
