<?xml version="1.0" encoding="UTF-8"?>
<!-- Generator: visioncortex VTracer 0.6.12 -->
<svg version="1.1" xmlns="http://www.w3.org/2000/svg" width="2048" height="2048">
<path d="M0,0 L52,0 L84,2 L93,4 L109,5 L149,12 L178,19 L202,26 L231,36 L256,46 L277,55 L294,64 L310,72 L331,84 L356,100 L374,113 L391,126 L408,140 L418,149 L426,156 L434,164 L440,169 L445,175 L450,180 L459,189 L459,191 L463,193 L468,199 L468,201 L470,201 L479,212 L492,228 L505,246 L521,270 L533,290 L546,314 L563,349 L576,380 L589,418 L597,448 L604,482 L609,515 L612,548 L613,572 L613,601 L611,634 L608,662 L604,688 L599,713 L593,737 L586,761 L577,787 L571,803 L563,822 L556,837 L542,865 L528,889 L512,914 L504,925 L490,944 L481,955 L470,968 L461,978 L460,980 L458,980 L456,984 L423,1017 L415,1024 L401,1036 L387,1047 L374,1057 L357,1069 L340,1080 L318,1093 L291,1107 L260,1122 L228,1135 L192,1147 L152,1157 L121,1163 L81,1168 L48,1170 L4,1170 L-26,1168 L-59,1164 L-87,1159 L-118,1152 L-143,1145 L-170,1136 L-198,1125 L-207,1121 L-232,1110 L-251,1100 L-277,1085 L-299,1071 L-310,1063 L-324,1053 L-342,1039 L-356,1027 L-359,1025 L-359,1023 L-363,1021 L-378,1007 L-401,984 L-401,982 L-404,981 L-413,970 L-423,959 L-431,949 L-441,936 L-454,918 L-465,901 L-477,881 L-491,856 L-504,830 L-517,799 L-527,772 L-536,744 L-543,716 L-549,687 L-554,653 L-557,617 L-557,553 L-554,517 L-549,483 L-544,458 L-535,423 L-526,394 L-515,365 L-502,335 L-494,320 L-486,304 L-473,281 L-462,264 L-454,252 L-441,234 L-430,220 L-419,207 L-410,196 L-396,181 L-368,153 L-360,146 L-345,133 L-328,120 L-315,110 L-285,90 L-267,79 L-251,70 L-228,58 L-197,44 L-168,33 L-134,22 L-98,13 L-67,7 L-36,3 Z M0,130 L-31,133 L-61,138 L-91,145 L-120,154 L-145,163 L-168,173 L-188,183 L-205,193 L-224,205 L-241,217 L-258,230 L-273,243 L-283,252 L-296,264 L-301,269 L-301,271 L-304,272 L-311,280 L-324,295 L-337,312 L-349,328 L-360,346 L-368,359 L-378,377 L-387,396 L-391,404 L-397,420 L-406,444 L-410,458 L-416,481 L-421,505 L-426,542 L-427,555 L-428,589 L-427,615 L-424,646 L-418,680 L-410,712 L-398,748 L-387,775 L-378,794 L-364,818 L-352,837 L-339,855 L-327,871 L-314,886 L-305,896 L-298,904 L-291,910 L-286,915 L-279,922 L-271,929 L-258,940 L-245,950 L-228,962 L-211,973 L-190,985 L-171,995 L-147,1006 L-123,1015 L-95,1024 L-74,1029 L-43,1035 L-10,1039 L6,1040 L50,1040 L84,1037 L120,1031 L153,1023 L189,1011 L215,1000 L240,988 L258,978 L279,965 L296,953 L309,943 L320,934 L334,922 L342,914 L350,907 L352,903 L356,901 L363,893 L375,880 L386,866 L399,849 L409,834 L417,821 L427,804 L439,781 L450,756 L457,738 L466,710 L473,681 L477,660 L481,629 L483,600 L483,570 L481,539 L477,509 L470,476 L461,444 L450,413 L439,389 L431,373 L422,356 L408,334 L396,317 L386,304 L377,293 L366,280 L361,274 L356,269 L342,255 L340,255 L339,252 L331,245 L316,232 L296,217 L282,207 L265,196 L249,187 L237,180 L216,170 L207,166 L200,163 L185,157 L167,151 L136,142 L111,137 L81,132 L53,130 Z " fill="#101010" transform="translate(995,435)"/>
<path d="M0,0 L23,0 L36,4 L50,11 L62,22 L65,27 L71,36 L75,47 L77,58 L77,74 L74,85 L69,97 L62,108 L53,119 L40,133 L33,141 L19,156 L10,166 L-1,178 L-10,188 L-22,202 L-35,216 L-42,224 L-50,231 L-64,238 L-75,241 L-85,242 L-93,242 L-104,240 L-117,235 L-126,229 L-140,215 L-145,206 L-150,194 L-152,180 L-152,171 L-149,156 L-142,142 L-133,131 L-122,119 L-115,111 L-106,101 L-99,93 L-85,78 L-78,70 L-67,58 L-56,46 L-45,33 L-39,24 L-31,16 L-22,9 L-10,3 Z " fill="#101010" transform="translate(1636,325)"/>
<path d="M0,0 L23,0 L36,4 L48,11 L63,25 L72,38 L84,51 L96,64 L107,76 L114,84 L126,97 L136,108 L143,116 L152,126 L161,137 L166,143 L172,156 L175,173 L175,183 L172,197 L168,206 L162,216 L148,230 L140,235 L130,239 L121,241 L112,242 L104,242 L90,239 L78,234 L70,228 L59,218 L52,210 L43,200 L31,186 L16,170 L9,162 L-3,149 L-14,137 L-25,125 L-32,117 L-41,105 L-49,91 L-53,78 L-54,70 L-54,55 L-51,43 L-44,29 L-40,25 L-37,20 L-26,10 L-11,3 Z " fill="#101010" transform="translate(389,325)"/>
<path d="M0,0 L13,1 L25,5 L42,15 L48,20 L48,22 L50,22 L57,30 L66,40 L76,51 L76,53 L78,53 L85,61 L87,65 L91,67 L98,74 L106,81 L116,90 L124,97 L134,106 L142,113 L145,116 L145,118 L147,118 L156,134 L160,147 L161,157 L161,167 L157,182 L153,192 L150,196 L148,196 L146,201 L142,206 L132,214 L120,220 L104,224 L87,224 L74,221 L63,215 L50,206 L36,193 L28,186 L14,174 L-3,158 L-14,147 L-21,139 L-33,126 L-42,116 L-51,105 L-57,95 L-62,83 L-64,71 L-64,59 L-62,48 L-57,36 L-50,25 L-46,20 L-44,20 L-43,17 L-38,15 L-38,13 L-28,7 L-14,2 L-9,1 Z " fill="#101010" transform="translate(1543,1495)"/>
<path d="M0,0 L12,1 L24,5 L36,11 L39,13 L39,15 L44,17 L45,20 L48,21 L55,31 L61,42 L64,54 L65,59 L65,73 L62,86 L54,102 L47,111 L36,123 L29,131 L17,144 L8,154 L-5,167 L-13,174 L-24,184 L-32,191 L-42,200 L-53,209 L-63,216 L-73,221 L-88,224 L-105,224 L-122,219 L-132,213 L-138,209 L-142,204 L-146,200 L-147,196 L-150,195 L-154,188 L-159,172 L-160,165 L-160,151 L-156,136 L-148,121 L-146,118 L-144,118 L-142,114 L-135,107 L-124,98 L-117,91 L-106,82 L-99,75 L-91,68 L-88,65 L-86,65 L-84,61 L-77,53 L-75,53 L-73,49 L-58,33 L-51,25 L-49,22 L-47,22 L-46,19 L-38,13 L-22,4 L-11,1 Z " fill="#101010" transform="translate(504,1495)"/>
<path d="M0,0 L41,0 L126,2 L144,5 L149,7 L149,9 L154,10 L163,16 L171,23 L181,38 L186,52 L187,65 L186,79 L184,88 L176,104 L174,107 L172,107 L170,111 L161,119 L159,119 L159,121 L149,126 L135,131 L125,132 L93,132 L46,131 L-10,131 L-30,128 L-43,122 L-43,120 L-47,119 L-57,111 L-67,97 L-73,82 L-74,75 L-74,54 L-71,43 L-69,43 L-69,38 L-67,38 L-66,33 L-58,22 L-56,22 L-54,18 L-42,9 L-31,4 L-18,1 Z " fill="#101010" transform="translate(1807,974)"/>
<path d="M0,0 L41,0 L59,1 L75,5 L86,11 L96,19 L97,22 L100,23 L108,34 L108,38 L110,38 L110,43 L112,43 L115,54 L115,75 L113,85 L108,97 L98,111 L87,120 L84,120 L84,122 L76,126 L71,128 L51,131 L-7,131 L-54,132 L-84,132 L-98,130 L-108,126 L-118,121 L-118,119 L-123,117 L-131,109 L-131,107 L-133,107 L-139,97 L-144,86 L-146,72 L-146,59 L-143,45 L-137,33 L-128,21 L-117,12 L-112,9 L-108,9 L-108,7 L-98,4 L-85,2 Z " fill="#101010" transform="translate(200,974)"/>
<path d="M0,0 L8,0 L22,3 L29,6 L35,9 L41,13 L49,20 L58,31 L63,41 L67,55 L68,92 L69,156 L71,186 L69,201 L63,216 L59,222 L52,231 L44,237 L35,243 L21,248 L17,249 L-5,249 L-17,246 L-25,242 L-33,237 L-48,222 L-54,211 L-59,196 L-61,175 L-62,137 L-63,63 L-61,50 L-58,40 L-53,31 L-47,23 L-37,13 L-28,8 L-19,4 L-12,2 Z " fill="#101010" transform="translate(1021,124)"/>
<path d="M0,0 L21,0 L34,4 L45,9 L50,12 L50,14 L54,16 L59,20 L68,33 L72,41 L75,53 L76,58 L77,95 L78,160 L78,181 L76,193 L72,203 L68,212 L66,212 L64,217 L62,220 L60,220 L59,223 L57,223 L57,225 L53,228 L51,228 L51,230 L35,238 L23,241 L11,242 L0,241 L-15,236 L-17,235 L-17,233 L-22,232 L-24,231 L-24,229 L-28,228 L-28,226 L-32,224 L-33,221 L-37,219 L-37,217 L-39,217 L-41,211 L-43,211 L-49,198 L-52,186 L-53,157 L-54,92 L-54,56 L-50,43 L-44,29 L-42,29 L-41,25 L-39,25 L-38,21 L-36,21 L-36,19 L-34,19 L-34,17 L-25,10 L-13,4 Z " fill="#101010" transform="translate(1011,1675)"/>
</svg>
