<?xml version="1.0" encoding="UTF-8"?>
<svg version="1.1" xmlns="http://www.w3.org/2000/svg" width="2048" height="2048" viewBox="0 0 2048 2048">
<path d="M0 0 C0.78453552 -0.00006042 1.56907104 -0.00012085 2.37738037 -0.00018311 C14.03017997 0.01254185 25.50354196 0.44867045 37.07568359 1.9140625 C39.3151467 2.18782354 41.55464708 2.41346088 43.80078125 2.625 C61.23532869 4.30433469 78.41809672 7.58606341 95.3125 12.1875 C96.2499707 12.43902832 97.18744141 12.69055664 98.15332031 12.94970703 C124.95780557 20.16305624 150.65510843 29.33541619 175.3125 42.1875 C176.32828125 42.69539063 177.3440625 43.20328125 178.390625 43.7265625 C194.11695869 51.58972934 208.99247786 60.74126713 223.4375 70.75 C224.32123291 71.35787354 225.20496582 71.96574707 226.11547852 72.59204102 C227.33062134 73.44560181 227.33062134 73.44560181 228.5703125 74.31640625 C229.2936377 74.82244385 230.01696289 75.32848145 230.76220703 75.84985352 C231.52960205 76.51198853 231.52960205 76.51198853 232.3125 77.1875 C232.3125 77.8475 232.3125 78.5075 232.3125 79.1875 C233.19228516 79.34412109 233.19228516 79.34412109 234.08984375 79.50390625 C236.64145135 80.28867133 237.91587615 81.33242359 239.875 83.125 C241.98636601 85.03886629 243.92084339 86.59306226 246.3125 88.1875 C246.3125 88.8475 246.3125 89.5075 246.3125 90.1875 C247.034375 90.414375 247.75625 90.64125 248.5 90.875 C251.89502303 92.45934408 253.69562463 94.50615089 256.3125 97.1875 C258.2823121 99.03270756 260.25817949 100.8665527 262.25 102.6875 C262.74951172 103.14769531 263.24902344 103.60789062 263.76367188 104.08203125 C267.19601208 107.22649776 270.72917805 110.21658194 274.3125 113.1875 C278.53830567 117.18488375 282.36058629 121.5418358 286.2265625 125.8828125 C288.209539 128.13307206 288.209539 128.13307206 290.0859375 129.8671875 C291.3125 131.1875 291.3125 131.1875 291.3125 133.1875 C292.3025 133.5175 293.2925 133.8475 294.3125 134.1875 C294.456875 134.826875 294.60125 135.46625 294.75 136.125 C294.935625 136.805625 295.12125 137.48625 295.3125 138.1875 C295.91884277 138.48293701 296.52518555 138.77837402 297.14990234 139.08276367 C299.66584705 140.36800298 300.77059839 141.68909069 302.4765625 143.92578125 C303.04117188 144.66376953 303.60578125 145.40175781 304.1875 146.16210938 C305.05375 147.31936523 305.05375 147.31936523 305.9375 148.5 C306.81535156 149.63985352 306.81535156 149.63985352 307.7109375 150.80273438 C312.08935269 156.58204158 312.08935269 156.58204158 313.30615234 159.88354492 C313.63824707 160.6438501 313.9703418 161.40415527 314.3125 162.1875 C315.3025 162.5175 316.2925 162.8475 317.3125 163.1875 C319.30646257 165.84833969 321.3125 168.79992325 321.3125 172.1875 C321.9725 172.1875 322.6325 172.1875 323.3125 172.1875 C325.0390625 174.7421875 325.0390625 174.7421875 326.9375 178.0625 C327.56914063 179.15304687 328.20078125 180.24359375 328.8515625 181.3671875 C330.3125 184.1875 330.3125 184.1875 330.3125 186.1875 C330.9725 186.1875 331.6325 186.1875 332.3125 186.1875 C338.42789943 197.12754858 344.49161897 208.08750825 350.3125 219.1875 C350.84617187 220.18910156 351.37984375 221.19070313 351.9296875 222.22265625 C355.45519566 229.00880279 358.19893069 235.92890991 360.8046875 243.1015625 C362.66078857 248.19555565 364.73829926 253.19415302 366.8203125 258.19921875 C375.08066352 279.36282728 380.49899805 302.79825378 384.3125 325.1875 C384.45526367 326.01926758 384.59802734 326.85103516 384.74511719 327.70800781 C386.42131555 337.66349605 387.65083922 347.52175879 388.1015625 357.609375 C388.26372804 361.19164562 388.26372804 361.19164562 388.81518555 364.73193359 C389.46501139 369.83774989 389.4745954 374.9137238 389.48046875 380.0546875 C389.48379715 381.088284 389.48712555 382.12188049 389.49055481 383.1867981 C389.49559936 385.3702958 389.4979639 387.55380116 389.49780273 389.73730469 C389.49997041 393.01771392 389.51810073 396.29777596 389.53710938 399.578125 C389.5707231 411.93883932 389.01236449 423.94574008 387.3125 436.1875 C387.09339966 437.9197583 387.09339966 437.9197583 386.86987305 439.68701172 C383.23650267 468.02602353 375.99485318 495.04067572 367.3125 522.1875 C368.17713867 522.29296143 369.04177734 522.39842285 369.93261719 522.50708008 C399.39437126 526.11252581 399.39437126 526.11252581 413.97045898 528.36938477 C436.5371054 531.83762971 459.15210791 534.69718827 481.82836914 537.33447266 C486.18810996 537.84169068 490.54684883 538.35704366 494.90539837 538.87438583 C498.31346219 539.27780383 501.72207719 539.67639998 505.13086891 540.07361603 C506.73966212 540.26177046 508.34826934 540.45152307 509.95667076 540.64299774 C517.77726057 541.57190872 525.42391619 542.32164107 533.3125 542.1875 C535.64794169 542.39680393 537.97984695 542.65172406 540.3046875 542.95703125 C541.58859375 543.12396484 542.8725 543.29089844 544.1953125 543.46289062 C545.1838623 543.59594604 545.1838623 543.59594604 546.19238281 543.73168945 C548.14825449 543.99472212 550.10537243 544.24843408 552.0625 544.50195312 C557.47337871 545.21461856 562.87794214 545.93671335 568.26147461 546.83544922 C583.81747171 549.43122537 599.47106218 551.24153267 615.12915039 553.09423828 C618.42633677 553.48463428 621.72284195 553.88011946 625.01879883 554.28076172 C644.55743987 556.65482249 664.0756125 558.67484258 683.7038269 560.14356995 C698.08052298 561.22016113 712.41252666 562.60864655 726.75 564.125 C728.60901443 564.31967361 728.60901443 564.31967361 730.50558472 564.51828003 C749.14603589 566.47226926 767.75904873 568.51675487 786.3125 571.1875 C786.97582336 571.28246765 787.63914673 571.3774353 788.3225708 571.47528076 C836.66853364 578.40589272 836.66853364 578.40589272 854.33691406 584.51220703 C856.41184871 585.22145929 858.4972265 585.89109183 860.5859375 586.55859375 C870.24732566 589.71731198 878.71065884 593.74664272 887.3125 599.1875 C887.88178223 599.53780273 888.45106445 599.88810547 889.03759766 600.24902344 C890.49906119 601.17317792 891.91099639 602.17471928 893.3125 603.1875 C893.3125 603.8475 893.3125 604.5075 893.3125 605.1875 C894.03050781 605.42984375 894.74851562 605.6721875 895.48828125 605.921875 C906.07489152 610.66608209 913.24700472 621.71928491 919.3125 631.1875 C919.68004395 631.76016602 920.04758789 632.33283203 920.42626953 632.92285156 C940.76090547 665.18922903 945.26585075 707.43178821 949.54512024 744.60133362 C950.19803296 750.26426191 950.89238153 755.9214965 951.59765625 761.578125 C954.5733199 785.48011885 957.19515781 809.272194 958.52807617 833.328125 C958.92748699 840.41470117 959.41175278 847.48232813 960.01673889 854.55456543 C961.37652192 870.57546717 962.11923084 886.60589485 962.78101349 902.66718674 C962.87632564 904.96952176 962.97353338 907.27177005 963.07122803 909.57400513 C964.05944395 932.91820355 964.75529989 956.25534614 965.17631531 979.61705017 C965.34569974 988.61776369 965.74170854 997.6045067 966.1875 1006.59521484 C966.64690604 1016.12250656 966.98637722 1025.65486975 967.3125 1035.1875 C967.33548157 1035.84609009 967.35846313 1036.50468018 967.38214111 1037.18322754 C968.98094302 1083.26312865 968.56724931 1129.3626482 967.38214111 1175.44726562 C967.29134887 1179.01975331 967.20582573 1182.59235776 967.12043762 1186.16497803 C966.90706461 1195.08379101 966.67514251 1204.0019641 966.42871094 1212.91992188 C966.32282168 1216.76415307 966.22769941 1220.60860596 966.1328125 1224.453125 C965.66099022 1242.19019336 964.77403879 1259.90526694 963.875 1277.625 C963.81346741 1278.8583609 963.75193481 1280.0917218 963.6885376 1281.36245728 C962.36103891 1307.80572944 960.0295426 1334.04439264 956.96337891 1360.33666992 C956.51991984 1364.1448926 956.09167624 1367.95467357 955.66661263 1371.76498699 C955.3299766 1374.75773079 954.98222958 1377.74911182 954.63158798 1380.74024391 C954.4688808 1382.14410767 954.3101397 1383.54843823 954.15585709 1384.95325279 C952.27127759 1402.03019374 947.8728095 1418.19264908 934.4375 1429.80859375 C922.71417877 1438.99033557 910.17886273 1441.40932166 895.5859375 1441.9765625 C892.55791093 1442.10002584 889.56792691 1442.34920024 886.5546875 1442.671875 C857.02218002 1445.73471355 826.92001754 1443.94720058 797.3125 1443.1875 C796.11216125 1443.15689484 796.11216125 1443.15689484 794.88757324 1443.12567139 C786.02532298 1442.89591678 777.16935176 1442.57034456 768.3125 1442.1875 C766.80631707 1442.12381406 765.30013205 1442.06017763 763.79394531 1441.99658203 C733.61686353 1440.71224112 703.45703514 1439.08649666 673.3125 1437.1875 C672.42494019 1437.1316272 671.53738037 1437.07575439 670.6229248 1437.01818848 C641.48231765 1435.16392615 612.50007439 1431.96276265 583.50384521 1428.56176758 C580.44367784 1428.20288399 577.38323336 1427.84644506 574.32275391 1427.49023438 C521.63062994 1421.33025818 521.63062994 1421.33025818 506.3125 1412.1875 C505.45140625 1411.7028125 504.5903125 1411.218125 503.703125 1410.71875 C493.95020305 1404.82772332 487.78766867 1395.05232165 484.41015625 1384.3203125 C480.24511293 1367.3700367 480.20806723 1349.22273524 479.65380859 1331.86206055 C479.49832642 1327.10550215 479.26821759 1322.38126643 478.84375 1317.640625 C478.10289103 1309.19047876 477.75544807 1300.72249845 477.375 1292.25 C477.31155396 1290.86728409 477.31155396 1290.86728409 477.24682617 1289.45663452 C476.67124806 1276.84370512 476.20024389 1264.2293339 475.80859375 1251.609375 C475.76644401 1250.26293436 475.72429414 1248.91649373 475.68214417 1247.5700531 C475.47742486 1240.99561326 475.28180452 1234.42100963 475.09790039 1227.84594727 C474.64016448 1212.2414874 473.73758656 1196.73419349 472.3125 1181.1875 C472.076521 1182.00089844 471.84054199 1182.81429688 471.59741211 1183.65234375 C469.2362006 1191.79042772 466.87359128 1199.92810465 464.50976562 1208.06542969 C463.76069998 1210.64409938 463.01203961 1213.22288537 462.26367188 1215.80175781 C456.51306914 1235.61519815 456.51306914 1235.61519815 454.25 1242.8125 C450.3422794 1255.39668498 447.07332936 1268.18086233 443.80200195 1280.94213867 C438.20340304 1302.76892714 432.0843081 1324.42250257 425.07226562 1345.83935547 C424.37560634 1347.99246248 423.70582266 1350.15151953 423.046875 1352.31640625 C418.29107345 1367.51911854 411.14848151 1386.2192132 396.3125 1394.1875 C381.01182059 1400.81278125 367.00775629 1401.93770369 350.5 1400.5 C349.51918457 1400.4160498 348.53836914 1400.33209961 347.52783203 1400.24560547 C314.44321013 1397.29275067 281.28697335 1393.69915875 248.50073242 1388.3293457 C242.70906375 1387.38483873 236.90429249 1386.56340603 231.09179688 1385.75756836 C219.70568967 1384.17608006 208.42289823 1382.36397838 197.1484375 1380.125 C192.38592128 1379.18359462 187.60565865 1378.3924126 182.8125 1377.625 C176.69153552 1376.63883725 170.7012545 1375.38453778 164.671875 1373.9296875 C160.82247516 1373.0792387 156.95381415 1372.43282328 153.0625 1371.8125 C142.56298625 1370.12740673 132.16191749 1367.99961791 121.74316406 1365.87890625 C118.25586887 1365.17608672 114.76536892 1364.49188649 111.2734375 1363.8125 C95.34173453 1360.69959318 79.51944834 1357.24504625 63.70701599 1353.58044434 C62.99159134 1353.41467896 62.27616669 1353.24891357 61.5390625 1353.078125 C60.8335878 1352.91461548 60.1281131 1352.75110596 59.40126038 1352.5826416 C52.14927233 1350.9079461 44.87538615 1349.33588229 37.58813477 1347.82202148 C31.72161562 1346.57969304 26.02966726 1344.99278261 20.3125 1343.1875 C19.3433667 1342.88239502 18.3742334 1342.57729004 17.37573242 1342.26293945 C14.22737887 1341.26561635 11.08209271 1340.25911441 7.9375 1339.25 C6.36742187 1338.74823242 6.36742187 1338.74823242 4.765625 1338.23632812 C2.66352048 1337.56287612 0.56259412 1336.88573503 -1.53710938 1336.20483398 C-3.67022458 1335.51600176 -5.80710951 1334.83875405 -7.94726562 1334.17211914 C-21.22192965 1329.95068601 -31.86214403 1321.76094206 -38.5 1309.3125 C-42.09582354 1301.37982172 -43.91371839 1294.15235262 -43.87158203 1285.40478516 C-43.86776866 1284.29258826 -43.86776866 1284.29258826 -43.86387825 1283.15792274 C-43.76788388 1274.9664592 -42.89766761 1266.90018908 -41.9296875 1258.7734375 C-41.74177421 1257.14569826 -41.55437874 1255.51789916 -41.36746216 1253.89004517 C-40.97538936 1250.49589273 -40.57619608 1247.10267534 -40.171875 1243.70996094 C-39.66659137 1239.46427125 -39.1806949 1235.21662894 -38.69996929 1230.96809864 C-36.41184439 1210.84065161 -33.4252098 1191.05670685 -29.29777527 1171.22181702 C-28.46485139 1167.08048075 -27.77223516 1162.92377138 -27.125 1158.75 C-25.89261836 1151.03311899 -24.29403522 1143.41356179 -22.66381836 1135.77172852 C-21.00980414 1127.93624395 -19.56490281 1120.07591728 -18.1875 1112.1875 C-16.17583823 1100.72475035 -13.91470473 1089.34178231 -11.484375 1077.96142578 C-10.53514914 1073.4659805 -9.61103521 1068.96562297 -8.6875 1064.46484375 C1.22629771 1016.25483461 12.30891121 967.98656486 26.1875 920.75 C27.96885465 914.57739899 29.5277426 908.36306258 31.0625 902.125 C35.5976132 883.75793776 40.6290643 865.52166748 46.16625977 847.43164062 C48.31079689 840.35633956 50.15508666 833.21468628 51.98828125 826.0534668 C54.60454888 815.9060616 57.56442118 805.86548757 60.53710938 795.81787109 C61.60478659 792.19597113 62.64916134 788.5679232 63.6875 784.9375 C63.98398437 783.90109375 64.28046875 782.8646875 64.5859375 781.796875 C65.19745381 779.60067664 65.77452979 777.40267143 66.3125 775.1875 C65.44109375 775.48527344 64.5696875 775.78304687 63.671875 776.08984375 C57.77071397 777.76933667 51.64794618 778.15579159 45.5625 778.75 C43.59990234 778.94396362 43.59990234 778.94396362 41.59765625 779.1418457 C10.57171486 782.13379699 -20.80787423 782.87493998 -51.6875 778.1875 C-52.73292969 778.03764648 -53.77835938 777.88779297 -54.85546875 777.73339844 C-79.55961103 774.19026476 -104.31072542 769.08941522 -127.6875 760.1875 C-129.30618031 759.68740026 -130.930457 759.20460021 -132.5625 758.75 C-139.11887759 756.81928758 -145.43220797 754.40474303 -151.5 751.25 C-154.79407366 749.54390607 -158.13771313 748.26338433 -161.625 747 C-170.05161464 743.82051346 -177.82738769 739.54775829 -185.6875 735.1875 C-186.29207031 734.85347168 -186.89664063 734.51944336 -187.51953125 734.17529297 C-194.93000708 730.06231161 -202.19437573 725.71136778 -209.4375 721.3125 C-210.22503662 720.83570801 -211.01257324 720.35891602 -211.82397461 719.86767578 C-212.9243103 719.19454346 -212.9243103 719.19454346 -214.046875 718.5078125 C-214.70139648 718.10836426 -215.35591797 717.70891602 -216.03027344 717.29736328 C-217.6875 716.1875 -217.6875 716.1875 -219.6875 714.1875 C-220.90310842 713.35485175 -222.13504238 712.5459347 -223.375 711.75 C-227.91218258 708.75248429 -232.34376535 705.62298669 -236.75 702.4375 C-237.76936646 701.7115564 -237.76936646 701.7115564 -238.80932617 700.97094727 C-240.47300556 699.75986 -242.08557795 698.47916838 -243.6875 697.1875 C-243.6875 696.5275 -243.6875 695.8675 -243.6875 695.1875 C-245.3375 694.5275 -246.9875 693.8675 -248.6875 693.1875 C-248.6875 692.5275 -248.6875 691.8675 -248.6875 691.1875 C-249.3475 691.1875 -250.0075 691.1875 -250.6875 691.1875 C-252.04182675 689.87549596 -253.37483482 688.54118596 -254.6875 687.1875 C-255.3475 686.8575 -256.0075 686.5275 -256.6875 686.1875 C-256.6875 685.5275 -256.6875 684.8675 -256.6875 684.1875 C-257.24824219 683.94515625 -257.80898438 683.7028125 -258.38671875 683.453125 C-261.14835633 681.9339899 -263.18781442 680.07854743 -265.5 677.9375 C-268.40945253 675.26268074 -271.32104153 672.63311521 -274.375 670.125 C-277.60707872 667.3872392 -280.30905866 664.30964971 -283.04296875 661.08203125 C-284.50452458 659.39829116 -286.01393266 657.85095585 -287.625 656.3125 C-289.6875 654.1875 -289.6875 654.1875 -289.6875 652.1875 C-290.6775 651.8575 -291.6675 651.5275 -292.6875 651.1875 C-294.29562665 649.45523725 -295.82947316 647.6529991 -297.3125 645.8125 C-298.10914063 644.83539062 -298.90578125 643.85828125 -299.7265625 642.8515625 C-301.6875 640.1875 -301.6875 640.1875 -302.6875 637.1875 C-303.3475 637.1875 -304.0075 637.1875 -304.6875 637.1875 C-305.3475 635.5375 -306.0075 633.8875 -306.6875 632.1875 C-307.3475 632.1875 -308.0075 632.1875 -308.6875 632.1875 C-310.06285339 630.21616014 -311.38961044 628.21068078 -312.6875 626.1875 C-313.43 625.300625 -314.1725 624.41375 -314.9375 623.5 C-316.6875 621.1875 -316.6875 621.1875 -316.6875 618.1875 C-317.6775 617.8575 -318.6675 617.5275 -319.6875 617.1875 C-320.375 615.125 -320.375 615.125 -320.6875 613.1875 C-321.3475 613.1875 -322.0075 613.1875 -322.6875 613.1875 C-324.0546875 611.17578125 -324.0546875 611.17578125 -325.5625 608.5 C-327.27229123 605.52881868 -328.87201689 602.96413744 -331.0625 600.3125 C-332.6875 598.1875 -332.6875 598.1875 -332.6875 594.1875 C-333.3475 594.1875 -334.0075 594.1875 -334.6875 594.1875 C-334.95900879 593.69459473 -335.23051758 593.20168945 -335.51025391 592.69384766 C-336.77576324 590.39900741 -338.04386013 588.10561109 -339.3125 585.8125 C-339.77035889 584.98339111 -340.22821777 584.15428223 -340.69995117 583.30004883 C-343.03603889 579.08881846 -345.42073313 574.94360732 -348 570.875 C-350.8433872 566.24251524 -352.61911222 561.35491839 -354.4765625 556.26171875 C-355.51923552 553.61467466 -356.6543484 551.35892318 -358.125 548.9375 C-361.22939403 543.60604068 -363.05000924 537.83294273 -365.0234375 532.01953125 C-366.15816052 528.68053673 -367.35466843 525.37295596 -368.6015625 522.07421875 C-378.97212237 494.58088048 -385.72923602 466.42042348 -388.48144531 437.14501953 C-388.80594958 434.06222895 -389.29743874 431.00376651 -389.75 427.9375 C-398.51460273 357.95979882 -384.15190434 276.5278907 -349.578125 214.62109375 C-347.70139485 211.21273465 -346.00006151 207.75523874 -344.3125 204.25 C-335.20572437 185.84803268 -322.78460631 168.6845961 -310.625 152.1875 C-309.91214844 151.218125 -309.19929687 150.24875 -308.46484375 149.25 C-307.87832031 148.569375 -307.29179688 147.88875 -306.6875 147.1875 C-306.0275 147.1875 -305.3675 147.1875 -304.6875 147.1875 C-304.44 146.63578125 -304.1925 146.0840625 -303.9375 145.515625 C-302.44515526 142.73613293 -300.65077477 140.4060293 -298.6875 137.9375 C-297.98625 137.04546875 -297.285 136.1534375 -296.5625 135.234375 C-295.94375 134.55890625 -295.325 133.8834375 -294.6875 133.1875 C-294.0275 133.1875 -293.3675 133.1875 -292.6875 133.1875 C-292.378125 132.56875 -292.06875 131.95 -291.75 131.3125 C-291.0625 129.9375 -290.375 128.5625 -289.6875 127.1875 C-289.0275 127.1875 -288.3675 127.1875 -287.6875 127.1875 C-287.1925 125.7025 -287.1925 125.7025 -286.6875 124.1875 C-286.0275 124.1875 -285.3675 124.1875 -284.6875 124.1875 C-283.6975 122.2075 -283.6975 122.2075 -282.6875 120.1875 C-282.0275 120.1875 -281.3675 120.1875 -280.6875 120.1875 C-280.460625 119.630625 -280.23375 119.07375 -280 118.5 C-278.31004379 115.52245811 -276.1638104 113.55125084 -273.6875 111.1875 C-273.16285156 110.64222656 -272.63820313 110.09695313 -272.09765625 109.53515625 C-270.66625037 108.04775405 -269.17996156 106.61362994 -267.6875 105.1875 C-267.0275 105.1875 -266.3675 105.1875 -265.6875 105.1875 C-265.6875 104.5275 -265.6875 103.8675 -265.6875 103.1875 C-265.0275 103.1875 -264.3675 103.1875 -263.6875 103.1875 C-262.6975 101.2075 -262.6975 101.2075 -261.6875 99.1875 C-260.6975 99.1875 -259.7075 99.1875 -258.6875 99.1875 C-258.43871094 98.59066406 -258.18992187 97.99382812 -257.93359375 97.37890625 C-256.50431368 94.86534475 -255.10791957 93.77159188 -252.75 92.125 C-250.68151175 90.6673924 -248.81988285 89.32432736 -247.05859375 87.50390625 C-245.6875 86.1875 -245.6875 86.1875 -243.6875 86.1875 C-243.3575 85.1975 -243.0275 84.2075 -242.6875 83.1875 C-241.04193434 82.15314444 -239.3704392 81.15986487 -237.6875 80.1875 C-236.63269517 79.30717416 -235.59119962 78.41069418 -234.5625 77.5 C-231.6875 75.1875 -231.6875 75.1875 -228.6875 75.1875 C-228.3575 74.1975 -228.0275 73.2075 -227.6875 72.1875 C-225.796875 70.6875 -225.796875 70.6875 -223.4375 69.1875 C-222.61765625 68.6615625 -221.7978125 68.135625 -220.953125 67.59375 C-218.54598095 66.09966059 -216.11686732 64.64512039 -213.6875 63.1875 C-211.57105525 61.7626494 -209.46136085 60.32891555 -207.359375 58.8828125 C-203.56435686 56.47486239 -199.62550011 54.35111727 -195.6875 52.1875 C-194.00095206 51.24411508 -192.314763 50.30008831 -190.62890625 49.35546875 C-179.82322765 43.34731967 -168.98371902 37.77849284 -157.58447266 32.98535156 C-155.90932544 32.28079801 -154.24119243 31.55961742 -152.57421875 30.8359375 C-138.29553127 24.71367869 -123.59476717 19.54480573 -108.6875 15.1875 C-107.46836914 14.82591797 -107.46836914 14.82591797 -106.22460938 14.45703125 C-87.13214498 8.8390843 -67.94379393 5.70090522 -48.25 3 C-47.04279297 2.83290527 -45.83558594 2.66581055 -44.59179688 2.49365234 C-29.73673084 0.53063259 -14.96192807 -0.01791085 0 0 Z M-46.1875 106.4375 C-48.00084839 106.76693604 -48.00084839 106.76693604 -49.85083008 107.10302734 C-62.94113801 109.5301976 -76.02033674 112.17450079 -88.63110352 116.49560547 C-91.3322176 117.40442149 -94.07040837 118.1624021 -96.8125 118.9375 C-103.0904808 120.85516429 -108.88971667 123.47578589 -114.77734375 126.328125 C-118.13638923 127.95026086 -121.54415395 129.42179473 -124.98095703 130.87036133 C-130.91572867 133.37833485 -136.42879112 136.02430501 -141.6875 139.7890625 C-143.76992466 141.24513287 -145.89461754 142.47163178 -148.125 143.6875 C-151.52434716 145.54332734 -154.90205859 147.42753549 -158.25 149.375 C-159.09691406 149.86355469 -159.94382812 150.35210938 -160.81640625 150.85546875 C-161.43386719 151.29503906 -162.05132813 151.73460937 -162.6875 152.1875 C-162.6875 152.8475 -162.6875 153.5075 -162.6875 154.1875 C-163.34105469 154.38988281 -163.99460937 154.59226562 -164.66796875 154.80078125 C-168.9090459 156.74849456 -172.33270311 159.51405687 -176 162.375 C-176.72123047 162.92736328 -177.44246094 163.47972656 -178.18554688 164.04882812 C-183.1890287 167.91250333 -187.96939059 171.98212955 -192.6875 176.1875 C-193.53699219 176.93257812 -194.38648438 177.67765625 -195.26171875 178.4453125 C-202.3629195 184.6836461 -202.3629195 184.6836461 -208.6875 191.6875 C-210.85198483 194.39310604 -213.23840104 196.73840104 -215.6875 199.1875 C-219.28442352 202.69315032 -219.28442352 202.69315032 -220.6875 207.1875 C-222.1725 207.6825 -222.1725 207.6825 -223.6875 208.1875 C-224.70101664 209.84598177 -225.69870795 211.51415961 -226.6875 213.1875 C-227.450625 213.93 -228.21375 214.6725 -229 215.4375 C-231.84433077 218.347978 -233.88971683 221.33132354 -236.0859375 224.73828125 C-237.71827119 227.2345574 -239.44206972 229.6442717 -241.1875 232.0625 C-244.08247875 236.19099144 -246.56318076 240.39757294 -248.90625 244.859375 C-250.2793964 247.42499064 -251.69334298 249.93930435 -253.15625 252.453125 C-260.69525007 265.54058115 -266.44784407 279.03437742 -271.6875 293.1875 C-271.95788086 293.91275879 -272.22826172 294.63801758 -272.50683594 295.38525391 C-279.28499477 313.82541833 -283.48418824 333.10271541 -286.296875 352.50830078 C-286.63408015 354.82110662 -287.00097839 357.12657059 -287.375 359.43359375 C-288.94301549 370.00351393 -288.89570892 380.65034798 -288.9375 391.3125 C-288.9455365 392.45700623 -288.9455365 392.45700623 -288.95373535 393.62463379 C-289.01066182 404.32163381 -288.25908004 414.60207575 -286.6875 425.1875 C-286.53619629 426.26193359 -286.38489258 427.33636719 -286.22900391 428.44335938 C-284.62215465 439.63552331 -282.73041182 450.74443221 -280.125 461.75 C-279.92737061 462.58748779 -279.72974121 463.42497559 -279.52612305 464.2878418 C-278.4405331 468.69148128 -277.12106443 472.88547141 -275.47094727 477.1081543 C-274.60451249 479.40775697 -273.85104856 481.72755142 -273.109375 484.0703125 C-270.10192436 493.53280103 -266.89957127 502.47341902 -262.2421875 511.25 C-260.9025861 513.78110617 -259.7331275 516.2999734 -258.625 518.9375 C-256.79772257 523.18790619 -254.43707213 527.02678028 -251.95703125 530.92578125 C-250.76417441 533.05090159 -250.13954386 534.80746187 -249.6875 537.1875 C-249.0275 537.1875 -248.3675 537.1875 -247.6875 537.1875 C-247.44 537.88875 -247.1925 538.59 -246.9375 539.3125 C-245.52710489 542.55640874 -243.66100947 545.25906659 -241.6875 548.1875 C-241.1925 549.6725 -241.1925 549.6725 -240.6875 551.1875 C-240.0275 551.1875 -239.3675 551.1875 -238.6875 551.1875 C-238.41550781 551.9196875 -238.14351562 552.651875 -237.86328125 553.40625 C-235.07655771 559.99810104 -230.78002939 565.23260654 -225.6875 570.1875 C-224.6875 571.85416667 -223.6875 573.52083333 -222.6875 575.1875 C-221.0420622 576.87512851 -219.37461423 578.5415349 -217.6875 580.1875 C-216.98625 581.074375 -216.285 581.96125 -215.5625 582.875 C-213.72188927 585.37903669 -213.72188927 585.37903669 -210.6875 587.1875 C-210.1925 588.6725 -210.1925 588.6725 -209.6875 590.1875 C-207.96232476 591.93603922 -207.96232476 591.93603922 -205.875 593.625 C-203.57484132 595.56717334 -201.41634408 597.4657916 -199.3125 599.625 C-197.82294499 601.41853624 -197.82294499 601.41853624 -195.6875 601.1875 C-195.48769531 601.73277344 -195.28789063 602.27804687 -195.08203125 602.83984375 C-193.11369189 606.15349068 -190.31432384 608.33264266 -187.375 610.75 C-186.80587891 611.23146484 -186.23675781 611.71292969 -185.65039062 612.20898438 C-182.46463892 614.86804464 -179.25228803 617.05122448 -175.6875 619.1875 C-175.3575 619.8475 -175.0275 620.5075 -174.6875 621.1875 C-173.01145799 622.16014704 -171.33241023 623.1281587 -169.63525391 624.06347656 C-166.55342322 625.84196095 -163.73711784 627.95493315 -160.875 630.0625 C-148.1740553 639.25127555 -134.46524758 645.98789571 -120.265625 652.53125 C-118.14288939 653.51382631 -116.02579525 654.50900626 -113.921875 655.53125 C-106.1675958 659.24188667 -98.08883533 661.8411019 -89.91894531 664.46337891 C-87.59794512 665.21656125 -85.28754969 665.99793786 -82.9765625 666.78125 C-78.01428226 668.43677213 -73.01640613 669.62246323 -67.90136719 670.71337891 C-66.27578551 671.06151296 -64.65162917 671.4163198 -63.02832031 671.77490234 C-48.70473411 674.92207669 -34.63854572 677.06021221 -20.00488281 678.02001953 C-17.24188398 678.21970529 -14.50074805 678.55020322 -11.75 678.875 C16.2759522 681.09288111 47.46158408 676.99368007 74.28857422 668.79833984 C76.62593893 668.09290118 78.97067487 667.41536771 81.31640625 666.73828125 C83.08606175 666.2217797 84.85559355 665.7048541 86.625 665.1875 C87.4490332 664.9505542 88.27306641 664.7136084 89.12207031 664.46948242 C91.53589516 663.75440986 93.92213986 662.97707152 96.3125 662.1875 C97.11478027 661.96368652 97.91706055 661.73987305 98.74365234 661.50927734 C102.42321325 660.26551425 104.65919853 659.19434909 106.80981445 655.87988281 C108.15374168 652.89919838 109.25540601 649.9064676 110.3125 646.8125 C111.15657965 644.53609752 112.0016501 642.26006221 112.84765625 639.984375 C113.46664795 638.26831055 113.46664795 638.26831055 114.09814453 636.51757812 C115.87190228 631.65347364 117.79034394 626.85422877 119.75 622.0625 C120.11150146 621.17498047 120.47300293 620.28746094 120.84545898 619.37304688 C124.85698634 609.65898719 129.40712528 600.21089091 134.04296875 590.78222656 C135.19233284 588.43310319 136.31921847 586.07496752 137.4375 583.7109375 C144.71354036 568.48967086 154.01840661 552.82277471 167.3125 542.1875 C167.3125 541.5275 167.3125 540.8675 167.3125 540.1875 C167.89644531 539.92066406 168.48039062 539.65382813 169.08203125 539.37890625 C171.35752281 538.16345104 173.04557953 536.80191655 175 535.125 C196.27199398 518.42125391 223.08202777 513.64769962 249.4375 512.625 C250.489375 512.58181641 251.54125 512.53863281 252.625 512.49414062 C255.18740627 512.38931491 257.74988799 512.28714645 260.3125 512.1875 C269.04228227 492.70659156 275.84967744 473.07497282 280.3125 452.1875 C280.48523437 451.39730469 280.65796875 450.60710937 280.8359375 449.79296875 C286.39451395 424.21546117 288.77751646 397.88127437 286.5 371.75 C286.41161865 370.71939453 286.3232373 369.68878906 286.23217773 368.62695312 C285.3833179 359.20063559 284.17851085 349.8497494 282.68164062 340.50537109 C282.34935351 338.41890692 282.04039941 336.32875883 281.734375 334.23828125 C278.84196047 316.49443058 272.91455944 299.12155839 265.7890625 282.65625 C264.04408073 278.55692775 262.62728181 274.44120586 261.3125 270.1875 C260.6525 270.1875 259.9925 270.1875 259.3125 270.1875 C259.1990625 269.630625 259.085625 269.07375 258.96875 268.5 C258.21590083 265.84710291 257.092578 263.62857898 255.8125 261.1875 C254.24253421 258.19361174 252.98880941 255.50756437 252.3125 252.1875 C251.6525 252.1875 250.9925 252.1875 250.3125 252.1875 C250.03921875 251.47207031 249.7659375 250.75664063 249.484375 250.01953125 C246.49853549 242.80375242 242.58028216 236.13398238 237.70703125 230.0390625 C236.3125 228.1875 236.3125 228.1875 234.921875 225.84375 C233.05435001 222.7614272 230.94825545 219.91186799 228.75 217.0625 C228.31453857 216.49700439 227.87907715 215.93150879 227.43041992 215.34887695 C223.01291158 209.68644165 218.19797198 204.45003861 213.3125 199.1875 C211.99317425 197.71441825 210.67992185 196.2358564 209.375 194.75 C208.58802734 193.85474609 208.58802734 193.85474609 207.78515625 192.94140625 C206.3125 191.1875 206.3125 191.1875 204.74609375 188.96484375 C204.27300781 188.37832031 203.79992188 187.79179688 203.3125 187.1875 C202.6525 187.1875 201.9925 187.1875 201.3125 187.1875 C200.9825 186.1975 200.6525 185.2075 200.3125 184.1875 C198.82544948 182.64133881 198.82544948 182.64133881 196.9375 181.125 C192.40340474 177.29602625 188.06689544 173.27552508 183.73046875 169.2265625 C181.40970151 167.01443302 181.40970151 167.01443302 178.3125 166.1875 C176.96140039 164.87217289 175.62967348 163.53679966 174.3125 162.1875 C171.07975514 159.71214108 167.68294543 157.47070497 164.3125 155.1875 C163.75062988 154.80255371 163.18875977 154.41760742 162.60986328 154.02099609 C153.74286437 147.94952801 144.72420577 142.3776241 135.3125 137.1875 C134.20132812 136.54167969 133.09015625 135.89585937 131.9453125 135.23046875 C121.45595536 129.24140803 110.29855019 125.21135737 98.953125 121.140625 C96.63880767 120.30527969 94.33541077 119.44734041 92.03515625 118.57421875 C70.38986741 110.51117831 48.24277635 106.42449815 25.3125 104.1875 C24.03890625 104.05472656 22.7653125 103.92195312 21.453125 103.78515625 C12.71500295 103.03646739 3.9520833 103.08743461 -4.8125 103.0625 C-6.07602295 103.05774658 -7.3395459 103.05299316 -8.64135742 103.0480957 C-21.39644024 103.07056795 -33.64377867 104.1279073 -46.1875 106.4375 Z M235.3125 615.1875 C235.3125 615.8475 235.3125 616.5075 235.3125 617.1875 C234.6525 617.1875 233.9925 617.1875 233.3125 617.1875 C221.43987453 633.4635875 214.51969419 652.75607937 207.42236328 671.41699219 C206.3125 674.1875 206.3125 674.1875 205.10498047 676.30957031 C204.11348357 678.65910639 204.47059459 679.83016486 205.3125 682.1875 C206.54484375 682.38085938 207.7771875 682.57421875 209.046875 682.7734375 C210.71875449 683.03642978 212.39062923 683.29945225 214.0625 683.5625 C214.86816406 683.68882812 215.67382812 683.81515625 216.50390625 683.9453125 C225.21572525 685.3172525 233.91501878 686.75435726 242.59765625 688.30078125 C257.79091766 690.99778998 273.00008014 693.36737354 288.28344727 695.48754883 C288.99456665 695.58653473 289.70568604 695.68552063 290.43835449 695.7875061 C292.3577968 696.05393776 294.2776378 696.31749279 296.19750977 696.58081055 C299.46981788 697.04624713 302.72515594 697.59139299 305.98339844 698.14648438 C312.43345359 699.23090657 318.90148021 700.11220203 325.38671875 700.95703125 C326.6130452 701.11827988 327.83937164 701.2795285 329.1028595 701.44566345 C332.38970781 701.87707467 335.6768061 702.3064612 338.96408081 702.73460388 C341.0143917 703.00187606 343.06458504 703.27003319 345.11474609 703.53845215 C363.49137204 705.94373123 381.87345429 708.29777404 400.2800293 710.46411133 C408.18408764 711.40054357 416.06990355 712.42435236 423.95153809 713.53512573 C442.47509834 716.14279454 461.03786701 718.34168246 479.61837387 720.4993248 C484.24426563 721.03705559 488.86980231 721.57782384 493.49536133 722.1184082 C495.40565405 722.34163636 497.31594763 722.56485714 499.22624207 722.78807068 C500.17997396 722.89951353 501.13370586 723.01095638 502.11633873 723.12577629 C505.02924734 723.4659785 507.94220772 723.80573446 510.85517883 724.145401 C523.1465797 725.57928475 535.43600134 727.02908773 547.72397995 728.49199867 C591.55649434 733.70974319 635.40202545 738.66877787 679.3125 743.1875 C684.36333824 743.70778202 689.41412266 744.22858196 694.46484375 744.75 C695.67808823 744.87523041 696.8913327 745.00046082 698.14134216 745.12948608 C704.92036606 745.83097186 711.69760147 746.54634837 718.47265625 747.28515625 C733.56841768 748.92792159 748.6424246 750.47043926 763.79760742 751.46679688 C774.9003971 752.19893794 785.97972661 753.15930548 797.06323242 754.13500977 C805.80780286 754.90253818 814.5548987 755.58394325 823.3125 756.1875 C824.73314235 756.29202937 826.15372954 756.397316 827.57421875 756.50390625 C834.8359187 757.0255563 842.03227739 757.32372038 849.3125 757.1875 C849.71924063 749.07117558 848.36929919 741.33779637 846.96875 733.37890625 C846.56736545 731.09024244 846.1812676 728.7993838 845.796875 726.5078125 C844.15238483 716.8958734 842.00594348 707.56158544 839.3125 698.1875 C838.95889404 696.93678711 838.60528809 695.68607422 838.2409668 694.39746094 C836.89427209 689.8653472 835.78576293 686.32682333 831.96875 683.375 C829.07240157 681.97676283 826.42142213 681.03701029 823.3125 680.1875 C822.10255371 679.85129639 822.10255371 679.85129639 820.86816406 679.50830078 C812.07198897 677.17317943 803.16815929 675.70846038 794.1875 674.3125 C793.37680054 674.18499359 792.56610107 674.05748718 791.73083496 673.92611694 C773.99253694 671.14845897 756.18862101 669.00305902 738.34968567 666.98916626 C733.64751926 666.45800213 728.94945081 665.90395486 724.25390625 665.31640625 C709.65017682 663.50644992 695.02476856 662.314767 680.34887695 661.27685547 C672.19628564 660.6931633 664.09453392 659.97412418 655.9835968 658.9630127 C650.1891648 658.25473772 644.38798154 657.75276791 638.5703125 657.27734375 C625.99284314 656.23087592 613.47673444 654.74524472 600.95068359 653.21069336 C597.18512318 652.74970903 593.41881075 652.29530825 589.65234375 651.84179688 C553.30764086 647.44145458 553.30764086 647.44145458 541.78515625 645.10546875 C534.18165428 643.66022409 526.41975862 643.31295341 518.71337891 642.72808838 C479.99852799 639.74824413 441.37387896 635.09852414 403.04446411 628.88575745 C392.15972333 627.12198439 381.2424148 625.64184573 370.3125 624.1875 C368.48566167 623.94266057 366.6588386 623.69770721 364.83203125 623.45263672 C344.70005213 620.75870329 324.56150581 618.12920783 304.375 615.875 C303.65753601 615.79396027 302.94007202 615.71292053 302.2008667 615.62942505 C287.42475098 613.9690983 272.74792558 613.00755354 257.875 613 C256.57884766 612.98775391 255.28269531 612.97550781 253.94726562 612.96289062 C247.37977348 612.95281263 241.58414258 613.18152583 235.3125 615.1875 Z M171.3125 775.1875 C171.13187012 775.80979492 170.95124023 776.43208984 170.76513672 777.07324219 C167.6341001 787.85286921 164.49528443 798.62914027 161.25 809.375 C156.98396378 823.54691695 152.86083163 837.73148335 149.34521484 852.10986328 C146.56775472 863.3656566 143.39084262 874.5149628 140.28369141 885.68310547 C138.8585492 890.8255115 137.46001302 895.97503124 136.0625 901.125 C133.58600418 910.23253677 131.01286358 919.30827677 128.390625 928.375 C125.97033722 936.78649196 123.67440008 945.22557899 121.4375 953.6875 C120.73536929 956.34010815 120.03224931 958.9924516 119.328125 961.64453125 C119.06894791 962.62079216 119.06894791 962.62079216 118.80453491 963.61677551 C117.78568612 967.44328626 116.74234108 971.26184546 115.671875 975.07421875 C112.63827962 985.88576021 110.00649725 996.72937712 107.62573242 1007.70385742 C105.87930831 1015.73336127 103.97500362 1023.71152384 102 1031.6875 C98.51415899 1045.86501695 95.54181397 1060.13911161 92.58764648 1074.43530273 C92.20826886 1076.27069089 91.82879427 1078.10605901 91.44921875 1079.94140625 C91.17270729 1081.27844856 91.17270729 1081.27844856 90.89060974 1082.64250183 C89.35728551 1090.02951001 87.73020466 1097.39209146 86.0625 1104.75 C83.95589779 1114.08572334 82.05294709 1123.44433219 80.27856445 1132.84863281 C78.64989662 1141.48050761 76.94311849 1150.09479748 75.21099854 1158.70635986 C74.31065942 1163.1858837 73.41555593 1167.66645614 72.52017212 1172.14697266 C72.38138641 1172.84145508 72.24260071 1173.5359375 72.09960938 1174.25146484 C71.96594971 1174.92030701 71.83229004 1175.58914917 71.69458008 1176.27825928 C71.34500367 1178.02508032 70.99387062 1179.77158966 70.64257812 1181.51806641 C66.1111589 1204.1120198 63.59308603 1226.13350381 66.3125 1249.1875 C73.03267213 1252.56764628 80.09019131 1253.72782793 87.4375 1255.125 C88.7919499 1255.38788918 90.14627835 1255.6514048 91.50048828 1255.91552734 C94.19673317 1256.43995501 96.89380751 1256.95972107 99.59179688 1257.47509766 C102.7661038 1258.08288162 105.93821156 1258.70029971 109.109375 1259.32421875 C118.83729263 1261.22626911 128.58901163 1262.94065672 138.37060547 1264.54296875 C144.60442115 1265.56461363 150.83153251 1266.61878928 157.0546875 1267.703125 C158.60009439 1267.97153574 160.14550456 1268.23992756 161.69091797 1268.50830078 C163.96736384 1268.90377617 166.24358019 1269.30036235 168.519104 1269.70111084 C176.89700856 1271.17594573 185.25833239 1272.47915783 193.70640564 1273.48179626 C198.40941976 1274.04818462 203.04064782 1274.81230153 207.69189453 1275.70068359 C212.52389828 1276.59830009 217.38771657 1277.28846439 222.25 1278 C223.41128418 1278.17031738 224.57256836 1278.34063477 225.76904297 1278.51611328 C228.95371549 1278.98062308 232.1387859 1279.44222089 235.32427979 1279.90106201 C236.64720876 1280.09165313 237.97008505 1280.28261038 239.29290771 1280.47393799 C261.58471768 1283.69708871 283.91412572 1286.54144289 306.27783203 1289.22021484 C307.30551193 1289.34389435 308.33319183 1289.46757385 309.39201355 1289.59500122 C311.32597229 1289.82748795 313.26013579 1290.05828004 315.1945343 1290.28707886 C319.27760902 1290.77802906 323.28668256 1291.33198945 327.3125 1292.1875 C328.74878457 1292.25016512 330.1875555 1292.27436347 331.625 1292.25 C333.4503125 1292.2190625 333.4503125 1292.2190625 335.3125 1292.1875 C335.75216502 1290.89656867 336.18905299 1289.60469164 336.625 1288.3125 C336.86863281 1287.59320312 337.11226562 1286.87390625 337.36328125 1286.1328125 C339.79109516 1278.59959568 341.96101767 1270.98735853 344.125 1263.375 C344.65881421 1261.5012907 345.1926694 1259.62759307 345.7265625 1257.75390625 C345.9937207 1256.81562988 346.26087891 1255.87735352 346.53613281 1254.91064453 C347.23797792 1252.4488897 347.94240597 1249.98790058 348.6484375 1247.52734375 C352.13173703 1235.38166179 355.56797847 1223.22274906 359 1211.0625 C359.24019867 1210.21198059 359.48039734 1209.36146118 359.72787476 1208.48516846 C362.84232236 1197.47410191 362.84232236 1197.47410191 365.87890625 1186.44140625 C389.82371193 1098.16562493 389.82371193 1098.16562493 415.3125 1081.1875 C416.17617187 1080.60871094 417.03984375 1080.02992188 417.9296875 1079.43359375 C437.17119328 1067.36202576 461.9743145 1063.88089442 484.1015625 1067.69140625 C487.14630192 1068.16182219 490.1134205 1068.39354925 493.1875 1068.5625 C506.96601238 1069.66550427 518.37149643 1074.69415767 530.3125 1081.1875 C531.23546875 1081.67863281 532.1584375 1082.16976563 533.109375 1082.67578125 C544.6964183 1088.95533659 544.6964183 1088.95533659 546.3125 1092.1875 C546.9725 1092.1875 547.6325 1092.1875 548.3125 1092.1875 C548.3125 1092.8475 548.3125 1093.5075 548.3125 1094.1875 C548.9725 1094.1875 549.6325 1094.1875 550.3125 1094.1875 C550.57546875 1094.75726562 550.8384375 1095.32703125 551.109375 1095.9140625 C552.39402349 1098.34154764 553.90452048 1100.37426577 555.5625 1102.5625 C571.22736871 1125.01981179 571.65197461 1154.3276673 573.16845703 1180.70758057 C573.31743936 1183.27253853 573.47075681 1185.83720873 573.625 1188.40185547 C573.99033685 1194.49644251 574.34136878 1200.59179429 574.6875 1206.6875 C574.78454224 1208.38283875 574.78454224 1208.38283875 574.88354492 1210.11242676 C575.81797507 1226.63795476 576.51786833 1243.16088333 577.0703125 1259.703125 C577.13332641 1261.5593291 577.19642653 1263.41553028 577.25961304 1265.27172852 C577.54100352 1273.58539911 577.81404733 1281.89903785 578.05431938 1290.21400833 C578.15748261 1293.69010797 578.27215475 1297.16576473 578.38952255 1300.64141083 C578.44197973 1302.27547113 578.48922598 1303.90970774 578.53104019 1305.54407501 C578.58895468 1307.79141868 578.664452 1310.03751839 578.74414062 1312.28417969 C578.78172485 1313.55058289 578.81930908 1314.81698608 578.85803223 1316.12176514 C579.07329979 1319.14405076 579.07329979 1319.14405076 580.63195801 1321.07868958 C583.49928516 1322.97053295 586.78492807 1322.95012046 590.125 1323.21484375 C590.91258194 1323.2884462 591.70016388 1323.36204865 592.51161194 1323.43788147 C595.11097786 1323.67873449 597.71158673 1323.90153505 600.3125 1324.125 C603.99923169 1324.46175347 607.68510517 1324.80756485 611.37109375 1325.15234375 C612.76792641 1325.28097305 612.76792641 1325.28097305 614.19297791 1325.41220093 C621.91476045 1326.12930652 629.61014178 1327.00820214 637.30859375 1327.93878174 C656.7696819 1330.2811711 676.28718711 1331.89026276 695.82122803 1333.48803711 C702.68055384 1334.04955703 709.53743773 1334.63528179 716.39347839 1335.23544312 C742.40590387 1337.51226742 768.39825559 1339.32533747 794.48461914 1340.49047852 C796.20459538 1340.56774796 797.92456619 1340.64513837 799.64453125 1340.72265625 C800.89731873 1340.77874557 800.89731873 1340.77874557 802.17541504 1340.83596802 C807.18145831 1341.06704187 812.1739114 1341.37629347 817.171875 1341.7421875 C824.37235496 1342.24454657 831.53463339 1342.30202427 838.75 1342.25 C839.97009766 1342.24548828 841.19019531 1342.24097656 842.44726562 1342.23632812 C845.40239933 1342.22473937 848.3574203 1342.20843061 851.3125 1342.1875 C852.26685775 1339.54680136 853.20048072 1336.90116287 854.125 1334.25 C854.38603516 1333.53392578 854.64707031 1332.81785156 854.91601562 1332.08007812 C859.65489732 1318.33147073 860.85831562 1303.72506211 861.875 1289.3125 C861.93564636 1288.4912262 861.99629272 1287.66995239 862.05877686 1286.8237915 C863.57356616 1266.3009187 864.49816861 1245.74842701 865.3125 1225.1875 C865.3404364 1224.48665283 865.3683728 1223.78580566 865.39715576 1223.0637207 C865.65113956 1216.65460747 865.88177474 1210.24515388 866.07714844 1203.83398438 C866.19390721 1200.00918734 866.31259854 1196.18452663 866.43934631 1192.36004639 C867.26763622 1167.26970405 867.4704534 1142.19877581 867.44287109 1117.09570312 C867.43718194 1111.86747125 867.44055492 1106.63929045 867.44632339 1101.41106033 C867.46736844 1078.71864909 867.28162624 1056.05175017 866.59315109 1033.36906147 C866.56033476 1032.28604645 866.56033476 1032.28604645 866.52685547 1031.18115234 C866.50562244 1030.48407512 866.48438942 1029.78699789 866.46251297 1029.06879711 C866.31400198 1023.93051556 866.27468066 1018.798765 866.30969238 1013.65870667 C866.3142095 1009.68283311 866.13028717 1005.72040509 865.9375 1001.75 C865.84632473 999.75260551 865.7551821 997.75520953 865.6640625 995.7578125 C865.58333496 994.02192871 865.58333496 994.02192871 865.50097656 992.25097656 C865.0961068 983.54271553 864.70372987 974.83388276 864.3125 966.125 C864.26837982 965.14567505 864.22425964 964.1663501 864.17880249 963.15734863 C863.5752453 949.71723811 863.05196827 936.27882606 862.63671875 922.83154297 C862.42038669 915.9639657 862.11782308 909.11255274 861.68725586 902.25537109 C861.39445028 897.34700986 861.21202268 892.43804846 861.0625 887.5234375 C861.04151245 886.83658371 861.0205249 886.14972992 860.99890137 885.44206238 C860.89486649 881.98959281 860.79659531 878.53705179 860.70507812 875.08422852 C860.51260801 868.39462569 860.18479182 861.8241869 859.3125 855.1875 C853.6876737 854.74775114 848.06265245 854.31055676 842.4375 853.875 C841.57016235 853.80780762 840.70282471 853.74061523 839.8092041 853.67138672 C827.10760209 852.68938486 814.40310727 851.76123662 801.69470215 850.87197876 C772.84954868 848.85035662 744.06229643 846.30120709 715.27734375 843.5625 C711.25827201 843.18237105 707.23864863 842.80875019 703.21875 842.4375 C681.37903002 840.41647376 681.37903002 840.41647376 671.06640625 839.33203125 C670.39899918 839.26196869 669.7315921 839.19190613 669.04396057 839.11972046 C665.86962532 838.78551843 662.69588748 838.44655175 659.52270508 838.1015625 C658.39888428 837.98167969 657.27506348 837.86179687 656.1171875 837.73828125 C654.64741455 837.57839722 654.64741455 837.57839722 653.14794922 837.4152832 C650.19073101 837.1777178 647.27794683 837.14879161 644.3125 837.1875 C643.09004561 839.63240878 643.0246178 841.52502026 642.8125 844.25390625 C642.6894751 845.80537354 642.6894751 845.80537354 642.56396484 847.38818359 C642.43948975 849.05228271 642.43948975 849.05228271 642.3125 850.75 C642.22564941 851.88518066 642.13879883 853.02036133 642.04931641 854.18994141 C641.7977207 857.52205035 641.5537797 860.85462998 641.3125 864.1875 C641.25030273 865.02490723 641.18810547 865.86231445 641.12402344 866.72509766 C640.65417076 873.15532703 640.2469479 879.54215335 640.39453125 885.9921875 C640.64555145 897.10174952 639.80910243 906.28609138 634.67578125 916.41796875 C633.16528766 918.97208431 633.16528766 918.97208431 633.3125 921.1875 C632.3225 921.5175 631.3325 921.8475 630.3125 922.1875 C630.3125 922.8475 630.3125 923.5075 630.3125 924.1875 C629.6525 924.1875 628.9925 924.1875 628.3125 924.1875 C627.31523838 925.36391042 626.36505133 926.58037957 625.4375 927.8125 C619.28807293 935.03807681 609.71818752 939.30485484 600.3125 940.1875 C585.79302578 941.11489157 573.24242597 939.2816239 561.3125 930.1875 C554.65221381 924.13366159 550.30332736 917.65787238 547.3125 909.1875 C547.05283447 908.56117676 546.79316895 907.93485352 546.52563477 907.28955078 C543.2931026 898.48674974 543.90189698 889.29879248 544 880.0625 C544.00865325 878.26619557 544.01711561 876.4698902 544.02539062 874.67358398 C544.1120803 863.02134375 544.6369851 851.50237758 545.875 839.91015625 C546.35885142 835.31451274 546.38707681 830.80660145 546.3125 826.1875 C545.74442627 826.1373877 545.17635254 826.08727539 544.59106445 826.03564453 C534.81372534 825.16395616 525.11195635 824.24173783 515.42578125 822.62109375 C510.58281156 821.94660236 505.71897485 821.74959352 500.83984375 821.47265625 C496.94367977 821.15768397 493.25652844 820.50211736 489.4609375 819.58984375 C487.02327318 819.1333357 484.78712439 819.05658984 482.3125 819.1875 C480.39458268 821.10541732 480.63403023 824.50848417 480.296875 827.1328125 C480.09888939 828.60626854 479.9003815 830.07965447 479.70141602 831.55297852 C479.59757599 832.32989044 479.49373596 833.10680237 479.38674927 833.90725708 C471.84283635 889.8671156 471.84283635 889.8671156 459.3125 904.1875 C459.3125 904.8475 459.3125 905.5075 459.3125 906.1875 C458.3225 906.5175 457.3325 906.8475 456.3125 907.1875 C455.29230427 908.1668879 454.29100195 909.16645449 453.3125 910.1875 C452.6525 910.5175 451.9925 910.8475 451.3125 911.1875 C451.3125 911.8475 451.3125 912.5075 451.3125 913.1875 C450.61125 913.455625 449.91 913.72375 449.1875 914 C446.28508902 915.13855779 446.28508902 915.13855779 443.5625 916.6875 C430.84602307 922.5566432 417.4705543 921.75904504 404.5 917.3125 C400.30751809 915.71935687 396.94077341 913.79241424 393.3125 911.1875 C392.6525 911.1875 391.9925 911.1875 391.3125 911.1875 C391.3125 910.5275 391.3125 909.8675 391.3125 909.1875 C390.466875 908.56875 389.62125 907.95 388.75 907.3125 C381.14284181 901.18350999 376.64272265 890.68740865 375.3125 881.1875 C374.31529379 871.08095464 375.21571135 862.17820022 378.24316406 852.51489258 C380.32467769 845.70166811 381.50402506 838.85165851 382.5625 831.8125 C382.72524414 830.74322266 382.88798828 829.67394531 383.05566406 828.57226562 C384.09133826 821.46107593 384.79588318 814.35435503 385.3125 807.1875 C380.15786202 805.22357873 375.15401782 804.48873506 369.71875 803.8203125 C368.78707001 803.70076706 367.85539001 803.58122162 366.89547729 803.45805359 C363.86848084 803.07078187 360.84051409 802.69172445 357.8125 802.3125 C355.72077892 802.04584729 353.62914509 801.77850939 351.53759766 801.51049805 C347.37985267 800.97811642 343.22180817 800.44818964 339.06347656 799.92041016 C317.5243919 797.18178956 296.03504528 794.20335371 274.58984375 790.80859375 C273.79798676 790.68324753 273.00612976 790.55790131 272.1902771 790.42875671 C268.88109693 789.90475263 265.57193477 789.38064498 262.26306152 788.85470581 C250.24043271 786.94373717 238.21148216 785.09993652 226.15795898 783.39282227 C225.14161377 783.24643311 224.12526855 783.10004395 223.078125 782.94921875 C222.19930664 782.82506592 221.32048828 782.70091309 220.41503906 782.57299805 C218.3125 782.1875 218.3125 782.1875 216.3125 781.1875 C214.32881984 780.84997337 212.33754786 780.55659926 210.34375 780.28515625 C209.13203125 780.11693359 207.9203125 779.94871094 206.671875 779.77539062 C205.39828125 779.60201172 204.1246875 779.42863281 202.8125 779.25 C188.79467792 777.33781784 188.79467792 777.33781784 182.84375 776.05859375 C178.90031122 775.22229299 175.33613664 775.01255928 171.3125 775.1875 Z " fill="#101010" transform="translate(856.6875,418.8125)"/>
<path d="M0 0 C0.8146875 0.31582031 1.629375 0.63164063 2.46875 0.95703125 C16.03833826 6.67191554 24.43822882 16.50006449 30 30 C34.10357035 41.49308237 35.22479787 54.72543618 30 66 C29.36191406 67.45019531 29.36191406 67.45019531 28.7109375 68.9296875 C25.71797399 75.34775364 22.38817509 81.27840327 17 86 C16.34 86 15.68 86 15 86 C14.67 86.99 14.34 87.98 14 89 C11.8828125 90.46484375 11.8828125 90.46484375 9.125 91.9375 C8.24070312 92.42089844 7.35640625 92.90429688 6.4453125 93.40234375 C-4.73093743 98.58498119 -16.52270692 101.27659422 -28.4375 104.1875 C-30.38499488 104.66785791 -32.33234022 105.14882248 -34.27954102 105.63037109 C-38.24435134 106.61037737 -42.20983349 107.58759596 -46.17578125 108.56298828 C-51.6937777 109.92199185 -57.20711993 111.29902134 -62.71875 112.68359375 C-63.55108658 112.89257797 -64.38342316 113.10156219 -65.24098206 113.31687927 C-68.41036754 114.11286682 -71.57966246 114.90921255 -74.74874878 115.70639038 C-76.89341501 116.24549654 -79.03845724 116.78308116 -81.18359375 117.3203125 C-82.38556396 117.62211426 -83.58753418 117.92391602 -84.82592773 118.23486328 C-102.5025443 122.49595984 -116.34612907 119.32794841 -132 111 C-132 110.34 -132 109.68 -132 109 C-132.73089844 108.78601563 -133.46179688 108.57203125 -134.21484375 108.3515625 C-141.31406203 104.90650005 -147.35965824 94.35049917 -150 87 C-154.50511614 73.23960343 -153.63449292 59.33327453 -148 46 C-144.81174015 40.03242574 -141.2461174 34.34678299 -136 30 C-135.34 30 -134.68 30 -134 30 C-134 29.34 -134 28.68 -134 28 C-131.61061254 26.73629315 -129.21445503 25.48943516 -126.8125 24.25 C-126.15830078 23.90195312 -125.50410156 23.55390625 -124.83007812 23.1953125 C-110.55903897 15.89070478 -94.03889219 13.27936718 -78.5625 9.625 C-73.87526577 8.51733713 -69.18902787 7.40562801 -64.50390625 6.2890625 C-62.7898056 5.88218452 -62.7898056 5.88218452 -61.04107666 5.46708679 C-55.59024574 4.15924274 -50.16864473 2.79453926 -44.77441406 1.26879883 C-43.79512436 0.99188202 -42.81583466 0.71496521 -41.80686951 0.42965698 C-40.00758955 -0.08649915 -38.2113349 -0.61340367 -36.41932678 -1.15426636 C-24.53543746 -4.58308236 -11.41919767 -5.03369617 0 0 Z " fill="#101010" transform="translate(364,883)"/>
<path d="M0 0 C0.71027344 0.41378906 1.42054688 0.82757812 2.15234375 1.25390625 C3.81046967 2.28133397 5.43947093 3.35548062 7.0625 4.4375 C7.0625 5.0975 7.0625 5.7575 7.0625 6.4375 C7.990625 6.80875 7.990625 6.80875 8.9375 7.1875 C11.46608627 8.67490369 11.78089004 9.87428009 13.0625 12.4375 C13.701875 12.73785156 14.34125 13.03820312 15 13.34765625 C20.77885329 16.40125486 23.17711147 27.51578673 25.0625 33.4375 C28.33112048 46.36340825 26.12460077 58.88231224 20.125 70.4375 C19.77695313 71.10974609 19.42890625 71.78199219 19.0703125 72.47460938 C16.43454211 77.31348596 16.43454211 77.31348596 13.0625 78.4375 C12.38243376 79.76404896 11.71745414 81.09837443 11.0625 82.4375 C-0.49400718 94.02045228 -16.476206 97.13178251 -31.8125 100.5 C-33.74913482 100.93652968 -35.68549449 101.37428181 -37.62158203 101.81323242 C-43.05600404 103.04072895 -48.4956048 104.24362612 -53.9375 105.4375 C-55.22398438 105.72044922 -56.51046875 106.00339844 -57.8359375 106.29492188 C-61.7088666 107.14356251 -65.58150553 107.99182239 -69.46191406 108.80566406 C-73.75474673 109.71019592 -77.99869861 110.6989726 -82.234375 111.84375 C-99.22824161 116.38289917 -117.42128423 119.058793 -133.4453125 110.0234375 C-147.74977548 100.92059742 -155.62267194 88.86587456 -159.3984375 72.4765625 C-161.96354757 58.01528981 -157.52175587 44.53635068 -149.4375 32.5625 C-147.29052636 29.67495633 -144.82015797 27.59949348 -141.9375 25.4375 C-141.6075 24.7775 -141.2775 24.1175 -140.9375 23.4375 C-135.51442308 20.4375 -135.51442308 20.4375 -132.9375 20.4375 C-132.9375 19.7775 -132.9375 19.1175 -132.9375 18.4375 C-124.70833667 15.02593299 -116.81473402 12.5340117 -108.0625 10.9375 C-97.81434177 8.97177304 -87.68331715 6.67731107 -77.5546875 4.1640625 C-75.13008009 3.56821892 -72.70543776 2.9725174 -70.28076172 2.37695312 C-66.6417442 1.48216315 -63.00555914 0.57991154 -59.37506104 -0.34887695 C-18.26947695 -10.85281778 -18.26947695 -10.85281778 0 0 Z " fill="#101010" transform="translate(1478.9375,621.5625)"/>
<path d="M0 0 C0.763125 0.21011719 1.52625 0.42023438 2.3125 0.63671875 C13.90019836 4.44357478 24.31573775 14.3644033 30 25 C35.51411328 37.57217828 37.67908391 52.65044707 32.92578125 65.8515625 C30.93044959 70.48207902 28.79934461 74.80098309 26 79 C25.34 79 24.68 79 24 79 C23.6596875 80.2375 23.6596875 80.2375 23.3125 81.5 C22.03437892 84.90832287 20.51728342 87.51099722 18.55078125 90.5390625 C16.62400704 93.59666389 14.84221825 96.73063484 13.0625 99.875 C10.71750693 104.01106371 8.34422359 108.12397457 5.875 112.1875 C3.82143585 115.57865594 1.88335269 119.01140629 0 122.5 C-0.99819701 124.33431563 -1.99815332 126.16767515 -3 128 C-3.44859375 128.82371094 -3.8971875 129.64742187 -4.359375 130.49609375 C-12.02862594 143.96036858 -21.91905248 155.30624279 -37.02734375 160.21484375 C-50.62793435 163.80711538 -64.48827907 164.19306803 -77 157 C-91.06934992 148.45957522 -91.06934992 148.45957522 -92.875 143.6875 C-92.91625 143.130625 -92.9575 142.57375 -93 142 C-93.66 142 -94.32 142 -95 142 C-103.99665886 129.99610141 -106.00303074 116.71648775 -104.5 102 C-103.24512315 94.20562408 -99.85694298 87.78574459 -96 81 C-95.34 81 -94.68 81 -94 81 C-93.92136719 80.32195312 -93.84273438 79.64390625 -93.76171875 78.9453125 C-92.78087252 75.15270709 -90.87891789 72.15353203 -88.8125 68.875 C-87.98910301 67.53885718 -87.16749749 66.20160878 -86.34765625 64.86328125 C-85.94562988 64.2079541 -85.54360352 63.55262695 -85.12939453 62.87744141 C-83.58800632 60.31512507 -82.16177399 57.69805719 -80.75 55.0625 C-78.70889955 51.25581955 -76.53387557 47.59288784 -74.2109375 43.953125 C-72.92423097 41.87779189 -71.73749814 39.76544247 -70.5625 37.625 C-64.9805902 27.47607308 -59.73218303 17.9693384 -50.76953125 10.48046875 C-48.91034896 8.96941068 -48.91034896 8.96941068 -47 7 C-46.01 7 -45.02 7 -44 7 C-44 6.34 -44 5.68 -44 5 C-30.19999219 -1.8651554 -14.9954586 -4.71364599 0 0 Z " fill="#101010" transform="translate(601,1213)"/>
<path d="M0 0 C15.37184661 -0.54173909 27.7767013 5.76336919 41.40087891 12.06347656 C45.03005148 13.72273282 48.69411622 15.29755813 52.359375 16.875 C57.88758937 19.27142044 63.29652746 21.84066847 68.65625 24.59375 C71.11009884 25.81468942 73.56406267 26.97090708 76.0625 28.09375 C92.03830569 35.29667399 105.80756488 45.10790714 112.59912109 62.03076172 C115.53911609 69.95537579 117.89040905 77.66428519 116.859375 86.1875 C116.75238281 87.15171875 116.64539063 88.1159375 116.53515625 89.109375 C114.62395688 102.92611909 108.85750211 114.69170732 97.96875 123.66015625 C94.45033807 126.20774711 90.72644227 128.22510765 86.859375 130.1875 C85.828125 130.765 84.796875 131.3425 83.734375 131.9375 C73.87342508 136.22486953 57.11727227 135.95086972 47.0546875 132.234375 C41.63528282 129.65003256 36.65521473 126.5850592 31.91796875 122.8984375 C26.45569116 118.9752547 20.2102832 116.44857664 14.109375 113.6875 C12.88510917 113.1269732 11.66114866 112.56577907 10.4375 112.00390625 C5.88813303 109.92041384 1.33141413 107.85343355 -3.22753906 105.79101562 C-34.23174792 91.74936982 -34.23174792 91.74936982 -41.140625 78.1875 C-41.140625 77.5275 -41.140625 76.8675 -41.140625 76.1875 C-41.800625 76.1875 -42.460625 76.1875 -43.140625 76.1875 C-50.05558965 60.71274902 -51.06182572 46.08676855 -45.015625 30.1875 C-41.03518969 21.10603762 -34.82144382 13.20036721 -26.140625 8.1875 C-25.480625 8.1875 -24.820625 8.1875 -24.140625 8.1875 C-24.140625 7.5275 -24.140625 6.8675 -24.140625 6.1875 C-15.80837133 2.74536472 -8.90696073 0.53175885 0 0 Z " fill="#101010" transform="translate(350.140625,450.8125)"/>
<path d="M0 0 C10.04083077 -0.49139465 20.49113485 2.51406007 28.76953125 8.1953125 C29.82527344 8.91654297 29.82527344 8.91654297 30.90234375 9.65234375 C42.00399962 17.68693198 49.42247831 28.52290551 52.14453125 42.0078125 C54.10224145 56.73815622 50.8015626 70.70104151 42.76953125 83.1953125 C42.10953125 83.1953125 41.44953125 83.1953125 40.76953125 83.1953125 C40.56328125 83.8759375 40.35703125 84.5565625 40.14453125 85.2578125 C38.6411171 88.46965182 36.85010644 90.58946241 34.51171875 93.21875 C31.10713735 97.08134683 27.95459297 101.15152746 24.76953125 105.1953125 C23.93881104 106.24912109 23.93881104 106.24912109 23.09130859 107.32421875 C21.20933791 109.71573387 19.33252458 112.11121508 17.45703125 114.5078125 C16.84601563 115.28487549 16.235 116.06193848 15.60546875 116.86254883 C12.7459261 120.52851738 10.0321338 124.12126077 7.76953125 128.1953125 C0.05574075 141.77670193 -7.52490574 150.90540832 -22.23046875 157.1953125 C-22.89175781 157.494375 -23.55304688 157.7934375 -24.234375 158.1015625 C-35.28189978 162.49615799 -48.16069844 160.68216052 -59.23046875 157.1953125 C-64.97049817 154.65289252 -70.68445478 151.58456736 -75.23046875 147.1953125 C-75.23046875 146.5353125 -75.23046875 145.8753125 -75.23046875 145.1953125 C-75.86984375 144.9271875 -76.50921875 144.6590625 -77.16796875 144.3828125 C-79.23046875 143.1953125 -79.23046875 143.1953125 -80.23046875 140.1953125 C-80.89046875 140.1953125 -81.55046875 140.1953125 -82.23046875 140.1953125 C-83.60534411 137.54376717 -84.9340061 134.88525201 -86.23046875 132.1953125 C-86.58882812 131.47085938 -86.9471875 130.74640625 -87.31640625 130 C-93.801466 115.61584491 -93.46503097 98.89151021 -88.23046875 84.1953125 C-85.54500336 78.07898637 -81.69784853 73.05876369 -77.46875 67.9296875 C-74.98873063 64.89999543 -72.60527825 61.80753894 -70.23046875 58.6953125 C-66.54992679 53.88316222 -62.79448017 49.14036299 -58.984375 44.4296875 C-57.35740267 42.35701897 -55.84555737 40.24245334 -54.35546875 38.0703125 C-53.65421875 37.1215625 -52.95296875 36.1728125 -52.23046875 35.1953125 C-51.57046875 35.1953125 -50.91046875 35.1953125 -50.23046875 35.1953125 C-50.02421875 34.5353125 -49.81796875 33.8753125 -49.60546875 33.1953125 C-46.69605425 26.84749904 -41.41917336 19.22982617 -35.04296875 16.1328125 C-33.0653966 15.34496994 -33.0653966 15.34496994 -32.359375 13.30859375 C-31.01932466 10.8000566 -29.76480782 9.91819148 -27.35546875 8.4453125 C-26.67742187 8.01734375 -25.999375 7.589375 -25.30078125 7.1484375 C-23.23046875 6.1953125 -23.23046875 6.1953125 -19.23046875 6.1953125 C-19.23046875 5.5353125 -19.23046875 4.8753125 -19.23046875 4.1953125 C-12.8121917 1.83302997 -6.79357196 0.59488371 0 0 Z " fill="#101010" transform="translate(1169.23046875,254.8046875)"/>
<path d="M0 0 C0.47308594 0.37898437 0.94617188 0.75796875 1.43359375 1.1484375 C1.43359375 1.8084375 1.43359375 2.4684375 1.43359375 3.1484375 C1.99046875 3.3546875 2.54734375 3.5609375 3.12109375 3.7734375 C6.40371746 5.72526782 8.14032621 8.09074744 10.43359375 11.1484375 C10.43359375 11.8084375 10.43359375 12.4684375 10.43359375 13.1484375 C11.09359375 13.1484375 11.75359375 13.1484375 12.43359375 13.1484375 C17.9104404 23.51142207 20.5701112 33.78140472 23.05859375 45.1484375 C23.79372431 48.44171943 24.53711612 51.73306524 25.28515625 55.0234375 C25.46416977 55.81469528 25.64318329 56.60595306 25.82762146 57.42118835 C27.14850548 63.16174723 28.76076368 68.76632847 30.55859375 74.37744141 C36.86346068 94.34402614 38.80731391 113.04512951 28.80859375 132.2734375 C28.35484375 132.8921875 27.90109375 133.5109375 27.43359375 134.1484375 C26.77359375 134.1484375 26.11359375 134.1484375 25.43359375 134.1484375 C25.43359375 135.1384375 25.43359375 136.1284375 25.43359375 137.1484375 C17.20258934 146.70702326 6.56880603 153.08536945 -5.56640625 156.1484375 C-6.70722656 156.43654297 -6.70722656 156.43654297 -7.87109375 156.73046875 C-23.00586777 159.07745545 -36.17698048 154.29835664 -48.56640625 146.1484375 C-48.56640625 145.4884375 -48.56640625 144.8284375 -48.56640625 144.1484375 C-49.30761719 143.92285156 -50.04882812 143.69726562 -50.8125 143.46484375 C-54.1867614 141.85189894 -55.47821437 140.12598109 -57.62890625 137.0859375 C-58.27988281 136.18746094 -58.93085937 135.28898438 -59.6015625 134.36328125 C-64.56787119 126.23749188 -66.90419866 117.79972646 -69.12890625 108.5859375 C-69.56493164 106.84473633 -69.56493164 106.84473633 -70.00976562 105.06835938 C-71.54085161 98.84468323 -72.88120879 92.61665219 -74.01171875 86.30859375 C-75.01694655 80.70991309 -76.24798313 75.2157703 -77.6796875 69.7109375 C-78.04366057 68.28646875 -78.40759275 66.86198956 -78.77148438 65.4375 C-79.32195813 63.28847396 -79.88034297 61.14317011 -80.46411133 59.00292969 C-84.26093541 44.99027082 -84.67592785 31.39800047 -77.56640625 18.1484375 C-75.70506299 15.03619152 -73.69716096 12.08115208 -71.56640625 9.1484375 C-70.70015625 7.8490625 -70.70015625 7.8490625 -69.81640625 6.5234375 C-66.21790391 2.72501836 -61.93041838 0.00104449 -57.56640625 -2.8515625 C-56.97730469 -3.25761719 -56.38820313 -3.66367188 -55.78125 -4.08203125 C-38.17704841 -15.37121212 -16.51640771 -10.10945813 0 0 Z " fill="#101010" transform="translate(751.56640625,190.8515625)"/>
<path d="M0 0 C6.625 0.75 6.625 0.75 10 3 C8.72125 3.061875 7.4425 3.12375 6.125 3.1875 C5.40570312 3.22230469 4.68640625 3.25710938 3.9453125 3.29296875 C3.30335937 3.19628906 2.66140625 3.09960938 2 3 C1.34 2.01 0.68 1.02 0 0 Z " fill="#0E0E0E" transform="translate(1265,1119)"/>
<path d="M0 0 C4.875 1.75 4.875 1.75 6 4 C4.125 3.6875 4.125 3.6875 2 3 C1.34 2.01 0.68 1.02 0 0 Z " fill="#060606" transform="translate(1360,1062)"/>
<path d="M0 0 C2.475 0.99 2.475 0.99 5 2 C4.01 2.495 4.01 2.495 3 3 C2.01 2.01 1.02 1.02 0 0 Z " fill="#050505" transform="translate(1256,1080)"/>
<path d="M0 0 C0.33 0.66 0.66 1.32 1 2 C0.01 2.99 -0.98 3.98 -2 5 C-1.34 3.35 -0.68 1.7 0 0 Z " fill="#070707" transform="translate(1102,1063)"/>
<path d="" fill="#000000" transform="translate(0,0)"/>
<path d="" fill="#000000" transform="translate(0,0)"/>
<path d="" fill="#000000" transform="translate(0,0)"/>
<path d="" fill="#000000" transform="translate(0,0)"/>
<path d="" fill="#000000" transform="translate(0,0)"/>
</svg>
