<?xml version="1.0" encoding="UTF-8"?>
<!-- Generator: visioncortex VTracer 0.6.12 -->
<svg version="1.1" xmlns="http://www.w3.org/2000/svg" width="2048" height="2048">
<path d="M0,0 L36,0 L57,2 L75,4 L97,8 L113,12 L138,19 L155,25 L177,34 L193,42 L199,45 L212,52 L230,63 L250,77 L250,79 L254,80 L261,86 L264,88 L264,90 L269,92 L274,97 L286,108 L292,113 L297,118 L306,128 L309,131 L309,133 L312,134 L313,138 L317,140 L330,157 L332,162 L335,163 L339,170 L339,172 L341,172 L348,184 L348,186 L350,186 L360,204 L368,219 L374,231 L380,247 L386,262 L390,275 L398,305 L402,325 L405,345 L406,361 L407,369 L407,418 L405,436 L401,463 L395,489 L391,503 L385,522 L417,526 L437,529 L465,533 L542,542 L551,542 L582,546 L601,549 L677,558 L715,561 L773,567 L804,571 L837,576 L858,580 L874,585 L891,591 L905,599 L911,603 L911,605 L916,607 L927,617 L937,631 L945,645 L951,661 L958,687 L964,719 L968,751 L973,792 L975,813 L977,846 L979,871 L982,941 L983,986 L984,1009 L985,1035 L986,1074 L986,1130 L985,1178 L984,1217 L983,1248 L980,1306 L978,1330 L970,1398 L966,1411 L960,1421 L954,1428 L946,1434 L938,1438 L926,1441 L909,1442 L899,1443 L869,1444 L815,1443 L786,1442 L743,1440 L691,1437 L652,1434 L598,1428 L558,1423 L538,1419 L524,1412 L515,1406 L508,1397 L503,1387 L500,1373 L498,1348 L497,1323 L496,1311 L494,1267 L492,1206 L490,1181 L481,1212 L474,1236 L470,1249 L464,1271 L457,1298 L449,1326 L442,1348 L437,1363 L429,1379 L422,1388 L414,1394 L397,1400 L389,1401 L378,1401 L354,1399 L308,1394 L278,1390 L259,1387 L231,1383 L210,1379 L192,1376 L179,1373 L161,1370 L136,1365 L106,1359 L71,1351 L48,1346 L38,1343 L13,1335 L1,1331 L-10,1323 L-18,1314 L-23,1304 L-26,1293 L-26,1276 L-17,1199 L-11,1168 L-8,1150 L-3,1126 L2,1098 L7,1074 L16,1031 L25,993 L38,942 L42,927 L46,913 L52,889 L60,860 L66,840 L72,817 L79,793 L83,779 L84,775 L77,777 L48,780 L29,781 L-8,781 L-34,778 L-59,774 L-81,769 L-102,763 L-110,760 L-120,757 L-130,753 L-138,749 L-151,744 L-168,735 L-182,727 L-200,716 L-202,714 L-211,708 L-226,697 L-226,695 L-231,693 L-231,691 L-233,691 L-237,687 L-239,686 L-239,684 L-243,682 L-253,673 L-260,667 L-267,659 L-272,654 L-272,652 L-275,651 L-284,640 L-285,637 L-287,637 L-289,632 L-291,632 L-295,626 L-299,621 L-299,618 L-302,617 L-303,613 L-305,613 L-311,603 L-315,598 L-315,594 L-317,594 L-327,576 L-333,566 L-338,553 L-343,544 L-349,527 L-357,505 L-364,480 L-369,453 L-371,435 L-373,419 L-374,389 L-373,363 L-370,335 L-366,312 L-360,287 L-355,270 L-347,248 L-338,226 L-330,211 L-323,197 L-313,181 L-309,175 L-298,159 L-289,147 L-287,147 L-285,143 L-277,133 L-275,133 L-273,129 L-272,127 L-270,127 L-269,124 L-267,124 L-265,120 L-263,120 L-261,116 L-256,111 L-250,105 L-248,105 L-248,103 L-246,103 L-244,99 L-241,99 L-239,95 L-231,89 L-228,86 L-226,86 L-225,83 L-220,80 L-214,75 L-211,75 L-210,72 L-201,66 L-196,63 L-187,57 L-178,52 L-156,40 L-138,32 L-126,27 L-107,20 L-91,15 L-69,9 L-46,5 L-16,1 Z M-2,103 L-15,104 L-43,109 L-64,114 L-73,117 L-86,121 L-101,128 L-117,135 L-126,141 L-135,146 L-145,152 L-145,154 L-150,156 L-167,169 L-175,176 L-184,184 L-189,189 L-193,194 L-198,199 L-203,205 L-203,207 L-206,208 L-209,213 L-214,218 L-220,227 L-227,237 L-233,248 L-244,268 L-254,293 L-259,308 L-265,331 L-269,355 L-271,373 L-271,409 L-269,425 L-265,450 L-260,471 L-257,479 L-250,500 L-243,514 L-239,523 L-233,533 L-232,537 L-230,537 L-228,542 L-224,548 L-223,551 L-221,551 L-219,556 L-213,565 L-208,570 L-205,575 L-200,580 L-196,585 L-193,587 L-192,590 L-184,597 L-180,601 L-178,601 L-176,605 L-163,616 L-158,619 L-157,621 L-150,625 L-136,635 L-126,641 L-114,647 L-99,654 L-88,659 L-70,665 L-61,668 L-48,671 L-23,676 L0,678 L12,679 L36,678 L64,675 L80,672 L94,668 L114,662 L123,658 L133,633 L142,611 L153,588 L161,572 L171,557 L179,547 L185,542 L185,540 L189,538 L198,531 L215,522 L231,517 L245,514 L255,513 L278,512 L282,503 L288,488 L294,469 L298,452 L302,432 L304,414 L305,395 L305,383 L303,359 L300,338 L297,322 L289,296 L282,279 L279,270 L277,270 L276,266 L271,256 L270,252 L268,252 L266,247 L260,236 L254,228 L251,223 L241,210 L231,199 L224,191 L221,187 L219,187 L218,184 L210,177 L199,167 L196,166 L192,162 L182,155 L167,145 L153,137 L138,129 L114,120 L106,117 L90,112 L68,107 L43,104 L28,103 Z M261,613 L253,615 L253,617 L251,617 L243,630 L235,646 L224,674 L222,678 L223,682 L242,685 L254,687 L283,692 L318,697 L330,699 L391,707 L432,712 L461,716 L546,726 L631,736 L697,743 L726,746 L764,750 L792,752 L827,755 L841,756 L856,757 L867,757 L867,748 L861,713 L857,698 L852,685 L841,680 L829,677 L791,671 L749,666 L723,663 L684,660 L667,658 L644,656 L586,649 L565,646 L554,644 L507,640 L449,633 L410,627 L388,624 L342,618 L306,614 L291,613 Z M189,775 L182,799 L176,819 L170,840 L165,860 L157,889 L151,911 L147,925 L143,939 L135,969 L129,991 L123,1018 L116,1047 L107,1090 L101,1117 L96,1143 L89,1178 L85,1199 L83,1216 L83,1239 L84,1249 L91,1252 L121,1258 L142,1262 L166,1266 L201,1272 L217,1274 L228,1276 L255,1280 L291,1285 L340,1291 L345,1292 L353,1292 L356,1283 L359,1273 L365,1252 L371,1231 L382,1192 L385,1181 L394,1150 L401,1130 L410,1109 L419,1094 L425,1087 L433,1081 L445,1074 L461,1069 L480,1066 L492,1066 L505,1068 L517,1069 L532,1073 L548,1081 L557,1086 L563,1090 L564,1092 L566,1092 L566,1094 L568,1094 L570,1098 L577,1108 L583,1122 L588,1145 L590,1166 L591,1183 L594,1238 L597,1319 L600,1322 L640,1326 L675,1330 L722,1334 L757,1337 L785,1339 L827,1341 L842,1342 L869,1342 L875,1324 L878,1307 L881,1268 L883,1225 L884,1196 L885,1159 L885,1062 L884,1023 L884,1011 L883,988 L881,943 L880,913 L879,895 L878,864 L877,855 L838,852 L796,849 L761,846 L729,843 L697,840 L668,837 L662,837 L661,839 L659,864 L658,881 L658,900 L654,913 L651,919 L651,921 L648,922 L648,924 L646,924 L639,932 L627,938 L618,940 L601,940 L589,936 L579,930 L570,920 L565,909 L562,899 L562,859 L564,835 L564,826 L543,824 L530,822 L515,821 L505,819 L500,819 L499,820 L494,855 L489,878 L483,896 L477,904 L477,906 L474,907 L471,910 L469,911 L469,913 L464,915 L458,918 L449,920 L439,921 L428,919 L417,915 L411,911 L409,911 L409,909 L403,904 L396,892 L393,881 L393,863 L398,845 L402,819 L403,807 L397,805 L351,799 L321,795 L301,792 L263,786 L236,782 L234,781 L206,777 L196,775 Z " fill="#101010" transform="translate(839,419)"/>
<path d="M0,0 L21,0 L29,3 L38,7 L46,13 L53,21 L59,33 L62,45 L62,60 L59,69 L53,81 L46,89 L44,89 L43,92 L32,98 L21,102 L-23,113 L-59,122 L-64,123 L-80,123 L-89,121 L-103,114 L-103,112 L-108,110 L-117,98 L-121,90 L-124,77 L-123,62 L-119,49 L-112,38 L-107,33 L-105,33 L-105,31 L-89,23 L-76,19 L-22,6 Z " fill="#101010" transform="translate(335,880)"/>
<path d="M0,0 L21,0 L31,3 L40,8 L43,10 L43,12 L47,14 L49,18 L53,20 L57,28 L61,39 L62,44 L62,59 L60,68 L52,83 L49,84 L47,88 L38,95 L25,101 L-18,111 L-41,116 L-62,121 L-83,121 L-95,117 L-100,114 L-110,106 L-117,96 L-121,87 L-124,75 L-124,64 L-121,52 L-116,42 L-111,35 L-106,31 L-105,29 L-99,26 L-97,26 L-97,24 L-84,19 L-55,13 Z " fill="#101010" transform="translate(1443,616)"/>
<path d="M0,0 L14,0 L23,2 L33,6 L46,17 L53,27 L57,38 L58,43 L58,60 L55,70 L51,78 L49,81 L47,81 L45,87 L40,95 L32,109 L26,119 L20,130 L14,140 L4,152 L-6,159 L-17,163 L-31,165 L-45,163 L-54,159 L-63,153 L-69,148 L-70,144 L-72,144 L-78,134 L-81,125 L-82,111 L-80,97 L-73,83 L-71,83 L-70,78 L-61,63 L-55,52 L-50,44 L-45,35 L-39,25 L-34,18 L-26,11 L-24,9 L-21,9 L-21,7 L-12,3 Z " fill="#101010" transform="translate(578,1211)"/>
<path d="M0,0 L14,0 L27,4 L47,13 L63,20 L75,26 L92,34 L101,41 L109,50 L115,60 L120,76 L120,86 L118,98 L114,108 L107,118 L99,125 L90,130 L84,133 L77,134 L58,134 L48,131 L38,125 L31,120 L3,107 L-8,102 L-22,95 L-29,90 L-34,85 L-38,78 L-38,76 L-40,76 L-44,66 L-46,55 L-46,46 L-44,36 L-39,24 L-31,14 L-23,8 L-21,8 L-21,6 L-8,1 Z " fill="#101010" transform="translate(347,451)"/>
<path d="M0,0 L10,0 L24,4 L31,8 L40,15 L48,25 L53,36 L55,48 L54,62 L49,76 L45,83 L43,83 L41,88 L35,95 L27,105 L13,123 L10,128 L3,140 L-2,146 L-12,153 L-20,157 L-29,160 L-43,160 L-57,157 L-68,151 L-73,147 L-73,145 L-77,143 L-78,140 L-80,140 L-84,132 L-88,122 L-90,106 L-89,95 L-86,84 L-81,75 L-73,65 L-63,52 L-55,42 L-50,35 L-48,35 L-46,30 L-40,22 L-35,17 L-31,15 L-29,11 L-21,6 L-17,6 L-17,4 L-8,1 Z " fill="#101010" transform="translate(1167,255)"/>
<path d="M0,0 L14,0 L23,2 L32,6 L40,11 L40,13 L44,15 L49,21 L49,23 L51,23 L57,36 L66,74 L70,87 L74,104 L75,114 L73,129 L69,139 L66,144 L64,144 L64,147 L59,152 L50,159 L43,163 L33,166 L28,167 L20,167 L4,164 L-10,156 L-10,154 L-15,152 L-23,141 L-27,132 L-34,104 L-37,88 L-45,54 L-43,38 L-39,28 L-33,19 L-29,14 L-19,7 L-12,3 Z " fill="#101010" transform="translate(713,181)"/>
<path d="M0,0 L7,1 L10,3 L2,3 Z " fill="#0E0E0E" transform="translate(1265,1119)"/>
<path d="M0,0 L5,2 L6,4 L2,3 Z " fill="#060606" transform="translate(1360,1062)"/>
<path d="M0,0 L5,2 L3,3 Z " fill="#050505" transform="translate(1256,1080)"/>
<path d="M0,0 L1,2 L-2,5 Z " fill="#070707" transform="translate(1102,1063)"/>
<path d="M0,0 Z " fill="#000000" transform="translate(1098,1070)"/>
<path d="M0,0 Z " fill="#000000" transform="translate(1099,1068)"/>
<path d="M0,0 Z " fill="#000000" transform="translate(1103,1061)"/>
<path d="M0,0 Z " fill="#000000" transform="translate(1104,1059)"/>
<path d="M0,0 Z " fill="#000000" transform="translate(1097,1072)"/>
</svg>
