<?xml version="1.0" encoding="UTF-8"?>
<!-- Generator: visioncortex VTracer 0.6.12 -->
<svg version="1.1" xmlns="http://www.w3.org/2000/svg" width="2048" height="2048">
<path d="M0,0 L66,0 L105,3 L134,7 L170,15 L198,23 L220,31 L245,42 L262,50 L285,63 L305,76 L323,89 L339,102 L353,114 L361,122 L367,127 L374,135 L383,144 L392,155 L403,168 L413,181 L433,211 L443,228 L450,240 L458,257 L464,269 L472,288 L483,318 L493,351 L502,389 L508,426 L510,446 L637,445 L935,445 L944,447 L957,452 L968,459 L973,464 L984,479 L987,486 L990,495 L991,505 L991,516 L989,526 L986,535 L977,549 L972,554 L962,562 L953,567 L946,570 L931,573 L867,573 L499,574 L399,574 L49,575 L-20,575 L-370,574 L-471,574 L-837,573 L-866,573 L-884,569 L-898,561 L-906,554 L-911,549 L-920,535 L-923,526 L-925,516 L-925,501 L-922,488 L-916,476 L-907,464 L-898,456 L-882,448 L-874,446 L-867,445 L-549,445 L-444,446 L-442,426 L-436,389 L-426,347 L-414,309 L-403,280 L-396,265 L-387,246 L-380,234 L-376,226 L-364,206 L-351,187 L-341,173 L-330,160 L-321,149 L-309,136 L-305,131 L-299,126 L-294,121 L-283,110 L-272,101 L-256,88 L-239,76 L-222,65 L-201,53 L-185,45 L-164,35 L-138,25 L-112,17 L-78,9 L-48,4 L-17,1 Z M-10,128 L-41,131 L-68,137 L-94,145 L-113,152 L-129,159 L-151,171 L-165,180 L-183,193 L-197,205 L-201,208 L-201,210 L-205,212 L-222,229 L-231,240 L-233,244 L-235,244 L-245,258 L-252,267 L-262,284 L-272,302 L-285,329 L-296,358 L-305,388 L-312,420 L-315,439 L-315,446 L-154,447 L245,447 L381,446 L380,432 L374,401 L367,374 L357,344 L346,318 L334,294 L321,272 L313,260 L305,250 L301,244 L299,244 L297,240 L285,226 L269,210 L267,210 L267,208 L256,199 L244,189 L228,178 L208,166 L193,158 L169,148 L145,140 L113,132 L90,129 L76,128 L66,128 L60,129 L50,129 L29,128 L16,129 L6,129 L0,128 Z " fill="#101010" transform="translate(991,749)"/>
<path d="M0,0 L234,0 L701,2 L874,3 L891,5 L903,10 L912,16 L920,22 L928,33 L928,36 L930,36 L933,43 L937,56 L937,76 L935,87 L933,87 L932,94 L927,103 L925,103 L923,108 L918,113 L909,121 L897,127 L880,131 L800,131 L330,129 L-102,129 L-568,131 L-646,131 L-663,127 L-675,121 L-687,111 L-691,105 L-691,103 L-693,103 L-699,92 L-699,87 L-701,87 L-703,76 L-703,56 L-699,43 L-696,36 L-694,36 L-693,32 L-686,22 L-673,12 L-663,7 L-657,5 L-640,3 L-454,2 Z " fill="#101010" transform="translate(907,1399)"/>
<path d="M0,0 L43,0 L545,3 L1039,0 L1078,0 L1094,4 L1106,10 L1114,16 L1119,21 L1122,24 L1122,26 L1124,26 L1130,36 L1134,47 L1136,64 L1135,75 L1132,87 L1125,101 L1117,110 L1115,110 L1114,113 L1100,122 L1095,124 L1090,124 L1090,126 L1073,128 L960,129 L649,131 L643,132 L435,132 L429,131 L108,129 L5,128 L-12,126 L-12,124 L-17,124 L-29,118 L-37,112 L-37,110 L-41,108 L-48,99 L-55,85 L-58,69 L-57,55 L-55,45 L-51,35 L-46,26 L-44,26 L-42,22 L-37,17 L-31,12 L-23,7 L-10,2 Z " fill="#101010" transform="translate(485,1583)"/>
<path d="M0,0 L14,0 L29,3 L42,9 L42,11 L47,13 L56,21 L65,34 L70,47 L72,57 L71,76 L66,92 L64,92 L63,97 L59,103 L57,103 L55,108 L44,117 L29,125 L4,136 L-23,148 L-64,166 L-93,179 L-111,185 L-116,186 L-138,185 L-146,183 L-146,181 L-153,180 L-153,178 L-158,177 L-167,170 L-169,166 L-173,164 L-182,151 L-187,136 L-188,128 L-188,114 L-186,104 L-184,104 L-183,96 L-181,96 L-180,90 L-176,84 L-174,84 L-172,79 L-164,72 L-153,65 L-122,51 L-81,33 L-52,20 L-27,9 L-12,3 Z " fill="#101010" transform="translate(1723,944)"/>
<path d="M0,0 L14,0 L29,4 L59,17 L88,30 L129,48 L167,65 L178,72 L186,79 L188,84 L190,84 L195,93 L195,96 L197,96 L198,104 L200,104 L202,114 L202,131 L198,146 L194,154 L186,165 L183,166 L181,170 L176,174 L170,178 L167,178 L167,180 L160,181 L160,183 L152,185 L130,186 L115,182 L103,177 L76,165 L35,147 L-3,130 L-23,121 L-34,114 L-41,108 L-43,103 L-45,103 L-50,95 L-50,92 L-52,92 L-57,76 L-58,57 L-54,41 L-48,29 L-39,18 L-30,11 L-28,11 L-28,9 L-20,5 L-11,2 Z " fill="#101010" transform="translate(311,944)"/>
<path d="M0,0 L18,0 L26,1 L35,4 L49,11 L58,18 L64,25 L72,39 L75,48 L77,59 L77,73 L74,122 L74,143 L76,176 L76,199 L73,211 L69,221 L63,230 L61,230 L59,234 L54,239 L39,249 L26,253 L18,254 L-2,254 L-15,251 L-24,247 L-39,237 L-43,232 L-43,230 L-46,229 L-52,219 L-56,209 L-58,199 L-58,176 L-56,143 L-56,122 L-59,73 L-59,57 L-55,41 L-48,28 L-44,22 L-36,15 L-27,9 L-15,3 L-6,1 Z " fill="#101010" transform="translate(1015,454)"/>
<path d="M0,0 L7,0 L20,3 L30,7 L40,13 L40,15 L45,17 L51,24 L51,26 L53,26 L59,36 L62,45 L64,54 L65,66 L65,73 L62,85 L57,96 L48,111 L42,122 L37,130 L32,139 L26,149 L21,158 L15,168 L10,177 L1,193 L-3,200 L-12,213 L-16,218 L-18,218 L-19,221 L-29,228 L-40,233 L-54,236 L-70,236 L-80,234 L-92,229 L-103,221 L-110,215 L-115,208 L-115,205 L-117,205 L-119,201 L-119,197 L-121,197 L-125,179 L-125,164 L-123,155 L-119,144 L-107,123 L-99,110 L-93,99 L-85,85 L-74,66 L-63,47 L-53,30 L-49,24 L-47,24 L-46,21 L-44,21 L-43,18 L-41,18 L-39,14 L-35,13 L-35,11 L-24,5 L-11,1 Z " fill="#101010" transform="translate(1351,521)"/>
<path d="M0,0 L18,1 L31,5 L42,11 L42,13 L47,15 L48,18 L51,19 L51,21 L54,22 L54,24 L56,24 L67,42 L79,63 L89,80 L101,101 L111,118 L123,139 L128,148 L131,159 L132,164 L132,179 L128,197 L126,197 L125,202 L124,205 L122,205 L121,209 L117,215 L109,222 L95,231 L84,235 L77,236 L61,236 L45,232 L33,226 L25,220 L25,218 L23,218 L13,205 L7,194 L-1,181 L-6,172 L-12,162 L-17,153 L-23,143 L-28,134 L-37,118 L-41,111 L-51,95 L-56,82 L-58,70 L-58,60 L-57,51 L-54,40 L-46,26 L-44,26 L-42,22 L-38,17 L-33,15 L-33,13 L-22,6 L-10,2 Z " fill="#101010" transform="translate(690,521)"/>
<path d="M0,0 L15,1 L28,5 L40,12 L48,19 L55,27 L61,37 L66,54 L67,67 L65,81 L60,93 L52,106 L50,106 L48,110 L31,124 L20,132 L2,146 L-15,159 L-32,172 L-45,182 L-61,194 L-66,197 L-73,200 L-79,202 L-91,204 L-103,204 L-119,200 L-135,191 L-135,189 L-138,189 L-138,187 L-140,187 L-140,185 L-142,185 L-142,183 L-144,183 L-146,178 L-148,178 L-148,175 L-150,175 L-151,170 L-153,170 L-157,159 L-160,143 L-160,133 L-157,121 L-154,113 L-149,104 L-143,96 L-141,96 L-141,94 L-139,94 L-139,92 L-119,77 L-105,66 L-88,53 L-75,43 L-57,29 L-37,14 L-30,9 L-18,4 L-8,1 Z " fill="#101010" transform="translate(1588,705)"/>
<path d="M0,0 L13,1 L31,7 L41,13 L59,27 L72,37 L85,47 L102,60 L115,70 L133,84 L144,92 L144,94 L146,94 L146,96 L149,97 L158,110 L160,115 L164,128 L165,139 L164,150 L161,161 L158,170 L156,170 L155,175 L153,175 L153,178 L151,178 L149,183 L147,183 L147,185 L145,185 L145,187 L143,187 L143,189 L140,189 L140,191 L124,200 L108,204 L94,204 L78,200 L66,194 L49,181 L36,171 L19,158 L2,145 L-11,135 L-24,125 L-38,114 L-45,108 L-45,106 L-47,106 L-55,93 L-60,81 L-62,63 L-60,51 L-55,35 L-47,23 L-37,13 L-27,7 L-14,2 Z " fill="#101010" transform="translate(455,705)"/>
</svg>
