<?xml version="1.0" encoding="UTF-8"?>
<svg version="1.1" xmlns="http://www.w3.org/2000/svg" width="256" height="256">
<path d="M0 0 C10.37561409 5.92667654 17.10718133 13.90284401 20.578125 25.47265625 C21.92440224 31.40784993 21.70054629 37.35917419 21.67236328 43.40966797 C21.66957763 45.89077747 21.66690763 48.3718871 21.66433716 50.85299683 C21.66128696 52.16435482 21.65823677 53.47571281 21.65509415 54.82680893 C21.64665533 58.93772337 21.65214574 63.04854511 21.66110229 67.15945435 C21.6625733 67.85481131 21.66404431 68.55016828 21.66555989 69.26659667 C21.66863031 70.68800746 21.67175034 72.10941814 21.67491889 73.53082871 C21.69606413 83.09406341 21.70980029 92.65699219 21.67773438 102.22021484 C21.65617025 108.68162795 21.65939888 115.14250568 21.69114292 121.60388386 C21.70695268 125.01825085 21.71032396 128.43159363 21.68338394 131.84591293 C21.6592308 135.65707993 21.67842182 139.46577458 21.70751953 143.27685547 C21.68143867 144.95881012 21.68143867 144.95881012 21.65483093 146.67474365 C21.74467564 152.33716876 22.20982964 155.71184665 26.01437378 160.04837036 C27.20019546 161.19197573 28.38786831 162.33366753 29.578125 163.47265625 C38.07657174 176.88755978 40.50897986 191.89902025 37.921875 207.40625 C34.13608739 223.3489849 25.36286901 236.25555062 11.37280273 244.93066406 C-2.21712417 252.820993 -16.85491222 254.64804055 -32.28515625 251.74609375 C-38.80180786 249.86231432 -44.76056091 247.20492998 -50.421875 243.47265625 C-51.15921875 242.993125 -51.8965625 242.51359375 -52.65625 242.01953125 C-62.95819487 234.701598 -69.46372624 224.33047164 -73.421875 212.47265625 C-73.66679688 211.74949219 -73.91171875 211.02632812 -74.1640625 210.28125 C-78.50322402 194.61866014 -74.38568973 179.89827672 -67.43359375 165.83203125 C-65.75891758 163.03548464 -64.60155965 161.66535699 -62.34246826 159.50813293 C-58.16873051 154.66749506 -58.59563917 149.68475269 -58.68066406 143.5456543 C-58.67324692 142.36100586 -58.66582977 141.17635742 -58.65818787 139.95581055 C-58.64339516 136.72170182 -58.65482823 133.48895766 -58.67744541 130.25493598 C-58.69435096 126.85761171 -58.67564883 123.46049142 -58.66033936 120.06318665 C-58.6363362 113.62596146 -58.64098812 107.18911911 -58.65746188 100.75188237 C-58.68599291 89.241205 -58.66566202 77.73055727 -58.63506293 66.21990234 C-58.62703497 62.84490975 -58.62477444 59.47008825 -58.63513947 56.0950985 C-58.64658837 52.32597346 -58.64679977 48.55698058 -58.64550781 44.7878418 C-58.65640694 43.13305565 -58.65640694 43.13305565 -58.66752625 41.44483948 C-58.63555797 28.12446814 -55.95902803 17.09920567 -46.671875 7.09765625 C-34.25663612 -4.50892722 -15.22067843 -7.46478628 0 0 Z M-42.02734375 19.3984375 C-46.86597277 26.5953899 -46.86424111 32.99157277 -46.85424805 41.47631836 C-46.8644397 42.77456543 -46.87463135 44.0728125 -46.88513184 45.41040039 C-46.91261241 48.95328389 -46.92197407 52.49600688 -46.92798591 56.03898311 C-46.93739301 59.74794114 -46.96359821 63.45678038 -46.98799133 67.16566467 C-47.03159598 74.18131102 -47.06017992 81.19693422 -47.08331472 88.21267468 C-47.11039884 96.20308004 -47.1543083 104.19336554 -47.19960344 112.18368518 C-47.29236322 128.61328137 -47.36408351 145.04289905 -47.421875 161.47265625 C-48.040625 161.7569751 -48.659375 162.04129395 -49.296875 162.33422852 C-56.21660923 166.04134257 -60.44565318 175.54299456 -62.73828125 182.7265625 C-66.03239989 195.95950767 -63.74766048 207.99373531 -57.14453125 219.74609375 C-50.65003123 230.28841235 -41.69023422 236.81859836 -29.81640625 240.21875 C-17.6748084 242.94825649 -5.3146059 241.80457967 5.453125 235.22265625 C15.96917928 227.91178542 23.76279636 218.20373797 26.578125 205.47265625 C28.78730113 192.23600929 26.65654669 180.90085635 19.578125 169.47265625 C17.44405581 166.59765243 15.27704699 163.83769099 12.578125 161.47265625 C11.918125 161.47265625 11.258125 161.47265625 10.578125 161.47265625 C10.248125 150.58265625 9.918125 139.69265625 9.578125 128.47265625 C2.648125 127.97765625 2.648125 127.97765625 -4.421875 127.47265625 C-4.421875 124.50265625 -4.421875 121.53265625 -4.421875 118.47265625 C0.198125 118.14265625 4.818125 117.81265625 9.578125 117.47265625 C9.578125 112.19265625 9.578125 106.91265625 9.578125 101.47265625 C6.3915625 101.00859375 6.3915625 101.00859375 3.140625 100.53515625 C-3.296875 99.59765625 -3.296875 99.59765625 -4.421875 98.47265625 C-4.56302661 95.80206774 -4.46434607 93.14833387 -4.421875 90.47265625 C0.198125 90.14265625 4.818125 89.81265625 9.578125 89.47265625 C9.578125 84.19265625 9.578125 78.91265625 9.578125 73.47265625 C6.9484375 73.28703125 6.9484375 73.28703125 4.265625 73.09765625 C0.40908139 72.82542964 -1.13696127 72.66259873 -4.421875 70.47265625 C-4.796875 67.47265625 -4.796875 67.47265625 -4.421875 64.47265625 C0.06230893 61.4832003 4.23153689 61.85006247 9.578125 61.47265625 C9.578125 56.19265625 9.578125 50.91265625 9.578125 45.47265625 C6.9484375 45.28703125 6.9484375 45.28703125 4.265625 45.09765625 C0.40908139 44.82542964 -1.13696127 44.66259873 -4.421875 42.47265625 C-4.796875 39.47265625 -4.796875 39.47265625 -4.421875 36.47265625 C-1.13696127 34.28271377 0.40908139 34.11988286 4.265625 33.84765625 C5.25949219 33.77289063 6.25335938 33.698125 7.27734375 33.62109375 C8.03660156 33.57210937 8.79585938 33.523125 9.578125 33.47265625 C9.26826644 24.95154595 5.71354408 19.67933485 -0.171875 13.66015625 C-14.90600873 3.74295085 -30.31353823 6.07116014 -42.02734375 19.3984375 Z " fill="#140C0C" transform="translate(146.421875,3.52734375)"/>
<path d="M0 0 C3 0.5 3 0.5 4.66918945 1.91894531 C6.74320523 5.9414173 6.36799574 9.83936874 6.29296875 14.296875 C6.28872391 15.24564514 6.28447906 16.19441528 6.28010559 17.17193604 C6.26333082 20.19824766 6.22568056 23.2238901 6.1875 26.25 C6.17245162 28.30337579 6.15876348 30.35676203 6.14648438 32.41015625 C6.11343117 37.44036148 6.06165683 42.47006733 6 47.5 C6.94399658 47.79801514 7.88799316 48.09603027 8.8605957 48.40307617 C14.44118442 50.35296225 18.51628667 54.44194603 21.9375 59.1875 C24.8082219 65.43554179 25.21860204 72.68025637 23.12890625 79.23046875 C20.05510499 85.89205115 16.02680339 90.27466128 9.625 93.8125 C1.84808758 95.8493104 -4.57851946 95.97769861 -12 92.5 C-17.66665292 88.80350868 -22.19549687 84.131549 -24 77.5 C-24.99641146 69.9023626 -24.45446487 62.89736977 -20 56.5 C-15.72663152 51.812051 -12.32606666 48.58592997 -6 47.5 C-6.01571045 46.21834961 -6.0314209 44.93669922 -6.04760742 43.61621094 C-6.10191556 38.86025275 -6.13635342 34.10432198 -6.16479492 29.34814453 C-6.1798795 27.28982941 -6.20034987 25.23154642 -6.22631836 23.17333984 C-6.26271585 20.21443756 -6.27972966 17.25596033 -6.29296875 14.296875 C-6.30845261 13.37694763 -6.32393646 12.45702026 -6.33988953 11.50921631 C-6.34156063 5.1624434 -6.34156063 5.1624434 -4.66918945 1.91894531 C-3 0.5 -3 0.5 0 0 Z M-11 63.5 C-13.30307773 67.20495112 -13.21423154 70.38479155 -12.54296875 74.5703125 C-11.49551127 78.29293118 -9.27486075 80.54385444 -6.25 82.8125 C-1.13706819 84.37478472 2.64381879 84.19088477 7.3125 81.8125 C10.14126219 79.37844881 11.68136405 77.99050691 13 74.5 C13.20195748 69.88022275 12.62586425 66.48052066 10.125 62.5625 C6.83952415 59.37365579 4.70665279 58.18051167 0.1875 58.0625 C-5.26522176 58.17394249 -7.39991107 59.44989995 -11 63.5 Z " fill="#140C0C" transform="translate(128,128.5)"/>
</svg>
