<?xml version="1.0" encoding="UTF-8"?>
<!-- Generator: visioncortex VTracer 0.6.12 -->
<svg version="1.1" xmlns="http://www.w3.org/2000/svg" width="2048" height="2048">
<path d="M0,0 L44,0 L68,2 L88,5 L114,11 L136,18 L163,29 L183,40 L207,56 L219,65 L233,77 L252,96 L261,107 L275,126 L288,147 L297,164 L307,187 L315,210 L319,224 L324,245 L328,268 L331,292 L332,305 L333,1148 L345,1161 L354,1172 L367,1189 L379,1206 L391,1225 L401,1243 L413,1266 L424,1293 L432,1317 L440,1348 L446,1379 L449,1402 L451,1431 L451,1468 L449,1492 L445,1521 L437,1557 L429,1585 L421,1607 L410,1632 L397,1657 L381,1683 L369,1700 L357,1716 L348,1727 L338,1738 L332,1745 L330,1745 L328,1749 L313,1764 L302,1773 L292,1782 L275,1795 L255,1809 L227,1826 L205,1837 L190,1843 L179,1848 L152,1858 L123,1866 L96,1872 L70,1876 L49,1878 L-10,1878 L-46,1874 L-73,1869 L-104,1861 L-136,1850 L-164,1838 L-180,1831 L-203,1818 L-217,1809 L-217,1807 L-222,1805 L-234,1797 L-247,1787 L-258,1778 L-269,1769 L-279,1760 L-284,1755 L-284,1753 L-288,1751 L-292,1747 L-292,1745 L-296,1743 L-296,1741 L-299,1740 L-306,1732 L-318,1718 L-328,1705 L-339,1690 L-347,1677 L-359,1656 L-373,1630 L-383,1607 L-393,1579 L-401,1552 L-406,1528 L-411,1493 L-413,1469 L-413,1421 L-411,1395 L-407,1368 L-401,1340 L-393,1313 L-383,1285 L-374,1265 L-366,1249 L-352,1223 L-340,1204 L-331,1191 L-322,1180 L-314,1170 L-305,1159 L-303,1159 L-301,1155 L-296,1149 L-294,1149 L-292,1145 L-290,1145 L-289,1142 L-288,305 L-285,274 L-281,250 L-276,227 L-269,204 L-261,182 L-249,156 L-237,135 L-223,115 L-212,101 L-200,88 L-185,73 L-174,64 L-156,51 L-137,39 L-119,29 L-87,16 L-63,9 L-32,3 L-15,1 Z M-3,128 L-23,131 L-40,135 L-59,142 L-80,153 L-96,165 L-108,176 L-120,190 L-132,208 L-144,233 L-153,260 L-158,286 L-160,304 L-161,328 L-161,1198 L-170,1205 L-178,1212 L-190,1223 L-193,1225 L-193,1227 L-197,1229 L-197,1231 L-201,1233 L-201,1235 L-204,1236 L-211,1244 L-214,1247 L-214,1249 L-216,1249 L-229,1267 L-237,1278 L-250,1300 L-259,1317 L-270,1344 L-278,1370 L-283,1393 L-286,1421 L-287,1442 L-287,1456 L-286,1476 L-282,1506 L-275,1533 L-265,1561 L-257,1579 L-245,1601 L-227,1628 L-215,1644 L-208,1651 L-201,1659 L-193,1667 L-191,1667 L-190,1670 L-182,1677 L-170,1687 L-158,1696 L-144,1706 L-107,1725 L-82,1735 L-63,1741 L-38,1747 L-11,1751 L4,1752 L39,1752 L60,1750 L94,1743 L120,1735 L147,1724 L169,1713 L189,1701 L205,1689 L216,1680 L231,1667 L241,1657 L248,1649 L248,1647 L250,1647 L259,1636 L268,1624 L279,1608 L293,1583 L302,1564 L314,1527 L319,1506 L323,1481 L325,1450 L325,1436 L324,1415 L319,1385 L311,1355 L301,1326 L293,1309 L283,1291 L270,1271 L258,1255 L248,1244 L241,1236 L232,1226 L229,1223 L227,1223 L226,1220 L215,1211 L207,1204 L205,1204 L205,1169 L204,993 L163,993 L151,990 L142,986 L132,980 L120,967 L115,958 L112,951 L109,939 L109,922 L112,909 L118,897 L126,887 L136,878 L148,872 L157,869 L175,867 L204,866 L204,795 L203,794 L175,793 L160,791 L147,787 L136,781 L129,776 L123,769 L120,766 L114,755 L110,742 L109,728 L111,712 L112,705 L114,705 L118,695 L120,694 L123,689 L127,684 L130,682 L130,680 L135,678 L143,673 L152,669 L166,666 L177,666 L187,667 L204,667 L204,602 L174,601 L163,599 L153,595 L144,590 L134,581 L129,576 L124,568 L121,562 L117,548 L116,536 L119,519 L124,507 L130,499 L139,489 L144,485 L159,478 L173,475 L204,475 L204,399 L185,398 L167,395 L153,390 L145,385 L134,375 L132,374 L129,369 L125,363 L120,350 L118,335 L120,317 L125,304 L132,294 L140,285 L143,284 L145,281 L162,273 L174,271 L190,271 L199,272 L197,260 L188,233 L176,208 L166,193 L157,182 L146,170 L134,160 L119,150 L96,139 L81,134 L56,129 L47,128 Z " fill="#101010" transform="translate(1002,84)"/>
<path d="M0,0 L14,0 L25,2 L38,7 L52,17 L56,21 L56,23 L58,23 L66,36 L70,46 L73,63 L74,322 L75,339 L94,343 L110,349 L129,359 L142,368 L155,379 L160,383 L167,391 L169,395 L172,396 L183,411 L195,430 L204,449 L212,473 L216,489 L219,510 L220,525 L220,543 L218,562 L212,593 L205,614 L192,641 L180,659 L174,667 L172,667 L170,671 L163,679 L161,679 L160,682 L158,682 L157,685 L147,693 L142,695 L141,698 L127,707 L104,718 L84,724 L61,730 L37,733 L-23,733 L-47,730 L-81,721 L-97,715 L-118,704 L-128,697 L-128,695 L-133,693 L-144,684 L-144,682 L-147,681 L-147,679 L-151,677 L-158,669 L-158,667 L-160,667 L-171,652 L-180,637 L-191,614 L-198,593 L-204,562 L-206,543 L-206,523 L-204,502 L-200,480 L-193,457 L-187,442 L-177,423 L-164,404 L-157,395 L-155,395 L-153,391 L-148,386 L-143,381 L-131,370 L-118,361 L-100,351 L-83,344 L-67,340 L-61,339 L-60,313 L-59,63 L-56,46 L-52,36 L-44,23 L-42,23 L-41,20 L-34,14 L-24,7 L-14,3 Z M-3,450 L-20,454 L-36,462 L-50,472 L-58,479 L-65,489 L-72,505 L-75,518 L-76,526 L-76,540 L-73,557 L-68,571 L-61,582 L-54,590 L-40,600 L-28,606 L-9,611 L-3,612 L17,612 L36,608 L51,602 L65,592 L73,585 L82,571 L87,557 L90,540 L90,526 L87,508 L81,493 L75,483 L69,476 L56,466 L45,459 L31,453 L17,450 Z " fill="#101010" transform="translate(1017,988)"/>
</svg>
