<?xml version="1.0" encoding="UTF-8"?>
<!-- Generator: visioncortex VTracer 0.6.12 -->
<svg version="1.1" xmlns="http://www.w3.org/2000/svg" width="2048" height="2048">
<path d="M0,0 L188,0 L219,3 L244,8 L263,14 L283,22 L299,30 L317,41 L333,54 L346,66 L355,76 L368,94 L380,114 L394,141 L408,165 L420,182 L432,196 L441,206 L454,217 L467,226 L485,236 L507,246 L528,254 L555,263 L566,268 L568,269 L869,270 L884,274 L892,278 L903,285 L903,288 L907,290 L909,291 L909,294 L912,295 L916,301 L921,312 L924,323 L924,345 L918,363 L913,369 L910,374 L903,382 L888,392 L878,395 L871,397 L855,398 L735,398 L734,1503 L732,1521 L725,1546 L716,1567 L707,1584 L695,1601 L684,1613 L673,1624 L662,1633 L654,1640 L638,1650 L622,1658 L601,1666 L576,1672 L562,1674 L540,1675 L501,1674 L314,1673 L143,1672 L19,1672 L-305,1674 L-324,1674 L-361,1675 L-381,1673 L-402,1669 L-419,1664 L-443,1654 L-457,1646 L-471,1636 L-483,1625 L-491,1618 L-504,1605 L-515,1590 L-524,1575 L-534,1554 L-541,1533 L-545,1515 L-546,1503 L-547,398 L-675,398 L-689,396 L-699,392 L-711,385 L-718,379 L-724,372 L-727,367 L-731,360 L-736,344 L-736,323 L-733,311 L-726,298 L-723,294 L-721,294 L-721,291 L-717,288 L-715,288 L-715,285 L-708,280 L-696,274 L-680,270 L-380,269 L-372,265 L-344,255 L-327,249 L-308,241 L-289,232 L-273,222 L-260,212 L-248,201 L-235,186 L-222,168 L-213,153 L-201,131 L-187,105 L-175,87 L-165,74 L-150,58 L-139,49 L-126,39 L-111,30 L-95,22 L-70,12 L-43,5 L-14,1 Z M20,127 L-11,129 L-29,133 L-45,139 L-59,148 L-69,158 L-78,172 L-92,198 L-104,220 L-118,242 L-129,257 L-138,269 L-138,270 L326,270 L323,265 L313,252 L299,231 L290,216 L280,198 L268,175 L259,161 L250,151 L243,145 L229,137 L210,131 L189,128 L167,127 L122,128 L53,128 Z M-419,397 Z M-417,397 L-419,399 L-419,790 L-418,1499 L-412,1514 L-405,1524 L-398,1532 L-385,1540 L-372,1545 L-361,1547 L-224,1546 L-47,1545 L85,1544 L110,1544 L251,1545 L416,1546 L549,1547 L563,1544 L575,1539 L587,1531 L595,1522 L602,1510 L606,1499 L607,789 L607,399 L603,397 Z M606,397 Z " fill="#101010" transform="translate(930,173)"/>
<path d="M0,0 L10,0 L26,3 L42,11 L52,20 L60,30 L67,44 L69,53 L70,62 L70,700 L69,709 L66,720 L59,734 L57,734 L55,738 L51,743 L49,743 L48,746 L38,753 L24,759 L14,761 L-4,761 L-16,758 L-29,752 L-39,745 L-39,743 L-41,743 L-47,736 L-47,734 L-49,734 L-54,725 L-57,717 L-59,709 L-60,700 L-60,62 L-58,49 L-55,40 L-50,30 L-42,20 L-35,13 L-21,5 L-11,2 Z " fill="#101010" transform="translate(1019,748)"/>
<path d="M0,0 L17,0 L29,3 L42,10 L50,16 L50,18 L53,19 L53,21 L56,22 L56,24 L58,24 L65,36 L68,44 L71,62 L71,101 L67,683 L66,706 L62,721 L54,734 L44,745 L42,745 L42,747 L30,754 L19,758 L8,760 L-5,760 L-18,757 L-32,750 L-38,746 L-42,742 L-42,740 L-45,739 L-45,737 L-47,737 L-50,733 L-50,730 L-52,730 L-58,718 L-61,701 L-61,577 L-58,145 L-57,56 L-54,43 L-48,30 L-41,21 L-38,20 L-37,17 L-35,17 L-34,14 L-32,14 L-32,12 L-20,5 L-12,2 Z " fill="#101010" transform="translate(1311,756)"/>
<path d="M0,0 L17,0 L32,3 L46,10 L49,12 L49,14 L52,15 L52,17 L55,18 L55,20 L59,22 L66,31 L72,46 L74,56 L75,147 L78,584 L78,701 L75,718 L69,730 L67,730 L66,734 L64,737 L62,737 L61,740 L59,740 L58,743 L49,750 L35,757 L21,760 L7,760 L-2,758 L-13,754 L-25,747 L-25,745 L-29,743 L-38,733 L-45,721 L-49,706 L-50,677 L-54,95 L-54,62 L-50,41 L-43,27 L-41,24 L-39,24 L-38,21 L-36,21 L-35,18 L-33,18 L-32,15 L-18,6 L-9,2 Z " fill="#101010" transform="translate(720,756)"/>
</svg>
