<?xml version="1.0" encoding="UTF-8"?>
<!-- Generator: visioncortex VTracer 0.6.12 -->
<svg version="1.1" xmlns="http://www.w3.org/2000/svg" width="2048" height="2048">
<path d="M0,0 L8,0 L29,4 L38,8 L38,10 L47,12 L60,16 L75,20 L78,22 L97,27 L116,33 L120,35 L132,38 L143,42 L154,45 L162,49 L176,53 L193,59 L206,64 L216,67 L225,71 L233,74 L255,83 L267,89 L267,91 L273,92 L286,100 L300,109 L305,113 L305,115 L310,117 L324,129 L324,131 L327,132 L334,140 L341,148 L348,156 L358,171 L365,182 L372,196 L377,208 L385,228 L391,251 L394,266 L395,277 L396,278 L399,311 L400,339 L400,448 L398,478 L396,491 L392,501 L389,509 L379,522 L371,530 L360,537 L349,542 L332,547 L323,548 L313,550 L282,553 L279,554 L238,556 L219,556 L178,558 L158,558 L160,591 L163,658 L177,655 L194,654 L203,654 L225,656 L259,662 L271,665 L284,668 L320,677 L343,683 L367,690 L403,700 L428,707 L459,715 L497,724 L516,728 L542,735 L562,741 L609,753 L642,761 L664,766 L699,774 L724,780 L756,788 L785,796 L808,803 L818,807 L834,813 L840,816 L858,826 L865,832 L875,840 L886,852 L894,865 L903,885 L906,896 L910,922 L912,946 L913,973 L913,996 L912,1053 L909,1111 L904,1174 L901,1203 L899,1219 L896,1251 L891,1307 L888,1330 L884,1363 L880,1394 L876,1422 L875,1423 L869,1465 L864,1496 L861,1511 L852,1565 L848,1582 L843,1607 L838,1627 L835,1636 L828,1666 L822,1682 L815,1693 L807,1701 L796,1708 L785,1711 L780,1712 L767,1712 L736,1710 L722,1709 L681,1703 L672,1701 L626,1694 L603,1690 L602,1689 L559,1682 L535,1677 L518,1673 L487,1667 L474,1663 L431,1653 L418,1649 L393,1643 L374,1636 L365,1631 L351,1619 L345,1608 L341,1597 L340,1583 L340,1571 L343,1532 L344,1525 L349,1465 L354,1412 L356,1385 L350,1397 L346,1408 L343,1413 L334,1435 L331,1436 L331,1441 L326,1453 L317,1473 L309,1494 L306,1499 L298,1519 L294,1527 L288,1540 L282,1554 L276,1564 L273,1570 L262,1584 L251,1592 L246,1594 L227,1597 L212,1596 L188,1591 L175,1587 L136,1578 L115,1572 L85,1564 L77,1561 L59,1556 L43,1551 L16,1542 L6,1539 L-11,1533 L-32,1526 L-67,1514 L-74,1511 L-84,1508 L-92,1505 L-108,1499 L-115,1496 L-131,1490 L-158,1478 L-169,1472 L-174,1469 L-174,1467 L-179,1465 L-187,1455 L-192,1445 L-195,1430 L-195,1421 L-192,1404 L-187,1384 L-183,1369 L-175,1336 L-173,1336 L-172,1328 L-162,1296 L-158,1285 L-151,1262 L-147,1252 L-139,1227 L-134,1214 L-134,1212 L-154,1214 L-195,1216 L-244,1216 L-266,1215 L-277,1214 L-289,1213 L-308,1211 L-315,1209 L-330,1207 L-355,1202 L-371,1198 L-379,1195 L-390,1192 L-407,1186 L-420,1180 L-433,1175 L-440,1170 L-449,1166 L-459,1160 L-467,1155 L-478,1147 L-491,1136 L-499,1128 L-499,1126 L-501,1126 L-508,1118 L-516,1107 L-522,1098 L-530,1082 L-534,1074 L-537,1062 L-541,1052 L-545,1035 L-548,1019 L-550,1001 L-552,980 L-556,954 L-560,906 L-562,880 L-564,857 L-565,837 L-567,815 L-577,611 L-577,597 L-582,598 L-640,601 L-645,602 L-663,603 L-667,604 L-685,605 L-730,606 L-755,604 L-761,602 L-773,600 L-790,593 L-803,583 L-813,572 L-822,553 L-826,535 L-827,532 L-829,515 L-830,513 L-833,489 L-834,475 L-835,472 L-838,436 L-839,431 L-841,411 L-844,346 L-843,339 L-842,321 L-839,299 L-837,292 L-835,280 L-832,270 L-829,262 L-823,245 L-815,229 L-809,217 L-807,214 L-805,214 L-803,209 L-794,195 L-792,195 L-790,191 L-782,181 L-779,178 L-777,178 L-775,174 L-764,164 L-756,157 L-744,148 L-729,138 L-717,131 L-708,126 L-700,122 L-691,117 L-683,113 L-676,110 L-664,104 L-648,97 L-643,94 L-626,86 L-621,84 L-615,81 L-603,76 L-594,72 L-586,68 L-574,63 L-558,56 L-548,52 L-534,47 L-530,44 L-518,39 L-507,32 L-486,26 L-468,26 L-446,31 L-435,37 L-433,38 L-433,40 L-428,42 L-418,55 L-414,64 L-414,67 L-412,67 L-403,83 L-397,93 L-393,102 L-388,112 L-382,121 L-376,133 L-372,138 L-367,146 L-367,149 L-365,149 L-357,159 L-351,167 L-351,169 L-347,171 L-342,176 L-333,184 L-333,186 L-331,186 L-331,188 L-327,190 L-316,197 L-311,200 L-297,206 L-285,210 L-276,213 L-261,216 L-242,219 L-221,218 L-200,214 L-190,211 L-180,207 L-172,203 L-161,199 L-152,193 L-142,187 L-121,166 L-114,155 L-108,148 L-102,137 L-96,127 L-90,114 L-85,104 L-79,88 L-74,74 L-69,64 L-65,54 L-59,41 L-55,31 L-51,25 L-43,16 L-33,10 L-28,7 L-7,1 Z M26,116 L22,120 L16,135 L12,143 L8,154 L2,165 L-1,173 L-13,194 L-14,198 L-16,198 L-19,204 L-27,216 L-27,218 L-29,218 L-41,234 L-52,246 L-56,250 L-61,255 L-69,262 L-69,264 L-74,266 L-82,273 L-92,280 L-106,289 L-125,298 L-135,302 L-144,306 L-162,312 L-171,315 L-199,322 L-219,324 L-245,325 L-264,322 L-285,319 L-309,313 L-320,309 L-334,305 L-348,299 L-364,291 L-372,286 L-374,286 L-374,284 L-380,281 L-382,281 L-382,279 L-393,272 L-396,271 L-396,269 L-402,264 L-404,264 L-405,261 L-416,252 L-419,248 L-421,248 L-423,244 L-430,236 L-432,236 L-432,234 L-434,234 L-436,230 L-444,219 L-446,216 L-448,216 L-450,211 L-456,203 L-463,192 L-470,181 L-476,170 L-484,155 L-489,146 L-494,144 L-507,149 L-526,157 L-531,159 L-539,163 L-552,168 L-566,175 L-573,178 L-585,183 L-593,187 L-603,192 L-611,195 L-627,203 L-633,206 L-649,214 L-665,222 L-667,223 L-667,225 L-672,227 L-687,237 L-699,248 L-710,259 L-721,276 L-725,284 L-729,295 L-733,305 L-735,317 L-737,327 L-738,338 L-738,368 L-737,389 L-735,410 L-734,430 L-732,448 L-731,452 L-730,471 L-728,477 L-727,491 L-725,499 L-719,500 L-706,500 L-646,497 L-624,495 L-593,493 L-551,490 L-548,489 L-523,489 L-509,493 L-498,499 L-492,506 L-487,511 L-482,522 L-479,531 L-476,548 L-474,568 L-466,731 L-465,752 L-464,756 L-459,852 L-457,875 L-456,895 L-454,916 L-453,921 L-452,936 L-451,938 L-447,977 L-446,982 L-445,997 L-443,1006 L-441,1019 L-434,1039 L-426,1052 L-421,1058 L-407,1068 L-399,1073 L-389,1079 L-364,1090 L-347,1095 L-342,1097 L-324,1101 L-303,1105 L-288,1107 L-265,1110 L-245,1110 L-217,1111 L-197,1111 L-157,1109 L-147,1107 L-132,1105 L-112,1102 L-98,1101 L-91,1099 L-85,1085 L-80,1073 L-73,1055 L-69,1047 L-61,1026 L-52,1005 L-47,994 L-42,983 L-36,967 L-32,959 L-27,946 L-20,931 L-11,909 L-11,907 L-9,907 L-1,886 L7,869 L14,854 L17,850 L21,840 L28,826 L36,810 L41,801 L49,785 L61,763 L63,758 L63,738 L60,676 L58,639 L57,624 L56,599 L54,570 L52,532 L52,516 L53,501 L58,484 L65,473 L67,472 L67,470 L69,470 L69,468 L73,466 L78,462 L87,458 L94,456 L118,454 L136,454 L175,453 L197,452 L216,452 L218,451 L279,448 L296,446 L296,362 L295,321 L291,290 L286,264 L281,252 L276,239 L268,226 L261,217 L256,210 L254,210 L254,208 L246,201 L236,193 L216,181 L197,173 L190,170 L173,164 L158,158 L135,151 L127,147 L113,143 L92,136 L87,134 L70,129 L52,124 L45,121 L30,117 Z M190,761 L184,766 L175,777 L169,787 L169,789 L167,789 L160,802 L155,811 L150,820 L148,826 L164,831 L188,838 L205,843 L214,846 L243,854 L246,854 L246,856 L278,864 L293,868 L302,871 L338,880 L352,884 L387,893 L405,898 L430,904 L451,910 L485,918 L497,922 L520,927 L551,935 L587,944 L630,954 L656,961 L689,968 L699,971 L727,977 L747,981 L770,986 L804,993 L807,993 L807,968 L805,935 L802,919 L797,914 L787,909 L771,903 L742,895 L729,891 L706,885 L689,881 L663,875 L632,868 L592,859 L579,856 L574,854 L540,846 L530,843 L522,840 L502,835 L481,830 L466,826 L442,821 L404,811 L381,805 L372,802 L338,793 L323,788 L299,782 L287,778 L239,767 L214,762 L204,761 Z M101,919 L95,931 L89,943 L83,959 L76,974 L67,996 L62,1007 L56,1023 L50,1035 L45,1048 L38,1063 L29,1086 L25,1093 L19,1109 L15,1118 L8,1136 L3,1150 L-2,1162 L-9,1181 L-18,1205 L-22,1217 L-24,1220 L-28,1234 L-35,1253 L-38,1261 L-47,1288 L-51,1298 L-57,1318 L-65,1342 L-69,1357 L-72,1372 L-74,1382 L-74,1397 L-60,1403 L-43,1408 L-23,1415 L4,1423 L14,1427 L35,1433 L46,1436 L54,1439 L80,1446 L90,1449 L96,1451 L134,1461 L139,1463 L179,1473 L191,1477 L198,1478 L201,1473 L205,1465 L210,1454 L216,1438 L222,1426 L230,1406 L234,1399 L240,1383 L245,1373 L249,1363 L255,1348 L263,1332 L268,1322 L276,1306 L284,1294 L293,1283 L302,1275 L316,1267 L329,1263 L347,1261 L366,1261 L382,1264 L404,1270 L420,1278 L430,1284 L443,1295 L445,1298 L447,1298 L449,1302 L457,1318 L462,1334 L463,1342 L463,1380 L459,1439 L456,1466 L452,1513 L450,1532 L450,1542 L465,1546 L481,1550 L531,1562 L561,1569 L590,1575 L609,1580 L633,1584 L653,1588 L656,1589 L693,1596 L719,1600 L723,1601 L728,1601 L736,1584 L739,1576 L744,1557 L748,1537 L752,1517 L761,1465 L764,1450 L772,1394 L775,1378 L781,1326 L786,1283 L789,1258 L796,1178 L803,1110 L803,1098 L789,1094 L777,1091 L754,1087 L724,1080 L704,1076 L679,1071 L670,1068 L650,1064 L638,1061 L622,1058 L613,1055 L587,1049 L582,1049 L574,1089 L572,1106 L568,1119 L563,1129 L557,1136 L543,1145 L532,1149 L511,1149 L502,1146 L488,1138 L483,1132 L479,1128 L474,1118 L472,1110 L470,1098 L471,1088 L474,1066 L480,1035 L482,1024 L465,1020 L457,1017 L440,1013 L429,1011 L420,1008 L416,1009 L411,1028 L407,1041 L398,1068 L389,1085 L384,1091 L375,1098 L367,1102 L354,1105 L340,1105 L326,1101 L318,1096 L310,1090 L307,1085 L305,1085 L303,1080 L299,1070 L297,1060 L297,1051 L299,1039 L305,1023 L308,1017 L318,981 L309,978 L274,969 L265,966 L237,959 L219,953 L188,945 L182,942 L148,933 L137,929 L127,926 L102,919 Z " fill="#101010" transform="translate(988,157)"/>
<path d="M0,0 L2,1 L-11,14 L-13,13 L-4,3 Z " fill="#090909" transform="translate(949,170)"/>
</svg>
