<?xml version="1.0" encoding="UTF-8"?>
<svg version="1.1" xmlns="http://www.w3.org/2000/svg" width="2048" height="2048" viewBox="0 0 2048 2048">
<path d="M0 0 C0.89009766 0.15726563 1.78019531 0.31453125 2.69726562 0.4765625 C8.75894803 1.6277951 14.04242019 3.49966221 19.5625 6.25 C19.5625 6.91 19.5625 7.57 19.5625 8.25 C20.779375 8.4975 21.99625 8.745 23.25 9 C28.26215159 10.11033623 33.1076533 11.62570883 38 13.171875 C43.10791303 14.71769078 48.27051142 16.01854341 53.4453125 17.3203125 C56.5625 18.25 56.5625 18.25 59.5625 20.25 C62.39127393 21.05655124 65.20795406 21.79812793 68.0625 22.5 C75.10562164 24.29127085 82.06971585 26.24884718 89 28.4375 C89.79792969 28.68725586 90.59585938 28.93701172 91.41796875 29.19433594 C94.9747241 30.33035133 98.22103793 31.57884449 101.5625 33.25 C103.40624507 33.74860565 105.26215609 34.20331762 107.125 34.625 C112.19551774 35.84340111 116.96707001 37.42911597 121.8359375 39.28125 C124.6161296 40.26905464 127.3908623 41.02537006 130.25 41.75 C133.54172833 42.60770386 136.39251551 43.5566521 139.375 45.1875 C143.91078476 47.62066389 148.7027681 48.77083069 153.6484375 50.12109375 C164.1991315 53.07925732 174.44349923 57.17817093 184.63671875 61.1640625 C187.34203206 62.16817078 190.0390165 63.02007614 192.8125 63.8125 C196.77920056 64.94859385 200.43801317 66.42020388 204.1640625 68.1875 C206.82520521 69.36637755 209.53677712 70.37295186 212.26513672 71.38427734 C224.62063151 76.04023744 236.9248324 80.98922946 248.5625 87.25 C248.5625 87.91 248.5625 88.57 248.5625 89.25 C249.42875 89.3428125 250.295 89.435625 251.1875 89.53125 C254.97019843 90.33682467 257.31680546 91.66348208 260.5625 93.75 C261.11357422 94.10094727 261.66464844 94.45189453 262.23242188 94.81347656 C263.40511883 95.5620767 264.57498528 96.31512674 265.7421875 97.07226562 C267.60120936 98.27504479 269.47090668 99.45950056 271.34375 100.640625 C272.58369014 101.42652067 273.82328263 102.21296514 275.0625 103 C275.92488281 103.54624023 275.92488281 103.54624023 276.8046875 104.10351562 C280.22607803 106.3001126 283.51953967 108.54766956 286.5625 111.25 C286.5625 111.91 286.5625 112.57 286.5625 113.25 C287.23667969 113.45625 287.91085937 113.6625 288.60546875 113.875 C292.59902881 115.73197905 295.57508419 118.36809618 298.875 121.25 C299.52017578 121.7965625 300.16535156 122.343125 300.83007812 122.90625 C302.45072962 124.3056697 304.01215019 125.77307677 305.5625 127.25 C305.5625 127.91 305.5625 128.57 305.5625 129.25 C306.5525 129.58 307.5425 129.91 308.5625 130.25 C310.140625 131.81640625 310.140625 131.81640625 311.8125 133.8125 C312.42609375 134.53566406 313.0396875 135.25882813 313.671875 136.00390625 C314.29578125 136.74511719 314.9196875 137.48632812 315.5625 138.25 C316.72606529 139.58604068 317.89266559 140.9194451 319.0625 142.25 C319.64386719 142.91902344 320.22523437 143.58804688 320.82421875 144.27734375 C321.93336595 145.53603888 323.05952442 146.78008068 324.20703125 148.00390625 C329.70233336 153.96251252 334.00594647 160.65984033 338.39306641 167.44726562 C339.42002822 169.03037336 340.46449881 170.60209441 341.51171875 172.171875 C347.86155648 181.81792063 352.88765535 192.12485231 357.1875 202.83203125 C358.24066175 205.44997594 359.32609913 208.04363454 360.4375 210.63671875 C368.72421219 230.25760438 375.02920342 251.92678382 376.3515625 273.2734375 C376.35324912 275.25010856 376.35324912 275.25010856 377.5625 276.25 C378.14249609 280.4454822 378.48494114 284.6685662 378.86474609 288.88647461 C379.05328344 290.96108371 379.2544538 293.03414477 379.45703125 295.10742188 C382.24582465 324.72696386 381.75032952 354.56866447 381.74780273 384.28417969 C381.74772136 389.17451669 381.75469576 394.06476024 381.76831055 398.95507812 C381.9908414 480.22212083 381.9908414 480.22212083 374.54296875 497 C373.41361202 499.46501039 373.41361202 499.46501039 372.4375 503.0625 C366.64427538 518.66938382 350.77054497 530.89334987 336.4375 537.875 C327.21313268 541.8775272 316.81868038 545.45279749 306.72241211 546.05004883 C304.51374814 546.25451314 302.46659176 546.67948063 300.3046875 547.171875 C293.14834887 548.64046529 285.89119355 549.17401962 278.625 549.8125 C276.5115931 550.00024592 274.39837886 550.18960497 272.2855072 550.38328552 C270.38738855 550.55704747 268.48874956 550.72509774 266.59008789 550.89282227 C263.52110703 551.15107523 263.52110703 551.15107523 260.5625 552.25 C257.6940695 552.47411915 254.84154493 552.65025854 251.96875 552.78515625 C251.1080188 552.82813339 250.2472876 552.87111053 249.36047363 552.91539001 C247.52801618 553.00568098 245.69545064 553.09380026 243.86279297 553.17993164 C241.12821379 553.30938905 238.39422323 553.4480832 235.66015625 553.58789062 C227.09908966 554.00971957 218.56817453 554.30640423 209.99609375 554.24609375 C199.15357152 554.17030754 188.36656766 554.78524701 177.54467773 555.39550781 C164.869035 556.10137749 152.25781529 556.37220906 139.5625 556.25 C139.64061417 557.47015053 139.64061417 557.47015053 139.7203064 558.71495056 C141.07202537 579.99335737 142.17085032 601.27342979 143.09051514 622.57458496 C143.25621627 626.39812046 143.42515266 630.22151319 143.59375 634.04492188 C143.91968565 641.44648469 144.24228329 648.84818731 144.5625 656.25 C145.51779099 656.03937424 146.47308197 655.82874847 147.45732117 655.61174011 C148.7136586 655.33792007 149.96999603 655.06410004 151.2644043 654.78198242 C153.13046577 654.37323128 153.13046577 654.37323128 155.03422546 653.95622253 C159.16876157 653.12865015 163.1699823 652.70778689 167.375 652.5625 C168.38336914 652.51125977 168.38336914 652.51125977 169.41210938 652.45898438 C187.93254606 651.59222086 205.98698296 653.96825347 224.1875 657.1875 C224.91129852 657.31465393 225.63509705 657.44180786 226.38082886 657.57281494 C234.21424683 658.9588615 241.96744486 660.50421858 249.67089844 662.50732422 C252.67923141 663.27998117 255.69767288 663.98052452 258.7265625 664.66796875 C266.82463598 666.52202038 274.88005111 668.54062584 282.9375 670.5625 C283.72829956 670.76075378 284.51909912 670.95900757 285.3338623 671.16326904 C290.74470005 672.52040823 296.15412663 673.88307464 301.5625 675.25 C302.72362305 675.54342285 303.88474609 675.8368457 305.08105469 676.13916016 C316.34560246 678.99878613 327.52777591 682.07034755 338.6730957 685.36376953 C351.78264437 689.22585365 364.96538098 692.82705512 378.13766479 696.46780396 C383.56602492 697.96977726 388.98670938 699.49771287 394.40527344 701.03466797 C416.24293356 707.21398613 438.23416266 712.7560143 460.3125 718 C461.08757904 718.18463806 461.86265808 718.36927612 462.66122437 718.55950928 C471.21637776 720.59324841 479.78290279 722.52439042 488.39453125 724.3046875 C495.83222529 725.84652427 503.17572799 727.60451117 510.5 729.625 C511.48677734 729.89054688 512.47355469 730.15609375 513.49023438 730.4296875 C519.17378145 731.97681563 524.81955673 733.62527333 530.45269775 735.34509277 C542.30119235 738.955431 554.2410505 742.09699882 566.25 745.125 C568.31896394 745.64968334 570.3878925 746.17450621 572.45678711 746.69946289 C595.70279349 752.58612679 618.98763325 758.28886455 642.38720703 763.53564453 C663.48273341 768.28157027 684.56140399 773.1006176 705.5625 778.25 C706.78469238 778.54874023 708.00688477 778.84748047 709.26611328 779.15527344 C732.74351674 784.90253443 756.09953257 791.03532911 779.25 798 C780.15177979 798.26949463 781.05355957 798.53898926 781.98266602 798.81665039 C787.16022385 800.40040265 792.17121232 802.22912385 797.1809082 804.28173828 C801.35785004 805.97991884 805.59923123 807.50709235 809.8359375 809.04882812 C817.07057446 811.72280669 823.74458509 815.36804487 830.5 819.0625 C831.65918945 819.6822168 831.65918945 819.6822168 832.84179688 820.31445312 C837.34056216 822.78249934 841.21221508 825.44089 845.02758789 828.87280273 C847.02867919 830.66827848 849.16786476 832.25543063 851.3125 833.875 C864.77361333 844.65616524 873.25021108 857.83421701 880.375 873.375 C880.74834473 874.18582031 881.12168945 874.99664063 881.50634766 875.83203125 C885.88233374 885.70034666 888.03539031 895.79921788 889.625 906.4375 C889.79491455 907.56679932 889.9648291 908.69609863 890.13989258 909.85961914 C892.45407865 925.78561882 893.54662447 941.73980365 894.1875 957.8125 C894.24780396 959.31574829 894.24780396 959.31574829 894.30932617 960.84936523 C896.35949556 1021.37476225 892.83904931 1082.2442718 888.0625 1142.5625 C887.96094604 1143.84787659 887.85939209 1145.13325317 887.75476074 1146.45758057 C886.08796001 1167.34906864 884.33055984 1188.28294528 881.5625 1209.0625 C879.41656516 1225.75891987 878.14116272 1242.57704076 876.67964172 1259.34500122 C876.25044974 1264.26647713 875.81802822 1269.18766834 875.38589478 1274.10888672 C875.07074241 1277.71810545 874.76121025 1281.32777629 874.4519043 1284.9375 C873.2646347 1298.59665277 871.76123891 1312.16859468 869.89935303 1325.75167847 C869.41119094 1329.37220654 868.96792303 1332.9974909 868.53515625 1336.625 C868.30989258 1338.50795776 868.30989258 1338.50795776 868.08007812 1340.42895508 C867.85481445 1342.32037231 867.85481445 1342.32037231 867.625 1344.25 C865.06362665 1365.56639505 862.35684167 1386.86299433 859.375 1408.125 C859.20806641 1409.33260986 859.04113281 1410.54021973 858.86914062 1411.78442383 C858.71251953 1412.88423584 858.55589844 1413.98404785 858.39453125 1415.1171875 C858.18920776 1416.57294189 858.18920776 1416.57294189 857.97973633 1418.05810547 C857.5625 1420.25 857.5625 1420.25 856.5625 1421.25 C856.1030486 1423.9810129 855.69903389 1426.7018543 855.328125 1429.4453125 C855.20989883 1430.29259415 855.09167267 1431.13987579 854.96986389 1432.01283264 C854.71442656 1433.84372851 854.46067488 1435.67486015 854.20840454 1437.50619507 C853.54451309 1442.31688771 852.86481 1447.12532786 852.18359375 1451.93359375 C852.04700851 1452.89801895 851.91042328 1453.86244415 851.7696991 1454.85609436 C850.55377881 1463.39689223 849.24856778 1471.9207369 847.875 1480.4375 C847.68518555 1481.62553223 847.49537109 1482.81356445 847.29980469 1484.03759766 C846.37678553 1489.69690906 845.35825223 1495.31863207 844.1953125 1500.93359375 C842.77744557 1507.90683521 841.5911989 1514.90757945 840.44140625 1521.9296875 C840.25361099 1523.07534683 840.06581573 1524.22100616 839.87232971 1525.40138245 C839.09221142 1530.17364646 838.31524415 1534.94639867 837.54467773 1539.72021484 C835.53747127 1552.1297879 833.48188175 1564.44749524 830.44458008 1576.65039062 C829.15323254 1581.92014654 828.1423455 1587.23447335 827.125 1592.5625 C825.56985071 1600.50482618 823.89753441 1608.39715912 821.9375 1616.25 C821.74357666 1617.03157471 821.54965332 1617.81314941 821.34985352 1618.6184082 C820.41560882 1622.27585155 819.37636482 1625.84209614 818.12109375 1629.40234375 C816.1772493 1635.10173519 814.98098474 1640.96328723 813.68823242 1646.8374939 C808.77367345 1668.98620651 802.96525057 1689.62920694 783.25 1703.0625 C777.91370889 1706.32068053 772.65954921 1708.01539502 766.5625 1709.25 C765.42832642 1709.50946411 765.42832642 1709.50946411 764.27124023 1709.77416992 C754.1778178 1711.54722809 743.27482703 1710.01853138 733.125 1709.3125 C731.82240234 1709.22548828 730.51980469 1709.13847656 729.17773438 1709.04882812 C726.56260997 1708.87309801 723.94777504 1708.69300564 721.33325195 1708.50854492 C718.95774337 1708.34566609 716.58128961 1708.19557945 714.20385742 1708.0637207 C704.54624178 1707.49085352 695.04401995 1706.15134831 685.48364258 1704.72094727 C682.73805944 1704.3107159 679.99124389 1703.90967741 677.24414062 1703.50976562 C675.46867055 1703.24793404 673.69327705 1702.98558251 671.91796875 1702.72265625 C670.70828682 1702.54598167 670.70828682 1702.54598167 669.47416687 1702.36573792 C665.64912661 1701.78952268 661.88143793 1701.12439285 658.11108398 1700.25708008 C653.25009175 1699.14277611 648.36197602 1698.38767354 643.4296875 1697.6640625 C641.47875893 1697.37191314 639.52783123 1697.07975798 637.5769043 1696.78759766 C636.57202972 1696.63832825 635.56715515 1696.48905884 634.53182983 1696.33526611 C606.40888274 1692.15211815 606.40888274 1692.15211815 593.25 1689.875 C591.88560791 1689.64224365 591.88560791 1689.64224365 590.49365234 1689.40478516 C584.69009682 1688.37759682 584.69009682 1688.37759682 583.5625 1687.25 C580.67781372 1686.71949178 577.80050163 1686.24236006 574.90234375 1685.796875 C573.0688156 1685.50712009 571.2353208 1685.21715408 569.40185547 1684.92700195 C568.43745544 1684.7757486 567.47305542 1684.62449524 566.47943115 1684.46865845 C546.32568209 1681.2985148 526.39064991 1677.69808409 506.56884766 1672.83911133 C501.76529984 1671.69152745 496.93410878 1670.72634334 492.08203125 1669.80859375 C491.06996864 1669.61657127 491.06996864 1669.61657127 490.03746033 1669.42066956 C486.64797089 1668.77955253 483.256999 1668.14848664 479.86303711 1667.53149414 C472.80799317 1666.2130663 466.09101066 1664.5471457 459.26464844 1662.34765625 C450.97885867 1659.89098843 442.48975587 1658.15084154 434.0625 1656.25 C412.58285192 1651.40507682 412.58285192 1651.40507682 402.45605469 1648.13916016 C397.51712145 1646.62147581 392.47692605 1645.56412568 387.4375 1644.4375 C376.44574221 1641.88348421 365.95361692 1638.65532249 355.5625 1634.25 C354.23798828 1633.68925781 354.23798828 1633.68925781 352.88671875 1633.1171875 C341.51750954 1627.50532921 331.35649056 1617.97240801 326.5625 1606.25 C326.16675781 1605.37859375 325.77101563 1604.5071875 325.36328125 1603.609375 C322.30920538 1596.2795929 321.72254945 1589.13243531 321.5625 1581.25 C321.54131104 1580.45231201 321.52012207 1579.65462402 321.49829102 1578.83276367 C321.3655628 1569.87086036 322.07303874 1560.99200036 322.78930664 1552.06665039 C323.00094696 1549.42568324 323.20511307 1546.78421523 323.40820312 1544.14257812 C323.54123212 1542.44267427 323.67468082 1540.7428032 323.80859375 1539.04296875 C323.89928383 1537.87401314 323.89928383 1537.87401314 323.99180603 1536.68144226 C324.25617628 1533.41333065 324.57086804 1530.19285151 325.04614258 1526.94702148 C325.7721354 1521.74905018 326.16112993 1516.53536921 326.578125 1511.3046875 C326.77681543 1508.86644518 326.97563288 1506.42821321 327.17456055 1503.98999023 C327.27844086 1502.70824921 327.38232117 1501.42650818 327.48934937 1500.10592651 C329.26068244 1478.28468891 331.1518556 1456.48018949 333.25 1434.6875 C334.89881521 1417.55370954 336.46874027 1400.42996842 337.5625 1383.25 C336.60406593 1385.12425844 335.65062351 1387.00106985 334.69921875 1388.87890625 C334.16772217 1389.92377197 333.63622559 1390.9686377 333.08862305 1392.04516602 C331.26564025 1395.87340073 329.84792993 1399.75575323 328.51953125 1403.77734375 C327.5625 1406.25 327.5625 1406.25 326.13745117 1408.57543945 C324.60353575 1411.18031365 323.49075369 1413.69816203 322.40625 1416.515625 C321.83197266 1417.97355469 321.83197266 1417.97355469 321.24609375 1419.4609375 C320.45174472 1421.50055316 319.66274697 1423.54226039 318.87890625 1425.5859375 C318.30462891 1427.03613281 318.30462891 1427.03613281 317.71875 1428.515625 C317.37650391 1429.40024414 317.03425781 1430.28486328 316.68164062 1431.19628906 C315.5625 1433.25 315.5625 1433.25 312.5625 1434.25 C312.60246094 1434.97058594 312.64242188 1435.69117188 312.68359375 1436.43359375 C312.55005917 1439.53934971 311.86775012 1441.47133052 310.625 1444.3125 C309.94050781 1445.89417969 309.94050781 1445.89417969 309.2421875 1447.5078125 C308.01513508 1450.26079547 306.76319301 1453.00202269 305.5078125 1455.7421875 C304.75457638 1457.39033633 304.00199276 1459.03878349 303.25 1460.6875 C302.86577881 1461.52877441 302.48155762 1462.37004883 302.08569336 1463.23681641 C298.81201613 1470.49669708 295.94063164 1477.87814439 293.21362305 1485.35913086 C291.63912993 1489.63691267 289.92274929 1493.3425436 287.5625 1497.25 C286.16074835 1500.48587143 284.89565947 1503.7733072 283.625 1507.0625 C281.46145057 1512.65271154 279.231693 1518.11377331 276.48901367 1523.44702148 C272.81271294 1530.6010349 269.64792506 1538.0147104 266.5625 1545.4375 C264.39029515 1550.56299124 261.95343867 1555.28015657 258.95703125 1559.96875 C257.47995494 1562.29741665 257.47995494 1562.29741665 256.19921875 1565.1015625 C250.18509578 1576.67049595 240.19768103 1588.08039026 227.5625 1592.25 C205.76600756 1597.32317906 184.63902525 1594.12066562 163.5078125 1587.35546875 C155.81118492 1584.92588815 147.98769604 1583.19971712 140.11642456 1581.44552612 C127.24397913 1578.56992576 114.46743465 1575.5739215 101.828125 1571.7890625 C97.54762322 1570.51311085 93.24063119 1569.34925385 88.921875 1568.2109375 C88.24874771 1568.03335403 87.57562042 1567.85577057 86.88209534 1567.67280579 C84.18273081 1566.96202155 81.48298576 1566.25284474 78.78121948 1565.55123901 C71.87589472 1563.75760398 65.21302876 1561.82324853 58.5625 1559.25 C55.74681652 1558.39073166 52.90716363 1557.63190333 50.0625 1556.875 C35.6066515 1552.93021082 21.42621125 1548.24221819 7.22875977 1543.45996094 C1.44805143 1541.51801412 -4.34099663 1539.66053317 -10.18945312 1537.93408203 C-13.58428257 1536.90103337 -16.91433648 1535.7082127 -20.25 1534.5 C-26.4132018 1532.29758388 -32.59819675 1530.17858253 -38.8125 1528.125 C-48.03814063 1525.06848888 -57.24297639 1521.95223389 -66.4397583 1518.81011963 C-68.00969405 1518.27410015 -69.57996136 1517.73905072 -71.15057373 1517.20501709 C-73.37996761 1516.44668957 -75.60809144 1515.68473603 -77.8359375 1514.921875 C-78.49875732 1514.69708466 -79.16157715 1514.47229431 -79.84448242 1514.24069214 C-84.14178553 1512.76330623 -88.27446289 1511.06026574 -92.4375 1509.25 C-94.07299905 1508.71716773 -95.71839882 1508.21307654 -97.375 1507.75 C-101.83461543 1506.49922305 -106.11331531 1504.89692682 -110.4375 1503.25 C-111.78208836 1502.7487543 -113.12713667 1502.24874057 -114.47265625 1501.75 C-115.81510417 1501.25 -117.15755208 1500.75 -118.5 1500.25 C-119.16837891 1500.0025 -119.83675781 1499.755 -120.52539062 1499.5 C-123.72485655 1498.30603021 -126.87225227 1497.06327034 -130.01171875 1495.71484375 C-133.3689087 1494.27932923 -136.74903358 1493.03888636 -140.1875 1491.8125 C-148.01135806 1488.9399539 -155.63036613 1485.62213968 -163.25 1482.25 C-164.38211914 1481.75185791 -165.51423828 1481.25371582 -166.68066406 1480.74047852 C-173.79302633 1477.56550253 -180.68065467 1474.12617762 -187.4375 1470.25 C-188.3653833 1469.73824219 -189.2932666 1469.22648437 -190.24926758 1468.69921875 C-190.97138428 1468.22097656 -191.69350098 1467.74273438 -192.4375 1467.25 C-192.4375 1466.59 -192.4375 1465.93 -192.4375 1465.25 C-193.18 1465.0128125 -193.9225 1464.775625 -194.6875 1464.53125 C-201.58575922 1461.31728832 -206.26947133 1452.8045783 -209.40625 1446.0859375 C-217.63766927 1423.44953451 -210.54230402 1401.17259921 -204.53564453 1378.90698242 C-201.93213446 1369.24402855 -199.52560978 1359.54278281 -197.1875 1349.8125 C-196.8204764 1348.29097608 -196.45328963 1346.76949151 -196.0859375 1345.24804688 C-195.20125351 1341.58247969 -194.31874339 1337.91639579 -193.4375 1334.25 C-192.7775 1334.25 -192.1175 1334.25 -191.4375 1334.25 C-191.31673096 1333.08251221 -191.19596191 1331.91502441 -191.0715332 1330.7121582 C-190.5548611 1326.60163801 -189.5432005 1322.81215779 -188.29296875 1318.85546875 C-188.08190994 1318.1826033 -187.87085114 1317.50973785 -187.65339661 1316.81648254 C-187.20859468 1315.40292308 -186.76053011 1313.99038642 -186.30932617 1312.57885742 C-185.63064666 1310.45516925 -184.96189904 1308.32856085 -184.29492188 1306.20117188 C-182.13818046 1299.35833601 -179.86068858 1292.5809448 -177.36450195 1285.85327148 C-175.36409132 1280.23557896 -173.75812206 1274.48848168 -172.08203125 1268.76757812 C-170.45984164 1263.32480167 -168.61298358 1258.09211895 -166.45068359 1252.8425293 C-164.5428993 1247.96090005 -163.05361935 1242.94059689 -161.5 1237.9375 C-158.99794921 1229.97712018 -156.41101716 1222.13593175 -153.25 1214.41015625 C-152.32014977 1212.3226574 -152.32014977 1212.3226574 -152.4375 1210.25 C-153.6644458 1210.38132324 -154.8913916 1210.51264648 -156.15551758 1210.64794922 C-167.80281855 1211.86969051 -179.4278165 1212.80910338 -191.125 1213.375 C-191.97413971 1213.41702545 -192.82327942 1213.4590509 -193.69815063 1213.50234985 C-208.83932048 1214.23114931 -223.96764214 1214.43837579 -239.125 1214.4375 C-240.13219086 1214.43840637 -241.13938171 1214.43931274 -242.17709351 1214.44024658 C-259.95345298 1214.43842846 -277.74362121 1214.06549571 -295.4375 1212.25 C-297.2706028 1212.10129697 -299.10395653 1211.95566709 -300.9375 1211.8125 C-306.37938086 1211.35603817 -311.81571513 1210.85122574 -317.25 1210.3125 C-318.45076172 1210.20047241 -318.45076172 1210.20047241 -319.67578125 1210.08618164 C-324.47137584 1209.59812998 -328.80061861 1208.62308356 -333.4375 1207.25 C-335.55657563 1206.93616222 -337.68271283 1206.6676789 -339.8125 1206.4375 C-359.09474417 1204.00567775 -379.28537848 1200.32625076 -397.4375 1193.25 C-399.07907166 1192.79677146 -400.72549707 1192.36095448 -402.375 1191.9375 C-413.75539438 1188.90693728 -424.69743071 1184.79174387 -435.3046875 1179.6875 C-438.59169955 1178.17924509 -441.91533352 1176.92564724 -445.3125 1175.6875 C-449.6841297 1174.05207018 -453.13385852 1172.3122483 -456.77734375 1169.4296875 C-458.68670064 1168.07292096 -460.59222463 1167.22064198 -462.75 1166.3125 C-467.96116994 1164.11459159 -472.64728727 1161.23803172 -477.4375 1158.25 C-478.43910156 1157.64865234 -478.43910156 1157.64865234 -479.4609375 1157.03515625 C-492.84652265 1148.9218526 -507.35515074 1138.40364759 -517.4375 1126.25 C-517.4375 1125.59 -517.4375 1124.93 -517.4375 1124.25 C-518.0975 1124.25 -518.7575 1124.25 -519.4375 1124.25 C-525.2810734 1118.73808887 -529.83719942 1111.78677208 -534.4375 1105.25 C-534.95183594 1104.54359375 -535.46617187 1103.8371875 -535.99609375 1103.109375 C-540.59938962 1096.57244537 -543.99387278 1089.42321117 -547.45996094 1082.2421875 C-548.12857368 1080.87958012 -548.81505755 1079.52563619 -549.51660156 1078.1796875 C-551.54589119 1074.27307331 -553.02365649 1070.71575665 -553.9375 1066.375 C-554.81145554 1062.58156053 -555.81449686 1059.12676203 -557.375 1055.5625 C-560.37248644 1048.41200753 -561.84185502 1040.80947362 -563.4375 1033.25 C-563.65237061 1032.23945557 -563.65237061 1032.23945557 -563.87158203 1031.20849609 C-566.42086431 1019.01588393 -567.79700292 1006.7561632 -568.86328125 994.35546875 C-569.5786199 986.16043483 -570.42024937 978.0637424 -571.80175781 969.95117188 C-575.33920976 949.07817628 -576.62814274 927.94874264 -578.23828125 906.85821533 C-578.41520307 904.54191631 -578.59373361 902.22575252 -578.7734375 899.90966797 C-579.11539564 895.50175822 -579.45717677 891.09386816 -579.78735352 886.68505859 C-580.29611174 879.90888091 -580.88773234 873.1425236 -581.5 866.375 C-582.20493835 858.55005105 -582.7019096 850.74100455 -583.0348798 842.891994 C-583.30852418 836.88581136 -583.81104956 830.92429538 -584.39718628 824.94152832 C-585.42158103 814.05305806 -586.06115356 803.17051945 -586.58251953 792.24804688 C-586.68095378 790.25767152 -586.77978212 788.26731562 -586.87896729 786.27697754 C-587.14338823 780.9471324 -587.40214402 775.61702701 -587.6595788 770.28684044 C-587.93157476 764.67191841 -588.20831841 759.05722996 -588.48434448 753.44250488 C-588.9463936 744.02888211 -589.40476006 734.61508563 -589.86083984 725.20117188 C-590.38658816 714.35010356 -590.91806141 703.49932712 -591.45260537 692.64868879 C-591.96945162 682.15486883 -592.48240675 671.66086215 -592.99355698 661.16676331 C-593.21002859 656.72369856 -593.42780958 652.28070093 -593.6466713 647.8377533 C-593.90428586 642.60430088 -594.15846047 637.37069197 -594.41007233 632.13694763 C-594.50242183 630.22703402 -594.59590543 628.31717483 -594.69066238 626.40737915 C-595.20576672 616.00970517 -595.57494569 605.66342756 -595.4375 595.25 C-596.20537842 595.41030952 -596.97325684 595.57061905 -597.7644043 595.73578644 C-600.61841751 596.28480243 -603.34736886 596.48413325 -606.25 596.62304688 C-607.3946875 596.67980591 -608.539375 596.73656494 -609.71875 596.79504395 C-611.55953125 596.88102844 -611.55953125 596.88102844 -613.4375 596.96875 C-614.7059375 597.03155151 -615.974375 597.09435303 -617.28125 597.15905762 C-622.02029253 597.39359008 -626.75963723 597.62148225 -631.49902344 597.84893799 C-636.14538901 598.07228911 -640.79145928 598.30122023 -645.4375 598.53125 C-647.27828125 598.6172345 -647.27828125 598.6172345 -649.15625 598.70495605 C-650.3009375 598.76171509 -651.445625 598.81847412 -652.625 598.87695312 C-653.62917969 598.92501099 -654.63335938 598.97306885 -655.66796875 599.02258301 C-658.32837719 599.2410395 -660.83078111 599.6893799 -663.4375 600.25 C-664.86346643 600.37527453 -666.29252675 600.46957679 -667.72265625 600.53125 C-668.50060547 600.56863281 -669.27855469 600.60601563 -670.08007812 600.64453125 C-671.69725823 600.71501368 -673.31444578 600.78532536 -674.93164062 600.85546875 C-675.70830078 600.89285156 -676.48496094 600.93023438 -677.28515625 600.96875 C-677.98648682 600.99904297 -678.68781738 601.02933594 -679.41040039 601.06054688 C-681.41444162 601.18862183 -681.41444162 601.18862183 -683.20507812 601.73510742 C-686.53885585 602.50402007 -689.90254986 602.60107721 -693.30859375 602.76953125 C-694.09576279 602.81044388 -694.88293182 602.85135651 -695.69395447 602.89350891 C-705.62450556 603.38810667 -715.56034487 603.69816565 -725.5 603.9375 C-726.48219513 603.96123688 -727.46439026 603.98497375 -728.47634888 604.00942993 C-766.54164003 604.87163768 -766.54164003 604.87163768 -779.4375 600.25 C-781.2038644 599.98860975 -782.97538374 599.76025029 -784.75 599.5625 C-798.90380194 597.26206817 -810.88614879 590.75889461 -821.4375 581.25 C-822.33082031 580.45207031 -823.22414063 579.65414062 -824.14453125 578.83203125 C-836.59751493 566.49382162 -841.34680826 550.02804089 -844.4375 533.25 C-844.7675 532.26 -845.0975 531.27 -845.4375 530.25 C-845.89919986 526.61050655 -846.30191204 522.97028917 -846.6875 519.32226562 C-847.06737082 515.15564682 -847.06737082 515.15564682 -848.4375 511.25 C-848.71542924 509.604979 -848.94779675 507.9521351 -849.15625 506.296875 C-849.28338379 505.29100342 -849.41051758 504.28513184 -849.54150391 503.2487793 C-849.73752197 501.64063354 -849.73752197 501.64063354 -849.9375 500 C-850.0720459 498.91565674 -850.2065918 497.83131348 -850.34521484 496.71411133 C-851.19202291 489.73289227 -851.8636907 482.78588004 -852.2265625 475.76171875 C-852.34876158 473.12333817 -852.34876158 473.12333817 -853.4375 470.25 C-853.71640063 467.58401659 -853.95373729 464.9296496 -854.15625 462.2578125 C-854.21905151 461.47485809 -854.28185303 460.69190369 -854.34655762 459.88522339 C-854.54709551 457.38208298 -854.74277033 454.8785985 -854.9375 452.375 C-855.13249617 449.87856756 -855.3286365 447.38225228 -855.52844238 444.88619995 C-855.65265869 443.33379493 -855.77412277 441.78116654 -855.89245605 440.228302 C-856.1906956 436.49401057 -856.68229516 432.91430118 -857.4375 429.25 C-859.52850327 413.02514499 -860.19325607 396.68444174 -860.92504883 380.35473633 C-861.09165582 376.64057419 -861.26928729 372.92702809 -861.44980145 369.2135191 C-861.58917551 366.31829101 -861.72234635 363.42280238 -861.85370827 360.5272007 C-861.9166922 359.15688534 -861.98166875 357.78665992 -862.04877281 356.41654015 C-862.14134962 354.50935621 -862.22453793 352.60172367 -862.30737305 350.6940918 C-862.35685593 349.61524216 -862.40633881 348.53639252 -862.45732117 347.42485046 C-862.43562977 343.95043681 -861.97319086 340.67975427 -861.4375 337.25 C-861.32972887 335.28417469 -861.22328489 333.31811828 -861.14672852 331.35083008 C-860.83566945 323.36157109 -860.07264129 315.48502588 -859 307.5625 C-858.8777002 306.64267334 -858.75540039 305.72284668 -858.62939453 304.77514648 C-857.92431299 299.77676936 -856.88444863 295.09668973 -855.4375 290.25 C-855.09294556 288.31794287 -854.77903314 286.38010212 -854.5 284.4375 C-853.38991719 277.4908099 -851.49468493 271.02071081 -849.0078125 264.453125 C-847.98721116 261.75543931 -847.02014269 259.05047806 -846.11328125 256.3125 C-842.94129708 246.80003574 -839.06115454 237.97387065 -834.40136719 229.1015625 C-832.90966656 226.2360464 -831.49044367 223.33518082 -830.0625 220.4375 C-828.6342557 217.54510582 -827.2304431 214.93941465 -825.4375 212.25 C-824.7775 212.25 -824.1175 212.25 -823.4375 212.25 C-823.2003125 211.57582031 -822.963125 210.90164063 -822.71875 210.20703125 C-821.12722154 206.53390001 -819.10235917 203.29545248 -816.9375 199.9375 C-816.53402344 199.29232422 -816.13054687 198.64714844 -815.71484375 197.98242188 C-814.67904258 196.36718738 -813.56409452 194.80327117 -812.4375 193.25 C-811.7775 193.25 -811.1175 193.25 -810.4375 193.25 C-810.18871094 192.69441406 -809.93992187 192.13882813 -809.68359375 191.56640625 C-808.21654015 188.83925018 -806.44863998 186.59336277 -804.5 184.1875 C-803.81035156 183.33027344 -803.12070312 182.47304688 -802.41015625 181.58984375 C-799.19799374 177.77977376 -799.19799374 177.77977376 -797.4375 176.25 C-796.7775 176.25 -796.1175 176.25 -795.4375 176.25 C-795.21320313 175.68925781 -794.98890625 175.12851562 -794.7578125 174.55078125 C-793.04437657 171.56494172 -790.88933939 169.71645963 -788.3125 167.4375 C-787.8167749 166.99736572 -787.3210498 166.55723145 -786.81030273 166.10375977 C-785.35642983 164.8149554 -783.89706906 163.5323499 -782.4375 162.25 C-781.75042969 161.62609375 -781.06335938 161.0021875 -780.35546875 160.359375 C-766.84711305 148.18763555 -751.25253312 138.13741054 -735.4375 129.25 C-734.21933594 128.55777344 -734.21933594 128.55777344 -732.9765625 127.8515625 C-728.86357812 125.53537676 -724.70347319 123.36500268 -720.46875 121.28125 C-718.25816746 120.15895425 -716.09900824 118.96399778 -713.9375 117.75 C-708.23319529 114.55480527 -702.48327948 111.67053929 -696.44921875 109.1484375 C-693.91949236 108.01865678 -691.46798237 106.75897076 -689 105.5 C-683.4101933 102.66980747 -677.72506443 100.13854017 -671.95727539 97.69824219 C-668.2555534 96.11595382 -664.87611772 94.32892002 -661.4375 92.25 C-658.63012902 90.83998916 -655.78550331 89.51312503 -652.9375 88.1875 C-651.81794922 87.6605957 -651.81794922 87.6605957 -650.67578125 87.12304688 C-646.96608545 85.38638397 -643.25146669 83.74759426 -639.4375 82.25 C-638.1690625 81.6003125 -638.1690625 81.6003125 -636.875 80.9375 C-632.80785314 78.94090063 -628.65158056 77.2363293 -624.46484375 75.5078125 C-619.09884136 73.27832506 -613.79536192 70.9666899 -608.625 68.3125 C-604.45879703 66.20075076 -600.17133614 64.443529 -595.8515625 62.671875 C-591.98224695 61.06039805 -588.14751165 59.37851814 -584.3125 57.6875 C-574.84984219 53.53167777 -565.33177237 49.80737591 -555.5390625 46.49609375 C-552.67258287 45.34444765 -550.85362983 44.10968781 -548.4375 42.25 C-546.60265409 41.45390044 -544.74580767 40.70746921 -542.875 40 C-538.65248349 38.31403118 -535.17637061 36.47287682 -531.5 33.8125 C-515.57215154 23.34693963 -496.07182949 22.17564623 -477.90307617 25.74780273 C-468.90451724 27.69190314 -461.12524348 30.05913047 -453.4375 35.25 C-452.7775 35.58 -452.1175 35.91 -451.4375 36.25 C-451.4375 36.91 -451.4375 37.57 -451.4375 38.25 C-450.71691406 38.45496094 -449.99632812 38.65992188 -449.25390625 38.87109375 C-445.64851078 40.63628737 -443.70436918 43.15499033 -441.375 46.3125 C-440.71975342 47.18334229 -440.71975342 47.18334229 -440.05126953 48.07177734 C-436.26576133 53.23072548 -432.4375 58.66565068 -432.4375 65.25 C-431.7775 65.25 -431.1175 65.25 -430.4375 65.25 C-429.85742188 66.28898437 -429.27734375 67.32796875 -428.6796875 68.3984375 C-427.89097741 69.80748898 -427.10188897 71.21632873 -426.3125 72.625 C-425.90233643 73.35726807 -425.49217285 74.08953613 -425.06958008 74.84399414 C-422.82373699 78.83772923 -420.52985539 82.7865649 -418.125 86.6875 C-415.90344164 90.3433062 -414.10690277 94.03921493 -412.42578125 97.96875 C-409.51542682 104.68672229 -406.14298369 110.80660196 -401.98046875 116.8203125 C-399.62332653 120.53206556 -397.79231947 124.4753008 -395.9296875 128.453125 C-394.3707006 131.37520516 -392.54973916 133.70702972 -390.4375 136.25 C-389.49349949 137.60637967 -388.57364846 138.98013668 -387.6875 140.375 C-387.25953125 141.03757812 -386.8315625 141.70015625 -386.390625 142.3828125 C-385.4375 144.25 -385.4375 144.25 -385.4375 147.25 C-384.7775 147.25 -384.1175 147.25 -383.4375 147.25 C-381.703125 149.15625 -381.703125 149.15625 -379.6875 151.75 C-378.62789062 153.11125 -378.62789062 153.11125 -377.546875 154.5 C-376.50273438 155.86125 -376.50273438 155.86125 -375.4375 157.25 C-374.82390625 158.03375 -374.2103125 158.8175 -373.578125 159.625 C-369.4375 164.98809524 -369.4375 164.98809524 -369.4375 167.25 C-368.6021875 167.5903125 -368.6021875 167.5903125 -367.75 167.9375 C-365.42978628 169.25437806 -363.83479123 170.75894634 -362.0078125 172.68359375 C-359.23506414 175.44944473 -356.20857532 177.93960458 -353.23046875 180.48046875 C-352.63878906 181.06441406 -352.04710937 181.64835938 -351.4375 182.25 C-351.4375 182.91 -351.4375 183.57 -351.4375 184.25 C-350.7775 184.25 -350.1175 184.25 -349.4375 184.25 C-349.4375 184.91 -349.4375 185.57 -349.4375 186.25 C-348.61572266 186.63865234 -348.61572266 186.63865234 -347.77734375 187.03515625 C-345.07495841 188.43823111 -342.55881085 190.0372267 -340 191.6875 C-329.28908623 198.58479217 -318.30210761 203.51531573 -306.15625 207.3828125 C-304.50079741 207.91084479 -302.85226196 208.46225182 -301.21875 209.0546875 C-294.81981238 211.37072089 -288.2598166 212.65126301 -281.57226562 213.85742188 C-280.12611231 214.1233659 -278.68208336 214.40108333 -277.24023438 214.68945312 C-248.82656473 220.37218705 -218.28267175 215.62082522 -192.5625 202.2421875 C-190.09272476 201.08902038 -187.58325995 200.24326237 -185 199.375 C-180.41867727 197.75954736 -176.7327724 195.71867324 -172.80615234 192.87866211 C-170.53913675 191.31988443 -168.23754319 190.01529248 -165.828125 188.69140625 C-159.62132681 184.98916575 -154.79244904 180.1929627 -149.75 175.0625 C-148.85216797 174.18013672 -147.95433594 173.29777344 -147.02929688 172.38867188 C-141.84817756 167.17718703 -137.64356845 161.95071189 -133.90527344 155.61791992 C-132.54933011 153.43041256 -131.12521902 151.62755648 -129.375 149.75 C-126.19265658 146.21312495 -124.13235413 142.26749422 -121.9375 138.06640625 C-120.53245649 135.4282907 -119.01996199 132.90941178 -117.4375 130.375 C-114.50590326 125.55279126 -112.1773342 120.54014305 -109.87109375 115.39453125 C-108.63754832 112.68879808 -107.32125494 110.06796066 -105.9375 107.4375 C-101.9031018 99.45921894 -99.03953677 90.89986221 -96.12109375 82.4609375 C-93.96757121 76.2636532 -91.66055413 70.41029749 -88.6171875 64.59765625 C-87.03991135 61.45877226 -85.80421565 58.22205616 -84.53515625 54.94921875 C-82.80901515 50.70450877 -80.82738419 46.58168763 -78.8828125 42.43359375 C-77.59062587 39.58729077 -76.42745179 36.73156668 -75.3125 33.8125 C-70.67690875 22.09161481 -62.3512357 14.12525739 -51.4375 8.25 C-50.72722656 7.7653125 -50.01695312 7.280625 -49.28515625 6.78125 C-45.08145929 4.52082585 -40.64818888 3.39243345 -36.0625 2.125 C-35.14210938 1.86074219 -34.22171875 1.59648437 -33.2734375 1.32421875 C-21.68697637 -1.93654245 -11.74349409 -2.26911061 0 0 Z M5.5 115.734375 C3.15798451 118.7752177 1.86252698 121.93133316 0.5625 125.5 C-2.57102627 133.73658507 -2.57102627 133.73658507 -4.5625 137.5 C-6.11562787 140.44712379 -7.23104636 143.41121499 -8.3125 146.5625 C-10.04936617 151.51909041 -12.31946633 155.92401684 -14.97265625 160.44921875 C-16.56113602 163.32730724 -16.56113602 163.32730724 -17.73828125 166.91015625 C-19.6908931 172.29809496 -22.65167498 177.08409361 -25.5625 182 C-26.65292438 183.84631575 -27.73904961 185.69517909 -28.8203125 187.546875 C-29.53791748 188.75875488 -29.53791748 188.75875488 -30.27001953 189.99511719 C-31.36078432 192.10183062 -31.98053394 193.93267139 -32.4375 196.25 C-33.0975 196.25 -33.7575 196.25 -34.4375 196.25 C-34.84613281 197.11109375 -35.25476563 197.9721875 -35.67578125 198.859375 C-38.02523264 203.38115728 -40.90177041 207.45229443 -43.79296875 211.640625 C-45.61522757 214.01793884 -45.61522757 214.01793884 -45.4375 216.25 C-46.0975 216.25 -46.7575 216.25 -47.4375 216.25 C-49.32160325 218.63310331 -51.10819557 221.03202979 -52.875 223.5 C-59.41215221 232.43782382 -66.58020455 240.44307183 -74.4375 248.25 C-75.18 249.013125 -75.9225 249.77625 -76.6875 250.5625 C-79.62643225 253.43463834 -82.70820585 256.06901726 -85.86328125 258.69921875 C-86.38277344 259.21097656 -86.90226563 259.72273437 -87.4375 260.25 C-87.4375 260.91 -87.4375 261.57 -87.4375 262.25 C-88.4275 262.5284375 -88.4275 262.5284375 -89.4375 262.8125 C-92.2387185 264.15475053 -93.85300471 265.38210467 -96.125 267.4375 C-100.62027236 271.49747596 -105.40906755 274.88368539 -110.4375 278.25 C-111.96310547 279.301875 -111.96310547 279.301875 -113.51953125 280.375 C-125.26248274 288.32490505 -138.1098294 294.39450419 -151.3515625 299.43359375 C-153.42950492 300.24687084 -155.42092838 301.17079849 -157.4375 302.125 C-164.13862946 305.15247456 -171.21682404 307.2583722 -178.2043457 309.51831055 C-179.65201636 309.99263753 -181.09618687 310.47783898 -182.53588867 310.97583008 C-199.35173987 316.77366907 -216.98668251 321.14246094 -234.77783203 322.10595703 C-236.68851469 322.20943626 -238.59832207 322.32957918 -240.50732422 322.46044922 C-254.12817445 323.38992937 -266.7102227 323.33238362 -280.10253906 320.67626953 C-283.39041361 320.07603647 -286.69519414 319.68119519 -290.01098633 319.26879883 C-298.83963283 318.14986044 -307.4263153 316.46232306 -316.0625 314.3125 C-317.03340576 314.07168701 -318.00431152 313.83087402 -319.00463867 313.58276367 C-324.79620634 312.08731643 -330.36374089 310.24647408 -335.96386719 308.14916992 C-339.01728957 307.03924546 -342.10591624 306.18912773 -345.25 305.375 C-361.13341842 300.91589015 -376.56136187 293.1307284 -390.4375 284.25 C-391.0975 284.25 -391.7575 284.25 -392.4375 284.25 C-392.4375 283.59 -392.4375 282.93 -392.4375 282.25 C-396.24177492 280.0486134 -396.24177492 280.0486134 -400.4375 279.25 C-400.4375 278.59 -400.4375 277.93 -400.4375 277.25 C-402.81013772 275.45973372 -402.81013772 275.45973372 -405.75 273.6875 C-406.73613281 273.06746094 -407.72226562 272.44742188 -408.73828125 271.80859375 C-411.40109748 270.15072608 -411.40109748 270.15072608 -414.4375 269.25 C-414.4375 268.59 -414.4375 267.93 -414.4375 267.25 C-417.91748507 263.61366461 -417.91748507 263.61366461 -422.4375 262.25 C-422.7675 261.26 -423.0975 260.27 -423.4375 259.25 C-425.17790534 257.71084675 -426.9789391 256.23940501 -428.8125 254.8125 C-432.23396942 252.14483717 -434.86307192 249.71679119 -437.4375 246.25 C-438.0975 246.25 -438.7575 246.25 -439.4375 246.25 C-439.6953125 245.67765625 -439.953125 245.1053125 -440.21875 244.515625 C-441.55115942 242.03871005 -443.08806118 240.1158834 -444.9375 238 C-445.5459375 237.29359375 -446.154375 236.5871875 -446.78125 235.859375 C-448.29166368 234.01770496 -448.29166368 234.01770496 -450.4375 234.25 C-450.4375 233.59 -450.4375 232.93 -450.4375 232.25 C-451.0975 232.25 -451.7575 232.25 -452.4375 232.25 C-452.685 231.70472656 -452.9325 231.15945313 -453.1875 230.59765625 C-454.70119553 227.75474682 -456.52171122 225.27592785 -458.4375 222.6875 C-460.49383227 219.90162338 -462.5165625 217.13140624 -464.4375 214.25 C-465.0975 214.25 -465.7575 214.25 -466.4375 214.25 C-466.64375 213.59 -466.85 212.93 -467.0625 212.25 C-468.58472148 208.9287895 -470.51025339 206.42029112 -472.734375 203.54296875 C-475.23072089 200.1820627 -477.42743695 196.65222074 -479.6484375 193.10546875 C-480.8271187 191.2242112 -482.01955902 189.35149405 -483.2265625 187.48828125 C-487.28218158 181.226191 -490.9460882 174.84110424 -494.4375 168.25 C-495.09601947 167.01284262 -495.75489327 165.7758738 -496.4140625 164.5390625 C-496.75663086 163.89573975 -497.09919922 163.25241699 -497.45214844 162.58959961 C-498.14662545 161.28753612 -498.8425723 159.98625545 -499.54003906 158.68579102 C-501.01976319 155.92537206 -502.48045505 153.164206 -503.8828125 150.36328125 C-504.29273438 149.56277344 -504.70265625 148.76226562 -505.125 147.9375 C-505.45886719 147.26074219 -505.79273438 146.58398438 -506.13671875 145.88671875 C-508.00059633 143.54147939 -509.53944393 142.94837715 -512.4375 142.25 C-515.20440983 142.80999812 -515.20440983 142.80999812 -518.0625 144.125 C-519.18914062 144.59292969 -520.31578125 145.06085938 -521.4765625 145.54296875 C-522.09950195 145.81157715 -522.72244141 146.08018555 -523.36425781 146.35693359 C-525.68131102 147.35502364 -528.0077969 148.32884344 -530.3359375 149.30078125 C-533.64479632 150.68437093 -536.94932998 152.07746102 -540.25 153.48046875 C-542.58540114 154.47301424 -544.92130478 155.4413953 -547.28125 156.375 C-549.70180488 157.31866097 -549.70180488 157.31866097 -552.9375 159.0625 C-556.40053153 160.82644115 -559.91805065 162.21467445 -563.5625 163.5625 C-569.66517932 165.85455282 -575.3688537 168.61025566 -581.1484375 171.6015625 C-586.43631446 174.25178112 -591.90415356 176.4477575 -597.375 178.6875 C-602.17813566 180.68632043 -606.8235601 182.85256064 -611.4375 185.25 C-613.10174362 186.10887814 -614.76854869 186.96280594 -616.4375 187.8125 C-617.200625 188.20566406 -617.96375 188.59882813 -618.75 189.00390625 C-620.9071024 190.00407437 -623.01189615 190.84455175 -625.2421875 191.65234375 C-629.51178397 193.22263762 -633.51775227 195.17696937 -637.5625 197.25 C-638.23925781 197.59289062 -638.91601562 197.93578125 -639.61328125 198.2890625 C-640.94299036 198.96291896 -642.27195049 199.63825574 -643.60009766 200.31518555 C-646.20560522 201.64078859 -648.82142159 202.945403 -651.4375 204.25 C-652.60023438 204.83136719 -653.76296875 205.41273438 -654.9609375 206.01171875 C-670.19921875 213.63085938 -670.19921875 213.63085938 -685.4375 221.25 C-685.4375 221.91 -685.4375 222.57 -685.4375 223.25 C-686.45650391 223.60771484 -686.45650391 223.60771484 -687.49609375 223.97265625 C-698.98170933 228.96043353 -708.57510529 237.60763716 -717.4375 246.25 C-718.82388672 247.50876953 -718.82388672 247.50876953 -720.23828125 248.79296875 C-731.42128481 259.24836529 -740.43504362 273.10894355 -745.4375 287.625 C-746.69140767 291.21394044 -748.05109715 294.70007786 -749.5625 298.1875 C-751.44481695 302.82711718 -752.29063993 307.36622625 -753.00390625 312.30859375 C-753.40213381 315.01008342 -753.92085362 317.64504477 -754.5 320.3125 C-756.5256379 330.34131063 -756.6004193 340.42667062 -756.5625 350.625 C-756.5609491 351.28096161 -756.55939819 351.93692322 -756.55780029 352.61276245 C-756.51359129 368.6428983 -755.80062545 384.49543228 -754.16845703 400.44091797 C-753.56686019 406.43784142 -753.19010811 412.41642198 -752.9375 418.4375 C-752.65408261 425.07222247 -752.17425075 431.64949302 -751.4375 438.25 C-751.35435547 438.99789795 -751.27121094 439.7457959 -751.18554688 440.51635742 C-750.73495337 444.39343193 -750.73495337 444.39343193 -749.92163086 448.20556641 C-749.40743698 450.37695295 -749.26377731 452.35729887 -749.19140625 454.5859375 C-749.14209961 455.81183594 -749.14209961 455.81183594 -749.09179688 457.0625 C-749.03088334 458.76289495 -748.97355745 460.46342242 -748.91992188 462.1640625 C-748.72128449 466.93135979 -748.03285551 470.72044162 -746.4375 475.25 C-746.20414292 477.53583866 -746.03974691 479.82955681 -745.9375 482.125 C-745.62768474 487.44255654 -744.96544348 492.15685508 -743.4375 497.25 C-732.72602081 499.26613918 -721.64416904 498.21034288 -710.81640625 497.6640625 C-709.55521469 497.60221771 -708.29402313 497.54037292 -706.99461365 497.47665405 C-704.33981819 497.34544249 -701.68513067 497.21289243 -699.03051758 497.078125 C-695.04215488 496.87597329 -691.05331081 496.68432663 -687.06445312 496.4921875 C-673.7234024 495.83364881 -660.43709991 494.98830729 -647.14233398 493.69628906 C-640.8332169 493.08409556 -634.51456566 492.6875208 -628.1875 492.3125 C-625.57283436 492.14963079 -622.95824932 491.98580066 -620.34375 491.8203125 C-619.65637756 491.7769426 -618.96900513 491.73357269 -618.26080322 491.68888855 C-609.35448149 491.12325895 -600.45131252 490.51200394 -591.5489502 489.88742065 C-589.64695327 489.75453403 -587.74485311 489.62311647 -585.84265137 489.49319458 C-583.17086167 489.31045674 -580.49947202 489.12267872 -577.828125 488.93359375 C-576.62089783 488.85242813 -576.62089783 488.85242813 -575.38928223 488.7696228 C-572.21859803 488.54047014 -569.46716234 488.25988745 -566.4375 487.25 C-548.6391778 485.94460965 -531.5124054 486.6622738 -516.4375 497.25 C-514.67146543 498.9483992 -513.17677687 500.66154976 -511.69921875 502.61328125 C-510.34932142 504.47287447 -510.34932142 504.47287447 -507.875 506.5 C-504.25652275 510.58238459 -502.4542646 515.22209381 -500.4375 520.25 C-500.004375 521.29800781 -500.004375 521.29800781 -499.5625 522.3671875 C-490.56964977 546.44179696 -491.8525613 575.17877878 -490.65221095 600.50075793 C-490.44019107 604.94999101 -490.22225879 609.39893488 -490.00502014 613.84791565 C-489.59489021 622.26520376 -489.18995021 630.68273293 -488.78694302 639.10036474 C-488.33140278 648.60984758 -487.86994165 658.11904016 -487.40801799 667.62821472 C-486.72433307 681.70534333 -486.04329295 695.78259712 -485.36721623 709.86009324 C-485.25573648 712.17734062 -485.1436993 714.49456046 -485.0315237 716.81177425 C-484.7214326 723.23011173 -484.41641796 729.64847081 -484.14041138 736.06838989 C-484.09686051 737.05879052 -484.05330965 738.04919115 -484.00843906 739.06960392 C-483.93221203 740.81906941 -483.85917117 742.56867866 -483.7903204 744.31844997 C-483.63481901 748.31026029 -483.63481901 748.31026029 -482.94016838 752.23204231 C-482.05158861 755.79923781 -482.06961414 759.49157894 -481.89672852 763.15161133 C-481.85102722 764.05159348 -481.80532593 764.95157562 -481.75823975 765.87882996 C-481.65938411 767.83537497 -481.56235206 769.79201277 -481.46692085 771.7487278 C-481.31463948 774.86822367 -481.15735086 777.98743188 -480.99876404 781.10661316 C-480.60499744 788.87143509 -480.21954044 796.63666511 -479.83435059 804.4019165 C-479.50979857 810.9395104 -479.18172468 817.47691014 -478.849226 824.01410484 C-478.69637698 827.04593457 -478.54845035 830.07797639 -478.40077209 833.11006165 C-477.86179486 843.88319109 -477.13301561 854.61784424 -476.12887669 865.35840321 C-475.57166604 871.36120762 -475.19068149 877.35193443 -474.9375 883.375 C-474.62028736 890.50048345 -474.11249899 897.58646134 -473.4375 904.6875 C-473.35435547 905.57002441 -473.27121094 906.45254883 -473.18554688 907.36181641 C-472.86869719 910.56711275 -472.5473027 913.70906025 -471.90625 916.8671875 C-471.11967434 920.86561375 -471.04119911 924.92304882 -470.83203125 928.98632812 C-470.66361563 932.74290933 -470.66361563 932.74290933 -469.4375 936.25 C-469.08197762 939.10108785 -468.77377969 941.94163914 -468.5 944.80078125 C-468.41500244 945.65173874 -468.33000488 946.50269623 -468.24243164 947.37944031 C-467.9703932 950.10677244 -467.70354511 952.83457718 -467.4375 955.5625 C-467.17095654 958.27965553 -466.90324419 960.99667757 -466.63256836 963.71342468 C-466.46418231 965.40491637 -466.29822697 967.09665225 -466.13500977 968.78865051 C-465.7500099 972.66962993 -465.24657198 976.43036731 -464.4375 980.25 C-464.2653947 982.66493787 -464.12189467 985.08200769 -464 987.5 C-463.71225302 992.4616912 -463.19951856 997.17186042 -461.953125 1001.98828125 C-461.34210527 1004.66843595 -461.06837137 1007.33211949 -460.75 1010.0625 C-458.15024559 1027.25312415 -450.50516418 1048.08439444 -436.16796875 1058.84765625 C-434.9933662 1059.67837628 -433.81215983 1060.49982636 -432.625 1061.3125 C-431.69252441 1061.9636377 -431.69252441 1061.9636377 -430.74121094 1062.62792969 C-427.04753374 1065.19132237 -423.33232062 1067.71652859 -419.47314453 1070.02587891 C-418.07640166 1070.8658008 -416.68831066 1071.72022947 -415.30786133 1072.58666992 C-408.88678188 1076.56441828 -402.29324958 1079.79392917 -395.375 1082.8125 C-394.28606445 1083.29066162 -393.19712891 1083.76882324 -392.07519531 1084.26147461 C-384.43463533 1087.54975275 -376.80964273 1090.2499863 -368.765625 1092.34765625 C-365.4375 1093.25 -365.4375 1093.25 -362.984375 1094.25390625 C-359.55225879 1095.59622164 -356.02984565 1096.35102175 -352.4375 1097.125 C-351.65785889 1097.29499512 -350.87821777 1097.46499023 -350.07495117 1097.64013672 C-336.32094861 1100.60170049 -322.54760033 1103.2982377 -308.57275391 1104.97607422 C-306.07829595 1105.29608129 -303.59296452 1105.66493855 -301.10546875 1106.03515625 C-291.13044694 1107.48740331 -281.43323869 1108.51093122 -271.34887695 1108.33251953 C-262.9292812 1108.18531513 -254.54523635 1108.52577449 -246.1340332 1108.89501953 C-229.86365126 1109.56233839 -213.64686084 1109.3392289 -197.38818359 1108.50537109 C-194.77867926 1108.37328813 -192.16876858 1108.25472293 -189.55859375 1108.13671875 C-181.33205161 1107.74061155 -173.47588018 1107.14255543 -165.4375 1105.25 C-163.14966324 1104.91059565 -160.85792809 1104.59605288 -158.5625 1104.3125 C-153.3465624 1103.64798217 -148.15393737 1102.90466913 -142.95922852 1102.09130859 C-135.11730602 1100.86593875 -127.41857602 1099.88400684 -119.48046875 1099.55859375 C-115.81955362 1099.18733278 -112.85112175 1098.66461775 -109.4375 1097.25 C-107.47188127 1094.41199734 -107.47188127 1094.41199734 -106.3125 1090.875 C-106.07007568 1090.24432617 -105.82765137 1089.61365234 -105.57788086 1088.96386719 C-105.08185023 1087.67337571 -104.5956895 1086.37904581 -104.11962891 1085.08105469 C-103.16448084 1082.51712823 -102.08061532 1080.0132226 -101 1077.5 C-99.5190478 1073.94571471 -98.09257973 1070.37502978 -96.7109375 1066.78125 C-96.40728271 1065.99202148 -96.10362793 1065.20279297 -95.79077148 1064.38964844 C-95.19779954 1062.84232523 -94.6085251 1061.29357787 -94.02368164 1059.74316406 C-92.65558797 1056.16647977 -91.20956813 1052.71311006 -89.453125 1049.30859375 C-87.17286645 1044.85965563 -85.47106201 1040.25034508 -83.75 1035.5625 C-77.93022522 1020.00150105 -71.34238471 1004.73296475 -64.23828125 989.71484375 C-61.36541977 983.56130134 -58.93598219 977.31954532 -56.60009766 970.94921875 C-55.10062106 966.8989863 -53.44921642 963.07885706 -51.421875 959.2734375 C-50.140315 956.63911972 -49.1484516 953.93221112 -48.125 951.1875 C-46.3412356 946.44886751 -44.37070019 941.88058169 -42.1875 937.3125 C-39.06505425 930.7791121 -36.24867284 924.13616975 -33.5 917.4375 C-32.89720215 915.97679077 -32.89720215 915.97679077 -32.28222656 914.48657227 C-31.91194336 913.57705811 -31.54166016 912.66754395 -31.16015625 911.73046875 C-30.82765869 910.91473389 -30.49516113 910.09899902 -30.15258789 909.25854492 C-29.32569985 907.29131513 -29.32569985 907.29131513 -29.4375 905.25 C-28.7775 905.25 -28.1175 905.25 -27.4375 905.25 C-27.23705078 904.70287354 -27.03660156 904.15574707 -26.83007812 903.59204102 C-22.51678445 891.88330702 -17.88591461 880.48550933 -12.41210938 869.27294922 C-11.41064338 867.19425503 -10.44289725 865.10272283 -9.484375 863.00390625 C-9.17121338 862.31989746 -8.85805176 861.63588867 -8.53540039 860.93115234 C-7.68224698 859.06286307 -6.83127902 857.19357624 -5.98046875 855.32421875 C-4.64882952 852.67105401 -3.22002593 850.59542886 -1.4375 848.25 C-0.80258604 846.81337265 -0.22183743 845.3519893 0.3125 843.875 C2.66770098 837.77288837 5.61341334 831.99978736 8.58300781 826.18115234 C9.60604405 824.1641492 10.61352831 822.13999172 11.6171875 820.11328125 C14.70218857 813.88658023 17.81101563 807.71053191 21.24609375 801.66796875 C22.96465427 798.51132495 24.5385106 795.28671995 26.125 792.0625 C30.02499987 784.14621144 34.24426614 776.4161173 38.52563477 768.70043945 C39.01990967 767.80542725 39.51418457 766.91041504 40.0234375 765.98828125 C40.46478027 765.19462158 40.90612305 764.40096191 41.36083984 763.58325195 C44.14542517 758.17644943 44.86160383 753.88282399 44.7734375 747.80859375 C44.7667807 746.94568222 44.7601239 746.08277069 44.75326538 745.19371033 C44.59763245 732.89998017 43.92185614 720.61938055 43.29122162 708.34288406 C43.15087152 705.59548564 43.01418155 702.84790994 42.87752724 700.10032558 C42.44893067 691.48304263 42.00811666 682.8664205 41.5625 674.25 C41.50731201 673.18072266 41.45212402 672.11144531 41.39526367 671.00976562 C41.08158728 664.94370888 40.76319882 658.87792336 40.4375 652.8125 C40.38012665 651.74323776 40.38012665 651.74323776 40.32159424 650.65237427 C39.94065132 643.5991238 39.52076156 636.550747 39.03515625 629.50390625 C38.60816902 623.2120031 38.33381835 616.92727588 38.125 610.625 C37.79445054 601.58883616 37.27922377 592.58077116 36.625 583.5625 C35.84184687 572.68834813 35.15973282 561.81273442 34.57223511 550.92636108 C34.48404158 549.29722785 34.39435778 547.66817445 34.30300903 546.03921509 C31.18322916 490.15449414 31.18322916 490.15449414 46.5625 471.25 C47.2225 470.92 47.8825 470.59 48.5625 470.25 C48.5625 469.59 48.5625 468.93 48.5625 468.25 C49.2225 468.25 49.8825 468.25 50.5625 468.25 C50.5625 467.59 50.5625 466.93 50.5625 466.25 C51.119375 466.0025 51.67625 465.755 52.25 465.5 C54.65227633 464.3067885 54.65227633 464.3067885 56.75 462.375 C65.64586647 455.65367867 76.04836385 453.97224157 86.875 453.125 C87.83728516 453.03863281 88.79957031 452.95226562 89.79101562 452.86328125 C96.69334091 452.29891202 103.53841869 452.19830989 110.45704651 452.2348175 C119.24708609 452.27713044 128.02627053 452.05017306 136.8125 451.8125 C137.66179077 451.79043488 138.51108154 451.76836975 139.3861084 451.74563599 C150.045221 451.46839101 160.69314165 451.11306096 171.34179688 450.55493164 C178.14901352 450.2163421 184.9404747 450.18400881 191.75488281 450.28686523 C195.78787284 450.44022073 195.78787284 450.44022073 199.5625 449.25 C201.41108339 449.08293407 203.2650467 448.9740744 205.11938477 448.89282227 C206.28562881 448.83929092 207.45187286 448.78575958 208.65345764 448.73060608 C209.92410568 448.67642014 211.19475372 448.62223419 212.50390625 448.56640625 C214.50813653 448.47400897 216.5123665 448.38160422 218.51657772 448.28879452 C223.45337977 448.06176095 228.39063284 447.84476439 233.32788086 447.62768555 C236.76695555 447.47606451 240.20571123 447.31830587 243.6443615 447.15736198 C245.55847859 447.06963409 247.47291025 446.98885436 249.38734436 446.90834045 C258.84639562 446.46651065 268.17598927 445.45147158 277.5625 444.25 C277.58616372 434.00586478 277.60367946 423.76173653 277.61431217 413.51757908 C277.61942738 408.75560573 277.6263042 403.99365168 277.63793945 399.23168945 C277.68631261 378.8142057 277.61759049 358.40543356 277.16796875 337.9921875 C277.15163958 337.15714251 277.1353104 336.32209751 277.1184864 335.46174812 C276.79643949 319.52676997 275.17585499 303.98623832 272.5625 288.25 C272.3660791 287.04666016 272.1696582 285.84332031 271.96728516 284.60351562 C271.37998662 281.08447215 270.76209392 277.57284697 270.125 274.0625 C269.94420898 273.04164307 269.76341797 272.02078613 269.57714844 270.96899414 C268.14533241 263.6019714 265.56927919 257.10384522 262.5625 250.25 C261.77971195 248.10849875 261.00595647 245.96361937 260.25 243.8125 C256.4981005 233.99169723 250.75475495 225.40227723 244.1640625 217.26171875 C242.5956568 215.29164817 241.16926165 213.26659382 239.75 211.1875 C239.028125 210.218125 238.30625 209.24875 237.5625 208.25 C236.9025 208.25 236.2425 208.25 235.5625 208.25 C235.5625 207.59 235.5625 206.93 235.5625 206.25 C233.09698768 203.70184481 230.28444293 201.51828578 227.5625 199.25 C226.88445313 198.65058594 226.20640625 198.05117188 225.5078125 197.43359375 C212.28476737 186.16341828 196.66472617 178.29572556 180.56787109 172.04321289 C178.70230756 171.30530007 176.85961608 170.51026873 175.01953125 169.7109375 C171.24689368 168.11662513 167.43501477 166.76382059 163.5625 165.4375 C158.11197547 163.55050789 152.76104762 161.53957697 147.4375 159.3125 C140.00599614 156.27125084 132.39969963 153.98676746 124.68115234 151.78540039 C119.59720699 150.30612385 115.0127887 148.61186892 110.33520508 146.13378906 C107.76828441 144.85404071 105.14708496 144.15072338 102.375 143.4375 C96.00867288 141.70436756 89.75694563 139.7185685 83.5 137.625 C82.59548096 137.32360107 81.69096191 137.02220215 80.7590332 136.71166992 C77.44878653 135.59957338 74.16041445 134.49146545 70.921875 133.18359375 C67.63718638 131.88385769 64.26474161 130.91884388 60.875 129.9375 C59.77309326 129.61483154 59.77309326 129.61483154 58.64892578 129.28564453 C54.67236691 128.12774189 50.68810633 127.00433357 46.69140625 125.91796875 C45.89629639 125.70116455 45.10118652 125.48436035 44.28198242 125.26098633 C42.76130342 124.84847266 41.23938833 124.44047878 39.71606445 124.0378418 C35.13065891 122.79597208 30.93569042 121.12775408 26.5625 119.25 C24.0133889 118.4949007 21.45003045 117.78633239 18.875 117.125 C18.22466797 116.95613281 17.57433594 116.78726563 16.90429688 116.61328125 C15.12528978 116.15266168 13.3439811 115.70095645 11.5625 115.25 C10.83417969 114.96382813 10.10585938 114.67765625 9.35546875 114.3828125 C7.3833463 114.04367738 7.3833463 114.04367738 5.5 115.734375 Z M166.98046875 762.4453125 C166.51253906 763.04085937 166.04460937 763.63640625 165.5625 764.25 C164.50482422 765.45269531 164.50482422 765.45269531 163.42578125 766.6796875 C154.80673312 775.94333437 154.80673312 775.94333437 150.5625 787.25 C149.9025 787.25 149.2425 787.25 148.5625 787.25 C148.11519531 788.08402344 147.66789062 788.91804687 147.20703125 789.77734375 C139.28788758 804.51809519 139.28788758 804.51809519 135.21484375 811.58984375 C134.55162109 812.75193359 134.55162109 812.75193359 133.875 813.9375 C133.28138672 814.96423828 133.28138672 814.96423828 132.67578125 816.01171875 C131.34728796 818.68268948 130.45333315 821.40665583 129.5625 824.25 C141.88176297 828.18129421 154.27967624 831.8197043 166.69921875 835.41992188 C170.80074667 836.60897328 174.90119988 837.80158047 179 839 C180.25683594 839.36609375 181.51367188 839.7321875 182.80859375 840.109375 C185.43294617 840.90678489 188.01378079 841.73956014 190.60546875 842.62890625 C196.49395664 844.60955087 202.47817796 846.24651772 208.46679688 847.89428711 C210.4557269 848.44252414 212.44271114 848.99746373 214.4296875 849.55273438 C215.6878125 849.90013672 216.9459375 850.24753906 218.2421875 850.60546875 C219.38413574 850.92153076 220.52608398 851.23759277 221.70263672 851.56323242 C224.55848358 852.36675083 224.55848358 852.36675083 227.5625 852.25 C227.5625 852.91 227.5625 853.57 227.5625 854.25 C228.45332275 854.47139648 229.34414551 854.69279297 230.26196289 854.92089844 C233.64502707 855.76234125 237.0278012 856.60493284 240.41040039 857.44824219 C241.85983435 857.80936232 243.30937458 858.17005624 244.7590332 858.53027344 C272.06431669 865.31631404 272.06431669 865.31631404 278.89453125 867.72265625 C286.17762086 870.24457716 293.76890833 871.85933061 301.25 873.6875 C310.88974854 876.04803181 320.48198703 878.46841642 330.01293945 881.24291992 C336.15932746 882.98677098 342.35450547 884.54027109 348.54669189 886.1121521 C368.91908251 891.28523456 368.91908251 891.28523456 378.1875 893.9375 C386.10957271 896.20232967 394.11611769 898.06824509 402.13549805 899.9543457 C408.65059713 901.50326289 415.08227194 903.2152686 421.5 905.125 C432.37844389 908.35717384 443.41978506 910.86465408 454.48608398 913.35888672 C461.74389274 915.01020218 468.79549393 916.9068966 475.83325195 919.35693359 C480.11241403 920.75716393 484.46421114 921.62375405 488.875 922.5 C498.07036561 924.41693926 507.16246632 926.62542034 516.25 929 C517.56712217 929.34365051 518.88426105 929.68723693 520.20141602 930.03076172 C522.23476319 930.56120816 524.26810252 931.09168361 526.30134583 931.62252808 C534.12831735 933.66333484 541.96719273 935.65593859 549.8125 937.625 C550.54808136 937.80975891 551.28366272 937.99451782 552.04153442 938.18487549 C565.81535828 941.63585185 579.64292284 944.84004655 593.48223877 948.01644897 C605.11836 950.6905751 616.6540019 953.54294616 628.15087891 956.76904297 C638.42456625 959.59695658 648.83581083 961.74211061 659.27587891 963.85424805 C665.63473873 965.14800721 671.85981015 966.55811066 678.04980469 968.51318359 C683.27004805 970.04395453 688.61572651 971.07464269 693.9375 972.1875 C695.79024536 972.57989868 695.79024536 972.57989868 697.68041992 972.98022461 C705.53836814 974.6375095 713.40691356 976.23505 721.28613281 977.78759766 C727.26998169 978.97298577 733.22981333 980.25242729 739.1875 981.5625 C748.60839502 983.62975512 758.04343715 985.62466429 767.48797607 987.58065796 C769.03218095 987.90075053 770.57616924 988.22188982 772.11993408 988.5440979 C774.29288582 988.99725883 776.46662068 989.44645087 778.640625 989.89453125 C779.90293945 990.15596924 781.16525391 990.41740723 782.46582031 990.68676758 C785.52984869 991.33947344 785.52984869 991.33947344 788.5625 991.25 C788.80141353 977.91678722 788.62857822 964.6248733 787.87078857 951.3119812 C787.79167578 949.92051155 787.71590621 948.52884683 787.64385986 947.13699341 C787.24308724 939.54959185 786.54096132 932.06067649 785.30078125 924.56640625 C785.09106689 923.2832251 784.88135254 922.00004395 784.6652832 920.67797852 C783.15182719 915.97343216 780.53646938 913.53070842 776.44921875 910.87890625 C761.69778429 903.72590162 746.40300478 899.40637598 730.61328125 895.1796875 C724.9159977 893.64697527 719.28648212 891.94891807 713.6550293 890.19189453 C708.90766618 888.74598572 704.11822589 887.48553026 699.3125 886.25 C698.31581299 885.9921875 697.31912598 885.734375 696.29223633 885.46875 C688.53643082 883.47448904 680.76120631 881.58749222 672.95556641 879.79931641 C670.24401657 879.17689372 667.53409758 878.5476262 664.82421875 877.91796875 C645.18436736 873.36093463 625.51453306 868.93706127 605.84408569 864.51448059 C604.04999049 864.11110199 602.25590278 863.70769004 600.46182251 863.304245 C596.09234867 862.32165914 591.72279254 861.33944365 587.35302734 860.3581543 C583.45742219 859.4831793 579.56273468 858.60419947 575.66833496 857.72387695 C573.67083234 857.27437807 571.67187931 856.83133883 569.67285156 856.38867188 C568.52526367 856.13150391 567.37767578 855.87433594 566.1953125 855.609375 C565.2170752 855.39249023 564.23883789 855.17560547 563.23095703 854.95214844 C560.5625 854.25 560.5625 854.25 558.18383789 853.2800293 C554.85904795 851.97358534 551.4630716 851.19596691 547.98828125 850.41015625 C547.2644072 850.24253281 546.54053314 850.07490936 545.79472351 849.90220642 C543.48899974 849.3685302 541.18214871 848.83997933 538.875 848.3125 C516.53622497 843.19777888 516.53622497 843.19777888 507.51171875 839.7109375 C503.21675397 838.05828405 498.84425209 836.95128712 494.375 835.875 C493.51495361 835.66367432 492.65490723 835.45234863 491.76879883 835.23461914 C484.54357263 833.46638998 477.30361093 831.75908389 470.06298828 830.05517578 C465.09618524 828.87928955 460.16854294 827.61687187 455.25 826.25 C450.15908371 824.86256144 445.07489102 823.72414095 439.89941406 822.69946289 C423.83974514 819.51754971 408.08838432 815.28852539 392.28387451 811.04655457 C384.73663917 809.02207371 377.17270018 807.06346526 369.59936523 805.13891602 C365.84459104 804.17072253 362.15853847 803.13861236 358.49609375 801.86328125 C350.72210735 799.20852139 342.67908959 797.34811263 334.72607422 795.30761719 C326.97821094 793.31516201 319.30853204 791.24787749 311.73828125 788.65234375 C305.3482433 786.46699143 298.94658649 784.72833291 292.375 783.1875 C286.57517183 781.82080782 280.8897039 780.40889838 275.2734375 778.40625 C265.53458598 775.07680234 255.40288566 773.07093607 245.375 770.8125 C243.21010943 770.32118917 241.04523318 769.82981523 238.88037109 769.33837891 C227.83617871 766.84010901 216.78691628 764.36745774 205.6875 762.125 C204.76557861 761.93752197 203.84365723 761.75004395 202.89379883 761.55688477 C183.80255371 757.18330707 183.80255371 757.18330707 166.98046875 762.4453125 Z M82.5625 917.25 C82.19898438 917.97703125 81.83546875 918.7040625 81.4609375 919.453125 C80.95820312 920.45859375 80.45546875 921.4640625 79.9375 922.5 C79.11378906 924.15515625 79.11378906 924.15515625 78.2734375 925.84375 C77.2122197 927.95649411 76.13674093 930.0622173 75.0390625 932.15625 C71.82305199 938.35004802 69.24785323 944.58285363 66.8762207 951.12939453 C64.98468328 956.28746924 62.76862098 961.22179683 60.38354492 966.17407227 C57.22861811 972.80139738 54.51257991 979.5993648 51.76513672 986.40332031 C49.89436011 991.02599564 47.99615378 995.60987522 45.875 1000.125 C43.87176346 1004.39902864 42.23859118 1008.75656831 40.625 1013.1875 C38.45543707 1019.1367286 35.91811346 1024.71148915 32.9921875 1030.3359375 C30.99391645 1034.4089162 29.47467008 1038.62227601 27.89453125 1042.87109375 C26.26884286 1046.99490741 24.36018276 1050.95108746 22.43652344 1054.94262695 C19.15941 1061.87965307 16.45803754 1069.04033893 13.75878906 1076.21826172 C12.2126776 1080.27872126 10.70518572 1084.20436698 8.48046875 1087.9453125 C6.3708412 1091.58023085 4.96030227 1095.17887842 3.5625 1099.125 C0.43747761 1107.70444758 0.43747761 1107.70444758 -1.375 1111.625 C-5.84490393 1121.36566565 -9.50745043 1131.52058466 -13.0625 1141.625 C-14.5284513 1145.78963436 -16.08220338 1149.87579722 -17.8125 1153.9375 C-20.25443419 1159.69348774 -22.42171425 1165.52905808 -24.56323242 1171.40136719 C-26.26707025 1176.07239858 -27.99063895 1180.73479983 -29.74609375 1185.38671875 C-30.14086914 1186.43311523 -30.53564453 1187.47951172 -30.94238281 1188.55761719 C-31.70693348 1190.58105641 -32.47309898 1192.60388654 -33.24121094 1194.62597656 C-35.50141994 1200.61583612 -37.5830234 1206.63556076 -39.51879883 1212.73852539 C-40.4375 1215.25 -40.4375 1215.25 -42.4375 1218.25 C-43.04666555 1220.23628386 -43.60105178 1222.23955614 -44.125 1224.25 C-46.84723979 1234.09509277 -50.48222923 1243.6070241 -54.16381836 1253.12841797 C-57.06840747 1260.70846824 -59.50907617 1268.45121587 -62.03320312 1276.1640625 C-64.01931671 1282.17972743 -66.13576023 1288.07791239 -68.53735352 1293.93896484 C-69.99521703 1297.68188213 -71.08669442 1301.51497521 -72.1875 1305.375 C-74.46215803 1313.17095467 -76.95462776 1320.87196886 -79.5625 1328.5625 C-83.81215508 1341.17216491 -87.29595189 1353.74709602 -89.77734375 1366.83203125 C-90.16865498 1368.85805095 -90.58766185 1370.87956053 -91.06640625 1372.88671875 C-92.82232044 1380.31558649 -92.61964049 1387.66081301 -92.4375 1395.25 C-84.46566337 1398.92639376 -76.60528833 1401.92623233 -68.15795898 1404.29052734 C-62.70547514 1405.83250982 -57.39099786 1407.63832022 -52.0625 1409.5625 C-42.78559028 1412.89938525 -33.38102356 1415.70866128 -23.90087891 1418.40942383 C-18.06666116 1420.09028582 -12.46974614 1421.97584804 -6.86328125 1424.30151367 C-2.66497883 1425.94306006 1.65786245 1427.11642138 6 1428.3125 C6.91869873 1428.57071533 7.83739746 1428.82893066 8.78393555 1429.0949707 C14.21363621 1430.61682655 19.6510652 1432.11041725 25.11328125 1433.51171875 C27.5625 1434.25 27.5625 1434.25 31.05078125 1435.61328125 C36.7176437 1437.77035356 42.5779302 1439.21646688 48.4375 1440.75 C66.53893338 1445.52011305 66.53893338 1445.52011305 74.30200195 1448.19335938 C78.26058533 1449.47623087 82.25664282 1450.52454508 86.28515625 1451.5625 C87.97462518 1452.00254349 89.66407782 1452.44264954 91.35351562 1452.8828125 C93.99523331 1453.56851299 96.63721784 1454.25315981 99.27954102 1454.93652344 C101.84464581 1455.60073001 104.4086921 1456.26890606 106.97265625 1456.9375 C107.75923111 1457.13964111 108.54580597 1457.34178223 109.35621643 1457.55004883 C112.33167838 1458.32740082 115.19413724 1459.10116437 118.04833984 1460.25439453 C121.7319269 1461.71309215 125.53243379 1462.56378707 129.37890625 1463.4921875 C131.13087277 1463.92312264 132.88282544 1464.35411406 134.63476562 1464.78515625 C137.37014377 1465.45356012 140.10590335 1466.12035668 142.84204102 1466.78564453 C161.42969228 1471.31494067 161.42969228 1471.31494067 170.2409668 1474.48193359 C173.35142678 1475.51101206 176.30685054 1475.95403187 179.5625 1476.25 C182.19013318 1472.04578691 184.41571011 1467.71225613 186.5625 1463.25 C186.9440625 1462.45851563 187.325625 1461.66703125 187.71875 1460.8515625 C190.26078249 1455.42530085 192.45072053 1449.93740051 194.5 1444.3125 C196.61266867 1438.52691372 199.06554943 1433.12475806 201.921875 1427.66015625 C204.47533885 1422.35259924 206.56727567 1416.86509371 208.67138672 1411.36621094 C210.11788729 1407.63572343 211.57166027 1404.07541384 213.62109375 1400.6328125 C215.71588813 1396.98272812 217.11406168 1393.3922611 218.5 1389.4375 C220.49303912 1383.9291195 222.70203776 1378.71859914 225.41796875 1373.51953125 C227.96303347 1368.47283294 229.84693415 1363.12164521 231.86328125 1357.84765625 C235.32556077 1348.95398406 239.30369333 1340.4648512 243.67236328 1331.98193359 C244.82096233 1329.74711141 245.94331495 1327.49967499 247.0625 1325.25 C247.44792969 1324.48429687 247.83335937 1323.71859375 248.23046875 1322.9296875 C249.29109823 1320.79598714 250.33121606 1318.65532048 251.36328125 1316.5078125 C262.36342395 1293.79266732 276.8604741 1273.91000588 300.71875 1263.9296875 C320.41045961 1257.21660468 343.53840356 1257.38281954 363.5625 1262.25 C364.83746338 1262.54801514 364.83746338 1262.54801514 366.13818359 1262.85205078 C378.8678354 1265.87107462 390.17664325 1269.80542207 401.5625 1276.25 C402.46871094 1276.73082031 403.37492187 1277.21164062 404.30859375 1277.70703125 C412.26829803 1282.12625907 421.47640857 1288.62086285 426.5625 1296.25 C427.2225 1296.25 427.8825 1296.25 428.5625 1296.25 C428.81386719 1296.76046875 429.06523438 1297.2709375 429.32421875 1297.796875 C430.30310262 1299.73611497 431.3122294 1301.66008708 432.33203125 1303.578125 C441.36665764 1320.78525293 444.81099016 1336.65284445 444.875 1356.0625 C444.87795074 1356.85612946 444.88090149 1357.64975891 444.88394165 1358.46743774 C444.89763724 1375.16440038 443.88840337 1391.78477136 442.75 1408.4375 C442.66722809 1409.66675201 442.58445618 1410.89600403 442.49917603 1412.1625061 C441.53430427 1426.28964719 440.29048772 1440.35341591 438.66546631 1454.41996765 C437.37123779 1465.67817588 436.41496966 1476.95563716 435.5 1488.25 C435.17849339 1492.18772753 434.85429254 1496.12522061 434.52734375 1500.0625 C434.44929504 1501.00582687 434.37124634 1501.94915375 434.29083252 1502.92106628 C433.69434995 1509.99982504 432.98656728 1517.06286816 432.1860199 1524.12145996 C431.58357619 1529.54166744 431.38391145 1534.80304932 431.5625 1540.25 C433.72868513 1540.83511897 435.89548788 1541.41795129 438.0625 1542 C439.87234375 1542.48726562 439.87234375 1542.48726562 441.71875 1542.984375 C456.64609856 1546.9213849 471.67567503 1550.46545636 486.6875 1554.0625 C487.79265961 1554.32734192 488.89781921 1554.59218384 490.03646851 1554.86505127 C496.59009131 1556.43494648 503.14437072 1558.00207363 509.69927979 1559.56658936 C511.48705769 1559.99330695 513.27478591 1560.42023284 515.06243896 1560.84747314 C530.4729238 1564.53006345 545.90307692 1567.98615303 561.43554688 1571.11816406 C568.15484806 1572.48896054 574.77180782 1574.02755963 581.375 1575.875 C590.33417664 1578.3705458 599.39306688 1579.82116356 608.5703125 1581.2734375 C614.36628883 1582.19710656 620.12166611 1583.27944023 625.875 1584.4375 C626.71087646 1584.60451416 627.54675293 1584.77152832 628.40795898 1584.94360352 C631.52645001 1585.57841002 634.54038109 1586.24262703 637.5625 1587.25 C640.05087633 1587.76843458 642.53843912 1588.26351974 645.03515625 1588.73828125 C645.7825708 1588.88157364 646.52998535 1589.02486603 647.30004883 1589.17250061 C649.74114238 1589.63881635 652.18297772 1590.10107405 654.625 1590.5625 C655.86695633 1590.79818695 655.86695633 1590.79818695 657.13400269 1591.03863525 C670.81723922 1593.6292128 684.51796987 1595.92987781 698.30883789 1597.88037109 C700.5625 1598.25 700.5625 1598.25 702.68920898 1598.79150391 C705.01489953 1599.36072674 707.17789891 1599.31623892 709.5625 1599.25 C710.83736585 1596.58519728 712.10745466 1593.91828284 713.375 1591.25 C713.73142578 1590.50621094 714.08785156 1589.76242187 714.45507812 1588.99609375 C718.08374449 1581.33927482 720.8713597 1573.69981724 723 1565.5 C723.21390381 1564.68072021 723.42780762 1563.86144043 723.64819336 1563.01733398 C725.73328882 1554.86072591 727.38528233 1546.63494093 728.95581055 1538.36645508 C729.42845819 1535.93854878 729.91554034 1533.51530899 730.41333008 1531.0925293 C733.279262 1517.08975367 735.72781338 1503.02714838 738.125 1488.9375 C738.89462895 1484.42014056 739.66653378 1479.90318177 740.44140625 1475.38671875 C740.6273233 1474.30079941 740.81324036 1473.21488007 741.00479126 1472.09605408 C741.9417143 1466.67032948 742.94402838 1461.27580249 744.08984375 1455.890625 C746.50531414 1444.13688467 747.91746669 1432.19269602 749.5625 1420.3125 C750.24562785 1415.3860972 750.93226374 1410.46021758 751.625 1405.53515625 C751.79168182 1404.34976761 751.95836365 1403.16437897 752.13009644 1401.94306946 C752.98942343 1395.93035303 753.9432596 1389.97148432 755.1328125 1384.015625 C757.21579523 1373.41307423 758.2477347 1362.66972271 759.4375 1351.9375 C759.69704079 1349.63689153 759.95722277 1347.33635532 760.21801758 1345.03588867 C760.74711848 1340.36500472 761.27368453 1335.69384624 761.79833984 1331.02246094 C762.82284152 1321.91919352 763.87915539 1312.81967558 764.94024658 1303.72061157 C765.23631033 1301.17997622 765.53117253 1298.63920442 765.82568359 1296.09838867 C765.96475128 1294.90153946 765.96475128 1294.90153946 766.10662842 1293.68051147 C766.29435061 1292.06462384 766.48156045 1290.44867662 766.66827393 1288.83267212 C767.17467392 1284.47523302 767.70267532 1280.1215897 768.25927734 1275.77026367 C770.43678659 1258.56688333 771.92858824 1241.32634819 773.38156128 1224.05041504 C775.28301129 1201.45651153 777.23185952 1178.86941203 779.57421875 1156.31640625 C779.65580105 1155.53047781 779.73738335 1154.74454937 779.82143784 1153.93480492 C780.59912236 1146.46142639 781.39067643 1138.98962261 782.20185375 1131.51980495 C782.42451509 1129.46331322 782.64466859 1127.40656892 782.8639679 1125.34971619 C783.12837643 1122.87731921 783.39789307 1120.40545978 783.67399597 1117.93434143 C784.44756146 1110.67693693 784.71515487 1103.54711925 784.5625 1096.25 C779.90250379 1094.89198335 775.23543908 1093.56262334 770.5625 1092.25 C769.64082031 1091.98832031 768.71914062 1091.72664063 767.76953125 1091.45703125 C761.2990769 1089.72711657 754.78764027 1088.59137953 748.1875 1087.5 C738.16112916 1085.83504304 728.30837853 1083.64100877 718.42355347 1081.28485107 C707.50963327 1078.68418484 696.57930831 1076.36357078 685.5625 1074.25 C681.16505714 1073.40391495 676.76968764 1072.54776949 672.375 1071.6875 C671.33496826 1071.48946777 670.29493652 1071.29143555 669.22338867 1071.08740234 C663.90226976 1070.04428215 658.87478911 1068.75649496 653.76293945 1066.95727539 C649.83595942 1065.69504737 645.80026588 1064.99971504 641.75 1064.25 C635.29020983 1063.01023631 628.92277622 1061.63487745 622.55859375 1059.96484375 C617.58870569 1058.77906863 612.5551963 1057.95088448 607.51953125 1057.09375 C604.71492073 1056.55596087 602.09795427 1055.7958195 599.40234375 1054.85546875 C593.48247643 1052.80591828 587.4137543 1051.45697404 581.3125 1050.0625 C580.15492188 1049.78986328 578.99734375 1049.51722656 577.8046875 1049.23632812 C576.68835937 1048.97916016 575.57203125 1048.72199219 574.421875 1048.45703125 C573.41608398 1048.2247583 572.41029297 1047.99248535 571.37402344 1047.75317383 C568.69872785 1047.27438048 566.27259447 1047.15418545 563.5625 1047.25 C562.45064437 1052.63349835 561.34845735 1058.01886334 560.25439453 1063.40600586 C559.88256308 1065.23041399 559.50829733 1067.05432804 559.13134766 1068.87768555 C556.95223665 1079.42748828 555.07715018 1089.86755131 554.03198242 1100.59423828 C552.51231938 1112.42753746 547.79322614 1126.18192258 538.5625 1134.25 C527.17242992 1142.63515209 517.29565857 1147.53659779 502.9375 1147.6875 C502.05441162 1147.69789307 501.17132324 1147.70828613 500.26147461 1147.71899414 C491.29233384 1147.59748378 484.00839597 1144.88614575 476.3125 1140.4375 C475.72726562 1140.11974609 475.14203125 1139.80199219 474.5390625 1139.47460938 C470.14193734 1136.96548751 467.60601426 1134.18390407 464.5625 1130.25 C463.9025 1129.6725 463.2425 1129.095 462.5625 1128.5 C457.54558228 1122.85596757 454.92468375 1115.58483557 453.5625 1108.25 C453.3665625 1107.321875 453.170625 1106.39375 452.96875 1105.4375 C451.66032698 1098.68879178 451.7213627 1093.03759018 452.5625 1086.25 C452.69628052 1085.07969238 452.69628052 1085.07969238 452.83276367 1083.88574219 C454.68784161 1068.00215636 457.75539278 1052.37858103 460.88330078 1036.70947266 C461.82779129 1031.89874995 462.70681316 1027.07722388 463.5625 1022.25 C462.428125 1021.99605469 461.29375 1021.74210937 460.125 1021.48046875 C458.60410034 1021.13310278 457.08327071 1020.78543007 455.5625 1020.4375 C454.81871094 1020.27185547 454.07492187 1020.10621094 453.30859375 1019.93554688 C448.89234909 1018.9178905 444.76325155 1017.61930843 440.54541016 1015.97045898 C437.18434834 1014.74927043 433.73425176 1013.97241826 430.25 1013.1875 C429.50943359 1013.01613525 428.76886719 1012.84477051 428.00585938 1012.66821289 C423.02640841 1011.53223501 418.03343264 1010.60120257 412.99609375 1009.7578125 C409.71388641 1009.07292172 406.65015208 1007.96681232 403.53515625 1006.73828125 C401.19248927 1006.15841319 399.85254541 1006.60263839 397.5625 1007.25 C397.24796875 1008.47074219 396.9334375 1009.69148438 396.609375 1010.94921875 C396.17723493 1012.61201857 395.74493449 1014.27477672 395.3125 1015.9375 C395.00505859 1017.13342773 395.00505859 1017.13342773 394.69140625 1018.35351562 C392.85687229 1025.38589579 390.73716341 1032.316181 388.5625 1039.25 C388.22653809 1040.33563232 387.89057617 1041.42126465 387.54443359 1042.53979492 C373.71075415 1086.92422286 373.71075415 1086.92422286 352.8125 1098.5 C339.31540957 1104.68838929 324.67102088 1104.89710207 310.6875 1100.44921875 C306.53345573 1098.85510426 303.11370384 1096.9038154 299.5625 1094.25 C298.85222656 1093.76273438 298.14195312 1093.27546875 297.41015625 1092.7734375 C293.41864644 1089.95844866 290.88498342 1087.63691313 288.5625 1083.25 C287.9025 1083.25 287.2425 1083.25 286.5625 1083.25 C286.129375 1082.15751953 286.129375 1082.15751953 285.6875 1081.04296875 C284.99742841 1079.32977019 284.29246 1077.62236797 283.5625 1075.92578125 C276.08487944 1058.25406078 278.16912523 1042.42033614 285.02734375 1024.9140625 C286.5625 1021.25 286.5625 1021.25 288.00341797 1018.54980469 C289.82203881 1014.70068484 290.94133691 1010.88921256 292.04296875 1006.7890625 C292.36954216 1005.6032106 292.36954216 1005.6032106 292.70271301 1004.3934021 C293.39101337 1001.88883317 294.07062844 999.38200389 294.75 996.875 C295.21752542 995.16781158 295.6856186 993.46077854 296.15429688 991.75390625 C297.2969403 987.58770618 298.43180492 983.41945793 299.5625 979.25 C290.88586218 976.14551491 281.99039796 973.99258756 273.0625 971.75 C255.6429799 967.37441246 255.6429799 967.37441246 248.78662109 964.96533203 C243.65585862 963.31515266 238.36290201 962.19390183 233.125 960.9375 C224.51402463 958.83343316 216.09288079 956.57809073 207.74731445 953.59716797 C198.74618176 950.47379869 189.44299172 948.3181846 180.19604492 946.05297852 C179.2117173 945.80780487 179.2117173 945.80780487 178.20750427 945.55767822 C176.40758505 945.10959227 174.60570505 944.66940375 172.80371094 944.22973633 C169.5625 943.25 169.5625 943.25 166.61889648 941.76806641 C163.14700081 940.04362777 159.66550768 939.05983278 155.92578125 938.12890625 C154.8456501 937.84985695 154.8456501 937.84985695 153.74369812 937.56517029 C151.45572326 936.97452112 149.16566964 936.39260308 146.875 935.8125 C138.11461017 933.58848562 129.47357057 931.38981346 121.01611328 928.16503906 C116.92925931 926.64090686 112.7549156 925.44640416 108.5625 924.25 C107.53624512 923.95689941 106.50999023 923.66379883 105.45263672 923.36181641 C102.13708544 922.42145366 98.81900821 921.49058227 95.5 920.5625 C94.36111328 920.24216797 93.22222656 919.92183594 92.04882812 919.59179688 C90.96923828 919.28951172 89.88964844 918.98722656 88.77734375 918.67578125 C87.30962524 918.26453003 87.30962524 918.26453003 85.81225586 917.8449707 C83.78922257 917.20738825 83.78922257 917.20738825 82.5625 917.25 Z " fill="#101010" transform="translate(1006.4375,158.75)"/>
<path d="M0 0 C0.66 0.33 1.32 0.66 2 1 C-2.29 5.29 -6.58 9.58 -11 14 C-11.66 13.67 -12.32 13.34 -13 13 C-11.58791833 11.39179588 -10.17013964 9.78859292 -8.75 8.1875 C-7.96109375 7.29417969 -7.1721875 6.40085938 -6.359375 5.48046875 C-4.34120555 3.35871775 -2.40083295 1.65745577 0 0 Z " fill="#090909" transform="translate(949,170)"/>
</svg>
