<?xml version="1.0" encoding="UTF-8"?>
<!-- Generator: visioncortex VTracer 0.6.12 -->
<svg version="1.1" xmlns="http://www.w3.org/2000/svg" width="2048" height="2048">
<path d="M0,0 L18,3 L23,5 L36,8 L51,16 L55,19 L55,21 L59,23 L68,33 L74,43 L81,60 L90,77 L98,93 L106,112 L116,133 L128,155 L141,176 L154,194 L163,204 L170,212 L179,221 L190,230 L205,240 L224,249 L249,258 L269,264 L285,267 L306,269 L328,268 L346,265 L365,260 L391,251 L409,243 L420,237 L434,227 L450,212 L462,199 L472,186 L481,173 L493,153 L502,137 L513,114 L518,103 L523,91 L538,62 L545,46 L549,38 L557,27 L563,21 L565,21 L565,19 L578,11 L584,8 L600,4 L612,1 L620,0 L635,1 L641,3 L656,6 L670,12 L680,18 L725,34 L774,52 L815,68 L862,87 L893,100 L929,116 L948,126 L960,132 L981,145 L997,157 L1010,167 L1022,178 L1028,183 L1035,191 L1044,201 L1055,215 L1065,229 L1077,248 L1089,272 L1099,298 L1108,328 L1113,352 L1117,380 L1119,416 L1119,452 L1117,509 L1112,598 L1108,634 L1104,659 L1100,672 L1093,686 L1085,697 L1074,708 L1068,712 L1066,712 L1066,714 L1051,722 L1030,729 L1006,733 L966,736 L869,736 L812,735 L789,734 L789,1073 L787,1141 L783,1228 L779,1284 L774,1321 L767,1351 L760,1371 L748,1396 L739,1411 L727,1427 L718,1437 L711,1445 L697,1458 L683,1469 L669,1479 L648,1492 L638,1498 L622,1506 L596,1518 L564,1530 L532,1540 L500,1548 L464,1555 L428,1560 L387,1564 L356,1566 L264,1566 L220,1563 L176,1558 L139,1552 L99,1543 L65,1533 L34,1522 L13,1513 L-12,1501 L-30,1491 L-49,1479 L-63,1469 L-74,1460 L-88,1448 L-97,1439 L-104,1431 L-117,1414 L-125,1401 L-138,1376 L-147,1351 L-154,1321 L-159,1284 L-163,1228 L-167,1141 L-169,1065 L-169,734 L-192,735 L-251,736 L-346,736 L-386,733 L-410,729 L-431,722 L-446,714 L-446,712 L-451,710 L-461,701 L-470,691 L-478,677 L-483,663 L-487,641 L-491,610 L-494,563 L-498,487 L-499,448 L-499,416 L-498,393 L-495,364 L-489,332 L-480,301 L-471,277 L-459,252 L-451,238 L-438,219 L-427,205 L-414,190 L-407,182 L-399,175 L-388,165 L-368,150 L-353,140 L-334,129 L-311,117 L-287,106 L-252,91 L-215,76 L-167,57 L-124,41 L-88,28 L-58,17 L-46,10 L-33,5 L-18,2 L-15,1 Z M-31,150 L-73,165 L-103,176 L-134,188 L-169,202 L-206,217 L-238,231 L-263,243 L-281,253 L-298,265 L-313,278 L-318,283 L-318,285 L-321,286 L-324,290 L-324,292 L-326,292 L-336,307 L-343,319 L-353,344 L-360,369 L-364,398 L-365,423 L-365,452 L-364,491 L-359,585 L-358,601 L-342,602 L-249,602 L-134,600 L-126,599 L-101,599 L-84,602 L-76,606 L-68,610 L-59,617 L-58,619 L-56,619 L-56,621 L-54,621 L-53,625 L-51,626 L-44,640 L-40,651 L-38,661 L-36,690 L-35,739 L-35,1073 L-33,1138 L-30,1206 L-26,1266 L-22,1298 L-16,1321 L-8,1336 L0,1346 L11,1357 L29,1370 L46,1380 L65,1390 L74,1394 L92,1401 L121,1410 L152,1418 L193,1425 L209,1427 L228,1428 L253,1431 L272,1432 L348,1432 L378,1430 L392,1428 L420,1426 L457,1420 L480,1415 L503,1409 L536,1398 L546,1394 L565,1385 L588,1372 L605,1360 L617,1349 L626,1339 L635,1323 L640,1307 L643,1292 L647,1254 L651,1186 L654,1106 L655,1069 L655,725 L656,686 L658,661 L662,645 L668,631 L671,626 L674,623 L674,621 L676,621 L676,619 L678,619 L683,614 L693,607 L700,604 L709,601 L724,599 L746,599 L754,600 L872,602 L962,602 L978,601 L983,513 L984,491 L985,452 L985,423 L984,398 L980,369 L972,341 L963,319 L951,299 L946,292 L944,292 L942,288 L940,285 L938,285 L936,281 L929,274 L918,265 L904,255 L885,244 L863,233 L833,220 L792,203 L761,191 L741,183 L712,172 L651,150 L647,151 L642,156 L634,172 L625,191 L614,211 L608,222 L600,236 L581,264 L571,277 L562,288 L548,303 L542,310 L534,317 L524,326 L508,338 L481,356 L461,367 L434,378 L398,390 L370,397 L344,402 L334,403 L284,403 L270,401 L237,394 L212,387 L186,378 L164,369 L148,361 L134,353 L118,342 L104,332 L93,323 L83,314 L77,309 L70,301 L63,294 L56,286 L44,271 L32,254 L19,234 L9,217 L-3,195 L-14,172 L-22,156 L-27,151 Z " fill="#101010" transform="translate(714,314)"/>
</svg>
