<?xml version="1.0" encoding="UTF-8"?>
<svg version="1.1" xmlns="http://www.w3.org/2000/svg" width="2048" height="2048" viewBox="0 0 2048 2048">
<path d="M0 0 C1.95392779 0.39731679 3.91284948 0.77051479 5.875 1.125 C14.99538896 3.14250907 24.92330704 7.7880401 32 14 C32 14.66 32 15.32 32 16 C32.56976562 16.2371875 33.13953125 16.474375 33.7265625 16.71875 C44.98464803 23.06351298 50.6565586 36.8445019 55.1862793 48.265625 C58.21481687 55.78724668 62.02257672 62.81349266 65.88574219 69.93115234 C70.67592966 78.82511568 75.01761397 87.85114553 78.875 97.1875 C93.79700999 133.24749611 112.99882891 170.45133096 140 199 C141.17248814 200.34912936 142.33938179 201.7031458 143.5 203.0625 C176.35410484 240.58851883 228.58304904 259.85677653 277.49609375 263.71484375 C314.76479348 266.04787632 352.83596798 254.15637658 386 238 C387.00675781 237.51144531 388.01351562 237.02289062 389.05078125 236.51953125 C413.32233322 223.97981482 433.04578242 202.82790963 449 181 C449.72574219 180.00871094 450.45148437 179.01742187 451.19921875 177.99609375 C458.05460757 168.35916476 464.03006834 158.19992477 470 148 C470.40750488 147.31035156 470.81500977 146.62070312 471.23486328 145.91015625 C478.26158811 133.98601715 484.18148239 121.54978742 490 109 C490.62551758 107.65156006 490.62551758 107.65156006 491.26367188 106.27587891 C493.4013459 101.62285287 495.43536899 96.95179805 497.3515625 92.203125 C499.99187324 85.80949196 503.1534259 79.71922446 506.38900757 73.61288452 C512.05056685 62.91621909 517.3347134 52.17364938 522 41 C526.09646573 31.54661755 532.25854492 22.81985328 540 16 C540.66 16 541.32 16 542 16 C542 15.34 542 14.68 542 14 C544.01687578 12.59058087 546.01293333 11.31366993 548.125 10.0625 C548.69476562 9.71509766 549.26453125 9.36769531 549.8515625 9.00976562 C555.97378704 5.31555968 561.65258812 2.61064064 568.625 1 C570.04432347 0.66037617 571.46359386 0.32053039 572.8828125 -0.01953125 C573.57922852 -0.18404785 574.27564453 -0.34856445 574.99316406 -0.51806641 C577.83912423 -1.20151231 580.6679397 -1.94885832 583.5 -2.6875 C595.07869314 -5.52404732 606.60410855 -5.9631381 618 -2 C620.32866448 -1.55798498 622.66255283 -1.14293293 625 -0.75 C633.42333765 0.81832482 641.7377004 3.51744953 648.93676758 8.28173828 C656.79007437 13.44496684 665.35370456 16.22909264 674.18225098 19.26025391 C679.20940853 20.98774674 684.22254161 22.75531756 689.23828125 24.515625 C690.2845871 24.88167847 691.33089294 25.24773193 692.40890503 25.62487793 C856.30042137 83.03707936 856.30042137 83.03707936 923.23925781 120.04931641 C925.73961357 121.3993421 928.3060764 122.59919952 930.875 123.8125 C945.59672007 131.13212272 959.2756564 140.50234167 972.20507812 150.60644531 C973.93999867 151.95341573 975.69191265 153.2736023 977.453125 154.5859375 C984.06893956 159.53883981 990.23530797 164.7973623 996.24609375 170.45703125 C998.18133905 172.24404499 1000.10590799 173.93138714 1002.140625 175.59375 C1004.45462113 177.54104729 1006.37921816 179.38454669 1008.3125 181.6875 C1010.89929381 184.72712423 1013.54572781 187.68934623 1016.25 190.625 C1055.59592508 234.31300509 1080.00930555 289.29864225 1090 347 C1090.18401367 348.04704102 1090.36802734 349.09408203 1090.55761719 350.17285156 C1101.59482369 414.72028436 1095.32143407 481.94015206 1091.78292465 546.89264297 C1091.62773206 549.76198711 1091.47595342 552.6314927 1091.32510376 555.50106812 C1085.32032975 669.11949575 1085.32032975 669.11949575 1053.7109375 700.58984375 C1046.50081037 707 1046.50081037 707 1043 707 C1043 707.66 1043 708.32 1043 709 C1000.43188523 734.17469153 946.52239785 731.53904755 898.68758392 731.26610184 C894.43552536 731.24419332 890.18346506 731.23375618 885.93136597 731.22300434 C811.25284005 731.0289016 811.25284005 731.0289016 776.79345703 729.48022461 C775.74746841 729.43395683 774.7014798 729.38768906 773.62379456 729.34001923 C771.08249238 729.22749309 768.54122996 729.11414333 766 729 C766.00113916 730.0372391 766.00113916 730.0372391 766.00230134 731.09543252 C766.04742832 772.42606512 766.08155749 813.75669478 766.10213066 855.08734722 C766.10463095 860.09192293 766.1072197 865.09649859 766.10986328 870.10107422 C766.1103879 871.09705552 766.11091252 872.09303682 766.11145304 873.11919937 C766.1200665 889.07468855 766.13578414 905.03016276 766.15430559 920.98564318 C766.17326102 937.45703136 766.18416963 953.92841192 766.18817699 970.39981055 C766.19063343 979.60953388 766.19639983 988.81922621 766.21146011 998.02893829 C766.30653373 1057.96774004 765.09352041 1117.77613293 762.24824905 1177.65445709 C762.12025297 1180.3499693 761.9938819 1183.04555476 761.86764526 1185.7411499 C753.22501722 1369.52024398 753.22501722 1369.52024398 696.9921875 1429.85546875 C695.19306211 1431.79217432 693.50290804 1433.78148736 691.8125 1435.8125 C682.47054821 1446.48901634 671.32405551 1455.52545121 660 1464 C659.45972168 1464.40782715 658.91944336 1464.8156543 658.36279297 1465.23583984 C647.71636321 1473.22628924 636.37763962 1480.11088731 625 1487 C624.13568359 1487.52706543 623.27136719 1488.05413086 622.38085938 1488.59716797 C614.79275746 1493.19849432 606.99133386 1497.15104897 599 1501 C598.0925 1501.44118164 597.185 1501.88236328 596.25 1502.33691406 C529.73823144 1534.50932871 457.33376872 1549.93729811 384.1875 1557.1875 C383.39977203 1557.26640472 382.61204407 1557.34530945 381.80044556 1557.42660522 C375.8717058 1558.01317757 369.93818341 1558.51935888 364 1559 C362.95091461 1559.08827057 361.90182922 1559.17654114 360.82095337 1559.26748657 C338.4707673 1561.10251979 316.18632813 1561.34394917 293.77172852 1561.31567383 C289.82206759 1561.31106795 285.87271655 1561.3178899 281.9230957 1561.33618164 C246.00984014 1561.50066249 210.24004036 1559.99788697 174.5625 1555.6875 C173.67695435 1555.58328735 172.79140869 1555.47907471 171.87902832 1555.3717041 C87.91749228 1545.46021919 4.17587857 1523.1512354 -97 1455 C-97.55719727 1454.53303711 -98.11439453 1454.06607422 -98.68847656 1453.58496094 C-118.21618676 1437.21410613 -135.56713384 1418.40972739 -148 1396 C-148.47937012 1395.14470703 -148.95874023 1394.28941406 -149.45263672 1393.40820312 C-184.98520796 1329.40852176 -184.62694717 1254.71118441 -187.99760056 1183.43245697 C-188.11972838 1180.86099644 -188.24407931 1178.28965247 -188.368927 1175.71832275 C-191.38052471 1113.19699253 -192.31274251 1050.65309036 -192.20707643 988.06825888 C-192.19227847 979.05285634 -192.18973321 970.0374593 -192.18748413 961.02204636 C-192.18318065 944.96406825 -192.17007947 928.90611126 -192.15087891 912.84814453 C-192.13232399 897.31331482 -192.11826561 881.778491 -192.10986328 866.24365234 C-192.10933783 865.27492379 -192.10881239 864.30619524 -192.10827102 863.30811128 C-192.10565964 858.44495195 -192.10313254 853.58179257 -192.10064721 848.71863317 C-192.0801454 808.81240739 -192.04513055 768.90620513 -192 729 C-192.99389504 729.0438266 -192.99389504 729.0438266 -194.00786877 729.08853859 C-197.03607071 729.22183277 -200.0642996 729.35450524 -203.0925293 729.48716736 C-204.13489494 729.53314229 -205.17726059 729.57911723 -206.25121307 729.62648535 C-213.10409496 729.926134 -219.95410381 730.18451325 -226.8125 730.31640625 C-228.33969917 730.34784981 -228.33969917 730.34784981 -229.89775085 730.37992859 C-258.7416633 730.94687025 -287.59024499 731.15649955 -316.43920898 731.23117065 C-320.54115719 731.24206811 -324.64298118 731.25970966 -328.74487305 731.28372192 C-430.36217061 731.85032921 -430.36217061 731.85032921 -469 709 C-469 708.34 -469 707.68 -469 707 C-469.72703125 706.7525 -470.4540625 706.505 -471.203125 706.25 C-486.69751342 699.32513366 -497.76726175 680.74868651 -503.75 665.5 C-506.92414634 655.89263398 -508.47495002 645.97992705 -510 636 C-510.25330078 634.38351562 -510.25330078 634.38351562 -510.51171875 632.734375 C-514.1125333 609.23432215 -515.48184011 585.62538721 -516.7845459 561.90777588 C-516.97763993 558.40555345 -517.17343654 554.90349918 -517.37041473 551.40149403 C-521.707818 474.26535951 -521.707818 474.26535951 -522 443 C-522.00753296 442.29963623 -522.01506592 441.59927246 -522.02282715 440.87768555 C-523.02373462 347.13131439 -503.1589385 260.30153307 -438.39501953 186.59472656 C-437.21775391 185.24892694 -436.05799741 183.88784052 -434.90234375 182.5234375 C-431.58674138 178.61117776 -428.10537384 175.19222866 -424.1875 171.8828125 C-422.67553004 170.58143836 -421.19780698 169.23958787 -419.75 167.8671875 C-370.48320017 121.21768641 -302.55645307 96.80899761 -240.62225342 72.04876709 C-237.87535043 70.95014655 -235.12929977 69.84941312 -232.38330078 68.74853516 C-197.87877845 54.92584515 -163.15081742 41.80088465 -128.1875 29.1875 C-127.45462769 28.92291992 -126.72175537 28.65833984 -125.9666748 28.38574219 C-118.85593707 25.81915157 -111.74308806 23.25946629 -104.61579895 20.739151 C-101.88441356 19.77096563 -99.15646525 18.79333975 -96.42910767 17.81387329 C-94.58493398 17.15532944 -92.73628378 16.50936208 -90.88745117 15.86401367 C-84.04662128 13.40037694 -77.94440449 10.46279317 -71.7668457 6.61962891 C-63.14265771 1.57128662 -53.84081157 -0.68334762 -44.1171875 -2.421875 C-40.98306627 -2.92901714 -40.98306627 -2.92901714 -38 -4 C-25.22011769 -5.83297117 -12.02302491 -4.94947859 0 0 Z M-62.5234375 147.796875 C-63.36848343 148.10129013 -64.21352936 148.40570526 -65.08418274 148.71934509 C-67.85166536 149.71921742 -70.61327212 150.73435204 -73.375 151.75 C-75.29370982 152.44724305 -77.21273915 153.14360745 -79.13208008 153.83911133 C-83.89531618 155.56784786 -88.65395981 157.3088638 -93.41156006 159.05303955 C-97.05870724 160.38731974 -100.71085758 161.70759437 -104.36328125 163.02734375 C-132.29128467 173.14830179 -159.90037666 184.07496988 -187.45263672 195.17041016 C-190.51285463 196.40253164 -193.57442704 197.63119495 -196.63720703 198.85693359 C-275.05205349 228.22415103 -275.05205349 228.22415103 -341 278 C-341 278.66 -341 279.32 -341 280 C-341.99 280.33 -342.98 280.66 -344 281 C-346.40995366 283.63541018 -346.40995366 283.63541018 -347 287 C-347.66 287 -348.32 287 -349 287 C-350.65754477 289.21814035 -352.18644934 291.42862068 -353.6875 293.75 C-354.13738281 294.44174316 -354.58726562 295.13348633 -355.05078125 295.84619141 C-355.95912002 297.25119684 -356.86329124 298.65890574 -357.76318359 300.06933594 C-358.77852134 301.65427294 -359.81766926 303.2239326 -360.86328125 304.7890625 C-381.78704858 337.84761614 -387.54258598 379.70623614 -388 418 C-388.01514648 419.08055664 -388.03029297 420.16111328 -388.04589844 421.27441406 C-388.48367504 457.99426169 -386.7015899 494.66926961 -384.67181396 531.32012939 C-384.44000587 535.5260259 -384.21293923 539.73217255 -383.98607635 543.93833828 C-382.58252527 569.97438115 -382.58252527 569.97438115 -381 596 C-369.69932281 596.83749859 -358.46633624 597.1614922 -347.13671875 597.16796875 C-345.3882239 597.17194145 -343.63972943 597.17608739 -341.89123535 597.1803894 C-337.1481828 597.18976975 -332.4051658 597.19076257 -327.66210556 597.18867874 C-324.67127114 597.18749357 -321.68044024 597.18803505 -318.68960571 597.18869019 C-283.47409042 597.18704944 -248.26851407 596.74303329 -213.05875015 596.12982559 C-209.189522 596.06253516 -205.32027213 595.996609 -201.45101929 595.93075562 C-195.33326316 595.82570367 -189.21563472 595.71499008 -183.09806824 595.59943008 C-180.836027 595.55704354 -178.57396217 595.51589568 -176.31187439 595.4760704 C-173.20415512 595.42067476 -170.09659518 595.35971451 -166.98901367 595.29711914 C-165.63801087 595.27446126 -165.63801087 595.27446126 -164.25971508 595.25134563 C-159.09979423 595.14005618 -154.11254846 594.70604302 -149 594 C-132.63725299 593.10117245 -113.49950475 592.16541804 -99 601 C-97.69013414 601.60985657 -96.37751817 602.21383414 -95.0625 602.8125 C-90.1012101 605.28330112 -83.5356771 608.9286458 -81 614 C-80.34 614 -79.68 614 -79 614 C-79 614.66 -79 615.32 -79 616 C-78.34 616 -77.68 616 -77 616 C-76.87625 616.639375 -76.7525 617.27875 -76.625 617.9375 C-76.315625 618.9584375 -76.315625 618.9584375 -76 620 C-75.34 620.33 -74.68 620.66 -74 621 C-72.79416299 623.10872975 -71.68960506 625.19624688 -70.625 627.375 C-70.15864136 628.32294434 -70.15864136 628.32294434 -69.68286133 629.29003906 C-58.12229111 653.18851261 -58.97354175 679.82180502 -58.44311523 705.8359375 C-58.41122362 707.37515271 -58.41122362 707.37515271 -58.37868774 708.94546318 C-57.76219062 739.84420685 -57.90555739 770.74920341 -57.95998469 801.65233493 C-57.97535046 810.62863123 -57.98268067 819.60492986 -57.9892792 828.58123624 C-58.00111811 844.66288514 -58.01601358 860.74452916 -58.03442383 876.82617188 C-58.03551395 877.78027746 -58.03660407 878.73438304 -58.03772723 879.71740091 C-58.053293 893.21539171 -58.07190404 906.71337663 -58.0917251 920.21136177 C-58.09311842 921.16061629 -58.09451173 922.10987081 -58.09594727 923.08789062 C-58.0973408 924.03592249 -58.09873433 924.98395436 -58.10017008 925.96071446 C-58.12350504 941.9805018 -58.13862505 958.00028545 -58.14750665 974.02008724 C-58.15273239 982.93667917 -58.16166079 991.85323227 -58.18089485 1000.76980591 C-58.27205945 1043.84818344 -57.75214342 1086.83072757 -56.11819589 1129.88098645 C-56.00607076 1132.83980169 -55.89659732 1135.79870004 -55.78831196 1138.757658 C-55.43904188 1148.27788666 -55.05664203 1157.79559747 -54.625 1167.3125 C-54.56344257 1168.68786515 -54.50190966 1170.06323139 -54.44039917 1171.43859863 C-56.17326516 1261.77474839 -56.17326516 1261.77474839 -23 1341 C-21.85337891 1342.28583984 -21.85337891 1342.28583984 -20.68359375 1343.59765625 C9.72973732 1375.86828998 56.48816634 1392.94252733 98 1405 C99.81975342 1405.52859619 99.81975342 1405.52859619 101.67626953 1406.06787109 C131.5088754 1414.57146432 163.83467879 1421.54715206 194.9375 1422.4375 C203.49292899 1422.78143684 211.924246 1423.73973379 220.40600586 1424.89624023 C240.58060701 1427.54024805 260.95069825 1427.18780349 281.25610352 1427.18530273 C284.60739591 1427.1852219 287.95855034 1427.19210848 291.30981445 1427.20581055 C316.2196906 1427.30591882 341.12592392 1427.2479412 365.80596924 1423.43955994 C369.96725102 1422.86688769 374.11359262 1422.63329567 378.3059082 1422.41870117 C404.78589871 1421.04695865 431.25410196 1416.224177 457 1410 C458.31291016 1409.6920752 458.31291016 1409.6920752 459.65234375 1409.37792969 C472.42321802 1406.36129719 484.87258314 1402.52393683 497.3125 1398.375 C498.02041687 1398.13916199 498.72833374 1397.90332397 499.45770264 1397.66033936 C533.66553569 1386.21925643 568.19852413 1369.72502706 594 1344 C594.79792969 1343.22527344 595.59585938 1342.45054688 596.41796875 1341.65234375 C614.73726408 1322.7654971 619.31683354 1296.52379028 621.9375 1271.3125 C622.01926483 1270.53324158 622.10102966 1269.75398315 622.18527222 1268.95111084 C626.621641 1225.8381774 628.08058685 1182.35479757 629.6875 1139.0625 C629.73352293 1137.82397655 629.73352293 1137.82397655 629.78047562 1136.56043243 C629.98817187 1130.94803466 630.18926949 1125.33542315 630.38671875 1119.72265625 C630.41102589 1119.04127531 630.43533302 1118.35989437 630.46037674 1117.65786552 C630.6189016 1113.18246068 630.76246767 1108.70671171 630.90032077 1104.23062557 C630.97211028 1101.90391201 631.04495586 1099.57723095 631.11847234 1097.25057131 C631.80887278 1075.22661198 632.14294266 1053.22868208 632.10140657 1031.19448638 C632.09484949 1027.07847159 632.09444951 1022.96245476 632.0932312 1018.84643555 C632.09038379 1011.75516362 632.08401089 1004.66390252 632.07516479 997.57263565 C632.06242111 987.27821141 632.05649083 976.98379098 632.05223143 966.68936013 C632.04520938 949.91904297 632.03444649 933.14873075 632.02050781 916.37841797 C632.01968 915.38080015 632.01885219 914.38318233 632.01799929 913.35533367 C632.01125856 905.26649741 632.00433268 897.17766132 631.99739647 889.08882523 C631.99134229 882.01999163 631.98536139 874.95115797 631.97949219 867.88232422 C631.97825 866.38869174 631.97825 866.38869174 631.97698271 864.86488487 C631.96320535 848.14725317 631.95349651 831.42962138 631.94658184 814.71198547 C631.94254559 805.37463637 631.93637314 796.03729808 631.92483521 786.69995499 C631.75352772 646.26237173 631.75352772 646.26237173 648 621 C649 620 650 619 651 618 C651 617.34 651 616.68 651 616 C651.66 616 652.32 616 653 616 C653 615.34 653 614.68 653 614 C653.66 614 654.32 614 655 614 C656.10835806 612.85700575 657.21594138 611.71325318 658.3203125 610.56640625 C663.73885219 605.51330295 670.04753707 601.52816834 677 599 C677.62777344 598.74605469 678.25554687 598.49210937 678.90234375 598.23046875 C693.23639806 592.81182252 711.43005098 592.38938702 726.52360535 594.49050903 C731.45063249 595.11466061 736.35050633 595.21682904 741.31201172 595.29711914 C742.82592216 595.32658615 742.82592216 595.32658615 744.37041664 595.35664845 C747.7234413 595.42056863 751.07653989 595.47807646 754.4296875 595.53515625 C756.81994978 595.57851277 759.2102085 595.6220658 761.60046387 595.665802 C768.02645983 595.78152521 774.45255485 595.89024595 780.87871552 595.99639511 C784.87157327 596.06244332 788.8644062 596.12986618 792.85723877 596.19741821 C827.73909337 596.78388255 862.61809954 597.19597315 897.50565338 597.18803024 C900.35694015 597.18750334 903.20822283 597.18866735 906.05950928 597.18997192 C910.51789179 597.19093215 914.97621796 597.185282 919.43458557 597.17382431 C921.0339176 597.17002336 922.63325346 597.16752802 924.23258972 597.16656876 C934.52508988 597.15634358 944.73478463 596.75373203 955 596 C955.63617102 584.9062675 956.2709171 573.81245442 956.90394497 562.7185421 C957.19806659 557.56476398 957.49264187 552.41101271 957.78833008 547.25732422 C958.07475825 542.26471912 958.35989541 537.27204168 958.64421272 532.27931595 C958.75179032 530.39395249 958.85979913 528.50861357 958.96829033 526.62330246 C959.55015603 516.5065768 960.09249482 506.3893246 960.5546875 496.26635742 C960.59515418 495.38059462 960.63562086 494.49483181 960.6773138 493.58222771 C961.07301832 484.70337428 961.34247118 475.82226843 961.5625 466.9375 C961.58334656 466.10748474 961.60419312 465.27746948 961.62567139 464.42230225 C962.0077919 448.94623701 962.21700138 433.48097099 962 418 C961.98743164 416.94780273 961.97486328 415.89560547 961.96191406 414.81152344 C961.27227174 369.67513716 951.0845291 323.36462303 923 287 C922.34 287 921.68 287 921 287 C920.71125 286.401875 920.4225 285.80375 920.125 285.1875 C918.95257974 282.80672208 918.95257974 282.80672208 917 280 C916.34 280 915.68 280 915 280 C914.73058594 279.40574219 914.46117187 278.81148437 914.18359375 278.19921875 C897.08958546 246.43708453 840.80695152 227.96821649 810 215 C809.21443726 214.66897278 808.42887451 214.33794556 807.61950684 213.99688721 C785.60935278 204.72810751 763.50885088 195.76221179 741.20166016 187.234375 C737.58380668 185.83953992 733.98298543 184.40666635 730.38830566 182.95332336 C707.45425026 173.68387809 684.22245978 165.14930112 660.9699707 156.71582031 C658.23466277 155.72313064 655.50184439 154.72395474 652.77075195 153.71972656 C649.39505764 152.4785255 646.01571096 151.24783813 642.63339424 150.02480316 C640.75627687 149.3431705 638.88296029 148.65109982 637.00975037 147.95880127 C635.88238968 147.5537738 634.75502899 147.14874634 633.59350586 146.73144531 C632.6061998 146.37157532 631.61889374 146.01170532 630.60166931 145.64093018 C627.85552126 144.96440717 626.59033534 144.93880763 624 146 C619.87298145 149.47336034 617.51560791 153.31260232 615.25 158.125 C614.74303589 159.16672363 614.74303589 159.16672363 614.22583008 160.22949219 C612.40331851 163.99225834 610.63410891 167.77938573 608.87109375 171.5703125 C603.73164195 182.59946724 598.14037547 193.27382399 592.18359375 203.88378906 C590.70131883 206.53402813 589.2544699 209.20265361 587.8125 211.875 C581.90700992 222.67811288 575.78573107 233.14948106 568.828125 243.30493164 C567.62583444 245.06128102 566.43352355 246.82409757 565.2421875 248.58789062 C554.65707061 264.17574053 543.016452 278.93531791 530.04785156 292.61083984 C527.22113504 295.59441741 524.46057011 298.60140575 521.80859375 301.7421875 C519.75824435 304.15890027 517.68731473 306.33671467 515.25 308.375 C512.25983955 310.90989166 509.36876075 313.51608689 506.5 316.1875 C453.36526422 363.80900755 371.36288792 398.08793751 299.578125 398.16796875 C298.51567566 398.17129715 297.45322632 398.17462555 296.35858154 398.17805481 C294.12317331 398.18308822 291.88775765 398.18546425 289.65234375 398.18530273 C286.2733085 398.18748495 282.89460251 398.20566781 279.515625 398.22460938 C268.48736383 398.25499419 257.85001412 398.14641942 247 396 C245.76330566 395.76643799 244.52661133 395.53287598 243.25244141 395.29223633 C239.22010354 394.51471634 235.20291416 393.67271484 231.1875 392.8125 C230.11542801 392.58382233 230.11542801 392.58382233 229.021698 392.3505249 C193.17893483 384.66457413 157.394863 373.38687571 125 356 C124.41347656 355.68740234 123.82695313 355.37480469 123.22265625 355.05273438 C114.02905453 350.10784615 105.47295516 344.40309645 96.95947266 338.38476562 C95.06521948 337.04609081 93.16414823 335.71764382 91.26171875 334.390625 C81.02319058 327.21008881 71.44938076 319.42528227 62.2109375 310.98828125 C60.44919917 309.4039618 58.66911213 307.90609002 56.8125 306.4375 C53.81696661 303.84137107 51.35055942 301.04988732 48.78515625 298.0390625 C47.09207384 296.10516968 45.33526672 294.29831504 43.5 292.5 C20.2463426 269.50300548 1.99687979 240.31798373 -14 212 C-14.46760742 211.17306641 -14.93521484 210.34613281 -15.41699219 209.49414062 C-22.7482393 196.45544273 -29.38566578 183.16840624 -35.75683594 169.63867188 C-37.60908325 165.70719329 -39.47378796 161.78304697 -41.375 157.875 C-41.67245117 157.24223145 -41.96990234 156.60946289 -42.27636719 155.95751953 C-44.44919952 151.52791005 -47.0827636 147.06667823 -51.91812134 145.29864502 C-55.64779937 144.76362356 -59.06895963 146.51312204 -62.5234375 147.796875 Z " fill="#101010" transform="translate(737,319)"/>
</svg>
