<?xml version="1.0" encoding="UTF-8"?>
<!-- Generator: visioncortex VTracer 0.6.12 -->
<svg version="1.1" xmlns="http://www.w3.org/2000/svg" width="2048" height="2048">
<path d="M0,0 L16,0 L33,4 L47,12 L52,16 L52,18 L54,18 L54,20 L56,20 L61,27 L61,29 L63,29 L67,37 L72,52 L73,64 L71,134 L70,150 L87,151 L125,156 L161,163 L201,173 L236,184 L267,195 L295,206 L321,217 L349,230 L381,246 L404,259 L425,271 L444,283 L469,299 L489,313 L507,326 L519,335 L532,345 L546,356 L559,367 L570,376 L585,389 L599,402 L607,409 L617,419 L625,426 L647,448 L647,450 L649,450 L656,458 L664,466 L671,474 L680,484 L689,495 L698,505 L706,515 L717,529 L731,547 L744,565 L760,589 L770,604 L781,622 L788,633 L794,644 L804,663 L813,680 L821,698 L825,706 L835,729 L846,757 L856,788 L864,818 L870,844 L875,875 L878,908 L878,961 L875,990 L870,1018 L862,1046 L858,1055 L857,1057 L855,1057 L853,1062 L851,1065 L849,1065 L847,1069 L845,1069 L845,1071 L843,1071 L843,1073 L841,1073 L841,1075 L831,1081 L817,1086 L813,1087 L791,1087 L688,1086 L411,1084 L260,1083 L116,1082 L64,1081 L65,1182 L68,1621 L68,1663 L65,1693 L60,1716 L55,1732 L47,1750 L39,1765 L29,1779 L21,1789 L10,1801 L1,1809 L-18,1823 L-32,1832 L-48,1840 L-63,1846 L-86,1852 L-108,1855 L-136,1855 L-159,1852 L-182,1846 L-197,1840 L-213,1832 L-226,1824 L-238,1815 L-249,1805 L-254,1800 L-261,1793 L-275,1774 L-285,1758 L-293,1741 L-300,1719 L-304,1700 L-306,1674 L-305,1656 L-301,1643 L-296,1633 L-288,1622 L-277,1614 L-270,1609 L-255,1604 L-247,1603 L-236,1603 L-224,1605 L-212,1610 L-205,1614 L-205,1616 L-202,1616 L-197,1621 L-192,1626 L-187,1633 L-183,1640 L-180,1650 L-178,1660 L-177,1680 L-174,1692 L-169,1702 L-162,1711 L-152,1719 L-141,1724 L-127,1727 L-112,1726 L-99,1722 L-89,1717 L-79,1708 L-72,1700 L-65,1686 L-62,1673 L-62,1642 L-61,1635 L-61,1561 L-64,1124 L-64,1081 L-116,1082 L-268,1083 L-414,1084 L-687,1086 L-784,1087 L-803,1087 L-816,1083 L-826,1078 L-831,1075 L-831,1073 L-833,1073 L-833,1071 L-835,1071 L-835,1069 L-839,1067 L-839,1065 L-842,1064 L-845,1059 L-845,1057 L-847,1057 L-851,1048 L-856,1033 L-862,1008 L-866,983 L-868,961 L-868,906 L-864,868 L-858,834 L-850,802 L-843,778 L-833,749 L-818,712 L-814,704 L-806,686 L-796,667 L-789,653 L-779,636 L-773,625 L-757,599 L-740,574 L-726,554 L-713,537 L-699,519 L-685,502 L-673,488 L-664,478 L-657,470 L-646,458 L-639,450 L-637,450 L-635,446 L-609,420 L-601,413 L-591,403 L-583,396 L-573,387 L-558,374 L-547,365 L-534,354 L-521,344 L-508,334 L-489,320 L-469,306 L-448,292 L-423,276 L-401,263 L-376,249 L-349,235 L-316,219 L-278,203 L-235,187 L-198,175 L-160,165 L-126,158 L-87,152 L-66,150 L-58,150 L-56,80 L-55,57 L-52,44 L-48,35 L-43,26 L-41,26 L-40,22 L-38,22 L-37,19 L-35,19 L-35,17 L-33,17 L-33,15 L-23,8 L-12,3 Z M-38,276 L-65,278 L-100,283 L-130,289 L-161,297 L-190,306 L-223,318 L-254,331 L-284,345 L-312,359 L-336,373 L-355,384 L-374,396 L-392,408 L-408,419 L-427,433 L-444,446 L-458,457 L-471,468 L-484,479 L-492,486 L-505,498 L-513,505 L-556,548 L-563,556 L-575,569 L-584,580 L-596,594 L-606,607 L-619,624 L-632,642 L-654,675 L-666,695 L-678,716 L-689,737 L-701,763 L-712,789 L-722,819 L-730,847 L-736,876 L-740,906 L-741,924 L-741,947 L-740,958 L-624,958 L-323,956 L-172,955 L-69,954 L79,954 L202,955 L483,957 L634,958 L750,958 L751,947 L751,920 L748,889 L743,860 L734,825 L724,795 L714,770 L705,750 L694,727 L682,705 L669,683 L657,664 L642,642 L628,623 L619,611 L608,597 L597,584 L588,573 L578,562 L571,554 L557,539 L517,499 L509,492 L499,483 L484,470 L473,461 L457,448 L437,433 L421,421 L402,408 L384,396 L360,381 L334,366 L312,354 L284,340 L255,327 L225,315 L197,305 L164,295 L131,287 L98,281 L65,277 L48,276 Z " fill="#101010" transform="translate(1019,110)"/>
</svg>
