<?xml version="1.0" encoding="UTF-8"?>
<!-- Generator: visioncortex VTracer 0.6.12 -->
<svg version="1.1" xmlns="http://www.w3.org/2000/svg" width="2048" height="2048">
<path d="M0,0 L36,0 L60,3 L87,9 L114,18 L138,29 L154,38 L175,52 L184,59 L195,68 L201,73 L201,75 L205,77 L217,89 L226,100 L238,115 L251,135 L260,151 L270,173 L277,193 L283,214 L287,236 L290,264 L290,300 L287,325 L282,349 L274,375 L264,399 L255,415 L249,426 L239,441 L233,448 L226,457 L217,467 L210,475 L195,489 L181,500 L165,511 L150,520 L128,531 L104,540 L94,542 L29,548 L-169,549 L-646,550 L-1102,551 L-1516,551 L-1534,545 L-1540,542 L-1540,540 L-1544,539 L-1544,537 L-1549,535 L-1549,533 L-1551,533 L-1551,531 L-1553,531 L-1560,521 L-1565,512 L-1568,500 L-1569,490 L-1569,479 L-1566,467 L-1562,457 L-1560,457 L-1559,452 L-1557,452 L-1555,447 L-1545,437 L-1529,428 L-1514,424 L-1376,423 L-886,422 L-426,421 L45,420 L56,420 L72,415 L88,407 L100,400 L114,389 L118,385 L120,385 L122,381 L129,374 L140,358 L150,339 L158,315 L161,298 L162,286 L162,274 L160,254 L155,233 L149,217 L139,198 L129,184 L123,177 L123,175 L119,173 L114,168 L113,165 L109,163 L99,155 L86,147 L70,139 L49,132 L33,129 L22,128 L2,128 L-17,131 L-34,136 L-52,144 L-67,153 L-78,162 L-80,162 L-80,164 L-88,171 L-96,180 L-104,191 L-112,205 L-119,221 L-124,237 L-127,252 L-130,288 L-134,300 L-140,311 L-148,320 L-150,320 L-151,323 L-159,329 L-165,332 L-169,332 L-169,334 L-176,336 L-199,338 L-215,334 L-219,333 L-219,331 L-223,330 L-233,324 L-239,319 L-247,308 L-252,299 L-252,294 L-254,294 L-255,287 L-256,286 L-257,271 L-256,248 L-252,221 L-246,196 L-238,172 L-230,154 L-222,138 L-212,122 L-200,105 L-189,92 L-180,82 L-176,77 L-168,70 L-158,61 L-141,48 L-122,36 L-106,27 L-80,16 L-55,8 L-35,4 Z " fill="#101010" transform="translate(1643,639)"/>
<path d="M0,0 L39,0 L62,3 L85,8 L109,16 L128,24 L133,27 L143,33 L154,39 L167,49 L178,58 L195,75 L206,89 L216,104 L228,127 L236,151 L242,175 L244,189 L245,207 L245,218 L243,241 L238,266 L232,286 L225,304 L215,323 L211,330 L199,348 L190,359 L179,371 L169,381 L155,392 L137,404 L116,415 L86,426 L77,428 L51,430 L-23,434 L-368,434 L-752,433 L-768,429 L-774,426 L-784,420 L-790,415 L-800,402 L-804,394 L-808,381 L-809,366 L-807,352 L-803,342 L-798,334 L-786,320 L-776,313 L-767,309 L-755,306 L-741,305 L-540,305 L32,306 L43,305 L56,301 L72,293 L82,286 L86,282 L88,282 L90,278 L97,270 L105,257 L112,240 L115,228 L116,220 L116,202 L113,187 L108,174 L101,163 L93,154 L78,143 L63,136 L42,130 L24,128 L11,128 L-7,131 L-20,136 L-31,143 L-38,151 L-43,161 L-46,173 L-47,180 L-47,200 L-45,214 L-45,227 L-49,244 L-55,255 L-57,258 L-59,258 L-61,263 L-63,263 L-65,267 L-76,275 L-79,275 L-79,277 L-90,281 L-107,284 L-119,283 L-131,280 L-145,273 L-148,271 L-148,269 L-152,267 L-157,262 L-157,260 L-159,260 L-166,249 L-171,236 L-175,213 L-176,202 L-176,180 L-174,159 L-169,134 L-161,110 L-153,93 L-143,77 L-136,68 L-127,58 L-122,53 L-114,45 L-101,35 L-83,24 L-66,16 L-48,10 L-22,3 Z " fill="#101010" transform="translate(1116,568)"/>
<path d="M0,0 L785,0 L853,3 L869,7 L889,14 L912,25 L930,37 L951,53 L959,60 L967,67 L976,78 L985,89 L995,104 L1007,127 L1014,146 L1019,165 L1022,184 L1023,198 L1023,216 L1020,240 L1014,263 L1004,288 L995,304 L982,322 L973,333 L964,343 L951,355 L933,368 L916,378 L895,388 L875,395 L850,401 L829,404 L812,405 L796,405 L774,403 L748,398 L728,392 L708,384 L692,376 L671,363 L657,352 L642,339 L633,330 L624,319 L613,304 L601,283 L595,269 L593,260 L593,240 L595,231 L598,224 L604,213 L608,208 L613,203 L617,199 L620,199 L621,196 L633,190 L644,187 L658,186 L670,187 L680,190 L690,196 L702,205 L704,209 L707,210 L715,223 L722,236 L730,246 L738,253 L746,259 L761,267 L774,272 L788,275 L796,276 L819,276 L834,273 L849,268 L865,259 L877,248 L885,238 L891,226 L894,213 L894,195 L890,181 L883,167 L874,156 L866,148 L856,141 L840,133 L825,128 L817,127 L808,128 L246,128 L2,127 L-10,124 L-19,120 L-27,115 L-36,107 L-44,97 L-49,86 L-52,77 L-53,69 L-53,53 L-47,35 L-45,31 L-43,31 L-42,27 L-33,17 L-22,8 L-11,3 Z " fill="#101010" transform="translate(808,1235)"/>
<path d="M0,0 L87,1 L99,3 L109,7 L120,14 L128,21 L128,23 L131,24 L134,28 L134,31 L136,31 L137,36 L139,36 L143,48 L145,64 L144,78 L139,92 L133,102 L128,109 L123,113 L121,113 L120,116 L115,119 L112,119 L112,121 L96,127 L88,128 L-4,128 L-21,123 L-34,115 L-41,110 L-45,104 L-48,101 L-55,89 L-57,83 L-59,70 L-59,55 L-55,41 L-51,32 L-50,30 L-48,30 L-46,25 L-44,22 L-42,22 L-40,18 L-38,18 L-37,15 L-34,15 L-33,12 L-21,5 L-9,2 L-8,1 Z " fill="#101010" transform="translate(575,1237)"/>
<path d="M0,0 L23,0 L37,4 L48,10 L59,19 L59,21 L61,21 L63,26 L65,26 L65,29 L67,29 L74,45 L76,56 L76,72 L73,84 L69,93 L63,103 L58,108 L54,112 L52,112 L52,114 L44,119 L41,119 L41,121 L20,127 L1,127 L-15,123 L-27,117 L-33,112 L-33,110 L-37,108 L-45,98 L-51,86 L-55,69 L-55,56 L-52,43 L-48,34 L-43,25 L-41,25 L-39,21 L-34,16 L-24,8 L-20,8 L-20,6 L-9,2 Z " fill="#101010" transform="translate(197,875)"/>
</svg>
