<?xml version="1.0" encoding="UTF-8"?>
<!-- Generator: visioncortex VTracer 0.6.12 -->
<svg version="1.1" xmlns="http://www.w3.org/2000/svg" width="2048" height="2048">
<path d="M0,0 L67,0 L151,3 L160,4 L183,5 L225,6 L249,7 L290,8 L312,9 L329,13 L336,17 L349,21 L366,30 L372,33 L391,43 L413,56 L426,64 L426,66 L432,68 L442,74 L450,79 L450,81 L455,83 L469,92 L475,97 L486,104 L497,114 L505,120 L505,122 L509,124 L514,129 L514,131 L516,131 L525,142 L532,152 L538,161 L547,182 L552,199 L555,215 L556,222 L556,244 L553,265 L549,278 L545,291 L537,307 L525,327 L522,331 L520,331 L520,334 L527,339 L532,344 L535,346 L535,348 L540,350 L544,354 L544,356 L548,358 L557,367 L565,377 L566,380 L569,381 L583,401 L591,414 L603,439 L612,468 L616,482 L620,509 L621,516 L623,543 L623,601 L621,616 L623,616 L627,622 L632,627 L642,642 L649,654 L654,665 L658,679 L660,682 L663,695 L665,709 L667,748 L668,753 L668,781 L667,795 L685,782 L696,775 L706,769 L709,767 L712,767 L712,765 L728,757 L739,752 L746,749 L770,741 L781,738 L791,736 L801,733 L824,730 L839,729 L869,729 L894,731 L913,734 L935,740 L952,745 L965,750 L981,758 L995,766 L1013,777 L1025,786 L1038,796 L1047,803 L1047,805 L1051,807 L1067,822 L1072,828 L1077,833 L1079,837 L1081,837 L1084,841 L1084,844 L1088,846 L1096,857 L1099,862 L1099,864 L1101,864 L1107,874 L1121,900 L1126,913 L1131,929 L1135,939 L1139,958 L1142,985 L1143,999 L1143,1010 L1141,1040 L1138,1065 L1134,1085 L1131,1097 L1124,1122 L1117,1141 L1114,1146 L1109,1159 L1101,1174 L1094,1186 L1088,1197 L1080,1209 L1075,1218 L1066,1230 L1058,1242 L1056,1245 L1054,1245 L1054,1247 L1052,1247 L1050,1252 L1041,1263 L1037,1268 L1035,1268 L1033,1273 L1029,1278 L1027,1278 L1025,1282 L1016,1292 L1010,1299 L1008,1299 L1006,1303 L997,1313 L991,1320 L989,1320 L987,1324 L971,1341 L970,1343 L968,1343 L968,1345 L966,1345 L964,1349 L954,1359 L953,1361 L951,1361 L949,1365 L939,1375 L932,1383 L924,1391 L918,1398 L916,1398 L914,1402 L903,1414 L901,1414 L901,1416 L899,1416 L897,1420 L893,1425 L891,1425 L891,1427 L889,1427 L889,1429 L881,1436 L873,1445 L871,1445 L871,1447 L869,1447 L869,1449 L864,1454 L863,1456 L861,1456 L861,1458 L859,1458 L859,1460 L851,1467 L844,1475 L835,1483 L829,1490 L827,1490 L827,1492 L822,1496 L820,1496 L820,1498 L818,1498 L816,1502 L812,1506 L809,1506 L807,1510 L802,1515 L796,1520 L794,1520 L794,1522 L786,1528 L781,1533 L777,1536 L775,1536 L775,1538 L767,1543 L764,1543 L762,1547 L748,1555 L738,1560 L723,1567 L700,1574 L691,1577 L665,1583 L644,1590 L629,1598 L618,1604 L608,1612 L598,1620 L596,1620 L594,1624 L586,1631 L584,1633 L581,1633 L579,1638 L576,1639 L576,1641 L573,1644 L571,1644 L571,1646 L565,1650 L562,1655 L557,1659 L552,1664 L549,1665 L547,1670 L539,1677 L534,1681 L527,1689 L519,1696 L512,1704 L504,1711 L499,1718 L494,1723 L489,1728 L487,1731 L485,1731 L485,1733 L483,1733 L483,1735 L473,1741 L464,1745 L459,1746 L441,1746 L431,1743 L417,1736 L408,1728 L408,1726 L406,1726 L406,1724 L402,1722 L392,1713 L392,1711 L390,1711 L390,1709 L388,1709 L388,1707 L384,1705 L379,1701 L379,1699 L377,1699 L370,1691 L360,1682 L353,1675 L345,1668 L337,1660 L329,1653 L328,1650 L324,1648 L317,1642 L317,1640 L313,1638 L308,1632 L299,1625 L292,1617 L284,1610 L274,1600 L272,1599 L272,1597 L268,1595 L262,1588 L254,1582 L254,1580 L250,1578 L245,1573 L238,1566 L233,1561 L220,1549 L211,1540 L209,1539 L209,1537 L207,1537 L207,1535 L203,1533 L193,1523 L191,1522 L191,1520 L189,1520 L189,1518 L185,1516 L171,1502 L163,1495 L154,1486 L149,1481 L144,1477 L144,1475 L142,1475 L142,1473 L138,1471 L128,1461 L126,1460 L126,1458 L122,1456 L110,1444 L103,1438 L98,1433 L97,1430 L92,1428 L83,1418 L81,1417 L81,1415 L79,1415 L79,1413 L75,1411 L68,1400 L64,1386 L64,1373 L66,1362 L72,1350 L74,1347 L69,1345 L57,1337 L51,1332 L48,1329 L48,1327 L46,1327 L44,1322 L40,1320 L35,1313 L35,1311 L32,1311 L30,1316 L19,1329 L16,1330 L14,1334 L9,1338 L-2,1345 L-11,1350 L-27,1354 L-34,1355 L-98,1355 L-216,1354 L-231,1352 L-241,1347 L-241,1345 L-245,1344 L-255,1338 L-265,1332 L-276,1324 L-286,1317 L-286,1315 L-291,1313 L-306,1302 L-311,1298 L-325,1288 L-336,1279 L-340,1276 L-340,1274 L-344,1272 L-352,1261 L-356,1249 L-357,1236 L-357,1221 L-366,1223 L-381,1224 L-392,1226 L-434,1227 L-455,1227 L-468,1225 L-483,1220 L-495,1215 L-505,1208 L-517,1197 L-520,1194 L-520,1192 L-522,1192 L-529,1181 L-537,1165 L-543,1145 L-546,1128 L-548,1115 L-552,1045 L-555,1020 L-559,993 L-563,977 L-571,940 L-575,920 L-578,908 L-582,892 L-587,868 L-590,849 L-593,832 L-595,825 L-600,789 L-601,774 L-601,757 L-600,749 L-599,724 L-596,699 L-594,688 L-591,679 L-586,664 L-578,648 L-573,639 L-571,639 L-570,635 L-561,623 L-555,616 L-556,593 L-556,551 L-553,509 L-550,490 L-544,465 L-535,438 L-523,413 L-516,402 L-506,387 L-494,373 L-488,365 L-480,358 L-470,348 L-459,339 L-453,334 L-460,324 L-467,313 L-470,307 L-470,305 L-472,305 L-480,287 L-485,269 L-486,262 L-488,257 L-489,249 L-489,219 L-487,206 L-486,205 L-483,190 L-477,173 L-472,163 L-461,145 L-451,133 L-449,133 L-447,129 L-442,123 L-434,116 L-418,103 L-406,95 L-396,88 L-383,79 L-366,68 L-359,64 L-354,60 L-343,54 L-333,48 L-323,42 L-307,34 L-293,26 L-284,22 L-274,18 L-267,16 L-262,13 L-246,9 L-224,8 L-182,7 L-159,6 L-116,5 L-92,4 L-85,3 Z M16,100 L-73,103 L-96,104 L-137,105 L-191,107 L-189,112 L-181,122 L-169,135 L-166,139 L-164,139 L-162,143 L-146,158 L-134,168 L-123,177 L-111,185 L-109,185 L-109,188 L-99,193 L-88,200 L-81,204 L-65,212 L-46,221 L-25,228 L-6,233 L3,235 L12,237 L24,238 L43,238 L59,236 L71,234 L75,232 L92,228 L107,223 L119,218 L138,209 L150,203 L158,198 L173,189 L180,183 L190,177 L190,175 L194,173 L197,171 L197,169 L202,167 L212,158 L220,151 L239,132 L239,130 L241,130 L250,119 L258,108 L258,107 L205,105 L163,104 L113,102 L51,100 Z M-292,140 L-301,146 L-311,152 L-319,156 L-324,161 L-336,168 L-348,177 L-361,186 L-371,195 L-373,196 L-373,198 L-375,198 L-381,206 L-385,213 L-389,226 L-389,240 L-385,254 L-379,265 L-368,280 L-352,272 L-347,270 L-346,251 L-345,250 L-343,241 L-337,230 L-330,224 L-326,220 L-320,216 L-308,212 L-287,212 L-275,216 L-272,219 L-266,222 L-256,230 L-245,239 L-234,247 L-229,252 L-215,262 L-205,270 L-194,278 L-181,288 L-175,292 L-167,299 L-161,303 L-155,307 L-150,312 L-139,320 L-129,328 L-127,328 L-127,330 L-119,337 L-113,345 L-110,351 L-107,363 L-107,377 L-110,390 L-116,400 L-120,405 L-122,406 L-122,408 L-126,410 L-140,417 L-147,419 L-164,419 L-175,416 L-189,408 L-198,400 L-200,400 L-200,398 L-217,386 L-226,378 L-235,372 L-242,366 L-253,358 L-265,349 L-267,349 L-267,347 L-276,341 L-280,338 L-288,343 L-298,347 L-314,355 L-329,363 L-343,370 L-363,382 L-379,393 L-384,396 L-384,398 L-389,400 L-389,402 L-393,404 L-402,410 L-407,415 L-421,429 L-430,440 L-434,445 L-443,459 L-450,474 L-455,489 L-458,498 L-461,517 L-462,528 L-462,572 L-460,594 L-459,595 L-404,598 L-388,602 L-377,609 L-372,614 L-366,624 L-362,634 L-361,646 L-363,657 L-369,669 L-376,678 L-387,685 L-398,688 L-429,688 L-489,685 L-493,686 L-499,696 L-503,704 L-506,715 L-507,732 L-507,753 L-506,773 L-502,798 L-499,810 L-495,833 L-489,862 L-486,874 L-483,883 L-462,885 L-427,887 L-408,889 L-399,890 L-387,895 L-377,904 L-372,910 L-368,921 L-367,926 L-367,942 L-370,952 L-374,960 L-381,968 L-388,973 L-395,976 L-404,978 L-426,980 L-453,981 L-467,982 L-464,1006 L-461,1028 L-459,1056 L-457,1106 L-454,1120 L-450,1134 L-447,1137 L-426,1138 L-364,1136 L-359,1132 L-358,1129 L-358,1097 L-360,986 L-361,896 L-362,831 L-362,731 L-358,710 L-355,693 L-349,672 L-344,660 L-334,641 L-324,629 L-319,623 L-311,617 L-300,612 L-288,610 L-276,611 L-267,615 L-258,620 L-253,624 L-249,631 L-247,631 L-244,641 L-242,648 L-242,663 L-245,673 L-250,683 L-259,694 L-262,699 L-267,717 L-267,735 L-217,736 L-209,737 L-158,739 L-139,741 L-126,746 L-117,753 L-110,762 L-106,773 L-104,780 L-104,790 L-106,796 L-108,804 L-116,817 L-122,821 L-122,823 L-128,825 L-133,828 L-147,831 L-183,829 L-203,828 L-208,827 L-226,826 L-270,826 L-270,878 L-269,956 L-167,956 L-148,957 L-133,960 L-125,964 L-114,973 L-110,979 L-107,985 L-104,995 L-104,1010 L-108,1022 L-113,1031 L-114,1034 L-116,1034 L-116,1036 L-120,1038 L-130,1044 L-139,1047 L-144,1048 L-157,1048 L-172,1047 L-246,1047 L-267,1048 L-267,1117 L-266,1188 L-265,1217 L-254,1226 L-249,1228 L-249,1230 L-237,1238 L-227,1246 L-218,1252 L-212,1257 L-202,1261 L-201,1262 L-113,1263 L-50,1263 L-39,1259 L-33,1255 L-28,1251 L-28,1249 L-26,1249 L-19,1238 L-15,1227 L-15,1189 L-16,983 L-17,860 L-18,673 L-19,615 L-190,613 L-235,612 L-248,607 L-257,600 L-259,600 L-261,596 L-266,589 L-270,579 L-272,570 L-272,558 L-268,544 L-262,533 L-254,526 L-252,525 L-252,523 L-248,521 L-238,517 L-231,515 L-20,514 L-19,467 L-19,332 L-49,325 L-62,320 L-75,316 L-93,309 L-107,302 L-124,294 L-132,289 L-148,280 L-157,274 L-172,264 L-190,251 L-198,244 L-200,244 L-200,242 L-205,240 L-205,238 L-216,229 L-226,219 L-228,219 L-229,216 L-231,216 L-231,214 L-234,211 L-236,211 L-236,209 L-241,204 L-249,196 L-257,186 L-260,182 L-262,182 L-264,178 L-271,168 L-278,159 L-287,144 L-290,140 Z M356,140 L352,147 L341,164 L333,174 L326,183 L314,197 L312,201 L310,201 L303,209 L286,226 L278,233 L275,235 L275,237 L271,239 L260,247 L255,252 L249,257 L242,261 L235,267 L225,273 L215,279 L215,281 L210,283 L196,290 L186,296 L170,304 L161,308 L153,312 L123,322 L107,327 L95,330 L85,332 L85,401 L86,514 L297,515 L311,519 L317,523 L319,523 L319,525 L327,531 L334,542 L338,554 L339,560 L339,570 L334,586 L327,597 L322,601 L322,603 L318,605 L310,609 L301,612 L251,613 L86,615 L84,873 L83,1082 L82,1226 L88,1241 L93,1249 L101,1256 L113,1262 L117,1263 L156,1263 L165,1252 L176,1238 L184,1225 L189,1212 L192,1205 L197,1159 L200,1144 L204,1133 L206,1123 L215,1096 L220,1087 L223,1079 L230,1066 L230,1064 L232,1064 L238,1053 L241,1047 L224,1048 L211,1048 L200,1045 L190,1040 L180,1031 L175,1022 L172,1011 L172,995 L176,982 L180,975 L185,970 L195,962 L203,959 L216,957 L235,956 L314,955 L323,944 L324,941 L326,941 L328,936 L330,936 L337,926 L338,866 L338,826 L293,826 L275,827 L271,828 L220,831 L208,830 L200,827 L190,822 L181,814 L175,804 L172,793 L172,779 L175,767 L180,758 L182,754 L186,752 L193,746 L206,741 L225,739 L276,737 L284,736 L334,735 L334,716 L331,704 L324,690 L316,681 L311,671 L310,666 L310,645 L314,634 L320,625 L330,617 L338,613 L343,611 L355,610 L368,612 L381,619 L391,628 L402,642 L413,665 L417,674 L422,691 L426,714 L429,729 L430,732 L431,745 L430,823 L430,853 L440,850 L461,845 L478,843 L498,844 L520,849 L533,854 L550,866 L555,868 L558,856 L560,844 L569,799 L573,774 L574,760 L574,726 L573,715 L570,704 L566,695 L561,687 L559,685 L517,687 L496,688 L465,688 L455,685 L445,679 L442,678 L440,674 L433,664 L429,650 L429,637 L433,624 L440,613 L448,606 L459,601 L471,598 L526,595 L527,594 L529,577 L530,547 L529,522 L526,501 L521,484 L514,466 L506,451 L497,440 L490,431 L485,425 L479,420 L477,417 L475,417 L475,415 L470,413 L469,410 L461,404 L456,400 L454,400 L454,398 L436,386 L427,380 L411,370 L395,362 L378,353 L350,340 L346,338 L337,345 L328,351 L328,353 L324,355 L306,368 L295,377 L286,383 L286,385 L282,387 L273,393 L273,395 L269,397 L252,410 L236,418 L231,419 L214,419 L203,416 L193,410 L184,402 L181,397 L179,397 L178,392 L174,379 L174,361 L178,348 L184,339 L188,334 L202,323 L210,317 L210,315 L215,313 L223,306 L240,294 L244,290 L261,278 L265,275 L265,273 L270,271 L280,264 L280,262 L284,260 L294,253 L296,252 L296,250 L300,248 L310,240 L319,233 L330,224 L332,223 L332,221 L338,219 L344,215 L353,212 L375,212 L388,217 L401,227 L407,235 L408,239 L410,239 L411,246 L412,250 L413,269 L430,277 L432,279 L436,279 L443,268 L447,263 L452,253 L454,248 L456,232 L454,219 L447,205 L438,195 L436,195 L434,191 L417,178 L408,172 L393,162 L387,158 L385,158 L385,156 L371,148 L361,142 Z M841,826 L830,827 L821,829 L799,834 L778,841 L762,849 L748,857 L743,861 L730,869 L730,871 L726,873 L721,877 L716,880 L716,882 L712,884 L701,893 L689,904 L684,908 L684,910 L682,910 L682,912 L678,914 L665,927 L663,928 L663,930 L661,930 L661,932 L657,934 L654,937 L654,939 L652,939 L652,941 L650,941 L644,948 L639,953 L635,957 L635,959 L632,960 L625,968 L622,971 L622,973 L620,973 L613,982 L608,987 L607,990 L605,990 L597,1000 L588,1010 L581,1018 L567,1035 L557,1046 L550,1054 L544,1061 L544,1063 L542,1063 L537,1069 L533,1073 L526,1081 L525,1084 L523,1084 L523,1086 L520,1087 L516,1092 L516,1094 L514,1094 L507,1102 L493,1117 L489,1121 L489,1123 L487,1123 L480,1131 L476,1136 L474,1137 L474,1139 L472,1139 L467,1145 L460,1151 L451,1156 L435,1159 L426,1159 L413,1156 L404,1151 L402,1151 L402,1149 L394,1142 L386,1126 L385,1121 L385,1104 L388,1092 L394,1081 L401,1075 L408,1066 L416,1059 L416,1057 L418,1057 L424,1049 L431,1043 L433,1038 L435,1038 L442,1030 L452,1019 L452,1017 L454,1017 L454,1015 L456,1015 L463,1007 L470,999 L479,989 L488,978 L488,976 L492,974 L497,968 L496,957 L493,947 L487,940 L476,940 L463,945 L455,950 L445,957 L436,964 L431,969 L428,971 L428,973 L424,975 L410,990 L401,1001 L393,1011 L384,1023 L374,1036 L374,1038 L372,1038 L366,1046 L357,1058 L348,1069 L339,1080 L332,1088 L322,1101 L314,1114 L305,1131 L300,1144 L294,1168 L291,1180 L289,1201 L289,1213 L288,1221 L293,1226 L305,1237 L317,1248 L325,1255 L339,1268 L341,1268 L343,1272 L353,1281 L358,1285 L363,1290 L379,1305 L392,1317 L396,1319 L396,1321 L398,1321 L398,1323 L406,1329 L408,1332 L410,1332 L410,1334 L420,1342 L424,1347 L434,1355 L438,1359 L440,1359 L440,1362 L449,1369 L455,1374 L459,1379 L464,1383 L466,1383 L466,1385 L472,1390 L477,1395 L487,1404 L500,1416 L502,1416 L502,1418 L510,1425 L516,1431 L518,1431 L518,1433 L526,1440 L537,1450 L540,1453 L542,1453 L542,1455 L544,1455 L544,1457 L555,1466 L560,1472 L570,1480 L581,1491 L586,1493 L586,1495 L591,1497 L602,1494 L625,1491 L640,1487 L654,1486 L682,1478 L697,1472 L709,1465 L725,1453 L726,1450 L730,1448 L740,1440 L740,1438 L742,1438 L747,1432 L752,1429 L757,1424 L763,1417 L771,1410 L777,1403 L785,1396 L795,1385 L800,1380 L805,1375 L805,1373 L807,1373 L807,1371 L809,1371 L809,1369 L813,1367 L827,1352 L833,1346 L833,1344 L835,1344 L839,1339 L843,1336 L843,1334 L845,1334 L845,1332 L847,1332 L850,1328 L850,1326 L852,1326 L852,1324 L854,1324 L854,1322 L858,1320 L860,1316 L862,1316 L870,1306 L876,1301 L879,1297 L879,1295 L881,1295 L885,1290 L890,1285 L894,1281 L894,1279 L896,1279 L901,1273 L906,1268 L916,1257 L921,1252 L928,1244 L933,1239 L933,1237 L935,1237 L944,1226 L958,1211 L963,1204 L968,1199 L976,1188 L984,1178 L989,1170 L989,1168 L991,1168 L1003,1149 L1009,1139 L1013,1132 L1021,1116 L1027,1104 L1034,1083 L1038,1069 L1038,1064 L1040,1064 L1044,1040 L1046,1013 L1045,989 L1042,968 L1035,947 L1028,932 L1022,922 L1015,911 L1007,901 L1001,894 L999,894 L997,890 L990,883 L983,877 L981,877 L981,875 L968,865 L957,857 L955,857 L955,855 L936,845 L930,841 L918,836 L894,830 L870,826 Z M241,1311 L233,1322 L228,1327 L218,1338 L218,1340 L214,1342 L205,1353 L199,1358 L199,1360 L197,1360 L193,1366 L186,1373 L184,1374 L184,1376 L182,1376 L183,1380 L191,1387 L193,1387 L193,1389 L195,1389 L197,1393 L210,1405 L227,1421 L230,1424 L234,1422 L243,1411 L248,1407 L257,1396 L262,1392 L271,1381 L280,1372 L280,1370 L282,1370 L282,1368 L284,1368 L291,1359 L293,1357 L283,1348 L271,1337 L269,1337 L269,1335 L267,1335 L267,1333 L265,1333 L263,1329 L255,1322 L253,1322 L253,1320 L245,1313 Z M364,1424 L350,1438 L343,1446 L341,1450 L337,1452 L328,1462 L326,1466 L324,1466 L317,1474 L306,1486 L302,1490 L302,1493 L310,1500 L316,1506 L318,1506 L318,1508 L320,1508 L320,1510 L327,1515 L330,1511 L330,1509 L332,1509 L332,1507 L334,1507 L334,1505 L336,1505 L336,1503 L340,1501 L343,1498 L343,1496 L345,1496 L352,1488 L355,1486 L355,1484 L357,1484 L364,1476 L369,1473 L375,1465 L377,1464 L377,1462 L379,1462 L384,1457 L391,1449 L389,1445 L387,1445 L387,1443 L379,1436 L375,1432 L373,1432 L373,1430 L371,1430 L371,1428 Z M463,1515 L461,1516 L461,1518 L457,1520 L448,1529 L443,1534 L443,1536 L439,1538 L437,1542 L435,1542 L435,1544 L433,1544 L428,1549 L418,1559 L413,1564 L403,1574 L397,1581 L399,1585 L405,1590 L410,1596 L412,1596 L412,1598 L419,1603 L426,1611 L428,1611 L428,1613 L433,1617 L435,1617 L437,1621 L444,1628 L448,1630 L476,1602 L481,1597 L488,1591 L495,1583 L499,1580 L499,1578 L501,1578 L504,1575 L504,1573 L508,1571 L508,1569 L510,1569 L510,1567 L514,1565 L516,1562 L514,1562 L512,1558 L497,1545 L496,1543 L494,1543 L494,1541 L485,1534 L480,1528 L478,1528 L478,1526 L470,1520 L465,1515 Z " fill="#101010" transform="translate(757,193)"/>
</svg>
