<?xml version="1.0" encoding="UTF-8"?>
<!-- Generator: visioncortex VTracer 0.6.12 -->
<svg version="1.1" xmlns="http://www.w3.org/2000/svg" width="2048" height="2048">
<path d="M0,0 L46,0 L278,8 L392,12 L404,15 L414,18 L422,23 L437,27 L465,41 L477,48 L489,54 L513,68 L530,78 L551,91 L574,106 L596,121 L610,131 L621,139 L632,148 L646,160 L661,175 L670,186 L678,197 L686,210 L694,226 L702,246 L708,269 L711,291 L711,323 L708,345 L703,365 L696,385 L688,401 L679,417 L668,433 L664,438 L666,442 L675,449 L686,458 L703,474 L712,483 L721,494 L728,502 L736,512 L740,518 L747,528 L754,539 L764,558 L769,569 L779,593 L784,610 L790,632 L796,669 L800,713 L801,745 L801,767 L800,793 L799,803 L799,812 L807,821 L816,833 L822,842 L831,856 L841,877 L850,905 L853,918 L857,952 L858,986 L860,995 L860,1022 L857,1051 L854,1070 L851,1092 L843,1135 L838,1160 L833,1181 L829,1201 L822,1230 L818,1250 L812,1276 L804,1315 L801,1330 L795,1379 L793,1409 L790,1471 L787,1494 L783,1512 L777,1532 L765,1558 L759,1566 L755,1572 L748,1579 L744,1584 L736,1591 L721,1601 L714,1605 L703,1609 L688,1614 L678,1616 L663,1617 L649,1617 L629,1616 L591,1616 L542,1611 L538,1610 L538,1632 L536,1651 L531,1663 L524,1674 L509,1688 L501,1694 L488,1704 L477,1712 L465,1721 L450,1732 L435,1743 L430,1745 L430,1747 L418,1755 L404,1764 L396,1768 L394,1768 L394,1770 L381,1778 L373,1782 L364,1784 L356,1785 L199,1786 L112,1786 L95,1783 L90,1781 L82,1779 L68,1772 L60,1765 L53,1761 L46,1755 L46,1753 L42,1751 L36,1743 L29,1735 L24,1727 L20,1732 L13,1741 L7,1748 L3,1753 L1,1753 L1,1755 L-10,1764 L-13,1764 L-13,1766 L-24,1774 L-31,1777 L-37,1780 L-45,1782 L-57,1785 L-65,1786 L-154,1786 L-311,1785 L-322,1783 L-332,1779 L-344,1772 L-347,1770 L-347,1768 L-352,1766 L-362,1761 L-377,1751 L-388,1743 L-404,1731 L-414,1724 L-414,1722 L-420,1720 L-430,1712 L-446,1700 L-455,1693 L-465,1685 L-477,1674 L-482,1667 L-488,1654 L-490,1643 L-491,1632 L-491,1610 L-504,1612 L-544,1616 L-583,1616 L-604,1617 L-616,1617 L-637,1615 L-654,1610 L-663,1606 L-670,1603 L-680,1597 L-690,1590 L-700,1581 L-707,1573 L-715,1562 L-721,1552 L-731,1529 L-738,1504 L-742,1480 L-745,1431 L-748,1378 L-753,1335 L-762,1291 L-769,1258 L-774,1235 L-784,1192 L-787,1177 L-794,1146 L-799,1118 L-805,1086 L-808,1064 L-812,1034 L-813,1022 L-813,996 L-811,986 L-810,953 L-807,927 L-804,909 L-798,889 L-791,870 L-780,849 L-774,841 L-771,836 L-758,819 L-752,812 L-753,784 L-754,767 L-754,745 L-751,688 L-747,655 L-741,624 L-735,604 L-728,583 L-722,570 L-718,560 L-710,544 L-695,520 L-690,514 L-684,506 L-675,495 L-666,485 L-659,477 L-649,467 L-647,467 L-647,465 L-639,458 L-636,457 L-636,455 L-626,447 L-618,441 L-619,437 L-629,423 L-637,410 L-646,394 L-654,374 L-660,354 L-663,339 L-665,323 L-665,291 L-661,264 L-654,240 L-647,223 L-638,206 L-625,187 L-616,177 L-609,169 L-596,156 L-585,147 L-574,138 L-560,128 L-540,114 L-525,104 L-500,88 L-487,80 L-467,68 L-446,56 L-434,49 L-420,42 L-401,32 L-388,26 L-376,23 L-368,18 L-355,14 L-346,12 L-117,4 Z M22,129 L-31,131 L-261,139 L-276,140 L-270,149 L-261,160 L-249,174 L-242,181 L-241,183 L-239,183 L-238,186 L-236,186 L-236,188 L-234,188 L-234,190 L-232,190 L-232,192 L-224,199 L-210,212 L-199,221 L-184,233 L-169,244 L-154,254 L-132,267 L-116,276 L-90,288 L-67,297 L-39,305 L-16,310 L11,314 L35,314 L62,310 L85,305 L113,297 L143,285 L162,276 L185,263 L205,251 L222,239 L240,225 L253,214 L267,202 L276,193 L278,192 L278,190 L280,190 L280,188 L282,188 L282,186 L285,185 L285,183 L287,183 L294,175 L305,163 L316,149 L322,140 L279,138 L44,130 Z M-405,182 L-431,198 L-454,213 L-478,229 L-497,243 L-508,252 L-514,257 L-523,268 L-529,278 L-533,288 L-536,307 L-533,326 L-529,337 L-519,354 L-508,369 L-503,368 L-488,360 L-477,355 L-477,331 L-475,325 L-473,315 L-471,315 L-468,306 L-466,306 L-463,301 L-455,294 L-452,291 L-442,285 L-432,281 L-419,279 L-408,279 L-395,281 L-381,287 L-375,291 L-373,291 L-372,294 L-364,300 L-353,309 L-344,316 L-342,316 L-342,318 L-330,327 L-317,337 L-304,347 L-285,361 L-272,371 L-264,377 L-248,389 L-235,399 L-222,409 L-212,417 L-199,427 L-189,435 L-181,442 L-173,451 L-167,463 L-164,475 L-163,476 L-163,499 L-167,513 L-172,522 L-179,531 L-181,535 L-185,537 L-195,544 L-205,548 L-215,551 L-238,551 L-251,547 L-263,541 L-274,532 L-288,521 L-301,511 L-318,498 L-331,488 L-352,472 L-371,458 L-388,445 L-393,446 L-428,463 L-444,471 L-477,488 L-487,494 L-498,501 L-505,506 L-510,509 L-525,519 L-535,527 L-543,533 L-548,537 L-556,544 L-566,553 L-574,561 L-581,569 L-585,574 L-592,582 L-605,601 L-615,622 L-626,656 L-631,689 L-632,700 L-632,745 L-629,781 L-628,785 L-561,789 L-545,791 L-534,794 L-523,800 L-516,806 L-514,806 L-512,810 L-501,829 L-499,843 L-499,856 L-501,868 L-509,883 L-511,887 L-513,887 L-517,892 L-526,898 L-536,904 L-548,907 L-576,907 L-671,902 L-674,906 L-674,908 L-676,908 L-682,920 L-688,938 L-690,953 L-691,972 L-691,991 L-689,1020 L-681,1067 L-678,1085 L-669,1125 L-665,1145 L-660,1165 L-659,1166 L-553,1173 L-540,1177 L-535,1180 L-532,1180 L-532,1182 L-526,1184 L-525,1187 L-521,1190 L-519,1194 L-517,1194 L-515,1198 L-511,1204 L-508,1214 L-506,1220 L-505,1227 L-505,1236 L-508,1250 L-512,1260 L-518,1268 L-522,1274 L-531,1280 L-535,1283 L-544,1287 L-561,1290 L-574,1291 L-639,1293 L-630,1355 L-628,1376 L-627,1393 L-626,1431 L-624,1459 L-621,1479 L-616,1495 L-612,1500 L-607,1501 L-563,1501 L-502,1499 L-496,1496 L-493,1489 L-493,1447 L-498,1110 L-499,972 L-497,958 L-495,950 L-491,925 L-484,896 L-476,875 L-471,865 L-461,846 L-452,834 L-438,819 L-431,814 L-418,808 L-406,805 L-392,805 L-377,809 L-364,816 L-361,819 L-359,819 L-358,822 L-356,822 L-356,824 L-351,829 L-343,845 L-341,855 L-341,874 L-344,886 L-353,902 L-362,911 L-369,926 L-372,935 L-375,951 L-374,970 L-318,971 L-261,973 L-213,976 L-204,978 L-186,985 L-184,985 L-184,987 L-180,990 L-178,990 L-178,992 L-173,996 L-171,1000 L-169,1000 L-168,1004 L-166,1004 L-164,1010 L-160,1023 L-159,1037 L-161,1049 L-163,1058 L-166,1065 L-168,1066 L-172,1073 L-174,1077 L-178,1079 L-180,1080 L-180,1082 L-184,1084 L-198,1091 L-211,1094 L-227,1094 L-296,1090 L-319,1089 L-379,1089 L-379,1137 L-377,1261 L-254,1261 L-214,1263 L-199,1266 L-190,1270 L-182,1275 L-175,1281 L-173,1281 L-171,1286 L-167,1291 L-162,1301 L-159,1313 L-159,1331 L-163,1346 L-168,1355 L-168,1357 L-170,1357 L-173,1362 L-178,1366 L-178,1368 L-182,1369 L-185,1372 L-200,1379 L-209,1381 L-230,1381 L-252,1380 L-342,1380 L-375,1381 L-375,1400 L-372,1606 L-362,1614 L-353,1620 L-340,1630 L-323,1642 L-320,1643 L-320,1645 L-311,1651 L-309,1651 L-309,1653 L-297,1660 L-286,1665 L-264,1666 L-158,1667 L-87,1667 L-76,1663 L-65,1657 L-55,1648 L-46,1635 L-39,1617 L-43,1013 L-44,825 L-45,809 L-279,808 L-324,807 L-340,803 L-349,798 L-362,788 L-364,785 L-366,785 L-366,782 L-370,778 L-375,767 L-378,758 L-379,752 L-379,733 L-375,719 L-372,713 L-368,708 L-365,703 L-359,696 L-356,694 L-356,692 L-353,692 L-349,688 L-335,682 L-327,680 L-317,679 L-46,679 L-45,614 L-44,492 L-44,436 L-71,430 L-100,422 L-124,413 L-137,408 L-153,401 L-169,393 L-185,385 L-204,374 L-218,366 L-233,356 L-248,346 L-267,332 L-283,319 L-296,308 L-307,298 L-315,291 L-343,263 L-350,255 L-361,242 L-369,232 L-383,213 L-395,195 L-403,182 Z M449,182 L438,200 L426,217 L414,233 L405,244 L393,258 L381,271 L355,297 L347,304 L333,316 L317,329 L297,344 L276,358 L254,372 L243,378 L229,386 L213,394 L203,399 L180,409 L168,414 L146,422 L117,430 L90,436 L90,508 L91,630 L92,679 L363,679 L377,681 L393,687 L398,690 L399,692 L402,692 L403,695 L408,699 L413,705 L417,712 L419,714 L424,729 L425,735 L425,752 L422,765 L414,781 L412,782 L412,785 L409,786 L404,791 L392,800 L383,804 L370,807 L311,808 L92,809 L91,868 L89,1183 L87,1476 L87,1619 L94,1637 L104,1650 L113,1658 L130,1666 L134,1667 L207,1667 L317,1666 L334,1665 L353,1655 L360,1649 L367,1645 L374,1639 L380,1635 L399,1621 L404,1617 L410,1613 L419,1606 L420,1588 L421,1478 L422,1402 L422,1381 L386,1380 L299,1380 L277,1381 L256,1381 L245,1378 L230,1371 L227,1368 L225,1368 L225,1366 L222,1363 L220,1363 L218,1359 L217,1357 L215,1357 L213,1352 L210,1346 L206,1329 L206,1313 L211,1297 L215,1289 L218,1286 L225,1278 L230,1275 L233,1272 L241,1268 L250,1265 L261,1263 L301,1261 L424,1261 L426,1142 L426,1089 L366,1089 L307,1092 L274,1094 L258,1094 L245,1091 L231,1084 L227,1082 L227,1080 L221,1075 L220,1073 L218,1073 L216,1069 L215,1066 L213,1065 L208,1052 L207,1045 L206,1036 L207,1023 L211,1011 L214,1005 L216,1000 L218,1000 L223,993 L225,992 L225,990 L229,988 L231,987 L231,985 L241,982 L254,977 L272,975 L308,973 L365,971 L421,970 L422,950 L418,932 L412,917 L407,909 L400,901 L394,892 L390,884 L388,874 L388,855 L391,842 L399,828 L403,824 L403,822 L406,821 L406,819 L410,818 L414,814 L426,808 L440,805 L453,805 L465,808 L481,816 L493,827 L502,837 L509,848 L514,856 L517,864 L521,870 L527,885 L534,906 L541,942 L543,956 L546,967 L546,1044 L542,1319 L540,1448 L540,1489 L543,1496 L549,1499 L610,1501 L654,1501 L660,1499 L663,1496 L668,1479 L671,1459 L673,1431 L675,1377 L678,1347 L686,1295 L686,1293 L621,1291 L600,1289 L588,1286 L579,1281 L574,1277 L568,1272 L561,1263 L557,1254 L553,1243 L552,1234 L552,1225 L554,1215 L558,1206 L560,1201 L564,1196 L564,1194 L567,1193 L570,1188 L573,1186 L573,1184 L579,1182 L589,1176 L600,1173 L706,1166 L709,1157 L716,1128 L721,1103 L727,1075 L731,1051 L736,1020 L737,1012 L738,991 L738,964 L737,948 L733,930 L726,913 L723,908 L721,908 L719,903 L715,902 L623,907 L595,907 L583,904 L568,895 L561,889 L560,887 L558,887 L556,883 L549,870 L546,854 L546,840 L550,825 L558,812 L561,808 L561,806 L566,804 L573,798 L583,793 L596,790 L646,787 L675,785 L676,782 L679,745 L679,700 L676,675 L673,656 L668,640 L662,622 L652,601 L643,588 L637,580 L628,569 L613,553 L608,548 L601,542 L597,538 L591,534 L584,528 L579,526 L579,524 L569,517 L559,510 L548,503 L531,492 L512,482 L500,475 L484,467 L457,454 L438,445 L433,446 L412,462 L393,476 L376,489 L363,499 L346,512 L333,522 L317,535 L307,542 L297,547 L284,551 L261,551 L248,547 L236,541 L229,535 L227,535 L225,531 L217,521 L212,510 L209,499 L209,476 L211,469 L215,459 L220,450 L230,439 L241,430 L254,420 L267,410 L277,402 L290,392 L303,382 L312,375 L326,365 L339,355 L355,343 L368,333 L385,320 L388,318 L388,316 L392,314 L400,308 L411,299 L419,293 L419,291 L424,289 L434,284 L445,280 L454,279 L465,279 L482,282 L495,289 L500,292 L505,297 L511,304 L512,306 L514,306 L517,315 L519,315 L522,330 L523,331 L524,355 L545,365 L552,369 L555,368 L568,349 L577,333 L581,316 L582,305 L579,288 L574,276 L567,265 L563,260 L555,253 L547,246 L531,234 L509,219 L482,201 L462,189 L451,182 Z " fill="#101010" transform="translate(1001,123)"/>
</svg>
