<?xml version="1.0" encoding="UTF-8"?>
<svg version="1.1" xmlns="http://www.w3.org/2000/svg" width="2048" height="2048" viewBox="0 0 2048 2048">
<path d="M0 0 C0.97163888 -0.0003989 1.94327777 -0.0007978 2.94436026 -0.00120878 C26.17475569 0.00994338 49.36991237 0.77530006 72.58242321 1.62140179 C78.60383242 1.83903847 84.62557444 2.04709965 90.64727783 2.25640869 C102.10535738 2.65604637 113.56313427 3.06374883 125.02081704 3.47458863 C138.87455062 3.97094801 152.72865118 4.45673525 166.58276367 4.94238281 C181.54970992 5.46714343 196.51655919 5.99424186 211.48303223 6.53234863 C216.47395095 6.71155088 221.46487706 6.89054545 226.45581055 7.06933594 C227.69033683 7.11356973 228.92486311 7.15780352 230.19679928 7.20337772 C247.87684124 7.83536381 265.55789011 8.42810363 283.24012975 8.9943953 C291.86581645 9.2709805 300.49122715 9.5559734 309.11662984 9.84126592 C316.66092042 10.08995286 324.20545493 10.32742154 331.75036621 10.55645657 C336.39400814 10.70012344 341.0372466 10.8545624 345.68044186 11.01194859 C347.82109839 11.08227783 349.96190775 11.14812827 352.10285282 11.20904446 C362.70566209 11.51274048 372.63502136 11.89056967 382.82495117 15.13769531 C384.57374468 15.60061075 386.32360517 16.0595324 388.07495117 16.51269531 C391.30470502 17.48723399 393.75930692 18.63911323 396.51245117 20.57519531 C400.10129667 23.01903954 403.49310571 23.89993023 407.70776367 24.87207031 C415.69399281 26.86055166 422.71553185 30.14505334 430.01245117 33.95019531 C431.17969727 34.54123047 432.34694336 35.13226563 433.54956055 35.74121094 C440.13170006 39.10378583 446.53031944 42.69227424 452.88745117 46.4597168 C455.8271569 48.13895528 458.80573644 49.66174673 461.84448242 51.15332031 C467.90220418 54.12849021 473.70598162 57.45240408 479.51245117 60.88769531 C480.55699463 61.50185303 481.60153809 62.11601074 482.67773438 62.7487793 C484.76936592 63.97895233 486.86012964 65.21060228 488.94995117 66.44384766 C491.43518826 67.90806088 493.92495744 69.36382043 496.41870117 70.81347656 C528.21040115 89.31976136 559.03418682 109.56242526 588.82495117 131.13769531 C589.78401367 131.82089844 590.74307617 132.50410156 591.73120117 133.20800781 C598.32129946 137.92844338 604.61539556 142.92861404 610.82495117 148.13769531 C611.6194165 148.79463379 611.6194165 148.79463379 612.42993164 149.46484375 C625.75044931 160.4868429 638.34180453 172.3397197 648.82495117 186.13769531 C649.4978418 187.01683594 650.17073242 187.89597656 650.86401367 188.80175781 C682.03967775 230.56992551 695.59361728 283.2173309 688.63745117 334.88769531 C685.10788869 358.1107583 678.02896039 380.49023248 666.82495117 401.13769531 C666.47706543 401.79189453 666.12917969 402.44609375 665.77075195 403.12011719 C659.19306719 415.46268356 651.70627725 427.3103444 642.82495117 438.13769531 C644.23967131 441.51689731 645.82302371 443.17245006 648.76245117 445.32519531 C649.57584961 445.93878906 650.38924805 446.55238281 651.22729492 447.18457031 C652.08452148 447.82910156 652.94174805 448.47363281 653.82495117 449.13769531 C663.75639094 456.82860227 672.77353097 465.44635501 681.82495117 474.13769531 C683.19780273 475.44673828 683.19780273 475.44673828 684.59838867 476.78222656 C689.34868888 481.40751887 693.55872413 486.34025862 697.70385742 491.51269531 C699.54821765 493.79521847 701.43804705 496.00766823 703.38745117 498.20019531 C708.97287711 504.52601492 714.24383941 511.04436098 718.82495117 518.13769531 C719.92567937 519.7026195 721.03025878 521.26483789 722.13745117 522.82519531 C727.96135928 531.16621625 733.19745534 539.64331695 737.94995117 548.63769531 C738.56157104 549.79386353 738.56157104 549.79386353 739.18554688 550.97338867 C748.61134073 569.05455326 757.06333231 588.22715296 762.23754883 607.9765625 C762.85766201 610.25804293 763.5444722 612.51183675 764.24291992 614.77050781 C776.80890456 656.36937336 779.33489131 701.91190224 779.82495117 745.13769531 C779.84009766 746.14832031 779.85524414 747.15894531 779.87084961 748.20019531 C780.13655118 767.27886418 779.96766372 786.61984368 777.51049805 805.56176758 C777.0985533 809.11316917 777.23877319 811.28337208 779.29370117 814.27832031 C780.65336311 815.77826483 782.04805833 817.24692611 783.46948242 818.68847656 C789.51169071 824.97117075 794.51368457 832.40024522 799.24682617 839.70800781 C800.41843842 841.51182667 801.62141894 843.29535195 802.84057617 845.06738281 C820.63058957 871.23009825 830.31491666 902.59407786 833.94995117 933.82519531 C834.03621765 934.54593231 834.12248413 935.26666931 834.21136475 936.00924683 C835.74389016 948.9895631 836.36485586 961.91651469 836.49731445 974.98217773 C836.57299427 981.17256571 836.80862837 986.91454695 838.37084961 992.9206543 C839.34522927 997.67782724 839.16119442 1002.55116038 839.13745117 1007.38769531 C839.13398682 1008.55429688 839.13052246 1009.72089844 839.12695312 1010.92285156 C838.90574019 1029.28474734 836.61812892 1047.54551531 833.55541992 1065.63378906 C833.05166929 1068.64130414 832.61953345 1071.64585118 832.25073242 1074.67285156 C829.76439979 1094.9854109 825.68177547 1115.05034623 821.82495117 1135.13769531 C821.62455231 1136.18512909 821.62455231 1136.18512909 821.42010498 1137.25372314 C819.09087976 1149.42707642 816.56859161 1161.51911353 813.62451172 1173.55908203 C812.24692594 1179.22794186 811.04724995 1184.90852399 809.94995117 1190.63769531 C808.3350402 1199.03777552 806.36493942 1207.33137784 804.32495117 1215.63769531 C802.11667535 1224.63353804 800.0481339 1233.61785156 798.30444336 1242.71459961 C797.05480299 1249.16694419 795.58561801 1255.55441084 794.07495117 1261.95019531 C791.38974806 1273.36797905 788.98235091 1284.83347239 786.63745117 1296.32519531 C786.46918823 1297.1496817 786.30092529 1297.97416809 786.12756348 1298.82363892 C785.31731083 1302.79951713 784.51209374 1306.77632872 783.71386719 1310.75463867 C783.17205692 1313.44837949 782.60929533 1316.13380736 782.02783203 1318.81958008 C779.79115976 1329.32414674 778.43544653 1339.89983373 777.14501953 1350.55639648 C776.7692759 1353.6441123 776.37879255 1356.72970708 775.98706055 1359.81542969 C772.49283087 1387.94629771 771.38987388 1416.25639073 770.22314453 1444.5612793 C769.27044315 1467.43874025 767.56530296 1489.91148163 761.82495117 1512.13769531 C761.63626465 1512.89518066 761.44757813 1513.65266602 761.25317383 1514.43310547 C758.47176199 1525.3924604 754.52390693 1535.60547848 749.82495117 1545.88769531 C749.32672852 1546.98275391 748.82850586 1548.0778125 748.31518555 1549.20605469 C745.7054804 1554.7503955 742.96467326 1559.73925333 739.11572266 1564.51928711 C737.63280829 1566.3183253 737.63280829 1566.3183253 735.88745117 1569.20019531 C733.68056551 1572.3433355 731.22979732 1574.82595707 728.47729492 1577.48535156 C726.69077326 1579.20261013 726.69077326 1579.20261013 724.88745117 1581.63769531 C716.08089857 1592.31230453 700.9106143 1602.52457208 687.82495117 1607.07519531 C686.41922852 1607.56439453 686.41922852 1607.56439453 684.98510742 1608.06347656 C683.94225586 1608.41796875 682.8994043 1608.77246094 681.82495117 1609.13769531 C680.60678711 1609.564375 679.38862305 1609.99105469 678.13354492 1610.43066406 C659.58346845 1616.86433906 641.22955465 1617.96701806 621.65698242 1616.77880859 C620.50262695 1616.70895752 620.50262695 1616.70895752 619.32495117 1616.63769531 C618.5025293 1616.58726074 617.68010742 1616.53682617 616.83276367 1616.48486328 C611.15070915 1616.18338737 605.50106484 1616.13866518 599.81323242 1616.24707031 C580.76698853 1616.57401335 562.15516551 1615.71094268 543.19995117 1613.70019531 C542.11058258 1613.58478394 541.02121399 1613.46937256 539.89883423 1613.35046387 C536.79780679 1613.01743063 533.69784622 1612.67642503 530.59838867 1612.32910156 C529.20252281 1612.17275993 529.20252281 1612.17275993 527.77845764 1612.01325989 C526.91901047 1611.9132518 526.05956329 1611.81324371 525.17407227 1611.71020508 C524.05360001 1611.5802993 524.05360001 1611.5802993 522.91049194 1611.44776917 C520.83473145 1611.13914942 518.85056172 1610.68180831 516.82495117 1610.13769531 C516.8354248 1610.70464111 516.84589844 1611.27158691 516.85668945 1611.85571289 C517.44784721 1649.04252905 517.44784721 1649.04252905 509.82495117 1663.13769531 C509.15399414 1664.46414063 509.15399414 1664.46414063 508.46948242 1665.81738281 C501.83548777 1677.58462268 490.55065887 1686.24400254 479.82495117 1694.13769531 C478.742628 1694.96464774 477.66300766 1695.7951548 476.58666992 1696.62988281 C470.64314322 1701.23668242 464.65441964 1705.75288762 458.55541992 1710.15332031 C455.70637928 1712.22386773 452.88844199 1714.33162546 450.07495117 1716.45019531 C444.95337754 1720.30294038 439.80128832 1724.11137618 434.62524414 1727.890625 C431.30721513 1730.31347478 428.00042709 1732.74943087 424.71166992 1735.21191406 C423.70390503 1735.96239014 423.70390503 1735.96239014 422.67578125 1736.72802734 C421.39239728 1737.68426179 420.11209321 1738.64464888 418.83544922 1739.60986328 C415.62069105 1741.9968534 412.63222787 1743.86620857 408.82495117 1745.13769531 C408.82495117 1745.79769531 408.82495117 1746.45769531 408.82495117 1747.13769531 C406.69213867 1748.76660156 406.69213867 1748.76660156 403.69995117 1750.70019531 C402.6094043 1751.40789062 401.51885742 1752.11558594 400.39526367 1752.84472656 C399.81292969 1753.21807129 399.2305957 1753.59141602 398.63061523 1753.97607422 C396.8099902 1755.14732001 395.0002922 1756.33402206 393.19213867 1757.52441406 C376.99773539 1768.13769531 376.99773539 1768.13769531 372.82495117 1768.13769531 C372.82495117 1768.79769531 372.82495117 1769.45769531 372.82495117 1770.13769531 C370.84950959 1771.52893619 368.89865787 1772.78402125 366.82495117 1774.01269531 C366.2284375 1774.37057129 365.63192383 1774.72844727 365.01733398 1775.09716797 C350.50723226 1783.72851575 337.6757329 1785.26885731 320.88525391 1785.34301758 C319.4768611 1785.35260908 318.06847103 1785.36260897 316.66008377 1785.37298203 C312.82972492 1785.3999683 308.99935383 1785.42102046 305.1689527 1785.4409678 C301.09078862 1785.46318879 297.0126604 1785.49079347 292.93452454 1785.5176239 C283.28017907 1785.57992195 273.62579207 1785.633141 263.97138786 1785.68538857 C259.4697314 1785.70999412 254.96808137 1785.73572025 250.46643066 1785.76135254 C231.84536251 1785.86692572 213.22426798 1785.96494389 194.60311723 1786.05476928 C183.78851103 1786.10693812 172.97396339 1786.16428046 162.15942383 1786.22900391 C151.74954872 1786.29103636 141.33973158 1786.33805055 130.92971802 1786.36886597 C127.39650757 1786.37978822 123.86343759 1786.39749701 120.33029175 1786.42141724 C116.28357213 1786.44848242 112.23707536 1786.46103508 108.19026756 1786.46183205 C106.12894387 1786.46558009 104.06766111 1786.48384203 102.00642395 1786.50309753 C90.90351779 1786.47662521 79.14463686 1785.51322845 68.82495117 1781.13769531 C67.69057617 1780.91082031 66.55620117 1780.68394531 65.38745117 1780.45019531 C56.15980308 1778.20894492 47.36539436 1773.21631113 40.55151367 1766.69238281 C38.85854803 1765.16794768 37.26618512 1764.14326495 35.26245117 1763.07519531 C31.38038342 1760.88712076 27.88775325 1758.3959954 24.82495117 1755.13769531 C24.82495117 1754.47769531 24.82495117 1753.81769531 24.82495117 1753.13769531 C24.22295898 1752.88246094 23.6209668 1752.62722656 23.00073242 1752.36425781 C20.57595274 1750.99732636 19.5841646 1749.78647094 18.01245117 1747.51269531 C15.90073691 1744.55842839 13.7052277 1741.82474949 11.26245117 1739.13769531 C7.93755966 1735.41381682 5.31617847 1731.45429192 2.82495117 1727.13769531 C0.32795318 1730.23397283 -2.12157518 1733.36267961 -4.55004883 1736.51269531 C-7.21693608 1739.95052427 -9.96421921 1743.28800622 -12.82739258 1746.56347656 C-14.07829501 1748.02467563 -15.25541179 1749.54816918 -16.42504883 1751.07519531 C-17.29129883 1752.09613281 -17.29129883 1752.09613281 -18.17504883 1753.13769531 C-18.83504883 1753.13769531 -19.49504883 1753.13769531 -20.17504883 1753.13769531 C-20.17504883 1753.79769531 -20.17504883 1754.45769531 -20.17504883 1755.13769531 C-21.88529359 1756.74631263 -23.66943712 1758.27707874 -25.48754883 1759.76269531 C-26.47368164 1760.57996094 -27.45981445 1761.39722656 -28.47583008 1762.23925781 C-31.17504883 1764.13769531 -31.17504883 1764.13769531 -34.17504883 1764.13769531 C-34.17504883 1764.79769531 -34.17504883 1765.45769531 -34.17504883 1766.13769531 C-39.67809845 1770.8247412 -45.41236149 1774.61826278 -52.17504883 1777.13769531 C-53.62911133 1777.91113281 -53.62911133 1777.91113281 -55.11254883 1778.70019531 C-57.99588405 1780.05359756 -60.73940385 1780.89590077 -63.83911133 1781.60253906 C-67.59825999 1782.46374871 -71.31982572 1783.47593164 -75.05004883 1784.45410156 C-83.65322485 1786.33604632 -92.13540215 1786.28382419 -100.90551758 1786.27050781 C-102.45944748 1786.27161801 -104.01337718 1786.27305422 -105.56730652 1786.27478027 C-109.90885534 1786.27775234 -114.25036746 1786.27324343 -118.59191132 1786.26667023 C-121.37192282 1786.26268186 -124.15193233 1786.26016792 -126.9319458 1786.25799561 C-143.01306057 1786.2437834 -159.09403623 1786.19462647 -175.17504883 1786.13769531 C-175.92166747 1786.1350769 -176.66828611 1786.1324585 -177.43752956 1786.12976074 C-199.09589923 1786.05366163 -220.75415815 1785.96226877 -242.41235638 1785.84695244 C-244.20675849 1785.83739948 -246.00116061 1785.82784811 -247.79556274 1785.81829834 C-248.6829627 1785.81356746 -249.57036266 1785.80883659 -250.48465353 1785.80396235 C-256.76013057 1785.77094411 -263.03561841 1785.74270576 -269.31112671 1785.71636963 C-277.06681662 1785.68367479 -284.8224317 1785.6437738 -292.57803839 1785.59510589 C-296.60098951 1785.57002413 -300.6238948 1785.54803726 -304.64690208 1785.53431702 C-308.3819318 1785.52144595 -312.11679598 1785.49935813 -315.8517338 1785.47030425 C-317.84518575 1785.45708239 -319.83869371 1785.45333903 -321.8321867 1785.44999886 C-339.90471599 1785.28288557 -353.1914092 1780.1267884 -368.17504883 1770.13769531 C-368.17504883 1769.47769531 -368.17504883 1768.81769531 -368.17504883 1768.13769531 C-368.90981445 1767.84894531 -369.64458008 1767.56019531 -370.40161133 1767.26269531 C-386.06962414 1760.90721969 -399.63639487 1750.31342255 -413.05786133 1740.21972656 C-413.74307861 1739.70442383 -414.4282959 1739.18912109 -415.13427734 1738.65820312 C-416.52626537 1737.61053622 -417.91739254 1736.56172448 -419.30761719 1735.51171875 C-423.96073672 1732.00885261 -428.69050312 1728.6554377 -433.55004883 1725.44238281 C-434.08629883 1725.01183594 -434.62254883 1724.58128906 -435.17504883 1724.13769531 C-435.17504883 1723.47769531 -435.17504883 1722.81769531 -435.17504883 1722.13769531 C-436.07481445 1721.87730469 -436.97458008 1721.61691406 -437.90161133 1721.34863281 C-441.1327066 1720.15335891 -442.9587768 1718.97977643 -445.55004883 1716.76269531 C-450.01450335 1713.05469904 -454.58341527 1709.53881187 -459.23754883 1706.07519531 C-464.932848 1701.82349628 -470.59605981 1697.54160315 -476.17504883 1693.13769531 C-476.94719727 1692.53957031 -477.7193457 1691.94144531 -478.51489258 1691.32519531 C-494.14145837 1679.08068246 -507.93840907 1666.56266474 -510.87426758 1645.77441406 C-510.97352539 1644.90429688 -511.0727832 1644.03417969 -511.17504883 1643.13769531 C-511.28461914 1642.36039063 -511.39418945 1641.58308594 -511.50708008 1640.78222656 C-512.7154181 1630.64829838 -512.26267544 1620.32530025 -512.17504883 1610.13769531 C-513.26293701 1610.31727783 -513.26293701 1610.31727783 -514.37280273 1610.50048828 C-524.06858001 1612.05115215 -533.78543065 1613.24146244 -543.55004883 1614.26269531 C-544.40877594 1614.35273834 -545.26750305 1614.44278137 -546.1522522 1614.53555298 C-563.41757872 1616.30009138 -580.50415056 1616.41692174 -597.83906555 1616.1807251 C-604.02740908 1616.10812153 -610.18328325 1616.28456166 -616.36254883 1616.63769531 C-617.18392334 1616.68345703 -618.00529785 1616.72921875 -618.8515625 1616.77636719 C-620.32323008 1616.85995454 -621.79483585 1616.94464214 -623.26635742 1617.03076172 C-644.34403004 1618.21162903 -665.0917774 1615.41485072 -684.17504883 1606.13769531 C-685.30942383 1605.68394531 -686.44379883 1605.23019531 -687.61254883 1604.76269531 C-719.9044466 1590.03305773 -739.96626485 1561.47232401 -752.17504883 1529.13769531 C-753.58922687 1525.02360546 -754.85644985 1520.88327612 -756.05004883 1516.70019531 C-756.31164795 1515.79906006 -756.57324707 1514.8979248 -756.84277344 1513.96948242 C-761.55484712 1496.48151399 -763.66985588 1478.46252585 -764.58660889 1460.41827393 C-764.74420996 1457.31921109 -764.91924328 1454.22148029 -765.09741211 1451.12353516 C-765.66726277 1441.10136401 -766.17987984 1431.07643003 -766.68177795 1421.05065918 C-768.81395388 1378.64501127 -772.95487206 1337.72936759 -782.06274414 1296.22509766 C-783.11345134 1291.43704334 -784.13114091 1286.64259114 -785.13598633 1281.84472656 C-786.55377714 1275.08207111 -787.99065598 1268.32379324 -789.44018555 1261.56787109 C-790.08690479 1258.54913176 -790.72777729 1255.52923699 -791.36645508 1252.50878906 C-793.34575596 1243.21329739 -795.44255172 1233.94779942 -797.60083008 1224.69238281 C-797.8205397 1223.7500882 -798.04024933 1222.80779358 -798.26661682 1221.83694458 C-799.37639421 1217.0820894 -800.49026795 1212.3282365 -801.60986328 1207.57568359 C-803.71239935 1198.62385857 -805.71034012 1189.67727484 -807.46850586 1180.65087891 C-808.44043182 1175.81811646 -809.55671979 1171.02297303 -810.67333984 1166.22192383 C-813.82862086 1152.64744976 -816.5608207 1139.05979644 -818.92114258 1125.32128906 C-819.79899346 1120.21926792 -820.73305514 1115.13151549 -821.71020508 1110.04785156 C-824.44928015 1095.78910912 -827.00338459 1081.56423098 -828.79223633 1067.14941406 C-829.24197503 1063.61116365 -829.72298171 1060.07776395 -830.20629883 1056.54394531 C-830.48081253 1054.52901906 -830.75505156 1052.51405558 -831.02923584 1050.49908447 C-831.29103367 1048.57882072 -831.55454395 1046.65879067 -831.81811523 1044.73876953 C-833.42445336 1032.7993371 -834.35545232 1021.0625667 -834.36254883 1009.01269531 C-834.37479492 1007.91054687 -834.38704102 1006.80839844 -834.3996582 1005.67285156 C-834.40843639 1000.73951097 -834.29998868 996.11929656 -833.19067383 991.30175781 C-831.80349622 985.17551849 -831.85232497 979.01548051 -831.76885986 972.76541138 C-831.54288541 957.40950004 -830.32801474 942.3525213 -828.17504883 927.13769531 C-828.06435059 926.30254395 -827.95365234 925.46739258 -827.83959961 924.60693359 C-826.20541189 912.37696478 -823.06000767 900.83632656 -819.17504883 889.13769531 C-818.91739746 888.3475 -818.65974609 887.55730469 -818.39428711 886.74316406 C-815.2046636 877.08419118 -811.30432125 867.97869998 -806.61254883 858.95019531 C-805.94219604 857.65867554 -805.94219604 857.65867554 -805.25830078 856.34106445 C-802.68145565 851.53035759 -799.84539083 847.17874498 -796.49438477 842.87329102 C-795.07046883 841.06673671 -795.07046883 841.06673671 -793.69458008 838.66113281 C-791.37571074 834.81025982 -788.60287725 831.32107864 -785.86254883 827.76269531 C-785.02820313 826.66828125 -785.02820313 826.66828125 -784.17700195 825.55175781 C-783.62334961 824.82988281 -783.06969727 824.10800781 -782.49926758 823.36425781 C-781.67833618 822.28120361 -781.67833618 822.28120361 -780.84082031 821.17626953 C-779.17504883 819.13769531 -779.17504883 819.13769531 -777.41748047 817.50927734 C-774.62510076 814.86722819 -773.30813292 813.12216893 -772.78369141 809.24267578 C-772.77202832 805.7224985 -772.9649802 802.27222075 -773.23754883 798.76269531 C-773.34474243 796.8791333 -773.34474243 796.8791333 -773.45410156 794.95751953 C-773.66459462 791.34820329 -773.91387002 787.74364789 -774.17504883 784.13769531 C-775.64707566 761.78965163 -775.12633285 739.68447676 -773.92504883 717.32519531 C-773.85847076 716.0734552 -773.7918927 714.82171509 -773.72329712 713.53204346 C-771.77448516 677.51189 -768.45084964 640.95931103 -756.97241211 606.53857422 C-756.10838342 603.93696425 -755.27954857 601.32546837 -754.45239258 598.71191406 C-751.60957487 589.83476914 -748.58596689 581.28343134 -744.49926758 572.89550781 C-743.30128883 570.40060221 -742.27769384 567.91232579 -741.30004883 565.32519531 C-736.54817532 553.35963431 -730.28439018 542.42226456 -723.48754883 531.51269531 C-722.8458374 530.48128418 -722.20412598 529.44987305 -721.54296875 528.38720703 C-718.35245719 523.33559826 -715.11882484 518.62400136 -711.17504883 514.13769531 C-710.24607378 512.9178044 -709.32757782 511.68977988 -708.42504883 510.45019531 C-702.45782084 502.43793267 -696.01709282 494.84928501 -689.28833008 487.46972656 C-687.40128346 485.38734795 -685.5644665 483.27266468 -683.73754883 481.13769531 C-679.47186483 476.25118407 -675.01694801 471.45734211 -670.17504883 467.13769531 C-669.51504883 467.13769531 -668.85504883 467.13769531 -668.17504883 467.13769531 C-668.17504883 466.47769531 -668.17504883 465.81769531 -668.17504883 465.13769531 C-666.53051758 463.44628906 -666.53051758 463.44628906 -664.36254883 461.57519531 C-663.65485352 460.95515625 -662.9471582 460.33511719 -662.21801758 459.69628906 C-660.17504883 458.13769531 -660.17504883 458.13769531 -657.17504883 457.13769531 C-657.17504883 456.47769531 -657.17504883 455.81769531 -657.17504883 455.13769531 C-655.26879883 453.40332031 -655.26879883 453.40332031 -652.67504883 451.38769531 C-651.77012695 450.68128906 -650.86520508 449.97488281 -649.93286133 449.24707031 C-646.36547723 446.51847624 -642.7897916 443.80331568 -639.17504883 441.13769531 C-639.74198589 436.92174516 -642.26326758 434.00318538 -644.73754883 430.70019531 C-649.59214947 424.05340687 -653.99373241 417.23202278 -658.17504883 410.13769531 C-658.53453613 409.5429541 -658.89402344 408.94821289 -659.2644043 408.33544922 C-671.99511829 387.23173635 -680.16624194 363.42947215 -684.17504883 339.13769531 C-684.38000977 338.03039062 -684.5849707 336.92308594 -684.79614258 335.78222656 C-692.9737925 284.06564048 -678.14057045 231.13307507 -647.70141602 189.16699219 C-644.47777475 184.88117866 -640.89082157 181.00150681 -637.17504883 177.13769531 C-636.08530586 175.87235396 -635.00183498 174.60158085 -633.92504883 173.32519531 C-625.48587823 163.67484746 -616.2319522 155.07425596 -606.17504883 147.13769531 C-604.40315233 145.65980238 -602.63233487 144.18061488 -600.86254883 142.70019531 C-595.17967972 138.05785153 -589.26068036 133.79821103 -583.25317383 129.59326172 C-580.95254592 127.98184917 -578.65753744 126.36259708 -576.36254883 124.74316406 C-554.15302154 109.09864999 -531.43613771 94.17792141 -508.17504883 80.13769531 C-507.47202637 79.71101563 -506.76900391 79.28433594 -506.04467773 78.84472656 C-494.75698336 71.99659285 -483.37225614 65.34133672 -471.88989258 58.82519531 C-468.1467274 56.69935581 -464.43691987 54.52614913 -460.73754883 52.32519531 C-455.63294354 49.33432799 -450.39026171 46.69831978 -445.08129883 44.09082031 C-441.37718797 42.25797708 -437.72832528 40.32795605 -434.07983398 38.38720703 C-411.86162699 26.57237976 -411.86162699 26.57237976 -399.87036133 23.91113281 C-396.52872806 22.95222935 -394.1933996 21.36132543 -391.36254883 19.40332031 C-381.82693378 13.88628589 -369.08690073 11.9338458 -358.18634033 11.62039185 C-356.89613211 11.57306571 -356.89613211 11.57306571 -355.57985908 11.52478349 C-352.71629931 11.42178197 -349.85248911 11.33076581 -346.98852539 11.23974609 C-344.91872394 11.16777779 -342.8489482 11.09506696 -340.77919674 11.02167511 C-335.14111034 10.82386846 -329.50271925 10.63649194 -323.86421943 10.45089769 C-317.87454443 10.25190854 -311.88520888 10.04316864 -305.89582825 9.83554077 C-294.37688041 9.43772844 -282.85765467 9.04864282 -271.33830112 8.66277635 C-258.13078396 8.2200764 -244.923549 7.76923422 -231.71633303 7.31765127 C-214.7816016 6.73868382 -197.84682018 6.16123852 -180.91184998 5.58929443 C-154.88847883 4.71015049 -128.86569798 3.81924428 -102.84449387 2.87801743 C-98.66082334 2.72675738 -94.47710297 2.57691565 -90.29336548 2.42752075 C-88.98644304 2.38083441 -87.67952061 2.33414806 -86.33299446 2.28604698 C-83.81518767 2.19615269 -81.29737944 2.1062986 -78.77956963 2.01648903 C-73.04629816 1.81155632 -67.31314343 1.60412901 -61.5802002 1.39019775 C-59.96459764 1.33035548 -59.96459764 1.33035548 -58.31635666 1.26930428 C-56.3773589 1.1973199 -54.43839072 1.12452872 -52.49946976 1.05050468 C-35.00209482 0.40286185 -17.50955926 0.00234286 0 0 Z M-20.33631587 129.80758107 C-23.74578339 129.96172373 -27.15558102 130.10422153 -30.56566811 130.24395657 C-34.16731435 130.39163137 -37.76892074 130.53993181 -41.37040031 130.69162256 C-52.80963517 131.17287492 -64.25091712 131.57915808 -75.69360232 131.96846879 C-79.09943084 132.08435068 -82.50521506 132.201463 -85.91098976 132.31891537 C-90.57908519 132.47981025 -95.2471972 132.64020943 -99.91532516 132.80015755 C-107.3672279 133.05558922 -114.81907039 133.3127514 -122.27090454 133.57017517 C-144.08125507 134.32340367 -165.89166609 135.07485379 -187.7021827 135.8232568 C-198.81540587 136.20464027 -209.92856312 136.58791121 -221.04166949 136.97268385 C-228.43444106 137.22855317 -235.82727978 137.48234949 -243.22017741 137.73454869 C-247.805389 137.89148056 -252.39052866 138.05044035 -256.97565079 138.20996284 C-259.08504124 138.28295401 -261.19445998 138.35513352 -263.3039093 138.42640305 C-274.61179961 138.80892499 -285.89186531 139.28288763 -297.17504883 140.13769531 C-292.65251369 147.24014694 -287.60499951 153.7061836 -282.17504883 160.13769531 C-281.69165039 160.71277832 -281.20825195 161.28786133 -280.71020508 161.88037109 C-275.08799049 168.55943328 -269.42179286 175.02976782 -263.17504883 181.13769531 C-262.84504883 181.79769531 -262.51504883 182.45769531 -262.17504883 183.13769531 C-261.51504883 183.13769531 -260.85504883 183.13769531 -260.17504883 183.13769531 C-259.84504883 184.12769531 -259.51504883 185.11769531 -259.17504883 186.13769531 C-258.51504883 186.13769531 -257.85504883 186.13769531 -257.17504883 186.13769531 C-257.17504883 186.79769531 -257.17504883 187.45769531 -257.17504883 188.13769531 C-256.51504883 188.13769531 -255.85504883 188.13769531 -255.17504883 188.13769531 C-255.17504883 188.79769531 -255.17504883 189.45769531 -255.17504883 190.13769531 C-254.51504883 190.13769531 -253.85504883 190.13769531 -253.17504883 190.13769531 C-253.17504883 190.79769531 -253.17504883 191.45769531 -253.17504883 192.13769531 C-251.86270474 193.50427365 -251.86270474 193.50427365 -250.05004883 194.95019531 C-246.66499534 197.82000172 -243.39535302 200.77873647 -240.1640625 203.81835938 C-233.71471796 209.88401205 -227.10882902 215.62622901 -220.17504883 221.13769531 C-219.01148562 222.08071606 -217.84877384 223.02478799 -216.68676758 223.96972656 C-197.39772279 239.60832786 -177.21817832 253.20304822 -155.73608398 265.64941406 C-153.52417494 266.93480944 -151.32269903 268.23571396 -149.12426758 269.54394531 C-81.34959703 309.37954222 -5.54232044 322.9775516 70.42651367 303.46191406 C103.58077824 294.63250871 134.25766473 280.37803594 163.82495117 263.13769531 C165.15888916 262.36522461 165.15888916 262.36522461 166.51977539 261.57714844 C189.30784264 248.3461914 210.28193838 232.73592227 230.21557617 215.52050781 C231.94083916 214.03812165 233.67861178 212.57139236 235.41870117 211.10644531 C241.59211041 205.89208407 247.55324553 200.62415515 253.15307617 194.78222656 C254.82495117 193.13769531 254.82495117 193.13769531 256.82495117 192.13769531 C256.82495117 191.47769531 256.82495117 190.81769531 256.82495117 190.13769531 C257.48495117 190.13769531 258.14495117 190.13769531 258.82495117 190.13769531 C258.82495117 189.47769531 258.82495117 188.81769531 258.82495117 188.13769531 C259.48495117 188.13769531 260.14495117 188.13769531 260.82495117 188.13769531 C260.82495117 187.47769531 260.82495117 186.81769531 260.82495117 186.13769531 C262.30995117 185.64269531 262.30995117 185.64269531 263.82495117 185.13769531 C263.82495117 184.47769531 263.82495117 183.81769531 263.82495117 183.13769531 C264.48495117 183.13769531 265.14495117 183.13769531 265.82495117 183.13769531 C267.25962134 181.75812115 267.25962134 181.75812115 268.76245117 179.88769531 C271.77409846 176.33357739 274.88964542 172.91217756 278.07495117 169.51269531 C282.12343788 165.13934736 285.94916175 160.63128966 289.63745117 155.95019531 C290.06896484 155.40476074 290.50047852 154.85932617 290.94506836 154.29736328 C293.43542107 151.09234614 295.74504371 147.80105112 297.98779297 144.41772461 C298.52115768 143.61417038 299.0545224 142.81061615 299.60404968 141.98271179 C300.20839592 141.06942863 300.20839592 141.06942863 300.82495117 140.13769531 C269.47103034 138.57586027 238.11124579 137.39569999 206.73616958 136.35240626 C200.33374985 136.13883455 193.93144569 135.92185094 187.52912903 135.70521545 C176.81504743 135.34308001 166.10091078 134.98263141 155.38671875 134.6237793 C154.71401167 134.60124769 154.0413046 134.57871609 153.34821246 134.55550171 C152.67465971 134.53294179 152.00110695 134.51038188 151.30714351 134.48713833 C141.71320502 134.16579177 132.11928679 133.84384813 122.52539062 133.52124023 C121.84718264 133.49843512 121.16897466 133.47563001 120.47021493 133.45213383 C109.10305324 133.06986237 97.73592741 132.68653281 86.3688181 132.30270678 C78.8040318 132.04738533 71.23919927 131.79349628 63.67432344 131.54084194 C58.95987036 131.38315779 54.24545336 131.22441347 49.53104401 131.06542778 C47.37137428 130.99282123 45.21168981 130.92065146 43.0519886 130.84898758 C40.06885232 130.74994349 37.0857732 130.64933052 34.10270691 130.54820251 C32.67869761 130.5010031 32.67869761 130.5010031 31.22592044 130.45285016 C26.5953304 130.29343119 21.97045912 130.10003212 17.34459305 129.83583355 C4.72666843 129.1271918 -7.71314646 129.23665712 -20.33631587 129.80758107 Z M-431.24926758 185.11035156 C-432.821521 186.07714844 -432.821521 186.07714844 -434.42553711 187.06347656 C-435.57143669 187.77534765 -436.7171012 188.48759723 -437.86254883 189.20019531 C-439.04467693 189.93196745 -440.22680584 190.66373827 -441.40893555 191.39550781 C-451.80434856 197.84704935 -462.07797984 204.47906776 -472.28344727 211.22705078 C-475.27695826 213.20503264 -478.27674877 215.17326902 -481.27661133 217.14160156 C-497.02963662 227.51670206 -512.57516484 238.19086498 -527.03051758 250.33691406 C-528.7468296 251.77811596 -530.51572344 253.15660802 -532.30004883 254.51269531 C-539.64833726 261.22200214 -545.56511925 269.34206281 -550.17504883 278.13769531 C-550.5540332 278.85699219 -550.93301758 279.57628906 -551.32348633 280.31738281 C-558.91513079 296.81351251 -557.94063115 314.80504869 -552.61254883 331.76269531 C-547.04210746 345.39339655 -538.06685334 357.52425482 -529.17504883 369.13769531 C-524.59734638 368.54590108 -521.01535187 366.6115521 -517.05004883 364.38769531 C-510.87733245 361.00346723 -504.6276153 357.95867036 -498.17504883 355.13769531 C-498.18552246 354.44208496 -498.19599609 353.74647461 -498.20678711 353.02978516 C-498.2485352 349.85745909 -498.27443468 346.685191 -498.30004883 343.51269531 C-498.31680664 342.41828125 -498.33356445 341.32386719 -498.35083008 340.19628906 C-498.3839259 334.7354787 -498.2960069 330.25294713 -496.17504883 325.13769531 C-495.76785274 323.35307048 -495.39032171 321.56128054 -495.05004883 319.76269531 C-494.8824707 318.88871094 -494.71489258 318.01472656 -494.54223633 317.11425781 C-494.42106445 316.46199219 -494.29989258 315.80972656 -494.17504883 315.13769531 C-493.51504883 315.13769531 -492.85504883 315.13769531 -492.17504883 315.13769531 C-491.18504883 312.16769531 -490.19504883 309.19769531 -489.17504883 306.13769531 C-488.51504883 306.13769531 -487.85504883 306.13769531 -487.17504883 306.13769531 C-486.80379883 305.45707031 -486.43254883 304.77644531 -486.05004883 304.07519531 C-483.84076124 300.61397809 -481.24064987 298.40473255 -478.11254883 295.78613281 C-476.1998838 294.21513054 -476.1998838 294.21513054 -474.71020508 292.61035156 C-464.20590707 282.53370946 -448.70885043 279.21453785 -434.67504883 278.88769531 C-421.69641473 279.2257784 -409.78452956 282.05264398 -398.88989258 289.33300781 C-396.44077817 291.32222652 -396.44077817 291.32222652 -394.17504883 291.13769531 C-393.84504883 292.12769531 -393.51504883 293.11769531 -393.17504883 294.13769531 C-391.68868125 295.49829621 -391.68868125 295.49829621 -389.80004883 296.76269531 C-386.34238109 299.25543252 -383.02493622 301.86113568 -379.73754883 304.57519531 C-376.2126447 307.47170428 -372.68524172 310.36271896 -369.11254883 313.20019531 C-368.39969727 313.76867187 -367.6868457 314.33714844 -366.95239258 314.92285156 C-365.25866704 316.32579317 -365.25866704 316.32579317 -363.17504883 316.13769531 C-363.17504883 316.79769531 -363.17504883 317.45769531 -363.17504883 318.13769531 C-361.49984485 319.5382262 -359.75581791 320.85667244 -357.98754883 322.13769531 C-356.87756505 322.95066686 -355.76821099 323.76449874 -354.65942383 324.57910156 C-354.08256836 325.00078613 -353.50571289 325.4224707 -352.91137695 325.85693359 C-350.15574151 327.88956345 -347.44660103 329.98110661 -344.73754883 332.07519531 C-344.19412842 332.49381836 -343.65070801 332.91244141 -343.09082031 333.34375 C-340.43379923 335.39093082 -337.78120213 337.44357112 -335.13208008 339.50097656 C-327.90568513 345.09708216 -320.57781417 350.54081352 -313.20849609 355.94726562 C-307.4555872 360.17474257 -301.76932047 364.47620928 -296.13208008 368.85644531 C-292.50662566 371.65336127 -288.84330331 374.39729087 -285.17504883 377.13769531 C-275.45534762 384.40439354 -265.78006271 391.71996182 -256.17504883 399.13769531 C-255.06084415 399.99235585 -253.94625558 400.84651613 -252.83129883 401.70019531 C-247.09246768 406.09642904 -241.39982294 410.54112395 -235.76879883 415.07519531 C-232.76414757 417.46443607 -229.72272048 419.80384488 -226.67504883 422.13769531 C-190.65799445 449.75374942 -190.65799445 449.75374942 -185.71801758 472.83691406 C-185.39950971 475.08849822 -185.39950971 475.08849822 -184.17504883 476.13769531 C-182.3800455 496.44722947 -185.53960176 513.16682959 -198.62426758 529.09472656 C-200.23623624 531.05836692 -200.23623624 531.05836692 -201.13208008 533.27441406 C-202.46984582 535.66435511 -203.69869183 536.03808553 -206.17504883 537.13769531 C-207.72952955 538.24492193 -209.27026656 539.37158737 -210.80004883 540.51269531 C-215.6931262 543.97085263 -220.49716718 546.27661188 -226.17504883 548.13769531 C-226.88169678 548.38849854 -227.58834473 548.63930176 -228.31640625 548.89770508 C-234.79003983 551.05729334 -240.68506442 551.64697431 -247.48754883 551.57519531 C-249.00312378 551.56383545 -249.00312378 551.56383545 -250.54931641 551.55224609 C-258.4256111 551.37891827 -264.91276872 550.34428667 -272.17504883 547.13769531 C-273.18438477 546.71359375 -274.1937207 546.28949219 -275.23364258 545.85253906 C-281.67482277 542.90682736 -286.90341426 539.21656629 -292.26879883 534.62207031 C-295.4637218 531.89092648 -298.73854909 529.28740375 -302.05004883 526.70019531 C-302.64374268 526.23508545 -303.23743652 525.76997559 -303.84912109 525.29077148 C-313.46848567 517.76580908 -323.18233471 510.36333012 -332.88623047 502.94799805 C-337.07222369 499.7485994 -341.25200633 496.54146511 -345.42504883 493.32519531 C-358.61338315 483.17905781 -371.80841659 473.0459025 -385.26000977 463.24975586 C-389.22448104 460.35338243 -393.12778828 457.40549617 -396.96411133 454.34082031 C-397.73529297 453.73004639 -398.50647461 453.11927246 -399.30102539 452.48999023 C-400.76380139 451.32589874 -402.21692411 450.14953672 -403.65844727 448.95922852 C-404.31103516 448.44191162 -404.96362305 447.92459473 -405.63598633 447.39160156 C-406.2010791 446.93084229 -406.76617188 446.47008301 -407.34838867 445.99536133 C-410.03280808 444.7349543 -411.35360804 445.25435287 -414.17504883 446.13769531 C-416.74398757 447.26468491 -419.24637194 448.42913005 -421.75708008 449.67285156 C-422.85484016 450.2082682 -422.85484016 450.2082682 -423.97477722 450.75450134 C-426.31505694 451.89766336 -428.65128337 453.04885547 -430.98754883 454.20019531 C-432.51529162 454.94745552 -434.0432844 455.69420487 -435.5715332 456.44042969 C-450.43151779 463.70692874 -465.2207927 471.11143637 -479.93188477 478.67480469 C-481.35395018 479.40517853 -482.77681429 480.13399919 -484.20043945 480.86132812 C-492.36094906 485.03068768 -500.40487099 489.26487192 -508.17504883 494.13769531 C-509.21016602 494.77835938 -510.2452832 495.41902344 -511.31176758 496.07910156 C-515.28451929 498.60389782 -519.23343659 501.13079319 -523.05004883 503.88769531 C-525.7104034 505.80315061 -528.36841508 507.45371507 -531.17504883 509.13769531 C-539.0681862 514.16166554 -546.7373344 519.37090735 -553.96411133 525.32519531 C-556.098119 527.07462916 -558.27334085 528.74144403 -560.48754883 530.38769531 C-566.2934413 534.71024599 -571.76100707 539.33781187 -577.17504883 544.13769531 C-577.98586914 544.85441406 -578.79668945 545.57113281 -579.63208008 546.30957031 C-588.47469214 554.18778075 -596.76873797 562.37980674 -604.17504883 571.63769531 C-605.86193757 573.74630624 -607.60395934 575.74196771 -609.40551758 577.75097656 C-636.44178307 608.63258626 -647.75304928 649.16895463 -652.17504883 689.13769531 C-652.28268555 690.00998779 -652.39032227 690.88228027 -652.5012207 691.78100586 C-653.57617406 701.49846986 -653.41537765 711.31128042 -653.42504883 721.07519531 C-653.42705292 722.05648407 -653.42905701 723.03777283 -653.43112183 724.04879761 C-653.4380507 737.98926185 -652.96199821 751.81267556 -651.73754883 765.70019531 C-651.67015503 766.46540497 -651.60276123 767.23061462 -651.5333252 768.01901245 C-650.83133251 776.65441548 -650.83133251 776.65441548 -649.17504883 785.13769531 C-647.96927185 785.20620193 -647.96927185 785.20620193 -646.73913574 785.27609253 C-639.09140409 785.71157 -631.444001 786.15230868 -623.79689789 786.59867668 C-619.86727645 786.82787348 -615.93756598 787.05517103 -612.00756836 787.27783203 C-608.20118734 787.4935644 -604.39515036 787.71467192 -600.58927917 787.9392128 C-599.15124633 788.02316376 -597.71310681 788.10531137 -596.27485657 788.18545151 C-574.35091715 789.41069166 -554.23441002 790.89315978 -537.17504883 806.13769531 C-536.51504883 806.13769531 -535.85504883 806.13769531 -535.17504883 806.13769531 C-534.89725586 806.71406738 -534.61946289 807.29043945 -534.33325195 807.88427734 C-533.20711981 810.07529752 -531.96832312 812.11635192 -530.64379883 814.19238281 C-524.61909827 823.8816128 -520.41127439 831.52095587 -520.17504883 843.13769531 C-520.09577148 844.78511719 -520.09577148 844.78511719 -520.01489258 846.46582031 C-519.62029292 860.94591202 -523.08268814 870.84427012 -530.17504883 883.13769531 C-530.85528552 884.46415687 -531.52997144 885.79378409 -532.17504883 887.13769531 C-532.83504883 887.13769531 -533.49504883 887.13769531 -534.17504883 887.13769531 C-534.69067383 887.83894531 -535.20629883 888.54019531 -535.73754883 889.26269531 C-539.03473924 893.15168913 -542.87709288 895.45739522 -547.17504883 898.13769531 C-547.96266602 898.66878906 -548.7502832 899.19988281 -549.56176758 899.74707031 C-559.28255862 906.0710632 -569.42036795 907.65753799 -580.85864258 907.49707031 C-582.61041054 907.48495514 -582.61041054 907.48495514 -584.39756775 907.47259521 C-607.24588599 907.14569984 -630.09847098 905.39852173 -652.8984375 903.97216797 C-658.27249241 903.63686748 -663.64740532 903.32153623 -669.02340508 903.01909637 C-671.05609444 902.90074121 -673.0883511 902.77469058 -675.12007332 902.6407547 C-677.9320119 902.45585319 -680.74431499 902.29628687 -683.55810547 902.14257812 C-684.80842308 902.05087593 -684.80842308 902.05087593 -686.08399963 901.95732117 C-688.64243778 901.78661221 -688.64243778 901.78661221 -692.17504883 902.13769531 C-694.30952515 903.85499965 -694.30952515 903.85499965 -695.17504883 906.13769531 C-695.17504883 906.79769531 -695.17504883 907.45769531 -695.17504883 908.13769531 C-695.83504883 908.13769531 -696.49504883 908.13769531 -697.17504883 908.13769531 C-708.42845723 928.48960413 -711.4581487 949.15003515 -712.17504883 972.13769531 C-712.19841309 972.87407227 -712.22177734 973.61044922 -712.24584961 974.36914062 C-712.39480807 979.96447087 -712.33040008 985.54304589 -712.17504883 991.13769531 C-712.1513623 992.09643555 -712.12767578 993.05517578 -712.10327148 994.04296875 C-711.41870927 1016.0115083 -707.53048329 1037.40038382 -703.62992859 1058.9831543 C-702.72051443 1064.02083623 -701.85512002 1069.06126869 -701.05078125 1074.116745 C-699.38803934 1084.52162906 -697.11699653 1094.75101715 -694.73754883 1105.01269531 C-693.96442482 1108.36344144 -693.1949151 1111.7149918 -692.42895508 1115.06738281 C-692.14597816 1116.30457314 -692.14597816 1116.30457314 -691.85728455 1117.5667572 C-690.30171492 1124.4343199 -688.91648147 1131.33027426 -687.55780029 1138.23905945 C-686.3580349 1144.31007699 -685.02471485 1150.32975356 -683.48754883 1156.32519531 C-683.27549805 1157.18048828 -683.06344727 1158.03578125 -682.8449707 1158.91699219 C-682.13900975 1162.84300604 -682.13900975 1162.84300604 -680.17504883 1166.13769531 C-678.8282586 1166.30869115 -677.47330281 1166.41605227 -676.11810303 1166.4967804 C-675.24361511 1166.5512735 -674.3691272 1166.6057666 -673.46813965 1166.66191101 C-672.01740051 1166.74527458 -672.01740051 1166.74527458 -670.53735352 1166.83032227 C-669.01763947 1166.92331604 -669.01763947 1166.92331604 -667.46722412 1167.01818848 C-665.25689589 1167.15317346 -663.04644736 1167.28619898 -660.83589935 1167.41753578 C-657.3285455 1167.62707453 -653.82174075 1167.84418014 -650.31500244 1168.06376648 C-640.34035915 1168.68794734 -630.36540679 1169.30614572 -620.38891602 1169.90014648 C-614.29197782 1170.26371107 -608.19617464 1170.64287527 -602.10080719 1171.03185081 C-599.78414334 1171.17673027 -597.46711256 1171.3158684 -595.14974213 1171.44896889 C-567.8514098 1173.02169048 -567.8514098 1173.02169048 -558.53216553 1178.76704407 C-556.19725754 1180.38903769 -556.19725754 1180.38903769 -553.17504883 1180.13769531 C-553.17504883 1180.79769531 -553.17504883 1181.45769531 -553.17504883 1182.13769531 C-552.20567383 1182.40582031 -551.23629883 1182.67394531 -550.23754883 1182.95019531 C-548.72161133 1183.53800781 -548.72161133 1183.53800781 -547.17504883 1184.13769531 C-546.84504883 1185.12769531 -546.51504883 1186.11769531 -546.17504883 1187.13769531 C-545.21598633 1187.84925781 -545.21598633 1187.84925781 -544.23754883 1188.57519531 C-542.00841066 1190.26393635 -541.23053073 1191.58694739 -540.17504883 1194.13769531 C-539.51504883 1194.13769531 -538.85504883 1194.13769531 -538.17504883 1194.13769531 C-537.92754883 1194.67394531 -537.68004883 1195.21019531 -537.42504883 1195.76269531 C-536.18742822 1198.25898918 -536.18742822 1198.25898918 -534.23754883 1200.76269531 C-531.61828243 1205.0487676 -530.49734817 1209.32861855 -529.17504883 1214.13769531 C-528.80379883 1215.18957031 -528.43254883 1216.24144531 -528.05004883 1217.32519531 C-523.72303208 1231.23346343 -526.5299616 1247.38090578 -533.17504883 1260.13769531 C-534.60939998 1262.2950213 -536.11988085 1264.31952247 -537.74926758 1266.33300781 C-539.35598031 1268.27855312 -539.35598031 1268.27855312 -540.98754883 1271.26269531 C-543.57514186 1274.66353187 -546.35638362 1276.50554553 -549.95629883 1278.74316406 C-552.18948081 1280.10228917 -552.18948081 1280.10228917 -554.22583008 1281.68847656 C-560.00677592 1285.98653449 -566.44752805 1287.58141376 -573.42504883 1288.82519531 C-574.09109131 1288.94443359 -574.75713379 1289.06367187 -575.44335938 1289.18652344 C-587.07402897 1291.09441092 -598.90535297 1291.33850381 -610.66333008 1291.67285156 C-612.10207401 1291.715998 -613.54080986 1291.75941439 -614.97953796 1291.80308533 C-618.71935596 1291.9158938 -622.4592703 1292.02509851 -626.19921875 1292.13348389 C-630.03432767 1292.24528838 -633.8693312 1292.36059627 -637.7043457 1292.47558594 C-645.19448271 1292.69966638 -652.68472529 1292.91992962 -660.17504883 1293.13769531 C-660.06673737 1293.86780319 -659.9584259 1294.59791107 -659.84683228 1295.35014343 C-658.81192343 1302.33298376 -657.78234548 1309.3165864 -656.75831032 1316.30102825 C-656.2320485 1319.88917485 -655.70394174 1323.4770268 -655.17114258 1327.06420898 C-652.74892524 1343.38296404 -650.39029785 1359.67516333 -649.17504883 1376.13769531 C-649.12043488 1376.87227966 -649.06582092 1377.60686401 -649.009552 1378.3637085 C-648.27659923 1388.58903565 -647.99122737 1398.81334177 -647.78717041 1409.06085205 C-649.71700155 1457.47164177 -649.71700155 1457.47164177 -633.17504883 1500.13769531 C-628.92050317 1501.37647743 -624.60215497 1501.29851429 -620.20629883 1501.30566406 C-618.99957016 1501.31194824 -618.99957016 1501.31194824 -617.76846313 1501.31835938 C-615.07061094 1501.3282961 -612.37291672 1501.32810801 -609.67504883 1501.32519531 C-608.27558014 1501.32478745 -608.27558014 1501.32478745 -606.84783936 1501.32437134 C-589.01158159 1501.30093958 -571.18577912 1500.91017691 -553.35836792 1500.38409805 C-551.30279826 1500.32527399 -549.24715201 1500.27160708 -547.19140625 1500.21932983 C-543.31295637 1500.1196608 -539.4355098 1499.99539707 -535.55786133 1499.86816406 C-534.39404938 1499.83988525 -533.23023743 1499.81160645 -532.03115845 1499.7824707 C-524.10115188 1499.61613182 -524.10115188 1499.61613182 -517.17504883 1496.13769531 C-514.60419676 1491.15179128 -513.8043249 1487.51774797 -513.84486389 1481.83190918 C-513.84615181 1481.11124677 -513.84743973 1480.39058435 -513.84876668 1479.64808369 C-513.85773717 1477.18529496 -513.88947737 1474.72333408 -513.92138672 1472.26074219 C-513.93428527 1470.42442217 -513.94616868 1468.5880948 -513.9571619 1466.75176239 C-514.00408346 1460.21338486 -514.0893925 1453.67566111 -514.17504883 1447.13769531 C-514.2067568 1444.57858385 -514.2383737 1442.01947126 -514.26990891 1439.46035767 C-514.50969229 1420.28898004 -514.80694903 1401.11855452 -515.11100101 1381.94810686 C-515.25105581 1373.10226269 -515.38624953 1364.25634573 -515.52105416 1355.41042024 C-515.76410318 1339.46287208 -516.00916626 1323.51535573 -516.25634766 1307.56787109 C-516.2783838 1306.14604018 -516.2783838 1306.14604018 -516.30086512 1304.69548541 C-516.49156088 1292.39577342 -516.68347428 1280.09608081 -516.87611353 1267.79639912 C-518.07610247 1191.17225783 -519.26933504 1114.54804425 -519.90234866 1037.91671953 C-519.94602192 1032.67046594 -519.99467486 1027.42427434 -520.04546928 1022.17808533 C-520.11230274 1015.24641871 -520.16726519 1008.31474408 -520.21378207 1001.38291168 C-520.23206925 998.87714605 -520.25376749 996.37140245 -520.27925992 993.86569977 C-520.42928417 978.75761112 -519.94225221 964.8312894 -516.17504883 950.13769531 C-515.7186281 947.43689604 -515.32530659 944.73047492 -514.93383789 942.01953125 C-511.02802265 915.15743647 -504.57893665 889.36217872 -492.17504883 865.13769531 C-491.78236816 864.35338135 -491.3896875 863.56906738 -490.98510742 862.76098633 C-484.1363318 849.09060142 -476.41044272 837.49099965 -466.05004883 826.20019531 C-465.47609375 825.57274414 -464.90213867 824.94529297 -464.31079102 824.29882812 C-452.86474673 812.13208271 -437.05069933 805.28146797 -420.36254883 804.70019531 C-406.97291592 805.05410631 -391.81001037 809.3540461 -382.17504883 819.13769531 C-381.51504883 819.13769531 -380.85504883 819.13769531 -380.17504883 819.13769531 C-379.84504883 820.12769531 -379.51504883 821.11769531 -379.17504883 822.13769531 C-378.51504883 822.13769531 -377.85504883 822.13769531 -377.17504883 822.13769531 C-377.17504883 822.79769531 -377.17504883 823.45769531 -377.17504883 824.13769531 C-376.43641602 824.84539063 -375.6977832 825.55308594 -374.93676758 826.28222656 C-371.76630788 829.56031149 -369.96103048 832.757769 -367.98754883 836.82519531 C-367.63950195 837.54215576 -367.29145508 838.25911621 -366.93286133 838.99780273 C-360.75732383 852.10159531 -359.76424534 869.13274422 -363.94458008 883.10644531 C-367.47692878 891.80835831 -371.78090568 900.33008253 -378.80004883 906.70019531 C-384.69763096 912.07194408 -387.2544841 918.86820222 -390.17504883 926.13769531 C-390.5024707 926.93046875 -390.82989258 927.72324219 -391.16723633 928.54003906 C-391.98017147 930.72323086 -392.60228087 932.87884167 -393.17504883 935.13769531 C-393.46379883 936.27078125 -393.75254883 937.40386719 -394.05004883 938.57128906 C-395.83403613 946.29394191 -396.30262541 953.29950943 -395.75317383 961.17675781 C-395.69983887 962.04405518 -395.64650391 962.91135254 -395.59155273 963.80493164 C-395.46058914 965.91635581 -395.31894608 968.02711315 -395.17504883 970.13769531 C-394.60005142 970.14578217 -394.02505402 970.15386902 -393.43263245 970.16220093 C-347.31659798 970.81969128 -301.21837421 971.84419351 -255.17504883 974.63769531 C-254.1613623 974.69745544 -253.14767578 974.75721558 -252.10327148 974.81878662 C-249.25157867 974.98943126 -246.40079987 975.1707955 -243.55004883 975.35644531 C-242.72770752 975.40539948 -241.90536621 975.45435364 -241.05810547 975.50479126 C-233.95621388 975.99297742 -227.05081378 977.16694737 -220.42895508 979.86425781 C-219.65487305 980.17363281 -218.88079102 980.48300781 -218.08325195 980.80175781 C-216.92212891 981.27742188 -216.92212891 981.27742188 -215.73754883 981.76269531 C-214.15671491 982.40367705 -212.57473613 983.04184477 -210.99145508 983.67675781 C-209.96193726 984.09755615 -209.96193726 984.09755615 -208.91162109 984.52685547 C-207.16741332 985.24830231 -207.16741332 985.24830231 -205.17504883 985.13769531 C-205.17504883 985.79769531 -205.17504883 986.45769531 -205.17504883 987.13769531 C-202.53820136 989.53589836 -202.53820136 989.53589836 -199.17504883 990.13769531 C-199.17504883 990.79769531 -199.17504883 991.45769531 -199.17504883 992.13769531 C-198.39129883 992.75644531 -197.60754883 993.37519531 -196.80004883 994.01269531 C-194.31275727 996.02621705 -193.31966617 997.2241239 -192.17504883 1000.13769531 C-191.51504883 1000.13769531 -190.85504883 1000.13769531 -190.17504883 1000.13769531 C-189.84504883 1001.45769531 -189.51504883 1002.77769531 -189.17504883 1004.13769531 C-188.51504883 1004.13769531 -187.85504883 1004.13769531 -187.17504883 1004.13769531 C-186.88758789 1005.00394531 -186.60012695 1005.87019531 -186.30395508 1006.76269531 C-185.59834715 1008.87219446 -184.87918962 1010.9772656 -184.13989258 1013.07519531 C-180.01461707 1025.37259455 -179.40921988 1036.49390584 -182.17504883 1049.13769531 C-182.33231445 1049.96269531 -182.48958008 1050.78769531 -182.65161133 1051.63769531 C-183.61307814 1056.46132544 -184.97171752 1060.7310327 -187.17504883 1065.13769531 C-187.83504883 1065.46769531 -188.49504883 1065.79769531 -189.17504883 1066.13769531 C-191.02334161 1069.19893024 -192.75671883 1072.17030719 -194.17504883 1075.45019531 C-195.48130314 1077.65449946 -196.83555778 1078.18727707 -199.17504883 1079.13769531 C-199.83504883 1079.46769531 -200.49504883 1079.79769531 -201.17504883 1080.13769531 C-201.17504883 1080.79769531 -201.17504883 1081.45769531 -201.17504883 1082.13769531 C-201.70227539 1082.39679687 -202.22950195 1082.65589844 -202.77270508 1082.92285156 C-204.58663098 1083.84013767 -206.38338634 1084.7914894 -208.17114258 1085.75878906 C-226.44733083 1095.40513133 -243.87145776 1094.55339831 -264.02270508 1093.29785156 C-265.49170705 1093.21009999 -266.96073763 1093.12282638 -268.42979431 1093.03599548 C-272.25972174 1092.80860949 -276.08930834 1092.57595539 -279.91882324 1092.34173584 C-292.33618188 1091.58375072 -304.75471963 1090.84536213 -317.17504883 1090.13769531 C-318.24947235 1090.07621307 -319.32389587 1090.01473083 -320.43087769 1089.9513855 C-336.80836978 1089.04253297 -353.17006662 1089.0141185 -369.5680542 1089.06903076 C-373.03535322 1089.07948535 -376.50266028 1089.08387444 -379.9699707 1089.08886719 C-386.70501544 1089.09941251 -393.44002984 1089.11634841 -400.17504883 1089.13769531 C-400.30016921 1115.74598818 -400.16862343 1142.34513494 -399.73754883 1168.95019531 C-399.72111706 1169.96433125 -399.72111706 1169.96433125 -399.70435333 1170.99895477 C-399.56963124 1179.27351352 -399.42822812 1187.54795239 -399.28428459 1195.82235527 C-399.16007766 1202.9719066 -399.04068395 1210.12153638 -398.92153358 1217.27117348 C-398.67775053 1231.89343444 -398.42843234 1246.51559746 -398.17504883 1261.13769531 C-397.57801147 1261.13585173 -396.98097412 1261.13400814 -396.36584473 1261.13210869 C-381.62254816 1261.08732081 -366.87925841 1261.05455037 -352.13591003 1261.03407097 C-345.00521338 1261.02389607 -337.8745635 1261.0100475 -330.74389648 1260.98681641 C-275.99808847 1260.81249807 -275.99808847 1260.81249807 -252.11254883 1261.95800781 C-250.93567001 1262.01019785 -250.93567001 1262.01019785 -249.73501587 1262.06344223 C-230.10313983 1262.97260914 -212.47552356 1266.28586167 -197.62036133 1280.00097656 C-196.21950191 1281.3437609 -196.21950191 1281.3437609 -194.17504883 1281.13769531 C-193.92754883 1281.85957031 -193.68004883 1282.58144531 -193.42504883 1283.32519531 C-192.3100323 1286.17536783 -192.3100323 1286.17536783 -190.36254883 1288.32519531 C-180.75145123 1300.6823208 -178.71384765 1315.94384774 -180.17504883 1331.13769531 C-181.40071602 1339.15422124 -183.87093711 1346.62065118 -188.22192383 1353.50097656 C-189.34279207 1355.11007692 -189.34279207 1355.11007692 -189.17504883 1357.13769531 C-189.83504883 1357.13769531 -190.49504883 1357.13769531 -191.17504883 1357.13769531 C-191.60817383 1357.88019531 -192.04129883 1358.62269531 -192.48754883 1359.38769531 C-194.34111704 1362.40832499 -196.41117978 1363.97141957 -199.17504883 1366.13769531 C-199.17504883 1366.79769531 -199.17504883 1367.45769531 -199.17504883 1368.13769531 C-199.77317383 1368.24082031 -200.37129883 1368.34394531 -200.98754883 1368.45019531 C-203.20178517 1368.94283636 -203.20178517 1368.94283636 -204.36645508 1370.45800781 C-206.989586 1372.89417692 -210.08350326 1374.21637221 -213.30004883 1375.70019531 C-213.9265332 1376.00376953 -214.55301758 1376.30734375 -215.19848633 1376.62011719 C-223.28178009 1380.390678 -231.00413155 1381.45637998 -239.86254883 1381.32519531 C-240.63920898 1381.32455078 -241.41586914 1381.32390625 -242.21606445 1381.32324219 C-247.65556908 1381.28549697 -253.07832399 1381.05002923 -258.50978565 1380.77396202 C-270.2975144 1380.18571387 -282.05024827 1379.98960847 -293.85083008 1380.00488281 C-295.7581534 1380.00420495 -297.66547664 1380.00323099 -299.57279968 1380.00198364 C-303.53991532 1380.00052532 -307.50700815 1380.0025975 -311.47412109 1380.00732422 C-316.45086056 1380.01297811 -321.42754599 1380.00967169 -326.40428352 1380.00387192 C-349.68093737 1379.98104505 -372.91457628 1380.24372363 -396.17504883 1381.13769531 C-396.19102016 1394.45161152 -396.14803441 1407.76427356 -396.05834961 1421.07788086 C-396.04866181 1422.55358016 -396.04866181 1422.55358016 -396.03877831 1424.05909157 C-395.91089261 1443.32680931 -395.72652803 1462.59386803 -395.51971626 1481.86088848 C-395.38959535 1494.09560389 -395.2783939 1506.32994916 -395.21118164 1518.56518555 C-395.1522285 1529.28965175 -395.05858378 1540.01315313 -394.92303264 1550.73693496 C-394.85264687 1556.39889695 -394.79943612 1562.05982141 -394.78793716 1567.72223473 C-394.77658971 1573.03651215 -394.7187493 1578.34826181 -394.62532997 1583.66171074 C-394.59926289 1585.60779318 -394.59008085 1587.55418793 -394.59922981 1589.50042343 C-394.95764938 1599.85209964 -394.95764938 1599.85209964 -391.00728989 1609.01368141 C-388.48040855 1611.07658428 -386.05648111 1612.6236805 -383.17504883 1614.13769531 C-381.7294876 1615.0838252 -380.29046957 1616.0401464 -378.86254883 1617.01269531 C-377.75459961 1617.73199219 -377.75459961 1617.73199219 -376.62426758 1618.46582031 C-373.71309761 1620.45303044 -370.95417275 1622.59463342 -368.17504883 1624.76269531 C-362.89476249 1628.87808372 -357.51026392 1632.82673916 -352.05004883 1636.70019531 C-350.94790039 1637.48740967 -350.94790039 1637.48740967 -349.82348633 1638.29052734 C-349.13254883 1638.77763184 -348.44161133 1639.26473633 -347.72973633 1639.76660156 C-347.11598145 1640.20045166 -346.50222656 1640.63430176 -345.86987305 1641.08129883 C-344.04354357 1642.31122834 -344.04354357 1642.31122834 -341.17504883 1643.13769531 C-341.17504883 1643.79769531 -341.17504883 1644.45769531 -341.17504883 1645.13769531 C-339.22890356 1646.73118393 -339.22890356 1646.73118393 -336.80004883 1648.26269531 C-335.98793945 1648.80152344 -335.17583008 1649.34035156 -334.33911133 1649.89550781 C-332.30182857 1651.30363662 -332.30182857 1651.30363662 -330.17504883 1651.13769531 C-330.17504883 1651.79769531 -330.17504883 1652.45769531 -330.17504883 1653.13769531 C-326.36016415 1655.78081786 -322.2423103 1657.91004327 -318.17504883 1660.13769531 C-316.95108398 1660.89759766 -316.95108398 1660.89759766 -315.70239258 1661.67285156 C-309.63468914 1665.05695283 -304.01232436 1665.53722179 -297.21972656 1665.75073242 C-295.77001418 1665.8058507 -295.77001418 1665.8058507 -294.29101467 1665.86208248 C-283.64179518 1666.24130141 -272.99008129 1666.36464308 -262.33520508 1666.45410156 C-260.18184135 1666.47504302 -258.02848039 1666.49627068 -255.87512207 1666.51776123 C-248.99598028 1666.58475939 -242.1167786 1666.64306235 -235.23754883 1666.70019531 C-232.86986282 1666.72023895 -230.50217687 1666.74028903 -228.13449097 1666.76034546 C-215.12034442 1666.86954118 -202.10614605 1666.96915749 -189.09187984 1667.06291485 C-181.88123436 1667.11557335 -174.67071972 1667.17697344 -167.46020508 1667.24511719 C-159.82753915 1667.31705087 -152.19495356 1667.37553491 -144.56203365 1667.41251278 C-140.80690491 1667.43086424 -137.05210006 1667.45533234 -133.29714966 1667.49685669 C-129.2159865 1667.54157451 -125.13535248 1667.55424029 -121.05395508 1667.56347656 C-119.89424194 1667.58093933 -118.73452881 1667.5984021 -117.53967285 1667.61639404 C-102.77289712 1667.57710463 -89.19485696 1660.84567787 -78.58520508 1650.72363281 C-62.76695409 1633.75170063 -59.10609216 1615.81744895 -59.47839355 1593.30801392 C-59.49117335 1590.93510014 -59.50081798 1588.56216779 -59.50762892 1586.18922937 C-59.53232459 1580.38314175 -59.58981319 1574.57804465 -59.66155354 1568.77236328 C-59.74578694 1561.80034428 -59.78802032 1554.82822229 -59.82900872 1547.85583729 C-59.90606361 1534.94441886 -60.01620398 1522.03348199 -60.14515686 1509.12248611 C-60.27383081 1496.22589477 -60.38703966 1483.32930991 -60.48069763 1470.43241501 C-60.48657907 1469.62358232 -60.49246051 1468.81474963 -60.49852018 1467.98140685 C-60.52834779 1463.86840915 -60.55790511 1459.75540955 -60.58735651 1455.64240913 C-60.79688971 1426.44477694 -61.03915894 1397.24749889 -61.30102539 1368.05029297 C-61.55105019 1340.16303125 -61.78852423 1312.27571839 -62.00610352 1284.38818359 C-62.0127211 1283.54066256 -62.01933868 1282.69314152 -62.0261568 1281.81993802 C-62.10602337 1271.5877529 -62.1853191 1261.3555634 -62.26439651 1251.12337215 C-62.38198394 1235.91263116 -62.50075059 1220.70189935 -62.61992885 1205.49117075 C-62.63306728 1203.81411291 -62.64619938 1202.13705501 -62.65932511 1200.45999707 C-62.85396073 1175.593303 -63.05670479 1150.72668626 -63.26602511 1125.86011162 C-63.75300528 1067.97994952 -64.22979247 1010.10029153 -64.52270508 952.21875 C-64.53148644 950.49451314 -64.53148644 950.49451314 -64.54044521 948.7354432 C-64.64692188 927.78982508 -64.74663673 906.84418455 -64.82627368 885.89844587 C-64.85374095 878.68078203 -64.88376432 871.46313197 -64.91565967 864.24548635 C-64.93325007 860.208812 -64.94909192 856.17214963 -64.9601841 852.13545179 C-64.95554698 830.61507677 -64.95554698 830.61507677 -66.17504883 809.13769531 C-67.92178784 809.1313474 -67.92178784 809.1313474 -69.70381451 809.12487125 C-97.57181485 809.02340713 -125.43979618 808.91756205 -153.30776025 808.80657837 C-156.76474369 808.79281469 -160.22172727 808.77908671 -163.67871094 808.76538086 C-164.36671082 808.76265256 -165.05471071 808.75992425 -165.76355908 808.75711327 C-176.79091096 808.71346808 -187.81827158 808.67269116 -198.84563848 808.6330427 C-210.22622393 808.59205781 -221.60679247 808.54777215 -232.98735505 808.50081676 C-239.35201468 808.474655 -245.71667211 808.44982935 -252.08135033 808.42862129 C-267.03387632 808.37802005 -281.98577345 808.29903387 -296.9378047 808.1656251 C-300.18652856 808.13759627 -303.43526645 808.11374867 -306.68402481 808.09009933 C-311.87243178 808.04959535 -317.06016396 807.98704843 -322.24812376 807.90809619 C-324.13952621 807.88190016 -326.03102677 807.86184886 -327.92256582 807.84883034 C-350.0735619 807.68346704 -366.18812028 802.51687443 -383.17504883 788.13769531 C-383.83504883 787.14769531 -384.49504883 786.15769531 -385.17504883 785.13769531 C-385.83504883 785.13769531 -386.49504883 785.13769531 -387.17504883 785.13769531 C-387.17504883 784.14769531 -387.17504883 783.15769531 -387.17504883 782.13769531 C-388.49991681 780.79595003 -389.83446271 779.46373619 -391.17504883 778.13769531 C-400.07926707 762.12019224 -403.33026605 743.12934216 -398.36254883 725.32519531 C-396.27458314 718.75730325 -393.53953545 713.45691339 -389.17504883 708.13769531 C-388.72129883 707.35394531 -388.26754883 706.57019531 -387.80004883 705.76269531 C-384.94842049 701.15621876 -381.69349016 697.14998953 -377.17504883 694.13769531 C-377.17504883 693.47769531 -377.17504883 692.81769531 -377.17504883 692.13769531 C-376.18504883 692.13769531 -375.19504883 692.13769531 -374.17504883 692.13769531 C-373.59239258 691.54214844 -373.00973633 690.94660156 -372.40942383 690.33300781 C-361.17205484 679.29209633 -341.36268225 678.97574077 -326.68429565 679.0174408 C-325.56910872 679.01658637 -324.45392178 679.01573195 -323.3049413 679.01485163 C-319.59089147 679.0132125 -315.87688742 679.01869243 -312.1628418 679.02416992 C-309.49144896 679.02445216 -306.82005888 679.02433731 -304.14866638 679.02372742 C-298.40899055 679.02320467 -292.66932613 679.02632537 -286.92965317 679.03196526 C-278.63118915 679.04011411 -270.33273062 679.04269894 -262.03426303 679.04395325 C-248.56849319 679.04613846 -235.10272943 679.05278412 -221.63696289 679.06225586 C-208.56111684 679.07144373 -195.48527245 679.07851783 -182.40942383 679.08276367 C-181.60257526 679.0830264 -180.79572669 679.08328912 -179.96442817 679.0835598 C-175.91645122 679.0848649 -171.86847425 679.08612859 -167.82049727 679.08737171 C-134.27201005 679.09772778 -100.72353019 679.11533162 -67.17504883 679.13769531 C-67.04909915 671.19930298 -66.92413926 663.26089583 -66.80029109 655.32247046 C-66.74269429 651.63241448 -66.68481255 647.94236354 -66.62616444 644.2523241 C-66.18120435 616.23117535 -65.88966787 588.21012049 -65.67236328 560.1862793 C-65.62289098 553.81876447 -65.56917787 547.4512933 -65.51439476 541.08382225 C-65.21573513 506.10072449 -65.11514408 471.12193292 -65.17504883 436.13769531 C-65.95034848 435.96651341 -66.72564814 435.79533152 -67.52444172 435.61896229 C-71.07203606 434.83502973 -74.61927178 434.04948587 -78.16650391 433.26391602 C-79.38610054 432.9946656 -80.60569717 432.72541519 -81.86225128 432.44800568 C-90.25113562 430.58860328 -98.58403378 428.63266195 -106.86254883 426.32519531 C-108.05041992 425.99608154 -109.23829102 425.66696777 -110.4621582 425.32788086 C-121.46299412 422.19850973 -132.11478585 418.3106395 -142.74145508 414.09814453 C-144.81656187 413.27917682 -146.89693602 412.48236306 -148.98754883 411.70410156 C-162.45053866 406.67197914 -175.39294426 400.6646924 -188.18823242 394.140625 C-190.14028364 393.15524451 -192.10216583 392.1935452 -194.06958008 391.23925781 C-203.97687991 386.4143706 -213.47681756 381.01220959 -222.97094727 375.42333984 C-224.95791659 374.26434777 -226.95520736 373.1292013 -228.96411133 372.00878906 C-237.02198112 367.50693178 -244.67777578 362.58954836 -252.30151367 357.40234375 C-254.11996636 356.17487634 -255.95067834 354.96899803 -257.78833008 353.77050781 C-273.97920533 343.18836483 -289.3253646 331.5210097 -304.17504883 319.13769531 C-304.76012207 318.65171875 -305.34519531 318.16574219 -305.94799805 317.66503906 C-312.59195639 312.1375067 -319.08942949 306.48214558 -325.44458008 300.62207031 C-326.87445258 299.32107044 -328.30900815 298.02414806 -329.78369141 296.77416992 C-336.31075407 291.22230578 -342.31243858 285.15122272 -348.35693359 279.08618164 C-350.23334358 277.20441257 -352.11503852 275.32804793 -353.99731445 273.45214844 C-359.93428414 267.5188653 -365.78761622 261.58262293 -371.17504883 255.13769531 C-372.11080309 254.04616898 -373.0469871 252.95501089 -373.98364258 251.86425781 C-391.98960486 230.67327071 -408.59344872 208.37207525 -422.65161133 184.34863281 C-423.40571289 183.25421875 -423.40571289 183.25421875 -424.17504883 182.13769531 C-427.1198805 182.13769531 -428.75072547 183.56994735 -431.24926758 185.11035156 Z M427.82495117 182.13769531 C426.11723959 184.75435015 424.52085086 187.37760216 422.94995117 190.07519531 C411.57245937 209.13650689 398.12984884 227.17309305 383.82495117 244.13769531 C383.37684082 244.67072266 382.92873047 245.20375 382.46704102 245.75292969 C380.98681396 247.51016708 379.50075319 249.26229323 378.01245117 251.01269531 C377.57545898 251.52912598 377.1384668 252.04555664 376.68823242 252.57763672 C367.67585552 263.10162345 358.06259185 273.06776594 348.25073242 282.84228516 C346.5581377 284.52945489 344.8710452 286.22199727 343.18432617 287.91503906 C337.56705887 293.53610403 331.90396569 299.01141324 325.82495117 304.13769531 C324.73017616 305.0870354 323.63639588 306.03752403 322.54370117 306.98925781 C301.03887318 325.56160926 278.68679174 342.68890182 254.82495117 358.13769531 C253.87168945 358.75628418 252.91842773 359.37487305 251.9362793 360.01220703 C249.02864857 361.89443908 246.11578855 363.76820511 243.19995117 365.63769531 C242.32419434 366.20109619 241.4484375 366.76449707 240.54614258 367.3449707 C235.24762165 370.71524834 229.85700124 373.81821897 224.32495117 376.7890625 C221.22033441 378.46385771 218.18260004 380.23221931 215.13745117 382.01269531 C208.20074475 386.02145729 201.07601904 389.60663624 193.88012695 393.12353516 C192.42073295 393.84369703 190.96646589 394.57429018 189.51586914 395.31201172 C183.25595564 398.49096126 176.89923825 401.36534572 170.44995117 404.13769531 C169.42973877 404.57774902 168.40952637 405.01780273 167.35839844 405.47119141 C165.37053306 406.32738037 163.38203867 407.18211089 161.39282227 408.03515625 C159.4052368 408.88854434 157.42102335 409.74978841 155.43823242 410.61425781 C152.58442531 411.83910349 149.71546659 413.00188451 146.82495117 414.13769531 C146.11242188 414.41790527 145.39989258 414.69811523 144.66577148 414.98681641 C133.48710773 419.33457436 122.19341295 423.04789062 110.63745117 426.26269531 C109.56696533 426.56280518 108.49647949 426.86291504 107.39355469 427.17211914 C94.65036343 430.6251547 81.72108771 433.32509957 68.82495117 436.13769531 C68.67431843 478.94813596 68.87035129 521.75494001 69.21450871 564.56406236 C69.2515245 569.17500348 69.28705886 573.78595428 69.32199097 578.39691162 C69.37068418 584.78285541 69.42301917 591.16876094 69.47782898 597.55465508 C69.49751336 599.88840405 69.51633061 602.22216059 69.53404236 604.55592537 C69.725411 629.42060485 70.29007692 654.27851793 70.82495117 679.13769531 C71.67711871 679.13655615 71.67711871 679.13655615 72.54650176 679.13539398 C106.2581396 679.09058486 139.96977065 679.05629547 173.68143181 679.03556465 C177.73415446 679.0330634 181.78687705 679.03047474 185.83959961 679.02783203 C186.64638387 679.02730741 187.45316812 679.02678279 188.28440039 679.02624227 C201.32763553 679.01755257 214.37085295 679.00179054 227.41407759 678.98338972 C240.80931109 678.96465068 254.20453533 678.95357014 267.59978139 678.94951832 C275.85753782 678.94678156 284.11524412 678.93815476 292.37298511 678.92186238 C298.04464401 678.91124601 303.71627721 678.90810516 309.38794531 678.91069256 C312.65444838 678.91196665 315.92084649 678.90897641 319.18733788 678.89928436 C351.55774477 678.8079839 351.55774477 678.8079839 364.38745117 684.07519531 C365.37455078 684.45321289 365.37455078 684.45321289 366.3815918 684.83886719 C376.07661797 688.64102891 376.07661797 688.64102891 377.82495117 692.13769531 C378.81495117 692.13769531 379.80495117 692.13769531 380.82495117 692.13769531 C381.15495117 693.12769531 381.48495117 694.11769531 381.82495117 695.13769531 C383.48710385 696.47665164 385.15458725 697.80899673 386.82495117 699.13769531 C390.54890682 703.22496371 393.13811702 707.31992373 395.82495117 712.13769531 C396.48495117 712.79769531 397.14495117 713.45769531 397.82495117 714.13769531 C398.7507478 716.5488043 399.59385588 718.9339081 400.38745117 721.38769531 C400.60852539 722.04382813 400.82959961 722.69996094 401.05737305 723.37597656 C407.02057268 741.49977966 404.05568355 759.31289706 395.6940918 776.02270508 C393.09890023 781.00072078 393.09890023 781.00072078 390.82495117 782.13769531 C390.82495117 783.12769531 390.82495117 784.11769531 390.82495117 785.13769531 C389.83495117 785.46769531 388.84495117 785.79769531 387.82495117 786.13769531 C386.14000977 787.78588463 384.47585558 789.45541407 382.82495117 791.13769531 C364.89052734 805.99120555 348.10316173 807.59378889 325.58666992 807.79003906 C323.06393091 807.82200331 320.54120066 807.8546644 318.01847839 807.88792419 C308.62089539 808.00457943 299.22301414 808.07304989 289.82495117 808.13769531 C288.86850488 808.14432347 287.91205858 808.15095163 286.92662907 808.15778065 C253.96360052 808.38403724 221.00021513 808.52636282 188.03668487 808.6551069 C175.22308992 808.70528716 162.40951484 808.75990147 149.59593928 808.81477654 C123.33896178 808.92713024 97.08196522 809.03426052 70.82495117 809.13769531 C70.07426133 848.07159029 69.61695923 886.99984883 69.39763087 925.94041312 C69.35480811 933.51380097 69.30789288 941.08716243 69.2608924 948.66052531 C69.17446291 962.60020779 69.09073307 976.53990509 69.00872803 990.47961426 C68.817378 1022.99611239 68.61744651 1055.51255863 68.41785929 1088.02900708 C68.37886513 1094.38487155 68.34007233 1100.74073724 68.30135345 1107.09660339 C67.99752319 1156.94804353 67.66641492 1206.79921535 67.3042758 1256.65026572 C67.24483593 1264.83775521 67.1860947 1273.02524967 67.12741937 1281.21274467 C67.08115782 1287.6663316 67.03478814 1294.11991776 66.98841338 1300.57350388 C66.97694375 1302.16968547 66.96547673 1303.76586709 66.95401235 1305.36204872 C66.83296278 1322.21299558 66.71086072 1339.06393183 66.58213323 1355.914822 C66.34721903 1386.67584067 66.13007563 1417.43676987 65.9764898 1448.19831642 C65.95907442 1451.68372596 65.94135988 1455.16913392 65.92346191 1458.65454102 C65.91987906 1459.35340308 65.9162962 1460.05226514 65.91260477 1460.77230485 C65.85226646 1472.38864815 65.76755955 1484.00471758 65.67565918 1495.62084961 C65.5573162 1510.58306024 65.46573866 1525.54520728 65.40354121 1540.50775981 C65.36633177 1549.26060353 65.30906979 1558.01280009 65.22400573 1566.76531178 C65.16824382 1572.71145145 65.13900125 1578.65736654 65.12993011 1584.60375899 C65.1239442 1588.03026354 65.10690064 1591.45569793 65.05823565 1594.88188457 C64.78170391 1616.9173811 67.74771004 1633.55976455 82.82495117 1650.13769531 C83.49913086 1650.894375 84.17331055 1651.65105469 84.86791992 1652.43066406 C93.07408256 1660.6368267 106.52257447 1667.25734471 118.23461914 1667.26708984 C119.344935 1667.27019669 120.45525085 1667.27330353 121.59921265 1667.27650452 C122.82612823 1667.2745256 124.05304382 1667.27254669 125.31713867 1667.27050781 C126.63356354 1667.27187241 127.9499884 1667.273237 129.30630493 1667.27464294 C132.99131847 1667.27750033 136.67628987 1667.27294872 140.36129761 1667.26646805 C142.70326797 1667.26268996 145.04523425 1667.26062292 147.38720703 1667.25900269 C178.46725159 1667.23393282 209.54626264 1666.9981493 240.62503815 1666.73152924 C244.31225329 1666.70030285 247.99947755 1666.67047094 251.68670654 1666.64093018 C257.57272126 1666.59332149 263.45867544 1666.54090095 269.34461594 1666.48488045 C271.52274721 1666.46471236 273.70089154 1666.44589811 275.87904739 1666.42858696 C300.31878518 1667.45394661 300.31878518 1667.45394661 322.94995117 1660.45019531 C323.72081055 1660.02802734 324.49166992 1659.60585937 325.28588867 1659.17089844 C329.70151632 1656.6814757 333.53118772 1653.88618753 337.26391602 1650.45874023 C338.86900161 1649.10041709 340.4720893 1648.12361932 342.32495117 1647.13769531 C345.60159807 1645.37842181 348.21959041 1643.20944783 350.95385742 1640.70019531 C352.88149088 1639.09048053 354.91249009 1637.73436839 357.01171875 1636.36035156 C360.89151863 1633.74421614 364.62546819 1630.91917693 368.38745117 1628.13769531 C369.22469727 1627.52152344 370.06194336 1626.90535156 370.92456055 1626.27050781 C374.95416826 1623.29695723 378.92319127 1620.27813621 382.82495117 1617.13769531 C383.73245117 1616.53957031 384.63995117 1615.94144531 385.57495117 1615.32519531 C387.18370117 1614.24238281 387.18370117 1614.24238281 388.82495117 1613.13769531 C389.59967773 1612.7496875 390.3744043 1612.36167969 391.17260742 1611.96191406 C394.0726562 1610.25681406 395.76556268 1608.81907076 397.82495117 1606.13769531 C398.30243085 1603.39327212 398.52607001 1601.06385525 398.5690918 1598.31103516 C398.59660271 1597.52452261 398.62411362 1596.73801006 398.65245819 1595.9276638 C398.73445712 1593.33099604 398.78306373 1590.73530345 398.82495117 1588.13769531 C398.84245422 1587.26306892 398.85995728 1586.38844254 398.87799072 1585.48731232 C399.00993455 1578.65489744 399.0616799 1571.82270674 399.10620117 1564.98925781 C399.12405907 1562.75457935 399.14234498 1560.51990428 399.161026 1558.28523254 C399.19988576 1553.55685861 399.23634769 1548.82847536 399.27078247 1544.10006714 C399.3520944 1532.96470218 399.44583949 1521.82943946 399.53964424 1510.69417381 C399.56059698 1508.20374866 399.58140334 1505.71332226 399.60206413 1503.22289467 C399.81158825 1478.03256429 400.12106355 1452.84421805 400.48787117 1427.6557312 C400.7132741 1412.14883815 400.8940256 1396.646549 400.82495117 1381.13769531 C375.92872795 1380.27785485 351.05754449 1379.97698359 326.1472168 1380.00732422 C321.36298291 1380.01307858 316.57880398 1380.00959853 311.79457188 1380.00387573 C284.77700802 1379.97536263 284.77700802 1379.97536263 257.78405762 1381.02862549 C239.37677473 1382.05341876 225.14114297 1379.93564187 208.82495117 1371.13769531 C207.79876408 1370.16458686 206.78628358 1369.17492239 205.82495117 1368.13769531 C205.16495117 1368.13769531 204.50495117 1368.13769531 203.82495117 1368.13769531 C203.82495117 1367.47769531 203.82495117 1366.81769531 203.82495117 1366.13769531 C202.49161784 1364.47102865 202.49161784 1364.47102865 200.82495117 1363.13769531 C200.16495117 1363.13769531 199.50495117 1363.13769531 198.82495117 1363.13769531 C197.32495117 1360.13769531 197.32495117 1360.13769531 195.82495117 1357.13769531 C195.16495117 1357.13769531 194.50495117 1357.13769531 193.82495117 1357.13769531 C193.55682617 1356.43644531 193.28870117 1355.73519531 193.01245117 1355.01269531 C191.87554957 1352.12534722 191.87554957 1352.12534722 190.38745117 1349.45019531 C183.08488822 1333.96876186 182.74596259 1316.58394157 188.45776367 1300.65722656 C190.60148568 1295.13867362 192.53159934 1290.31529502 196.82495117 1286.13769531 C197.95541854 1284.80899433 199.08013941 1283.475389 200.19995117 1282.13769531 C202.84597418 1279.08416243 205.2249443 1277.03769894 208.82495117 1275.13769531 C209.52491211 1274.42033203 209.52491211 1274.42033203 210.23901367 1273.68847656 C221.39852728 1262.77634134 242.11553364 1262.7220372 256.51245117 1262.02050781 C257.34851898 1261.97839298 258.18458679 1261.93627815 259.04598999 1261.89288712 C285.16941404 1260.62137264 311.34117661 1260.90844396 337.48802662 1260.99364018 C344.63503437 1261.01651332 351.78204729 1261.02712044 358.92908287 1261.0370481 C373.56107627 1261.05762984 388.19301238 1261.09251349 402.82495117 1261.13769531 C403.0915721 1246.5374722 403.35243546 1231.93715448 403.60725403 1217.33672047 C403.72581299 1210.55052284 403.84607201 1203.76436507 403.97045898 1196.97827148 C404.62799857 1161.02741613 404.97245345 1125.09463745 404.82495117 1089.13769531 C365.00810273 1088.82052227 325.58069683 1089.68136719 285.82495117 1092.13769531 C284.88748047 1092.19523987 283.95000977 1092.25278442 282.98413086 1092.31207275 C280.44145087 1092.46820121 277.89881902 1092.62508976 275.35620117 1092.78222656 C274.58555832 1092.82963989 273.81491547 1092.87705322 273.0209198 1092.92590332 C269.66607126 1093.13320573 266.31231671 1093.34759457 262.95898438 1093.57861328 C243.12737167 1094.8925265 227.49960901 1093.70090653 209.82495117 1084.13769531 C208.4946599 1083.46497891 207.16283259 1082.79518716 205.82495117 1082.13769531 C205.82495117 1081.47769531 205.82495117 1080.81769531 205.82495117 1080.13769531 C203.84234691 1078.45037254 201.84171697 1076.78403474 199.82495117 1075.13769531 C199.49495117 1074.47769531 199.16495117 1073.81769531 198.82495117 1073.13769531 C198.16495117 1073.13769531 197.50495117 1073.13769531 196.82495117 1073.13769531 C195.6186711 1070.80555383 194.65947738 1068.64127393 193.82495117 1066.13769531 C193.16495117 1065.80769531 192.50495117 1065.47769531 191.82495117 1065.13769531 C188.84827423 1058.73923086 186.36883449 1052.20817841 185.82495117 1045.13769531 C185.7244043 1044.49058594 185.62385742 1043.84347656 185.52026367 1043.17675781 C183.52336966 1029.68554705 186.42275653 1017.06905805 192.82495117 1005.13769531 C193.51023162 1003.47859528 194.1838698 1001.81436967 194.82495117 1000.13769531 C195.48495117 1000.13769531 196.14495117 1000.13769531 196.82495117 1000.13769531 C198.11140319 998.60945555 198.11140319 998.60945555 199.32495117 996.70019531 C201.61649196 993.24192492 201.61649196 993.24192492 203.82495117 992.13769531 C203.82495117 991.47769531 203.82495117 990.81769531 203.82495117 990.13769531 C205.82495117 989.13769531 207.82495117 988.13769531 209.82495117 987.13769531 C209.82495117 986.47769531 209.82495117 985.81769531 209.82495117 985.13769531 C210.39600586 984.97914063 210.96706055 984.82058594 211.55541992 984.65722656 C216.47586041 983.24132874 221.11909561 981.59626161 225.82495117 979.57519531 C234.074329 976.41182884 242.0988333 975.72198304 250.82495117 975.13769531 C251.95030273 975.0595459 253.0756543 974.98139648 254.23510742 974.90087891 C302.67884025 971.648986 351.28941445 970.82030666 399.82495117 970.13769531 C400.04170201 966.99933262 400.23408872 963.85990151 400.42260742 960.71972656 C400.48339478 959.84384888 400.54418213 958.96797119 400.60681152 958.06555176 C401.66206214 939.71097184 394.60890569 918.9225302 382.38745117 905.20019531 C381.49799805 904.21212891 381.49799805 904.21212891 380.59057617 903.20410156 C368.15076523 888.64511929 365.67536365 873.78924862 366.82495117 855.13769531 C368.10906475 843.33910718 373.36803237 832.48109842 381.82495117 824.13769531 C381.82495117 823.47769531 381.82495117 822.81769531 381.82495117 822.13769531 C382.81495117 821.80769531 383.80495117 821.47769531 384.82495117 821.13769531 C384.82495117 820.47769531 384.82495117 819.81769531 384.82495117 819.13769531 C385.69120117 819.01394531 385.69120117 819.01394531 386.57495117 818.88769531 C388.95860441 818.28463536 388.95860441 818.28463536 390.62963867 816.28222656 C399.52424278 807.59336953 413.47552192 805.10604812 425.44995117 804.76269531 C443.97827944 805.3438009 459.25887844 814.05872165 471.82495117 827.13769531 C472.64737305 827.97558594 473.46979492 828.81347656 474.31713867 829.67675781 C479.6765717 835.36100496 483.80813781 841.4597431 487.82495117 848.13769531 C488.74089097 849.53400572 489.65748738 850.92988579 490.57495117 852.32519531 C492.54117612 855.45706502 493.85639091 858.5559775 494.95385742 862.08300781 C495.83903919 864.35403494 495.83903919 864.35403494 497.73901367 866.96972656 C501.00758063 871.93378612 502.9380507 877.38385796 504.99975586 882.92578125 C505.54541736 884.38841238 506.10062151 885.84752243 506.66577148 887.30273438 C511.3500609 899.46047297 514.18663121 911.81525434 516.63745117 924.57519531 C516.78447479 925.34060638 516.93149841 926.10601746 517.08297729 926.8946228 C518.70908914 935.44313847 520.16538693 943.975095 521.20654297 952.6184082 C521.72651308 955.57749593 522.45230148 958.17731384 523.34117126 961.03276062 C525.11705446 967.52005085 525.23688821 973.64236139 525.18383789 980.3359375 C525.18372398 981.6728799 525.18475624 983.00982277 525.18680191 984.34676361 C525.18777025 988.07532849 525.16789099 991.80353358 525.14369822 995.53201008 C525.12939997 997.97536106 525.12079504 1000.41867025 525.11394882 1002.86205292 C524.95942157 1056.86714604 523.98526198 1110.87172612 523.15650916 1164.86994505 C522.9966168 1175.29427979 522.83964247 1185.71865525 522.68481445 1196.14306641 C522.66856167 1197.23726736 522.66856167 1197.23726736 522.65198055 1198.35357338 C522.60825707 1201.29790155 522.56455151 1204.24222997 522.52086945 1207.18655875 C522.14040989 1232.82854653 521.75585366 1258.47047332 521.36499023 1284.11230469 C521.35402268 1284.83184849 521.34305513 1285.5513923 521.33175522 1286.29274046 C521.01545622 1307.03156642 520.68874211 1327.77021086 520.35425822 1348.50875117 C520.27034565 1353.7135381 520.18697214 1358.91833343 520.10394859 1364.12313461 C520.092358 1364.84952497 520.08076741 1365.57591532 520.0688256 1366.3243175 C520.02245824 1369.2305946 519.97610016 1372.13687184 519.92980962 1375.04315016 C519.8080455 1382.68622554 519.685143 1390.32927787 519.55807877 1397.97226715 C519.29848137 1413.61902366 519.05685033 1429.26578689 518.86493969 1444.91353416 C518.83836658 1447.05604927 518.81084906 1449.19855287 518.78236866 1451.34104347 C518.70358935 1457.28279298 518.6396539 1463.22425489 518.60286355 1469.16642046 C518.59000342 1470.92077497 518.57215054 1472.67510153 518.5487802 1474.42934752 C518.51845931 1476.79765265 518.50733242 1479.16527812 518.50149536 1481.53375244 C518.49130434 1482.8439246 518.48111332 1484.15409676 518.47061348 1485.5039711 C518.88561839 1489.75983609 519.86313677 1492.35635823 521.82495117 1496.13769531 C527.1105999 1500.28077563 533.77706232 1499.71187959 540.20776367 1499.86816406 C541.43541946 1499.90849258 542.66307526 1499.94882111 543.92793274 1499.9903717 C547.24832892 1500.09536462 550.56852797 1500.18729106 553.88947678 1500.2716217 C555.95054462 1500.32521074 558.01141261 1500.38373054 560.07229614 1500.44396973 C578.13261809 1500.97090677 596.19396394 1501.33391656 614.26245117 1501.38769531 C615.18165344 1501.39296234 616.10085571 1501.39822937 617.0479126 1501.40365601 C619.61828944 1501.41520075 622.18816682 1501.41220064 624.75854492 1501.40332031 C625.49639725 1501.4072731 626.23424957 1501.41122589 626.99446106 1501.41529846 C631.93789958 1501.37054717 636.37682643 1500.79017952 640.54370117 1497.97753906 C642.52366936 1495.13435304 643.38864335 1491.99580417 644.32495117 1488.70019531 C644.53998291 1487.94649658 644.75501465 1487.19279785 644.9765625 1486.41625977 C651.90427 1461.01640253 651.76259103 1433.99043712 652.64016724 1407.85876465 C653.8530397 1372.19117299 658.03162196 1337.75493584 663.68190002 1302.52670288 C663.8324736 1301.58138702 663.98304718 1300.63607117 664.13818359 1299.66210938 C664.27125412 1298.83326233 664.40432465 1298.00441528 664.54142761 1297.15045166 C664.87144659 1295.14639186 664.87144659 1295.14639186 664.82495117 1293.13769531 C664.05725906 1293.11708038 663.28956696 1293.09646545 662.49861145 1293.07522583 C655.16158134 1292.87692314 647.82479233 1292.67162525 640.48816395 1292.4590168 C636.71892501 1292.35002007 632.94965435 1292.24346414 629.18017578 1292.14306641 C568.29182824 1290.51445386 568.29182824 1290.51445386 552.82495117 1277.13769531 C551.87620117 1276.41582031 550.92745117 1275.69394531 549.94995117 1274.95019531 C543.23767631 1269.29320078 538.91291903 1262.25692115 535.82495117 1254.13769531 C535.46401367 1253.24824219 535.10307617 1252.35878906 534.73120117 1251.44238281 C532.46951663 1245.64277745 531.08176936 1240.3571619 530.82495117 1234.13769531 C530.78499023 1233.409375 530.7450293 1232.68105469 530.70385742 1231.93066406 C530.44938736 1223.38346387 532.2089959 1215.79754292 535.88745117 1208.10253906 C536.91096936 1206.03853104 536.91096936 1206.03853104 537.82495117 1203.38769531 C539.07101831 1200.58404425 540.90046558 1198.51122754 542.82495117 1196.13769531 C542.82495117 1195.47769531 542.82495117 1194.81769531 542.82495117 1194.13769531 C543.81495117 1193.80769531 544.80495117 1193.47769531 545.82495117 1193.13769531 C546.84361346 1191.48236909 547.8430593 1189.81509393 548.82495117 1188.13769531 C549.81495117 1187.47769531 550.80495117 1186.81769531 551.82495117 1186.13769531 C551.82495117 1185.47769531 551.82495117 1184.81769531 551.82495117 1184.13769531 C552.60870117 1183.93144531 553.39245117 1183.72519531 554.19995117 1183.51269531 C558.14018594 1182.0181235 561.29445938 1180.0227079 564.77416992 1177.67285156 C572.63082012 1173.71937714 581.12592386 1172.65309138 589.80419922 1172.15454102 C591.35742638 1172.05147141 591.35742638 1172.05147141 592.94203186 1171.94631958 C596.32298215 1171.72461767 599.70469579 1171.51891292 603.08666992 1171.31347656 C605.44755845 1171.16181474 607.80838244 1171.00914507 610.16914368 1170.85551453 C616.35143433 1170.45588762 622.53450083 1170.06987053 628.71783447 1169.68676758 C635.03987738 1169.292625 641.36108289 1168.88549802 647.68237305 1168.47949219 C660.06245102 1167.68624738 672.44338835 1166.90739092 684.82495117 1166.13769531 C685.30721168 1164.70654355 685.78812033 1163.2749362 686.26846313 1161.84313965 C686.53641504 1161.04596275 686.80436695 1160.24878586 687.08043861 1159.42745209 C688.00742765 1156.57648685 688.76390799 1153.70630538 689.47338867 1150.79394531 C689.75384033 1149.64337646 690.03429199 1148.49280762 690.32324219 1147.30737305 C690.61255615 1146.09637939 690.90187012 1144.88538574 691.19995117 1143.63769531 C691.66002563 1141.72162476 691.66002563 1141.72162476 692.12939453 1139.7668457 C694.52467841 1129.70796549 696.60704727 1119.60064846 698.57495117 1109.45019531 C699.67051213 1103.83102783 700.87734828 1098.24021 702.10424805 1092.6484375 C704.88273562 1079.972021 707.28095019 1067.29375936 709.29663086 1054.47509766 C709.90075953 1050.65881348 710.52204067 1046.84542582 711.14526367 1043.03222656 C711.60142759 1040.2341202 712.05699562 1037.43591706 712.51245117 1034.63769531 C712.62122589 1033.97039398 712.73000061 1033.30309265 712.84207153 1032.61557007 C719.00023849 994.76207475 725.22435265 941.6487495 701.82495117 908.13769531 C701.16495117 908.13769531 700.50495117 908.13769531 699.82495117 908.13769531 C699.57745117 907.33332031 699.32995117 906.52894531 699.07495117 905.70019531 C698.12887379 903.00571974 698.12887379 903.00571974 695.98340607 902.47319126 C692.44399593 901.92304877 688.92764441 902.25977151 685.36987305 902.4831543 C684.51693665 902.53177612 683.66400024 902.58039795 682.78521729 902.63049316 C680.92993432 902.73697673 679.07480939 902.84624159 677.21983337 902.95794487 C674.25490539 903.13612047 671.28961301 903.30629922 668.32409668 903.47438049 C659.89014007 903.95405741 651.45712076 904.4495317 643.02416992 904.9465332 C601.86288782 907.36460798 601.86288782 907.36460798 585.60620117 907.48535156 C584.02736145 907.50848671 584.02736145 907.50848671 582.41662598 907.53208923 C572.18116051 907.49294818 562.65094993 905.42562825 554.01245117 899.82519531 C553.06281494 899.23242798 553.06281494 899.23242798 552.09399414 898.62768555 C541.06679519 891.62138334 541.06679519 891.62138334 538.82495117 887.13769531 C538.16495117 887.13769531 537.50495117 887.13769531 536.82495117 887.13769531 C536.43629883 886.32558594 536.43629883 886.32558594 536.03979492 885.49707031 C535.15849654 883.78548117 534.20246872 882.11172423 533.20385742 880.46582031 C524.59019244 865.86889987 522.5062459 849.13989018 526.32495117 832.57519531 C528.81778853 824.01556021 533.10046804 816.91203276 538.57104492 809.89941406 C540.01824128 808.22652418 540.01824128 808.22652418 539.82495117 806.13769531 C540.50557617 805.93144531 541.18620117 805.72519531 541.88745117 805.51269531 C544.54394999 804.26922778 545.90805065 803.26503371 548.01245117 801.32519531 C562.02929125 788.96626105 581.22815409 789.47038074 598.82495117 788.57519531 C601.06248895 788.4530228 603.29995675 788.32956217 605.53735352 788.20483398 C608.86712288 788.01930151 612.19690729 787.83444415 615.52694702 787.65382385 C624.50743434 787.16591176 633.47900807 786.58823503 642.44995117 785.95019531 C643.6384668 785.86632568 644.82698242 785.78245605 646.05151367 785.69604492 C648.6428207 785.51205736 651.233973 785.32624703 653.82495117 785.13769531 C664.01286382 754.57395738 660.40611935 709.01587037 655.23950195 677.69580078 C654.82372698 675.13014107 654.47134145 672.56234081 654.13354492 669.98535156 C652.82603901 660.35005333 650.67806505 651.34795643 647.50756836 642.16210938 C646.80506007 640.07870495 646.15805871 637.98393908 645.52026367 635.87988281 C640.21266913 618.66461578 632.76847179 602.49576403 621.82495117 588.13769531 C621.30416992 587.4196875 620.78338867 586.70167969 620.24682617 585.96191406 C618.80843277 583.99005058 617.32887532 582.06000437 615.82495117 580.13769531 C614.91422852 578.9659375 614.91422852 578.9659375 613.98510742 577.77050781 C604.80925671 566.2537045 594.59273324 554.51271564 583.26245117 545.07519531 C581.32371294 543.44147409 579.53144776 541.83529786 577.76245117 540.01269531 C575.79401078 537.99518197 575.79401078 537.99518197 573.01245117 536.26269531 C570.52390314 534.60366329 568.47121655 532.99098083 566.26245117 531.01269531 C563.60358343 528.6728917 561.26277808 527.17946104 557.82495117 526.13769531 C557.82495117 525.47769531 557.82495117 524.81769531 557.82495117 524.13769531 C555.91828051 522.55645167 555.91828051 522.55645167 553.44995117 520.95019531 C552.53342773 520.32757812 551.6169043 519.70496094 550.67260742 519.06347656 C549.73288086 518.42796875 548.7931543 517.79246094 547.82495117 517.13769531 C546.17744644 515.9733901 544.53156483 514.80678416 542.88745117 513.63769531 C538.65893772 510.67904503 534.34945757 507.88263481 529.97729492 505.14160156 C527.63635408 503.65349419 525.32210612 502.14332576 523.01635742 500.60253906 C514.00450492 494.61172958 504.81657466 489.35341075 495.19213867 484.41113281 C491.59868132 482.56126471 488.10581603 480.58995448 484.63745117 478.51269531 C471.13543505 470.52246111 456.65544459 464.11423701 442.51635742 457.35253906 C438.34143932 455.35475108 434.18248417 453.33034027 430.03979492 451.26660156 C429.17201416 450.83984131 428.3042334 450.41308105 427.41015625 449.97338867 C425.81733586 449.18954464 424.22952026 448.39541232 422.64794922 447.58911133 C418.51201333 445.57263495 416.22578461 444.78459946 411.82495117 446.13769531 C409.5692734 447.47993816 409.5692734 447.47993816 407.41088867 449.24316406 C406.5771875 449.88987061 405.74348633 450.53657715 404.88452148 451.20288086 C403.55565918 452.25342651 403.55565918 452.25342651 402.19995117 453.32519531 C400.30777347 454.79529966 398.41452231 456.26402328 396.52026367 457.73144531 C395.56667969 458.47265625 394.6130957 459.21386719 393.63061523 459.97753906 C389.49491265 463.16172776 385.2899152 466.24715085 381.07495117 469.32519531 C372.22941038 475.80684158 363.51069078 482.44401604 354.82495117 489.13769531 C353.70785779 489.99719266 352.59067583 490.85657488 351.47338867 491.71582031 C349.38185554 493.32469195 347.29070683 494.93406346 345.19995117 496.54394531 C341.2481762 499.58377221 337.28620168 502.61023399 333.32495117 505.63769531 C331.86790487 506.75225896 330.4108734 507.86684202 328.95385742 508.98144531 C326.4434662 510.90159746 323.93071201 512.81854132 321.41479492 514.73144531 C315.39632245 519.32547139 309.49260506 524.02586647 303.63745117 528.82519531 C294.89275403 535.9654082 286.27539299 542.66774232 275.82495117 547.13769531 C274.9303418 547.53214844 274.03573242 547.92660156 273.11401367 548.33300781 C258.85052693 553.68649496 240.74126657 553.30580227 226.82495117 547.13769531 C225.76920898 546.67878906 224.7134668 546.21988281 223.62573242 545.74707031 C217.5187679 542.89264655 212.7854789 539.6668728 207.82495117 535.13769531 C207.16495117 535.13769531 206.50495117 535.13769531 205.82495117 535.13769531 C205.57358398 534.57179688 205.3222168 534.00589844 205.06323242 533.42285156 C203.65206155 530.81864033 201.94523818 528.81841083 200.01245117 526.57519531 C190.80458252 515.19880687 187.27321141 501.8377769 187.51245117 487.38769531 C187.50922852 486.39898438 187.50600586 485.41027344 187.50268555 484.39160156 C187.54298406 478.90367623 187.99910024 474.31528688 189.82495117 469.13769531 C190.12014648 468.29464844 190.4153418 467.45160156 190.71948242 466.58300781 C196.92587066 450.89537116 206.48561574 440.4152504 219.82495117 430.13769531 C220.85749023 429.33589844 221.8900293 428.53410156 222.95385742 427.70800781 C225.67915584 425.59864499 228.41493372 423.5033294 231.15454102 421.41259766 C241.05506337 413.85886865 241.05506337 413.85886865 250.82495117 406.13769531 C256.19562828 401.81685977 261.66171912 397.62361625 267.1340332 393.43310547 C269.95030714 391.2755615 272.76259825 389.11284606 275.57495117 386.95019531 C276.12199707 386.53012207 276.66904297 386.11004883 277.23266602 385.67724609 C280.25919384 383.35119305 283.26622338 381.00255533 286.26245117 378.63769531 C289.95522278 375.75503814 293.75250854 373.0318727 297.57495117 370.32519531 C302.73736598 366.66851367 307.79139791 362.90919495 312.78881836 359.02905273 C317.0993711 355.68454651 321.45425002 352.40312587 325.82495117 349.13769531 C332.26377845 344.32249932 338.64994499 339.44530918 345.01489258 334.53271484 C348.65466392 331.72752825 352.30194067 328.93215379 355.94995117 326.13769531 C356.68528076 325.5731665 357.42061035 325.0086377 358.17822266 324.42700195 C359.21378296 323.63410767 359.21378296 323.63410767 360.27026367 322.82519531 C360.88401855 322.3546875 361.49777344 321.88417969 362.13012695 321.39941406 C363.65862851 320.26151489 365.23943539 319.19470583 366.82495117 318.13769531 C366.82495117 317.47769531 366.82495117 316.81769531 366.82495117 316.13769531 C367.41147461 315.86054688 367.99799805 315.58339844 368.60229492 315.29785156 C375.40821517 311.7453765 381.2439122 306.18589073 387.12573242 301.32128906 C390.15678591 298.86925013 393.27352991 296.57166097 396.46166992 294.32910156 C396.91155273 293.9359375 397.36143555 293.54277344 397.82495117 293.13769531 C397.82495117 292.47769531 397.82495117 291.81769531 397.82495117 291.13769531 C398.55456055 290.85667969 399.28416992 290.57566406 400.03588867 290.28613281 C402.59782733 289.23121689 404.99876647 288.04977223 407.44995117 286.76269531 C415.65252739 282.64312509 423.59389784 279.51705367 432.82495117 279.13769531 C433.61901367 279.08613281 434.41307617 279.03457031 435.23120117 278.98144531 C449.511023 278.46530717 461.75667563 281.55192211 473.82495117 289.13769531 C474.71827148 289.65847656 475.6115918 290.17925781 476.53198242 290.71582031 C481.97387255 294.09034844 487.91867052 300.325134 490.82495117 306.13769531 C491.48495117 306.13769531 492.14495117 306.13769531 492.82495117 306.13769531 C493.81495117 309.10769531 494.80495117 312.07769531 495.82495117 315.13769531 C496.48495117 315.13769531 497.14495117 315.13769531 497.82495117 315.13769531 C498.13239258 316.74451172 498.13239258 316.74451172 498.44604492 318.38378906 C498.71797826 319.78096382 498.99012469 321.17809713 499.26245117 322.57519531 C499.3971582 323.28224609 499.53186523 323.98929688 499.6706543 324.71777344 C500.10902015 328.22198796 500.10902015 328.22198796 501.82495117 331.13769531 C501.98259522 332.91639257 502.07595794 334.70088007 502.14135742 336.48535156 C502.18325195 337.56494141 502.22514648 338.64453125 502.26831055 339.75683594 C502.30762695 340.89314453 502.34694336 342.02945313 502.38745117 343.20019531 C502.43063477 344.34037109 502.47381836 345.48054687 502.51831055 346.65527344 C502.62477956 349.48261726 502.72679325 352.31005269 502.82495117 355.13769531 C503.4244458 355.41967773 504.02394043 355.70166016 504.64160156 355.9921875 C507.39161549 357.28774726 510.13953809 358.58768593 512.88745117 359.88769531 C513.83040039 360.33113281 514.77334961 360.77457031 515.74487305 361.23144531 C519.87630735 363.18919815 523.91846761 365.14221411 527.82104492 367.52832031 C528.81233398 368.05941406 529.80362305 368.59050781 530.82495117 369.13769531 C534.24491577 367.99770711 534.67462053 367.32482844 536.64526367 364.44628906 C537.17643799 363.67462402 537.7076123 362.90295898 538.25488281 362.10791016 C538.81425537 361.27211426 539.37362793 360.43631836 539.94995117 359.57519531 C540.81511353 358.28669678 540.81511353 358.28669678 541.69775391 356.97216797 C543.42523457 354.37218108 545.13059533 351.75937095 546.82495117 349.13769531 C547.5285376 348.05270752 547.5285376 348.05270752 548.24633789 346.94580078 C554.54479652 337.0570543 557.88697648 327.68431098 559.82495117 316.13769531 C560.10145508 314.69330078 560.10145508 314.69330078 560.38354492 313.21972656 C562.90313704 296.05013488 555.50163935 278.84092488 545.82495117 265.13769531 C543.44697379 262.00927141 541.07168051 259.30124702 538.07495117 256.76269531 C533.87819953 253.18626645 533.87819953 253.18626645 532.09057617 251.55566406 C519.48420831 240.09279417 505.02290242 230.69380763 490.91723633 221.21630859 C488.21870134 219.40237153 485.52436842 217.58236096 482.83119202 215.76048279 C470.43459906 207.38203719 457.95709893 199.2236329 445.05151367 191.64160156 C440.51730344 188.97757585 436.10779808 186.15156866 431.72338867 183.24707031 C429.90362263 181.96951744 429.90362263 181.96951744 427.82495117 182.13769531 Z " fill="#101010" transform="translate(1022.175048828125,122.8623046875)"/>
</svg>
