<?xml version="1.0" encoding="UTF-8"?>
<!-- Generator: visioncortex VTracer 0.6.12 -->
<svg version="1.1" xmlns="http://www.w3.org/2000/svg" width="2048" height="2048">
<path d="M0,0 L71,0 L116,3 L159,8 L196,14 L243,24 L274,32 L303,41 L339,53 L372,66 L408,82 L448,102 L471,115 L497,130 L521,145 L546,162 L564,175 L582,189 L598,202 L612,214 L620,221 L630,230 L638,237 L646,245 L654,252 L670,268 L677,276 L687,286 L694,294 L706,308 L715,318 L722,327 L733,341 L743,354 L757,373 L779,406 L791,425 L806,451 L819,475 L827,490 L840,518 L850,541 L868,587 L880,624 L887,649 L892,667 L899,697 L907,738 L912,773 L916,812 L918,845 L918,923 L916,956 L911,1001 L904,1045 L895,1087 L886,1122 L874,1161 L865,1187 L852,1220 L840,1247 L824,1281 L811,1306 L797,1330 L787,1347 L771,1372 L755,1395 L745,1409 L732,1426 L721,1440 L710,1453 L701,1464 L686,1480 L679,1488 L671,1496 L666,1502 L664,1502 L662,1506 L649,1519 L641,1526 L634,1533 L626,1540 L616,1549 L608,1556 L597,1565 L581,1578 L564,1591 L546,1604 L527,1617 L507,1630 L486,1643 L458,1659 L423,1677 L400,1688 L372,1700 L338,1713 L300,1726 L266,1736 L225,1746 L190,1753 L151,1759 L116,1763 L71,1766 L2,1766 L-32,1764 L-72,1760 L-114,1754 L-159,1745 L-199,1735 L-233,1725 L-271,1712 L-306,1698 L-338,1684 L-371,1668 L-393,1656 L-421,1640 L-440,1628 L-467,1610 L-481,1600 L-497,1588 L-510,1578 L-524,1567 L-538,1555 L-549,1546 L-565,1531 L-573,1524 L-609,1488 L-609,1486 L-612,1485 L-619,1477 L-630,1465 L-639,1454 L-650,1441 L-661,1427 L-675,1409 L-689,1389 L-713,1353 L-730,1325 L-737,1313 L-744,1299 L-753,1283 L-764,1260 L-778,1229 L-795,1186 L-807,1150 L-817,1116 L-828,1072 L-835,1036 L-841,997 L-845,961 L-847,933 L-848,910 L-848,855 L-846,818 L-843,785 L-839,755 L-833,719 L-826,685 L-817,649 L-804,606 L-792,572 L-779,540 L-766,511 L-746,471 L-733,448 L-718,422 L-703,398 L-693,383 L-679,363 L-665,344 L-652,328 L-644,318 L-632,304 L-622,293 L-615,285 L-603,272 L-567,236 L-559,229 L-547,218 L-536,209 L-522,197 L-509,187 L-495,176 L-477,163 L-460,151 L-443,140 L-419,125 L-398,113 L-376,101 L-357,91 L-334,80 L-315,72 L-304,67 L-271,54 L-241,44 L-223,38 L-209,34 L-187,28 L-159,21 L-120,13 L-82,7 L-45,3 Z M23,127 L-20,129 L-61,133 L-106,140 L-147,149 L-176,157 L-214,169 L-248,182 L-263,188 L-278,195 L-307,209 L-322,217 L-334,223 L-351,233 L-377,249 L-393,260 L-410,272 L-431,288 L-445,299 L-455,308 L-466,317 L-481,331 L-496,345 L-514,363 L-521,371 L-532,383 L-539,391 L-548,402 L-561,418 L-576,438 L-589,456 L-599,471 L-612,492 L-626,516 L-638,539 L-647,556 L-662,590 L-676,627 L-688,663 L-697,695 L-706,734 L-712,768 L-716,798 L-719,831 L-720,847 L-720,919 L-717,959 L-713,992 L-708,1023 L-702,1051 L-697,1072 L-686,1111 L-676,1140 L-663,1173 L-652,1198 L-638,1227 L-622,1257 L-610,1277 L-598,1296 L-590,1308 L-578,1325 L-564,1344 L-551,1360 L-542,1371 L-529,1386 L-517,1399 L-503,1414 L-489,1428 L-481,1435 L-472,1444 L-464,1451 L-451,1462 L-434,1476 L-418,1488 L-399,1502 L-363,1526 L-338,1541 L-312,1555 L-281,1570 L-248,1584 L-219,1595 L-186,1606 L-150,1616 L-110,1625 L-69,1632 L-32,1636 L-5,1638 L27,1639 L46,1639 L91,1637 L131,1633 L164,1628 L200,1621 L217,1617 L236,1612 L263,1604 L293,1594 L321,1583 L353,1569 L370,1561 L389,1551 L413,1538 L436,1524 L453,1513 L469,1502 L483,1492 L504,1476 L521,1462 L535,1450 L548,1438 L558,1429 L589,1398 L596,1390 L606,1379 L615,1368 L626,1355 L639,1338 L653,1319 L667,1299 L681,1277 L693,1257 L707,1231 L722,1200 L736,1167 L749,1132 L761,1095 L771,1057 L778,1024 L783,994 L787,963 L790,927 L791,903 L791,865 L790,838 L786,794 L780,752 L773,716 L764,681 L755,651 L744,619 L730,585 L721,565 L709,540 L697,518 L691,507 L677,483 L655,450 L642,432 L632,419 L619,403 L610,392 L601,382 L594,374 L580,359 L549,328 L541,321 L531,312 L520,303 L507,292 L490,279 L472,266 L452,252 L431,239 L409,226 L387,214 L368,204 L340,191 L311,179 L281,168 L243,156 L213,148 L170,139 L131,133 L92,129 L47,127 Z " fill="#101010" transform="translate(992,140)"/>
<path d="M0,0 L8,0 L22,3 L32,7 L42,13 L52,22 L58,28 L58,30 L62,32 L64,36 L66,36 L73,44 L196,167 L196,169 L199,170 L206,178 L248,220 L257,231 L262,242 L267,260 L268,273 L266,287 L262,299 L255,310 L246,320 L49,517 L48,519 L51,520 L58,528 L62,531 L62,533 L66,535 L73,543 L87,558 L199,670 L206,678 L253,725 L256,730 L262,739 L265,747 L268,763 L268,771 L266,783 L263,791 L258,801 L246,815 L239,822 L231,829 L216,844 L208,851 L192,867 L184,874 L166,892 L158,899 L146,911 L144,911 L142,915 L134,922 L119,937 L111,944 L96,959 L88,966 L72,982 L64,989 L50,1003 L42,1010 L32,1020 L14,1031 L1,1035 L-12,1036 L-26,1034 L-39,1031 L-55,1023 L-63,1016 L-211,868 L-219,861 L-235,845 L-243,838 L-255,826 L-259,825 L-279,845 L-281,845 L-283,849 L-296,862 L-298,862 L-300,866 L-307,872 L-314,880 L-318,882 L-320,886 L-323,887 L-324,890 L-326,890 L-326,892 L-333,898 L-335,901 L-337,901 L-337,903 L-345,910 L-352,918 L-356,922 L-358,922 L-358,924 L-360,924 L-362,928 L-367,933 L-371,937 L-373,937 L-373,939 L-381,946 L-389,955 L-397,962 L-402,967 L-407,972 L-435,1000 L-440,1005 L-451,1016 L-460,1023 L-472,1029 L-485,1032 L-503,1032 L-517,1028 L-525,1024 L-534,1018 L-539,1012 L-544,1007 L-552,999 L-559,991 L-594,956 L-601,948 L-632,917 L-632,915 L-636,913 L-643,905 L-669,879 L-669,877 L-673,875 L-682,865 L-711,836 L-711,834 L-715,832 L-722,824 L-742,804 L-742,802 L-745,801 L-752,791 L-757,782 L-761,768 L-762,755 L-761,746 L-756,729 L-746,713 L-744,713 L-744,711 L-736,704 L-679,647 L-677,647 L-675,643 L-672,640 L-670,640 L-670,638 L-668,638 L-667,635 L-659,628 L-602,571 L-600,571 L-600,569 L-598,569 L-598,567 L-596,567 L-596,565 L-588,558 L-557,527 L-559,523 L-568,513 L-577,502 L-742,337 L-751,326 L-758,314 L-762,298 L-762,284 L-759,268 L-753,255 L-751,255 L-750,251 L-736,236 L-727,227 L-720,219 L-717,218 L-715,214 L-692,191 L-685,183 L-682,182 L-680,178 L-657,155 L-650,147 L-627,124 L-620,116 L-615,111 L-587,83 L-584,79 L-582,79 L-580,75 L-557,52 L-550,44 L-547,43 L-545,39 L-533,28 L-528,23 L-519,16 L-510,12 L-496,8 L-481,8 L-469,10 L-459,14 L-450,20 L-447,23 L-442,26 L-363,105 L-356,113 L-272,197 L-267,202 L-249,220 L-243,218 L-241,214 L-238,211 L-236,211 L-236,209 L-228,202 L-220,194 L-212,187 L-163,138 L-161,138 L-161,136 L-159,136 L-158,133 L-150,126 L-98,74 L-96,74 L-94,70 L-91,67 L-89,67 L-89,65 L-87,65 L-86,62 L-78,55 L-43,20 L-32,11 L-27,8 L-17,3 L-6,1 Z M2,155 L-31,188 L-34,190 L-34,192 L-38,194 L-80,236 L-88,243 L-125,280 L-133,287 L-148,302 L-156,309 L-184,337 L-196,346 L-211,355 L-225,360 L-236,362 L-250,363 L-275,359 L-290,353 L-304,345 L-315,337 L-325,328 L-332,322 L-339,314 L-349,303 L-353,297 L-358,292 L-365,284 L-409,240 L-416,232 L-485,163 L-489,165 L-509,185 L-509,187 L-511,187 L-518,195 L-542,219 L-542,221 L-544,221 L-551,229 L-577,255 L-577,257 L-579,257 L-586,265 L-609,288 L-607,292 L-482,417 L-473,428 L-461,441 L-454,449 L-442,463 L-430,481 L-422,497 L-417,511 L-415,524 L-415,541 L-418,555 L-423,568 L-428,577 L-437,587 L-536,686 L-542,691 L-545,694 L-545,696 L-547,696 L-547,698 L-551,700 L-552,703 L-556,705 L-608,757 L-605,762 L-603,762 L-601,766 L-585,782 L-579,789 L-574,794 L-569,799 L-566,800 L-564,804 L-548,820 L-542,827 L-534,834 L-527,842 L-511,858 L-505,865 L-500,870 L-495,875 L-491,876 L-381,766 L-373,759 L-360,746 L-352,739 L-340,727 L-332,720 L-320,708 L-313,703 L-295,696 L-275,692 L-250,692 L-236,694 L-221,698 L-200,708 L-186,718 L-175,727 L-165,737 L-157,744 L-137,764 L-131,768 L-14,885 L-10,883 L3,871 L16,858 L24,851 L42,833 L50,826 L66,810 L74,803 L89,788 L97,781 L113,765 L107,758 L-31,620 L-38,612 L-54,595 L-65,581 L-77,562 L-84,547 L-88,533 L-89,526 L-89,503 L-84,484 L-76,468 L-67,454 L-59,444 L-48,433 L-40,426 L-29,415 L-21,408 L-12,398 L-5,390 L67,318 L75,311 L79,306 L84,301 L87,299 L87,297 L89,297 L95,290 L100,285 L103,283 L103,281 L105,281 L110,276 L114,271 L116,270 L114,266 L70,222 L63,214 L4,155 Z " fill="#101010" transform="translate(1279,497)"/>
</svg>
