<?xml version="1.0" encoding="UTF-8"?>
<!-- Generator: visioncortex VTracer 0.6.12 -->
<svg version="1.1" xmlns="http://www.w3.org/2000/svg" width="2048" height="2048">
<path d="M0,0 L14,0 L24,2 L36,7 L47,15 L54,21 L61,31 L66,41 L69,56 L69,75 L65,88 L58,101 L49,113 L38,128 L30,139 L17,157 L8,169 L-3,184 L-11,195 L-19,206 L-27,217 L-35,228 L-48,246 L-62,265 L-73,280 L-84,295 L-92,306 L-100,317 L-108,328 L-116,339 L-125,351 L-133,362 L-141,373 L-149,384 L-157,395 L-165,406 L-173,417 L-181,428 L-194,446 L-203,458 L-214,473 L-222,484 L-230,495 L-238,506 L-246,517 L-254,528 L-268,547 L-279,562 L-287,573 L-295,584 L-303,595 L-311,606 L-319,617 L-327,628 L-341,647 L-352,662 L-360,673 L-368,684 L-376,695 L-384,706 L-392,717 L-400,728 L-409,740 L-417,751 L-425,763 L-427,763 L-429,768 L-433,774 L-435,774 L-437,779 L-446,791 L-451,798 L-369,799 L-279,799 L-48,800 L497,800 L736,799 L796,799 L1045,798 L1057,800 L1066,803 L1076,808 L1090,820 L1099,832 L1105,849 L1106,858 L1106,876 L1103,888 L1098,899 L1090,910 L1079,920 L1069,926 L1060,929 L1052,931 L1038,932 L763,931 L707,931 L466,930 L-78,930 L-309,931 L-386,931 L-451,932 L-440,947 L-435,954 L-435,956 L-433,956 L-427,965 L-427,967 L-425,967 L-417,979 L-408,991 L-399,1003 L-391,1014 L-383,1025 L-375,1036 L-367,1047 L-359,1058 L-351,1069 L-343,1080 L-329,1099 L-318,1114 L-310,1125 L-302,1136 L-294,1147 L-286,1158 L-278,1169 L-270,1180 L-256,1199 L-245,1214 L-237,1225 L-229,1236 L-221,1247 L-213,1258 L-205,1269 L-197,1280 L-183,1299 L-172,1314 L-164,1325 L-156,1336 L-148,1347 L-140,1358 L-132,1369 L-124,1380 L-115,1392 L-107,1403 L-99,1414 L-91,1425 L-83,1436 L-75,1447 L-67,1458 L-53,1477 L-40,1495 L-29,1510 L-18,1525 L-10,1536 L-2,1547 L6,1558 L14,1569 L28,1588 L39,1603 L47,1614 L55,1625 L62,1636 L67,1648 L69,1658 L69,1674 L66,1689 L59,1702 L54,1709 L46,1716 L32,1725 L21,1729 L11,1730 L0,1730 L-10,1728 L-19,1726 L-30,1720 L-30,1718 L-33,1718 L-33,1716 L-37,1714 L-42,1709 L-50,1699 L-61,1684 L-74,1666 L-88,1647 L-99,1632 L-110,1617 L-118,1606 L-126,1595 L-139,1577 L-153,1558 L-166,1540 L-175,1528 L-183,1517 L-191,1506 L-199,1495 L-207,1484 L-220,1466 L-234,1447 L-245,1432 L-255,1418 L-255,1416 L-257,1416 L-264,1406 L-277,1388 L-291,1369 L-304,1351 L-318,1332 L-320,1327 L-322,1327 L-328,1318 L-328,1316 L-330,1316 L-337,1306 L-350,1288 L-364,1269 L-377,1251 L-388,1236 L-399,1221 L-401,1216 L-403,1216 L-410,1206 L-418,1195 L-431,1177 L-442,1162 L-453,1147 L-461,1136 L-469,1125 L-482,1107 L-496,1088 L-507,1073 L-518,1058 L-526,1047 L-534,1036 L-542,1025 L-556,1006 L-569,988 L-580,973 L-591,958 L-599,947 L-607,936 L-615,925 L-627,908 L-632,898 L-635,889 L-636,881 L-636,846 L-634,837 L-629,825 L-620,812 L-609,797 L-598,782 L-590,771 L-582,760 L-574,749 L-561,731 L-547,712 L-536,697 L-525,682 L-517,671 L-509,660 L-501,649 L-488,631 L-474,612 L-463,597 L-452,582 L-444,571 L-436,560 L-423,542 L-412,527 L-403,514 L-401,514 L-399,509 L-387,493 L-379,482 L-369,468 L-355,449 L-342,431 L-331,416 L-330,414 L-328,414 L-326,409 L-322,403 L-320,403 L-318,398 L-304,379 L-291,361 L-277,342 L-264,324 L-257,314 L-255,314 L-253,309 L-242,294 L-228,275 L-215,257 L-206,245 L-198,234 L-190,223 L-182,212 L-174,201 L-161,183 L-147,164 L-134,146 L-125,134 L-117,123 L-109,112 L-101,101 L-93,90 L-80,72 L-66,53 L-55,38 L-46,26 L-39,17 L-35,14 L-33,14 L-33,12 L-30,12 L-30,10 L-19,4 L-8,1 Z " fill="#101010" transform="translate(780,159)"/>
</svg>
